<svg width="55" height="61" viewBox="0 0 55 61" fill="none" xmlns="http://www.w3.org/2000/svg">
<mask id="mask0_95_458" style="mask-type:luminance" maskUnits="userSpaceOnUse" x="3" y="14" width="48" height="47">
<path d="M3 14.5413H50.4404V60.3572H3V14.5413Z" fill="white"/>
</mask>
<g mask="url(#mask0_95_458)">
<path d="M20.0243 18.0028C18.6682 18.0084 17.3139 18.065 15.9654 18.2158C14.9129 18.3327 13.8717 18.4986 12.8475 18.7626C8.91493 19.775 6.12908 22.1656 4.41457 25.8421C3.74499 27.2731 3.5809 28.8285 3.3357 30.3632C3.18481 31.2983 3.12822 32.2466 3.09427 33.1912C3.05277 34.3431 3.00374 35.4951 3.07352 36.6489C3.13577 37.684 3.25271 38.7115 3.42435 39.7352C3.68086 41.2624 4.17315 42.7216 4.7786 44.1413C5.64246 46.1681 6.74208 48.0666 7.95488 49.9011C8.84702 51.251 9.82217 52.5349 10.918 53.7246C11.8083 54.6917 12.7702 55.5816 13.7454 56.4583C14.4583 57.0993 15.1901 57.7215 16.005 58.2343C16.8952 58.7962 17.8308 59.2618 18.8304 59.5993C18.8455 59.6125 18.8606 59.6238 18.8795 59.6333C19.7056 59.933 20.5072 60.3139 21.4182 60.3252C21.8558 60.3327 22.2896 60.3572 22.7253 60.278C23.4873 60.1404 24.2097 59.8708 24.934 59.6087C25.7733 59.3033 26.607 58.9847 27.4935 58.8188C27.7293 58.7735 27.9669 58.7358 28.2046 58.7019C28.7553 58.6246 29.308 58.5756 29.8644 58.5454C30.1549 58.5284 30.451 58.4832 30.7396 58.5134C31.1979 58.5605 31.6506 58.6717 32.107 58.7339C32.6219 58.8037 33.1274 58.9149 33.6442 58.9677C34.0667 59.0092 34.4892 59.0375 34.9117 59.0582C35.5945 59.0959 36.2773 59.1487 36.9544 59.045C38.2464 58.8489 39.3838 58.3079 40.3174 57.3859C40.8606 56.8467 41.3605 56.2604 41.8735 55.691C42.3639 55.1461 42.8694 54.6144 43.2843 54.0092C44.1689 52.7253 45.0045 51.4093 45.7646 50.0462C46.4908 48.7453 47.1887 47.4331 47.6979 46.0285C47.945 45.3479 48.0997 44.6353 48.3732 43.966C48.9239 42.6085 49.4238 41.2322 49.7369 39.7975C49.9538 38.802 50.1367 37.8009 50.231 36.7828C50.3027 36.0268 50.3687 35.2707 50.4008 34.5109C50.4347 33.6927 50.3291 32.8782 50.3612 32.0619C50.3725 31.8639 50.3668 31.6678 50.3423 31.4736C50.2405 30.7327 50.1235 29.9936 49.9802 29.2564C49.6954 27.7482 49.2974 26.2682 48.7844 24.8221C48.5278 24.1038 48.1581 23.4382 47.8752 22.735C47.4207 21.6095 46.7586 20.6385 45.9136 19.7882C45.1535 19.0209 44.3745 18.2705 43.5465 17.5748C42.5186 16.7094 41.3737 16.059 40.076 15.7045C38.5916 15.2954 37.0827 15.0277 35.536 15.022" fill="#FD0000"/>
</g>
<mask id="mask1_95_458" style="mask-type:luminance" maskUnits="userSpaceOnUse" x="16" y="14" width="35" height="47">
<path d="M16.8556 14.5413H50.4404V60.3572H16.8556V14.5413Z" fill="white"/>
</mask>
<g mask="url(#mask1_95_458)">
<path d="M20.0243 17.9953C20.0055 18.1065 20.511 19.0718 20.4374 19.0982C19.9885 19.2528 19.2793 19.4489 18.8983 19.7298C18.5663 19.9749 18.257 20.2558 18.2193 20.7121C18.208 20.829 18.1438 20.8346 18.0608 20.8007C17.9948 20.7724 17.9345 20.7404 17.876 20.7027C17.6572 20.5556 17.4403 20.4048 17.2215 20.2577C17.1423 20.203 17.0668 20.1785 16.9839 20.269C16.899 20.3614 16.9273 20.433 16.9801 20.5122C17.1461 20.7536 17.329 20.9741 17.5723 21.1514C17.8835 21.3776 18.2306 21.5379 18.5701 21.7038C19.6339 22.2279 20.7788 22.4183 21.9463 22.4956C22.7064 22.5465 23.4345 22.3693 24.1512 22.1393L24.3379 22.079C24.4417 22.0431 24.5435 22.0092 24.6454 21.9753L24.7736 21.93C24.8755 21.8961 24.9755 21.8621 25.0754 21.8244L25.2603 21.7584L25.4319 21.6962C25.9883 21.4983 26.5447 21.3041 27.1144 21.1476C28.1744 20.861 29.2476 20.6555 30.3472 20.6555C31.1036 20.6612 31.8543 20.7328 32.5974 20.8723C33.1425 20.9704 33.7027 21.0232 34.2176 21.223C35.2173 21.6133 36.1037 22.2034 36.8884 22.9349C37.6014 23.6004 38.2106 24.364 38.7953 25.1427C39.6912 26.3342 40.5249 27.5691 41.0813 28.968C41.3982 29.7655 41.6981 30.5725 41.8603 31.4152C42.0942 32.6482 42.2092 33.902 42.3262 35.1501C42.3903 35.842 42.4374 36.5377 42.4488 37.2334C42.4582 37.9367 42.4695 38.6418 42.4242 39.3469C42.3752 40.152 42.2733 40.9513 42.1206 41.7413C41.9263 42.7405 41.6622 43.7228 41.2944 44.6711C41.1058 45.1576 40.8587 45.6214 40.6588 46.104C40.093 47.4765 39.6535 48.8962 39.0839 50.2669C38.6086 51.4188 37.939 52.4445 37.077 53.3438C36.4036 54.047 35.7001 54.722 34.9381 55.3328C34.3892 55.774 33.8385 56.2057 33.1915 56.498C32.7539 56.6959 32.3107 56.8354 31.8109 56.8317C30.8659 56.8241 29.9191 56.7732 28.9741 56.8618C28.644 56.892 28.3177 56.9504 27.9971 57.0372L27.9631 57.0466C27.9273 57.056 27.8896 57.0673 27.8537 57.0768L27.7971 57.0937L27.7047 57.122C27.6557 57.139 27.6066 57.1578 27.5557 57.1729C27.5293 57.1823 27.5029 57.1918 27.4765 57.2012L27.4048 57.2295L27.3313 57.2578C27.3067 57.2672 27.2822 57.2766 27.2577 57.286C27.2106 57.3068 27.1615 57.3275 27.1144 57.3483C26.9767 57.4086 26.8409 57.4746 26.707 57.5443C26.6919 57.5519 26.6768 57.5613 26.6617 57.5688L26.6126 57.5952C26.59 57.6065 26.5674 57.6197 26.5429 57.6329C26.4731 57.6725 26.4033 57.7121 26.3335 57.7555C25.2886 58.3909 24.2719 59.0771 23.0987 59.4712C22.216 59.7672 21.3239 59.8822 20.3997 59.7313C19.8753 59.6446 19.351 59.5598 18.8153 59.5956H18.821C18.8361 59.6088 18.853 59.6201 18.87 59.6295C19.698 59.9293 20.4977 60.3101 21.4088 60.3215C21.5936 60.3252 21.7766 60.3309 21.9614 60.3309C22.2028 60.3328 22.4443 60.3139 22.6819 60.2743C23.4458 60.1367 24.1663 59.8671 24.8925 59.605C25.7318 59.2996 26.5655 58.981 27.4501 58.8151C27.6878 58.7698 27.9254 58.7321 28.1631 58.6982C28.7138 58.6209 29.2646 58.5718 29.821 58.5398C30.0473 58.5285 30.2737 58.4983 30.4981 58.5002C30.5754 58.4983 30.6528 58.5021 30.732 58.5096C31.1903 58.5568 31.643 58.668 32.0995 58.7302C32.6144 58.8 33.1199 58.9112 33.6367 58.964C34.0592 59.0055 34.4817 59.0338 34.9042 59.0545C35.2833 59.0752 35.6605 59.1016 36.0377 59.1016C36.3301 59.1035 36.6224 59.0828 36.911 59.0413C38.203 58.8452 39.3423 58.3041 40.274 57.3822C40.8191 56.8411 41.319 56.2566 41.832 55.6873C42.3205 55.1424 42.826 54.6107 43.2428 54.0055C44.1255 52.7216 44.9611 51.4056 45.7231 50.0425C46.4493 48.7416 47.1453 47.4294 47.6564 46.0248C47.9035 45.3423 48.0582 44.6315 48.3317 43.9622C48.8824 42.6048 49.3822 41.2285 49.6953 39.7937C49.9123 38.7983 50.0933 37.7971 50.1895 36.7791C50.2612 36.023 50.3272 35.267 50.3593 34.5072C50.3932 33.689 50.2876 32.8745 50.3197 32.0581C50.331 31.8602 50.3253 31.6641 50.3008 31.4699C50.1971 30.729 50.0801 29.9899 49.9387 29.2527C49.6538 27.7444 49.2559 26.2644 48.7428 24.8184C48.4844 24.1001 48.1166 23.4345 47.8337 22.7313C47.3792 21.6057 46.7171 20.6348 45.8721 19.7845C45.1101 19.0171 44.333 18.2668 43.505 17.5711C42.477 16.7057 41.3322 16.0553 40.0345 15.7008C38.5595 15.2955 37.06 15.0296 35.5247 15.0183L23.0195 17.4203" fill="#D10001"/>
</g>
<path d="M10.8161 25.3688C10.7369 27.1675 10.4182 28.9189 9.65049 30.5667C9.44678 31.006 9.1865 31.4114 8.82436 31.7413C8.58859 31.9562 8.32264 32.1222 7.99634 32.1467C7.4569 32.19 7.09853 31.9148 6.86276 31.4547C6.64774 31.0305 6.58361 30.5667 6.56286 30.0973C6.52891 29.2941 6.69112 28.5136 6.89482 27.7444C7.17775 26.6773 7.58893 25.6667 8.26606 24.7863C8.51503 24.462 8.81115 24.1716 9.09219 23.8719C9.36002 23.5891 9.68255 23.4062 10.0824 23.5287C10.4993 23.6569 10.652 24.0114 10.7331 24.4035C10.7973 24.7184 10.7954 25.0408 10.8161 25.3688Z" fill="#FEAF91"/>
<path d="M6.55162 34.9899C6.54596 34.7278 6.57237 34.4733 6.68553 34.2319C6.94771 33.672 7.55694 33.5626 7.98509 34.0095C8.30574 34.3451 8.43211 34.7749 8.54339 35.2086C8.66788 35.7025 8.71503 36.2003 8.56225 36.6961C8.45663 37.0373 8.28688 37.3447 7.89078 37.388C7.48715 37.4314 7.20045 37.2014 7.05522 36.8507C6.80625 36.253 6.55162 35.6535 6.55162 34.9899Z" fill="#FEAF90"/>
<path d="M22.5217 13.2461C22.3369 12.4976 22.1143 11.7604 21.8559 11.0327C21.556 10.1899 21.2127 9.37357 20.5884 8.70616C20.015 8.09342 19.7189 8.04817 18.9889 8.46483C18.9833 8.46861 18.9776 8.47238 18.972 8.47803C17.6705 9.15676 16.5011 9.98631 15.7768 11.3193C15.6071 11.5266 15.7881 11.6077 15.9145 11.7076C15.9673 11.7623 16.0183 11.8189 16.0711 11.8717C17.1122 12.8822 18.0025 14.0115 18.74 15.2615C19.2568 16.142 19.6415 17.079 19.9886 18.0349C20.1433 18.3441 20.2659 18.6684 20.3564 19.0021C20.6148 19.6506 20.7261 20.3331 20.8072 21.0175C20.8449 21.3399 20.909 21.6057 21.2674 21.6906C21.341 21.7132 21.4126 21.7377 21.4824 21.7679L21.605 21.7962C22.2067 21.947 22.7726 21.9206 23.2479 21.4511C23.3856 21.3116 23.4591 21.1551 23.4308 20.9628C23.3648 20.5292 23.3271 20.0937 23.3177 19.6544C23.312 19.2377 23.2837 18.8192 23.2347 18.4044" fill="#8D4314"/>
<path d="M18.9719 8.44403C19.3793 8.64388 19.4152 9.11522 19.0587 9.50926C18.6475 9.96551 18.142 10.2936 17.6252 10.6065C17.2291 10.8384 16.8142 11.0345 16.3841 11.1929C16.1823 11.2702 15.9862 11.3098 15.7749 11.2853C16.5011 9.95231 17.6705 9.12276 18.9719 8.44403Z" fill="#8E4416"/>
<path d="M23.2479 21.419C23.3629 21.3059 23.4308 21.1777 23.4365 21.0306C23.4365 21.008 23.4346 20.9873 23.4308 20.9665C23.3667 20.531 23.329 20.0936 23.3176 19.6543C23.312 19.2377 23.2837 18.8191 23.2347 18.4043L22.5217 13.2479C22.3368 12.4975 22.1143 11.7604 21.8559 11.0326C21.556 10.1917 21.2127 9.37349 20.5884 8.70608C20.0169 8.09711 19.7208 8.04998 19.0002 8.45721C19.3813 8.6646 19.4058 9.12274 19.0587 9.50924C18.6475 9.96361 18.142 10.2935 17.6252 10.6046C17.2292 10.8365 16.8142 11.0326 16.3842 11.1929C16.1955 11.272 15.9994 11.3022 15.7938 11.2852L15.7749 11.3173C15.741 11.3569 15.7165 11.4002 15.707 11.453C15.7183 11.5454 15.8277 11.6039 15.9145 11.6717C16.1295 11.6699 16.3521 11.7 16.5596 11.6604C17.3348 11.5153 18.0421 11.1929 18.6909 10.746C19.1096 10.4576 19.6434 10.4651 19.9641 10.8516C20.396 11.3607 20.7374 11.9244 20.9901 12.5428C21.2353 13.1499 21.373 13.7909 21.5183 14.4281C21.6314 14.9353 21.9087 16.2399 22.02 16.7452C22.02 16.7377 22.1633 18.114 22.1709 18.1083C22.1784 18.1517 22.1841 18.1951 22.186 18.2384C22.2161 18.8964 22.2444 19.5487 22.2312 20.2067C22.2312 20.2614 22.2388 20.318 22.2425 20.3726C22.3067 21.1852 22.284 21.4492 21.5333 21.698C21.5145 21.7075 21.4975 21.7188 21.4805 21.7301L21.6031 21.7603C22.2086 21.913 22.7725 21.8885 23.2479 21.419Z" fill="#6C280B"/>
<mask id="mask2_95_458" style="mask-type:luminance" maskUnits="userSpaceOnUse" x="21" y="7" width="18" height="12">
<path d="M21.6842 7.50702H38.5841V18.8851H21.6842V7.50702Z" fill="white"/>
</mask>
<g mask="url(#mask2_95_458)">
<path d="M38.1108 7.63147C38.0429 7.62393 37.9731 7.62204 37.9052 7.61638C37.3714 7.58433 36.8357 7.53154 36.302 7.524C35.2929 7.50892 34.2838 7.51269 33.2747 7.52212C32.7579 7.52589 32.2467 7.57114 31.7394 7.65786C30.6171 7.84828 29.5288 8.16691 28.4669 8.5666C25.9753 9.50739 23.9043 10.9704 22.5708 13.3497C22.5557 13.4044 22.5387 13.4591 22.5236 13.5157C22.5312 13.5534 22.518 13.5816 22.4859 13.6043C22.1936 14.1755 22.0408 14.7902 21.9408 15.4199C21.9125 15.5971 21.8823 15.7743 21.854 15.9515C21.8333 16.306 21.8069 16.6585 21.8107 17.013C21.8126 17.2241 21.8578 17.4296 21.8597 17.637C21.8635 17.8331 22.0295 17.884 22.1502 17.9745C22.5142 18.0971 22.8594 18.2762 23.2347 18.3686C23.9873 18.5288 24.7493 18.5722 25.5151 18.5458C26.8429 18.4986 28.1689 18.4515 29.4816 18.2215C31.0867 17.9387 32.5768 17.3674 33.9386 16.4662C34.5365 16.0703 35.0194 15.5443 35.5022 15.0221C35.5437 14.9674 35.5852 14.9108 35.6286 14.8561C36.1586 14.1774 36.7112 13.5138 37.1526 12.7691C37.7637 11.734 38.0919 10.6009 38.2805 9.42067C38.356 8.9531 38.4314 8.48742 38.4446 8.01231C38.4503 7.74836 38.3673 7.65975 38.1108 7.63147ZM22.3388 14.3433C22.3294 14.3773 22.3218 14.4093 22.3143 14.4432C22.3218 14.4112 22.3312 14.3773 22.3388 14.3433Z" fill="#1AD319"/>
<path d="M35.5022 15.022C35.0194 15.5461 34.5365 16.0703 33.9386 16.4662C32.5768 17.3693 31.0867 17.9386 29.4816 18.2215C28.1689 18.4533 26.8429 18.5005 25.5151 18.5457C24.7493 18.5721 23.9873 18.5288 23.2347 18.3704C22.8594 18.2761 22.5142 18.097 22.1502 17.9745C22.0295 17.884 21.8635 17.8331 21.8597 17.637C21.8578 17.4296 21.8126 17.2241 21.8107 17.0148C21.8069 16.6585 21.8333 16.3059 21.854 15.9515C21.8823 15.7743 21.9125 15.597 21.9408 15.4198C22.0408 14.7901 22.1936 14.1755 22.4859 13.6042C22.4388 14.0624 22.2784 14.496 22.2049 14.9485C22.1049 15.5141 22.0992 16.0797 22.186 16.6472C22.1992 16.7509 22.2275 16.8508 22.2709 16.947C22.3746 17.1581 22.3916 17.1619 22.5538 16.9903C23.263 16.2475 24.0627 15.6121 24.8719 14.9862C26.1205 14.019 27.4333 13.1461 28.7668 12.3033C30.0192 11.5115 31.2999 10.7705 32.6164 10.0899C33.5934 9.58465 34.5818 9.102 35.5796 8.64197C36.3491 8.28564 37.1243 7.94439 37.9052 7.61823C37.9731 7.622 38.0429 7.62577 38.1108 7.63331C38.3673 7.6597 38.4503 7.74831 38.4427 8.01415C38.4295 8.48737 38.3541 8.95494 38.2805 9.42251C38.0919 10.6009 37.7637 11.7358 37.1507 12.7709C36.7112 13.5137 36.1567 14.1774 35.6267 14.858C35.5852 14.9108 35.5437 14.9673 35.5022 15.022Z" fill="#009F02"/>
</g>
</svg>
