<svg width="55" height="85" viewBox="0 0 55 85" fill="none" xmlns="http://www.w3.org/2000/svg">
<g clip-path="url(#clip0_95_510)">
<mask id="mask0_95_510" style="mask-type:luminance" maskUnits="userSpaceOnUse" x="0" y="8" width="55" height="53">
<path d="M0.55957 8.34583H54.4151V60.3572H0.55957V8.34583Z" fill="white"/>
</mask>
<g mask="url(#mask0_95_510)">
<path d="M19.8861 12.2754C18.3466 12.2818 16.8092 12.346 15.2782 12.5173C14.0834 12.65 12.9015 12.8383 11.7388 13.138C7.27439 14.2873 4.11183 17.0012 2.16548 21.1748C1.40535 22.7993 1.21907 24.565 0.940711 26.3072C0.769415 27.3688 0.705179 28.4454 0.666637 29.5177C0.619531 30.8254 0.56386 32.1331 0.643084 33.443C0.713744 34.618 0.846498 35.7845 1.04135 36.9466C1.33255 38.6803 1.89141 40.3369 2.57873 41.9485C3.5594 44.2494 4.80773 46.4046 6.18452 48.4871C7.19731 50.0196 8.30431 51.4771 9.54835 52.8277C10.559 53.9256 11.651 54.9359 12.758 55.9311C13.5674 56.6588 14.3982 57.3651 15.3232 57.9473C16.3338 58.5851 17.3959 59.1137 18.5307 59.4968C18.5478 59.5118 18.565 59.5247 18.5864 59.5354C19.5242 59.8757 20.4342 60.308 21.4684 60.3209C21.9652 60.3294 22.4577 60.3572 22.9523 60.2674C23.8173 60.1111 24.6374 59.805 25.4596 59.5075C26.4125 59.1608 27.3589 58.7991 28.3652 58.6108C28.6329 58.5594 28.9027 58.5166 29.1725 58.4781C29.7977 58.3903 30.4251 58.3347 31.0567 58.3004C31.3865 58.2812 31.7227 58.2298 32.0503 58.264C32.5706 58.3175 33.0845 58.4438 33.6026 58.5145C34.1872 58.5936 34.761 58.7199 35.3477 58.7798C35.8273 58.8269 36.307 58.859 36.7866 58.8826C37.5617 58.9254 38.3368 58.9853 39.1055 58.8676C40.5723 58.645 41.8634 58.0307 42.9233 56.9841C43.54 56.372 44.1074 55.7064 44.6898 55.06C45.2465 54.4415 45.8203 53.8379 46.2914 53.1509C47.2956 51.6933 48.2442 50.1994 49.1071 48.6519C49.9315 47.1751 50.7237 45.6855 51.3018 44.091C51.5823 43.3183 51.7579 42.5093 52.0684 41.7495C52.6936 40.2085 53.261 38.646 53.6165 37.0173C53.8627 35.8872 54.0704 34.7507 54.1775 33.5949C54.2588 32.7367 54.3338 31.8784 54.3702 31.0159C54.4087 30.087 54.2888 29.1624 54.3252 28.2356C54.3381 28.0109 54.3316 27.7883 54.3038 27.5679C54.1882 26.7267 54.0554 25.8877 53.8927 25.0509C53.5694 23.3386 53.1176 21.6585 52.5352 20.0169C52.244 19.2014 51.8243 18.4459 51.5031 17.6476C50.9871 16.3698 50.2355 15.2676 49.2762 14.3023C48.4133 13.4312 47.529 12.5793 46.589 11.7896C45.4221 10.8072 44.1224 10.0688 42.6492 9.66639C40.9641 9.20195 39.2511 8.89802 37.4953 8.8916" fill="#FD0000"/>
</g>
<mask id="mask1_95_510" style="mask-type:luminance" maskUnits="userSpaceOnUse" x="16" y="8" width="39" height="53">
<path d="M16.2888 8.34583H54.4151V60.3572H16.2888V8.34583Z" fill="white"/>
</mask>
<g mask="url(#mask1_95_510)">
<path d="M19.886 12.2669C19.8646 12.3931 20.4384 13.489 20.3549 13.5189C19.8453 13.6944 19.0402 13.917 18.6077 14.2359C18.2309 14.5142 17.8797 14.8331 17.8369 15.351C17.824 15.4837 17.7512 15.4902 17.657 15.4516C17.5821 15.4195 17.5135 15.3831 17.4472 15.3403C17.1988 15.1734 16.9526 15.0022 16.7042 14.8352C16.6142 14.7732 16.5286 14.7453 16.4344 14.8481C16.338 14.9529 16.3701 15.0343 16.4301 15.1242C16.6185 15.3981 16.8262 15.6485 17.1024 15.8497C17.4557 16.1066 17.8497 16.2885 18.2351 16.4768C19.4428 17.0718 20.7425 17.288 22.0679 17.3758C22.9308 17.4335 23.7573 17.2324 24.571 16.9712L24.7829 16.9028C24.9007 16.8621 25.0163 16.8236 25.132 16.785L25.2776 16.7337C25.3932 16.6951 25.5067 16.6566 25.6201 16.6138L25.83 16.5389L26.0248 16.4683C26.6565 16.2435 27.2881 16.0231 27.9348 15.8454C29.1381 15.5201 30.3565 15.2868 31.6048 15.2868C32.4634 15.2932 33.3156 15.3746 34.1593 15.533C34.7781 15.6443 35.414 15.7042 35.9986 15.9311C37.1334 16.3741 38.1398 17.044 39.0305 17.8744C39.8399 18.63 40.5315 19.4968 41.1953 20.3807C42.2123 21.7334 43.1587 23.1353 43.7904 24.7234C44.1501 25.6288 44.4906 26.5448 44.6747 27.5015C44.9402 28.9013 45.0708 30.3246 45.2036 31.7414C45.2764 32.5269 45.3299 33.3167 45.3428 34.1065C45.3535 34.9048 45.3663 35.7053 45.3149 36.5058C45.2593 37.4197 45.1436 38.3272 44.9702 39.2239C44.7497 40.3583 44.4499 41.4734 44.0324 42.55C43.8182 43.1022 43.5377 43.6287 43.3108 44.1766C42.6684 45.7347 42.1695 47.3464 41.5229 48.9024C40.9833 50.2101 40.2232 51.3744 39.2446 52.3953C38.4802 53.1937 37.6815 53.9599 36.8165 54.6534C36.1934 55.1542 35.5682 55.6443 34.8337 55.9761C34.337 56.2008 33.8338 56.3592 33.2664 56.3549C32.1936 56.3463 31.1188 56.2885 30.046 56.3891C29.6713 56.4234 29.3009 56.4897 28.9369 56.5882L28.8983 56.5989C28.8576 56.6096 28.8148 56.6224 28.7741 56.6331L28.7099 56.6524L28.605 56.6845C28.5493 56.7038 28.4936 56.7252 28.4358 56.7423C28.4059 56.753 28.3759 56.7637 28.3459 56.7744L28.2645 56.8065L28.181 56.8386C28.1532 56.8493 28.1254 56.86 28.0975 56.8707C28.044 56.8942 27.9883 56.9178 27.9348 56.9413C27.7785 57.0098 27.6243 57.0847 27.4723 57.1639C27.4552 57.1725 27.438 57.1832 27.4209 57.1918L27.3652 57.2217C27.3395 57.2346 27.3138 57.2495 27.286 57.2645C27.2068 57.3095 27.1276 57.3544 27.0483 57.4036C25.8621 58.1249 24.708 58.904 23.3762 59.3513C22.3741 59.6873 21.3613 59.8179 20.3121 59.6467C19.7168 59.5482 19.1216 59.4519 18.5135 59.4926H18.5199C18.537 59.5076 18.5563 59.5204 18.5756 59.5311C19.5156 59.8714 20.4234 60.3037 21.4576 60.3166C21.6675 60.3209 21.8752 60.3273 22.085 60.3273C22.3591 60.3294 22.6332 60.308 22.903 60.2631C23.7701 60.1068 24.5881 59.8008 25.4124 59.5033C26.3653 59.1565 27.3117 58.7948 28.3159 58.6065C28.5857 58.5551 28.8555 58.5123 29.1253 58.4738C29.7505 58.386 30.3758 58.3304 31.0074 58.294C31.2644 58.2812 31.5213 58.2469 31.7761 58.2491C31.8639 58.2469 31.9517 58.2512 32.0416 58.2598C32.5619 58.3133 33.0758 58.4395 33.594 58.5102C34.1785 58.5894 34.7524 58.7156 35.3391 58.7756C35.8187 58.8227 36.2983 58.8548 36.778 58.8783C37.2083 58.9019 37.6366 58.9318 38.0648 58.9318C38.3967 58.934 38.7286 58.9104 39.0562 58.8633C40.5229 58.6407 41.8162 58.0265 42.874 56.9799C43.4928 56.3656 44.0602 55.7021 44.6426 55.0557C45.1972 54.4372 45.771 53.8336 46.2442 53.1466C47.2463 51.689 48.1949 50.1951 49.0599 48.6477C49.8843 47.1709 50.6744 45.6812 51.2546 44.0867C51.5351 43.3119 51.7107 42.505 52.0212 41.7452C52.6464 40.2042 53.2138 38.6418 53.5693 37.013C53.8155 35.8829 54.0211 34.7464 54.1303 33.5907C54.2116 32.7324 54.2866 31.8741 54.323 31.0116C54.3615 30.0827 54.2416 29.1581 54.278 28.2314C54.2909 28.0066 54.2844 27.784 54.2566 27.5636C54.1388 26.7224 54.0061 25.8834 53.8455 25.0466C53.5222 23.3344 53.0704 21.6542 52.488 20.0126C52.1946 19.1972 51.7771 18.4416 51.4559 17.6433C50.9399 16.3655 50.1883 15.2633 49.2291 14.298C48.364 13.4269 47.4818 12.5751 46.5418 11.7853C45.3749 10.8029 44.0752 10.0645 42.602 9.66212C40.9276 9.20195 39.2254 8.90017 37.4824 8.88733L23.2862 11.6141" fill="#D10001"/>
</g>
<path d="M9.43266 20.6375C9.34273 22.6794 8.98086 24.6677 8.10939 26.5383C7.87814 27.037 7.58266 27.4972 7.17155 27.8718C6.9039 28.1157 6.60199 28.3041 6.23156 28.3319C5.61917 28.3811 5.21235 28.0687 4.9447 27.5464C4.7006 27.0649 4.6278 26.5383 4.60424 26.0054C4.5657 25.0936 4.74985 24.2076 4.9811 23.3343C5.30228 22.1229 5.76906 20.9757 6.53775 19.9762C6.82039 19.6081 7.15656 19.2785 7.4756 18.9381C7.77965 18.6171 8.1458 18.4095 8.59973 18.5486C9.07294 18.6941 9.24637 19.0965 9.33845 19.5417C9.41125 19.8991 9.40911 20.2651 9.43266 20.6375Z" fill="#FEAF91"/>
<path d="M4.59151 31.5595C4.58509 31.262 4.61506 30.9731 4.74354 30.6991C5.04116 30.0635 5.73277 29.9393 6.21882 30.4466C6.58283 30.8276 6.72629 31.3155 6.85262 31.8078C6.99394 32.3686 7.04747 32.9336 6.87403 33.4965C6.75413 33.8839 6.56142 34.2328 6.11176 34.282C5.65355 34.3312 5.32808 34.0701 5.16321 33.672C4.88057 32.9935 4.59151 32.3129 4.59151 31.5595Z" fill="#FEAF90"/>
<path d="M22.7211 6.87546C22.5112 6.02576 22.2586 5.1889 21.9652 4.36275C21.6248 3.40603 21.2351 2.47928 20.5263 1.72162C19.8754 1.02602 19.5392 0.974651 18.7106 1.44766C18.7042 1.45194 18.6977 1.45622 18.6913 1.46264C17.2139 2.23315 15.8863 3.17488 15.0641 4.68807C14.8714 4.9235 15.077 5.01554 15.2204 5.12897C15.2804 5.19104 15.3382 5.25525 15.3981 5.31518C16.5801 6.46238 17.5907 7.74442 18.428 9.16344C19.0146 10.163 19.4514 11.2267 19.8454 12.3118C20.021 12.6628 20.1602 13.031 20.263 13.4098C20.5563 14.1461 20.6826 14.9208 20.7747 15.6978C20.8175 16.0638 20.8903 16.3655 21.2972 16.4619C21.3807 16.4875 21.462 16.5154 21.5413 16.5496L21.6804 16.5817C22.3635 16.7529 23.0058 16.723 23.5454 16.19C23.7017 16.0317 23.7852 15.854 23.7531 15.6357C23.6782 15.1434 23.6354 14.649 23.6247 14.1503C23.6182 13.6773 23.5861 13.2022 23.5304 12.7313" fill="#8D4314"/>
<path d="M18.6912 1.42407C19.1537 1.65094 19.1944 2.18602 18.7897 2.63334C18.3229 3.15129 17.7491 3.52371 17.1624 3.879C16.7128 4.14225 16.2417 4.36484 15.7535 4.54463C15.5244 4.63238 15.3017 4.67733 15.0619 4.6495C15.8863 3.13631 17.2138 2.19458 18.6912 1.42407Z" fill="#8E4416"/>
<path d="M23.5454 16.1536C23.676 16.0252 23.7531 15.8797 23.7595 15.7127C23.7595 15.687 23.7574 15.6635 23.7531 15.6399C23.6803 15.1455 23.6375 14.649 23.6246 14.1503C23.6182 13.6773 23.5861 13.2021 23.5304 12.7313L22.721 6.87756C22.5112 6.02572 22.2585 5.18886 21.9652 4.36271C21.6247 3.40814 21.235 2.47925 20.5263 1.72158C19.8775 1.03026 19.5413 0.976756 18.7234 1.43906C19.1559 1.67449 19.1838 2.19459 18.7898 2.63335C18.323 3.14916 17.7492 3.52371 17.1625 3.87686C16.7128 4.14012 16.2417 4.36271 15.7536 4.54464C15.5394 4.63453 15.3167 4.66877 15.0834 4.64951L15.0619 4.68589C15.0234 4.73084 14.9956 4.78007 14.9849 4.84C14.9977 4.94487 15.1219 5.01122 15.2204 5.08827C15.4645 5.08613 15.7172 5.12038 15.9527 5.07543C16.8327 4.91063 17.6357 4.54463 18.3722 4.03738C18.8476 3.70992 19.4536 3.71848 19.8176 4.15724C20.3079 4.73512 20.6955 5.37507 20.9824 6.07709C21.2607 6.76627 21.417 7.49397 21.5819 8.21739C21.7104 8.79313 22.0251 10.2742 22.1515 10.8478C22.1515 10.8393 22.3142 12.4017 22.3228 12.3953C22.3313 12.4445 22.3378 12.4937 22.3399 12.5429C22.3742 13.2899 22.4063 14.0304 22.3913 14.7774C22.3913 14.8395 22.3999 14.9037 22.4041 14.9658C22.4769 15.8882 22.4512 16.1879 21.599 16.4704C21.5776 16.4811 21.5584 16.4939 21.5391 16.5068L21.6783 16.541C22.3656 16.7144 23.0058 16.6866 23.5454 16.1536Z" fill="#6C280B"/>
<mask id="mask2_95_510" style="mask-type:luminance" maskUnits="userSpaceOnUse" x="21" y="0" width="20" height="14">
<path d="M21.7704 0.360352H40.9556V13.2771H21.7704V0.360352Z" fill="white"/>
</mask>
<g mask="url(#mask2_95_510)">
<path d="M40.4181 0.50162C40.3411 0.493058 40.2618 0.490918 40.1848 0.484497C39.5788 0.448112 38.9707 0.388183 38.3647 0.379622C37.2192 0.3625 36.0736 0.366781 34.9281 0.377482C34.3414 0.381763 33.7611 0.43313 33.1852 0.531584C31.9111 0.747754 30.6757 1.10946 29.4702 1.56321C26.6416 2.63122 24.2906 4.29209 22.7768 6.99315C22.7596 7.05522 22.7404 7.11729 22.7232 7.18149C22.7318 7.2243 22.7168 7.2564 22.6804 7.28209C22.3485 7.9306 22.1751 8.62834 22.0616 9.3432C22.0295 9.54439 21.9952 9.74557 21.9631 9.94676C21.9396 10.3491 21.9096 10.7494 21.9139 11.1518C21.916 11.3915 21.9674 11.6248 21.9695 11.8602C21.9738 12.0828 22.1622 12.1406 22.2993 12.2433C22.7125 12.3824 23.1044 12.5858 23.5305 12.6906C24.3848 12.8726 25.2499 12.9218 26.1192 12.8918C27.6266 12.8383 29.1319 12.7848 30.6221 12.5237C32.4443 12.2026 34.1359 11.5541 35.6818 10.5311C36.3606 10.0816 36.9087 9.48446 37.4569 8.89159C37.504 8.82952 37.5511 8.76532 37.6003 8.70325C38.202 7.93274 38.8294 7.17935 39.3304 6.33394C40.0242 5.15891 40.3967 3.87259 40.6109 2.53276C40.6965 2.00197 40.7822 1.47332 40.7971 0.93396C40.8036 0.634318 40.7094 0.533724 40.4181 0.50162ZM22.5134 8.12109C22.5027 8.15961 22.4941 8.196 22.4856 8.23452C22.4941 8.19814 22.5048 8.15961 22.5134 8.12109Z" fill="#1AD319"/>
<path d="M37.4569 8.89159C36.9087 9.48659 36.3606 10.0816 35.6818 10.5311C34.1359 11.5563 32.4443 12.2026 30.6221 12.5237C29.1319 12.7869 27.6266 12.8404 26.1192 12.8918C25.2499 12.9218 24.3848 12.8725 23.5305 12.6928C23.1044 12.5857 22.7125 12.3824 22.2993 12.2433C22.1622 12.1406 21.9738 12.0828 21.9695 11.8602C21.9674 11.6248 21.916 11.3915 21.9139 11.1539C21.9096 10.7494 21.9396 10.3491 21.9631 9.94676C21.9952 9.74557 22.0295 9.54438 22.0616 9.34319C22.1751 8.62833 22.3485 7.9306 22.6804 7.28208C22.6269 7.80218 22.4449 8.29445 22.3614 8.80812C22.2479 9.45021 22.2415 10.0923 22.34 10.7365C22.355 10.8542 22.3871 10.9677 22.4363 11.0768C22.5541 11.3165 22.5734 11.3208 22.7575 11.1261C23.5626 10.2828 24.4705 9.5615 25.389 8.85092C26.8065 7.75295 28.2968 6.76199 29.8106 5.80528C31.2324 4.90635 32.6863 4.06521 34.1808 3.29257C35.29 2.71897 36.412 2.17105 37.5447 1.64882C38.4183 1.2443 39.2983 0.856905 40.1848 0.486633C40.2618 0.490914 40.3411 0.495194 40.4181 0.503756C40.7094 0.53372 40.8036 0.634314 40.795 0.936096C40.78 1.47331 40.6944 2.00411 40.6109 2.5349C40.3967 3.87259 40.0242 5.16105 39.3283 6.33607C38.8294 7.17935 38.1999 7.93274 37.5982 8.70538C37.5511 8.76531 37.504 8.82952 37.4569 8.89159Z" fill="#009F02"/>
</g>
</g>
<path d="M10.2152 70.18C10.3852 70.08 10.6402 69.985 10.9802 69.895C11.3302 69.805 11.6802 69.76 12.0302 69.76C12.5302 69.76 12.9702 69.835 13.3502 69.985C13.7402 70.125 13.9902 70.35 14.1002 70.66C14.2802 71.18 14.4752 71.785 14.6852 72.475C14.8952 73.165 15.1052 73.88 15.3152 74.62C15.5252 75.35 15.7302 76.075 15.9302 76.795C16.1302 77.505 16.3052 78.135 16.4552 78.685C16.3352 78.825 16.1552 78.935 15.9152 79.015C15.6752 79.105 15.3902 79.15 15.0602 79.15C14.8202 79.15 14.6152 79.13 14.4452 79.09C14.2852 79.05 14.1502 78.99 14.0402 78.91C13.9402 78.83 13.8552 78.725 13.7852 78.595C13.7252 78.465 13.6702 78.315 13.6202 78.145L13.3502 77.11H10.6352C10.5552 77.41 10.4752 77.72 10.3952 78.04C10.3152 78.36 10.2352 78.67 10.1552 78.97C10.0152 79.02 9.86518 79.06 9.70518 79.09C9.55518 79.13 9.37018 79.15 9.15018 79.15C8.64018 79.15 8.26018 79.065 8.01018 78.895C7.77018 78.715 7.65018 78.47 7.65018 78.16C7.65018 78.02 7.67018 77.88 7.71018 77.74C7.75018 77.6 7.79518 77.435 7.84518 77.245C7.91518 76.975 8.01018 76.64 8.13018 76.24C8.26018 75.84 8.40018 75.41 8.55018 74.95C8.70018 74.48 8.86018 74 9.03018 73.51C9.20018 73.02 9.36018 72.56 9.51018 72.13C9.66018 71.69 9.79518 71.3 9.91518 70.96C10.0452 70.62 10.1452 70.36 10.2152 70.18ZM12.0152 72.115C11.8752 72.535 11.7152 73.005 11.5352 73.525C11.3652 74.035 11.2102 74.555 11.0702 75.085H12.9302C12.7902 74.545 12.6452 74.02 12.4952 73.51C12.3552 72.99 12.2252 72.525 12.1052 72.115H12.0152ZM20.8345 71.485C21.4345 71.485 21.9895 71.565 22.4995 71.725C23.0195 71.875 23.4645 72.11 23.8345 72.43C24.2045 72.75 24.4945 73.155 24.7045 73.645C24.9145 74.125 25.0195 74.7 25.0195 75.37C25.0195 76.01 24.9295 76.57 24.7495 77.05C24.5695 77.53 24.3145 77.935 23.9845 78.265C23.6545 78.585 23.2545 78.825 22.7845 78.985C22.3245 79.145 21.8095 79.225 21.2395 79.225C20.8095 79.225 20.4095 79.16 20.0395 79.03V81.52C19.9395 81.55 19.7795 81.58 19.5595 81.61C19.3395 81.65 19.1145 81.67 18.8845 81.67C18.6645 81.67 18.4645 81.655 18.2845 81.625C18.1145 81.595 17.9695 81.535 17.8495 81.445C17.7295 81.355 17.6395 81.23 17.5795 81.07C17.5195 80.92 17.4895 80.72 17.4895 80.47V73.27C17.4895 73 17.5445 72.78 17.6545 72.61C17.7745 72.44 17.9345 72.285 18.1345 72.145C18.4445 71.945 18.8295 71.785 19.2895 71.665C19.7495 71.545 20.2645 71.485 20.8345 71.485ZM20.8645 77.215C21.8945 77.215 22.4095 76.6 22.4095 75.37C22.4095 74.73 22.2795 74.255 22.0195 73.945C21.7695 73.635 21.4045 73.48 20.9245 73.48C20.7345 73.48 20.5645 73.505 20.4145 73.555C20.2645 73.595 20.1345 73.645 20.0245 73.705V77.005C20.1445 77.065 20.2745 77.115 20.4145 77.155C20.5545 77.195 20.7045 77.215 20.8645 77.215ZM29.6089 71.485C30.2089 71.485 30.7639 71.565 31.2739 71.725C31.7939 71.875 32.2389 72.11 32.6089 72.43C32.9789 72.75 33.2689 73.155 33.4789 73.645C33.6889 74.125 33.7939 74.7 33.7939 75.37C33.7939 76.01 33.7039 76.57 33.5239 77.05C33.3439 77.53 33.0889 77.935 32.7589 78.265C32.4289 78.585 32.0289 78.825 31.5589 78.985C31.0989 79.145 30.5839 79.225 30.0139 79.225C29.5839 79.225 29.1839 79.16 28.8139 79.03V81.52C28.7139 81.55 28.5539 81.58 28.3339 81.61C28.1139 81.65 27.8889 81.67 27.6589 81.67C27.4389 81.67 27.2389 81.655 27.0589 81.625C26.8889 81.595 26.7439 81.535 26.6239 81.445C26.5039 81.355 26.4139 81.23 26.3539 81.07C26.2939 80.92 26.2639 80.72 26.2639 80.47V73.27C26.2639 73 26.3189 72.78 26.4289 72.61C26.5489 72.44 26.7089 72.285 26.9089 72.145C27.2189 71.945 27.6039 71.785 28.0639 71.665C28.5239 71.545 29.0389 71.485 29.6089 71.485ZM29.6389 77.215C30.6689 77.215 31.1839 76.6 31.1839 75.37C31.1839 74.73 31.0539 74.255 30.7939 73.945C30.5439 73.635 30.1789 73.48 29.6989 73.48C29.5089 73.48 29.3389 73.505 29.1889 73.555C29.0389 73.595 28.9089 73.645 28.7989 73.705V77.005C28.9189 77.065 29.0489 77.115 29.1889 77.155C29.3289 77.195 29.4789 77.215 29.6389 77.215ZM37.6333 78.985C37.5233 79.005 37.3583 79.03 37.1383 79.06C36.9283 79.1 36.7133 79.12 36.4933 79.12C36.2733 79.12 36.0733 79.105 35.8933 79.075C35.7233 79.045 35.5783 78.985 35.4583 78.895C35.3383 78.805 35.2433 78.685 35.1733 78.535C35.1133 78.375 35.0833 78.17 35.0833 77.92V69.22C35.1933 69.2 35.3533 69.175 35.5633 69.145C35.7833 69.105 36.0033 69.085 36.2233 69.085C36.4433 69.085 36.6383 69.1 36.8083 69.13C36.9883 69.16 37.1383 69.22 37.2583 69.31C37.3783 69.4 37.4683 69.525 37.5283 69.685C37.5983 69.835 37.6333 70.035 37.6333 70.285V78.985ZM43.0974 79.24C42.5074 79.24 41.9574 79.16 41.4474 79C40.9474 78.83 40.5074 78.58 40.1274 78.25C39.7574 77.92 39.4624 77.505 39.2424 77.005C39.0324 76.505 38.9274 75.92 38.9274 75.25C38.9274 74.59 39.0324 74.025 39.2424 73.555C39.4624 73.075 39.7474 72.685 40.0974 72.385C40.4474 72.075 40.8474 71.85 41.2974 71.71C41.7474 71.56 42.2074 71.485 42.6774 71.485C43.2074 71.485 43.6874 71.565 44.1174 71.725C44.5574 71.885 44.9324 72.105 45.2424 72.385C45.5624 72.665 45.8074 73 45.9774 73.39C46.1574 73.78 46.2474 74.205 46.2474 74.665C46.2474 75.005 46.1524 75.265 45.9624 75.445C45.7724 75.625 45.5074 75.74 45.1674 75.79L41.4624 76.345C41.5724 76.675 41.7974 76.925 42.1374 77.095C42.4774 77.255 42.8674 77.335 43.3074 77.335C43.7174 77.335 44.1024 77.285 44.4624 77.185C44.8324 77.075 45.1324 76.95 45.3624 76.81C45.5224 76.91 45.6574 77.05 45.7674 77.23C45.8774 77.41 45.9324 77.6 45.9324 77.8C45.9324 78.25 45.7224 78.585 45.3024 78.805C44.9824 78.975 44.6224 79.09 44.2224 79.15C43.8224 79.21 43.4474 79.24 43.0974 79.24ZM42.6774 73.345C42.4374 73.345 42.2274 73.385 42.0474 73.465C41.8774 73.545 41.7374 73.65 41.6274 73.78C41.5174 73.9 41.4324 74.04 41.3724 74.2C41.3224 74.35 41.2924 74.505 41.2824 74.665L43.8474 74.245C43.8174 74.045 43.7074 73.845 43.5174 73.645C43.3274 73.445 43.0474 73.345 42.6774 73.345Z" fill="white"/>
<defs>
<clipPath id="clip0_95_510">
<rect width="55" height="61" fill="white"/>
</clipPath>
</defs>
</svg>
