<svg width="276" height="215" viewBox="0 0 276 215" fill="none" xmlns="http://www.w3.org/2000/svg">
<rect y="78" width="276" height="120" rx="20" fill="#0262FF"/>
<path d="M25.4418 131.064C25.6912 130.917 26.0652 130.778 26.5638 130.646C27.0772 130.514 27.5905 130.448 28.1038 130.448C28.8372 130.448 29.4825 130.558 30.0398 130.778C30.6118 130.983 30.9785 131.313 31.1398 131.768C31.4038 132.531 31.6898 133.418 31.9978 134.43C32.3058 135.442 32.6138 136.491 32.9218 137.576C33.2298 138.647 33.5305 139.71 33.8238 140.766C34.1172 141.807 34.3738 142.731 34.5938 143.538C34.4178 143.743 34.1538 143.905 33.8018 144.022C33.4498 144.154 33.0318 144.22 32.5478 144.22C32.1958 144.22 31.8952 144.191 31.6458 144.132C31.4112 144.073 31.2132 143.985 31.0518 143.868C30.9052 143.751 30.7805 143.597 30.6778 143.406C30.5898 143.215 30.5092 142.995 30.4358 142.746L30.0398 141.228H26.0578C25.9405 141.668 25.8232 142.123 25.7058 142.592C25.5885 143.061 25.4712 143.516 25.3538 143.956C25.1485 144.029 24.9285 144.088 24.6938 144.132C24.4738 144.191 24.2025 144.22 23.8798 144.22C23.1318 144.22 22.5745 144.095 22.2078 143.846C21.8558 143.582 21.6798 143.223 21.6798 142.768C21.6798 142.563 21.7092 142.357 21.7678 142.152C21.8265 141.947 21.8925 141.705 21.9658 141.426C22.0685 141.03 22.2078 140.539 22.3838 139.952C22.5745 139.365 22.7798 138.735 22.9998 138.06C23.2198 137.371 23.4545 136.667 23.7038 135.948C23.9532 135.229 24.1878 134.555 24.4078 133.924C24.6278 133.279 24.8258 132.707 25.0018 132.208C25.1925 131.709 25.3392 131.328 25.4418 131.064ZM28.0818 133.902C27.8765 134.518 27.6418 135.207 27.3778 135.97C27.1285 136.718 26.9012 137.481 26.6958 138.258H29.4238C29.2185 137.466 29.0058 136.696 28.7858 135.948C28.5805 135.185 28.3898 134.503 28.2138 133.902H28.0818ZM35.0074 133.748C34.9047 133.587 34.8094 133.367 34.7214 133.088C34.6334 132.809 34.5894 132.516 34.5894 132.208C34.5894 131.636 34.714 131.225 34.9634 130.976C35.2274 130.727 35.5647 130.602 35.9754 130.602H45.5674C45.67 130.763 45.7654 130.983 45.8534 131.262C45.9414 131.541 45.9854 131.834 45.9854 132.142C45.9854 132.714 45.8534 133.125 45.5894 133.374C45.34 133.623 45.01 133.748 44.5994 133.748H42.1574V143.912C41.996 143.956 41.7394 144 41.3874 144.044C41.05 144.088 40.7127 144.11 40.3754 144.11C40.038 144.11 39.7374 144.081 39.4734 144.022C39.224 143.978 39.0114 143.89 38.8354 143.758C38.6594 143.626 38.5274 143.443 38.4394 143.208C38.3514 142.973 38.3074 142.665 38.3074 142.284V133.748H35.0074ZM51.698 143.912C51.5366 143.956 51.28 144 50.928 144.044C50.5906 144.088 50.2533 144.11 49.916 144.11C49.5786 144.11 49.278 144.081 49.014 144.022C48.7646 143.978 48.552 143.89 48.376 143.758C48.2 143.626 48.068 143.443 47.98 143.208C47.892 142.973 47.848 142.665 47.848 142.284V130.668C48.0093 130.639 48.266 130.602 48.618 130.558C48.97 130.499 49.3073 130.47 49.63 130.47C49.9673 130.47 50.2606 130.499 50.51 130.558C50.774 130.602 50.994 130.69 51.17 130.822C51.346 130.954 51.478 131.137 51.566 131.372C51.654 131.607 51.698 131.915 51.698 132.296V143.912ZM62.5371 143.56C62.3318 143.736 62.0091 143.89 61.5691 144.022C61.1438 144.154 60.6744 144.22 60.1611 144.22C59.5451 144.22 59.0171 144.132 58.5771 143.956C58.1371 143.765 57.8364 143.509 57.6751 143.186C57.5138 142.849 57.3158 142.416 57.0811 141.888C56.8464 141.345 56.5971 140.744 56.3331 140.084C56.0838 139.424 55.8198 138.727 55.5411 137.994C55.2771 137.246 55.0204 136.491 54.7711 135.728C54.5218 134.965 54.2871 134.217 54.0671 133.484C53.8471 132.751 53.6564 132.061 53.4951 131.416C53.7004 131.211 53.9938 131.027 54.3751 130.866C54.7711 130.69 55.1891 130.602 55.6291 130.602C56.1718 130.602 56.6118 130.719 56.9491 130.954C57.3011 131.174 57.5578 131.592 57.7191 132.208C58.1151 133.645 58.5111 135.024 58.9071 136.344C59.3178 137.649 59.7431 139.013 60.1831 140.436H60.3151C60.7111 139.057 61.1144 137.554 61.5251 135.926C61.9504 134.298 62.3538 132.677 62.7351 131.064C62.9991 130.932 63.2778 130.822 63.5711 130.734C63.8791 130.646 64.2238 130.602 64.6051 130.602C65.1478 130.602 65.6098 130.727 65.9911 130.976C66.3724 131.211 66.5631 131.607 66.5631 132.164C66.5631 132.487 66.4824 132.956 66.3211 133.572C66.1744 134.188 65.9764 134.885 65.7271 135.662C65.4924 136.425 65.2211 137.224 64.9131 138.06C64.6198 138.896 64.3191 139.688 64.0111 140.436C63.7178 141.169 63.4391 141.822 63.1751 142.394C62.9111 142.951 62.6984 143.34 62.5371 143.56ZM72.3445 143.912C72.1831 143.956 71.9265 144 71.5745 144.044C71.2371 144.088 70.8998 144.11 70.5625 144.11C70.2251 144.11 69.9245 144.081 69.6605 144.022C69.4111 143.978 69.1985 143.89 69.0225 143.758C68.8465 143.626 68.7145 143.443 68.6265 143.208C68.5385 142.973 68.4945 142.665 68.4945 142.284V130.668C68.6558 130.639 68.9125 130.602 69.2645 130.558C69.6165 130.499 69.9538 130.47 70.2765 130.47C70.6138 130.47 70.9071 130.499 71.1565 130.558C71.4205 130.602 71.6405 130.69 71.8165 130.822C71.9925 130.954 72.1245 131.137 72.2125 131.372C72.3005 131.607 72.3445 131.915 72.3445 132.296V143.912ZM79.0256 141.14C79.1869 141.169 79.3849 141.199 79.6196 141.228C79.8542 141.243 80.0742 141.25 80.2796 141.25C80.7782 141.25 81.2329 141.177 81.6436 141.03C82.0689 140.883 82.4282 140.656 82.7216 140.348C83.0296 140.04 83.2642 139.644 83.4256 139.16C83.6016 138.661 83.6896 138.067 83.6896 137.378C83.6896 136.058 83.3816 135.068 82.7656 134.408C82.1496 133.733 81.3282 133.396 80.3016 133.396C80.0962 133.396 79.8836 133.403 79.6636 133.418C79.4582 133.433 79.2456 133.455 79.0256 133.484V141.14ZM80.2576 144.352C80.0082 144.352 79.7222 144.345 79.3996 144.33C79.0769 144.315 78.7396 144.286 78.3876 144.242C78.0502 144.198 77.7056 144.139 77.3536 144.066C77.0162 144.007 76.7009 143.919 76.4076 143.802C75.6009 143.494 75.1976 142.959 75.1976 142.196V131.922C75.1976 131.614 75.2782 131.379 75.4396 131.218C75.6156 131.042 75.8502 130.903 76.1436 130.8C76.7742 130.595 77.4416 130.463 78.1456 130.404C78.8496 130.331 79.4802 130.294 80.0376 130.294C81.1816 130.294 82.2156 130.433 83.1396 130.712C84.0782 130.991 84.8776 131.423 85.5376 132.01C86.2122 132.582 86.7329 133.308 87.0996 134.188C87.4662 135.068 87.6496 136.109 87.6496 137.312C87.6496 138.485 87.4736 139.512 87.1216 140.392C86.7696 141.257 86.2636 141.991 85.6036 142.592C84.9582 143.179 84.1809 143.619 83.2716 143.912C82.3622 144.205 81.3576 144.352 80.2576 144.352ZM92.5375 131.064C92.7869 130.917 93.1609 130.778 93.6595 130.646C94.1729 130.514 94.6862 130.448 95.1995 130.448C95.9329 130.448 96.5782 130.558 97.1355 130.778C97.7075 130.983 98.0742 131.313 98.2355 131.768C98.4995 132.531 98.7855 133.418 99.0935 134.43C99.4015 135.442 99.7095 136.491 100.018 137.576C100.326 138.647 100.626 139.71 100.92 140.766C101.213 141.807 101.47 142.731 101.69 143.538C101.514 143.743 101.25 143.905 100.898 144.022C100.546 144.154 100.128 144.22 99.6435 144.22C99.2915 144.22 98.9909 144.191 98.7415 144.132C98.5069 144.073 98.3089 143.985 98.1475 143.868C98.0009 143.751 97.8762 143.597 97.7735 143.406C97.6855 143.215 97.6049 142.995 97.5315 142.746L97.1355 141.228H93.1535C93.0362 141.668 92.9189 142.123 92.8015 142.592C92.6842 143.061 92.5669 143.516 92.4495 143.956C92.2442 144.029 92.0242 144.088 91.7895 144.132C91.5695 144.191 91.2982 144.22 90.9755 144.22C90.2275 144.22 89.6702 144.095 89.3035 143.846C88.9515 143.582 88.7755 143.223 88.7755 142.768C88.7755 142.563 88.8049 142.357 88.8635 142.152C88.9222 141.947 88.9882 141.705 89.0615 141.426C89.1642 141.03 89.3035 140.539 89.4795 139.952C89.6702 139.365 89.8755 138.735 90.0955 138.06C90.3155 137.371 90.5502 136.667 90.7995 135.948C91.0489 135.229 91.2835 134.555 91.5035 133.924C91.7235 133.279 91.9215 132.707 92.0975 132.208C92.2882 131.709 92.4349 131.328 92.5375 131.064ZM95.1775 133.902C94.9722 134.518 94.7375 135.207 94.4735 135.97C94.2242 136.718 93.9969 137.481 93.7915 138.258H96.5195C96.3142 137.466 96.1015 136.696 95.8815 135.948C95.6762 135.185 95.4855 134.503 95.3095 133.902H95.1775ZM107.321 141.14C107.482 141.169 107.68 141.199 107.915 141.228C108.149 141.243 108.369 141.25 108.575 141.25C109.073 141.25 109.528 141.177 109.939 141.03C110.364 140.883 110.723 140.656 111.017 140.348C111.325 140.04 111.559 139.644 111.721 139.16C111.897 138.661 111.985 138.067 111.985 137.378C111.985 136.058 111.677 135.068 111.061 134.408C110.445 133.733 109.623 133.396 108.597 133.396C108.391 133.396 108.179 133.403 107.959 133.418C107.753 133.433 107.541 133.455 107.321 133.484V141.14ZM108.553 144.352C108.303 144.352 108.017 144.345 107.695 144.33C107.372 144.315 107.035 144.286 106.683 144.242C106.345 144.198 106.001 144.139 105.649 144.066C105.311 144.007 104.996 143.919 104.703 143.802C103.896 143.494 103.493 142.959 103.493 142.196V131.922C103.493 131.614 103.573 131.379 103.735 131.218C103.911 131.042 104.145 130.903 104.439 130.8C105.069 130.595 105.737 130.463 106.441 130.404C107.145 130.331 107.775 130.294 108.333 130.294C109.477 130.294 110.511 130.433 111.435 130.712C112.373 130.991 113.173 131.423 113.833 132.01C114.507 132.582 115.028 133.308 115.395 134.188C115.761 135.068 115.945 136.109 115.945 137.312C115.945 138.485 115.769 139.512 115.417 140.392C115.065 141.257 114.559 141.991 113.899 142.592C113.253 143.179 112.476 143.619 111.567 143.912C110.657 144.205 109.653 144.352 108.553 144.352ZM118.145 132.714C118.145 132.083 118.328 131.585 118.695 131.218C119.062 130.851 119.56 130.668 120.191 130.668H127.451C127.554 130.829 127.642 131.042 127.715 131.306C127.803 131.57 127.847 131.849 127.847 132.142C127.847 132.699 127.722 133.095 127.473 133.33C127.238 133.565 126.923 133.682 126.527 133.682H121.885V135.728H126.835C126.938 135.889 127.026 136.102 127.099 136.366C127.187 136.615 127.231 136.887 127.231 137.18C127.231 137.737 127.114 138.133 126.879 138.368C126.644 138.603 126.329 138.72 125.933 138.72H121.885V141.03H127.539C127.642 141.191 127.73 141.404 127.803 141.668C127.891 141.932 127.935 142.211 127.935 142.504C127.935 143.061 127.81 143.465 127.561 143.714C127.326 143.949 127.011 144.066 126.615 144.066H120.191C119.56 144.066 119.062 143.883 118.695 143.516C118.328 143.149 118.145 142.651 118.145 142.02V132.714ZM141.4 133.352C140.271 133.352 139.405 133.697 138.804 134.386C138.203 135.075 137.902 136.051 137.902 137.312C137.902 138.588 138.232 139.571 138.892 140.26C139.567 140.949 140.469 141.294 141.598 141.294C142.199 141.294 142.705 141.213 143.116 141.052C143.541 140.891 143.945 140.707 144.326 140.502C144.575 140.707 144.766 140.957 144.898 141.25C145.045 141.529 145.118 141.859 145.118 142.24C145.118 142.841 144.781 143.355 144.106 143.78C143.446 144.191 142.434 144.396 141.07 144.396C140.087 144.396 139.163 144.257 138.298 143.978C137.433 143.699 136.677 143.274 136.032 142.702C135.387 142.115 134.873 141.382 134.492 140.502C134.125 139.607 133.942 138.544 133.942 137.312C133.942 136.168 134.118 135.163 134.47 134.298C134.837 133.418 135.328 132.677 135.944 132.076C136.575 131.475 137.308 131.02 138.144 130.712C138.98 130.404 139.875 130.25 140.828 130.25C142.177 130.25 143.219 130.47 143.952 130.91C144.7 131.35 145.074 131.915 145.074 132.604C145.074 132.985 144.979 133.315 144.788 133.594C144.597 133.873 144.377 134.093 144.128 134.254C143.747 134.005 143.336 133.792 142.896 133.616C142.471 133.44 141.972 133.352 141.4 133.352ZM146.295 137.312C146.295 136.168 146.471 135.156 146.823 134.276C147.19 133.396 147.681 132.663 148.297 132.076C148.928 131.475 149.661 131.02 150.497 130.712C151.348 130.404 152.265 130.25 153.247 130.25C154.23 130.25 155.139 130.404 155.975 130.712C156.826 131.02 157.567 131.475 158.197 132.076C158.828 132.663 159.319 133.396 159.671 134.276C160.038 135.156 160.221 136.168 160.221 137.312C160.221 138.456 160.045 139.475 159.693 140.37C159.341 141.25 158.85 141.991 158.219 142.592C157.603 143.179 156.87 143.626 156.019 143.934C155.169 144.242 154.245 144.396 153.247 144.396C152.25 144.396 151.326 144.242 150.475 143.934C149.625 143.611 148.891 143.149 148.275 142.548C147.659 141.947 147.175 141.206 146.823 140.326C146.471 139.446 146.295 138.441 146.295 137.312ZM150.255 137.312C150.255 138.647 150.527 139.644 151.069 140.304C151.612 140.964 152.338 141.294 153.247 141.294C154.171 141.294 154.905 140.964 155.447 140.304C155.99 139.644 156.261 138.647 156.261 137.312C156.261 135.992 155.99 135.002 155.447 134.342C154.919 133.682 154.193 133.352 153.269 133.352C152.36 133.352 151.627 133.682 151.069 134.342C150.527 134.987 150.255 135.977 150.255 137.312ZM174.502 143.538C174.297 143.743 173.996 143.897 173.6 144C173.219 144.117 172.757 144.176 172.214 144.176C171.671 144.176 171.158 144.095 170.674 143.934C170.19 143.773 169.794 143.384 169.486 142.768L167.308 138.324C167.088 137.869 166.89 137.444 166.714 137.048C166.538 136.637 166.347 136.168 166.142 135.64L166.01 135.662C166.069 136.454 166.098 137.261 166.098 138.082C166.113 138.903 166.12 139.71 166.12 140.502V143.912C165.959 143.956 165.709 144 165.372 144.044C165.049 144.088 164.727 144.11 164.404 144.11C164.081 144.11 163.795 144.088 163.546 144.044C163.297 144 163.091 143.912 162.93 143.78C162.769 143.648 162.644 143.472 162.556 143.252C162.468 143.017 162.424 142.717 162.424 142.35V131.35C162.629 131.057 162.945 130.837 163.37 130.69C163.795 130.543 164.25 130.47 164.734 130.47C165.277 130.47 165.79 130.558 166.274 130.734C166.773 130.895 167.169 131.277 167.462 131.878L169.662 136.322C169.882 136.777 170.08 137.209 170.256 137.62C170.432 138.016 170.623 138.478 170.828 139.006L170.938 138.984C170.879 138.192 170.843 137.4 170.828 136.608C170.813 135.816 170.806 135.024 170.806 134.232V130.668C170.967 130.624 171.209 130.58 171.532 130.536C171.869 130.492 172.199 130.47 172.522 130.47C173.167 130.47 173.659 130.587 173.996 130.822C174.333 131.042 174.502 131.511 174.502 132.23V143.538ZM184.154 133.352C183.024 133.352 182.159 133.697 181.558 134.386C180.956 135.075 180.656 136.051 180.656 137.312C180.656 138.588 180.986 139.571 181.646 140.26C182.32 140.949 183.222 141.294 184.352 141.294C184.953 141.294 185.459 141.213 185.87 141.052C186.295 140.891 186.698 140.707 187.08 140.502C187.329 140.707 187.52 140.957 187.652 141.25C187.798 141.529 187.872 141.859 187.872 142.24C187.872 142.841 187.534 143.355 186.86 143.78C186.2 144.191 185.188 144.396 183.824 144.396C182.841 144.396 181.917 144.257 181.052 143.978C180.186 143.699 179.431 143.274 178.786 142.702C178.14 142.115 177.627 141.382 177.246 140.502C176.879 139.607 176.696 138.544 176.696 137.312C176.696 136.168 176.872 135.163 177.224 134.298C177.59 133.418 178.082 132.677 178.698 132.076C179.328 131.475 180.062 131.02 180.898 130.712C181.734 130.404 182.628 130.25 183.582 130.25C184.931 130.25 185.972 130.47 186.706 130.91C187.454 131.35 187.828 131.915 187.828 132.604C187.828 132.985 187.732 133.315 187.542 133.594C187.351 133.873 187.131 134.093 186.882 134.254C186.5 134.005 186.09 133.792 185.65 133.616C185.224 133.44 184.726 133.352 184.154 133.352ZM191.97 144.066C191.339 144.066 190.841 143.883 190.474 143.516C190.107 143.149 189.924 142.651 189.924 142.02V130.646C190.085 130.617 190.342 130.58 190.694 130.536C191.046 130.477 191.383 130.448 191.706 130.448C192.043 130.448 192.337 130.477 192.586 130.536C192.85 130.58 193.07 130.668 193.246 130.8C193.422 130.932 193.554 131.115 193.642 131.35C193.73 131.585 193.774 131.893 193.774 132.274V140.964H198.812C198.915 141.125 199.01 141.345 199.098 141.624C199.186 141.888 199.23 142.167 199.23 142.46C199.23 143.047 199.105 143.465 198.856 143.714C198.607 143.949 198.277 144.066 197.866 144.066H191.97ZM212.803 139.072C212.803 139.864 212.663 140.59 212.385 141.25C212.121 141.895 211.732 142.453 211.219 142.922C210.705 143.377 210.082 143.729 209.349 143.978C208.615 144.227 207.787 144.352 206.863 144.352C205.939 144.352 205.11 144.227 204.377 143.978C203.643 143.729 203.02 143.377 202.507 142.922C201.993 142.453 201.597 141.895 201.319 141.25C201.055 140.59 200.923 139.864 200.923 139.072V130.668C201.084 130.639 201.341 130.602 201.693 130.558C202.045 130.499 202.382 130.47 202.705 130.47C203.042 130.47 203.335 130.499 203.585 130.558C203.849 130.602 204.069 130.69 204.245 130.822C204.421 130.954 204.553 131.137 204.641 131.372C204.729 131.607 204.773 131.915 204.773 132.296V139.006C204.773 139.71 204.963 140.26 205.345 140.656C205.741 141.052 206.247 141.25 206.863 141.25C207.493 141.25 207.999 141.052 208.381 140.656C208.762 140.26 208.953 139.71 208.953 139.006V130.668C209.114 130.639 209.371 130.602 209.723 130.558C210.075 130.499 210.412 130.47 210.735 130.47C211.072 130.47 211.365 130.499 211.615 130.558C211.879 130.602 212.099 130.69 212.275 130.822C212.451 130.954 212.583 131.137 212.671 131.372C212.759 131.607 212.803 131.915 212.803 132.296V139.072ZM219.008 125.278C219.727 125.337 220.24 125.513 220.548 125.806C220.856 126.085 221.01 126.415 221.01 126.796C221.01 127.221 220.885 127.559 220.636 127.808C220.401 128.057 220.027 128.285 219.514 128.49L216.5 129.678C216.075 129.59 215.73 129.414 215.466 129.15C215.217 128.886 215.092 128.593 215.092 128.27C215.092 128.065 215.143 127.867 215.246 127.676C215.363 127.485 215.539 127.331 215.774 127.214L219.008 125.278ZM219.448 143.912C219.287 143.956 219.03 144 218.678 144.044C218.341 144.088 218.003 144.11 217.666 144.11C217.329 144.11 217.028 144.081 216.764 144.022C216.515 143.978 216.302 143.89 216.126 143.758C215.95 143.626 215.818 143.443 215.73 143.208C215.642 142.973 215.598 142.665 215.598 142.284V130.668C215.759 130.639 216.016 130.602 216.368 130.558C216.72 130.499 217.057 130.47 217.38 130.47C217.717 130.47 218.011 130.499 218.26 130.558C218.524 130.602 218.744 130.69 218.92 130.822C219.096 130.954 219.228 131.137 219.316 131.372C219.404 131.607 219.448 131.915 219.448 132.296V143.912ZM226.129 141.14C226.29 141.169 226.488 141.199 226.723 141.228C226.958 141.243 227.178 141.25 227.383 141.25C227.882 141.25 228.336 141.177 228.747 141.03C229.172 140.883 229.532 140.656 229.825 140.348C230.133 140.04 230.368 139.644 230.529 139.16C230.705 138.661 230.793 138.067 230.793 137.378C230.793 136.058 230.485 135.068 229.869 134.408C229.253 133.733 228.432 133.396 227.405 133.396C227.2 133.396 226.987 133.403 226.767 133.418C226.562 133.433 226.349 133.455 226.129 133.484V141.14ZM227.361 144.352C227.112 144.352 226.826 144.345 226.503 144.33C226.18 144.315 225.843 144.286 225.491 144.242C225.154 144.198 224.809 144.139 224.457 144.066C224.12 144.007 223.804 143.919 223.511 143.802C222.704 143.494 222.301 142.959 222.301 142.196V131.922C222.301 131.614 222.382 131.379 222.543 131.218C222.719 131.042 222.954 130.903 223.247 130.8C223.878 130.595 224.545 130.463 225.249 130.404C225.953 130.331 226.584 130.294 227.141 130.294C228.285 130.294 229.319 130.433 230.243 130.712C231.182 130.991 231.981 131.423 232.641 132.01C233.316 132.582 233.836 133.308 234.203 134.188C234.57 135.068 234.753 136.109 234.753 137.312C234.753 138.485 234.577 139.512 234.225 140.392C233.873 141.257 233.367 141.991 232.707 142.592C232.062 143.179 231.284 143.619 230.375 143.912C229.466 144.205 228.461 144.352 227.361 144.352ZM239.641 131.064C239.89 130.917 240.264 130.778 240.763 130.646C241.276 130.514 241.79 130.448 242.303 130.448C243.036 130.448 243.682 130.558 244.239 130.778C244.811 130.983 245.178 131.313 245.339 131.768C245.603 132.531 245.889 133.418 246.197 134.43C246.505 135.442 246.813 136.491 247.121 137.576C247.429 138.647 247.73 139.71 248.023 140.766C248.316 141.807 248.573 142.731 248.793 143.538C248.617 143.743 248.353 143.905 248.001 144.022C247.649 144.154 247.231 144.22 246.747 144.22C246.395 144.22 246.094 144.191 245.845 144.132C245.61 144.073 245.412 143.985 245.251 143.868C245.104 143.751 244.98 143.597 244.877 143.406C244.789 143.215 244.708 142.995 244.635 142.746L244.239 141.228H240.257C240.14 141.668 240.022 142.123 239.905 142.592C239.788 143.061 239.67 143.516 239.553 143.956C239.348 144.029 239.128 144.088 238.893 144.132C238.673 144.191 238.402 144.22 238.079 144.22C237.331 144.22 236.774 144.095 236.407 143.846C236.055 143.582 235.879 143.223 235.879 142.768C235.879 142.563 235.908 142.357 235.967 142.152C236.026 141.947 236.092 141.705 236.165 141.426C236.268 141.03 236.407 140.539 236.583 139.952C236.774 139.365 236.979 138.735 237.199 138.06C237.419 137.371 237.654 136.667 237.903 135.948C238.152 135.229 238.387 134.555 238.607 133.924C238.827 133.279 239.025 132.707 239.201 132.208C239.392 131.709 239.538 131.328 239.641 131.064ZM242.281 133.902C242.076 134.518 241.841 135.207 241.577 135.97C241.328 136.718 241.1 137.481 240.895 138.258H243.623C243.418 137.466 243.205 136.696 242.985 135.948C242.78 135.185 242.589 134.503 242.413 133.902H242.281ZM254.487 131.24C254.487 131.577 254.48 132.069 254.465 132.714C254.451 133.345 254.421 134.034 254.377 134.782C254.333 135.515 254.275 136.256 254.201 137.004C254.128 137.737 254.04 138.375 253.937 138.918C253.879 138.962 253.791 139.006 253.673 139.05C253.556 139.094 253.431 139.131 253.299 139.16C253.167 139.189 253.035 139.211 252.903 139.226C252.771 139.241 252.654 139.248 252.551 139.248C252.126 139.248 251.767 139.182 251.473 139.05C251.195 138.918 251.019 138.661 250.945 138.28C250.872 137.943 250.806 137.429 250.747 136.74C250.703 136.051 250.659 135.303 250.615 134.496C250.571 133.689 250.535 132.89 250.505 132.098C250.491 131.306 250.483 130.631 250.483 130.074C250.777 129.913 251.107 129.788 251.473 129.7C251.855 129.597 252.229 129.546 252.595 129.546C253.197 129.546 253.659 129.685 253.981 129.964C254.319 130.243 254.487 130.668 254.487 131.24ZM250.439 142.328C250.439 141.727 250.623 141.235 250.989 140.854C251.371 140.458 251.891 140.26 252.551 140.26C253.211 140.26 253.725 140.458 254.091 140.854C254.473 141.235 254.663 141.727 254.663 142.328C254.663 142.929 254.473 143.428 254.091 143.824C253.725 144.205 253.211 144.396 252.551 144.396C251.891 144.396 251.371 144.205 250.989 143.824C250.623 143.428 250.439 142.929 250.439 142.328Z" fill="white"/>
<g clip-path="url(#clip0_93_86)">
<mask id="mask0_93_86" style="mask-type:luminance" maskUnits="userSpaceOnUse" x="66" y="4" width="137" height="90">
<path d="M66.6951 4.94061H202.323V93.0407H66.6951V4.94061Z" fill="white"/>
</mask>
<g mask="url(#mask0_93_86)">
<path d="M200.188 125.921H177.401C176.654 123.875 175.309 122.106 173.401 120.9C168.19 117.604 160.767 119.74 156.823 125.673C156.768 125.755 156.717 125.838 156.664 125.921H115.765C115.714 125.838 115.663 125.755 115.608 125.673C111.663 119.74 104.24 117.604 99.0293 120.9C97.1212 122.106 95.7771 123.875 95.0298 125.921H68.6744C67.5687 125.921 66.6747 126.797 66.6747 127.874C66.6747 128.953 67.5687 129.825 68.6744 129.825H94.3394C94.317 132.413 95.097 135.146 96.7363 137.611C100.679 143.545 108.102 145.68 113.313 142.385C119.546 139.576 120.905 133.088 121.188 129.825H151.243C151.524 133.088 152.884 139.576 159.118 142.385C164.329 145.68 171.752 143.545 175.694 137.611C177.334 135.146 178.114 132.413 178.091 129.825H200.188C201.294 129.825 202.188 128.953 202.188 127.874C202.188 126.797 201.294 125.921 200.188 125.921ZM66.6747 78.4985C66.6747 77.4179 67.5687 76.5458 68.6744 76.5458H86.0349C87.2303 73.1273 91.4884 70.5966 96.5612 70.5966C101.636 70.5966 105.896 73.1273 107.089 76.5458H110.902C101.223 71.131 94.989 62.2578 94.989 50.699C94.989 43.5778 97.3513 36.409 101.428 30.134C95.7731 28.7355 91.5862 23.7378 91.5862 17.7886C91.5862 10.7548 97.4327 5.05188 104.644 5.05188C110.987 5.05188 116.27 9.46364 117.453 15.3135C123.081 12.2744 129.457 10.4866 136.216 10.4866C142.973 10.4866 149.349 12.2744 154.978 15.3135C156.159 9.46364 161.443 5.05188 167.787 5.05188C174.996 5.05188 180.842 10.7548 180.842 17.7886C180.842 23.7378 176.658 28.7355 171.002 30.134C175.079 36.409 177.442 43.5778 177.442 50.699C177.442 62.2578 171.208 71.131 161.529 76.5458H165.72C166.913 73.1273 171.174 70.5966 176.248 70.5966C181.321 70.5966 185.581 73.1273 186.775 76.5458H200.188C201.294 76.5458 202.188 77.4179 202.188 78.4985C202.188 79.5751 201.294 80.4491 200.188 80.4491H186.775C185.581 83.8677 181.321 86.3963 176.248 86.3963C171.174 86.3963 166.915 83.8677 165.72 80.4491H152.027C147.158 81.8376 141.819 82.5666 136.216 82.5666C130.612 82.5666 125.273 81.8376 120.404 80.4491H107.089C105.896 83.8677 101.636 86.3963 96.5612 86.3963C91.4884 86.3963 87.2303 83.8677 86.0349 80.4491H68.6744C67.5687 80.4491 66.6747 79.5751 66.6747 78.4985Z" fill="#D38D5F"/>
</g>
<mask id="mask1_93_86" style="mask-type:luminance" maskUnits="userSpaceOnUse" x="97" y="11" width="79" height="83">
<path d="M97.0153 11.8492H175.214V93.0407H97.0153V11.8492Z" fill="white"/>
</mask>
<g mask="url(#mask1_93_86)">
<path d="M98.0314 128.885C97.4246 129.102 97.1415 129.829 97.394 130.51C97.6506 131.189 98.3491 131.565 98.9539 131.35C99.5628 131.132 99.8479 130.407 99.5934 129.725C99.3368 129.046 98.6383 128.671 98.0314 128.885ZM101.884 126.005C101.383 125.254 100.436 124.988 99.7644 125.413C99.0944 125.836 98.9539 126.791 99.4549 127.542C99.9538 128.295 100.905 128.561 101.575 128.134C102.247 127.711 102.383 126.758 101.884 126.005ZM104.593 127.812C105.383 127.689 105.906 126.875 105.762 125.989C105.619 125.103 104.864 124.485 104.073 124.606C103.283 124.728 102.76 125.544 102.903 126.43C103.047 127.314 103.803 127.936 104.593 127.812ZM108.006 126.209C107.208 126.209 106.558 126.936 106.558 127.832C106.558 128.73 107.208 129.455 108.006 129.455C108.806 129.455 109.454 128.73 109.454 127.832C109.454 126.936 108.806 126.209 108.006 126.209ZM102.369 129.284C100.667 130.182 100.418 132.949 101.813 135.47C103.208 137.989 105.161 138.066 106.861 137.168C108.562 136.274 109.368 134.745 107.971 132.226C106.578 129.705 104.067 128.39 102.369 129.284ZM174.399 128.885C173.792 128.671 173.094 129.046 172.837 129.725C172.583 130.407 172.868 131.132 173.475 131.35C174.081 131.565 174.78 131.189 175.035 130.51C175.289 129.829 175.006 129.102 174.399 128.885ZM172.976 127.542C173.477 126.791 173.336 125.836 172.666 125.413C171.994 124.988 171.047 125.254 170.546 126.005C170.047 126.758 170.184 127.711 170.856 128.134C171.526 128.561 172.477 128.295 172.976 127.542ZM166.667 125.989C166.524 126.875 167.048 127.689 167.838 127.812C168.628 127.936 169.386 127.314 169.528 126.43C169.671 125.544 169.147 124.728 168.357 124.606C167.567 124.485 166.811 125.103 166.667 125.989ZM165.873 127.832C165.873 126.936 165.223 126.209 164.425 126.209C163.624 126.209 162.977 126.936 162.977 127.832C162.977 128.73 163.624 129.455 164.425 129.455C165.223 129.455 165.873 128.73 165.873 127.832ZM170.062 129.284C168.363 128.39 165.852 129.705 164.457 132.226C163.062 134.745 163.869 136.274 165.569 137.168C167.27 138.066 169.223 137.989 170.618 135.47C172.012 132.949 171.764 130.182 170.062 129.284ZM172.399 22.2003C174.772 19.8862 174.772 16.1339 172.399 13.8197C170.027 11.5036 166.18 11.5036 163.808 13.8197C161.433 16.1339 162.529 18.8175 164.901 21.1336C167.274 23.4477 170.027 24.5144 172.399 22.2003ZM100.031 13.8197C97.6588 16.1339 97.6588 19.8862 100.031 22.2003C102.404 24.5144 105.157 23.4477 107.529 21.1336C109.902 18.8175 110.997 16.1339 108.623 13.8197C106.25 11.5036 102.404 11.5036 100.031 13.8197ZM157.218 61.3202C157.218 69.4921 147.814 76.1148 136.216 76.1148C124.617 76.1148 115.213 69.4921 115.213 61.3202C115.213 53.1502 124.617 46.5256 136.216 46.5256C147.814 46.5256 157.218 53.1502 157.218 61.3202Z" fill="#C8AB8D"/>
</g>
<path d="M154.3 43.6811C152.689 43.6811 151.384 44.9544 151.384 46.5256C151.384 48.0988 152.689 49.3721 154.3 49.3721C155.911 49.3721 157.218 48.0988 157.218 46.5256C157.218 44.9544 155.911 43.6811 154.3 43.6811ZM119.233 43.6811C117.622 43.6811 116.317 44.9544 116.317 46.5256C116.317 48.0988 117.622 49.3721 119.233 49.3721C120.843 49.3721 122.151 48.0988 122.151 46.5256C122.151 44.9544 120.843 43.6811 119.233 43.6811ZM143.993 51.8372C143.993 54.1414 140.511 58.1181 136.216 58.1181C131.92 58.1181 128.437 54.1414 128.437 51.8372C128.437 49.531 131.92 47.6638 136.216 47.6638C140.511 47.6638 143.993 49.531 143.993 51.8372Z" fill="#322512"/>
<path d="M152.848 45.0676C152.465 45.0676 152.155 45.3695 152.155 45.741C152.155 46.1144 152.465 46.4163 152.848 46.4163C153.227 46.4163 153.538 46.1144 153.538 45.741C153.538 45.3695 153.227 45.0676 152.848 45.0676ZM117.758 45.0676C117.375 45.0676 117.066 45.3695 117.066 45.741C117.066 46.1144 117.375 46.4163 117.758 46.4163C118.139 46.4163 118.449 46.1144 118.449 45.741C118.449 45.3695 118.139 45.0676 117.758 45.0676ZM139.061 49.8091C139.061 50.3573 137.689 50.252 135.992 50.252C134.298 50.252 132.926 50.3573 132.926 49.8091C132.926 49.2628 134.298 48.8179 135.992 48.8179C137.689 48.8179 139.061 49.2628 139.061 49.8091Z" fill="white"/>
<path d="M150.761 83.1446C151.237 84.6105 151.488 85.9653 150.732 87.3517C150.05 88.6052 148.867 89.2388 147.694 89.364C146.282 89.5129 144.806 89.0898 143.446 88.5654C141.12 87.6636 138.951 86.0467 137.222 83.7465L137.212 83.5518C137.119 83.6114 137.019 83.6571 136.915 83.6928V83.7425L136.563 83.7604L135.544 83.808L135.19 83.8239L135.188 83.7743C135.078 83.7504 134.974 83.7127 134.874 83.663L134.885 83.8577C133.394 86.3129 131.398 88.1284 129.174 89.2448C127.871 89.8983 126.442 90.4604 125.026 90.4465C123.845 90.4326 122.605 89.9142 121.801 88.7343C120.911 87.4233 121.025 86.0507 121.351 84.547C121.719 82.8486 121.843 81.486 121.275 79.7757C120.577 77.6661 119.691 75.783 120.947 73.7887C121.843 72.3665 123.424 71.6255 124.827 71.9374C129.358 72.9485 133.194 76.6531 134.286 77.7893C134.457 77.6204 134.654 77.5013 134.868 77.4298L134.866 77.3741L135.221 77.3582L136.239 77.3086L136.593 77.2927L136.595 77.3463C136.817 77.398 137.025 77.4993 137.21 77.6502C138.184 76.4167 141.631 72.3625 146.042 70.9263C147.404 70.4814 149.052 71.0694 150.086 72.4002C151.536 74.2635 150.842 76.222 150.357 78.3872C149.962 80.1432 150.223 81.4879 150.761 83.1446Z" fill="#55D3FF"/>
<mask id="mask2_93_86" style="mask-type:luminance" maskUnits="userSpaceOnUse" x="110" y="32" width="50" height="48">
<path d="M110.955 32.1839H159.438V79.8571H110.955V32.1839Z" fill="white"/>
</mask>
<g mask="url(#mask2_93_86)">
<path d="M174.069 34.6768C178.107 32.5375 180.848 28.3661 180.848 23.569C180.848 16.5908 175.051 10.9355 167.899 10.9355C161.971 10.9355 156.976 14.8229 155.438 20.1285C149.864 17.8442 143.37 16.4895 135.882 16.4895C128.392 16.4895 121.898 17.8442 116.325 20.1285C114.787 14.8229 109.794 10.9355 103.864 10.9355C96.7118 10.9355 90.9141 16.5908 90.9141 23.569C90.9141 28.3661 93.6552 32.5375 97.6934 34.6768C90.5374 44.3624 87.9512 55.8616 89.0508 63.7257C91.295 79.7757 103.573 88.9985 135.882 88.9985C168.192 88.9985 180.47 79.7757 182.712 63.7257C183.811 55.8616 181.225 44.3624 174.069 34.6768Z" fill="#D38D5F"/>
</g>
<path d="M135.882 76.4843C146.297 76.4843 151.887 71.4071 152.573 65.3168C153.261 59.2246 148.779 44.3326 135.882 44.3326C122.986 44.3326 118.504 59.2246 119.19 65.3168C119.876 71.4071 125.466 76.4843 135.882 76.4843Z" fill="#FDE4CD"/>
<path d="M119.131 45.4053C117.426 45.4053 116.046 47.0997 116.046 49.1893C116.046 51.279 117.426 52.9734 119.131 52.9734C120.835 52.9734 122.216 51.279 122.216 49.1893C122.216 47.0997 120.835 45.4053 119.131 45.4053Z" fill="#4A4B5C"/>
<path d="M152.632 45.4053C150.928 45.4053 149.547 47.0997 149.547 49.1893C149.547 51.279 150.928 52.9734 152.632 52.9734C154.337 52.9734 155.717 51.279 155.717 49.1893C155.717 47.0997 154.337 45.4053 152.632 45.4053Z" fill="#4A4B5C"/>
<path d="M142.768 60.031C142 59.7907 141.183 60.1959 140.939 60.9428C140.935 60.9507 140.67 61.6817 139.919 62.3849C139.234 63.0285 138.369 63.4516 137.338 63.6502V57.1428C139.432 56.6045 141.224 55.0055 141.747 53.4084C142.387 51.4518 139.361 50.5023 135.882 50.5023C132.402 50.5023 129.376 51.4518 130.018 53.4084C130.533 54.9896 132.294 56.5787 134.363 57.1309L134.426 57.1329V63.6462C131.628 63.096 130.863 61.0441 130.83 60.9586C130.586 60.2118 129.765 59.8006 128.999 60.039C128.234 60.2793 127.812 61.0778 128.056 61.8267C128.122 62.0214 129.706 66.6238 135.882 66.6238C142.059 66.6238 143.641 62.0214 143.706 61.8267C143.953 61.0778 143.533 60.2714 142.768 60.031Z" fill="#4A4B5C"/>
</g>
<g clip-path="url(#clip1_93_86)">
<mask id="mask3_93_86" style="mask-type:luminance" maskUnits="userSpaceOnUse" x="70" y="188" width="135" height="27">
<path d="M70.6206 188.33H204.901V214.884H70.6206V188.33Z" fill="white"/>
</mask>
<g mask="url(#mask3_93_86)">
<path d="M203.029 196.83H180.426C179.686 194.822 178.352 193.086 176.461 191.903C171.291 188.668 163.928 190.767 160.017 196.586C159.962 196.666 159.91 196.747 159.857 196.83H119.292C119.241 196.747 119.191 196.666 119.136 196.586C115.223 190.767 107.862 188.668 102.692 191.903C100.801 193.086 99.4675 194.822 98.725 196.83H72.5837C71.4869 196.83 70.6 197.688 70.6 198.744C70.6 199.803 71.4869 200.658 72.5837 200.658H98.0387C98.0181 203.198 98.7906 205.879 100.416 208.298C104.329 214.119 111.691 216.214 116.86 212.981C123.042 210.226 124.39 203.862 124.671 200.658H154.48C154.759 203.862 156.109 210.226 162.291 212.981C167.461 216.214 174.824 214.119 178.735 208.298C180.361 205.879 181.133 203.198 181.112 200.658H203.029C204.126 200.658 205.013 199.803 205.013 198.744C205.013 197.688 204.126 196.83 203.029 196.83ZM70.6 150.303C70.6 149.245 71.4869 148.389 72.5837 148.389H89.8037C90.9887 145.035 95.2131 142.553 100.246 142.553C105.276 142.553 109.502 145.035 110.686 148.389H114.467C104.867 143.078 98.6856 134.371 98.6856 123.032C98.6856 116.046 101.029 109.013 105.07 102.855C99.4619 101.484 95.3087 96.5813 95.3087 90.7437C95.3087 83.8424 101.108 78.249 108.261 78.249C114.554 78.249 119.792 82.5779 120.964 88.316C126.548 85.3348 132.872 83.5801 139.576 83.5801C146.279 83.5801 152.603 85.3348 158.187 88.316C159.357 82.5779 164.599 78.249 170.89 78.249C178.041 78.249 183.841 83.8424 183.841 90.7437C183.841 96.5813 179.691 101.484 174.081 102.855C178.124 109.013 180.466 116.046 180.466 123.032C180.466 134.371 174.286 143.078 164.684 148.389H168.841C170.026 145.035 174.25 142.553 179.282 142.553C184.315 142.553 188.539 145.035 189.724 148.389H203.029C204.126 148.389 205.013 149.245 205.013 150.303C205.013 151.36 204.126 152.219 203.029 152.219H189.724C188.539 155.573 184.315 158.053 179.282 158.053C174.25 158.053 170.027 155.573 168.841 152.219H155.258C150.428 153.581 145.133 154.296 139.576 154.296C134.02 154.296 128.723 153.581 123.893 152.219H110.686C109.502 155.573 105.276 158.053 100.246 158.053C95.2131 158.053 90.9887 155.573 89.8037 152.219H72.5837C71.4869 152.219 70.6 151.36 70.6 150.303Z" fill="#D38D5F"/>
</g>
<mask id="mask4_93_86" style="mask-type:luminance" maskUnits="userSpaceOnUse" x="100" y="188" width="79" height="21">
<path d="M100.96 188.33H178.24V208.401H100.96V188.33Z" fill="white"/>
</mask>
<g mask="url(#mask4_93_86)">
<path d="M101.702 199.737C101.101 199.951 100.819 200.662 101.071 201.331C101.326 201.999 102.017 202.366 102.617 202.154C103.221 201.941 103.504 201.23 103.251 200.561C102.998 199.895 102.304 199.526 101.702 199.737ZM105.524 196.912C105.027 196.174 104.087 195.913 103.42 196.331C102.756 196.745 102.617 197.682 103.114 198.421C103.609 199.159 104.552 199.419 105.216 199.001C105.882 198.587 106.019 197.65 105.524 196.912ZM108.211 198.685C108.994 198.563 109.514 197.764 109.369 196.896C109.229 196.027 108.479 195.419 107.695 195.541C106.911 195.658 106.392 196.46 106.534 197.33C106.677 198.196 107.427 198.804 108.211 198.685ZM111.597 197.113C110.804 197.113 110.159 197.825 110.159 198.705C110.159 199.584 110.804 200.296 111.597 200.296C112.39 200.296 113.031 199.584 113.031 198.705C113.031 197.825 112.39 197.113 111.597 197.113ZM106.004 200.128C104.316 201.009 104.071 203.724 105.452 206.197C106.836 208.668 108.773 208.743 110.459 207.863C112.148 206.986 112.947 205.486 111.563 203.015C110.179 200.542 107.689 199.251 106.004 200.128ZM177.449 199.737C176.847 199.526 176.155 199.895 175.902 200.561C175.649 201.23 175.932 201.941 176.532 202.154C177.134 202.366 177.827 201.999 178.081 201.331C178.334 200.662 178.052 199.951 177.449 199.737ZM176.037 198.421C176.534 197.682 176.395 196.745 175.731 196.331C175.064 195.913 174.124 196.174 173.627 196.912C173.132 197.65 173.269 198.587 173.935 199.001C174.601 199.419 175.542 199.159 176.037 198.421ZM169.78 196.896C169.637 197.764 170.157 198.563 170.941 198.685C171.724 198.804 172.476 198.196 172.617 197.33C172.759 196.46 172.24 195.658 171.456 195.541C170.672 195.419 169.922 196.027 169.78 196.896ZM168.992 198.705C168.992 197.825 168.349 197.113 167.556 197.113C166.763 197.113 166.12 197.825 166.12 198.705C166.12 199.584 166.763 200.296 167.556 200.296C168.349 200.296 168.992 199.584 168.992 198.705ZM173.147 200.128C171.462 199.251 168.972 200.542 167.588 203.015C166.206 205.486 167.005 206.986 168.692 207.863C170.378 208.743 172.315 208.668 173.699 206.197C175.082 203.724 174.837 201.009 173.147 200.128ZM175.467 95.0744C177.82 92.8023 177.82 89.121 175.467 86.8507C173.112 84.5786 169.296 84.5786 166.943 86.8507C164.59 89.121 165.676 91.7549 168.029 94.027C170.382 96.2955 173.112 97.3429 175.467 95.0744ZM103.684 86.8507C101.333 89.121 101.333 92.8023 103.684 95.0744C106.039 97.3429 108.769 96.2955 111.122 94.027C113.477 91.7549 114.563 89.121 112.208 86.8507C109.855 84.5786 106.039 84.5786 103.684 86.8507ZM160.407 133.452C160.407 141.468 151.081 147.966 139.576 147.966C128.072 147.966 118.744 141.468 118.744 133.452C118.744 125.437 128.072 118.937 139.576 118.937C151.081 118.937 160.407 125.437 160.407 133.452Z" fill="#E8A763"/>
</g>
</g>
<defs>
<clipPath id="clip0_93_86">
<rect width="159" height="84" fill="white" transform="translate(58)"/>
</clipPath>
<clipPath id="clip1_93_86">
<rect width="135" height="25" fill="white" transform="translate(70 190)"/>
</clipPath>
</defs>
</svg>
