<svg width="55" height="61" viewBox="0 0 55 61" fill="none" xmlns="http://www.w3.org/2000/svg">
<path d="M43.8033 18.3524C45.4688 19.1261 50.001 21.3187 52.8312 26.7195C55.7862 32.3605 54.9595 37.8328 54.6735 39.5634C54.2974 41.8312 53.0703 46.9736 48.7774 51.0434C41.7339 57.7239 32.4946 55.777 31.368 55.5203C30.4113 55.3003 19.1477 52.5119 16.2603 41.5086C13.9899 32.85 18.1771 23.9458 24.6435 19.5202C33.2363 13.6391 42.6871 17.8336 43.8033 18.3524Z" fill="#F27B06"/>
<path d="M51.7774 26.0412C54.2662 31.8674 52.6075 37.5194 52.1569 38.975C51.9732 39.5726 48.8536 49.0984 39.5345 51.7071C31.9226 53.8355 23.8479 50.323 19.697 43.7874C19.0887 42.8304 15.1233 36.3516 17.3244 28.4483C19.9692 18.9556 29.3055 17.0197 30.0785 16.796C38.5241 14.3504 48.266 17.8226 51.7774 26.0412Z" fill="#FE8D00"/>
<path d="M26.2553 20.347C27.101 19.4817 28.1704 19.3974 29.0647 19.3259C29.8879 19.2599 30.7441 19.1902 30.9989 19.6651C31.3438 20.3067 30.342 21.4672 30.2155 21.612C29.1773 22.8146 27.7735 22.9448 27.4061 22.9741C26.8376 23.0181 25.7475 23.1006 25.4268 22.4865C25.0941 21.8522 25.7804 20.8329 26.2553 20.347Z" fill="#FFAA4D"/>
<path d="M24.8271 24.9193C24.8271 25.0934 24.7959 25.2621 24.7335 25.4216C24.6694 25.5829 24.5793 25.7259 24.4632 25.8487C24.3471 25.9716 24.2119 26.0669 24.0594 26.1329C23.9068 26.2007 23.7491 26.2337 23.5845 26.2337C23.4198 26.2337 23.2604 26.2007 23.1079 26.1329C22.9554 26.0669 22.8219 25.9716 22.704 25.8487C22.5879 25.7259 22.4978 25.5829 22.4354 25.4216C22.3713 25.2621 22.3401 25.0934 22.3401 24.9193C22.3401 24.7451 22.3713 24.5783 22.4354 24.4169C22.4978 24.2556 22.5879 24.1144 22.704 23.9916C22.8219 23.867 22.9554 23.7735 23.1079 23.7056C23.2604 23.6396 23.4198 23.6066 23.5845 23.6066C23.7491 23.6066 23.9068 23.6396 24.0594 23.7056C24.2119 23.7735 24.3471 23.867 24.4632 23.9916C24.5793 24.1144 24.6694 24.2556 24.7335 24.4169C24.7959 24.5783 24.8271 24.7451 24.8271 24.9193Z" fill="#FFAA4D"/>
<path d="M41.7461 13.5199C41.1637 13.8811 39.0874 15.0746 36.9557 14.2991C35.2659 13.6831 34.3976 12.1413 33.4547 10.4712C31.9279 7.76345 32.3213 6.61949 31.0613 4.63405C29.5985 2.32779 27.4858 1.34332 26.7614 1.00049C23.3939 -0.594458 20.2569 0.124186 19.2084 0.417511C19.8202 1.00966 20.373 1.65864 20.867 2.36262C22.2552 4.34989 22.4389 5.76152 23.5689 8.5261C24.5967 11.0395 25.1097 12.2972 25.9641 13.1955C28.2675 15.6191 31.9279 15.4742 32.4738 15.4651C34.0839 15.4394 34.5102 15.0067 36.687 15.0929C37.668 15.1314 38.3318 15.2487 39.2659 14.9957C40.2122 14.7262 41.0372 14.2331 41.7461 13.5199Z" fill="#599A2A"/>
<path d="M37.2624 14.7519C36.3143 14.6272 35.4027 14.3577 34.5327 13.9379C34.1011 13.7271 33.6852 13.4832 33.2883 13.2082C32.8879 12.9351 32.5084 12.6326 32.1496 12.3044C31.4304 11.6426 30.7804 10.9112 30.2033 10.11C29.6123 9.3217 29.0837 8.48939 28.6157 7.61308C28.3991 7.16943 28.1582 6.74044 27.8913 6.32796C27.6157 5.92097 27.3176 5.53598 26.9935 5.17116C25.6867 3.69354 24.172 2.51657 22.4458 1.6421C21.5914 1.20394 20.7057 0.850121 19.7924 0.578796C20.7127 0.835455 21.6035 1.17461 22.4649 1.5981C24.2032 2.46707 25.7318 3.63854 27.0507 5.11616C27.3783 5.48098 27.6816 5.8678 27.9624 6.27479C28.2327 6.68911 28.4771 7.11993 28.6972 7.56542C29.1582 8.43989 29.6816 9.2722 30.264 10.0605C30.8359 10.8617 31.4772 11.5931 32.1895 12.2549C32.5465 12.5831 32.9226 12.8856 33.3177 13.1606C33.7129 13.4356 34.1237 13.6812 34.5517 13.8957C35.4148 14.3265 36.3178 14.6125 37.2624 14.7519Z" fill="#8DBD36"/>
<path d="M31.3975 11.0872C31.4321 10.8782 31.4529 10.6692 31.4633 10.4584C31.472 10.2475 31.4668 10.0385 31.4477 9.82955C31.4269 9.62055 31.394 9.41523 31.3472 9.21173C31.2987 9.00641 31.2398 8.80474 31.1687 8.60675C31.2727 8.79008 31.3559 8.98441 31.4165 9.18973C31.4789 9.39506 31.5205 9.60589 31.5396 9.82038C31.5604 10.0349 31.5587 10.2494 31.5344 10.4639C31.5119 10.6765 31.4668 10.8855 31.3975 11.0872Z" fill="#8DBD36"/>
<path d="M31.0942 11.529C30.8308 11.7178 30.5483 11.859 30.2433 11.9506C29.9365 12.0405 29.6228 12.0826 29.3039 12.0735C28.985 12.068 28.673 12.0166 28.368 11.9158C28.0664 11.8168 27.7805 11.6775 27.5118 11.4978L27.517 11.4886C27.8013 11.6225 28.0942 11.7325 28.3957 11.8205C28.6938 11.914 28.9971 11.9708 29.3074 11.9946C29.6193 12.013 29.9278 11.9818 30.2311 11.903C30.5362 11.8241 30.8221 11.6976 31.089 11.5216L31.0942 11.529Z" fill="#8DBD36"/>
<path d="M29.3714 8.46009C29.3298 8.19427 29.309 7.92478 29.3108 7.65528C29.3125 7.38579 29.3298 7.1163 29.3645 6.84864C29.4061 6.58648 29.42 6.32249 29.4061 6.05667C29.3836 5.79084 29.3246 5.53235 29.2328 5.28119C29.361 5.52135 29.4425 5.77617 29.4772 6.0475C29.5066 6.32066 29.4997 6.59015 29.4581 6.86147C29.4252 7.1273 29.3974 7.39129 29.3818 7.65712C29.368 7.92478 29.368 8.1906 29.3714 8.46009Z" fill="#8DBD36"/>
<path d="M28.7596 8.52973C28.5014 8.68006 28.2276 8.78089 27.9364 8.83222C27.7908 8.85422 27.6435 8.85789 27.4962 8.84139C27.3506 8.82306 27.2068 8.79006 27.0664 8.74056C26.7873 8.64339 26.5204 8.53156 26.2449 8.45273C26.1062 8.40873 25.9658 8.3794 25.8254 8.35007C25.6833 8.32257 25.5395 8.30974 25.3956 8.28774V8.27674C25.5412 8.26941 25.6868 8.27124 25.8341 8.28224C25.9797 8.2969 26.1235 8.32257 26.2674 8.35557C26.5482 8.4399 26.822 8.5444 27.0906 8.66539C27.2241 8.71856 27.3627 8.75522 27.5031 8.77906C27.647 8.79739 27.7891 8.79922 27.9312 8.78272C28.2206 8.74606 28.4945 8.65806 28.7562 8.52056L28.7596 8.52973Z" fill="#8DBD36"/>
<path d="M27.3627 5.86965C27.1305 5.98698 26.8879 6.06031 26.6331 6.09331C26.3748 6.11898 26.1218 6.09881 25.8705 6.03098C25.6227 5.97232 25.3766 5.91732 25.1322 5.85499C24.8861 5.79449 24.64 5.73766 24.3973 5.66066L24.3991 5.64966C24.6504 5.67349 24.9017 5.71566 25.153 5.75782C25.4008 5.80732 25.6452 5.88432 25.8878 5.95398C26.1305 6.02915 26.3766 6.06031 26.6279 6.04381C26.8809 6.02548 27.1253 5.96498 27.3593 5.86049L27.3627 5.86965Z" fill="#8DBD36"/>
<path d="M27.4754 5.32702C27.4459 5.15652 27.4269 4.98603 27.4095 4.81553C27.3905 4.64321 27.3801 4.47088 27.3749 4.30038C27.3749 4.13172 27.3575 3.96489 27.3246 3.7999C27.2865 3.6349 27.2328 3.47358 27.1652 3.31958C27.2674 3.45891 27.3437 3.6129 27.3939 3.77973C27.4442 3.94839 27.4685 4.12072 27.4685 4.29672L27.4806 4.81003C27.4841 4.98236 27.4841 5.15286 27.4754 5.32702Z" fill="#8DBD36"/>
<path d="M24.874 3.39842C24.5152 3.38925 24.1582 3.35809 23.8047 3.30309C23.6261 3.28109 23.4494 3.24809 23.2743 3.20409C23.101 3.15643 22.9312 3.09593 22.7648 3.02076L22.7682 3.0116C22.9467 3.03543 23.1201 3.07393 23.2951 3.10693C23.4702 3.14176 23.6417 3.18942 23.8168 3.22609C24.1651 3.29759 24.5187 3.35075 24.874 3.38742V3.39842Z" fill="#8DBD36"/>
<path d="M25.1616 2.96757C25.1582 2.78607 25.1322 2.60641 25.0854 2.43225C25.0351 2.25992 24.9623 2.09859 24.867 1.9501C24.7786 1.79427 24.6867 1.63661 24.6122 1.47161C24.5342 1.30662 24.4562 1.14162 24.3904 0.972961C24.4909 1.12329 24.5828 1.27729 24.6746 1.43311L24.9485 1.89877C24.9935 1.9776 25.0368 2.0601 25.0732 2.14443C25.1096 2.23059 25.1356 2.32042 25.1547 2.41392C25.1911 2.59725 25.1928 2.78241 25.1616 2.96757Z" fill="#8DBD36"/>
<path d="M38.713 18.9611C38.8118 18.4294 38.9973 17.9363 39.2659 17.4761C39.7997 16.5778 40.2902 16.51 41.4549 15.4577C42.2868 14.7042 43.0424 14.0057 43.4809 12.8801C43.6975 12.3173 43.8119 11.7343 43.8258 11.1275C43.5953 10.9368 43.3336 10.8653 43.0424 10.9093C42.8483 10.9442 42.6802 11.034 42.5363 11.177C42.5519 11.5052 42.5207 11.8296 42.4445 12.1505C42.3162 12.6839 41.9731 13.5273 39.5189 15.6282C38.6662 16.3578 38.1515 16.7318 37.8395 17.5495C37.6905 17.94 37.6142 18.3451 37.609 18.7649C37.3213 18.6898 37.0302 18.6568 36.7338 18.6678C36.0995 18.7008 35.5241 18.9116 35.0059 19.3002C35.2364 19.4744 35.4825 19.6211 35.7424 19.7384C36.2884 19.9841 36.8551 20.0959 37.4478 20.0794C37.4981 20.3251 37.59 20.5524 37.7234 20.7595C37.9557 21.1152 38.2624 21.3664 38.6454 21.5148C38.7061 21.15 38.7668 20.7852 38.8292 20.4204C38.999 20.5047 39.1758 20.5579 39.363 20.5799C39.5484 20.6019 39.7339 20.5927 39.9158 20.5505C40.0995 20.5084 40.2711 20.4369 40.4323 20.3361C40.5935 20.2334 40.7339 20.1087 40.8552 19.9584C40.4947 19.5972 40.0805 19.3296 39.6125 19.1554C39.3214 19.0473 39.0215 18.9831 38.713 18.9611Z" fill="#599A2A"/>
<path d="M30.6314 42.5554C30.264 42.6416 29.621 42.7809 28.8116 42.8946C24.9658 43.4372 23.0819 42.5756 17.7352 42.5554C16.1511 42.5481 15.2984 42.1209 14.5098 41.8661C11.9014 41.0228 11.411 41.7671 8.27051 40.5846C7.01746 40.1135 5.1994 38.8632 2.62743 37.941C2.07109 38.854 0.185439 42.3996 0.554596 46.5684C0.662051 47.7766 1.15773 51.4945 4.00873 54.3525C7.46114 57.8119 11.9846 57.6268 14.6952 57.5149C16.2013 57.4526 20.4839 57.2143 24.5966 54.0611C25.9086 53.0546 28.9884 50.6933 30.1704 46.3741C30.5101 45.1257 30.6626 43.8534 30.6314 42.5554Z" fill="#F5ECBB"/>
<mask id="mask0_98_383" style="mask-type:luminance" maskUnits="userSpaceOnUse" x="0" y="37" width="33" height="24">
<path d="M0 37.7816H32.8325V61H0V37.7816Z" fill="white"/>
</mask>
<g mask="url(#mask0_98_383)">
<path d="M30.6314 42.5554C31.2172 43.5894 33.1479 46.4621 32.6574 49.8757C32.0179 54.3177 28.6678 56.7523 27.0837 57.9036C22.8115 61.0073 18.2915 60.846 16.2602 60.7745C14.2047 60.6994 10.1735 60.4995 6.26699 57.5626C5.03646 56.6386 2.15426 54.4075 0.785085 50.2167C0.410728 49.0709 -0.734874 45.386 0.740024 41.3638C1.21144 40.1245 1.84056 38.9842 2.62741 37.941C2.09707 38.9292 -0.00175803 43.1091 0.999994 48.1249C1.20277 49.135 1.76431 51.8226 5.0226 54.5799C10.8823 59.5371 19.2447 56.6441 20.529 56.1033C22.0108 55.48 26.0577 54.1234 28.7423 48.9517C29.7735 46.9516 30.4026 44.8195 30.6314 42.5554Z" fill="#FA8400"/>
</g>
<path d="M18.3799 42.8377C19.2689 42.1063 20.1182 42.7021 22.9848 42.7974C23.9796 42.8322 26.016 43.1127 26.4979 43.0651C28.945 42.8212 29.3991 42.7131 29.4095 42.9936C29.4303 43.4794 29.588 43.7709 29.2795 44.979C28.9052 46.4456 28.3003 47.7968 27.4684 49.0324C26.8687 49.9197 26.2569 50.807 25.1339 51.4981C24.4424 51.9235 23.9796 52.2076 23.4146 52.1141C22.6139 51.9803 22.4579 51.2268 20.8669 49.0012C19.9431 47.7088 19.4804 47.0616 19.0558 46.5685C18.2585 45.6427 17.7958 45.2723 17.7351 44.5574C17.6883 44.022 17.8651 43.2631 18.3799 42.8377Z" fill="#FEA41F"/>
<path d="M18.5411 44.1852C18.6295 45.0138 19.165 45.3695 20.0142 46.3741C20.782 47.2816 20.503 47.1771 21.834 48.9279C23.1443 50.6512 23.4146 50.7502 23.6296 50.7758C24.4511 50.8748 25.2032 50.0022 26.0247 49.0489C26.4147 48.5961 26.6989 48.1469 27.2691 47.2486C27.9676 46.145 28.1149 45.7453 28.1669 45.595C28.4581 44.7553 28.4806 43.4629 28.1894 42.9679C27.9901 42.6287 27.0612 42.7974 25.9329 42.8231C22.3765 42.8982 22.8462 42.6892 21.7768 42.6892C21.2812 42.6892 20.5082 42.4289 19.5879 42.4821C18.9189 42.5206 18.9674 42.8451 18.8166 43.0174C18.4596 43.4244 18.5237 44.0275 18.5411 44.1852Z" fill="#FEC01F"/>
<path d="M22.5551 44.4272C22.8982 44.4602 23.2414 44.4657 23.5845 44.4437C23.7856 44.4107 23.9797 44.4382 24.1669 44.5243C24.3038 44.5903 24.406 44.693 24.4736 44.8323C24.543 44.9845 24.5811 45.2283 24.4736 45.3677C24.2761 45.628 23.666 45.397 23.4147 45.2705C23.049 45.0798 22.763 44.7993 22.5551 44.4272Z" fill="#FEA41F"/>
<path d="M25.0421 43.6498C25.3853 43.6828 25.7284 43.6883 26.0716 43.6663C26.2726 43.6333 26.4668 43.659 26.6539 43.747C26.7908 43.8112 26.8931 43.9138 26.9607 44.055C27.03 44.2053 27.0681 44.451 26.9607 44.5903C26.7631 44.8488 26.1531 44.6178 25.9017 44.4931C25.5361 44.3025 25.2501 44.0202 25.0421 43.6498Z" fill="#FEA41F"/>
<path d="M22.4944 47.9305C22.8358 47.9635 23.179 47.969 23.5221 47.947C23.7249 47.914 23.919 47.9415 24.1062 48.0277C24.2431 48.0919 24.3454 48.1945 24.413 48.3357C24.4823 48.486 24.5204 48.7317 24.413 48.871C24.2137 49.1313 23.6053 48.9003 23.354 48.7738C22.9883 48.5832 22.7006 48.3027 22.4944 47.9305Z" fill="#FEA41F"/>
<path d="M19.853 43.098C20.1962 43.131 20.5393 43.1365 20.8825 43.1145C21.0836 43.0815 21.2777 43.109 21.4648 43.1952C21.6018 43.2594 21.704 43.362 21.7716 43.5032C21.8409 43.6535 21.8791 43.8992 21.7716 44.0385C21.574 44.2988 20.964 44.0678 20.7127 43.9413C20.347 43.7507 20.061 43.4702 19.853 43.098Z" fill="#FEA41F"/>
<path d="M24.2449 46.2769C24.5863 46.3099 24.9295 46.3154 25.2726 46.2934C25.4754 46.2604 25.6695 46.2861 25.8567 46.3741C25.9919 46.4382 26.0941 46.5409 26.1635 46.6821C26.231 46.8324 26.2692 47.0781 26.1635 47.2174C25.9641 47.4759 25.3558 47.2449 25.1045 47.1202C24.7371 46.9296 24.4511 46.6472 24.2449 46.2769Z" fill="#FFCC5D"/>
<path d="M20.7456 45.2943C21.042 45.4795 21.3505 45.639 21.6694 45.7746C21.8652 45.8351 22.0299 45.9488 22.1633 46.112C22.2604 46.2311 22.3124 46.3704 22.3176 46.5281C22.3176 46.6949 22.2534 46.9351 22.1009 47.0121C21.8149 47.1569 21.3591 46.6729 21.1824 46.4456C20.9276 46.1083 20.7837 45.7251 20.7456 45.2943Z" fill="#FFCC5D"/>
<path d="M15.9327 44.9038C16.054 44.8507 16.1788 44.8195 16.3088 44.8103C16.4388 44.803 16.567 44.8158 16.6935 44.8507C16.8201 44.8873 16.9379 44.9423 17.0454 45.0193C17.1545 45.0945 17.2499 45.188 17.3296 45.2962C18.7716 47.2614 19.9137 48.7904 20.5896 49.6814C21.4874 50.8675 21.9363 51.4596 22.094 51.5953C22.4215 51.8776 22.711 52.0628 22.8011 52.4386C22.8288 52.5541 22.9363 53.0949 22.1876 53.9951C20.834 55.6212 18.6988 55.9952 16.9674 56.2977C16.1736 56.4572 15.3746 56.4902 14.5722 56.3948C13.6034 56.2702 12.7524 56.1602 12.3919 55.5515C12.1077 55.0712 12.3156 54.5909 13.0366 52.3414C13.7645 50.07 14.1302 48.9334 14.1736 48.6107C14.281 47.8022 14.3157 46.8416 14.8789 45.8865C15.0644 45.5546 15.3105 45.2852 15.6155 45.0762C15.7178 45.0102 15.8235 44.9515 15.9327 44.9038Z" fill="#FEA41F"/>
<path d="M16.5826 45.5711C17.3868 45.6628 17.6052 46.4841 18.7248 48.0039C19.574 49.157 20.2967 49.8353 21.3955 51.5788C21.6416 51.9693 21.8514 52.3231 21.7872 52.7466C21.6728 53.5166 20.7422 53.9401 19.808 54.3525C18.5601 54.9007 17.5549 55.0144 16.1909 55.1555C14.1892 55.3627 13.9361 55.1207 13.8425 55.0089C13.5358 54.6422 13.742 54.2242 13.9344 52.0664C14.0661 50.5962 14.2238 50.5595 14.3573 49.8445C14.5549 48.7794 14.4543 48.9975 14.8339 47.4448C15.0315 46.6344 15.0696 46.2733 15.4093 45.9598C15.749 45.6573 16.1407 45.5271 16.5826 45.5711Z" fill="#FEC01F"/>
<path d="M13.4058 43.7947C12.5305 43.6865 11.69 44.055 10.6414 44.5738C9.22717 45.2741 9.59979 44.8231 7.18727 45.8388C4.93246 46.7884 4.91513 47.0524 3.87178 47.2009C3.1404 47.3036 2.66379 47.6042 2.37435 47.9782C1.93587 48.5465 2.32409 49.201 2.62739 50.0461C3.02081 51.2231 3.64301 52.2443 4.49398 53.1114C5.33801 53.9657 6.13872 54.3709 7.25659 54.9355C7.90825 55.2673 8.58244 55.5258 9.28263 55.7146C10.2497 55.9731 10.7333 56.1033 11.1717 55.8851C11.5981 55.6725 11.7575 55.26 12.2775 53.4762C12.7541 51.8373 12.9551 51.0343 13.3364 49.6813C13.7766 48.1194 13.9985 47.3384 14.0037 47.3219C14.3503 46.4676 14.69 45.9451 14.534 45.254C14.4404 44.9001 14.2793 44.583 14.0505 44.3062C14.0505 44.3062 13.8009 43.8442 13.4058 43.7947Z" fill="#FEA41F"/>
<path d="M12.7299 44.6215C12.1146 44.4162 11.593 44.6068 9.38323 45.6921C6.88578 46.9186 7.30693 46.7958 6.86498 46.9571C6.29131 47.1679 5.65872 47.3457 4.99146 47.9306C4.68123 48.2019 4.397 48.4512 4.25488 48.871C3.92039 49.861 4.6639 50.9243 4.83895 51.1736C5.10412 51.5531 5.08159 51.8868 6.95684 53.0876C8.456 54.0464 8.80609 53.9327 9.01407 53.9309C10.0782 53.918 10.8547 52.6237 11.8391 50.9793C12.3486 50.1305 11.9448 50.6053 13.314 47.6061C13.7143 46.7261 14.0055 46.1248 13.7733 45.5308C13.5306 44.9075 12.8564 44.6655 12.7299 44.6215Z" fill="#FEC01F"/>
<path d="M13.8356 41.8001C13.4353 41.3142 12.099 41.2189 9.87367 40.6983C9.10416 40.5076 8.34678 40.2693 7.60153 39.9851C5.54257 39.2426 4.94983 38.7605 4.19419 39.0758C3.70371 39.2811 3.45761 39.7101 2.96539 40.5681C2.20628 41.8917 2.0503 43.1163 1.95151 43.9413C1.78513 45.3529 1.67768 46.2659 2.16815 46.6656C2.3692 46.8306 2.71409 46.9406 4.624 46.2769C6.29648 45.6939 6.53219 45.4373 8.06254 44.8818C9.79915 44.2511 10.9482 43.9413 10.9482 43.9413C11.6224 43.7598 12.2533 43.4262 12.9136 43.1952C13.359 43.0393 13.7992 42.8964 13.9275 42.515C13.9968 42.262 13.9673 42.0237 13.8356 41.8001Z" fill="#FEA41F"/>
<path d="M4.90824 39.4902C4.35364 39.822 3.87529 40.5241 3.45761 41.5581C3.32242 41.8918 2.30854 44.3924 3.13524 45.133C3.4992 45.4612 4.17339 45.2668 5.50617 44.8653C6.56165 44.5482 6.69684 44.3832 8.66221 43.6242C9.91353 43.1421 10.5392 42.9001 10.7801 42.8707C11.3555 42.8011 11.9326 42.8396 12.4144 42.4088C12.5652 42.2749 12.9119 42.0018 12.8755 41.7286C12.8061 41.208 11.4404 41.1805 9.67436 40.779C6.54952 40.0695 5.97585 38.8504 4.90824 39.4902Z" fill="#FEC01F"/>
<path d="M16.4041 46.3869C16.5445 46.7169 16.7092 47.0359 16.8963 47.3402C17.0228 47.5107 17.0956 47.7032 17.1164 47.9177C17.1286 48.0754 17.0956 48.2183 17.0124 48.3503C16.9223 48.4878 16.7386 48.6437 16.5705 48.6143C16.2603 48.5593 16.1511 47.8847 16.1303 47.5914C16.1078 47.1605 16.1996 46.7591 16.4041 46.3869Z" fill="#FFCC5D"/>
<path d="M12.5202 45.7141C12.3556 46.0313 12.2135 46.3631 12.0974 46.7041C12.0454 46.9131 11.9448 47.0909 11.7941 47.2376C11.6849 47.3439 11.5549 47.4026 11.4058 47.4117C11.2464 47.4191 11.0194 47.3586 10.9396 47.1991C10.794 46.9039 11.236 46.4053 11.4457 46.2109C11.7559 45.9323 12.1147 45.7654 12.5202 45.7141Z" fill="#FEA41F"/>
<path d="M11.1146 42.0989C10.7836 42.2016 10.4629 42.3281 10.151 42.4802C9.97419 42.5902 9.78355 42.6397 9.58077 42.6306C9.42999 42.6232 9.3 42.5664 9.18735 42.4619C9.07123 42.3482 8.95164 42.1356 9.0019 41.9633C9.09896 41.6461 9.74542 41.6259 10.0227 41.6461C10.43 41.6828 10.794 41.8331 11.1146 42.0989Z" fill="#FEA41F"/>
<path d="M7.36936 40.7368C7.03833 40.8395 6.7177 40.966 6.40573 41.1181C6.22895 41.2281 6.03831 41.2776 5.8338 41.2684C5.68475 41.2611 5.55476 41.2043 5.44211 41.0998C5.32599 40.9861 5.2064 40.7735 5.25666 40.6011C5.35199 40.284 5.99845 40.2638 6.27575 40.284C6.68303 40.3206 7.04699 40.471 7.36936 40.7368Z" fill="#FEA41F"/>
<path d="M5.46454 44.11C5.13524 44.2109 4.81288 44.3392 4.50091 44.4913C4.32413 44.6013 4.13522 44.6508 3.93071 44.6417C3.78166 44.6343 3.64994 44.5775 3.53729 44.473C3.4229 44.3594 3.30158 44.1467 3.35358 43.9744C3.4489 43.6572 4.09536 43.637 4.37266 43.6572C4.77995 43.6939 5.14391 43.8442 5.46454 44.11Z" fill="#FEA41F"/>
<path d="M7.7055 42.5205C7.3762 42.6232 7.05557 42.7497 6.74361 42.9019C6.56683 43.0119 6.37618 43.0614 6.17167 43.0522C6.02262 43.0449 5.8909 42.988 5.77998 42.8835C5.66386 42.7699 5.54254 42.5572 5.59454 42.3849C5.68986 42.0677 6.33632 42.0476 6.61362 42.0677C7.02091 42.1044 7.38487 42.2547 7.7055 42.5205Z" fill="#FFCC5D"/>
<path d="M10.0331 46.1505C9.86842 46.4694 9.7263 46.7994 9.61018 47.1423C9.55818 47.3512 9.45766 47.5291 9.30688 47.6757C9.19769 47.7821 9.06771 47.8407 8.91692 47.8499C8.75921 47.8572 8.53217 47.7967 8.45244 47.6372C8.30686 47.3421 8.74881 46.8434 8.95852 46.6491C9.26875 46.3704 9.62751 46.2036 10.0331 46.1505Z" fill="#FEA41F"/>
<path d="M11.7143 48.7042C11.5497 49.0232 11.4076 49.355 11.2915 49.696C11.2395 49.905 11.1389 50.0828 10.9882 50.2295C10.879 50.3358 10.749 50.3945 10.5982 50.4037C10.4405 50.411 10.2134 50.3505 10.1337 50.191C9.98814 49.8959 10.4301 49.3972 10.6398 49.2029C10.95 48.9242 11.3088 48.7574 11.7143 48.7042Z" fill="#FEA41F"/>
<path d="M8.97249 49.2395C8.80784 49.5585 8.66746 49.8885 8.55134 50.2313C8.49935 50.4403 8.39882 50.6181 8.24804 50.7648C8.13712 50.8711 8.00714 50.9298 7.85809 50.939C7.70037 50.9463 7.4716 50.8858 7.39361 50.7263C7.24802 50.4311 7.68997 49.9325 7.89968 49.7382C8.20991 49.4595 8.56867 49.2927 8.97249 49.2395Z" fill="#FFCC5D"/>
<path d="M7.03821 48.4384C6.87356 48.7555 6.73318 49.0873 6.61532 49.4283C6.56506 49.6373 6.46281 49.8151 6.31376 49.9618C6.20284 50.0681 6.07285 50.1268 5.9238 50.136C5.76609 50.1433 5.53731 50.0828 5.45932 49.9233C5.31201 49.6282 5.75569 49.1295 5.9654 48.9352C6.27563 48.6565 6.63439 48.4897 7.03821 48.4384Z" fill="#FFCC5D"/>
<path d="M9.8945 51.4046C9.72985 51.7236 9.58947 52.0536 9.47162 52.3964C9.41962 52.6054 9.3191 52.7814 9.17005 52.9281C9.05913 53.0362 8.92915 53.0931 8.7801 53.1041C8.62238 53.1114 8.39361 53.0509 8.31562 52.8914C8.1683 52.5962 8.61025 52.0976 8.81996 51.9033C9.13192 51.6246 9.48895 51.4578 9.8945 51.4046Z" fill="#FEA41F"/>
<path d="M18.3851 48.3815C18.5255 48.7115 18.6901 49.0305 18.8773 49.3348C19.0021 49.5053 19.0766 49.6978 19.0957 49.9123C19.1095 50.07 19.0749 50.213 18.9934 50.345C18.9033 50.4825 18.7196 50.6383 18.5515 50.609C18.2395 50.554 18.132 49.8793 18.1112 49.586C18.0887 49.1552 18.1806 48.7537 18.3851 48.3815Z" fill="#FEA41F"/>
<path d="M15.437 49.4027C15.5773 49.7345 15.742 50.0517 15.9292 50.3578C16.0557 50.5265 16.1285 50.719 16.1493 50.9335C16.1614 51.0912 16.1285 51.236 16.0453 51.368C15.9552 51.5036 15.7715 51.6595 15.6033 51.6301C15.2914 51.5751 15.1839 50.9005 15.1631 50.6072C15.1406 50.1782 15.2324 49.7749 15.437 49.4027Z" fill="#FEA41F"/>
<path d="M17.3018 50.9591C17.444 51.2909 17.6069 51.6081 17.7941 51.9142C17.9206 52.0829 17.9934 52.2754 18.0142 52.4899C18.028 52.6476 17.9934 52.7924 17.9102 52.9244C17.8201 53.06 17.6363 53.2159 17.47 53.1865C17.158 53.1315 17.0488 52.4569 17.0297 52.1654C17.0072 51.7346 17.0973 51.3331 17.3018 50.9591Z" fill="#FEA41F"/>
<path d="M19.6502 51.1791C19.7924 51.5091 19.9553 51.8281 20.1424 52.1324C20.269 52.3029 20.3418 52.4936 20.3626 52.7099C20.3764 52.8658 20.3418 53.0106 20.2603 53.1426C20.1684 53.2801 19.9847 53.4359 19.8183 53.4066C19.5064 53.3497 19.3972 52.6769 19.3781 52.3836C19.3556 51.9528 19.4457 51.5513 19.6502 51.1791Z" fill="#FFCC5D"/>
<path d="M15.5756 52.4184C15.716 52.7502 15.8807 53.0674 16.0661 53.3735C16.1926 53.5422 16.2671 53.7347 16.2862 53.9492C16.3001 54.1068 16.2654 54.2517 16.184 54.3837C16.0921 54.5212 15.9101 54.677 15.742 54.6458C15.43 54.5908 15.3209 53.918 15.3018 53.6247C15.2793 53.1939 15.3711 52.7924 15.5756 52.4184Z" fill="#FFCC5D"/>
</svg>
