<svg width="78" height="85" viewBox="0 0 78 85" fill="none" xmlns="http://www.w3.org/2000/svg">
<mask id="mask0_98_235" style="mask-type:luminance" maskUnits="userSpaceOnUse" x="12" y="8" width="55" height="53">
<path d="M12.567 8.00623H67V61H12.567V8.00623Z" fill="white"/>
</mask>
<g mask="url(#mask0_98_235)">
<path d="M66.0453 53.1844C68.0232 46.0985 66.754 35.9215 60.9909 20.4973C57.3784 10.8267 45.8012 5.88068 35.553 9.66038C21.1939 14.9507 7.63879 29.3583 15.3887 39.9349C24.0223 54.3158 37.6992 60.5429 55.0063 60.8934C60.1648 60.9959 64.7518 57.8147 66.0453 53.1844Z" fill="#D91F20"/>
</g>
<mask id="mask1_98_235" style="mask-type:luminance" maskUnits="userSpaceOnUse" x="13" y="8" width="54" height="53">
<path d="M13.701 8.00623H67V61H13.701V8.00623Z" fill="white"/>
</mask>
<g mask="url(#mask1_98_235)">
<path d="M35.5531 9.66038C26.0623 13.1572 16.9215 20.6387 14.0532 28.3621C14.0532 28.3621 21.4531 30.6681 25.1299 22.1473L32.1931 26.3104C32.1931 26.3104 36.315 26.542 37.3649 26.5461C37.3649 26.5461 42.5743 22.5081 39.1368 16.734C39.1368 16.734 37.5044 14.3502 36.3172 12.8867C36.3172 12.8867 36.6694 12.778 37.2785 12.6468C44.1624 11.1649 51.2367 14.2989 54.3641 20.1776C57.5225 26.1156 63.7353 39.0269 63.6068 48.5356C63.5957 49.4641 63.6135 50.3926 63.6578 51.3212C63.7884 54.0883 62.8405 60.8114 50.5124 60.6597C51.9831 60.7848 53.4804 60.8606 55.0086 60.8914C60.1627 60.9959 64.7497 57.8147 66.0432 53.1844C68.0233 46.0985 66.7542 35.9215 60.9888 20.4973C57.3786 10.8267 45.8014 5.88068 35.5531 9.66038Z" fill="#C1111E"/>
</g>
<path d="M29.8431 48.4003C29.987 48.5048 30.1221 48.6176 30.2484 48.7385C30.3746 48.8574 30.492 48.9824 30.5961 49.1136C30.7002 49.2448 30.791 49.378 30.8685 49.5154C30.9483 49.6506 31.0125 49.788 31.0612 49.9233C31.11 50.0606 31.1432 50.1959 31.1609 50.327C31.1786 50.4582 31.1808 50.5853 31.1676 50.7083C31.152 50.8292 31.1233 50.944 31.0767 51.0506C31.0324 51.1572 30.9726 51.2556 30.8973 51.3437C30.822 51.4319 30.7357 51.5097 30.6338 51.5753C30.5319 51.643 30.4189 51.6963 30.2949 51.7373C30.1709 51.7803 30.038 51.807 29.8962 51.8234C29.7522 51.8377 29.6038 51.8397 29.4488 51.8275C29.296 51.8172 29.1365 51.7926 28.9748 51.7537C28.8153 51.7147 28.6537 51.6655 28.492 51.602C28.3303 51.5384 28.1708 51.4646 28.0158 51.3786C27.8585 51.2925 27.7101 51.1982 27.5662 51.0936C27.42 50.9871 27.2849 50.8743 27.1586 50.7554C27.0324 50.6345 26.9172 50.5095 26.8131 50.3783C26.7068 50.2471 26.616 50.1139 26.5384 49.9786C26.4609 49.8413 26.3967 49.706 26.348 49.5686C26.2992 49.4313 26.266 49.2981 26.2461 49.1649C26.2284 49.0337 26.2284 48.9066 26.2417 48.7857C26.2549 48.6627 26.2859 48.5479 26.3302 48.4413C26.3745 48.3347 26.4343 48.2363 26.5097 48.1482C26.585 48.06 26.6736 47.9822 26.7754 47.9166C26.8751 47.851 26.9881 47.7956 27.1121 47.7546C27.2361 47.7136 27.3712 47.6849 27.513 47.6685C27.6547 47.6542 27.8031 47.6521 27.9582 47.6644C28.1132 47.6767 28.2705 47.7013 28.4322 47.7382C28.5939 47.7772 28.7555 47.8284 28.9172 47.8899C29.0789 47.9535 29.2362 48.0293 29.3934 48.1133C29.5485 48.1994 29.6991 48.2958 29.8431 48.4003Z" fill="#E14D4D"/>
<path d="M15.3733 35.0402C16.39 37.6905 18.3856 41.8473 21.9272 45.6414C22.7489 46.5228 24.2927 45.7828 24.0003 44.6493C23.2162 41.6239 22.3502 37.5941 22.6049 35.4071C22.7068 34.5667 22.6027 33.7509 22.2882 32.9576C21.7345 31.5782 20.5982 29.9056 18.39 30.2356C15.9935 30.5963 14.5605 32.9166 15.3733 35.0402Z" fill="#E14D4D"/>
<path d="M16.7199 31.3999C16.7443 31.5351 16.7487 31.6704 16.7332 31.8016C16.7177 31.9348 16.6823 32.0537 16.6291 32.1603C16.576 32.2669 16.5095 32.355 16.4276 32.4206C16.3456 32.4862 16.257 32.5272 16.1574 32.5416C16.0599 32.5559 15.9602 32.5436 15.8606 32.5047C15.7609 32.4657 15.6679 32.4022 15.5815 32.3161C15.4951 32.23 15.422 32.1275 15.3622 32.0066C15.3046 31.8856 15.2626 31.7565 15.2382 31.6192C15.2138 31.4839 15.2116 31.3486 15.2271 31.2174C15.2426 31.0842 15.2758 30.9653 15.329 30.8587C15.3822 30.7501 15.4486 30.664 15.5306 30.5984C15.6125 30.5328 15.7033 30.4918 15.8008 30.4775C15.9004 30.4631 15.9979 30.4754 16.0976 30.5144C16.1995 30.5533 16.2925 30.6148 16.3766 30.7029C16.463 30.789 16.5361 30.8915 16.5959 31.0125C16.6557 31.1334 16.6978 31.2625 16.7199 31.3999Z" fill="#BA1313"/>
<path d="M23.2205 29.182C23.2848 29.3071 23.3291 29.4341 23.3534 29.5653C23.3778 29.6965 23.3822 29.8195 23.3645 29.9363C23.3446 30.0532 23.3069 30.1536 23.2493 30.2376C23.1895 30.3217 23.1164 30.3832 23.0256 30.4242C22.937 30.4631 22.8373 30.4775 22.7288 30.4672C22.6225 30.4549 22.514 30.4201 22.4054 30.3586C22.2969 30.2991 22.195 30.2171 22.102 30.1188C22.0068 30.0183 21.9292 29.9056 21.865 29.7785C21.8008 29.6535 21.7565 29.5264 21.7321 29.3952C21.7055 29.264 21.7033 29.141 21.721 29.0242C21.7388 28.9074 21.7786 28.8069 21.8362 28.7229C21.8938 28.6388 21.9691 28.5774 22.0599 28.5364C22.1485 28.4974 22.2482 28.4831 22.3545 28.4933C22.463 28.5056 22.5716 28.5405 22.6801 28.602C22.7886 28.6614 22.8905 28.7434 22.9835 28.8418C23.0766 28.9422 23.1563 29.0549 23.2205 29.182Z" fill="#BA1313"/>
<path d="M31.6792 25.2445C31.7634 25.3593 31.8276 25.4802 31.8741 25.6053C31.9184 25.7323 31.9406 25.8533 31.9428 25.9722C31.9428 26.089 31.9206 26.1935 31.8763 26.2858C31.832 26.378 31.7678 26.4497 31.6859 26.501C31.6017 26.5522 31.5065 26.5789 31.3979 26.583C31.2916 26.5871 31.1787 26.5666 31.0613 26.5215C30.9439 26.4764 30.8309 26.4108 30.7224 26.3247C30.6139 26.2366 30.5164 26.1361 30.4345 26.0214C30.3503 25.9066 30.2861 25.7856 30.2418 25.6606C30.1952 25.5335 30.1731 25.4126 30.1731 25.2957C30.1731 25.1769 30.1952 25.0723 30.2395 24.9801C30.2838 24.8899 30.3459 24.8182 30.43 24.7669C30.512 24.7136 30.6072 24.687 30.7157 24.6829C30.8243 24.6808 30.9372 24.7013 31.0546 24.7444C31.172 24.7895 31.285 24.8551 31.3935 24.9432C31.502 25.0293 31.5973 25.1297 31.6792 25.2445Z" fill="#BA1313"/>
<path d="M40.8665 19.0297C40.9573 19.1403 41.0282 19.2572 41.0814 19.3802C41.1345 19.5032 41.1655 19.6241 41.1722 19.7409C41.181 19.8578 41.1655 19.9643 41.1257 20.0586C41.088 20.1509 41.0282 20.2267 40.9507 20.282C40.871 20.3394 40.7779 20.3702 40.6694 20.3804C40.5609 20.3907 40.4479 20.3763 40.3283 20.3374C40.2087 20.2984 40.0913 20.239 39.9784 20.1591C39.8632 20.0791 39.7613 19.9828 39.6705 19.8721C39.5797 19.7614 39.5088 19.6446 39.4557 19.5216C39.4025 19.3986 39.3715 19.2777 39.3648 19.1608C39.356 19.044 39.3715 18.9374 39.4114 18.8431C39.449 18.7509 39.5088 18.6751 39.5863 18.6197C39.6661 18.5644 39.7591 18.5316 39.8676 18.5213C39.9762 18.5111 40.0891 18.5254 40.2087 18.5644C40.3283 18.6033 40.4457 18.6628 40.5609 18.7427C40.6738 18.8247 40.7757 18.919 40.8665 19.0297Z" fill="#BA1313"/>
<path d="M49.0241 17.9782C49.1415 18.0623 49.2434 18.1586 49.3275 18.2672C49.4139 18.3738 49.4759 18.4825 49.5158 18.5952C49.5557 18.7059 49.569 18.8125 49.5579 18.9108C49.5446 19.0113 49.5092 19.0974 49.4471 19.1712C49.3851 19.2429 49.3032 19.2962 49.2013 19.331C49.0994 19.3659 48.9864 19.3782 48.8602 19.37C48.7339 19.3597 48.6033 19.329 48.4726 19.2778C48.3397 19.2265 48.2157 19.1589 48.0983 19.0728C47.9809 18.9887 47.879 18.8924 47.7948 18.7858C47.7084 18.6772 47.6464 18.5685 47.6066 18.4579C47.5689 18.3451 47.5534 18.2385 47.5667 18.1401C47.5778 18.0397 47.6154 17.9536 47.6752 17.8798C47.7372 17.8081 47.8192 17.7548 47.9211 17.72C48.023 17.6851 48.1359 17.6728 48.2622 17.6831C48.3884 17.6913 48.5191 17.722 48.6498 17.7732C48.7827 17.8245 48.9067 17.8921 49.0241 17.9782Z" fill="#BA1313"/>
<path d="M40.3393 27.0565C40.4169 27.1774 40.4767 27.3004 40.5143 27.4295C40.5542 27.5566 40.5697 27.6796 40.5653 27.7985C40.5586 27.9173 40.532 28.0219 40.4811 28.11C40.4324 28.2002 40.3659 28.2699 40.2795 28.317C40.1932 28.3662 40.0979 28.3888 39.9872 28.3888C39.8787 28.3867 39.7679 28.3621 39.6527 28.3109C39.5353 28.2617 39.4268 28.19 39.3227 28.0977C39.2164 28.0055 39.1256 27.9009 39.0481 27.7821C38.9706 27.6632 38.913 27.5381 38.8731 27.4111C38.8354 27.2819 38.8177 27.1589 38.8244 27.0401C38.8288 26.9212 38.8576 26.8187 38.9063 26.7285C38.955 26.6383 39.0237 26.5686 39.1079 26.5215C39.1943 26.4723 39.2917 26.4497 39.4002 26.4518C39.5088 26.4518 39.6217 26.4784 39.7369 26.5276C39.8521 26.5789 39.9628 26.6486 40.0669 26.7408C40.171 26.833 40.2618 26.9376 40.3393 27.0565Z" fill="#BA1313"/>
<path d="M30.5673 32.3017C30.6448 32.4206 30.7024 32.5436 30.7401 32.6706C30.78 32.7998 30.7955 32.9228 30.791 33.0396C30.7844 33.1564 30.7578 33.261 30.7091 33.3491C30.6581 33.4393 30.5917 33.509 30.5075 33.5561C30.4211 33.6033 30.3237 33.6279 30.2174 33.6258C30.1088 33.6238 29.9959 33.5992 29.8807 33.5479C29.7678 33.4987 29.657 33.429 29.5529 33.3368C29.4488 33.2466 29.358 33.14 29.2827 33.0211C29.2052 32.9043 29.1476 32.7813 29.1077 32.6522C29.0701 32.5251 29.0523 32.4021 29.059 32.2853C29.0634 32.1664 29.0922 32.0639 29.1409 31.9737C29.1897 31.8835 29.2561 31.8159 29.3425 31.7688C29.4267 31.7196 29.5241 31.697 29.6326 31.697C29.7412 31.6991 29.8519 31.7257 29.9671 31.7749C30.0823 31.8241 30.1908 31.8958 30.2949 31.986C30.399 32.0783 30.4898 32.1828 30.5673 32.3017Z" fill="#BA1313"/>
<path d="M28.6006 40.4822C28.6781 40.6011 28.7357 40.7241 28.7755 40.8532C28.8132 40.9823 28.8309 41.1053 28.8243 41.2242C28.8198 41.341 28.791 41.4456 28.7423 41.5358C28.6936 41.626 28.6249 41.6956 28.5386 41.7428C28.4544 41.7899 28.3569 41.8145 28.2484 41.8125C28.1399 41.8125 28.0269 41.7858 27.9117 41.7366C27.7966 41.6854 27.6858 41.6137 27.5817 41.5235C27.4776 41.4312 27.3868 41.3267 27.3093 41.2058C27.2318 41.0869 27.172 40.9639 27.1343 40.8348C27.0944 40.7077 27.0789 40.5826 27.0834 40.4658C27.09 40.3469 27.1166 40.2424 27.1653 40.1522C27.2163 40.062 27.2827 39.9944 27.3691 39.9452C27.4555 39.898 27.5507 39.8734 27.6615 39.8755C27.77 39.8775 27.8807 39.9021 27.9959 39.9534C28.1133 40.0026 28.2218 40.0743 28.3259 40.1665C28.4322 40.2567 28.523 40.3633 28.6006 40.4822Z" fill="#BA1313"/>
<path d="M38.5897 35.731C38.6672 35.8478 38.7248 35.9728 38.7624 36.0999C38.8023 36.227 38.8178 36.35 38.8134 36.4689C38.8067 36.5857 38.7801 36.6882 38.7292 36.7784C38.6805 36.8686 38.614 36.9362 38.5276 36.9854C38.4435 37.0325 38.346 37.0551 38.2375 37.0551C38.1312 37.053 38.0182 37.0284 37.903 36.9772C37.7901 36.928 37.6793 36.8563 37.5752 36.7661C37.4711 36.6738 37.3803 36.5693 37.305 36.4504C37.2275 36.3315 37.1699 36.2085 37.1301 36.0815C37.0924 35.9523 37.0747 35.8314 37.0813 35.7125C37.0858 35.5957 37.1146 35.4911 37.1633 35.403C37.212 35.3128 37.2785 35.2431 37.3648 35.196C37.449 35.1488 37.5465 35.1263 37.655 35.1263C37.7635 35.1283 37.8743 35.1529 37.9894 35.2042C38.1046 35.2534 38.2131 35.3251 38.3172 35.4153C38.4213 35.5075 38.5121 35.6121 38.5897 35.731Z" fill="#BA1313"/>
<path d="M49.8679 28.0342C49.9742 28.1305 50.065 28.2351 50.1381 28.3498C50.2112 28.4626 50.2622 28.5774 50.2887 28.6922C50.3175 28.8069 50.3197 28.9135 50.2976 29.0119C50.2754 29.1103 50.2289 29.1943 50.1603 29.2599C50.0916 29.3276 50.0052 29.3727 49.8989 29.3973C49.7948 29.4219 49.6796 29.4239 49.5556 29.4034C49.4294 29.3829 49.3053 29.3419 49.1791 29.2784C49.0528 29.2148 48.9354 29.1369 48.8291 29.0406C48.7206 28.9443 48.6298 28.8397 48.5567 28.7249C48.4836 28.6122 48.4327 28.4974 48.4061 28.3826C48.3773 28.2679 48.3751 28.1613 48.3972 28.0629C48.4216 27.9645 48.4659 27.8805 48.5345 27.8149C48.6032 27.7472 48.6918 27.7021 48.7959 27.6775C48.9 27.6529 49.0152 27.6509 49.1414 27.6714C49.2655 27.6919 49.3917 27.7329 49.5157 27.7964C49.642 27.86 49.7594 27.9378 49.8679 28.0342Z" fill="#BA1313"/>
<path d="M58.59 21.9506C58.6985 22.0469 58.7894 22.1514 58.8624 22.2662C58.9355 22.381 58.9843 22.4958 59.0131 22.6106C59.0396 22.7254 59.0419 22.832 59.0197 22.9303C58.9976 23.0287 58.9533 23.1107 58.8846 23.1763C58.8137 23.2439 58.7273 23.289 58.6232 23.3157C58.5191 23.3403 58.404 23.3423 58.2777 23.3218C58.1537 23.3013 58.0274 23.2583 57.9012 23.1948C57.7772 23.1333 57.6598 23.0533 57.5512 22.957C57.4427 22.8606 57.3541 22.7561 57.281 22.6434C57.2057 22.5286 57.157 22.4138 57.1282 22.299C57.1016 22.1842 57.0994 22.0777 57.1215 21.9793C57.1437 21.8809 57.1902 21.7989 57.2589 21.7312C57.3275 21.6657 57.4139 21.6185 57.518 21.5939C57.6243 21.5693 57.7395 21.5673 57.8635 21.5878C57.9876 21.6083 58.1138 21.6493 58.2401 21.7128C58.3663 21.7763 58.4815 21.8563 58.59 21.9506Z" fill="#BA1313"/>
<path d="M60.3885 29.9773C60.4948 30.0736 60.5857 30.1782 60.6587 30.293C60.7318 30.4057 60.7828 30.5205 60.8116 30.6353C60.8381 30.7501 60.8404 30.8566 60.8182 30.955C60.7961 31.0534 60.7496 31.1354 60.6809 31.203C60.6122 31.2707 60.5258 31.3158 60.4217 31.3404C60.3154 31.365 60.2003 31.367 60.0762 31.3465C59.9522 31.326 59.8259 31.285 59.6997 31.2215C59.5734 31.1579 59.4561 31.078 59.3497 30.9837C59.2412 30.8874 59.1504 30.7828 59.0773 30.6681C59.0042 30.5533 58.9533 30.4405 58.9267 30.3258C58.9001 30.2089 58.8957 30.1023 58.9201 30.0039C58.9422 29.9076 58.9865 29.8236 59.0552 29.758C59.1238 29.6903 59.2124 29.6452 59.3165 29.6206C59.4206 29.594 59.5358 29.592 59.662 29.6145C59.7861 29.635 59.9123 29.676 60.0386 29.7395C60.1626 29.801 60.28 29.881 60.3885 29.9773Z" fill="#BA1313"/>
<path d="M48.8578 37.4302C48.942 37.545 49.0062 37.6638 49.0527 37.7909C49.0992 37.916 49.1214 38.0369 49.1236 38.1558C49.1236 38.2726 49.1037 38.3772 49.0594 38.4694C49.0151 38.5616 48.9531 38.6334 48.8689 38.6846C48.7869 38.7379 48.6917 38.7666 48.5832 38.7707C48.4769 38.7748 48.3639 38.7543 48.2465 38.7092C48.1291 38.6662 48.014 38.6006 47.9054 38.5145C47.7969 38.4284 47.6994 38.328 47.6153 38.2132C47.5333 38.0984 47.4669 37.9795 47.4204 37.8524C47.3761 37.7274 47.3517 37.6065 47.3495 37.4876C47.3495 37.3707 47.3716 37.2662 47.4137 37.174C47.458 37.0817 47.5222 37.01 47.6042 36.9587C47.6861 36.9054 47.7814 36.8788 47.8899 36.8747C47.9984 36.8706 48.1114 36.889 48.2288 36.9341C48.3462 36.9772 48.4591 37.0428 48.5677 37.1289C48.6762 37.215 48.7737 37.3154 48.8578 37.4302Z" fill="#BA1313"/>
<path d="M36.7225 43.5957C36.8 43.7146 36.8576 43.8376 36.8952 43.9647C36.9351 44.0938 36.9506 44.2168 36.9462 44.3336C36.9395 44.4505 36.913 44.555 36.8642 44.6452C36.8155 44.7333 36.7468 44.803 36.6627 44.8502C36.5763 44.8973 36.4811 44.9219 36.3725 44.9199C36.264 44.9199 36.151 44.8932 36.0381 44.844C35.9229 44.7928 35.8122 44.7231 35.7081 44.6308C35.6062 44.5407 35.5154 44.4341 35.4378 44.3172C35.3603 44.1984 35.3027 44.0754 35.2629 43.9462C35.2252 43.8192 35.2075 43.6962 35.2141 43.5793C35.2186 43.4604 35.2474 43.358 35.2961 43.2678C35.3448 43.1776 35.4135 43.1099 35.4976 43.0628C35.584 43.0136 35.6793 42.9911 35.7878 42.9931C35.8963 42.9931 36.0071 43.0198 36.1222 43.0689C36.2374 43.1202 36.3459 43.1899 36.45 43.2821C36.5541 43.3723 36.645 43.4768 36.7225 43.5957Z" fill="#BA1313"/>
<path d="M26.7466 47.7874C26.8241 47.9063 26.8817 48.0293 26.9216 48.1564C26.9592 48.2855 26.977 48.4085 26.9703 48.5253C26.9637 48.6422 26.9371 48.7467 26.8884 48.8369C26.8396 48.925 26.771 48.9947 26.6868 49.0419C26.6004 49.089 26.5052 49.1136 26.3967 49.1116C26.2881 49.1116 26.1774 49.0849 26.0622 49.0357C25.947 48.9845 25.8385 48.9148 25.7344 48.8226C25.6303 48.7324 25.5395 48.6258 25.462 48.5089C25.3845 48.3901 25.3269 48.2671 25.287 48.1379C25.2494 48.0109 25.2339 47.8879 25.2383 47.771C25.2449 47.6522 25.2715 47.5497 25.3202 47.4595C25.369 47.3693 25.4376 47.3017 25.5218 47.2545C25.6082 47.2053 25.7034 47.1828 25.8119 47.1848C25.9205 47.1848 26.0312 47.2115 26.1464 47.2607C26.2616 47.3119 26.3723 47.3816 26.4742 47.4738C26.5783 47.564 26.6691 47.6686 26.7466 47.7874Z" fill="#BA1313"/>
<path d="M34.2219 50.6755C34.3127 50.7862 34.3836 50.903 34.4367 51.026C34.4899 51.149 34.5209 51.2699 34.5275 51.3867C34.5364 51.5036 34.5209 51.6102 34.4832 51.7045C34.4434 51.7987 34.3858 51.8725 34.306 51.9279C34.2263 51.9853 34.1333 52.0181 34.0248 52.0263C33.9184 52.0365 33.8033 52.0222 33.6837 51.9832C33.5641 51.9443 33.4467 51.8848 33.3337 51.8049C33.2185 51.7249 33.1167 51.6286 33.0258 51.5179C32.9372 51.4093 32.8642 51.2925 32.811 51.1695C32.7578 51.0444 32.7268 50.9256 32.7202 50.8067C32.7113 50.6898 32.7268 50.5832 32.7667 50.491C32.8044 50.3967 32.8642 50.3209 32.9439 50.2655C33.0214 50.2102 33.1167 50.1774 33.223 50.1672C33.3315 50.159 33.4445 50.1733 33.5641 50.2102C33.6859 50.2491 33.8011 50.3086 33.9162 50.3885C34.0292 50.4705 34.1311 50.5648 34.2219 50.6755Z" fill="#BA1313"/>
<path d="M45.0328 45.6721C45.1236 45.7808 45.1945 45.8976 45.2476 46.0206C45.3008 46.1456 45.3318 46.2645 45.3407 46.3834C45.3473 46.5002 45.3318 46.6068 45.2942 46.699C45.2543 46.7933 45.1967 46.8692 45.117 46.9245C45.0372 46.9798 44.9442 47.0126 44.8357 47.0229C44.7294 47.0311 44.6142 47.0167 44.4946 46.9798C44.375 46.9409 44.2576 46.8815 44.1446 46.8015C44.0295 46.7195 43.9276 46.6252 43.8368 46.5146C43.7482 46.4039 43.6751 46.287 43.6219 46.1641C43.5688 46.0411 43.54 45.9201 43.5311 45.8033C43.5222 45.6844 43.5377 45.5799 43.5776 45.4856C43.6153 45.3913 43.6751 45.3175 43.7548 45.2622C43.8323 45.2048 43.9276 45.172 44.0339 45.1638C44.1424 45.1535 44.2554 45.1679 44.375 45.2068C44.4968 45.2458 44.612 45.3052 44.7271 45.3852C44.8401 45.4651 44.942 45.5614 45.0328 45.6721Z" fill="#BA1313"/>
<path d="M59.1261 37.0387C59.2169 37.1494 59.2877 37.2662 59.3409 37.3892C59.3941 37.5122 59.4251 37.6331 59.4339 37.7499C59.4406 37.8668 59.4251 37.9734 59.3874 38.0676C59.3475 38.1599 59.29 38.2357 59.2102 38.2911C59.1305 38.3485 59.0375 38.3813 58.9289 38.3895C58.8226 38.3997 58.7074 38.3854 58.5878 38.3464C58.4682 38.3075 58.3508 38.248 58.2379 38.1681C58.1227 38.0881 58.0208 37.9918 57.9322 37.8811C57.8414 37.7704 57.7683 37.6556 57.7152 37.5306C57.662 37.4076 57.6332 37.2887 57.6244 37.1699C57.6155 37.053 57.631 36.9464 57.6709 36.8522C57.7085 36.7599 57.7683 36.6841 57.8481 36.6287C57.9256 36.5734 58.0208 36.5406 58.1271 36.5303C58.2357 36.5201 58.3486 36.5365 58.4705 36.5734C58.5901 36.6123 58.7052 36.6718 58.8204 36.7517C58.9334 36.8337 59.0352 36.928 59.1261 37.0387Z" fill="#BA1313"/>
<path d="M56.5369 46.6744C56.6277 46.7851 56.6986 46.902 56.7517 47.025C56.8049 47.1479 56.8359 47.2689 56.8447 47.3857C56.8514 47.5046 56.8359 47.6091 56.7982 47.7034C56.7606 47.7977 56.7008 47.8715 56.621 47.9268C56.5413 47.9842 56.4483 48.017 56.342 48.0252C56.2334 48.0355 56.1183 48.0211 55.9987 47.9822C55.8791 47.9432 55.7617 47.8838 55.6487 47.8039C55.5358 47.7239 55.4339 47.6276 55.3431 47.5169C55.2522 47.4083 55.1814 47.2914 55.1282 47.1684C55.0751 47.0434 55.044 46.9245 55.0352 46.8056C55.0285 46.6888 55.044 46.5822 55.0817 46.49C55.1194 46.3957 55.1792 46.3198 55.2589 46.2645C55.3386 46.2092 55.4317 46.1764 55.5402 46.1661C55.6465 46.1579 55.7617 46.1723 55.8813 46.2092C56.0009 46.2481 56.1183 46.3075 56.2312 46.3875C56.3442 46.4695 56.4461 46.5638 56.5369 46.6744Z" fill="#BA1313"/>
<path d="M62.8183 55.2423C62.9069 55.353 62.98 55.4698 63.0332 55.5928C63.0863 55.7178 63.1173 55.8367 63.124 55.9556C63.1328 56.0724 63.1173 56.177 63.0775 56.2712C63.0398 56.3655 62.98 56.4414 62.9025 56.4967C62.8228 56.5521 62.7297 56.5848 62.6212 56.5951C62.5127 56.6033 62.3997 56.5889 62.2801 56.5521C62.1605 56.5131 62.0431 56.4537 61.9279 56.3717C61.815 56.2917 61.7131 56.1974 61.6223 56.0868C61.5315 55.9761 61.4606 55.8592 61.4074 55.7363C61.3543 55.6133 61.3233 55.4923 61.3166 55.3755C61.3078 55.2566 61.3233 55.1521 61.3609 55.0578C61.4008 54.9635 61.4584 54.8897 61.5381 54.8323C61.6179 54.777 61.7109 54.7442 61.8194 54.736C61.9279 54.7257 62.0409 54.7401 62.1605 54.779C62.2801 54.818 62.3975 54.8774 62.5105 54.9574C62.6256 55.0373 62.7275 55.1336 62.8183 55.2423Z" fill="#BA1313"/>
<path d="M43.6064 54.1682C43.6839 54.2871 43.7415 54.4101 43.7791 54.5372C43.819 54.6663 43.8345 54.7893 43.8301 54.9061C43.8234 55.023 43.7969 55.1275 43.7481 55.2177C43.6972 55.3058 43.6307 55.3755 43.5466 55.4227C43.4602 55.4698 43.3627 55.4944 43.2564 55.4924C43.1479 55.4924 43.0349 55.4657 42.922 55.4165C42.8068 55.3653 42.6961 55.2956 42.592 55.2034C42.4879 55.1132 42.3993 55.0066 42.3218 54.8897C42.2442 54.7709 42.1866 54.6479 42.1468 54.5187C42.1091 54.3917 42.0914 54.2687 42.0981 54.1518C42.1025 54.033 42.1313 53.9305 42.18 53.8403C42.2287 53.7501 42.2952 53.6825 42.3816 53.6353C42.4657 53.5861 42.5632 53.5636 42.6717 53.5656C42.7802 53.5656 42.891 53.5923 43.0062 53.6415C43.1213 53.6927 43.2299 53.7624 43.334 53.8546C43.4381 53.9448 43.5289 54.0494 43.6064 54.1682Z" fill="#BA1313"/>
<path d="M52.1425 55.3592C52.22 55.4781 52.2776 55.6011 52.3153 55.7281C52.3551 55.8552 52.3707 55.9782 52.3662 56.0971C52.3596 56.2139 52.333 56.3185 52.2843 56.4066C52.2333 56.4968 52.1669 56.5644 52.0827 56.6136C51.9963 56.6608 51.9011 56.6833 51.7926 56.6833C51.684 56.6813 51.5711 56.6567 51.4581 56.6054C51.3429 56.5562 51.2322 56.4845 51.1281 56.3943C51.0262 56.3021 50.9354 56.1975 50.8579 56.0786C50.7804 55.9598 50.7228 55.8368 50.6829 55.7097C50.6453 55.5826 50.6275 55.4596 50.6342 55.3407C50.6386 55.2239 50.6674 55.1194 50.7161 55.0312C50.7649 54.941 50.8335 54.8734 50.9177 54.8242C51.0019 54.7771 51.0993 54.7545 51.2078 54.7545C51.3164 54.7566 51.4271 54.7812 51.5423 54.8324C51.6575 54.8816 51.766 54.9533 51.8701 55.0435C51.9742 55.1358 52.065 55.2403 52.1425 55.3592Z" fill="#BA1313"/>
<path d="M66.3267 45.6106C66.4042 45.7295 66.4618 45.8525 66.5017 45.9816C66.5393 46.1087 66.557 46.2317 66.5504 46.3485C66.546 46.4674 66.5172 46.5699 66.4684 46.6601C66.4197 46.7503 66.3511 46.8179 66.2669 46.865C66.1805 46.9142 66.0853 46.9368 65.9767 46.9347C65.8682 46.9347 65.7575 46.9081 65.6423 46.8589C65.5271 46.8097 65.4186 46.738 65.3145 46.6478C65.2104 46.5555 65.1196 46.451 65.0421 46.3321C64.9645 46.2132 64.907 46.0902 64.8693 45.9632C64.8294 45.834 64.8139 45.7111 64.8184 45.5942C64.825 45.4774 64.8516 45.3728 64.9003 45.2827C64.949 45.1945 65.0177 45.1248 65.1019 45.0777C65.1882 45.0305 65.2835 45.0059 65.392 45.008C65.5005 45.01 65.6135 45.0346 65.7265 45.0838C65.8416 45.1351 65.9524 45.2048 66.0565 45.297C66.1584 45.3872 66.2492 45.4938 66.3267 45.6106Z" fill="#BA1313"/>
<path d="M22.1907 35.9113C22.2461 36.0404 22.2815 36.1696 22.297 36.3028C22.3125 36.434 22.3059 36.557 22.2793 36.6738C22.2527 36.7886 22.2084 36.887 22.1442 36.9669C22.08 37.0469 22.0002 37.1042 21.9094 37.1391C21.8164 37.1739 21.7167 37.1821 21.6104 37.1637C21.5041 37.1452 21.3978 37.1042 21.2937 37.0366C21.1896 36.971 21.0943 36.8829 21.0079 36.7783C20.9216 36.6718 20.8507 36.5549 20.7953 36.4258C20.7399 36.2966 20.7045 36.1675 20.689 36.0343C20.6735 35.9031 20.6801 35.7801 20.7045 35.6633C20.7311 35.5485 20.7776 35.4501 20.8418 35.3702C20.9061 35.2902 20.9836 35.2328 21.0766 35.198C21.1696 35.1631 21.2693 35.1549 21.3756 35.1734C21.4819 35.1918 21.5882 35.2328 21.6923 35.3005C21.7964 35.3661 21.8917 35.4542 21.9781 35.5587C22.0644 35.6653 22.1353 35.7822 22.1907 35.9113Z" fill="#BA1313"/>
<path d="M21.112 43.2452C21.1961 43.36 21.2604 43.4809 21.3069 43.606C21.3534 43.733 21.3755 43.854 21.3778 43.9708C21.3778 44.0897 21.3578 44.1942 21.3135 44.2865C21.2692 44.3787 21.2072 44.4504 21.123 44.5017C21.0411 44.5529 20.9459 44.5816 20.8373 44.5857C20.731 44.5898 20.6181 44.5693 20.5007 44.5263C20.3811 44.4812 20.2681 44.4156 20.1596 44.3295C20.051 44.2455 19.9536 44.145 19.8694 44.0302C19.7853 43.9155 19.721 43.7945 19.6745 43.6695C19.628 43.5445 19.6059 43.4215 19.6036 43.3046C19.6036 43.1858 19.6236 43.0812 19.6679 42.989C19.7122 42.8988 19.7764 42.8271 19.8583 42.7738C19.9403 42.7225 20.0355 42.6938 20.1441 42.6897C20.2526 42.6856 20.3656 42.7061 20.4829 42.7492C20.6003 42.7943 20.7133 42.8598 20.8218 42.9459C20.9304 43.032 21.0278 43.1325 21.112 43.2452Z" fill="#BA1313"/>
<path d="M48.6386 11.3022C48.7648 11.376 48.8756 11.4621 48.973 11.5584C49.0683 11.6568 49.1436 11.7593 49.1945 11.8679C49.2455 11.9745 49.2721 12.079 49.2721 12.1795C49.2698 12.2799 49.2433 12.3701 49.1901 12.448C49.1369 12.5259 49.0616 12.5874 48.9642 12.6304C48.8689 12.6755 48.756 12.6981 48.6297 12.7022C48.5013 12.7042 48.3706 12.6858 48.2333 12.6489C48.0959 12.6099 47.9653 12.5546 47.839 12.4808C47.7128 12.407 47.5998 12.3209 47.5046 12.2225C47.4071 12.1241 47.334 12.0216 47.2809 11.913C47.2299 11.8064 47.2056 11.7019 47.2056 11.6015C47.2056 11.501 47.2321 11.4129 47.2853 11.335C47.3385 11.255 47.4138 11.1956 47.5112 11.1505C47.6087 11.1075 47.7216 11.0829 47.8479 11.0808C47.9741 11.0767 48.107 11.0952 48.2443 11.1341C48.3795 11.171 48.5123 11.2284 48.6386 11.3022Z" fill="#BA1313"/>
<path d="M25.9936 22.6515C26.0579 22.7766 26.1022 22.9057 26.1265 23.0348C26.1509 23.166 26.1553 23.291 26.1354 23.4058C26.1177 23.5227 26.08 23.6231 26.0224 23.7071C25.9626 23.7932 25.8895 23.8547 25.7987 23.8937C25.7079 23.9347 25.6105 23.949 25.5019 23.9367C25.3956 23.9265 25.2871 23.8896 25.1786 23.8301C25.0678 23.7686 24.9682 23.6887 24.8729 23.5883C24.7799 23.4878 24.7024 23.3751 24.6381 23.2501C24.5739 23.125 24.5296 22.9979 24.503 22.8668C24.4787 22.7356 24.4765 22.6126 24.4942 22.4958C24.5119 22.3789 24.5495 22.2785 24.6093 22.1944C24.6669 22.1104 24.7422 22.0469 24.8308 22.0079C24.9216 21.969 25.0213 21.9546 25.1276 21.9649C25.2362 21.9772 25.3447 22.012 25.4532 22.0715C25.5617 22.133 25.6636 22.2129 25.7567 22.3133C25.8497 22.4138 25.9294 22.5265 25.9936 22.6515Z" fill="#BA1313"/>
<path d="M39.3626 12.4296C39.4955 12.4951 39.6129 12.573 39.717 12.6632C39.8211 12.7555 39.903 12.8518 39.9628 12.9563C40.0226 13.0609 40.0581 13.1613 40.0647 13.2617C40.0714 13.3622 40.0514 13.4524 40.0049 13.5344C39.9584 13.6164 39.8875 13.6819 39.7945 13.7332C39.7015 13.7844 39.5907 13.8152 39.4645 13.8254C39.3382 13.8377 39.2054 13.8295 39.0658 13.8008C38.9263 13.7721 38.7912 13.725 38.6583 13.6594C38.5276 13.5938 38.408 13.5159 38.3061 13.4257C38.202 13.3335 38.1201 13.2372 38.058 13.1326C37.9982 13.0281 37.965 12.9276 37.9584 12.8272C37.9517 12.7268 37.9694 12.6366 38.0182 12.5546C38.0647 12.4726 38.1334 12.407 38.2286 12.3558C38.3216 12.3066 38.4301 12.2738 38.5564 12.2635C38.6826 12.2512 38.8177 12.2594 38.9573 12.2881C39.0968 12.3168 39.2319 12.364 39.3626 12.4296Z" fill="#BA1313"/>
<path d="M16.3699 31.4634C16.3943 31.6007 16.3965 31.734 16.381 31.8651C16.3655 31.9984 16.3323 32.1173 16.2791 32.2238C16.226 32.3325 16.1595 32.4186 16.0776 32.4842C15.9956 32.5497 15.9048 32.5907 15.8074 32.6051C15.7099 32.6194 15.6102 32.6071 15.5106 32.5682C15.4109 32.5293 15.3179 32.4678 15.2315 32.3817C15.1451 32.2935 15.072 32.191 15.0122 32.0701C14.9524 31.9492 14.9103 31.82 14.8882 31.6827C14.8638 31.5474 14.8594 31.4121 14.8749 31.281C14.8926 31.1477 14.9258 31.0288 14.979 30.9223C15.0321 30.8157 15.0986 30.7275 15.1805 30.6619C15.2625 30.5964 15.3533 30.5574 15.4508 30.541C15.5482 30.5267 15.6479 30.539 15.7476 30.5779C15.8472 30.6169 15.9402 30.6804 16.0266 30.7665C16.113 30.8526 16.1861 30.9551 16.2459 31.076C16.3057 31.1969 16.3456 31.3261 16.3699 31.4634Z" fill="#F2E861"/>
<path d="M22.8706 29.2435C22.9348 29.3685 22.9791 29.4977 23.0035 29.6289C23.0279 29.758 23.0323 29.883 23.0124 29.9999C22.9946 30.1167 22.957 30.2171 22.8972 30.3012C22.8396 30.3852 22.7643 30.4467 22.6757 30.4877C22.5849 30.5266 22.4874 30.541 22.3789 30.5307C22.2726 30.5184 22.1641 30.4836 22.0555 30.4221C21.9448 30.3627 21.8451 30.2807 21.7499 30.1802C21.6568 30.0798 21.5771 29.9671 21.5151 29.842C21.4509 29.717 21.4043 29.5899 21.38 29.4587C21.3556 29.3276 21.3534 29.2046 21.3711 29.0877C21.3888 28.9709 21.4265 28.8705 21.4863 28.7864C21.5439 28.7024 21.6192 28.6409 21.7078 28.5999C21.7986 28.561 21.896 28.5466 22.0046 28.5569C22.1131 28.5692 22.2194 28.604 22.3302 28.6655C22.4387 28.7249 22.5384 28.8049 22.6336 28.9053C22.7266 29.0057 22.8064 29.1185 22.8706 29.2435Z" fill="#F2E861"/>
<path d="M31.2296 24.9965C31.3138 25.1113 31.378 25.2322 31.4246 25.3572C31.4711 25.4823 31.4932 25.6053 31.4954 25.7221C31.4954 25.841 31.4755 25.9455 31.4312 26.0377C31.3869 26.1279 31.3249 26.2017 31.2407 26.253C31.1588 26.3042 31.0635 26.3329 30.955 26.337C30.8487 26.3411 30.7357 26.3206 30.6183 26.2776C30.501 26.2325 30.3858 26.1669 30.2772 26.0808C30.1687 25.9947 30.0713 25.8943 29.9871 25.7815C29.9051 25.6667 29.8387 25.5458 29.7922 25.4208C29.7479 25.2937 29.7235 25.1728 29.7213 25.0559C29.7213 24.937 29.7435 24.8325 29.7855 24.7403C29.8298 24.648 29.8941 24.5763 29.976 24.525C30.058 24.4738 30.1532 24.4451 30.2617 24.441C30.3703 24.4369 30.4832 24.4574 30.6006 24.5004C30.718 24.5455 30.831 24.6111 30.9395 24.6972C31.048 24.7813 31.1455 24.8817 31.2296 24.9965Z" fill="#F2E861"/>
<path d="M40.5144 19.0933C40.6052 19.2039 40.6783 19.3208 40.7315 19.4438C40.7846 19.5668 40.8134 19.6877 40.8223 19.8045C40.8311 19.9214 40.8156 20.0279 40.7758 20.1222C40.7381 20.2145 40.6783 20.2903 40.5986 20.3456C40.5211 20.403 40.4258 20.4338 40.3195 20.444C40.211 20.4543 40.098 20.4399 39.9762 20.401C39.8566 20.362 39.7414 20.3026 39.6262 20.2227C39.5133 20.1427 39.4114 20.0464 39.3206 19.9357C39.2298 19.825 39.1589 19.7102 39.1058 19.5852C39.0526 19.4622 39.0216 19.3413 39.0127 19.2244C39.0061 19.1076 39.0216 19.001 39.0592 18.9067C39.0991 18.8145 39.1567 18.7387 39.2364 18.6833C39.3162 18.628 39.4092 18.5952 39.5177 18.5849C39.624 18.5747 39.7392 18.589 39.8588 18.628C39.9784 18.6669 40.0958 18.7264 40.2088 18.8063C40.3239 18.8883 40.4258 18.9826 40.5144 19.0933Z" fill="#F2E861"/>
<path d="M48.6741 18.0417C48.7914 18.1257 48.8933 18.2221 48.9775 18.3307C49.0617 18.4373 49.1237 18.5459 49.1635 18.6587C49.2034 18.7694 49.2167 18.8759 49.2056 18.9764C49.1945 19.0748 49.1569 19.1608 49.0949 19.2346C49.0351 19.3064 48.9531 19.3597 48.8512 19.3945C48.7494 19.4294 48.6342 19.4417 48.5079 19.4335C48.3817 19.4232 48.2532 19.3925 48.1203 19.3412C47.9897 19.29 47.8634 19.2223 47.746 19.1363C47.6286 19.0522 47.529 18.9559 47.4426 18.8493C47.3584 18.7427 47.2964 18.632 47.2565 18.5213C47.2167 18.4086 47.2034 18.302 47.2144 18.2036C47.2277 18.1032 47.2632 18.0171 47.3252 17.9433C47.3872 17.8716 47.4669 17.8183 47.5688 17.7834C47.6707 17.7486 47.7859 17.7363 47.9121 17.7465C48.0384 17.7547 48.1668 17.7855 48.2997 17.8367C48.4326 17.888 48.5567 17.9556 48.6741 18.0417Z" fill="#F2E861"/>
<path d="M39.6418 27.081C39.7171 27.1999 39.7769 27.3229 39.8145 27.45C39.8544 27.5791 39.8699 27.7021 39.8633 27.8189C39.8588 27.9358 39.8323 28.0403 39.7813 28.1305C39.7326 28.2186 39.6661 28.2883 39.5798 28.3355C39.4956 28.3826 39.3981 28.4072 39.2896 28.4051C39.1811 28.4031 39.0703 28.3785 38.9552 28.3293C38.84 28.2781 38.7315 28.2084 38.6274 28.1161C38.5233 28.0259 38.4325 27.9194 38.3549 27.8025C38.2796 27.6836 38.2198 27.5607 38.1822 27.4315C38.1423 27.3044 38.1268 27.1815 38.1334 27.0646C38.1379 26.9457 38.1645 26.8433 38.2154 26.7531C38.2641 26.6629 38.3306 26.5952 38.417 26.5481C38.5011 26.4989 38.5986 26.4763 38.7071 26.4784C38.8156 26.4784 38.9264 26.505 39.0415 26.5542C39.1567 26.6055 39.2653 26.6752 39.3694 26.7674C39.4735 26.8576 39.5643 26.9621 39.6418 27.081Z" fill="#F2E861"/>
<path d="M30.5408 32.4534C30.6183 32.5723 30.6759 32.6953 30.7157 32.8244C30.7556 32.9535 30.7711 33.0765 30.7667 33.1933C30.76 33.3122 30.7335 33.4168 30.6825 33.507C30.6338 33.5971 30.5673 33.6648 30.481 33.714C30.3946 33.7611 30.2971 33.7857 30.1886 33.7837C30.0801 33.7816 29.9693 33.757 29.8519 33.7058C29.7368 33.6566 29.6282 33.5848 29.5241 33.4926C29.4178 33.4024 29.327 33.2958 29.2495 33.177C29.172 33.0581 29.1144 32.9351 29.0745 32.806C29.0369 32.6768 29.0191 32.5538 29.0258 32.4349C29.0302 32.3181 29.059 32.2136 29.1077 32.1234C29.1565 32.0332 29.2251 31.9656 29.3093 31.9164C29.3957 31.8692 29.4931 31.8446 29.6017 31.8467C29.7102 31.8467 29.8231 31.8733 29.9383 31.9246C30.0535 31.9738 30.1642 32.0455 30.2683 32.1357C30.3724 32.2279 30.4632 32.3345 30.5408 32.4534Z" fill="#F2E861"/>
<path d="M27.9073 40.4207C27.9848 40.5375 28.0424 40.6605 28.0822 40.7897C28.1199 40.9167 28.1376 41.0397 28.131 41.1566C28.1243 41.2754 28.0977 41.3779 28.049 41.4681C28.0003 41.5583 27.9316 41.6259 27.8475 41.6751C27.7611 41.7223 27.6658 41.7448 27.5573 41.7448C27.4488 41.7428 27.338 41.7161 27.2229 41.6669C27.1077 41.6178 26.9992 41.546 26.8951 41.4558C26.791 41.3636 26.7001 41.259 26.6226 41.1402C26.5451 41.0213 26.4875 40.8983 26.4499 40.7712C26.41 40.6421 26.3945 40.5191 26.3989 40.4023C26.4056 40.2854 26.4321 40.1809 26.4809 40.0928C26.5296 40.0026 26.5983 39.9329 26.6824 39.8857C26.7688 39.8386 26.8641 39.814 26.9726 39.816C27.0811 39.8181 27.1941 39.8427 27.307 39.8939C27.4222 39.9431 27.5329 40.0128 27.6348 40.105C27.7389 40.1952 27.8297 40.3018 27.9073 40.4207Z" fill="#F2E861"/>
<path d="M38.2375 35.7944C38.315 35.9133 38.3726 36.0363 38.4124 36.1634C38.4501 36.2905 38.4678 36.4134 38.4612 36.5323C38.4567 36.6492 38.4279 36.7517 38.3792 36.8418C38.3305 36.932 38.264 36.9997 38.1777 37.0489C38.0935 37.096 37.996 37.1186 37.8875 37.1186C37.779 37.1165 37.6682 37.0919 37.5531 37.0407C37.4379 36.9915 37.3294 36.9197 37.2253 36.8295C37.1212 36.7373 37.0304 36.6328 36.9528 36.5139C36.8753 36.395 36.8177 36.272 36.7801 36.1449C36.7402 36.0158 36.7247 35.8949 36.7291 35.776C36.7358 35.6591 36.7623 35.5546 36.8133 35.4665C36.862 35.3763 36.9285 35.3066 37.0148 35.2594C37.099 35.2123 37.1965 35.1898 37.305 35.1898C37.4113 35.1918 37.5243 35.2164 37.6394 35.2676C37.7524 35.3168 37.8631 35.3886 37.9672 35.4788C38.0713 35.571 38.1622 35.6755 38.2375 35.7944Z" fill="#F2E861"/>
<path d="M49.5156 28.0977C49.6241 28.1941 49.7149 28.2986 49.788 28.4134C49.8611 28.5261 49.9121 28.6409 49.9386 28.7557C49.9674 28.8705 49.9696 28.9771 49.9475 29.0754C49.9253 29.1738 49.8788 29.2579 49.8102 29.3235C49.7415 29.3911 49.6551 29.4362 49.5488 29.4608C49.4447 29.4854 49.3295 29.4874 49.2055 29.4669C49.0793 29.4464 48.9552 29.4055 48.829 29.3419C48.7027 29.2784 48.5853 29.2005 48.4768 29.1041C48.3705 29.0078 48.2797 28.9033 48.2066 28.7885C48.1335 28.6757 48.0826 28.561 48.056 28.4462C48.0272 28.3314 48.025 28.2228 48.0471 28.1264C48.0693 28.028 48.1158 27.944 48.1844 27.8784C48.2531 27.8108 48.3395 27.7657 48.4458 27.7411C48.5499 27.7165 48.6651 27.7144 48.7891 27.7349C48.9154 27.7554 49.0394 27.7964 49.1656 27.86C49.2919 27.9235 49.4093 28.0014 49.5156 28.0977Z" fill="#F2E861"/>
<path d="M58.2401 22.0141C58.3464 22.1104 58.4372 22.215 58.5103 22.3298C58.5834 22.4425 58.6343 22.5573 58.6631 22.6721C58.6897 22.7889 58.6919 22.8955 58.6698 22.9918C58.6476 23.0902 58.6011 23.1743 58.5325 23.2398C58.4638 23.3075 58.3774 23.3526 58.2733 23.3772C58.167 23.4018 58.0518 23.4059 57.9278 23.3833C57.8038 23.3628 57.6775 23.3218 57.5513 23.2583C57.425 23.1948 57.3098 23.1169 57.2013 23.0205C57.0928 22.9242 57.002 22.8197 56.9289 22.7049C56.8558 22.5921 56.8048 22.4773 56.7783 22.3626C56.7517 22.2478 56.7473 22.1412 56.7716 22.0428C56.7938 21.9444 56.8381 21.8604 56.9067 21.7948C56.9754 21.7271 57.064 21.6821 57.1681 21.6575C57.2722 21.6329 57.3874 21.6308 57.5136 21.6513C57.6376 21.6718 57.7639 21.7128 57.8901 21.7763C58.0142 21.8399 58.1316 21.9178 58.2401 22.0141Z" fill="#F2E861"/>
<path d="M60.0365 30.0409C60.145 30.1372 60.2358 30.2417 60.3089 30.3565C60.382 30.4693 60.4329 30.5841 60.4595 30.6988C60.4883 30.8136 60.4905 30.9202 60.4684 31.0186C60.4462 31.117 60.3997 31.199 60.331 31.2666C60.2624 31.3322 60.176 31.3793 60.0697 31.4039C59.9656 31.4285 59.8504 31.4306 59.7264 31.4101C59.6001 31.3896 59.4761 31.3486 59.3499 31.2851C59.2236 31.2215 59.1062 31.1416 58.9977 31.0473C58.8914 30.951 58.8006 30.8464 58.7275 30.7316C58.6544 30.6168 58.6034 30.5041 58.5769 30.3873C58.5481 30.2725 58.5459 30.1659 58.568 30.0675C58.5901 29.9691 58.6367 29.8871 58.7053 29.8216C58.774 29.7539 58.8604 29.7088 58.9667 29.6842C59.0708 29.6576 59.186 29.6555 59.31 29.676C59.4362 29.6965 59.5603 29.7396 59.6865 29.8031C59.8128 29.8646 59.9302 29.9445 60.0365 30.0409Z" fill="#F2E861"/>
<path d="M48.5058 37.4937C48.5899 37.6084 48.6564 37.7294 48.7007 37.8544C48.7472 37.9794 48.7716 38.1024 48.7716 38.2193C48.7738 38.3361 48.7516 38.4427 48.7096 38.5329C48.6653 38.6251 48.601 38.6968 48.5191 38.7501C48.4371 38.8014 48.3419 38.8301 48.2334 38.8342C48.1248 38.8383 48.0119 38.8178 47.8945 38.7727C47.7771 38.7296 47.6641 38.6641 47.5556 38.578C47.4449 38.4919 47.3496 38.3914 47.2654 38.2767C47.1813 38.1619 47.1171 38.043 47.0705 37.9159C47.024 37.7909 46.9997 37.6699 46.9997 37.551C46.9974 37.4342 47.0196 37.3297 47.0639 37.2374C47.1082 37.1452 47.1702 37.0735 47.2522 37.0222C47.3363 36.9689 47.4316 36.9423 47.5379 36.9382C47.6464 36.9341 47.7594 36.9525 47.8768 36.9976C47.9941 37.0427 48.1071 37.1063 48.2178 37.1923C48.3264 37.2784 48.4238 37.3789 48.5058 37.4937Z" fill="#F2E861"/>
<path d="M36.3725 43.6593C36.45 43.7782 36.5076 43.9011 36.5453 44.0282C36.5851 44.1574 36.6006 44.2803 36.5962 44.3972C36.5896 44.514 36.563 44.6185 36.512 44.7087C36.4633 44.7969 36.3969 44.8666 36.3105 44.9137C36.2263 44.9608 36.1289 44.9854 36.0203 44.9834C35.914 44.9834 35.8011 44.9567 35.6859 44.9076C35.5729 44.8563 35.4622 44.7866 35.3581 44.6944C35.254 44.6042 35.1632 44.4976 35.0879 44.3808C35.0103 44.2619 34.9528 44.1389 34.9129 44.0098C34.8752 43.8827 34.8575 43.7597 34.8642 43.6429C34.8686 43.524 34.8974 43.4215 34.9461 43.3313C34.9948 43.2411 35.0613 43.1735 35.1477 43.1263C35.2318 43.0771 35.3293 43.0546 35.4378 43.0566C35.5463 43.0566 35.6571 43.0833 35.7723 43.1325C35.8874 43.1837 35.996 43.2534 36.1001 43.3457C36.2042 43.4358 36.295 43.5404 36.3725 43.6593Z" fill="#F2E861"/>
<path d="M26.3967 47.851C26.472 47.9699 26.5318 48.0929 26.5694 48.22C26.6071 48.3491 26.6248 48.47 26.6181 48.5889C26.6137 48.7057 26.5849 48.8103 26.5362 48.8984C26.4875 48.9886 26.421 49.0583 26.3346 49.1054C26.2505 49.1526 26.153 49.1772 26.0445 49.1751C25.936 49.1731 25.8252 49.1485 25.71 49.0972C25.5949 49.0481 25.4863 48.9763 25.3822 48.8861C25.2781 48.7939 25.1873 48.6893 25.1098 48.5705C25.0345 48.4536 24.9747 48.3286 24.9371 48.2015C24.8972 48.0744 24.8817 47.9514 24.8861 47.8326C24.8928 47.7157 24.9193 47.6132 24.9703 47.5231C25.019 47.4329 25.0854 47.3652 25.1718 47.316C25.256 47.2689 25.3534 47.2463 25.462 47.2463C25.5683 47.2484 25.6813 47.275 25.7964 47.3242C25.9116 47.3734 26.0201 47.4452 26.1242 47.5353C26.2283 47.6276 26.3191 47.7321 26.3967 47.851Z" fill="#F2E861"/>
<path d="M33.8719 50.7391C33.9627 50.8497 34.0336 50.9666 34.0867 51.0896C34.1399 51.2125 34.1709 51.3335 34.1776 51.4503C34.1864 51.5671 34.1709 51.6737 34.1333 51.768C34.0934 51.8603 34.0336 51.9361 33.9561 51.9914C33.8763 52.0488 33.7833 52.0816 33.6748 52.0898C33.5663 52.1001 33.4533 52.0857 33.3337 52.0468C33.2141 52.0078 33.0967 51.9484 32.9837 51.8685C32.8686 51.7885 32.7667 51.6922 32.6759 51.5815C32.5851 51.4729 32.5142 51.356 32.461 51.231C32.4079 51.108 32.3769 50.9891 32.3702 50.8702C32.3614 50.7534 32.3769 50.6468 32.4167 50.5525C32.4544 50.4603 32.5142 50.3845 32.5917 50.3291C32.6714 50.2738 32.7645 50.241 32.873 50.2307C32.9815 50.2205 33.0945 50.2369 33.2141 50.2738C33.3337 50.3127 33.4511 50.3722 33.5663 50.4521C33.6792 50.5341 33.7811 50.6284 33.8719 50.7391Z" fill="#F2E861"/>
<path d="M44.6828 45.7336C44.7714 45.8443 44.8445 45.9611 44.8977 46.0841C44.9508 46.2091 44.9818 46.328 44.9885 46.4469C44.9973 46.5637 44.9818 46.6683 44.942 46.7626C44.9043 46.8569 44.8445 46.9327 44.767 46.988C44.6873 47.0434 44.5942 47.0762 44.4857 47.0864C44.3772 47.0946 44.2642 47.0803 44.1446 47.0434C44.0228 47.0044 43.9076 46.945 43.7924 46.863C43.6795 46.7831 43.5776 46.6888 43.4868 46.5781C43.396 46.4674 43.3251 46.3506 43.272 46.2276C43.2188 46.1046 43.1878 45.9837 43.1811 45.8668C43.1723 45.748 43.1878 45.6434 43.2254 45.5491C43.2653 45.4548 43.3229 45.3811 43.4026 45.3237C43.4824 45.2683 43.5754 45.2355 43.6839 45.2273C43.7924 45.2171 43.9054 45.2314 44.025 45.2704C44.1446 45.3093 44.262 45.3688 44.375 45.4487C44.4901 45.5286 44.592 45.625 44.6828 45.7336Z" fill="#F2E861"/>
<path d="M58.7761 37.1022C58.8669 37.2129 58.9378 37.3276 58.9909 37.4527C59.0441 37.5757 59.0751 37.6966 59.0817 37.8134C59.0906 37.9303 59.0751 38.0369 59.0352 38.1311C58.9976 38.2234 58.9378 38.2992 58.8602 38.3546C58.7805 38.4099 58.6875 38.4427 58.579 38.4529C58.4704 38.4632 58.3575 38.4488 58.2379 38.4099C58.1183 38.371 58.0009 38.3115 57.8857 38.2316C57.7727 38.1496 57.6709 38.0553 57.58 37.9446C57.4892 37.8339 57.4184 37.7171 57.3652 37.5941C57.312 37.4711 57.281 37.3502 57.2744 37.2334C57.2655 37.1165 57.281 37.0099 57.3209 36.9156C57.3586 36.8234 57.4184 36.7476 57.4959 36.6922C57.5756 36.6348 57.6686 36.6041 57.7772 36.5938C57.8857 36.5836 57.9987 36.5979 58.1183 36.6369C58.2379 36.6758 58.3553 36.7353 58.4682 36.8152C58.5834 36.8952 58.6853 36.9915 58.7761 37.1022Z" fill="#F2E861"/>
<path d="M56.187 46.7379C56.2778 46.8486 56.3487 46.9654 56.4018 47.0884C56.455 47.2114 56.486 47.3323 56.4948 47.4492C56.5015 47.566 56.486 47.6726 56.4483 47.7669C56.4085 47.8612 56.3509 47.935 56.2711 47.9903C56.1914 48.0477 56.0984 48.0805 55.9898 48.0887C55.8835 48.0989 55.7684 48.0846 55.6488 48.0457C55.5291 48.0067 55.4118 47.9473 55.2988 47.8673C55.1836 47.7874 55.0817 47.6911 54.9931 47.5804C54.9023 47.4717 54.8292 47.3549 54.7761 47.2319C54.7229 47.1069 54.6941 46.988 54.6853 46.8691C54.6764 46.7523 54.6919 46.6457 54.7318 46.5534C54.7694 46.4592 54.8292 46.3833 54.909 46.328C54.9865 46.2726 55.0817 46.2398 55.1881 46.2296C55.2966 46.2214 55.4095 46.2357 55.5314 46.2726C55.651 46.3116 55.7661 46.371 55.8813 46.451C55.9943 46.533 56.0962 46.6272 56.187 46.7379Z" fill="#F2E861"/>
<path d="M62.4661 55.3058C62.557 55.4165 62.6278 55.5334 62.681 55.6563C62.7341 55.7793 62.7652 55.9003 62.774 56.0171C62.7807 56.136 62.7652 56.2405 62.7275 56.3348C62.6876 56.4291 62.63 56.5029 62.5503 56.5603C62.4706 56.6156 62.3775 56.6484 62.269 56.6587C62.1627 56.6669 62.0475 56.6525 61.9279 56.6136C61.8083 56.5767 61.6909 56.5172 61.578 56.4352C61.4628 56.3553 61.3609 56.259 61.2723 56.1503C61.1815 56.0396 61.1084 55.9228 61.0553 55.7998C61.0021 55.6768 60.9733 55.5559 60.9645 55.4391C60.9556 55.3202 60.9711 55.2157 61.011 55.1214C61.0486 55.0271 61.1084 54.9533 61.1882 54.8959C61.2657 54.8406 61.3609 54.8078 61.4672 54.7975C61.5758 54.7893 61.6887 54.8037 61.8105 54.8426C61.9301 54.8795 62.0453 54.9389 62.1605 55.0209C62.2734 55.1009 62.3753 55.1952 62.4661 55.3058Z" fill="#F2E861"/>
<path d="M43.2542 54.2318C43.3317 54.3507 43.3915 54.4736 43.4292 54.6007C43.4668 54.7299 43.4845 54.8528 43.4779 54.9697C43.4735 55.0865 43.4447 55.1911 43.3959 55.2812C43.3472 55.3694 43.2808 55.4391 43.1944 55.4862C43.1102 55.5334 43.0128 55.558 42.9042 55.5559C42.7957 55.5559 42.685 55.5293 42.5698 55.4801C42.4546 55.4288 42.3461 55.3591 42.242 55.2669C42.1379 55.1767 42.0471 55.0722 41.9696 54.9533C41.892 54.8344 41.8344 54.7114 41.7968 54.5823C41.7569 54.4552 41.7414 54.3322 41.7458 54.2154C41.7525 54.0965 41.7791 53.994 41.83 53.9038C41.8787 53.8136 41.9452 53.746 42.0316 53.6988C42.1157 53.6497 42.2132 53.6271 42.3217 53.6292C42.428 53.6292 42.541 53.6558 42.6562 53.705C42.7713 53.7562 42.8799 53.8259 42.984 53.9182C43.0881 54.0084 43.1789 54.1129 43.2542 54.2318Z" fill="#F2E861"/>
<path d="M51.7925 55.4227C51.8701 55.5415 51.9277 55.6645 51.9653 55.7916C52.0052 55.9187 52.0207 56.0417 52.0162 56.1606C52.0096 56.2774 51.983 56.3819 51.9321 56.4701C51.8834 56.5603 51.8169 56.6279 51.7305 56.6771C51.6464 56.7242 51.5489 56.7468 51.4404 56.7468C51.3341 56.7447 51.2211 56.7201 51.1059 56.6689C50.9908 56.6197 50.8822 56.548 50.7781 56.4578C50.674 56.3655 50.5832 56.261 50.5079 56.1421C50.4304 56.0232 50.3706 55.9003 50.3329 55.7732C50.2953 55.6461 50.2776 55.5231 50.2842 55.4042C50.2886 55.2874 50.3174 55.1828 50.3662 55.0947C50.4149 55.0045 50.4813 54.9369 50.5677 54.8877C50.6519 54.8405 50.7493 54.818 50.8579 54.818C50.9664 54.82 51.0771 54.8446 51.1923 54.8959C51.3075 54.9451 51.416 55.0168 51.5201 55.107C51.6242 55.1992 51.715 55.3038 51.7925 55.4227Z" fill="#F2E861"/>
<path d="M65.9767 45.6742C66.052 45.793 66.1119 45.916 66.1495 46.0452C66.1894 46.1722 66.2049 46.2952 66.1982 46.4121C66.1938 46.5309 66.1672 46.6334 66.1163 46.7236C66.0676 46.8118 66.0011 46.8815 65.9147 46.9286C65.8306 46.9778 65.7331 47.0003 65.6246 46.9983C65.516 46.9983 65.4053 46.9716 65.2901 46.9224C65.175 46.8712 65.0664 46.8015 64.9623 46.7093C64.8582 46.6191 64.7674 46.5146 64.6899 46.3957C64.6146 46.2768 64.5548 46.1538 64.5171 46.0247C64.4773 45.8976 64.4618 45.7746 64.4684 45.6578C64.4728 45.5389 64.4994 45.4364 64.5504 45.3462C64.5991 45.2581 64.6655 45.1884 64.7519 45.1412C64.8361 45.092 64.9335 45.0695 65.0421 45.0715C65.1506 45.0715 65.2613 45.0982 65.3765 45.1474C65.4917 45.1986 65.6002 45.2683 65.7043 45.3606C65.8084 45.4507 65.8992 45.5553 65.9767 45.6742Z" fill="#F2E861"/>
<path d="M21.8407 35.9748C21.8961 36.104 21.9315 36.2331 21.9471 36.3663C21.9626 36.4975 21.9559 36.6205 21.9293 36.7353C21.905 36.8521 21.8585 36.9485 21.7942 37.0304C21.73 37.1104 21.6503 37.1678 21.5594 37.2026C21.4664 37.2375 21.3668 37.2457 21.2604 37.2272C21.1541 37.2088 21.0478 37.1678 20.9437 37.1001C20.8396 37.0325 20.7444 36.9464 20.658 36.8419C20.5716 36.7353 20.5007 36.6185 20.4454 36.4893C20.39 36.3602 20.3546 36.2311 20.339 36.0978C20.3235 35.9666 20.3302 35.8416 20.3568 35.7268C20.3811 35.612 20.4276 35.5136 20.4919 35.4337C20.5561 35.3517 20.6336 35.2943 20.7267 35.2615C20.8197 35.2267 20.9193 35.2185 21.0257 35.2369C21.132 35.2533 21.2383 35.2964 21.3424 35.364C21.4465 35.4296 21.5417 35.5157 21.6281 35.6223C21.7145 35.7289 21.7854 35.8457 21.8407 35.9748Z" fill="#F2E861"/>
<path d="M20.7598 43.3088C20.844 43.4236 20.9104 43.5445 20.9569 43.6696C21.0012 43.7966 21.0256 43.9176 21.0256 44.0344C21.0278 44.1533 21.0057 44.2578 20.9636 44.3501C20.9193 44.4423 20.8551 44.514 20.7731 44.5653C20.6912 44.6165 20.5959 44.6452 20.4874 44.6493C20.3789 44.6534 20.2659 44.6329 20.1485 44.5899C20.0311 44.5448 19.9182 44.4792 19.8096 44.3931C19.6989 44.307 19.6036 44.2086 19.5195 44.0938C19.4353 43.9791 19.3711 43.8581 19.3246 43.7331C19.2781 43.606 19.2537 43.4851 19.2537 43.3682C19.2515 43.2494 19.2736 43.1448 19.3179 43.0526C19.3622 42.9603 19.4242 42.8886 19.5062 42.8374C19.5904 42.7861 19.6856 42.7574 19.7919 42.7533C19.9004 42.7492 20.0134 42.7697 20.1308 42.8128C20.2482 42.8579 20.3633 42.9234 20.4719 43.0095C20.5804 43.0956 20.6779 43.194 20.7598 43.3088Z" fill="#F2E861"/>
<path d="M48.2864 11.3637C48.4127 11.4375 48.5256 11.5236 48.6209 11.6219C48.7183 11.7203 48.7914 11.8228 48.8446 11.9315C48.8955 12.038 48.9199 12.1426 48.9199 12.243C48.9199 12.3435 48.8933 12.4316 48.8401 12.5115C48.787 12.5894 48.7117 12.6489 48.6142 12.694C48.5168 12.737 48.4038 12.7616 48.2776 12.7636C48.1513 12.7677 48.0184 12.7493 47.8811 12.7124C47.746 12.6735 47.6131 12.6181 47.4869 12.5443C47.3606 12.4705 47.2499 12.3844 47.1524 12.2861C47.0572 12.1877 46.9819 12.0852 46.9309 11.9766C46.88 11.87 46.8534 11.7654 46.8534 11.665C46.8556 11.5646 46.8822 11.4764 46.9353 11.3965C46.9885 11.3186 47.0638 11.2571 47.159 11.2141C47.2565 11.171 47.3695 11.1464 47.4957 11.1444C47.6242 11.1403 47.7549 11.1587 47.8922 11.1956C48.0295 11.2345 48.1602 11.2899 48.2864 11.3637Z" fill="#F2E861"/>
<path d="M25.6415 22.7151C25.7057 22.8402 25.75 22.9673 25.7766 23.0984C25.801 23.2296 25.8032 23.3526 25.7854 23.4694C25.7677 23.5863 25.7279 23.6867 25.6703 23.7708C25.6127 23.8548 25.5374 23.9183 25.4488 23.9573C25.358 23.9983 25.2583 24.0106 25.152 24.0003C25.0435 23.9901 24.9349 23.9532 24.8264 23.8937C24.7179 23.8323 24.616 23.7523 24.523 23.6519C24.4299 23.5514 24.3502 23.4387 24.286 23.3137C24.2217 23.1886 24.1774 23.0595 24.1531 22.9304C24.1287 22.7992 24.1243 22.6762 24.142 22.5594C24.1619 22.4425 24.1996 22.3421 24.2572 22.2581C24.317 22.172 24.3901 22.1105 24.4809 22.0715C24.5695 22.0305 24.6691 22.0162 24.7777 22.0285C24.884 22.0387 24.9925 22.0756 25.101 22.1351C25.2096 22.1966 25.3115 22.2765 25.4045 22.3769C25.4997 22.4774 25.5772 22.5901 25.6415 22.7151Z" fill="#F2E861"/>
<path d="M39.0127 12.4931C39.1456 12.5587 39.263 12.6366 39.3671 12.7268C39.4712 12.819 39.5532 12.9153 39.613 13.0199C39.6728 13.1224 39.706 13.2248 39.7149 13.3253C39.7215 13.4257 39.7016 13.5159 39.6551 13.5979C39.6085 13.6799 39.5377 13.7455 39.4446 13.7967C39.3516 13.8459 39.2409 13.8787 39.1146 13.889C38.9884 13.9013 38.8555 13.8931 38.7159 13.8644C38.5764 13.8357 38.4413 13.7885 38.3084 13.7229C38.1777 13.6573 38.0581 13.5795 37.954 13.4893C37.8521 13.397 37.7702 13.2986 37.7082 13.1962C37.6484 13.0916 37.6151 12.9912 37.6085 12.8907C37.5996 12.7903 37.6196 12.6981 37.6661 12.6181C37.7148 12.5361 37.7835 12.4705 37.8765 12.4193C37.9717 12.3681 38.0803 12.3373 38.2065 12.3271C38.3328 12.3148 38.4657 12.323 38.6052 12.3517C38.7469 12.3804 38.8821 12.4275 39.0127 12.4931Z" fill="#F2E861"/>
<mask id="mask2_98_235" style="mask-type:luminance" maskUnits="userSpaceOnUse" x="12" y="0" width="33" height="29">
<path d="M12 0H44.3196V28.4708H12V0Z" fill="white"/>
</mask>
<g mask="url(#mask2_98_235)">
<path d="M24.3613 14.1575C24.3613 14.1575 19.462 7.67832 18.5472 2.63188C18.4188 1.93292 18.5384 1.27496 18.9016 0.65389C18.9725 0.532955 19.05 0.414071 19.1298 0.299286C19.1984 0.204998 19.2848 0.133258 19.3911 0.079965C19.4974 0.0287218 19.6104 0.0020752 19.7322 0.0020752C19.8518 0.0020752 19.967 0.0287218 20.0733 0.079965C20.1796 0.133258 20.266 0.204998 20.3324 0.299286L20.3989 0.389474C20.3989 0.389474 21.3136 8.34243 25.533 13.4176C25.533 13.4176 24.5629 6.76414 33.1921 3.21195L31.2784 7.10644C31.2784 7.10644 36.2486 4.17738 41.1324 4.50328C41.8899 4.55863 42.6363 4.49509 43.3717 4.31676C43.6906 4.23682 43.9852 4.14048 44.1668 4.0257C44.1668 4.0257 44.3905 11.3084 34.9595 12.364C34.9595 12.364 43.2543 19.5012 36.8001 25.7877C36.8001 25.7877 28.4876 28.6143 24.9815 21.5058C24.9815 21.5058 21.2804 30.1598 12.0864 28.0649C12.0864 28.0649 13.8561 25.3695 14.4652 23.8794C14.4652 23.8794 16.3767 20.4481 18.3125 18.6792C18.3125 18.6792 13.9624 20.4051 12.6291 19.9829C12.6291 19.9829 16.8595 17.5908 17.5417 16.5434C17.6613 16.3548 17.8053 16.1806 17.9736 16.0269C19.019 15.0819 22.1863 12.5321 24.3613 14.1575Z" fill="#69AE13"/>
</g>
<mask id="mask3_98_235" style="mask-type:luminance" maskUnits="userSpaceOnUse" x="18" y="0" width="9" height="15">
<path d="M18.8041 0H26.7422V14.303H18.8041V0Z" fill="white"/>
</mask>
<g mask="url(#mask3_98_235)">
<path d="M25.2361 13.9382C25.2361 13.9382 25.7012 14.4896 26.6979 14.1493C26.6979 14.1493 25.6038 11.4006 25.9869 10.0109C25.3136 11.9418 25.5307 13.4196 25.5307 13.4196C21.3113 8.34243 20.3966 0.389474 20.3966 0.389474L20.3323 0.299286C20.2637 0.207048 20.1773 0.133258 20.071 0.0820147C19.9647 0.0287214 19.8495 0.0020752 19.7299 0.0020752C19.6103 0.0020752 19.4951 0.0287214 19.3888 0.0820147C19.2825 0.133258 19.1961 0.207048 19.1274 0.299286C19.1274 0.299286 19.7011 5.53225 21.8894 8.44697C21.8894 8.45107 24.1552 13.0425 25.2361 13.9382Z" fill="#49930F"/>
</g>
<path d="M31.2784 7.10646L33.1898 3.21198C33.1898 3.21198 29.203 6.69652 28.1886 10.4188C28.1886 10.4188 29.9804 8.14158 31.2784 7.10646Z" fill="#49930F"/>
<path d="M34.9595 12.364C44.3882 11.3084 44.1667 4.02771 44.1667 4.02771C43.6374 8.18866 39.8233 10.1708 37.3382 11.0296C36.315 11.3821 35.2563 11.583 34.1665 11.6302C31.553 11.749 29.7279 12.2902 29.7279 12.2902C35.3072 13.0957 37.4003 18.5767 37.4003 18.5767C38.9042 22.834 36.8 25.7897 36.8 25.7897C43.2542 19.5011 34.9595 12.364 34.9595 12.364Z" fill="#49930F"/>
<path d="M24.8331 21.8173L24.8287 16.9595C24.6714 17.5518 24.554 18.1524 24.4787 18.7591C24.3901 19.5032 24.2085 20.2267 23.9383 20.9319C23.6658 21.6349 23.3115 22.3011 22.8751 22.9303C22.4366 23.5576 21.9294 24.1315 21.3491 24.6521C20.7688 25.1707 20.1309 25.6216 19.4376 26.0029C15.8717 27.9665 12.0864 28.0649 12.0864 28.0649C20.2306 29.9199 24.0623 23.3444 24.8331 21.8173Z" fill="#49930F"/>
<path d="M18.3124 18.6792C18.2393 18.7468 18.164 18.8165 18.0909 18.8883C18.8927 18.1422 24.3613 14.1575 24.3613 14.1575C22.3302 14.0858 19.5328 17.3018 19.5328 17.3018C17.9492 18.8575 12.6312 19.9828 12.6312 19.9828C13.9624 20.4051 18.3124 18.6792 18.3124 18.6792Z" fill="#49930F"/>
<path d="M17.958 16.8775C17.958 16.8775 20.7133 13.4483 24.3634 14.1575C22.1884 12.5321 19.0211 15.0819 17.9779 16.0248C17.8096 16.1806 17.6656 16.3528 17.546 16.5434C16.8639 17.5908 12.6334 19.9808 12.6334 19.9808C12.6334 19.9808 16.8683 17.9659 17.958 16.8775Z" fill="#A2C622"/>
<path d="M20.3788 7.69878C20.3788 7.69673 20.3766 7.69468 20.3744 7.69263L20.3788 7.69878Z" fill="#A2C622"/>
<path d="M18.5472 2.63189C18.8107 4.0831 19.4043 5.65319 20.1153 7.15359C18.999 4.59143 18.9148 0.627248 19.1275 0.297241C19.0477 0.412026 18.9702 0.53296 18.8993 0.651845C18.5361 1.27291 18.4187 1.93293 18.5472 2.63189Z" fill="#A2C622"/>
<path d="M21.38 16.3569L21.6037 16.1847C21.5306 16.24 21.4553 16.2974 21.38 16.3569Z" fill="#A2C622"/>
<path d="M21.3801 16.3569L18.091 18.8883C16.2305 20.7064 14.4652 23.8794 14.4652 23.8794C13.8561 25.3695 12.0864 28.0649 12.0864 28.0649C12.0864 28.0649 13.1983 27.1651 14.607 24.9104C14.607 24.9104 18.6248 18.5644 21.3801 16.3569Z" fill="#A2C622"/>
<path d="M28.5474 24.1622C24.9017 22.0141 25.1431 16.1478 25.1431 16.1478L24.8286 16.9595L24.833 21.8153C24.9327 21.6185 24.9814 21.5037 24.9814 21.5037C28.4876 28.6101 36.8001 25.7856 36.8001 25.7856C31.9052 26.708 28.5474 24.1622 28.5474 24.1622Z" fill="#A2C622"/>
<path d="M25.9891 10.0109C25.9891 10.0109 29.1409 5.32728 32.255 3.62805C28.3613 5.48306 26.6913 7.99398 25.9891 10.0109Z" fill="#A2C622"/>
<path d="M44.1667 4.02563C43.9851 4.14042 43.6905 4.23676 43.3716 4.3167C42.6363 4.49502 41.8898 4.55857 41.1324 4.50322C36.2485 4.17936 31.2783 7.10638 31.2783 7.10638C31.2783 7.10638 28.0047 10.3429 27.5928 11.3391C27.5928 11.3391 30.6382 7.23141 37.0038 5.77406C37.0038 5.77406 43.2454 5.33131 44.1667 4.02563Z" fill="#A2C622"/>
<path d="M3.6048 75.385C3.1648 75.235 2.7648 75.085 2.4048 74.935C2.0448 74.775 1.7348 74.585 1.4748 74.365C1.2148 74.145 1.0098 73.885 0.859805 73.585C0.719805 73.275 0.649805 72.9 0.649805 72.46C0.649805 71.61 0.974805 70.93 1.6248 70.42C2.2848 69.91 3.2048 69.655 4.3848 69.655C4.8148 69.655 5.2148 69.685 5.5848 69.745C5.9548 69.805 6.2698 69.9 6.5298 70.03C6.7998 70.15 7.00981 70.31 7.15981 70.51C7.30981 70.7 7.38481 70.925 7.38481 71.185C7.38481 71.445 7.32481 71.67 7.20481 71.86C7.08481 72.04 6.93981 72.195 6.7698 72.325C6.54981 72.185 6.25481 72.065 5.88481 71.965C5.51481 71.855 5.10981 71.8 4.66981 71.8C4.2198 71.8 3.8898 71.865 3.6798 71.995C3.4698 72.115 3.3648 72.27 3.3648 72.46C3.3648 72.61 3.4298 72.735 3.5598 72.835C3.6898 72.925 3.8848 73.01 4.1448 73.09L4.9398 73.345C5.8798 73.645 6.5998 74.03 7.09981 74.5C7.60981 74.96 7.86481 75.59 7.86481 76.39C7.86481 77.24 7.52981 77.93 6.85981 78.46C6.18981 78.98 5.2048 79.24 3.9048 79.24C3.4448 79.24 3.0148 79.2 2.6148 79.12C2.2248 79.05 1.8798 78.945 1.5798 78.805C1.2898 78.655 1.0598 78.475 0.889805 78.265C0.729805 78.045 0.649805 77.795 0.649805 77.515C0.649805 77.225 0.734805 76.98 0.904805 76.78C1.0748 76.57 1.2598 76.41 1.4598 76.3C1.7398 76.52 2.0798 76.71 2.4798 76.87C2.8898 77.03 3.3348 77.11 3.8148 77.11C4.3048 77.11 4.6498 77.035 4.84981 76.885C5.0498 76.735 5.1498 76.56 5.1498 76.36C5.1498 76.16 5.0698 76.01 4.9098 75.91C4.7498 75.8 4.52481 75.695 4.2348 75.595L3.6048 75.385ZM11.6415 76.495C11.6415 76.755 11.7215 76.94 11.8815 77.05C12.0515 77.16 12.2865 77.215 12.5865 77.215C12.7365 77.215 12.8915 77.205 13.0515 77.185C13.2115 77.155 13.3515 77.12 13.4715 77.08C13.5615 77.19 13.6365 77.315 13.6965 77.455C13.7665 77.585 13.8015 77.745 13.8015 77.935C13.8015 78.315 13.6565 78.625 13.3665 78.865C13.0865 79.105 12.5865 79.225 11.8665 79.225C10.9865 79.225 10.3065 79.025 9.82652 78.625C9.35652 78.225 9.12152 77.575 9.12152 76.675V70.255C9.23152 70.225 9.38652 70.195 9.58652 70.165C9.79652 70.125 10.0165 70.105 10.2465 70.105C10.6865 70.105 11.0265 70.185 11.2665 70.345C11.5165 70.495 11.6415 70.82 11.6415 71.32V72.28H13.6065C13.6665 72.39 13.7215 72.53 13.7715 72.7C13.8315 72.86 13.8615 73.04 13.8615 73.24C13.8615 73.59 13.7815 73.845 13.6215 74.005C13.4715 74.155 13.2665 74.23 13.0065 74.23H11.6415V76.495ZM17.6474 78.985C17.5474 79.015 17.3874 79.045 17.1674 79.075C16.9574 79.105 16.7374 79.12 16.5074 79.12C16.2874 79.12 16.0874 79.105 15.9074 79.075C15.7374 79.045 15.5924 78.985 15.4724 78.895C15.3524 78.805 15.2574 78.685 15.1874 78.535C15.1274 78.375 15.0974 78.17 15.0974 77.92V73.42C15.0974 73.19 15.1374 72.995 15.2174 72.835C15.3074 72.665 15.4324 72.515 15.5924 72.385C15.7524 72.255 15.9474 72.14 16.1774 72.04C16.4174 71.93 16.6724 71.835 16.9424 71.755C17.2124 71.675 17.4924 71.615 17.7824 71.575C18.0724 71.525 18.3624 71.5 18.6524 71.5C19.1324 71.5 19.5124 71.595 19.7924 71.785C20.0724 71.965 20.2124 72.265 20.2124 72.685C20.2124 72.825 20.1924 72.965 20.1524 73.105C20.1124 73.235 20.0624 73.355 20.0024 73.465C19.7924 73.465 19.5774 73.475 19.3574 73.495C19.1374 73.515 18.9224 73.545 18.7124 73.585C18.5024 73.625 18.3024 73.67 18.1124 73.72C17.9324 73.76 17.7774 73.81 17.6474 73.87V78.985ZM24.1646 77.38C24.3346 77.38 24.5196 77.365 24.7196 77.335C24.9296 77.295 25.0846 77.245 25.1846 77.185V75.985L24.1046 76.075C23.8246 76.095 23.5946 76.155 23.4146 76.255C23.2346 76.355 23.1446 76.505 23.1446 76.705C23.1446 76.905 23.2196 77.07 23.3696 77.2C23.5296 77.32 23.7946 77.38 24.1646 77.38ZM24.0446 71.485C24.5846 71.485 25.0746 71.54 25.5146 71.65C25.9646 71.76 26.3446 71.93 26.6546 72.16C26.9746 72.38 27.2196 72.665 27.3896 73.015C27.5596 73.355 27.6446 73.76 27.6446 74.23V77.59C27.6446 77.85 27.5696 78.065 27.4196 78.235C27.2796 78.395 27.1096 78.535 26.9096 78.655C26.2596 79.045 25.3446 79.24 24.1646 79.24C23.6346 79.24 23.1546 79.19 22.7246 79.09C22.3046 78.99 21.9396 78.84 21.6296 78.64C21.3296 78.44 21.0946 78.185 20.9246 77.875C20.7646 77.565 20.6846 77.205 20.6846 76.795C20.6846 76.105 20.8896 75.575 21.2996 75.205C21.7096 74.835 22.3446 74.605 23.2046 74.515L25.1696 74.305V74.2C25.1696 73.91 25.0396 73.705 24.7796 73.585C24.5296 73.455 24.1646 73.39 23.6846 73.39C23.3046 73.39 22.9346 73.43 22.5746 73.51C22.2146 73.59 21.8896 73.69 21.5996 73.81C21.4696 73.72 21.3596 73.585 21.2696 73.405C21.1796 73.215 21.1346 73.02 21.1346 72.82C21.1346 72.56 21.1946 72.355 21.3146 72.205C21.4446 72.045 21.6396 71.91 21.8996 71.8C22.1896 71.69 22.5296 71.61 22.9196 71.56C23.3196 71.51 23.6946 71.485 24.0446 71.485ZM33.2563 78.775C33.1163 78.895 32.9263 78.99 32.6863 79.06C32.4463 79.14 32.1613 79.18 31.8313 79.18C31.4213 79.18 31.0663 79.12 30.7663 79C30.4663 78.89 30.2663 78.73 30.1663 78.52C30.0563 78.28 29.9263 77.9 29.7763 77.38C29.6363 76.86 29.4963 76.29 29.3563 75.67C29.2163 75.05 29.0813 74.42 28.9513 73.78C28.8313 73.14 28.7363 72.575 28.6663 72.085C28.8063 71.945 28.9913 71.825 29.2213 71.725C29.4613 71.615 29.7213 71.56 30.0013 71.56C30.3513 71.56 30.6363 71.64 30.8563 71.8C31.0863 71.95 31.2263 72.215 31.2763 72.595C31.3763 73.355 31.4613 73.985 31.5313 74.485C31.6013 74.975 31.6563 75.38 31.6963 75.7C31.7463 76.01 31.7813 76.25 31.8013 76.42C31.8313 76.58 31.8563 76.71 31.8763 76.81H31.9363C31.9663 76.65 32.0163 76.42 32.0863 76.12C32.1663 75.81 32.2563 75.46 32.3563 75.07C32.4563 74.68 32.5613 74.26 32.6713 73.81C32.7813 73.35 32.8913 72.895 33.0013 72.445C33.2013 72.335 33.3963 72.25 33.5863 72.19C33.7863 72.13 34.0313 72.1 34.3213 72.1C34.6713 72.1 34.9713 72.155 35.2213 72.265C35.4713 72.375 35.6313 72.545 35.7013 72.775C35.8213 73.215 35.9363 73.645 36.0463 74.065C36.1563 74.475 36.2563 74.86 36.3463 75.22C36.4363 75.57 36.5163 75.885 36.5863 76.165C36.6563 76.435 36.7063 76.65 36.7363 76.81H36.8113C36.9213 76.04 37.0263 75.24 37.1263 74.41C37.2363 73.58 37.3363 72.735 37.4263 71.875C37.6063 71.765 37.7963 71.685 37.9963 71.635C38.1963 71.585 38.3963 71.56 38.5963 71.56C38.9463 71.56 39.2363 71.635 39.4663 71.785C39.6963 71.935 39.8113 72.195 39.8113 72.565C39.8113 72.725 39.7863 72.965 39.7363 73.285C39.6863 73.605 39.6213 73.965 39.5413 74.365C39.4613 74.765 39.3663 75.185 39.2563 75.625C39.1563 76.065 39.0513 76.49 38.9413 76.9C38.8413 77.31 38.7413 77.68 38.6413 78.01C38.5513 78.34 38.4713 78.595 38.4013 78.775C38.2613 78.895 38.0463 78.99 37.7563 79.06C37.4663 79.14 37.1563 79.18 36.8263 79.18C35.9863 79.18 35.4913 78.97 35.3413 78.55C35.2813 78.37 35.2063 78.145 35.1163 77.875C35.0263 77.595 34.9313 77.29 34.8313 76.96C34.7313 76.63 34.6363 76.29 34.5463 75.94C34.4563 75.58 34.3813 75.235 34.3213 74.905C34.2513 75.255 34.1663 75.62 34.0663 76C33.9663 76.37 33.8613 76.735 33.7513 77.095C33.6513 77.445 33.5563 77.77 33.4663 78.07C33.3763 78.36 33.3063 78.595 33.2563 78.775ZM40.9965 69.235C41.0965 69.205 41.2565 69.175 41.4765 69.145C41.6965 69.105 41.9215 69.085 42.1515 69.085C42.3715 69.085 42.5665 69.1 42.7365 69.13C42.9165 69.16 43.0665 69.22 43.1865 69.31C43.3065 69.4 43.3965 69.525 43.4565 69.685C43.5165 69.835 43.5465 70.035 43.5465 70.285V71.755C43.7965 71.655 44.0315 71.585 44.2515 71.545C44.4815 71.505 44.7315 71.485 45.0015 71.485C45.4815 71.485 45.9365 71.57 46.3665 71.74C46.7965 71.91 47.1765 72.16 47.5065 72.49C47.8365 72.81 48.0965 73.21 48.2865 73.69C48.4765 74.17 48.5715 74.725 48.5715 75.355C48.5715 76.005 48.4715 76.575 48.2715 77.065C48.0815 77.545 47.8115 77.945 47.4615 78.265C47.1115 78.585 46.6815 78.83 46.1715 79C45.6715 79.16 45.1165 79.24 44.5065 79.24C43.8465 79.24 43.2865 79.16 42.8265 79C42.3665 78.85 41.9765 78.66 41.6565 78.43C41.2165 78.12 40.9965 77.72 40.9965 77.23V69.235ZM44.5065 77.23C44.9665 77.23 45.3215 77.075 45.5715 76.765C45.8315 76.445 45.9615 75.975 45.9615 75.355C45.9615 74.725 45.8315 74.255 45.5715 73.945C45.3115 73.635 44.9615 73.48 44.5215 73.48C44.3215 73.48 44.1465 73.5 43.9965 73.54C43.8565 73.58 43.7015 73.64 43.5315 73.72V76.99C43.6415 77.06 43.7715 77.12 43.9215 77.17C44.0815 77.21 44.2765 77.23 44.5065 77.23ZM53.6692 79.24C53.0792 79.24 52.5292 79.16 52.0192 79C51.5192 78.83 51.0792 78.58 50.6992 78.25C50.3292 77.92 50.0342 77.505 49.8142 77.005C49.6042 76.505 49.4992 75.92 49.4992 75.25C49.4992 74.59 49.6042 74.025 49.8142 73.555C50.0342 73.075 50.3192 72.685 50.6692 72.385C51.0192 72.075 51.4192 71.85 51.8692 71.71C52.3192 71.56 52.7792 71.485 53.2492 71.485C53.7792 71.485 54.2592 71.565 54.6892 71.725C55.1292 71.885 55.5042 72.105 55.8142 72.385C56.1342 72.665 56.3792 73 56.5492 73.39C56.7292 73.78 56.8192 74.205 56.8192 74.665C56.8192 75.005 56.7242 75.265 56.5342 75.445C56.3442 75.625 56.0792 75.74 55.7392 75.79L52.0342 76.345C52.1442 76.675 52.3692 76.925 52.7092 77.095C53.0492 77.255 53.4392 77.335 53.8792 77.335C54.2892 77.335 54.6742 77.285 55.0342 77.185C55.4042 77.075 55.7042 76.95 55.9342 76.81C56.0942 76.91 56.2292 77.05 56.3392 77.23C56.4492 77.41 56.5042 77.6 56.5042 77.8C56.5042 78.25 56.2942 78.585 55.8742 78.805C55.5542 78.975 55.1942 79.09 54.7942 79.15C54.3942 79.21 54.0192 79.24 53.6692 79.24ZM53.2492 73.345C53.0092 73.345 52.7992 73.385 52.6192 73.465C52.4492 73.545 52.3092 73.65 52.1992 73.78C52.0892 73.9 52.0042 74.04 51.9442 74.2C51.8942 74.35 51.8642 74.505 51.8542 74.665L54.4192 74.245C54.3892 74.045 54.2792 73.845 54.0892 73.645C53.8992 73.445 53.6192 73.345 53.2492 73.345ZM60.5966 78.985C60.4966 79.015 60.3366 79.045 60.1166 79.075C59.9066 79.105 59.6866 79.12 59.4566 79.12C59.2366 79.12 59.0366 79.105 58.8566 79.075C58.6866 79.045 58.5416 78.985 58.4216 78.895C58.3016 78.805 58.2066 78.685 58.1366 78.535C58.0766 78.375 58.0466 78.17 58.0466 77.92V73.42C58.0466 73.19 58.0866 72.995 58.1666 72.835C58.2566 72.665 58.3816 72.515 58.5416 72.385C58.7016 72.255 58.8966 72.14 59.1266 72.04C59.3666 71.93 59.6216 71.835 59.8916 71.755C60.1616 71.675 60.4416 71.615 60.7316 71.575C61.0216 71.525 61.3116 71.5 61.6016 71.5C62.0816 71.5 62.4616 71.595 62.7416 71.785C63.0216 71.965 63.1616 72.265 63.1616 72.685C63.1616 72.825 63.1416 72.965 63.1016 73.105C63.0616 73.235 63.0116 73.355 62.9516 73.465C62.7416 73.465 62.5266 73.475 62.3066 73.495C62.0866 73.515 61.8716 73.545 61.6616 73.585C61.4516 73.625 61.2516 73.67 61.0616 73.72C60.8816 73.76 60.7266 73.81 60.5966 73.87V78.985ZM66.6171 78.985C66.5171 79.015 66.3571 79.045 66.1371 79.075C65.9271 79.105 65.7071 79.12 65.4771 79.12C65.2571 79.12 65.0571 79.105 64.8771 79.075C64.7071 79.045 64.5621 78.985 64.4421 78.895C64.3221 78.805 64.2271 78.685 64.1571 78.535C64.0971 78.375 64.0671 78.17 64.0671 77.92V73.42C64.0671 73.19 64.1071 72.995 64.1871 72.835C64.2771 72.665 64.4021 72.515 64.5621 72.385C64.7221 72.255 64.9171 72.14 65.1471 72.04C65.3871 71.93 65.6421 71.835 65.9121 71.755C66.1821 71.675 66.4621 71.615 66.7521 71.575C67.0421 71.525 67.3321 71.5 67.6221 71.5C68.1021 71.5 68.4821 71.595 68.7621 71.785C69.0421 71.965 69.1821 72.265 69.1821 72.685C69.1821 72.825 69.1621 72.965 69.1221 73.105C69.0821 73.235 69.0321 73.355 68.9721 73.465C68.7621 73.465 68.5471 73.475 68.3271 73.495C68.1071 73.515 67.8921 73.545 67.6821 73.585C67.4721 73.625 67.2721 73.67 67.0821 73.72C66.9021 73.76 66.7471 73.81 66.6171 73.87V78.985ZM71.6085 77.14C71.4985 76.89 71.3785 76.61 71.2485 76.3C71.1285 75.99 70.9985 75.635 70.8585 75.235C70.7285 74.835 70.5885 74.38 70.4385 73.87C70.2985 73.35 70.1485 72.755 69.9885 72.085C70.1285 71.945 70.3135 71.825 70.5435 71.725C70.7835 71.615 71.0435 71.56 71.3235 71.56C71.6735 71.56 71.9635 71.635 72.1935 71.785C72.4235 71.925 72.5935 72.195 72.7035 72.595L73.8885 76.72H73.9485C74.0685 76.38 74.1835 76.01 74.2935 75.61C74.4135 75.21 74.5285 74.8 74.6385 74.38C74.7485 73.95 74.8485 73.525 74.9385 73.105C75.0385 72.675 75.1235 72.255 75.1935 71.845C75.5535 71.655 75.9485 71.56 76.3785 71.56C76.7285 71.56 77.0185 71.635 77.2485 71.785C77.4785 71.935 77.5935 72.195 77.5935 72.565C77.5935 72.835 77.5585 73.15 77.4885 73.51C77.4185 73.86 77.3235 74.235 77.2035 74.635C77.0935 75.035 76.9585 75.45 76.7985 75.88C76.6485 76.3 76.4885 76.715 76.3185 77.125C76.1485 77.535 75.9735 77.925 75.7935 78.295C75.6135 78.655 75.4385 78.98 75.2685 79.27C74.9885 79.76 74.7285 80.16 74.4885 80.47C74.2485 80.78 74.0185 81.02 73.7985 81.19C73.5785 81.37 73.3585 81.49 73.1385 81.55C72.9185 81.62 72.6885 81.655 72.4485 81.655C72.0285 81.655 71.6885 81.53 71.4285 81.28C71.1685 81.03 71.0135 80.705 70.9635 80.305C71.2835 80.055 71.6035 79.775 71.9235 79.465C72.2435 79.165 72.5335 78.855 72.7935 78.535C72.6235 78.485 72.4385 78.37 72.2385 78.19C72.0485 78 71.8385 77.65 71.6085 77.14Z" fill="white"/>
</svg>
