<svg width="55" height="61" viewBox="0 0 55 61" fill="none" xmlns="http://www.w3.org/2000/svg">
<mask id="mask0_98_140" style="mask-type:luminance" maskUnits="userSpaceOnUse" x="0" y="8" width="55" height="53">
<path d="M0.567017 8.00623H55V61H0.567017V8.00623Z" fill="white"/>
</mask>
<g mask="url(#mask0_98_140)">
<path d="M54.0453 53.1844C56.0232 46.0985 54.754 35.9215 48.9909 20.4973C45.3784 10.8267 33.8012 5.88068 23.553 9.66038C9.19387 14.9507 -4.36121 29.3583 3.38866 39.9349C12.0223 54.3158 25.6992 60.5429 43.0063 60.8934C48.1648 60.9959 52.7518 57.8147 54.0453 53.1844Z" fill="#D91F20"/>
</g>
<mask id="mask1_98_140" style="mask-type:luminance" maskUnits="userSpaceOnUse" x="1" y="8" width="54" height="53">
<path d="M1.70105 8.00623H55V61H1.70105V8.00623Z" fill="white"/>
</mask>
<g mask="url(#mask1_98_140)">
<path d="M23.5531 9.66038C14.0623 13.1572 4.9215 20.6387 2.05322 28.3621C2.05322 28.3621 9.45315 30.6681 13.1299 22.1473L20.1931 26.3104C20.1931 26.3104 24.315 26.542 25.3649 26.5461C25.3649 26.5461 30.5743 22.5081 27.1368 16.734C27.1368 16.734 25.5044 14.3502 24.3172 12.8867C24.3172 12.8867 24.6694 12.778 25.2785 12.6468C32.1624 11.1649 39.2367 14.2989 42.3641 20.1776C45.5225 26.1156 51.7353 39.0269 51.6068 48.5356C51.5957 49.4641 51.6135 50.3926 51.6578 51.3212C51.7884 54.0883 50.8405 60.8114 38.5124 60.6597C39.9831 60.7848 41.4804 60.8606 43.0086 60.8914C48.1627 60.9959 52.7497 57.8147 54.0432 53.1844C56.0233 46.0985 54.7542 35.9215 48.9888 20.4973C45.3786 10.8267 33.8014 5.88068 23.5531 9.66038Z" fill="#C1111E"/>
</g>
<path d="M17.8431 48.4003C17.987 48.5048 18.1221 48.6176 18.2484 48.7385C18.3746 48.8574 18.492 48.9824 18.5961 49.1136C18.7002 49.2448 18.791 49.378 18.8685 49.5154C18.9483 49.6506 19.0125 49.788 19.0612 49.9233C19.11 50.0606 19.1432 50.1959 19.1609 50.327C19.1786 50.4582 19.1808 50.5853 19.1676 50.7083C19.152 50.8292 19.1233 50.944 19.0767 51.0506C19.0324 51.1572 18.9726 51.2556 18.8973 51.3437C18.822 51.4319 18.7357 51.5097 18.6338 51.5753C18.5319 51.643 18.4189 51.6963 18.2949 51.7373C18.1709 51.7803 18.038 51.807 17.8962 51.8234C17.7522 51.8377 17.6038 51.8397 17.4488 51.8275C17.296 51.8172 17.1365 51.7926 16.9748 51.7537C16.8153 51.7147 16.6537 51.6655 16.492 51.602C16.3303 51.5384 16.1708 51.4646 16.0158 51.3786C15.8585 51.2925 15.7101 51.1982 15.5662 51.0936C15.42 50.9871 15.2849 50.8743 15.1586 50.7554C15.0324 50.6345 14.9172 50.5095 14.8131 50.3783C14.7068 50.2471 14.616 50.1139 14.5384 49.9786C14.4609 49.8413 14.3967 49.706 14.348 49.5686C14.2992 49.4313 14.266 49.2981 14.2461 49.1649C14.2284 49.0337 14.2284 48.9066 14.2417 48.7857C14.2549 48.6627 14.2859 48.5479 14.3302 48.4413C14.3745 48.3347 14.4343 48.2363 14.5097 48.1482C14.585 48.06 14.6736 47.9822 14.7754 47.9166C14.8751 47.851 14.9881 47.7956 15.1121 47.7546C15.2361 47.7136 15.3712 47.6849 15.513 47.6685C15.6547 47.6542 15.8031 47.6521 15.9582 47.6644C16.1132 47.6767 16.2705 47.7013 16.4322 47.7382C16.5939 47.7772 16.7555 47.8284 16.9172 47.8899C17.0789 47.9535 17.2362 48.0293 17.3934 48.1133C17.5485 48.1994 17.6991 48.2958 17.8431 48.4003Z" fill="#E14D4D"/>
<path d="M3.37332 35.0402C4.38995 37.6905 6.38556 41.8473 9.92716 45.6414C10.7489 46.5228 12.2927 45.7828 12.0003 44.6493C11.2162 41.6239 10.3502 37.5941 10.6049 35.4071C10.7068 34.5667 10.6027 33.7509 10.2882 32.9576C9.73447 31.5782 8.59823 29.9056 6.38999 30.2356C3.99349 30.5963 2.56046 32.9166 3.37332 35.0402Z" fill="#E14D4D"/>
<path d="M4.71995 31.3999C4.74431 31.5351 4.74874 31.6704 4.73324 31.8016C4.71773 31.9348 4.6823 32.0537 4.62914 32.1603C4.57598 32.2669 4.50953 32.355 4.42758 32.4206C4.34563 32.4862 4.25704 32.5272 4.15737 32.5416C4.05991 32.5559 3.96024 32.5436 3.86057 32.5047C3.7609 32.4657 3.66788 32.4022 3.5815 32.3161C3.49512 32.23 3.42203 32.1275 3.36222 32.0066C3.30464 31.8856 3.26255 31.7565 3.23819 31.6192C3.21383 31.4839 3.21161 31.3486 3.22712 31.2174C3.24262 31.0842 3.27584 30.9653 3.329 30.8587C3.38216 30.7501 3.4486 30.664 3.53056 30.5984C3.61251 30.5328 3.70332 30.4918 3.80077 30.4775C3.90044 30.4631 3.9979 30.4754 4.09757 30.5144C4.19945 30.5533 4.29248 30.6148 4.37664 30.7029C4.46302 30.789 4.53611 30.8915 4.59591 31.0125C4.65572 31.1334 4.6978 31.2625 4.71995 31.3999Z" fill="#BA1313"/>
<path d="M11.2205 29.182C11.2848 29.3071 11.3291 29.4341 11.3534 29.5653C11.3778 29.6965 11.3822 29.8195 11.3645 29.9363C11.3446 30.0532 11.3069 30.1536 11.2493 30.2376C11.1895 30.3217 11.1164 30.3832 11.0256 30.4242C10.937 30.4631 10.8373 30.4775 10.7288 30.4672C10.6225 30.4549 10.514 30.4201 10.4054 30.3586C10.2969 30.2991 10.195 30.2171 10.102 30.1188C10.0068 30.0183 9.92924 29.9056 9.86501 29.7785C9.80078 29.6535 9.75648 29.5264 9.73212 29.3952C9.70554 29.264 9.70333 29.141 9.72104 29.0242C9.73876 28.9074 9.77863 28.8069 9.83622 28.7229C9.89381 28.6388 9.96911 28.5774 10.0599 28.5364C10.1485 28.4974 10.2482 28.4831 10.3545 28.4933C10.463 28.5056 10.5716 28.5405 10.6801 28.602C10.7886 28.6614 10.8905 28.7434 10.9835 28.8418C11.0766 28.9422 11.1563 29.0549 11.2205 29.182Z" fill="#BA1313"/>
<path d="M19.6792 25.2445C19.7634 25.3593 19.8276 25.4802 19.8741 25.6053C19.9184 25.7323 19.9406 25.8533 19.9428 25.9722C19.9428 26.089 19.9206 26.1935 19.8763 26.2858C19.832 26.378 19.7678 26.4497 19.6859 26.501C19.6017 26.5522 19.5065 26.5789 19.3979 26.583C19.2916 26.5871 19.1787 26.5666 19.0613 26.5215C18.9439 26.4764 18.8309 26.4108 18.7224 26.3247C18.6139 26.2366 18.5164 26.1361 18.4345 26.0214C18.3503 25.9066 18.2861 25.7856 18.2418 25.6606C18.1952 25.5335 18.1731 25.4126 18.1731 25.2957C18.1731 25.1769 18.1952 25.0723 18.2395 24.9801C18.2838 24.8899 18.3459 24.8182 18.43 24.7669C18.512 24.7136 18.6072 24.687 18.7157 24.6829C18.8243 24.6808 18.9372 24.7013 19.0546 24.7444C19.172 24.7895 19.285 24.8551 19.3935 24.9432C19.502 25.0293 19.5973 25.1297 19.6792 25.2445Z" fill="#BA1313"/>
<path d="M28.8665 19.0297C28.9573 19.1403 29.0282 19.2572 29.0814 19.3802C29.1345 19.5032 29.1655 19.6241 29.1722 19.7409C29.181 19.8578 29.1655 19.9643 29.1257 20.0586C29.088 20.1509 29.0282 20.2267 28.9507 20.282C28.871 20.3394 28.7779 20.3702 28.6694 20.3804C28.5609 20.3907 28.4479 20.3763 28.3283 20.3374C28.2087 20.2984 28.0913 20.239 27.9784 20.1591C27.8632 20.0791 27.7613 19.9828 27.6705 19.8721C27.5797 19.7614 27.5088 19.6446 27.4557 19.5216C27.4025 19.3986 27.3715 19.2777 27.3648 19.1608C27.356 19.044 27.3715 18.9374 27.4114 18.8431C27.449 18.7509 27.5088 18.6751 27.5863 18.6197C27.6661 18.5644 27.7591 18.5316 27.8676 18.5213C27.9762 18.5111 28.0891 18.5254 28.2087 18.5644C28.3283 18.6033 28.4457 18.6628 28.5609 18.7427C28.6738 18.8247 28.7757 18.919 28.8665 19.0297Z" fill="#BA1313"/>
<path d="M37.0241 17.9782C37.1415 18.0623 37.2434 18.1586 37.3275 18.2672C37.4139 18.3738 37.4759 18.4825 37.5158 18.5952C37.5557 18.7059 37.569 18.8125 37.5579 18.9108C37.5446 19.0113 37.5092 19.0974 37.4471 19.1712C37.3851 19.2429 37.3032 19.2962 37.2013 19.331C37.0994 19.3659 36.9864 19.3782 36.8602 19.37C36.7339 19.3597 36.6033 19.329 36.4726 19.2778C36.3397 19.2265 36.2157 19.1589 36.0983 19.0728C35.9809 18.9887 35.879 18.8924 35.7948 18.7858C35.7084 18.6772 35.6464 18.5685 35.6066 18.4579C35.5689 18.3451 35.5534 18.2385 35.5667 18.1401C35.5778 18.0397 35.6154 17.9536 35.6752 17.8798C35.7372 17.8081 35.8192 17.7548 35.9211 17.72C36.023 17.6851 36.1359 17.6728 36.2622 17.6831C36.3884 17.6913 36.5191 17.722 36.6498 17.7732C36.7827 17.8245 36.9067 17.8921 37.0241 17.9782Z" fill="#BA1313"/>
<path d="M28.3393 27.0565C28.4169 27.1774 28.4767 27.3004 28.5143 27.4295C28.5542 27.5566 28.5697 27.6796 28.5653 27.7985C28.5586 27.9173 28.532 28.0219 28.4811 28.11C28.4324 28.2002 28.3659 28.2699 28.2795 28.317C28.1932 28.3662 28.0979 28.3888 27.9872 28.3888C27.8787 28.3867 27.7679 28.3621 27.6527 28.3109C27.5353 28.2617 27.4268 28.19 27.3227 28.0977C27.2164 28.0055 27.1256 27.9009 27.0481 27.7821C26.9706 27.6632 26.913 27.5381 26.8731 27.4111C26.8354 27.2819 26.8177 27.1589 26.8244 27.0401C26.8288 26.9212 26.8576 26.8187 26.9063 26.7285C26.955 26.6383 27.0237 26.5686 27.1079 26.5215C27.1943 26.4723 27.2917 26.4497 27.4002 26.4518C27.5088 26.4518 27.6217 26.4784 27.7369 26.5276C27.8521 26.5789 27.9628 26.6486 28.0669 26.7408C28.171 26.833 28.2618 26.9376 28.3393 27.0565Z" fill="#BA1313"/>
<path d="M18.5673 32.3017C18.6448 32.4206 18.7024 32.5436 18.7401 32.6706C18.78 32.7998 18.7955 32.9228 18.791 33.0396C18.7844 33.1564 18.7578 33.261 18.7091 33.3491C18.6581 33.4393 18.5917 33.509 18.5075 33.5561C18.4211 33.6033 18.3237 33.6279 18.2174 33.6258C18.1088 33.6238 17.9959 33.5992 17.8807 33.5479C17.7678 33.4987 17.657 33.429 17.5529 33.3368C17.4488 33.2466 17.358 33.14 17.2827 33.0211C17.2052 32.9043 17.1476 32.7813 17.1077 32.6522C17.0701 32.5251 17.0523 32.4021 17.059 32.2853C17.0634 32.1664 17.0922 32.0639 17.1409 31.9737C17.1897 31.8835 17.2561 31.8159 17.3425 31.7688C17.4267 31.7196 17.5241 31.697 17.6326 31.697C17.7412 31.6991 17.8519 31.7257 17.9671 31.7749C18.0823 31.8241 18.1908 31.8958 18.2949 31.986C18.399 32.0783 18.4898 32.1828 18.5673 32.3017Z" fill="#BA1313"/>
<path d="M16.6006 40.4822C16.6781 40.6011 16.7357 40.7241 16.7755 40.8532C16.8132 40.9823 16.8309 41.1053 16.8243 41.2242C16.8198 41.341 16.791 41.4456 16.7423 41.5358C16.6936 41.626 16.6249 41.6956 16.5386 41.7428C16.4544 41.7899 16.3569 41.8145 16.2484 41.8125C16.1399 41.8125 16.0269 41.7858 15.9117 41.7366C15.7966 41.6854 15.6858 41.6137 15.5817 41.5235C15.4776 41.4312 15.3868 41.3267 15.3093 41.2058C15.2318 41.0869 15.172 40.9639 15.1343 40.8348C15.0944 40.7077 15.0789 40.5826 15.0834 40.4658C15.09 40.3469 15.1166 40.2424 15.1653 40.1522C15.2163 40.062 15.2827 39.9944 15.3691 39.9452C15.4555 39.898 15.5507 39.8734 15.6615 39.8755C15.77 39.8775 15.8807 39.9021 15.9959 39.9534C16.1133 40.0026 16.2218 40.0743 16.3259 40.1665C16.4322 40.2567 16.523 40.3633 16.6006 40.4822Z" fill="#BA1313"/>
<path d="M26.5897 35.731C26.6672 35.8478 26.7248 35.9728 26.7624 36.0999C26.8023 36.227 26.8178 36.35 26.8134 36.4689C26.8067 36.5857 26.7801 36.6882 26.7292 36.7784C26.6805 36.8686 26.614 36.9362 26.5276 36.9854C26.4435 37.0325 26.346 37.0551 26.2375 37.0551C26.1312 37.053 26.0182 37.0284 25.903 36.9772C25.7901 36.928 25.6793 36.8563 25.5752 36.7661C25.4711 36.6738 25.3803 36.5693 25.305 36.4504C25.2275 36.3315 25.1699 36.2085 25.1301 36.0815C25.0924 35.9523 25.0747 35.8314 25.0813 35.7125C25.0858 35.5957 25.1146 35.4911 25.1633 35.403C25.212 35.3128 25.2785 35.2431 25.3648 35.196C25.449 35.1488 25.5465 35.1263 25.655 35.1263C25.7635 35.1283 25.8743 35.1529 25.9894 35.2042C26.1046 35.2534 26.2131 35.3251 26.3172 35.4153C26.4213 35.5075 26.5121 35.6121 26.5897 35.731Z" fill="#BA1313"/>
<path d="M37.8679 28.0342C37.9742 28.1305 38.065 28.2351 38.1381 28.3498C38.2112 28.4626 38.2622 28.5774 38.2887 28.6922C38.3175 28.8069 38.3197 28.9135 38.2976 29.0119C38.2754 29.1103 38.2289 29.1943 38.1603 29.2599C38.0916 29.3276 38.0052 29.3727 37.8989 29.3973C37.7948 29.4219 37.6796 29.4239 37.5556 29.4034C37.4294 29.3829 37.3053 29.3419 37.1791 29.2784C37.0528 29.2148 36.9354 29.1369 36.8291 29.0406C36.7206 28.9443 36.6298 28.8397 36.5567 28.7249C36.4836 28.6122 36.4327 28.4974 36.4061 28.3826C36.3773 28.2679 36.3751 28.1613 36.3972 28.0629C36.4216 27.9645 36.4659 27.8805 36.5345 27.8149C36.6032 27.7472 36.6918 27.7021 36.7959 27.6775C36.9 27.6529 37.0152 27.6509 37.1414 27.6714C37.2655 27.6919 37.3917 27.7329 37.5157 27.7964C37.642 27.86 37.7594 27.9378 37.8679 28.0342Z" fill="#BA1313"/>
<path d="M46.59 21.9506C46.6985 22.0469 46.7894 22.1514 46.8624 22.2662C46.9355 22.381 46.9843 22.4958 47.0131 22.6106C47.0396 22.7254 47.0419 22.832 47.0197 22.9303C46.9976 23.0287 46.9533 23.1107 46.8846 23.1763C46.8137 23.2439 46.7273 23.289 46.6232 23.3157C46.5191 23.3403 46.404 23.3423 46.2777 23.3218C46.1537 23.3013 46.0274 23.2583 45.9012 23.1948C45.7772 23.1333 45.6598 23.0533 45.5512 22.957C45.4427 22.8606 45.3541 22.7561 45.281 22.6434C45.2057 22.5286 45.157 22.4138 45.1282 22.299C45.1016 22.1842 45.0994 22.0777 45.1215 21.9793C45.1437 21.8809 45.1902 21.7989 45.2589 21.7312C45.3275 21.6657 45.4139 21.6185 45.518 21.5939C45.6243 21.5693 45.7395 21.5673 45.8635 21.5878C45.9876 21.6083 46.1138 21.6493 46.2401 21.7128C46.3663 21.7763 46.4815 21.8563 46.59 21.9506Z" fill="#BA1313"/>
<path d="M48.3885 29.9773C48.4948 30.0736 48.5857 30.1782 48.6587 30.293C48.7318 30.4057 48.7828 30.5205 48.8116 30.6353C48.8381 30.7501 48.8404 30.8566 48.8182 30.955C48.7961 31.0534 48.7496 31.1354 48.6809 31.203C48.6122 31.2707 48.5258 31.3158 48.4217 31.3404C48.3154 31.365 48.2003 31.367 48.0762 31.3465C47.9522 31.326 47.8259 31.285 47.6997 31.2215C47.5734 31.1579 47.4561 31.078 47.3497 30.9837C47.2412 30.8874 47.1504 30.7828 47.0773 30.6681C47.0042 30.5533 46.9533 30.4405 46.9267 30.3258C46.9001 30.2089 46.8957 30.1023 46.9201 30.0039C46.9422 29.9076 46.9865 29.8236 47.0552 29.758C47.1238 29.6903 47.2124 29.6452 47.3165 29.6206C47.4206 29.594 47.5358 29.592 47.662 29.6145C47.7861 29.635 47.9123 29.676 48.0386 29.7395C48.1626 29.801 48.28 29.881 48.3885 29.9773Z" fill="#BA1313"/>
<path d="M36.8578 37.4302C36.942 37.545 37.0062 37.6638 37.0527 37.7909C37.0992 37.916 37.1214 38.0369 37.1236 38.1558C37.1236 38.2726 37.1037 38.3772 37.0594 38.4694C37.0151 38.5616 36.9531 38.6334 36.8689 38.6846C36.7869 38.7379 36.6917 38.7666 36.5832 38.7707C36.4769 38.7748 36.3639 38.7543 36.2465 38.7092C36.1291 38.6662 36.014 38.6006 35.9054 38.5145C35.7969 38.4284 35.6994 38.328 35.6153 38.2132C35.5333 38.0984 35.4669 37.9795 35.4204 37.8524C35.3761 37.7274 35.3517 37.6065 35.3495 37.4876C35.3495 37.3707 35.3716 37.2662 35.4137 37.174C35.458 37.0817 35.5222 37.01 35.6042 36.9587C35.6861 36.9054 35.7814 36.8788 35.8899 36.8747C35.9984 36.8706 36.1114 36.889 36.2288 36.9341C36.3462 36.9772 36.4591 37.0428 36.5677 37.1289C36.6762 37.215 36.7737 37.3154 36.8578 37.4302Z" fill="#BA1313"/>
<path d="M24.7225 43.5957C24.8 43.7146 24.8576 43.8376 24.8952 43.9647C24.9351 44.0938 24.9506 44.2168 24.9462 44.3336C24.9395 44.4505 24.913 44.555 24.8642 44.6452C24.8155 44.7333 24.7468 44.803 24.6627 44.8502C24.5763 44.8973 24.4811 44.9219 24.3725 44.9199C24.264 44.9199 24.151 44.8932 24.0381 44.844C23.9229 44.7928 23.8122 44.7231 23.7081 44.6308C23.6062 44.5407 23.5154 44.4341 23.4378 44.3172C23.3603 44.1984 23.3027 44.0754 23.2629 43.9462C23.2252 43.8192 23.2075 43.6962 23.2141 43.5793C23.2186 43.4604 23.2474 43.358 23.2961 43.2678C23.3448 43.1776 23.4135 43.1099 23.4976 43.0628C23.584 43.0136 23.6793 42.9911 23.7878 42.9931C23.8963 42.9931 24.0071 43.0198 24.1222 43.0689C24.2374 43.1202 24.3459 43.1899 24.45 43.2821C24.5541 43.3723 24.645 43.4768 24.7225 43.5957Z" fill="#BA1313"/>
<path d="M14.7466 47.7874C14.8241 47.9063 14.8817 48.0293 14.9216 48.1564C14.9592 48.2855 14.977 48.4085 14.9703 48.5253C14.9637 48.6422 14.9371 48.7467 14.8884 48.8369C14.8396 48.925 14.771 48.9947 14.6868 49.0419C14.6004 49.089 14.5052 49.1136 14.3967 49.1116C14.2881 49.1116 14.1774 49.0849 14.0622 49.0357C13.947 48.9845 13.8385 48.9148 13.7344 48.8226C13.6303 48.7324 13.5395 48.6258 13.462 48.5089C13.3845 48.3901 13.3269 48.2671 13.287 48.1379C13.2494 48.0109 13.2339 47.8879 13.2383 47.771C13.2449 47.6522 13.2715 47.5497 13.3202 47.4595C13.369 47.3693 13.4376 47.3017 13.5218 47.2545C13.6082 47.2053 13.7034 47.1828 13.8119 47.1848C13.9205 47.1848 14.0312 47.2115 14.1464 47.2607C14.2616 47.3119 14.3723 47.3816 14.4742 47.4738C14.5783 47.564 14.6691 47.6686 14.7466 47.7874Z" fill="#BA1313"/>
<path d="M22.2219 50.6755C22.3127 50.7862 22.3836 50.903 22.4367 51.026C22.4899 51.149 22.5209 51.2699 22.5275 51.3867C22.5364 51.5036 22.5209 51.6102 22.4832 51.7045C22.4434 51.7987 22.3858 51.8725 22.306 51.9279C22.2263 51.9853 22.1333 52.0181 22.0248 52.0263C21.9184 52.0365 21.8033 52.0222 21.6837 51.9832C21.5641 51.9443 21.4467 51.8848 21.3337 51.8049C21.2185 51.7249 21.1167 51.6286 21.0258 51.5179C20.9372 51.4093 20.8642 51.2925 20.811 51.1695C20.7578 51.0444 20.7268 50.9256 20.7202 50.8067C20.7113 50.6898 20.7268 50.5832 20.7667 50.491C20.8044 50.3967 20.8642 50.3209 20.9439 50.2655C21.0214 50.2102 21.1167 50.1774 21.223 50.1672C21.3315 50.159 21.4445 50.1733 21.5641 50.2102C21.6859 50.2491 21.8011 50.3086 21.9162 50.3885C22.0292 50.4705 22.1311 50.5648 22.2219 50.6755Z" fill="#BA1313"/>
<path d="M33.0328 45.6721C33.1236 45.7808 33.1945 45.8976 33.2476 46.0206C33.3008 46.1456 33.3318 46.2645 33.3407 46.3834C33.3473 46.5002 33.3318 46.6068 33.2942 46.699C33.2543 46.7933 33.1967 46.8692 33.117 46.9245C33.0372 46.9798 32.9442 47.0126 32.8357 47.0229C32.7294 47.0311 32.6142 47.0167 32.4946 46.9798C32.375 46.9409 32.2576 46.8815 32.1446 46.8015C32.0295 46.7195 31.9276 46.6252 31.8368 46.5146C31.7482 46.4039 31.6751 46.287 31.6219 46.1641C31.5688 46.0411 31.54 45.9201 31.5311 45.8033C31.5222 45.6844 31.5377 45.5799 31.5776 45.4856C31.6153 45.3913 31.6751 45.3175 31.7548 45.2622C31.8323 45.2048 31.9276 45.172 32.0339 45.1638C32.1424 45.1535 32.2554 45.1679 32.375 45.2068C32.4968 45.2458 32.612 45.3052 32.7271 45.3852C32.8401 45.4651 32.942 45.5614 33.0328 45.6721Z" fill="#BA1313"/>
<path d="M47.1261 37.0387C47.2169 37.1494 47.2877 37.2662 47.3409 37.3892C47.3941 37.5122 47.4251 37.6331 47.4339 37.7499C47.4406 37.8668 47.4251 37.9734 47.3874 38.0676C47.3475 38.1599 47.29 38.2357 47.2102 38.2911C47.1305 38.3485 47.0375 38.3813 46.9289 38.3895C46.8226 38.3997 46.7074 38.3854 46.5878 38.3464C46.4682 38.3075 46.3508 38.248 46.2379 38.1681C46.1227 38.0881 46.0208 37.9918 45.9322 37.8811C45.8414 37.7704 45.7683 37.6556 45.7152 37.5306C45.662 37.4076 45.6332 37.2887 45.6244 37.1699C45.6155 37.053 45.631 36.9464 45.6709 36.8522C45.7085 36.7599 45.7683 36.6841 45.8481 36.6287C45.9256 36.5734 46.0208 36.5406 46.1271 36.5303C46.2357 36.5201 46.3486 36.5365 46.4705 36.5734C46.5901 36.6123 46.7052 36.6718 46.8204 36.7517C46.9334 36.8337 47.0352 36.928 47.1261 37.0387Z" fill="#BA1313"/>
<path d="M44.5369 46.6744C44.6277 46.7851 44.6986 46.902 44.7517 47.025C44.8049 47.1479 44.8359 47.2689 44.8447 47.3857C44.8514 47.5046 44.8359 47.6091 44.7982 47.7034C44.7606 47.7977 44.7008 47.8715 44.621 47.9268C44.5413 47.9842 44.4483 48.017 44.342 48.0252C44.2334 48.0355 44.1183 48.0211 43.9987 47.9822C43.8791 47.9432 43.7617 47.8838 43.6487 47.8039C43.5358 47.7239 43.4339 47.6276 43.3431 47.5169C43.2522 47.4083 43.1814 47.2914 43.1282 47.1684C43.0751 47.0434 43.044 46.9245 43.0352 46.8056C43.0285 46.6888 43.044 46.5822 43.0817 46.49C43.1194 46.3957 43.1792 46.3198 43.2589 46.2645C43.3386 46.2092 43.4317 46.1764 43.5402 46.1661C43.6465 46.1579 43.7617 46.1723 43.8813 46.2092C44.0009 46.2481 44.1183 46.3075 44.2312 46.3875C44.3442 46.4695 44.4461 46.5638 44.5369 46.6744Z" fill="#BA1313"/>
<path d="M50.8183 55.2423C50.9069 55.353 50.98 55.4698 51.0332 55.5928C51.0863 55.7178 51.1173 55.8367 51.124 55.9556C51.1328 56.0724 51.1173 56.177 51.0775 56.2712C51.0398 56.3655 50.98 56.4414 50.9025 56.4967C50.8228 56.5521 50.7297 56.5848 50.6212 56.5951C50.5127 56.6033 50.3997 56.5889 50.2801 56.5521C50.1605 56.5131 50.0431 56.4537 49.9279 56.3717C49.815 56.2917 49.7131 56.1974 49.6223 56.0868C49.5315 55.9761 49.4606 55.8592 49.4074 55.7363C49.3543 55.6133 49.3233 55.4923 49.3166 55.3755C49.3078 55.2566 49.3233 55.1521 49.3609 55.0578C49.4008 54.9635 49.4584 54.8897 49.5381 54.8323C49.6179 54.777 49.7109 54.7442 49.8194 54.736C49.9279 54.7257 50.0409 54.7401 50.1605 54.779C50.2801 54.818 50.3975 54.8774 50.5105 54.9574C50.6256 55.0373 50.7275 55.1336 50.8183 55.2423Z" fill="#BA1313"/>
<path d="M31.6064 54.1682C31.6839 54.2871 31.7415 54.4101 31.7791 54.5372C31.819 54.6663 31.8345 54.7893 31.8301 54.9061C31.8234 55.023 31.7969 55.1275 31.7481 55.2177C31.6972 55.3058 31.6307 55.3755 31.5466 55.4227C31.4602 55.4698 31.3627 55.4944 31.2564 55.4924C31.1479 55.4924 31.0349 55.4657 30.922 55.4165C30.8068 55.3653 30.6961 55.2956 30.592 55.2034C30.4879 55.1132 30.3993 55.0066 30.3218 54.8897C30.2442 54.7709 30.1866 54.6479 30.1468 54.5187C30.1091 54.3917 30.0914 54.2687 30.0981 54.1518C30.1025 54.033 30.1313 53.9305 30.18 53.8403C30.2287 53.7501 30.2952 53.6825 30.3816 53.6353C30.4657 53.5861 30.5632 53.5636 30.6717 53.5656C30.7802 53.5656 30.891 53.5923 31.0062 53.6415C31.1213 53.6927 31.2299 53.7624 31.334 53.8546C31.4381 53.9448 31.5289 54.0494 31.6064 54.1682Z" fill="#BA1313"/>
<path d="M40.1425 55.3592C40.22 55.4781 40.2776 55.6011 40.3153 55.7281C40.3551 55.8552 40.3707 55.9782 40.3662 56.0971C40.3596 56.2139 40.333 56.3185 40.2843 56.4066C40.2333 56.4968 40.1669 56.5644 40.0827 56.6136C39.9963 56.6608 39.9011 56.6833 39.7926 56.6833C39.684 56.6813 39.5711 56.6567 39.4581 56.6054C39.3429 56.5562 39.2322 56.4845 39.1281 56.3943C39.0262 56.3021 38.9354 56.1975 38.8579 56.0786C38.7804 55.9598 38.7228 55.8368 38.6829 55.7097C38.6453 55.5826 38.6275 55.4596 38.6342 55.3407C38.6386 55.2239 38.6674 55.1194 38.7161 55.0312C38.7649 54.941 38.8335 54.8734 38.9177 54.8242C39.0019 54.7771 39.0993 54.7545 39.2078 54.7545C39.3164 54.7566 39.4271 54.7812 39.5423 54.8324C39.6575 54.8816 39.766 54.9533 39.8701 55.0435C39.9742 55.1358 40.065 55.2403 40.1425 55.3592Z" fill="#BA1313"/>
<path d="M54.3267 45.6106C54.4042 45.7295 54.4618 45.8525 54.5017 45.9816C54.5393 46.1087 54.557 46.2317 54.5504 46.3485C54.546 46.4674 54.5172 46.5699 54.4684 46.6601C54.4197 46.7503 54.3511 46.8179 54.2669 46.865C54.1805 46.9142 54.0853 46.9368 53.9767 46.9347C53.8682 46.9347 53.7575 46.9081 53.6423 46.8589C53.5271 46.8097 53.4186 46.738 53.3145 46.6478C53.2104 46.5555 53.1196 46.451 53.0421 46.3321C52.9645 46.2132 52.907 46.0902 52.8693 45.9632C52.8294 45.834 52.8139 45.7111 52.8184 45.5942C52.825 45.4774 52.8516 45.3728 52.9003 45.2827C52.949 45.1945 53.0177 45.1248 53.1019 45.0777C53.1882 45.0305 53.2835 45.0059 53.392 45.008C53.5005 45.01 53.6135 45.0346 53.7265 45.0838C53.8416 45.1351 53.9524 45.2048 54.0565 45.297C54.1584 45.3872 54.2492 45.4938 54.3267 45.6106Z" fill="#BA1313"/>
<path d="M10.1907 35.9113C10.2461 36.0404 10.2815 36.1696 10.297 36.3028C10.3125 36.434 10.3059 36.557 10.2793 36.6738C10.2527 36.7886 10.2084 36.887 10.1442 36.9669C10.08 37.0469 10.0002 37.1042 9.90941 37.1391C9.81638 37.1739 9.71671 37.1821 9.6104 37.1637C9.50408 37.1452 9.39777 37.1042 9.29367 37.0366C9.18957 36.971 9.09433 36.8829 9.00795 36.7783C8.92157 36.6718 8.85069 36.5549 8.79532 36.4258C8.73995 36.2966 8.70451 36.1675 8.689 36.0343C8.6735 35.9031 8.68015 35.7801 8.70451 35.6633C8.73109 35.5485 8.7776 35.4501 8.84183 35.3702C8.90606 35.2902 8.98358 35.2328 9.07661 35.198C9.16963 35.1631 9.2693 35.1549 9.37562 35.1734C9.48193 35.1918 9.58825 35.2328 9.69235 35.3005C9.79645 35.3661 9.89169 35.4542 9.97807 35.5587C10.0644 35.6653 10.1353 35.7822 10.1907 35.9113Z" fill="#BA1313"/>
<path d="M9.11197 43.2452C9.19614 43.36 9.26037 43.4809 9.30688 43.606C9.3534 43.733 9.37555 43.854 9.37776 43.9708C9.37776 44.0897 9.35783 44.1942 9.31353 44.2865C9.26923 44.3787 9.20721 44.4504 9.12305 44.5017C9.0411 44.5529 8.94586 44.5816 8.83733 44.5857C8.73101 44.5898 8.61805 44.5693 8.50067 44.5263C8.38106 44.4812 8.2681 44.4156 8.15957 44.3295C8.05104 44.2455 7.95359 44.145 7.86942 44.0302C7.78526 43.9155 7.72103 43.7945 7.67451 43.6695C7.628 43.5445 7.60585 43.4215 7.60364 43.3046C7.60364 43.1858 7.62357 43.0812 7.66787 42.989C7.71217 42.8988 7.7764 42.8271 7.85835 42.7738C7.9403 42.7225 8.03554 42.6938 8.14407 42.6897C8.2526 42.6856 8.36556 42.7061 8.48295 42.7492C8.60034 42.7943 8.71329 42.8598 8.82182 42.9459C8.93035 43.032 9.02781 43.1325 9.11197 43.2452Z" fill="#BA1313"/>
<path d="M36.6386 11.3022C36.7648 11.376 36.8756 11.4621 36.973 11.5584C37.0683 11.6568 37.1436 11.7593 37.1945 11.8679C37.2455 11.9745 37.2721 12.079 37.2721 12.1795C37.2698 12.2799 37.2433 12.3701 37.1901 12.448C37.1369 12.5259 37.0616 12.5874 36.9642 12.6304C36.8689 12.6755 36.756 12.6981 36.6297 12.7022C36.5013 12.7042 36.3706 12.6858 36.2333 12.6489C36.0959 12.6099 35.9653 12.5546 35.839 12.4808C35.7128 12.407 35.5998 12.3209 35.5046 12.2225C35.4071 12.1241 35.334 12.0216 35.2809 11.913C35.2299 11.8064 35.2056 11.7019 35.2056 11.6015C35.2056 11.501 35.2321 11.4129 35.2853 11.335C35.3385 11.255 35.4138 11.1956 35.5112 11.1505C35.6087 11.1075 35.7216 11.0829 35.8479 11.0808C35.9741 11.0767 36.107 11.0952 36.2443 11.1341C36.3795 11.171 36.5123 11.2284 36.6386 11.3022Z" fill="#BA1313"/>
<path d="M13.9936 22.6515C14.0579 22.7766 14.1022 22.9057 14.1265 23.0348C14.1509 23.166 14.1553 23.291 14.1354 23.4058C14.1177 23.5227 14.08 23.6231 14.0224 23.7071C13.9626 23.7932 13.8895 23.8547 13.7987 23.8937C13.7079 23.9347 13.6105 23.949 13.5019 23.9367C13.3956 23.9265 13.2871 23.8896 13.1786 23.8301C13.0678 23.7686 12.9682 23.6887 12.8729 23.5883C12.7799 23.4878 12.7024 23.3751 12.6381 23.2501C12.5739 23.125 12.5296 22.9979 12.503 22.8668C12.4787 22.7356 12.4765 22.6126 12.4942 22.4958C12.5119 22.3789 12.5495 22.2785 12.6093 22.1944C12.6669 22.1104 12.7422 22.0469 12.8308 22.0079C12.9216 21.969 13.0213 21.9546 13.1276 21.9649C13.2362 21.9772 13.3447 22.012 13.4532 22.0715C13.5617 22.133 13.6636 22.2129 13.7567 22.3133C13.8497 22.4138 13.9294 22.5265 13.9936 22.6515Z" fill="#BA1313"/>
<path d="M27.3626 12.4296C27.4955 12.4951 27.6129 12.573 27.717 12.6632C27.8211 12.7555 27.903 12.8518 27.9628 12.9563C28.0226 13.0609 28.0581 13.1613 28.0647 13.2617C28.0714 13.3622 28.0514 13.4524 28.0049 13.5344C27.9584 13.6164 27.8875 13.6819 27.7945 13.7332C27.7015 13.7844 27.5907 13.8152 27.4645 13.8254C27.3382 13.8377 27.2054 13.8295 27.0658 13.8008C26.9263 13.7721 26.7912 13.725 26.6583 13.6594C26.5276 13.5938 26.408 13.5159 26.3061 13.4257C26.202 13.3335 26.1201 13.2372 26.058 13.1326C25.9982 13.0281 25.965 12.9276 25.9584 12.8272C25.9517 12.7268 25.9694 12.6366 26.0182 12.5546C26.0647 12.4726 26.1334 12.407 26.2286 12.3558C26.3216 12.3066 26.4301 12.2738 26.5564 12.2635C26.6826 12.2512 26.8177 12.2594 26.9573 12.2881C27.0968 12.3168 27.2319 12.364 27.3626 12.4296Z" fill="#BA1313"/>
<path d="M4.36994 31.4634C4.3943 31.6007 4.39651 31.734 4.38101 31.8651C4.36551 31.9984 4.33228 32.1173 4.27912 32.2238C4.22597 32.3325 4.15952 32.4186 4.07757 32.4842C3.99562 32.5497 3.90481 32.5907 3.80735 32.6051C3.7099 32.6194 3.61023 32.6071 3.51056 32.5682C3.41089 32.5293 3.31787 32.4678 3.23148 32.3817C3.1451 32.2935 3.07201 32.191 3.01221 32.0701C2.95241 31.9492 2.91033 31.82 2.88818 31.6827C2.86381 31.5474 2.85938 31.4121 2.87489 31.281C2.89261 31.1477 2.92583 31.0288 2.97899 30.9223C3.03215 30.8157 3.09859 30.7275 3.18054 30.6619C3.26249 30.5964 3.3533 30.5574 3.45076 30.541C3.54821 30.5267 3.64788 30.539 3.74755 30.5779C3.84722 30.6169 3.94025 30.6804 4.02663 30.7665C4.11301 30.8526 4.1861 30.9551 4.2459 31.076C4.3057 31.1969 4.34557 31.3261 4.36994 31.4634Z" fill="#F2E861"/>
<path d="M10.8706 29.2435C10.9348 29.3685 10.9791 29.4977 11.0035 29.6289C11.0279 29.758 11.0323 29.883 11.0124 29.9999C10.9946 30.1167 10.957 30.2171 10.8972 30.3012C10.8396 30.3852 10.7643 30.4467 10.6757 30.4877C10.5849 30.5266 10.4874 30.541 10.3789 30.5307C10.2726 30.5184 10.1641 30.4836 10.0555 30.4221C9.94478 30.3627 9.84511 30.2807 9.74987 30.1802C9.65684 30.0798 9.57711 29.9671 9.51509 29.842C9.45086 29.717 9.40435 29.5899 9.37998 29.4587C9.35562 29.3276 9.3534 29.2046 9.37112 29.0877C9.38884 28.9709 9.42649 28.8705 9.4863 28.7864C9.54388 28.7024 9.61919 28.6409 9.70778 28.5999C9.79859 28.561 9.89605 28.5466 10.0046 28.5569C10.1131 28.5692 10.2194 28.604 10.3302 28.6655C10.4387 28.7249 10.5384 28.8049 10.6336 28.9053C10.7266 29.0057 10.8064 29.1185 10.8706 29.2435Z" fill="#F2E861"/>
<path d="M19.2296 24.9965C19.3138 25.1113 19.378 25.2322 19.4246 25.3572C19.4711 25.4823 19.4932 25.6053 19.4954 25.7221C19.4954 25.841 19.4755 25.9455 19.4312 26.0377C19.3869 26.1279 19.3249 26.2017 19.2407 26.253C19.1588 26.3042 19.0635 26.3329 18.955 26.337C18.8487 26.3411 18.7357 26.3206 18.6183 26.2776C18.501 26.2325 18.3858 26.1669 18.2772 26.0808C18.1687 25.9947 18.0713 25.8943 17.9871 25.7815C17.9051 25.6667 17.8387 25.5458 17.7922 25.4208C17.7479 25.2937 17.7235 25.1728 17.7213 25.0559C17.7213 24.937 17.7435 24.8325 17.7855 24.7403C17.8298 24.648 17.8941 24.5763 17.976 24.525C18.058 24.4738 18.1532 24.4451 18.2617 24.441C18.3703 24.4369 18.4832 24.4574 18.6006 24.5004C18.718 24.5455 18.831 24.6111 18.9395 24.6972C19.048 24.7813 19.1455 24.8817 19.2296 24.9965Z" fill="#F2E861"/>
<path d="M28.5144 19.0933C28.6052 19.2039 28.6783 19.3208 28.7315 19.4438C28.7846 19.5668 28.8134 19.6877 28.8223 19.8045C28.8311 19.9214 28.8156 20.0279 28.7758 20.1222C28.7381 20.2145 28.6783 20.2903 28.5986 20.3456C28.5211 20.403 28.4258 20.4338 28.3195 20.444C28.211 20.4543 28.098 20.4399 27.9762 20.401C27.8566 20.362 27.7414 20.3026 27.6262 20.2227C27.5133 20.1427 27.4114 20.0464 27.3206 19.9357C27.2298 19.825 27.1589 19.7102 27.1058 19.5852C27.0526 19.4622 27.0216 19.3413 27.0127 19.2244C27.0061 19.1076 27.0216 19.001 27.0592 18.9067C27.0991 18.8145 27.1567 18.7387 27.2364 18.6833C27.3162 18.628 27.4092 18.5952 27.5177 18.5849C27.624 18.5747 27.7392 18.589 27.8588 18.628C27.9784 18.6669 28.0958 18.7264 28.2088 18.8063C28.3239 18.8883 28.4258 18.9826 28.5144 19.0933Z" fill="#F2E861"/>
<path d="M36.6741 18.0417C36.7914 18.1257 36.8933 18.2221 36.9775 18.3307C37.0617 18.4373 37.1237 18.5459 37.1635 18.6587C37.2034 18.7694 37.2167 18.8759 37.2056 18.9764C37.1945 19.0748 37.1569 19.1608 37.0949 19.2346C37.0351 19.3064 36.9531 19.3597 36.8512 19.3945C36.7494 19.4294 36.6342 19.4417 36.5079 19.4335C36.3817 19.4232 36.2532 19.3925 36.1203 19.3412C35.9897 19.29 35.8634 19.2223 35.746 19.1363C35.6286 19.0522 35.529 18.9559 35.4426 18.8493C35.3584 18.7427 35.2964 18.632 35.2565 18.5213C35.2167 18.4086 35.2034 18.302 35.2144 18.2036C35.2277 18.1032 35.2632 18.0171 35.3252 17.9433C35.3872 17.8716 35.4669 17.8183 35.5688 17.7834C35.6707 17.7486 35.7859 17.7363 35.9121 17.7465C36.0384 17.7547 36.1668 17.7855 36.2997 17.8367C36.4326 17.888 36.5567 17.9556 36.6741 18.0417Z" fill="#F2E861"/>
<path d="M27.6418 27.081C27.7171 27.1999 27.7769 27.3229 27.8145 27.45C27.8544 27.5791 27.8699 27.7021 27.8633 27.8189C27.8588 27.9358 27.8323 28.0403 27.7813 28.1305C27.7326 28.2186 27.6661 28.2883 27.5798 28.3355C27.4956 28.3826 27.3981 28.4072 27.2896 28.4051C27.1811 28.4031 27.0703 28.3785 26.9552 28.3293C26.84 28.2781 26.7315 28.2084 26.6274 28.1161C26.5233 28.0259 26.4325 27.9194 26.3549 27.8025C26.2796 27.6836 26.2198 27.5607 26.1822 27.4315C26.1423 27.3044 26.1268 27.1815 26.1334 27.0646C26.1379 26.9457 26.1645 26.8433 26.2154 26.7531C26.2641 26.6629 26.3306 26.5952 26.417 26.5481C26.5011 26.4989 26.5986 26.4763 26.7071 26.4784C26.8156 26.4784 26.9264 26.505 27.0415 26.5542C27.1567 26.6055 27.2653 26.6752 27.3694 26.7674C27.4735 26.8576 27.5643 26.9621 27.6418 27.081Z" fill="#F2E861"/>
<path d="M18.5408 32.4534C18.6183 32.5723 18.6759 32.6953 18.7157 32.8244C18.7556 32.9535 18.7711 33.0765 18.7667 33.1933C18.76 33.3122 18.7335 33.4168 18.6825 33.507C18.6338 33.5971 18.5673 33.6648 18.481 33.714C18.3946 33.7611 18.2971 33.7857 18.1886 33.7837C18.0801 33.7816 17.9693 33.757 17.8519 33.7058C17.7368 33.6566 17.6282 33.5848 17.5241 33.4926C17.4178 33.4024 17.327 33.2958 17.2495 33.177C17.172 33.0581 17.1144 32.9351 17.0745 32.806C17.0369 32.6768 17.0191 32.5538 17.0258 32.4349C17.0302 32.3181 17.059 32.2136 17.1077 32.1234C17.1565 32.0332 17.2251 31.9656 17.3093 31.9164C17.3957 31.8692 17.4931 31.8446 17.6017 31.8467C17.7102 31.8467 17.8231 31.8733 17.9383 31.9246C18.0535 31.9738 18.1642 32.0455 18.2683 32.1357C18.3724 32.2279 18.4632 32.3345 18.5408 32.4534Z" fill="#F2E861"/>
<path d="M15.9073 40.4207C15.9848 40.5375 16.0424 40.6605 16.0822 40.7897C16.1199 40.9167 16.1376 41.0397 16.131 41.1566C16.1243 41.2754 16.0977 41.3779 16.049 41.4681C16.0003 41.5583 15.9316 41.6259 15.8475 41.6751C15.7611 41.7223 15.6658 41.7448 15.5573 41.7448C15.4488 41.7428 15.338 41.7161 15.2229 41.6669C15.1077 41.6178 14.9992 41.546 14.8951 41.4558C14.791 41.3636 14.7001 41.259 14.6226 41.1402C14.5451 41.0213 14.4875 40.8983 14.4499 40.7712C14.41 40.6421 14.3945 40.5191 14.3989 40.4023C14.4056 40.2854 14.4321 40.1809 14.4809 40.0928C14.5296 40.0026 14.5983 39.9329 14.6824 39.8857C14.7688 39.8386 14.8641 39.814 14.9726 39.816C15.0811 39.8181 15.1941 39.8427 15.307 39.8939C15.4222 39.9431 15.5329 40.0128 15.6348 40.105C15.7389 40.1952 15.8297 40.3018 15.9073 40.4207Z" fill="#F2E861"/>
<path d="M26.2375 35.7944C26.315 35.9133 26.3726 36.0363 26.4124 36.1634C26.4501 36.2905 26.4678 36.4134 26.4612 36.5323C26.4567 36.6492 26.4279 36.7517 26.3792 36.8418C26.3305 36.932 26.264 36.9997 26.1777 37.0489C26.0935 37.096 25.996 37.1186 25.8875 37.1186C25.779 37.1165 25.6682 37.0919 25.5531 37.0407C25.4379 36.9915 25.3294 36.9197 25.2253 36.8295C25.1212 36.7373 25.0304 36.6328 24.9528 36.5139C24.8753 36.395 24.8177 36.272 24.7801 36.1449C24.7402 36.0158 24.7247 35.8949 24.7291 35.776C24.7358 35.6591 24.7623 35.5546 24.8133 35.4665C24.862 35.3763 24.9285 35.3066 25.0148 35.2594C25.099 35.2123 25.1965 35.1898 25.305 35.1898C25.4113 35.1918 25.5243 35.2164 25.6394 35.2676C25.7524 35.3168 25.8631 35.3886 25.9672 35.4788C26.0713 35.571 26.1622 35.6755 26.2375 35.7944Z" fill="#F2E861"/>
<path d="M37.5156 28.0977C37.6241 28.1941 37.7149 28.2986 37.788 28.4134C37.8611 28.5261 37.9121 28.6409 37.9386 28.7557C37.9674 28.8705 37.9696 28.9771 37.9475 29.0754C37.9253 29.1738 37.8788 29.2579 37.8102 29.3235C37.7415 29.3911 37.6551 29.4362 37.5488 29.4608C37.4447 29.4854 37.3295 29.4874 37.2055 29.4669C37.0793 29.4464 36.9552 29.4055 36.829 29.3419C36.7027 29.2784 36.5853 29.2005 36.4768 29.1041C36.3705 29.0078 36.2797 28.9033 36.2066 28.7885C36.1335 28.6757 36.0826 28.561 36.056 28.4462C36.0272 28.3314 36.025 28.2228 36.0471 28.1264C36.0693 28.028 36.1158 27.944 36.1844 27.8784C36.2531 27.8108 36.3395 27.7657 36.4458 27.7411C36.5499 27.7165 36.6651 27.7144 36.7891 27.7349C36.9154 27.7554 37.0394 27.7964 37.1656 27.86C37.2919 27.9235 37.4093 28.0014 37.5156 28.0977Z" fill="#F2E861"/>
<path d="M46.2401 22.0141C46.3464 22.1104 46.4372 22.215 46.5103 22.3298C46.5834 22.4425 46.6343 22.5573 46.6631 22.6721C46.6897 22.7889 46.6919 22.8955 46.6698 22.9918C46.6476 23.0902 46.6011 23.1743 46.5325 23.2398C46.4638 23.3075 46.3774 23.3526 46.2733 23.3772C46.167 23.4018 46.0518 23.4059 45.9278 23.3833C45.8038 23.3628 45.6775 23.3218 45.5513 23.2583C45.425 23.1948 45.3098 23.1169 45.2013 23.0205C45.0928 22.9242 45.002 22.8197 44.9289 22.7049C44.8558 22.5921 44.8048 22.4773 44.7783 22.3626C44.7517 22.2478 44.7473 22.1412 44.7716 22.0428C44.7938 21.9444 44.8381 21.8604 44.9067 21.7948C44.9754 21.7271 45.064 21.6821 45.1681 21.6575C45.2722 21.6329 45.3874 21.6308 45.5136 21.6513C45.6376 21.6718 45.7639 21.7128 45.8901 21.7763C46.0142 21.8399 46.1316 21.9178 46.2401 22.0141Z" fill="#F2E861"/>
<path d="M48.0365 30.0409C48.145 30.1372 48.2358 30.2417 48.3089 30.3565C48.382 30.4693 48.4329 30.5841 48.4595 30.6988C48.4883 30.8136 48.4905 30.9202 48.4684 31.0186C48.4462 31.117 48.3997 31.199 48.331 31.2666C48.2624 31.3322 48.176 31.3793 48.0697 31.4039C47.9656 31.4285 47.8504 31.4306 47.7264 31.4101C47.6001 31.3896 47.4761 31.3486 47.3499 31.2851C47.2236 31.2215 47.1062 31.1416 46.9977 31.0473C46.8914 30.951 46.8006 30.8464 46.7275 30.7316C46.6544 30.6168 46.6034 30.5041 46.5769 30.3873C46.5481 30.2725 46.5459 30.1659 46.568 30.0675C46.5901 29.9691 46.6367 29.8871 46.7053 29.8216C46.774 29.7539 46.8604 29.7088 46.9667 29.6842C47.0708 29.6576 47.186 29.6555 47.31 29.676C47.4362 29.6965 47.5603 29.7396 47.6865 29.8031C47.8128 29.8646 47.9302 29.9445 48.0365 30.0409Z" fill="#F2E861"/>
<path d="M36.5058 37.4937C36.5899 37.6084 36.6564 37.7294 36.7007 37.8544C36.7472 37.9794 36.7716 38.1024 36.7716 38.2193C36.7738 38.3361 36.7516 38.4427 36.7096 38.5329C36.6653 38.6251 36.601 38.6968 36.5191 38.7501C36.4371 38.8014 36.3419 38.8301 36.2334 38.8342C36.1248 38.8383 36.0119 38.8178 35.8945 38.7727C35.7771 38.7296 35.6641 38.6641 35.5556 38.578C35.4449 38.4919 35.3496 38.3914 35.2654 38.2767C35.1813 38.1619 35.1171 38.043 35.0705 37.9159C35.024 37.7909 34.9997 37.6699 34.9997 37.551C34.9974 37.4342 35.0196 37.3297 35.0639 37.2374C35.1082 37.1452 35.1702 37.0735 35.2522 37.0222C35.3363 36.9689 35.4316 36.9423 35.5379 36.9382C35.6464 36.9341 35.7594 36.9525 35.8768 36.9976C35.9941 37.0427 36.1071 37.1063 36.2178 37.1923C36.3264 37.2784 36.4238 37.3789 36.5058 37.4937Z" fill="#F2E861"/>
<path d="M24.3725 43.6593C24.45 43.7782 24.5076 43.9011 24.5453 44.0282C24.5851 44.1574 24.6006 44.2803 24.5962 44.3972C24.5896 44.514 24.563 44.6185 24.512 44.7087C24.4633 44.7969 24.3969 44.8666 24.3105 44.9137C24.2263 44.9608 24.1289 44.9854 24.0203 44.9834C23.914 44.9834 23.8011 44.9567 23.6859 44.9076C23.5729 44.8563 23.4622 44.7866 23.3581 44.6944C23.254 44.6042 23.1632 44.4976 23.0879 44.3808C23.0103 44.2619 22.9528 44.1389 22.9129 44.0098C22.8752 43.8827 22.8575 43.7597 22.8642 43.6429C22.8686 43.524 22.8974 43.4215 22.9461 43.3313C22.9948 43.2411 23.0613 43.1735 23.1477 43.1263C23.2318 43.0771 23.3293 43.0546 23.4378 43.0566C23.5463 43.0566 23.6571 43.0833 23.7723 43.1325C23.8874 43.1837 23.996 43.2534 24.1001 43.3457C24.2042 43.4358 24.295 43.5404 24.3725 43.6593Z" fill="#F2E861"/>
<path d="M14.3967 47.851C14.472 47.9699 14.5318 48.0929 14.5694 48.22C14.6071 48.3491 14.6248 48.47 14.6181 48.5889C14.6137 48.7057 14.5849 48.8103 14.5362 48.8984C14.4875 48.9886 14.421 49.0583 14.3346 49.1054C14.2505 49.1526 14.153 49.1772 14.0445 49.1751C13.936 49.1731 13.8252 49.1485 13.71 49.0972C13.5949 49.0481 13.4863 48.9763 13.3822 48.8861C13.2781 48.7939 13.1873 48.6893 13.1098 48.5705C13.0345 48.4536 12.9747 48.3286 12.9371 48.2015C12.8972 48.0744 12.8817 47.9514 12.8861 47.8326C12.8928 47.7157 12.9193 47.6132 12.9703 47.5231C13.019 47.4329 13.0854 47.3652 13.1718 47.316C13.256 47.2689 13.3534 47.2463 13.462 47.2463C13.5683 47.2484 13.6813 47.275 13.7964 47.3242C13.9116 47.3734 14.0201 47.4452 14.1242 47.5353C14.2283 47.6276 14.3191 47.7321 14.3967 47.851Z" fill="#F2E861"/>
<path d="M21.8719 50.7391C21.9627 50.8497 22.0336 50.9666 22.0867 51.0896C22.1399 51.2125 22.1709 51.3335 22.1776 51.4503C22.1864 51.5671 22.1709 51.6737 22.1333 51.768C22.0934 51.8603 22.0336 51.9361 21.9561 51.9914C21.8763 52.0488 21.7833 52.0816 21.6748 52.0898C21.5663 52.1001 21.4533 52.0857 21.3337 52.0468C21.2141 52.0078 21.0967 51.9484 20.9837 51.8685C20.8686 51.7885 20.7667 51.6922 20.6759 51.5815C20.5851 51.4729 20.5142 51.356 20.461 51.231C20.4079 51.108 20.3769 50.9891 20.3702 50.8702C20.3614 50.7534 20.3769 50.6468 20.4167 50.5525C20.4544 50.4603 20.5142 50.3845 20.5917 50.3291C20.6714 50.2738 20.7645 50.241 20.873 50.2307C20.9815 50.2205 21.0945 50.2369 21.2141 50.2738C21.3337 50.3127 21.4511 50.3722 21.5663 50.4521C21.6792 50.5341 21.7811 50.6284 21.8719 50.7391Z" fill="#F2E861"/>
<path d="M32.6828 45.7336C32.7714 45.8443 32.8445 45.9611 32.8977 46.0841C32.9508 46.2091 32.9818 46.328 32.9885 46.4469C32.9973 46.5637 32.9818 46.6683 32.942 46.7626C32.9043 46.8569 32.8445 46.9327 32.767 46.988C32.6873 47.0434 32.5942 47.0762 32.4857 47.0864C32.3772 47.0946 32.2642 47.0803 32.1446 47.0434C32.0228 47.0044 31.9076 46.945 31.7924 46.863C31.6795 46.7831 31.5776 46.6888 31.4868 46.5781C31.396 46.4674 31.3251 46.3506 31.272 46.2276C31.2188 46.1046 31.1878 45.9837 31.1811 45.8668C31.1723 45.748 31.1878 45.6434 31.2254 45.5491C31.2653 45.4548 31.3229 45.3811 31.4026 45.3237C31.4824 45.2683 31.5754 45.2355 31.6839 45.2273C31.7924 45.2171 31.9054 45.2314 32.025 45.2704C32.1446 45.3093 32.262 45.3688 32.375 45.4487C32.4901 45.5286 32.592 45.625 32.6828 45.7336Z" fill="#F2E861"/>
<path d="M46.7761 37.1022C46.8669 37.2129 46.9378 37.3276 46.9909 37.4527C47.0441 37.5757 47.0751 37.6966 47.0817 37.8134C47.0906 37.9303 47.0751 38.0369 47.0352 38.1311C46.9976 38.2234 46.9378 38.2992 46.8602 38.3546C46.7805 38.4099 46.6875 38.4427 46.579 38.4529C46.4704 38.4632 46.3575 38.4488 46.2379 38.4099C46.1183 38.371 46.0009 38.3115 45.8857 38.2316C45.7727 38.1496 45.6709 38.0553 45.58 37.9446C45.4892 37.8339 45.4184 37.7171 45.3652 37.5941C45.312 37.4711 45.281 37.3502 45.2744 37.2334C45.2655 37.1165 45.281 37.0099 45.3209 36.9156C45.3586 36.8234 45.4184 36.7476 45.4959 36.6922C45.5756 36.6348 45.6686 36.6041 45.7772 36.5938C45.8857 36.5836 45.9987 36.5979 46.1183 36.6369C46.2379 36.6758 46.3553 36.7353 46.4682 36.8152C46.5834 36.8952 46.6853 36.9915 46.7761 37.1022Z" fill="#F2E861"/>
<path d="M44.187 46.7379C44.2778 46.8486 44.3487 46.9654 44.4018 47.0884C44.455 47.2114 44.486 47.3323 44.4948 47.4492C44.5015 47.566 44.486 47.6726 44.4483 47.7669C44.4085 47.8612 44.3509 47.935 44.2711 47.9903C44.1914 48.0477 44.0984 48.0805 43.9898 48.0887C43.8835 48.0989 43.7684 48.0846 43.6488 48.0457C43.5291 48.0067 43.4118 47.9473 43.2988 47.8673C43.1836 47.7874 43.0817 47.6911 42.9931 47.5804C42.9023 47.4717 42.8292 47.3549 42.7761 47.2319C42.7229 47.1069 42.6941 46.988 42.6853 46.8691C42.6764 46.7523 42.6919 46.6457 42.7318 46.5534C42.7694 46.4592 42.8292 46.3833 42.909 46.328C42.9865 46.2726 43.0817 46.2398 43.1881 46.2296C43.2966 46.2214 43.4095 46.2357 43.5314 46.2726C43.651 46.3116 43.7661 46.371 43.8813 46.451C43.9943 46.533 44.0962 46.6272 44.187 46.7379Z" fill="#F2E861"/>
<path d="M50.4661 55.3058C50.557 55.4165 50.6278 55.5334 50.681 55.6563C50.7341 55.7793 50.7652 55.9003 50.774 56.0171C50.7807 56.136 50.7652 56.2405 50.7275 56.3348C50.6876 56.4291 50.63 56.5029 50.5503 56.5603C50.4706 56.6156 50.3775 56.6484 50.269 56.6587C50.1627 56.6669 50.0475 56.6525 49.9279 56.6136C49.8083 56.5767 49.6909 56.5172 49.578 56.4352C49.4628 56.3553 49.3609 56.259 49.2723 56.1503C49.1815 56.0396 49.1084 55.9228 49.0553 55.7998C49.0021 55.6768 48.9733 55.5559 48.9645 55.4391C48.9556 55.3202 48.9711 55.2157 49.011 55.1214C49.0486 55.0271 49.1084 54.9533 49.1882 54.8959C49.2657 54.8406 49.3609 54.8078 49.4672 54.7975C49.5758 54.7893 49.6887 54.8037 49.8105 54.8426C49.9301 54.8795 50.0453 54.9389 50.1605 55.0209C50.2734 55.1009 50.3753 55.1952 50.4661 55.3058Z" fill="#F2E861"/>
<path d="M31.2542 54.2318C31.3317 54.3507 31.3915 54.4736 31.4292 54.6007C31.4668 54.7299 31.4845 54.8528 31.4779 54.9697C31.4735 55.0865 31.4447 55.1911 31.3959 55.2812C31.3472 55.3694 31.2808 55.4391 31.1944 55.4862C31.1102 55.5334 31.0128 55.558 30.9042 55.5559C30.7957 55.5559 30.685 55.5293 30.5698 55.4801C30.4546 55.4288 30.3461 55.3591 30.242 55.2669C30.1379 55.1767 30.0471 55.0722 29.9696 54.9533C29.892 54.8344 29.8344 54.7114 29.7968 54.5823C29.7569 54.4552 29.7414 54.3322 29.7458 54.2154C29.7525 54.0965 29.7791 53.994 29.83 53.9038C29.8787 53.8136 29.9452 53.746 30.0316 53.6988C30.1157 53.6497 30.2132 53.6271 30.3217 53.6292C30.428 53.6292 30.541 53.6558 30.6562 53.705C30.7713 53.7562 30.8799 53.8259 30.984 53.9182C31.0881 54.0084 31.1789 54.1129 31.2542 54.2318Z" fill="#F2E861"/>
<path d="M39.7925 55.4227C39.8701 55.5415 39.9277 55.6645 39.9653 55.7916C40.0052 55.9187 40.0207 56.0417 40.0162 56.1606C40.0096 56.2774 39.983 56.3819 39.9321 56.4701C39.8834 56.5603 39.8169 56.6279 39.7305 56.6771C39.6464 56.7242 39.5489 56.7468 39.4404 56.7468C39.3341 56.7447 39.2211 56.7201 39.1059 56.6689C38.9908 56.6197 38.8822 56.548 38.7781 56.4578C38.674 56.3655 38.5832 56.261 38.5079 56.1421C38.4304 56.0232 38.3706 55.9003 38.3329 55.7732C38.2953 55.6461 38.2776 55.5231 38.2842 55.4042C38.2886 55.2874 38.3174 55.1828 38.3662 55.0947C38.4149 55.0045 38.4813 54.9369 38.5677 54.8877C38.6519 54.8405 38.7493 54.818 38.8579 54.818C38.9664 54.82 39.0771 54.8446 39.1923 54.8959C39.3075 54.9451 39.416 55.0168 39.5201 55.107C39.6242 55.1992 39.715 55.3038 39.7925 55.4227Z" fill="#F2E861"/>
<path d="M53.9767 45.6742C54.052 45.793 54.1119 45.916 54.1495 46.0452C54.1894 46.1722 54.2049 46.2952 54.1982 46.4121C54.1938 46.5309 54.1672 46.6334 54.1163 46.7236C54.0676 46.8118 54.0011 46.8815 53.9147 46.9286C53.8306 46.9778 53.7331 47.0003 53.6246 46.9983C53.516 46.9983 53.4053 46.9716 53.2901 46.9224C53.175 46.8712 53.0664 46.8015 52.9623 46.7093C52.8582 46.6191 52.7674 46.5146 52.6899 46.3957C52.6146 46.2768 52.5548 46.1538 52.5171 46.0247C52.4773 45.8976 52.4618 45.7746 52.4684 45.6578C52.4728 45.5389 52.4994 45.4364 52.5504 45.3462C52.5991 45.2581 52.6655 45.1884 52.7519 45.1412C52.8361 45.092 52.9335 45.0695 53.0421 45.0715C53.1506 45.0715 53.2613 45.0982 53.3765 45.1474C53.4917 45.1986 53.6002 45.2683 53.7043 45.3606C53.8084 45.4507 53.8992 45.5553 53.9767 45.6742Z" fill="#F2E861"/>
<path d="M9.84074 35.9748C9.89611 36.104 9.93155 36.2331 9.94705 36.3663C9.96256 36.4975 9.95591 36.6205 9.92933 36.7353C9.90497 36.8521 9.85846 36.9485 9.79423 37.0304C9.72999 37.1104 9.65026 37.1678 9.55945 37.2026C9.46642 37.2375 9.36675 37.2457 9.26044 37.2272C9.15412 37.2088 9.04781 37.1678 8.94371 37.1001C8.83961 37.0325 8.74437 36.9464 8.65799 36.8419C8.57161 36.7353 8.50073 36.6185 8.44536 36.4893C8.38999 36.3602 8.35455 36.2311 8.33905 36.0978C8.32354 35.9666 8.33019 35.8416 8.35677 35.7268C8.38113 35.612 8.42764 35.5136 8.49187 35.4337C8.55611 35.3517 8.63363 35.2943 8.72665 35.2615C8.81968 35.2267 8.91935 35.2185 9.02566 35.2369C9.13198 35.2533 9.23829 35.2964 9.34239 35.364C9.44649 35.4296 9.54173 35.5157 9.62811 35.6223C9.71449 35.7289 9.78537 35.8457 9.84074 35.9748Z" fill="#F2E861"/>
<path d="M8.75981 43.3088C8.84398 43.4236 8.91042 43.5445 8.95694 43.6696C9.00123 43.7966 9.0256 43.9176 9.0256 44.0344C9.02781 44.1533 9.00566 44.2578 8.96358 44.3501C8.91928 44.4423 8.85505 44.514 8.7731 44.5653C8.69115 44.6165 8.59591 44.6452 8.48738 44.6493C8.37885 44.6534 8.26589 44.6329 8.1485 44.5899C8.03112 44.5448 7.91816 44.4792 7.80963 44.3931C7.69888 44.307 7.60364 44.2086 7.51948 44.0938C7.43531 43.9791 7.37108 43.8581 7.32457 43.7331C7.27806 43.606 7.25369 43.4851 7.25369 43.3682C7.25148 43.2494 7.27363 43.1448 7.31792 43.0526C7.36222 42.9603 7.42424 42.8886 7.50619 42.8374C7.59035 42.7861 7.68559 42.7574 7.79191 42.7533C7.90044 42.7492 8.0134 42.7697 8.13079 42.8128C8.24817 42.8579 8.36335 42.9234 8.47188 43.0095C8.58041 43.0956 8.67786 43.194 8.75981 43.3088Z" fill="#F2E861"/>
<path d="M36.2864 11.3637C36.4127 11.4375 36.5256 11.5236 36.6209 11.6219C36.7183 11.7203 36.7914 11.8228 36.8446 11.9315C36.8955 12.038 36.9199 12.1426 36.9199 12.243C36.9199 12.3435 36.8933 12.4316 36.8401 12.5115C36.787 12.5894 36.7117 12.6489 36.6142 12.694C36.5168 12.737 36.4038 12.7616 36.2776 12.7636C36.1513 12.7677 36.0184 12.7493 35.8811 12.7124C35.746 12.6735 35.6131 12.6181 35.4869 12.5443C35.3606 12.4705 35.2499 12.3844 35.1524 12.2861C35.0572 12.1877 34.9819 12.0852 34.9309 11.9766C34.88 11.87 34.8534 11.7654 34.8534 11.665C34.8556 11.5646 34.8822 11.4764 34.9353 11.3965C34.9885 11.3186 35.0638 11.2571 35.159 11.2141C35.2565 11.171 35.3695 11.1464 35.4957 11.1444C35.6242 11.1403 35.7549 11.1587 35.8922 11.1956C36.0295 11.2345 36.1602 11.2899 36.2864 11.3637Z" fill="#F2E861"/>
<path d="M13.6415 22.7151C13.7057 22.8402 13.75 22.9673 13.7766 23.0984C13.801 23.2296 13.8032 23.3526 13.7854 23.4694C13.7677 23.5863 13.7279 23.6867 13.6703 23.7708C13.6127 23.8548 13.5374 23.9183 13.4488 23.9573C13.358 23.9983 13.2583 24.0106 13.152 24.0003C13.0435 23.9901 12.9349 23.9532 12.8264 23.8937C12.7179 23.8323 12.616 23.7523 12.523 23.6519C12.4299 23.5514 12.3502 23.4387 12.286 23.3137C12.2217 23.1886 12.1774 23.0595 12.1531 22.9304C12.1287 22.7992 12.1243 22.6762 12.142 22.5594C12.1619 22.4425 12.1996 22.3421 12.2572 22.2581C12.317 22.172 12.3901 22.1105 12.4809 22.0715C12.5695 22.0305 12.6691 22.0162 12.7777 22.0285C12.884 22.0387 12.9925 22.0756 13.101 22.1351C13.2096 22.1966 13.3115 22.2765 13.4045 22.3769C13.4997 22.4774 13.5772 22.5901 13.6415 22.7151Z" fill="#F2E861"/>
<path d="M27.0127 12.4931C27.1456 12.5587 27.263 12.6366 27.3671 12.7268C27.4712 12.819 27.5532 12.9153 27.613 13.0199C27.6728 13.1224 27.706 13.2248 27.7149 13.3253C27.7215 13.4257 27.7016 13.5159 27.6551 13.5979C27.6085 13.6799 27.5377 13.7455 27.4446 13.7967C27.3516 13.8459 27.2409 13.8787 27.1146 13.889C26.9884 13.9013 26.8555 13.8931 26.7159 13.8644C26.5764 13.8357 26.4413 13.7885 26.3084 13.7229C26.1777 13.6573 26.0581 13.5795 25.954 13.4893C25.8521 13.397 25.7702 13.2986 25.7082 13.1962C25.6484 13.0916 25.6151 12.9912 25.6085 12.8907C25.5996 12.7903 25.6196 12.6981 25.6661 12.6181C25.7148 12.5361 25.7835 12.4705 25.8765 12.4193C25.9717 12.3681 26.0803 12.3373 26.2065 12.3271C26.3328 12.3148 26.4657 12.323 26.6052 12.3517C26.7469 12.3804 26.8821 12.4275 27.0127 12.4931Z" fill="#F2E861"/>
<mask id="mask2_98_140" style="mask-type:luminance" maskUnits="userSpaceOnUse" x="0" y="0" width="33" height="29">
<path d="M0 0H32.3196V28.4708H0V0Z" fill="white"/>
</mask>
<g mask="url(#mask2_98_140)">
<path d="M12.3613 14.1575C12.3613 14.1575 7.46199 7.67832 6.54724 2.63188C6.41878 1.93292 6.53838 1.27496 6.90162 0.65389C6.9725 0.532955 7.05002 0.414071 7.12976 0.299286C7.19842 0.204998 7.2848 0.133258 7.39111 0.079965C7.49743 0.0287218 7.61039 0.0020752 7.7322 0.0020752C7.85181 0.0020752 7.96698 0.0287218 8.0733 0.079965C8.17961 0.133258 8.26599 0.204998 8.33244 0.299286L8.39888 0.389474C8.39888 0.389474 9.31363 8.34243 13.533 13.4176C13.533 13.4176 12.5629 6.76414 21.1921 3.21195L19.2784 7.10644C19.2784 7.10644 24.2486 4.17738 29.1324 4.50328C29.8899 4.55863 30.6363 4.49509 31.3717 4.31676C31.6906 4.23682 31.9852 4.14048 32.1668 4.0257C32.1668 4.0257 32.3905 11.3084 22.9595 12.364C22.9595 12.364 31.2543 19.5012 24.8001 25.7877C24.8001 25.7877 16.4876 28.6143 12.9815 21.5058C12.9815 21.5058 9.28041 30.1598 0.0864258 28.0649C0.0864258 28.0649 1.85612 25.3695 2.46521 23.8794C2.46521 23.8794 4.37666 20.4481 6.31246 18.6792C6.31246 18.6792 1.96243 20.4051 0.629072 19.9829C0.629072 19.9829 4.8595 17.5908 5.54169 16.5434C5.66129 16.3548 5.80526 16.1806 5.97359 16.0269C7.01901 15.0819 10.1863 12.5321 12.3613 14.1575Z" fill="#69AE13"/>
</g>
<mask id="mask3_98_140" style="mask-type:luminance" maskUnits="userSpaceOnUse" x="6" y="0" width="9" height="15">
<path d="M6.80408 0H14.7422V14.303H6.80408V0Z" fill="white"/>
</mask>
<g mask="url(#mask3_98_140)">
<path d="M13.2361 13.9382C13.2361 13.9382 13.7012 14.4896 14.6979 14.1493C14.6979 14.1493 13.6038 11.4006 13.9869 10.0109C13.3136 11.9418 13.5307 13.4196 13.5307 13.4196C9.31132 8.34243 8.39657 0.389474 8.39657 0.389474L8.33234 0.299286C8.26368 0.207048 8.1773 0.133258 8.07098 0.0820147C7.96467 0.0287214 7.84949 0.0020752 7.72989 0.0020752C7.61029 0.0020752 7.49511 0.0287214 7.3888 0.0820147C7.28248 0.133258 7.1961 0.207048 7.12744 0.299286C7.12744 0.299286 7.7011 5.53225 9.8894 8.44697C9.8894 8.45107 12.1552 13.0425 13.2361 13.9382Z" fill="#49930F"/>
</g>
<path d="M19.2784 7.10646L21.1898 3.21198C21.1898 3.21198 17.203 6.69652 16.1886 10.4188C16.1886 10.4188 17.9804 8.14158 19.2784 7.10646Z" fill="#49930F"/>
<path d="M22.9595 12.364C32.3882 11.3084 32.1667 4.02771 32.1667 4.02771C31.6374 8.18866 27.8233 10.1708 25.3382 11.0296C24.315 11.3821 23.2563 11.583 22.1665 11.6302C19.553 11.749 17.7279 12.2902 17.7279 12.2902C23.3072 13.0957 25.4003 18.5767 25.4003 18.5767C26.9042 22.834 24.8 25.7897 24.8 25.7897C31.2542 19.5011 22.9595 12.364 22.9595 12.364Z" fill="#49930F"/>
<path d="M12.8331 21.8173L12.8287 16.9595C12.6714 17.5518 12.554 18.1524 12.4787 18.7591C12.3901 19.5032 12.2085 20.2267 11.9383 20.9319C11.6658 21.6349 11.3115 22.3011 10.8751 22.9303C10.4366 23.5576 9.92937 24.1315 9.34907 24.6521C8.76877 25.1707 8.13088 25.6216 7.43763 26.0029C3.87166 27.9665 0.0864258 28.0649 0.0864258 28.0649C8.23055 29.9199 12.0623 23.3444 12.8331 21.8173Z" fill="#49930F"/>
<path d="M6.3124 18.6792C6.23931 18.7468 6.16401 18.8165 6.09091 18.8883C6.8927 18.1422 12.3613 14.1575 12.3613 14.1575C10.3302 14.0858 7.5328 17.3018 7.5328 17.3018C5.94916 18.8575 0.631226 19.9828 0.631226 19.9828C1.96237 20.4051 6.3124 18.6792 6.3124 18.6792Z" fill="#49930F"/>
<path d="M5.958 16.8775C5.958 16.8775 8.71332 13.4483 12.3634 14.1575C10.1884 12.5321 7.02115 15.0819 5.97794 16.0248C5.80961 16.1806 5.66564 16.3528 5.54604 16.5434C4.86385 17.5908 0.633423 19.9808 0.633423 19.9808C0.633423 19.9808 4.86828 17.9659 5.958 16.8775Z" fill="#A2C622"/>
<path d="M8.37882 7.69878C8.37882 7.69673 8.3766 7.69468 8.37439 7.69263L8.37882 7.69878Z" fill="#A2C622"/>
<path d="M6.54717 2.63189C6.81074 4.0831 7.40433 5.65319 8.11531 7.15359C6.99901 4.59143 6.91484 0.627248 7.12747 0.297241C7.04773 0.412026 6.97021 0.53296 6.89934 0.651845C6.5361 1.27291 6.41871 1.93293 6.54717 2.63189Z" fill="#A2C622"/>
<path d="M9.38 16.3569L9.60371 16.1847C9.53062 16.24 9.45531 16.2974 9.38 16.3569Z" fill="#A2C622"/>
<path d="M9.38008 16.3569L6.09098 18.8883C4.23047 20.7064 2.46521 23.8794 2.46521 23.8794C1.85612 25.3695 0.0864258 28.0649 0.0864258 28.0649C0.0864258 28.0649 1.1983 27.1651 2.60696 24.9104C2.60696 24.9104 6.62476 18.5644 9.38008 16.3569Z" fill="#A2C622"/>
<path d="M16.5474 24.1622C12.9017 22.0141 13.1431 16.1478 13.1431 16.1478L12.8286 16.9595L12.833 21.8153C12.9327 21.6185 12.9814 21.5037 12.9814 21.5037C16.4876 28.6101 24.8001 25.7856 24.8001 25.7856C19.9052 26.708 16.5474 24.1622 16.5474 24.1622Z" fill="#A2C622"/>
<path d="M13.9891 10.0109C13.9891 10.0109 17.1409 5.32728 20.255 3.62805C16.3613 5.48306 14.6913 7.99398 13.9891 10.0109Z" fill="#A2C622"/>
<path d="M32.1667 4.02563C31.9851 4.14042 31.6905 4.23676 31.3716 4.3167C30.6363 4.49502 29.8898 4.55857 29.1324 4.50322C24.2485 4.17936 19.2783 7.10638 19.2783 7.10638C19.2783 7.10638 16.0047 10.3429 15.5928 11.3391C15.5928 11.3391 18.6382 7.23141 25.0038 5.77406C25.0038 5.77406 31.2454 5.33131 32.1667 4.02563Z" fill="#A2C622"/>
</svg>
