<svg xmlns="http://www.w3.org/2000/svg" xmlns:xlink="http://www.w3.org/1999/xlink" width="794" zoomAndPan="magnify" viewBox="0 0 594.95996 595.499999" height="794" preserveAspectRatio="xMidYMid meet" version="1.0"><defs><clipPath id="93252b426a"><path d="M 77.101562 0 L 333 0 L 333 308 L 77.101562 308 Z M 77.101562 0 " clip-rule="nonzero"/></clipPath><clipPath id="247618d539"><path d="M 77.101562 104 L 535 104 L 535 591 L 77.101562 591 Z M 77.101562 104 " clip-rule="nonzero"/></clipPath></defs><g clip-path="url(#93252b426a)"><path fill="#e6463c" d="M 94.53125 262.457031 L 77.101562 236.824219 L 185 1.90625 C 186.132812 -0.59375 188.628906 -2.195312 191.363281 -2.195312 C 193.671875 -2.195312 195.828125 -1.0625 197.132812 0.859375 L 332.503906 198.863281 L 170.429688 307.59375 Z M 94.53125 262.457031 " fill-opacity="1" fill-rule="nonzero"/></g><path fill="#f5e8df" d="M 85.558594 249.253906 L 233.019531 2.929688 L 331.5 208.089844 L 132.492188 285.015625 Z M 85.558594 249.253906 " fill-opacity="1" fill-rule="nonzero"/><path fill="#e6463c" d="M 85.558594 251.390625 C 85.195312 251.390625 84.8125 251.285156 84.46875 251.09375 C 83.464844 250.496094 83.125 249.167969 83.742188 248.164062 L 231.183594 1.839844 C 231.589844 1.15625 232.292969 0.773438 233.105469 0.792969 C 233.898438 0.835938 234.601562 1.285156 234.945312 2.011719 L 333.421875 207.171875 C 333.933594 208.242188 333.484375 209.523438 332.417969 210.011719 C 331.351562 210.527344 330.066406 210.078125 329.578125 209.007812 L 232.808594 7.4375 L 87.394531 250.367188 C 86.992188 251.027344 86.285156 251.390625 85.558594 251.390625 Z M 85.558594 251.390625 " fill-opacity="1" fill-rule="nonzero"/><path fill="#f5e8df" d="M 94.339844 254.253906 L 266.878906 12.160156 L 369.460938 217.320312 L 138.644531 299.390625 Z M 94.339844 254.253906 " fill-opacity="1" fill-rule="nonzero"/><path fill="#e6463c" d="M 94.339844 256.390625 C 93.910156 256.390625 93.484375 256.261719 93.101562 255.984375 C 92.140625 255.300781 91.925781 253.953125 92.609375 252.992188 L 265.128906 10.917969 C 265.554688 10.300781 266.304688 9.980469 267.027344 10.023438 C 267.777344 10.085938 268.4375 10.535156 268.78125 11.199219 L 371.359375 216.359375 C 371.894531 217.40625 371.46875 218.6875 370.398438 219.21875 C 369.332031 219.753906 368.050781 219.328125 367.535156 218.257812 L 266.539062 16.304688 L 96.070312 255.492188 C 95.664062 256.070312 95 256.390625 94.339844 256.390625 Z M 94.339844 256.390625 " fill-opacity="1" fill-rule="nonzero"/><path fill="#f5e8df" d="M 100.683594 262.457031 L 301.742188 24.484375 L 400.222656 217.320312 L 146.847656 307.59375 Z M 100.683594 262.457031 " fill-opacity="1" fill-rule="nonzero"/><path fill="#e6463c" d="M 100.683594 264.59375 C 100.191406 264.59375 99.699219 264.421875 99.296875 264.082031 C 98.398438 263.3125 98.289062 261.964844 99.039062 261.066406 L 300.097656 23.097656 C 300.566406 22.539062 301.273438 22.261719 301.976562 22.347656 C 302.683594 22.433594 303.300781 22.859375 303.644531 23.503906 L 402.121094 216.359375 C 402.65625 217.40625 402.25 218.6875 401.183594 219.242188 C 400.136719 219.777344 398.855469 219.371094 398.296875 218.300781 L 301.292969 28.308594 L 102.328125 263.84375 C 101.902344 264.335938 101.304688 264.59375 100.683594 264.59375 Z M 100.683594 264.59375 " fill-opacity="1" fill-rule="nonzero"/><path fill="#f5e8df" d="M 110.957031 263.886719 L 344.828125 32.6875 L 416.625 182.433594 L 418.675781 280.914062 L 137.617188 326.050781 Z M 110.957031 263.886719 " fill-opacity="1" fill-rule="nonzero"/><path fill="#e6463c" d="M 110.957031 266.023438 C 110.402344 266.023438 109.847656 265.8125 109.441406 265.382812 C 108.609375 264.550781 108.628906 263.183594 109.464844 262.371094 L 343.332031 31.171875 C 343.824219 30.679688 344.507812 30.464844 345.191406 30.59375 C 345.875 30.722656 346.453125 31.148438 346.75 31.769531 L 418.570312 181.515625 C 419.082031 182.585938 418.636719 183.867188 417.566406 184.359375 C 416.5 184.871094 415.21875 184.421875 414.726562 183.355469 L 344.210938 36.296875 L 112.453125 265.40625 C 112.027344 265.832031 111.492188 266.023438 110.957031 266.023438 Z M 110.957031 266.023438 " fill-opacity="1" fill-rule="nonzero"/><g clip-path="url(#247618d539)"><path fill="#ff574c" d="M 77.101562 236.824219 C 77.101562 236.824219 98.632812 262.457031 132.492188 255.277344 L 403.191406 105.554688 C 408.125 102.820312 414.339844 105.082031 416.371094 110.359375 L 533.882812 416.285156 C 535.484375 420.472656 533.882812 425.191406 530.058594 427.542969 L 272.007812 585.578125 C 272.007812 585.578125 257.308594 594.398438 236.632812 587.160156 C 229.601562 584.703125 223.921875 579.363281 220.972656 572.503906 Z M 77.101562 236.824219 " fill-opacity="1" fill-rule="nonzero"/></g><path fill="#e6463c" d="M 273.03125 586.6875 C 272.199219 586.6875 271.410156 586.199219 271.066406 585.386719 L 131.550781 255.085938 C 131.101562 253.996094 131.59375 252.738281 132.683594 252.289062 C 133.773438 251.839844 135.035156 252.332031 135.480469 253.421875 L 274.996094 583.71875 C 275.445312 584.808594 274.953125 586.046875 273.863281 586.519531 C 273.585938 586.625 273.308594 586.6875 273.03125 586.6875 Z M 273.03125 586.6875 " fill-opacity="1" fill-rule="nonzero"/><path fill="#ff574c" d="M 216.445312 275.957031 L 253.464844 360.933594 L 407.058594 280.464844 L 370.484375 192.710938 Z M 216.445312 275.957031 " fill-opacity="1" fill-rule="nonzero"/></svg>