<svg xmlns="http://www.w3.org/2000/svg" xmlns:xlink="http://www.w3.org/1999/xlink" width="794" zoomAndPan="magnify" viewBox="0 0 594.95996 595.499999" height="794" preserveAspectRatio="xMidYMid meet" version="1.0"><path fill="#783d2e" d="M 291.132812 25.214844 C 331.632812 93.113281 372.144531 161.019531 412.644531 228.917969 C 451.503906 294.070312 490.359375 359.203125 529.21875 424.359375 C 535.6875 435.191406 532.140625 449.25 521.285156 455.71875 C 453.144531 496.351562 384.996094 536.996094 316.855469 577.628906 C 305.996094 584.101562 291.949219 580.542969 285.46875 569.699219 C 245.984375 503.5 206.484375 437.289062 166.988281 371.082031 C 127.128906 304.238281 87.253906 237.40625 47.394531 170.566406 C 40.921875 159.710938 44.46875 145.675781 55.328125 139.207031 C 123.476562 98.558594 170.714844 55.542969 238.867188 14.898438 C 249.722656 8.429688 284.660156 14.359375 291.132812 25.214844 Z M 291.132812 25.214844 " fill-opacity="1" fill-rule="nonzero"/><path fill="#a45944" d="M 267.351562 24.28125 C 307.851562 92.179688 348.363281 160.085938 388.867188 227.980469 C 427.722656 293.136719 466.582031 358.269531 505.4375 423.425781 C 511.910156 434.257812 508.359375 448.3125 497.503906 454.785156 C 429.363281 495.417969 361.214844 536.0625 293.074219 576.695312 C 282.21875 583.167969 268.171875 579.609375 261.6875 568.765625 C 222.203125 502.566406 182.707031 436.355469 143.210938 370.148438 C 103.347656 303.304688 63.476562 236.472656 23.613281 169.632812 C 17.140625 158.777344 20.691406 144.742188 31.546875 138.269531 C 99.699219 97.625 167.835938 56.992188 235.988281 16.347656 C 246.84375 9.878906 260.878906 13.425781 267.351562 24.28125 Z M 267.351562 24.28125 " fill-opacity="1" fill-rule="nonzero"/><path fill="#904d37" d="M 130.621094 191.140625 L 92.523438 213.859375 C 87.335938 216.953125 80.621094 215.253906 77.527344 210.070312 L 54.808594 171.976562 C 51.714844 166.789062 53.410156 160.078125 58.597656 156.984375 L 96.695312 134.265625 C 101.882812 131.175781 108.59375 132.871094 111.6875 138.058594 L 134.410156 176.148438 C 137.503906 181.335938 135.808594 188.046875 130.621094 191.140625 Z M 130.621094 191.140625 " fill-opacity="1" fill-rule="nonzero"/><path fill="#904d37" d="M 200.152344 150.636719 L 162.054688 173.355469 C 156.867188 176.449219 150.152344 174.753906 147.058594 169.566406 L 124.339844 131.472656 C 121.246094 126.289062 122.941406 119.578125 128.128906 116.484375 L 166.226562 93.765625 C 171.414062 90.671875 178.125 92.367188 181.21875 97.554688 L 203.941406 135.648438 C 207.035156 140.832031 205.339844 147.546875 200.152344 150.636719 Z M 200.152344 150.636719 " fill-opacity="1" fill-rule="nonzero"/><path fill="#904d37" d="M 271.398438 107.191406 L 233.300781 129.910156 C 228.113281 133.003906 221.398438 131.304688 218.308594 126.121094 L 195.585938 88.027344 C 192.492188 82.839844 194.1875 76.128906 199.375 73.035156 L 237.472656 50.316406 C 242.660156 47.226562 249.371094 48.921875 252.464844 54.105469 L 275.1875 92.199219 C 278.28125 97.386719 276.585938 104.097656 271.398438 107.191406 Z M 271.398438 107.191406 " fill-opacity="1" fill-rule="nonzero"/><path fill="#904d37" d="M 177.644531 267.554688 L 139.546875 290.273438 C 134.359375 293.367188 127.648438 291.671875 124.554688 286.484375 L 101.832031 248.390625 C 98.738281 243.207031 100.4375 236.496094 105.621094 233.402344 L 143.722656 210.683594 C 148.90625 207.589844 155.621094 209.285156 158.714844 214.472656 L 181.4375 252.566406 C 184.53125 257.75 182.832031 264.460938 177.644531 267.554688 Z M 177.644531 267.554688 " fill-opacity="1" fill-rule="nonzero"/><path fill="#904d37" d="M 247.175781 227.054688 L 209.078125 249.773438 C 203.890625 252.867188 197.179688 251.167969 194.085938 245.984375 L 171.363281 207.890625 C 168.269531 202.703125 169.96875 195.992188 175.152344 192.898438 L 213.253906 170.179688 C 218.4375 167.085938 225.152344 168.785156 228.246094 173.96875 L 250.96875 212.0625 C 254.058594 217.25 252.363281 223.960938 247.175781 227.054688 Z M 247.175781 227.054688 " fill-opacity="1" fill-rule="nonzero"/><path fill="#904d37" d="M 318.421875 183.605469 L 280.324219 206.324219 C 275.136719 209.417969 268.425781 207.722656 265.332031 202.535156 L 242.609375 164.441406 C 239.515625 159.257812 241.214844 152.546875 246.402344 149.453125 L 284.5 126.734375 C 289.683594 123.640625 296.398438 125.335938 299.492188 130.523438 L 322.214844 168.617188 C 325.308594 173.800781 323.609375 180.511719 318.421875 183.605469 Z M 318.421875 183.605469 " fill-opacity="1" fill-rule="nonzero"/><path fill="#904d37" d="M 224.027344 345.316406 L 185.929688 368.035156 C 180.742188 371.128906 174.03125 369.429688 170.9375 364.246094 L 148.214844 326.152344 C 145.121094 320.964844 146.820312 314.253906 152.007812 311.160156 L 190.105469 288.441406 C 195.289062 285.347656 202.003906 287.046875 205.097656 292.230469 L 227.820312 330.324219 C 230.914062 335.511719 229.214844 342.222656 224.027344 345.316406 Z M 224.027344 345.316406 " fill-opacity="1" fill-rule="nonzero"/><path fill="#904d37" d="M 293.558594 304.8125 L 255.460938 327.53125 C 250.273438 330.625 243.5625 328.929688 240.46875 323.742188 L 217.746094 285.648438 C 214.652344 280.464844 216.351562 273.75 221.535156 270.660156 L 259.636719 247.9375 C 264.820312 244.847656 271.535156 246.542969 274.628906 251.730469 L 297.351562 289.820312 C 300.445312 295.007812 298.746094 301.71875 293.558594 304.8125 Z M 293.558594 304.8125 " fill-opacity="1" fill-rule="nonzero"/><path fill="#904d37" d="M 364.804688 261.367188 L 326.707031 284.085938 C 321.519531 287.175781 314.808594 285.480469 311.714844 280.292969 L 288.992188 242.203125 C 285.898438 237.015625 287.597656 230.304688 292.785156 227.210938 L 330.882812 204.492188 C 336.070312 201.398438 342.78125 203.097656 345.875 208.28125 L 368.597656 246.375 C 371.691406 251.5625 369.992188 258.273438 364.804688 261.367188 Z M 364.804688 261.367188 " fill-opacity="1" fill-rule="nonzero"/><path fill="#904d37" d="M 273.832031 421.996094 L 235.730469 444.714844 C 230.546875 447.808594 223.832031 446.113281 220.738281 440.925781 L 198.015625 402.832031 C 194.921875 397.648438 196.621094 390.933594 201.808594 387.84375 L 239.90625 365.125 C 245.09375 362.03125 251.804688 363.726562 254.898438 368.914062 L 277.621094 407.007812 C 280.714844 412.191406 279.015625 418.902344 273.832031 421.996094 Z M 273.832031 421.996094 " fill-opacity="1" fill-rule="nonzero"/><path fill="#904d37" d="M 343.359375 381.496094 L 305.261719 404.214844 C 300.078125 407.304688 293.363281 405.609375 290.269531 400.421875 L 267.546875 362.332031 C 264.453125 357.144531 266.152344 350.433594 271.339844 347.339844 L 309.4375 324.621094 C 314.625 321.527344 321.335938 323.226562 324.429688 328.410156 L 347.152344 366.503906 C 350.246094 371.691406 348.546875 378.402344 343.359375 381.496094 Z M 343.359375 381.496094 " fill-opacity="1" fill-rule="nonzero"/><path fill="#904d37" d="M 414.609375 338.046875 L 376.507812 360.765625 C 371.324219 363.859375 364.609375 362.164062 361.515625 356.976562 L 338.792969 318.882812 C 335.699219 313.699219 337.398438 306.984375 342.585938 303.894531 L 380.683594 281.175781 C 385.871094 278.082031 392.582031 279.777344 395.675781 284.964844 L 418.398438 323.054688 C 421.492188 328.242188 419.792969 334.953125 414.609375 338.046875 Z M 414.609375 338.046875 " fill-opacity="1" fill-rule="nonzero"/><path fill="#fc6da0" d="M 412.644531 228.917969 C 451.503906 294.070312 490.359375 359.203125 529.21875 424.359375 C 535.6875 435.191406 532.140625 449.25 521.285156 455.71875 C 453.144531 496.351562 384.996094 536.996094 316.855469 577.628906 C 305.996094 584.101562 276.09375 586.480469 269.539062 576.640625 C 226.824219 512.480469 206.484375 437.289062 166.988281 371.082031 L 311.320312 348.78125 Z M 412.644531 228.917969 " fill-opacity="1" fill-rule="nonzero"/><path fill="#ff9dbc" d="M 388.867188 227.980469 C 427.722656 293.136719 466.582031 358.269531 505.4375 423.425781 C 511.910156 434.257812 508.359375 448.3125 497.503906 454.785156 C 429.363281 495.417969 361.214844 536.0625 293.074219 576.695312 C 282.21875 583.167969 268.171875 579.609375 261.6875 568.765625 C 222.203125 502.566406 182.707031 436.355469 143.210938 370.148438 L 287.542969 347.847656 Z M 388.867188 227.980469 " fill-opacity="1" fill-rule="nonzero"/><path fill="#f7e7da" d="M 112.945312 357.839844 C 112.945312 357.839844 273.96875 345.007812 289.339844 345.621094 C 289.339844 345.621094 390.3125 182.5 401.957031 178.058594 L 426.820312 223.578125 L 293.910156 349.738281 L 126.597656 401.296875 Z M 112.945312 357.839844 " fill-opacity="1" fill-rule="nonzero"/><path fill="#ff3222" d="M 339.757812 365.640625 C 327.035156 372.308594 322.714844 389.148438 330.109375 403.253906 C 330.40625 403.820312 330.722656 404.375 331.050781 404.902344 L 330.945312 404.96875 C 330.683594 404.394531 330.414062 403.820312 330.109375 403.253906 C 322.714844 389.148438 306.40625 383.117188 293.683594 389.785156 C 293.660156 389.800781 293.636719 389.808594 293.613281 389.824219 C 280.941406 396.523438 276.664062 413.320312 284.042969 427.402344 C 284.636719 428.542969 285.300781 429.621094 286.003906 430.652344 L 285.800781 430.769531 C 315.300781 466.332031 362.300781 464.65625 362.300781 464.65625 C 381.433594 432.738281 383.21875 409.339844 381.242188 395.160156 C 379.769531 384.558594 376.183594 379.109375 376.183594 379.109375 C 368.785156 365.003906 352.480469 358.96875 339.757812 365.640625 Z M 339.757812 365.640625 " fill-opacity="1" fill-rule="nonzero"/><path fill="#fc6da0" d="M 155.238281 394.804688 C 153.304688 394.804688 151.515625 393.546875 150.933594 391.597656 C 150.222656 389.222656 151.574219 386.71875 153.953125 386.007812 L 287.644531 346.050781 L 409.644531 228.824219 C 411.433594 227.101562 414.277344 227.160156 415.996094 228.949219 C 417.714844 230.738281 417.660156 233.582031 415.871094 235.300781 L 293.085938 353.28125 C 292.570312 353.777344 291.945312 354.140625 291.261719 354.347656 L 156.527344 394.617188 C 156.097656 394.746094 155.664062 394.804688 155.238281 394.804688 Z M 155.238281 394.804688 " fill-opacity="1" fill-rule="nonzero"/><path fill="#783d2e" d="M 80.390625 216.519531 C 78.910156 216.519531 77.457031 215.785156 76.601562 214.445312 L 51.019531 174.394531 C 50.917969 174.234375 50.824219 174.066406 50.742188 173.890625 C 49 170.199219 48.109375 164.273438 50.828125 158.71875 C 54.035156 152.15625 60.082031 150.003906 62.589844 149.375 L 94.394531 130.410156 C 96.523438 129.136719 99.285156 129.835938 100.554688 131.964844 C 101.824219 134.097656 101.128906 136.855469 98.996094 138.125 L 66.570312 157.460938 C 66.109375 157.738281 65.597656 157.929688 65.066406 158.023438 C 64.894531 158.054688 60.765625 158.839844 58.898438 162.664062 C 57.339844 165.847656 58.40625 168.953125 58.773438 169.84375 L 84.171875 209.609375 C 85.507812 211.699219 84.898438 214.476562 82.804688 215.8125 C 82.054688 216.289062 81.21875 216.519531 80.390625 216.519531 Z M 80.390625 216.519531 " fill-opacity="1" fill-rule="nonzero"/><path fill="#783d2e" d="M 197.007812 252.796875 C 195.527344 252.796875 194.074219 252.0625 193.21875 250.722656 L 167.636719 210.671875 C 167.535156 210.511719 167.441406 210.34375 167.363281 210.171875 C 165.621094 206.480469 164.726562 200.554688 167.445312 194.996094 C 170.648438 188.4375 176.699219 186.285156 179.207031 185.65625 L 211.011719 166.6875 C 213.144531 165.417969 215.902344 166.113281 217.171875 168.246094 C 218.441406 170.375 217.746094 173.132812 215.613281 174.402344 L 183.1875 193.738281 C 182.726562 194.015625 182.21875 194.207031 181.6875 194.300781 C 181.515625 194.332031 177.382812 195.121094 175.515625 198.941406 C 173.957031 202.125 175.023438 205.230469 175.390625 206.121094 L 200.792969 245.886719 C 202.125 247.976562 201.515625 250.753906 199.421875 252.089844 C 198.675781 252.566406 197.835938 252.796875 197.007812 252.796875 Z M 197.007812 252.796875 " fill-opacity="1" fill-rule="nonzero"/><path fill="#783d2e" d="M 245.238281 329.863281 C 243.757812 329.863281 242.304688 329.128906 241.449219 327.789062 L 215.871094 287.738281 C 215.765625 287.578125 215.675781 287.414062 215.59375 287.242188 C 214.992188 285.964844 212.164062 279.242188 215.675781 272.0625 C 218.882812 265.5 224.929688 263.351562 227.4375 262.722656 L 259.242188 243.753906 C 261.375 242.484375 264.132812 243.179688 265.402344 245.3125 C 266.671875 247.441406 265.976562 250.199219 263.84375 251.46875 L 231.417969 270.808594 C 230.957031 271.082031 230.445312 271.273438 229.914062 271.371094 C 229.742188 271.402344 225.617188 272.183594 223.746094 276.007812 C 222.1875 279.199219 223.253906 282.300781 223.621094 283.1875 L 249.019531 322.953125 C 250.355469 325.042969 249.742188 327.820312 247.652344 329.15625 C 246.902344 329.636719 246.066406 329.863281 245.238281 329.863281 Z M 245.238281 329.863281 " fill-opacity="1" fill-rule="nonzero"/></svg>