<svg xmlns="http://www.w3.org/2000/svg" xmlns:xlink="http://www.w3.org/1999/xlink" width="794" zoomAndPan="magnify" viewBox="0 0 595.5 595.499986" height="794" preserveAspectRatio="xMidYMid meet" version="1.0"><defs><clipPath id="8a4753490c"><path d="M 21 176 L 326 176 L 326 501.71875 L 21 501.71875 Z M 21 176 " clip-rule="nonzero"/></clipPath><clipPath id="540f86fc17"><path d="M 271 176 L 326 176 L 326 501.71875 L 271 501.71875 Z M 271 176 " clip-rule="nonzero"/></clipPath><clipPath id="0ab3399190"><path d="M 21 183 L 100 183 L 100 501.71875 L 21 501.71875 Z M 21 183 " clip-rule="nonzero"/></clipPath><clipPath id="edfd1c427a"><rect x="0" width="350" y="0" height="503"/></clipPath></defs><g transform="matrix(1, 0, 0, 1, 123, 46)"><g clip-path="url(#edfd1c427a)"><path fill="#f9a342" d="M 284.140625 65.113281 C 284.140625 65.113281 283.40625 15.488281 284.140625 10.449219 C 284.847656 5.410156 321.570312 1.105469 323.753906 9.003906 C 325.910156 16.929688 324.460938 121.902344 324.460938 121.902344 L 284.140625 147.804688 Z M 284.140625 65.113281 " fill-opacity="1" fill-rule="evenodd"/><path fill="#f9a342" d="M 34.222656 71.570312 C 34.222656 71.570312 24.867188 22.679688 25.574219 18.375 C 26.285156 14.042969 59.433594 6.144531 64.476562 9.007812 C 69.496094 11.894531 80.300781 90.992188 81.039062 92.433594 C 81.746094 93.878906 97.597656 196.695312 97.597656 196.695312 L 59.0625 166.207031 Z M 34.222656 71.570312 " fill-opacity="1" fill-rule="evenodd"/><path fill="#fbae39" d="M 256.75 208.191406 C 256.75 208.191406 257.488281 62.226562 258.195312 58.632812 C 258.933594 55.035156 290.605469 55.746094 294.207031 57.1875 C 297.808594 58.632812 295.652344 173.679688 295.652344 173.679688 Z M 256.75 208.191406 " fill-opacity="1" fill-rule="evenodd"/><path fill="#fbae39" d="M 303.566406 116.15625 C 303.566406 116.15625 314.367188 57.1875 315.816406 53.589844 C 317.261719 49.996094 341.757812 54.328125 345.359375 58.628906 C 348.960938 62.933594 322.308594 204.59375 322.308594 204.59375 L 292.761719 191.65625 Z M 303.566406 116.15625 " fill-opacity="1" fill-rule="evenodd"/><path fill="#f9a342" d="M 79.589844 192.367188 C 79.589844 192.367188 65.1875 56.480469 65.898438 53.59375 C 66.632812 50.734375 101.90625 44.25 104.089844 48.554688 C 106.246094 52.886719 121.359375 177.984375 121.359375 177.984375 L 122.804688 241.285156 C 122.804688 241.285156 96.777344 233.359375 95.441406 235.511719 C 94.109375 237.691406 79.589844 192.367188 79.589844 192.367188 Z M 79.589844 192.367188 " fill-opacity="1" fill-rule="evenodd"/><path fill="#fbae39" d="M 57.277344 123.347656 C 57.277344 123.347656 46.472656 69.417969 43.582031 65.824219 C 40.691406 62.226562 4.679688 72.304688 2.523438 78.054688 C 0.371094 83.800781 29.546875 207.03125 26.285156 207.484375 C 23.054688 207.9375 67.34375 188.0625 67.34375 188.0625 Z M 57.277344 123.347656 " fill-opacity="1" fill-rule="evenodd"/><path fill="#f9a342" d="M 226.523438 230.5 C 226.523438 230.5 263.753906 200.433594 263.5 202.214844 C 263.246094 204 255.332031 17.636719 254.59375 13.335938 C 253.886719 9.003906 219.320312 10.449219 217.875 12.601562 C 216.429688 14.78125 219.207031 217.476562 219.324219 222.570312 C 219.40625 227.667969 226.523438 230.5 226.523438 230.5 Z M 226.523438 230.5 " fill-opacity="1" fill-rule="evenodd"/><path fill="#ffc655" d="M 99.042969 224.015625 C 99.042969 224.015625 57.273438 112.558594 55.089844 108.964844 C 52.9375 105.371094 19.082031 119.753906 19.082031 124.054688 C 19.082031 128.386719 47.179688 203.152344 47.179688 203.152344 Z M 99.042969 224.015625 " fill-opacity="1" fill-rule="evenodd"/><path fill="#fbae39" d="M 108.398438 134.132812 C 108.398438 134.132812 108.398438 12.601562 110.554688 11.894531 C 112.710938 11.1875 145.855469 8.296875 147.300781 11.894531 C 148.71875 15.488281 152.320312 193.808594 152.320312 193.808594 L 110.554688 184.46875 Z M 108.398438 134.132812 " fill-opacity="1" fill-rule="evenodd"/><path fill="#f9a342" d="M 159.523438 102.484375 C 159.523438 102.484375 158.105469 7.589844 160.96875 4.703125 C 163.863281 1.816406 194.117188 2.550781 196.273438 6.855469 C 198.425781 11.1875 197.71875 236.953125 197.71875 236.953125 L 179.714844 243.4375 L 157.511719 241.226562 Z M 159.523438 102.484375 " fill-opacity="1" fill-rule="evenodd"/><path fill="#fbae39" d="M 189.777344 227.613281 C 189.777344 227.613281 190.515625 70.125 190.515625 67.976562 C 190.515625 65.824219 228.679688 63.671875 232.28125 65.824219 C 235.882812 67.976562 233.726562 175.125 233.726562 175.125 Z M 189.777344 227.613281 " fill-opacity="1" fill-rule="evenodd"/><path fill="#ffc655" d="M 133.609375 162.894531 C 133.609375 162.894531 127.113281 94.585938 128.5625 92.433594 C 130.007812 90.28125 165.308594 90.988281 167.464844 92.433594 C 169.617188 93.878906 176.113281 243.4375 176.113281 243.4375 C 176.113281 243.4375 132.84375 238.878906 133.609375 236.246094 C 134.371094 233.585938 133.609375 162.894531 133.609375 162.894531 Z M 133.609375 162.894531 " fill-opacity="1" fill-rule="evenodd"/><path fill="#ffc655" d="M 122.804688 237.691406 C 122.804688 237.691406 99.042969 164.339844 98.304688 162.1875 C 97.59375 160.007812 130.003906 149.957031 133.605469 149.957031 C 137.207031 149.957031 170.324219 243.4375 170.324219 243.4375 C 170.324219 243.4375 128.558594 241.992188 122.804688 237.691406 Z M 122.804688 237.691406 " fill-opacity="1" fill-rule="evenodd"/><path fill="#ffc655" d="M 179.710938 243.4375 C 179.710938 243.4375 209.9375 148.511719 211.382812 147.804688 C 212.832031 147.070312 243.085938 154.996094 245.949219 156.414062 C 248.839844 157.855469 226.523438 230.5 226.523438 230.5 C 226.523438 230.5 186.914062 247.738281 179.710938 243.4375 Z M 179.710938 243.4375 " fill-opacity="1" fill-rule="evenodd"/><path fill="#ffc655" d="M 262.535156 208.925781 C 262.535156 208.925781 277.648438 104.664062 279.09375 102.484375 C 280.542969 100.332031 313.660156 101.777344 317.261719 105.371094 C 320.863281 108.964844 310.058594 199.554688 310.058594 199.554688 Z M 262.535156 208.925781 " fill-opacity="1" fill-rule="evenodd"/><g clip-path="url(#8a4753490c)"><path fill="#ee343b" d="M 99.042969 501.5625 C 99.042969 501.5625 200.011719 460.570312 271.15625 501.5625 L 302.855469 477.839844 L 325.167969 199.558594 L 285.558594 176.570312 C 285.558594 176.570312 183.3125 311.746094 55.828125 183.023438 L 21.972656 200.292969 L 60.875 477.132812 Z M 99.042969 501.5625 " fill-opacity="1" fill-rule="evenodd"/></g><g clip-path="url(#540f86fc17)"><path fill="#d4262e" d="M 271.863281 501.050781 L 302.855469 477.839844 L 325.171875 199.558594 L 285.558594 176.570312 Z M 271.863281 501.050781 " fill-opacity="1" fill-rule="evenodd"/></g><g clip-path="url(#0ab3399190)"><path fill="#d4262e" d="M 55.832031 183.023438 L 21.972656 200.292969 L 60.875 477.128906 L 99.042969 501.5625 Z M 55.832031 183.023438 " fill-opacity="1" fill-rule="evenodd"/></g><path fill="#f5f5f5" d="M 323.242188 223.875 L 325.171875 199.558594 L 285.558594 176.570312 C 285.558594 176.570312 183.3125 311.746094 55.828125 183.023438 L 21.972656 200.292969 L 25.460938 225.035156 L 57.984375 208.191406 C 57.984375 208.191406 159.523438 326.835938 284.847656 203.886719 Z M 323.242188 223.875 " fill-opacity="1" fill-rule="evenodd"/></g></g></svg>