<svg xmlns="http://www.w3.org/2000/svg" xmlns:xlink="http://www.w3.org/1999/xlink" width="794" zoomAndPan="magnify" viewBox="0 0 594.95996 595.499999" height="794" preserveAspectRatio="xMidYMid meet" version="1.0"><defs><clipPath id="dacfaa8713"><path d="M 239 450 L 360 450 L 360 579.242188 L 239 579.242188 Z M 239 450 " clip-rule="nonzero"/></clipPath><clipPath id="2194b6a5f0"><path d="M 251 459 L 360 459 L 360 579.242188 L 251 579.242188 Z M 251 459 " clip-rule="nonzero"/></clipPath><clipPath id="600ef8a577"><path d="M 380 245.292969 L 500.3125 245.292969 L 500.3125 374.613281 L 380 374.613281 Z M 380 245.292969 " clip-rule="nonzero"/></clipPath><clipPath id="63ec315d51"><path d="M 112.410156 12 L 375 12 L 375 293 L 112.410156 293 Z M 112.410156 12 " clip-rule="nonzero"/></clipPath></defs><path fill="#a061a8" d="M 374.476562 370.839844 C 369.113281 406.058594 338.195312 430.5625 305.417969 425.574219 C 272.640625 420.585938 250.417969 387.992188 255.785156 352.769531 C 261.144531 317.554688 292.066406 293.050781 324.84375 298.039062 C 357.617188 303.03125 379.839844 335.625 374.476562 370.839844 " fill-opacity="1" fill-rule="nonzero"/><path fill="#8a4a94" d="M 356.207031 313.835938 C 360.738281 324.75 362.453125 337.210938 360.5 350.023438 C 355.140625 385.246094 324.21875 409.75 291.445312 404.757812 C 279.230469 402.898438 268.484375 397.199219 260.078125 388.964844 C 268.007812 408.046875 284.566406 422.402344 305.417969 425.574219 C 338.195312 430.5625 369.113281 406.058594 374.476562 370.839844 C 377.839844 348.75 370.347656 327.695312 356.207031 313.835938 " fill-opacity="1" fill-rule="nonzero"/><path fill="#b97cc4" d="M 311.960938 338.265625 C 306.59375 347.878906 296.175781 352.285156 288.683594 348.109375 C 281.195312 343.929688 279.476562 332.75 284.839844 323.136719 C 290.203125 313.519531 300.625 309.109375 308.113281 313.292969 C 315.601562 317.46875 317.328125 328.652344 311.960938 338.265625 " fill-opacity="1" fill-rule="nonzero"/><path fill="#a061a8" d="M 459.351562 147.785156 C 460.339844 149.273438 461.261719 150.78125 462.117188 152.296875 C 476.238281 177.480469 472.1875 207.226562 452.082031 220.613281 C 436.136719 231.210938 414.609375 228.519531 397.519531 215.605469 C 391.738281 211.246094 386.484375 205.722656 382.105469 199.152344 C 372.539062 184.765625 369.238281 168.378906 371.8125 154.199219 C 373.894531 142.710938 379.824219 132.675781 389.375 126.324219 C 392.46875 124.265625 395.773438 122.703125 399.214844 121.628906 C 419.507812 115.277344 444.550781 125.523438 459.351562 147.785156 " fill-opacity="1" fill-rule="nonzero"/><path fill="#a061a8" d="M 277.210938 130.574219 C 290.632812 147.0625 290.398438 174.117188 275.199219 196.105469 C 274.171875 197.582031 273.117188 198.996094 272.023438 200.351562 C 253.863281 222.785156 224.730469 230.058594 204.835938 216.339844 C 198.886719 212.222656 194.390625 206.644531 191.417969 200.1875 C 186.542969 189.617188 185.75 176.652344 189.28125 163.816406 C 191.1875 156.832031 194.371094 149.910156 198.855469 143.40625 C 208.675781 129.191406 222.679688 120.054688 236.796875 117.195312 C 247.957031 114.933594 259.183594 116.578125 268.476562 122.691406 C 268.71875 122.847656 268.972656 123.011719 269.207031 123.175781 C 272.261719 125.277344 274.9375 127.78125 277.210938 130.574219 " fill-opacity="1" fill-rule="nonzero"/><path fill="#a061a8" d="M 489.414062 277.78125 C 489.574219 279.222656 489.6875 280.6875 489.761719 282.148438 C 491.648438 317.757812 469.5 347.855469 440.328125 349.386719 C 418.527344 350.515625 398.976562 335.382812 389.707031 312.78125 C 386.574219 305.144531 384.621094 296.671875 384.144531 287.679688 C 382.417969 254.71875 401.261719 226.488281 427.210938 221.253906 C 429.289062 220.839844 431.421875 220.566406 433.585938 220.453125 C 437.820312 220.242188 441.964844 220.625 445.964844 221.570312 C 468.4375 226.851562 486.382812 249.382812 489.414062 277.78125 " fill-opacity="1" fill-rule="nonzero"/><path fill="#a061a8" d="M 337.921875 518.375 C 334.71875 549.3125 311.558594 572.28125 286.203125 569.648438 C 282.632812 569.277344 279.21875 568.425781 275.984375 567.144531 C 262.023438 561.59375 251.496094 548.078125 247.496094 531.25 C 245.828125 524.246094 245.292969 516.679688 246.097656 508.855469 C 246.988281 500.367188 249.359375 492.476562 252.871094 485.558594 C 262.171875 467.238281 279.417969 455.667969 297.816406 457.582031 C 301.5 457.953125 305.03125 458.855469 308.34375 460.207031 C 327.941406 468.179688 340.664062 491.90625 337.921875 518.375 " fill-opacity="1" fill-rule="nonzero"/><path fill="#a061a8" d="M 239.847656 257.058594 C 234.484375 292.277344 203.5625 316.78125 170.792969 311.789062 C 138.011719 306.800781 115.792969 274.207031 121.152344 238.988281 C 126.519531 203.773438 157.433594 179.265625 190.210938 184.253906 C 222.988281 189.246094 245.210938 221.839844 239.847656 257.058594 " fill-opacity="1" fill-rule="nonzero"/><path fill="#8a4a94" d="M 221.578125 200.050781 C 226.113281 210.96875 227.828125 223.429688 225.875 236.242188 C 220.511719 271.457031 189.59375 295.964844 156.816406 290.972656 C 144.601562 289.113281 133.851562 283.417969 125.453125 275.183594 C 133.375 294.265625 149.941406 308.617188 170.792969 311.789062 C 203.5625 316.78125 234.484375 292.277344 239.847656 257.058594 C 243.214844 234.964844 235.71875 213.910156 221.578125 200.050781 " fill-opacity="1" fill-rule="nonzero"/><path fill="#b97cc4" d="M 177.332031 224.484375 C 171.96875 234.097656 161.546875 238.503906 154.054688 234.324219 C 146.570312 230.148438 144.84375 218.964844 150.210938 209.351562 C 155.574219 199.738281 165.996094 195.328125 173.488281 199.511719 C 180.976562 203.6875 182.695312 214.863281 177.332031 224.484375 " fill-opacity="1" fill-rule="nonzero"/><path fill="#a061a8" d="M 311.0625 420.710938 C 305.699219 455.929688 327.921875 488.523438 360.699219 493.511719 C 393.472656 498.503906 424.394531 474 429.753906 438.777344 C 435.121094 403.5625 412.898438 370.96875 380.121094 365.976562 C 347.34375 360.988281 316.425781 385.492188 311.0625 420.710938 " fill-opacity="1" fill-rule="nonzero"/><path fill="#8a4a94" d="M 345.476562 371.722656 C 337.898438 380.792969 332.554688 392.179688 330.601562 404.996094 C 325.234375 440.214844 347.460938 472.808594 380.234375 477.800781 C 392.453125 479.660156 404.410156 477.414062 414.878906 472.054688 C 401.632812 487.914062 381.550781 496.6875 360.699219 493.511719 C 327.921875 488.523438 305.699219 455.929688 311.0625 420.710938 C 314.429688 398.617188 327.847656 380.746094 345.476562 371.722656 " fill-opacity="1" fill-rule="nonzero"/><path fill="#b97cc4" d="M 380.441406 408.210938 C 382.703125 418.988281 391.339844 426.296875 399.734375 424.539062 C 408.125 422.777344 413.097656 412.613281 410.839844 401.839844 C 408.578125 391.066406 399.941406 383.757812 391.550781 385.515625 C 383.15625 387.277344 378.183594 397.4375 380.441406 408.210938 " fill-opacity="1" fill-rule="nonzero"/><path fill="#a061a8" d="M 296.113281 180.546875 C 290.746094 215.761719 259.828125 240.265625 227.054688 235.28125 C 194.277344 230.289062 172.054688 197.695312 177.417969 162.476562 C 182.78125 127.257812 213.699219 102.753906 246.472656 107.746094 C 279.25 112.734375 301.472656 145.328125 296.113281 180.546875 " fill-opacity="1" fill-rule="nonzero"/><path fill="#8a4a94" d="M 277.839844 123.535156 C 282.375 134.453125 284.089844 146.914062 282.136719 159.730469 C 276.773438 194.949219 245.855469 219.453125 213.078125 214.464844 C 200.863281 212.605469 190.117188 206.902344 181.714844 198.667969 C 189.636719 217.75 206.203125 232.105469 227.054688 235.28125 C 259.828125 240.265625 290.746094 215.761719 296.113281 180.546875 C 299.476562 158.453125 291.980469 137.398438 277.839844 123.535156 " fill-opacity="1" fill-rule="nonzero"/><path fill="#b97cc4" d="M 233.59375 147.96875 C 228.230469 157.582031 217.808594 161.992188 210.316406 157.8125 C 202.832031 153.632812 201.105469 142.453125 206.472656 132.839844 C 211.835938 123.222656 222.257812 118.820312 229.75 122.996094 C 237.238281 127.171875 238.960938 138.355469 233.59375 147.96875 " fill-opacity="1" fill-rule="nonzero"/><path fill="#a061a8" d="M 301.300781 316.675781 C 303.28125 352.246094 278.050781 382.570312 244.949219 384.414062 C 211.84375 386.253906 183.40625 358.917969 181.425781 323.347656 C 179.445312 287.777344 204.675781 257.449219 237.777344 255.609375 C 270.882812 253.765625 299.320312 281.109375 301.300781 316.675781 " fill-opacity="1" fill-rule="nonzero"/><path fill="#8a4a94" d="M 271.71875 264.628906 C 278.394531 274.382812 282.628906 286.226562 283.351562 299.167969 C 285.332031 334.738281 260.101562 365.066406 226.996094 366.90625 C 214.664062 367.59375 202.976562 364.226562 193.058594 357.886719 C 204.734375 374.9375 223.890625 385.585938 244.949219 384.414062 C 278.050781 382.570312 303.28125 352.246094 301.300781 316.675781 C 300.058594 294.363281 288.40625 275.292969 271.71875 264.628906 " fill-opacity="1" fill-rule="nonzero"/><path fill="#b97cc4" d="M 233.429688 297.621094 C 230.152344 308.128906 220.859375 314.582031 212.671875 312.03125 C 204.484375 309.476562 200.5 298.886719 203.777344 288.378906 C 207.058594 277.867188 216.351562 271.414062 224.539062 273.96875 C 232.722656 276.519531 236.707031 287.109375 233.429688 297.621094 " fill-opacity="1" fill-rule="nonzero"/><path fill="#a061a8" d="M 407.570312 303.945312 C 409.550781 339.511719 384.320312 369.839844 351.21875 371.683594 C 318.117188 373.527344 289.675781 346.183594 287.695312 310.613281 C 285.714844 275.046875 310.945312 244.722656 344.050781 242.875 C 377.152344 241.035156 405.59375 268.375 407.570312 303.945312 " fill-opacity="1" fill-rule="nonzero"/><path fill="#8a4a94" d="M 377.988281 251.898438 C 384.664062 261.652344 388.902344 273.496094 389.621094 286.441406 C 391.601562 322.007812 366.371094 352.332031 333.269531 354.179688 C 320.933594 354.863281 309.242188 351.492188 299.332031 345.15625 C 311.003906 362.207031 330.164062 372.851562 351.21875 371.683594 C 384.320312 369.839844 409.550781 339.511719 407.570312 303.945312 C 406.328125 281.632812 394.671875 262.5625 377.988281 251.898438 " fill-opacity="1" fill-rule="nonzero"/><path fill="#b97cc4" d="M 339.699219 284.886719 C 336.421875 295.398438 327.128906 301.851562 318.941406 299.296875 C 310.75 296.746094 306.769531 286.160156 310.050781 275.648438 C 313.324219 265.136719 322.621094 258.683594 330.808594 261.238281 C 338.996094 263.789062 342.972656 274.378906 339.699219 284.886719 " fill-opacity="1" fill-rule="nonzero"/><path fill="#a061a8" d="M 337.480469 423.238281 C 339.460938 458.808594 314.230469 489.132812 281.125 490.976562 C 248.027344 492.816406 219.582031 465.480469 217.601562 429.910156 C 215.621094 394.339844 240.855469 364.011719 273.957031 362.171875 C 307.058594 360.328125 335.5 387.671875 337.480469 423.238281 " fill-opacity="1" fill-rule="nonzero"/><path fill="#8a4a94" d="M 307.894531 371.191406 C 314.574219 380.945312 318.8125 392.789062 319.53125 405.730469 C 321.511719 441.300781 296.28125 471.628906 263.179688 473.46875 C 250.839844 474.15625 239.152344 470.78125 229.238281 464.449219 C 240.910156 481.5 260.070312 492.148438 281.125 490.976562 C 314.230469 489.132812 339.460938 458.808594 337.480469 423.238281 C 336.238281 400.925781 324.582031 381.855469 307.894531 371.191406 " fill-opacity="1" fill-rule="nonzero"/><path fill="#b97cc4" d="M 269.605469 404.183594 C 266.332031 414.691406 257.035156 421.144531 248.847656 418.59375 C 240.660156 416.039062 236.683594 405.449219 239.957031 394.941406 C 243.234375 384.429688 252.527344 377.976562 260.714844 380.53125 C 268.90625 383.082031 272.886719 393.671875 269.605469 404.183594 " fill-opacity="1" fill-rule="nonzero"/><g clip-path="url(#dacfaa8713)"><path fill="#a061a8" d="M 359.429688 511.414062 C 361.410156 546.984375 336.183594 577.3125 303.082031 579.152344 C 269.976562 580.996094 241.539062 553.65625 239.558594 518.085938 C 237.574219 482.519531 262.804688 452.191406 295.90625 450.347656 C 329.011719 448.507812 357.449219 475.847656 359.429688 511.414062 " fill-opacity="1" fill-rule="nonzero"/></g><g clip-path="url(#2194b6a5f0)"><path fill="#8a4a94" d="M 329.851562 459.375 C 336.527344 469.125 340.761719 480.964844 341.484375 493.910156 C 343.464844 529.480469 318.234375 559.804688 285.128906 561.648438 C 272.792969 562.335938 261.105469 558.964844 251.191406 552.628906 C 262.867188 569.679688 282.023438 580.328125 303.082031 579.152344 C 336.183594 577.3125 361.410156 546.984375 359.429688 511.414062 C 358.191406 489.105469 346.535156 470.035156 329.851562 459.375 " fill-opacity="1" fill-rule="nonzero"/></g><path fill="#b97cc4" d="M 291.558594 492.359375 C 288.285156 502.871094 278.988281 509.324219 270.800781 506.773438 C 262.613281 504.21875 258.632812 493.632812 261.90625 483.121094 C 265.1875 472.605469 274.484375 466.15625 282.671875 468.710938 C 290.859375 471.261719 294.835938 481.847656 291.558594 492.359375 " fill-opacity="1" fill-rule="nonzero"/><path fill="#a061a8" d="M 419.78125 193.753906 C 436.796875 225.050781 426.972656 263.257812 397.839844 279.082031 C 368.710938 294.910156 331.300781 282.367188 314.292969 251.0625 C 297.277344 219.765625 307.101562 181.5625 336.234375 165.734375 C 365.367188 149.90625 402.773438 162.449219 419.78125 193.753906 " fill-opacity="1" fill-rule="nonzero"/><path fill="#8a4a94" d="M 370.769531 159.367188 C 380.980469 165.328125 389.878906 174.214844 396.070312 185.605469 C 413.082031 216.910156 403.257812 255.113281 374.128906 270.941406 C 363.269531 276.839844 351.261719 278.789062 339.589844 277.308594 C 357.4375 287.722656 379.308594 289.148438 397.839844 279.082031 C 426.972656 263.257812 436.796875 225.050781 419.78125 193.753906 C 409.113281 174.117188 390.414062 161.867188 370.769531 159.367188 " fill-opacity="1" fill-rule="nonzero"/><path fill="#b97cc4" d="M 350.285156 205.5625 C 351.820312 216.46875 346.183594 226.273438 337.691406 227.46875 C 329.195312 228.667969 321.066406 220.796875 319.527344 209.898438 C 317.992188 198.992188 323.636719 189.1875 332.128906 187.992188 C 340.621094 186.796875 348.75 194.664062 350.285156 205.5625 " fill-opacity="1" fill-rule="nonzero"/><path fill="#a061a8" d="M 362.503906 191.894531 C 366.835938 227.25 397.03125 252.644531 429.9375 248.609375 C 462.84375 244.578125 486.003906 212.644531 481.671875 177.285156 C 477.335938 141.925781 447.144531 116.53125 414.238281 120.566406 C 381.328125 124.597656 358.167969 156.53125 362.503906 191.894531 " fill-opacity="1" fill-rule="nonzero"/><path fill="#8a4a94" d="M 382.421875 135.441406 C 377.574219 146.222656 375.5 158.625 377.074219 171.488281 C 381.410156 206.851562 411.601562 232.246094 444.511719 228.210938 C 456.773438 226.707031 467.683594 221.324219 476.320312 213.335938 C 467.84375 232.183594 450.867188 246.042969 429.9375 248.609375 C 397.03125 252.644531 366.835938 227.25 362.503906 191.894531 C 359.785156 169.710938 367.886719 148.882812 382.421875 135.441406 " fill-opacity="1" fill-rule="nonzero"/><path fill="#b97cc4" d="M 425.941406 161.148438 C 431.023438 170.914062 441.3125 175.625 448.917969 171.667969 C 456.527344 167.707031 458.574219 156.582031 453.488281 146.8125 C 448.410156 137.046875 438.121094 132.339844 430.511719 136.296875 C 422.90625 140.253906 420.859375 151.378906 425.941406 161.148438 " fill-opacity="1" fill-rule="nonzero"/><g clip-path="url(#600ef8a577)"><path fill="#a061a8" d="M 380.621094 317.09375 C 384.957031 352.453125 415.152344 377.847656 448.058594 373.816406 C 480.964844 369.78125 504.128906 337.847656 499.792969 302.488281 C 495.457031 267.128906 465.265625 241.734375 432.359375 245.765625 C 399.449219 249.800781 376.289062 281.738281 380.621094 317.09375 " fill-opacity="1" fill-rule="nonzero"/></g><path fill="#8a4a94" d="M 400.546875 260.640625 C 395.695312 271.421875 393.617188 283.828125 395.199219 296.695312 C 399.535156 332.050781 429.722656 357.449219 462.632812 353.417969 C 474.898438 351.914062 485.804688 346.527344 494.441406 338.542969 C 485.964844 357.386719 468.992188 371.25 448.058594 373.816406 C 415.152344 377.847656 384.957031 352.453125 380.621094 317.09375 C 377.902344 294.914062 386.007812 274.085938 400.546875 260.640625 " fill-opacity="1" fill-rule="nonzero"/><path fill="#b97cc4" d="M 444.0625 286.351562 C 449.148438 296.117188 459.433594 300.828125 467.039062 296.867188 C 474.648438 292.910156 476.695312 281.785156 471.613281 272.019531 C 466.53125 262.253906 456.242188 257.542969 448.632812 261.5 C 441.027344 265.460938 438.976562 276.585938 444.0625 286.351562 " fill-opacity="1" fill-rule="nonzero"/><path fill="#a061a8" d="M 332.382812 250.335938 C 327.019531 285.558594 296.105469 310.0625 263.328125 305.070312 C 230.550781 300.082031 208.328125 267.488281 213.691406 232.269531 C 219.054688 197.050781 249.972656 172.546875 282.75 177.535156 C 315.527344 182.527344 337.75 215.121094 332.382812 250.335938 " fill-opacity="1" fill-rule="nonzero"/><path fill="#8a4a94" d="M 314.117188 193.332031 C 318.648438 204.25 320.363281 216.710938 318.410156 229.523438 C 313.050781 264.742188 282.128906 289.246094 249.351562 284.253906 C 237.136719 282.394531 226.386719 276.699219 217.988281 268.460938 C 225.910156 287.546875 242.476562 301.898438 263.328125 305.070312 C 296.105469 310.0625 327.019531 285.558594 332.382812 250.335938 C 335.75 228.246094 328.253906 207.191406 314.117188 193.332031 " fill-opacity="1" fill-rule="nonzero"/><path fill="#b97cc4" d="M 269.867188 217.761719 C 264.503906 227.378906 254.082031 231.785156 246.59375 227.605469 C 239.105469 223.429688 237.382812 212.246094 242.746094 202.632812 C 248.113281 193.019531 258.535156 188.613281 266.023438 192.789062 C 273.511719 196.96875 275.230469 208.148438 269.867188 217.761719 " fill-opacity="1" fill-rule="nonzero"/><path fill="#a061a8" d="M 378.488281 376.695312 C 373.125 411.914062 342.207031 436.417969 309.433594 431.429688 C 276.65625 426.4375 254.433594 393.84375 259.792969 358.628906 C 265.160156 323.40625 296.074219 298.902344 328.855469 303.894531 C 361.628906 308.882812 383.855469 341.476562 378.488281 376.695312 " fill-opacity="1" fill-rule="nonzero"/><path fill="#8a4a94" d="M 360.21875 319.6875 C 364.753906 330.605469 366.46875 343.066406 364.515625 355.878906 C 359.152344 391.097656 328.234375 415.601562 295.457031 410.609375 C 283.238281 408.753906 272.492188 403.054688 264.09375 394.816406 C 272.015625 413.902344 288.582031 428.253906 309.433594 431.429688 C 342.207031 436.417969 373.125 411.914062 378.488281 376.695312 C 381.855469 354.601562 374.359375 333.546875 360.21875 319.6875 " fill-opacity="1" fill-rule="nonzero"/><path fill="#b97cc4" d="M 315.972656 344.117188 C 310.605469 353.734375 300.1875 358.140625 292.699219 353.960938 C 285.207031 349.785156 283.488281 338.601562 288.851562 328.988281 C 294.21875 319.375 304.636719 314.96875 312.125 319.144531 C 319.617188 323.324219 321.335938 334.503906 315.972656 344.117188 " fill-opacity="1" fill-rule="nonzero"/><path fill="#5d7632" d="M 335.839844 175.0625 C 335.839844 175.0625 337.171875 30.472656 379.808594 15.21875 C 422.449219 -0.0351562 391.363281 33.421875 385.871094 41.597656 C 380.382812 49.78125 357.328125 72.261719 343.617188 176.246094 L 335.839844 175.0625 " fill-opacity="1" fill-rule="nonzero"/><g clip-path="url(#63ec315d51)"><path fill="#83a321" d="M 280.925781 107.347656 C 280.925781 107.347656 268.742188 100.144531 280.753906 83.9375 C 292.769531 67.734375 292.238281 5.066406 219.921875 13.152344 C 147.605469 21.242188 148.035156 39.335938 148.035156 39.335938 C 148.035156 39.335938 196.847656 49.714844 198.375 67.566406 C 198.375 67.566406 140.574219 60.476562 112.636719 121.988281 C 112.636719 121.988281 139.191406 121.789062 143.472656 131.988281 C 147.753906 142.1875 170.546875 131.867188 176.65625 137.039062 C 182.761719 142.210938 185.886719 149.582031 160.601562 148.386719 C 135.320312 147.1875 131.191406 233.539062 129.453125 244.945312 C 129.453125 244.945312 174.144531 240.613281 185.714844 248.207031 C 197.292969 255.800781 231.972656 251.007812 233.273438 214.609375 C 234.574219 178.210938 253.222656 198.550781 243.324219 218.261719 C 233.429688 237.964844 236.625 244.816406 242.476562 262.152344 C 248.320312 279.484375 236.78125 292.578125 236.78125 292.578125 C 236.78125 292.578125 311.28125 280.582031 309.226562 213.972656 C 309.226562 213.972656 308.910156 191.648438 318.863281 206.421875 C 328.816406 221.195312 331.203125 243.835938 331.203125 243.835938 C 331.203125 243.835938 436.472656 120.375 318.125 117.207031 C 318.125 117.207031 296.609375 129.9375 280.925781 107.347656 " fill-opacity="1" fill-rule="nonzero"/></g><path fill="#5d7632" d="M 367.332031 41.429688 C 367.332031 41.429688 191.742188 149.410156 136.140625 235.882812 C 136.140625 235.882812 275.457031 87.375 355.730469 68.832031 L 367.332031 41.429688 " fill-opacity="1" fill-rule="nonzero"/><path fill="#5d7632" d="M 269.171875 116.882812 C 269.960938 118.855469 270.386719 120.445312 270.890625 122.203125 C 271.324219 123.921875 271.75 125.632812 272.109375 127.351562 C 272.425781 129.066406 272.769531 130.777344 273.0625 132.492188 L 273.785156 137.644531 C 274.054688 139.355469 274.132812 141.082031 274.3125 142.796875 C 274.445312 144.515625 274.683594 146.230469 274.730469 147.949219 L 274.960938 153.097656 C 275.050781 154.8125 275.117188 156.527344 275.082031 158.238281 C 275.039062 161.667969 275.167969 165.09375 274.976562 168.507812 L 274.476562 178.738281 L 273.550781 188.925781 L 273.316406 191.46875 L 272.980469 193.996094 L 272.296875 199.058594 C 271.515625 205.816406 270.1875 212.488281 269.03125 219.179688 C 268.503906 222.53125 267.648438 225.820312 266.964844 229.144531 L 264.789062 239.078125 C 263.078125 245.644531 261.414062 252.210938 259.652344 258.75 L 253.824219 278.195312 L 258.722656 258.511719 L 262.90625 238.679688 L 264.597656 228.695312 C 265.125 225.359375 265.816406 222.0625 266.183594 218.707031 C 267.011719 212.015625 268.015625 205.351562 268.472656 198.632812 L 268.90625 193.609375 L 269.121094 191.09375 L 269.234375 188.578125 L 269.667969 178.519531 L 269.683594 168.464844 C 269.710938 165.117188 269.421875 161.78125 269.3125 158.445312 C 269.261719 156.777344 269.121094 155.113281 268.953125 153.457031 L 268.496094 148.484375 C 268.375 146.820312 268.0625 145.191406 267.859375 143.546875 C 267.605469 141.90625 267.453125 140.25 267.117188 138.636719 L 266.203125 133.773438 L 265.074219 128.988281 C 264.671875 127.410156 264.195312 125.859375 263.734375 124.320312 C 263.242188 122.84375 262.675781 121.195312 262.152344 120.050781 L 262.089844 119.910156 C 261.203125 117.972656 262.054688 115.6875 263.988281 114.800781 C 265.925781 113.914062 268.210938 114.769531 269.097656 116.707031 C 269.121094 116.757812 269.148438 116.824219 269.171875 116.882812 " fill-opacity="1" fill-rule="nonzero"/><path fill="#5d7632" d="M 273.960938 110.183594 C 279.042969 113.082031 283.5625 116.203125 288.085938 119.558594 C 292.574219 122.90625 296.875 126.496094 300.984375 130.285156 C 309.199219 137.851562 316.570312 146.378906 322.609375 155.773438 C 328.550781 165.210938 333.121094 175.613281 335.164062 186.546875 C 337.367188 197.453125 336.835938 208.722656 334.394531 219.394531 C 336.210938 208.585938 336.054688 197.457031 333.285156 186.964844 C 330.671875 176.4375 325.664062 166.675781 319.421875 157.929688 C 313.074219 149.222656 305.515625 141.445312 297.1875 134.632812 C 293.023438 131.226562 288.691406 128.023438 284.207031 125.070312 C 279.75 122.140625 275.039062 119.308594 270.449219 117.035156 L 270.339844 116.980469 C 268.429688 116.039062 267.652344 113.726562 268.597656 111.820312 C 269.539062 109.914062 271.851562 109.132812 273.761719 110.074219 C 273.824219 110.105469 273.898438 110.148438 273.960938 110.183594 " fill-opacity="1" fill-rule="nonzero"/><path fill="#5d7632" d="M 260.246094 117.605469 C 255.136719 114.894531 249.5 112.445312 243.929688 110.253906 C 238.324219 108.058594 232.601562 106.132812 226.804688 104.46875 C 215.207031 101.132812 203.253906 98.992188 191.195312 98.320312 C 185.160156 98.039062 179.109375 98.175781 173.089844 98.753906 C 167.0625 99.308594 161.117188 100.535156 155.277344 102.167969 C 149.414062 103.757812 143.816406 106.195312 138.390625 108.953125 L 134.394531 111.164062 C 133.078125 111.941406 131.832031 112.820312 130.546875 113.644531 L 128.628906 114.902344 L 126.804688 116.289062 L 123.160156 119.082031 L 126.65625 116.097656 L 128.410156 114.613281 L 130.269531 113.253906 C 131.515625 112.359375 132.726562 111.40625 134.007812 110.554688 L 137.921875 108.109375 C 143.25 105.039062 148.808594 102.265625 154.695312 100.332031 C 160.550781 98.359375 166.582031 96.785156 172.726562 95.890625 C 178.859375 94.972656 185.066406 94.507812 191.28125 94.46875 C 203.710938 94.511719 216.128906 96.066406 228.246094 98.878906 C 234.304688 100.277344 240.300781 101.953125 246.21875 103.914062 C 252.15625 105.90625 257.90625 108.035156 263.777344 110.757812 C 265.703125 111.652344 266.546875 113.941406 265.648438 115.875 C 264.753906 117.804688 262.460938 118.640625 260.53125 117.746094 C 260.472656 117.71875 260.414062 117.691406 260.359375 117.664062 L 260.246094 117.605469 " fill-opacity="1" fill-rule="nonzero"/><path fill="#5d7632" d="M 267.265625 108 C 266.863281 105.378906 266.191406 102.453125 265.46875 99.695312 C 264.75 96.890625 263.859375 94.132812 262.9375 91.382812 C 261.019531 85.914062 258.710938 80.566406 255.964844 75.457031 C 250.480469 65.25 243.175781 55.929688 233.972656 48.804688 C 229.355469 45.269531 224.292969 42.320312 218.933594 39.988281 L 214.855469 38.347656 L 210.65625 37.035156 C 209.265625 36.550781 207.824219 36.277344 206.386719 35.949219 C 204.945312 35.664062 203.527344 35.21875 202.0625 35.066406 C 190.402344 33.175781 178.347656 33.667969 166.609375 35.800781 C 178.214844 33.046875 190.304688 31.871094 202.328125 33.160156 C 203.839844 33.238281 205.3125 33.613281 206.8125 33.824219 C 208.304688 34.082031 209.808594 34.289062 211.265625 34.710938 L 215.683594 35.828125 L 220 37.300781 C 225.703125 39.429688 231.179688 42.230469 236.242188 45.691406 C 246.339844 52.671875 254.609375 62.121094 260.976562 72.585938 C 264.167969 77.820312 266.902344 83.328125 269.242188 89.003906 C 270.375 91.851562 271.472656 94.722656 272.398438 97.664062 C 273.335938 100.632812 274.183594 103.484375 274.859375 106.730469 C 275.296875 108.8125 273.960938 110.851562 271.878906 111.289062 C 269.796875 111.726562 267.753906 110.390625 267.316406 108.304688 C 267.304688 108.242188 267.292969 108.175781 267.28125 108.109375 L 267.265625 108 " fill-opacity="1" fill-rule="nonzero"/></svg>