<svg xmlns="http://www.w3.org/2000/svg" xmlns:xlink="http://www.w3.org/1999/xlink" width="794" zoomAndPan="magnify" viewBox="0 0 594.95996 595.499999" height="794" preserveAspectRatio="xMidYMid meet" version="1.0"><defs><clipPath id="d3e9d40cc4"><path d="M 59.707031 248 L 533.308594 248 L 533.308594 407 L 59.707031 407 Z M 59.707031 248 " clip-rule="nonzero"/></clipPath><clipPath id="47a4160c0f"><path d="M 59.707031 248 L 533 248 L 533 391 L 59.707031 391 Z M 59.707031 248 " clip-rule="nonzero"/></clipPath></defs><path fill="#ec9c5a" d="M 487.207031 396.332031 C 476.964844 368.859375 121.167969 354.40625 115.382812 392.011719 C 115.382812 392.011719 111.160156 427.824219 116.84375 433.222656 C 128.285156 443.941406 243.546875 555.453125 470.414062 443.789062 C 471.746094 443.144531 473.035156 442.421875 474.277344 441.613281 C 475.519531 440.808594 476.707031 439.925781 477.835938 438.972656 C 478.964844 438.015625 480.03125 436.988281 481.03125 435.898438 C 482.03125 434.808594 482.960938 433.65625 483.8125 432.449219 C 484.667969 431.238281 485.441406 429.980469 486.136719 428.671875 C 486.832031 427.363281 487.441406 426.019531 487.964844 424.632812 C 488.488281 423.25 488.921875 421.835938 489.265625 420.398438 C 489.609375 418.957031 489.863281 417.503906 490.019531 416.03125 C 490.316406 412.683594 490.226562 409.347656 489.75 406.019531 C 489.273438 402.695312 488.425781 399.464844 487.207031 396.332031 Z M 487.207031 396.332031 " fill-opacity="1" fill-rule="nonzero"/><path fill="#d88d55" d="M 479.371094 351.515625 C 469.773438 324.039062 132.484375 309.585938 127.003906 347.191406 C 127.003906 347.191406 122.988281 383.003906 128.386719 388.402344 C 139.214844 399.097656 248.464844 510.632812 463.453125 398.96875 C 464.738281 398.292969 465.980469 397.542969 467.175781 396.710938 C 468.371094 395.882812 469.507812 394.984375 470.589844 394.011719 C 471.675781 393.042969 472.691406 392.007812 473.644531 390.910156 C 474.601562 389.8125 475.480469 388.660156 476.292969 387.453125 C 477.101562 386.246094 477.835938 384.992188 478.488281 383.695312 C 479.144531 382.398438 479.714844 381.0625 480.203125 379.695312 C 480.691406 378.324219 481.09375 376.929688 481.410156 375.511719 C 481.722656 374.09375 481.949219 372.660156 482.085938 371.210938 C 482.609375 364.449219 481.707031 357.882812 479.371094 351.515625 Z M 479.371094 351.515625 " fill-opacity="1" fill-rule="nonzero"/><path fill="#9ecc3a" d="M 493.785156 352.230469 C 493.785156 352.230469 487.207031 337.777344 464.167969 339.234375 C 441.128906 340.691406 163.457031 298.097656 104.710938 345.785156 C 104.710938 345.785156 74.199219 352.972656 82.160156 380.445312 C 90.121094 407.921875 126.289062 389.121094 126.289062 389.121094 C 126.289062 389.121094 145.820312 389.121094 150.171875 412.144531 C 154.523438 435.167969 195.015625 414.316406 195.015625 414.316406 C 195.015625 414.316406 203.695312 407.820312 215.980469 432.378906 C 228.265625 456.9375 266.636719 426.597656 266.636719 420.816406 C 266.636719 415.035156 278.207031 409.253906 287.601562 420.097656 C 296.996094 430.945312 329.554688 441.792969 351.261719 421.558594 C 372.964844 401.320312 371.53125 417.925781 380.925781 422.988281 C 390.320312 428.054688 419.324219 420.097656 430.125 407.078125 C 440.925781 394.054688 462.683594 403.472656 465.574219 408.535156 C 468.46875 413.601562 495.21875 423.707031 503.175781 409.253906 C 511.136719 394.796875 501 357.296875 493.785156 352.230469 Z M 493.785156 352.230469 " fill-opacity="1" fill-rule="nonzero"/><path fill="#91af31" d="M 481.777344 358.855469 C 481.777344 358.855469 466.90625 334.449219 446.199219 335.628906 C 425.492188 336.804688 177.484375 302.574219 124.882812 340.949219 C 124.882812 340.949219 97.621094 346.703125 104.710938 368.78125 C 111.800781 390.859375 144.207031 375.636719 144.207031 375.636719 C 145.484375 375.679688 146.75 375.832031 148.003906 376.09375 C 149.257812 376.351562 150.480469 376.714844 151.667969 377.1875 C 152.859375 377.65625 154 378.222656 155.09375 378.886719 C 156.1875 379.550781 157.214844 380.304688 158.179688 381.144531 C 159.144531 381.984375 160.027344 382.902344 160.835938 383.894531 C 161.640625 384.886719 162.359375 385.941406 162.984375 387.054688 C 163.609375 388.171875 164.136719 389.332031 164.566406 390.535156 C 164.992188 391.742188 165.3125 392.976562 165.527344 394.234375 C 169.417969 412.808594 205.640625 395.976562 205.640625 395.976562 C 205.640625 395.976562 213.320312 390.730469 224.402344 410.503906 C 235.484375 430.28125 269.632812 405.851562 269.632812 401.195312 C 269.632812 396.539062 279.871094 391.90625 288.394531 400.605469 C 296.917969 409.304688 325.917969 418.050781 345.320312 401.78125 C 364.722656 385.511719 363.417969 398.867188 371.8125 402.933594 C 380.210938 407 406.113281 400.605469 415.816406 390.140625 C 425.515625 379.679688 444.917969 387.226562 447.503906 391.292969 C 450.089844 395.359375 474.023438 403.496094 481.113281 391.882812 C 488.203125 380.269531 488.230469 362.847656 481.777344 358.855469 Z M 481.777344 358.855469 " fill-opacity="1" fill-rule="nonzero"/><path fill="#7e2b2e" d="M 493.066406 307.410156 C 493.066406 307.410156 295.5625 261.363281 99.515625 300.195312 C 99.515625 300.195312 95.90625 337.46875 106.042969 352.535156 C 116.179688 367.605469 174.027344 400.632812 231.902344 399.199219 C 289.777344 397.765625 362.828125 409.253906 422.164062 390.601562 C 481.496094 371.953125 490.890625 367.578125 494.5 353.96875 C 498.109375 340.359375 493.066406 307.410156 493.066406 307.410156 Z M 493.066406 307.410156 " fill-opacity="1" fill-rule="nonzero"/><path fill="#632227" d="M 478.964844 270.699219 C 478.964844 270.699219 295.050781 219.535156 110.085938 252.996094 C 110.085938 252.996094 105.632812 290.167969 114.695312 305.515625 C 123.753906 320.867188 177.125 355.402344 231.441406 355.503906 C 285.757812 355.605469 353.949219 369.039062 410.105469 351.949219 C 466.265625 334.859375 475.226562 330.714844 479.015625 317.285156 C 482.800781 303.855469 478.964844 270.699219 478.964844 270.699219 Z M 478.964844 270.699219 " fill-opacity="1" fill-rule="nonzero"/><g clip-path="url(#d3e9d40cc4)"><path fill="#f4a337" d="M 532.484375 278.859375 L 500.003906 260.058594 L 103.867188 248.851562 L 59.738281 277.785156 L 59.738281 298.023438 C 59.738281 298.023438 185.597656 297.304688 333.90625 406.464844 C 333.90625 406.464844 384.175781 335.984375 533.203125 297.664062 Z M 532.484375 278.859375 " fill-opacity="1" fill-rule="nonzero"/></g><g clip-path="url(#47a4160c0f)"><path fill="#ffc33e" d="M 532.484375 278.859375 L 500.003906 260.058594 L 103.867188 248.851562 L 59.738281 277.785156 L 59.738281 282.109375 C 59.738281 282.109375 185.597656 281.394531 333.90625 390.550781 C 333.90625 390.550781 384.050781 320.253906 532.589844 281.90625 Z M 532.484375 278.859375 " fill-opacity="1" fill-rule="nonzero"/></g><path fill="#c21c22" d="M 120.707031 253.203125 L 116.5625 288.53125 C 116.5625 288.53125 166.476562 332.199219 310.023438 316.953125 L 310.023438 305.875 C 310.023438 305.875 143.949219 295.820312 120.707031 253.203125 Z M 120.707031 253.203125 " fill-opacity="1" fill-rule="nonzero"/><path fill="#d12834" d="M 485.105469 265.660156 C 463.628906 300.351562 310.023438 306.59375 310.023438 306.59375 L 310.023438 316.976562 C 442.769531 329.386719 488.945312 294.464844 488.945312 294.464844 Z M 485.105469 265.660156 " fill-opacity="1" fill-rule="nonzero"/><path fill="#af1e29" d="M 120.300781 253.203125 L 116.714844 285.308594 C 135.710938 293.992188 155.558594 299.746094 176.253906 302.574219 C 188.042969 304.191406 199.878906 304.691406 211.765625 304.070312 C 223.648438 303.453125 235.371094 301.726562 246.925781 298.890625 C 199.136719 292.34375 133.738281 279.550781 120.300781 253.203125 Z M 485.488281 265.660156 C 473.050781 287.226562 412.589844 297.460938 368.382812 302.933594 C 379.121094 305.238281 389.976562 306.640625 400.949219 307.140625 C 411.917969 307.644531 422.855469 307.238281 433.757812 305.925781 C 452.722656 303.632812 471.066406 298.925781 488.792969 291.804688 Z M 485.488281 265.660156 " fill-opacity="1" fill-rule="nonzero"/><path fill="#f6f6ec" d="M 237.328125 379.527344 C 226.320312 375.585938 172.363281 373.820312 118.609375 331.816406 C 118.609375 331.816406 111.953125 333.375 113.695312 337.980469 C 113.695312 337.980469 181.835938 388.328125 239.121094 385.71875 C 239.09375 385.71875 248.335938 383.441406 237.328125 379.527344 Z M 476.480469 343.710938 C 471.566406 345.605469 452.828125 361.132812 421.90625 362.054688 C 421.90625 362.054688 420.140625 364.613281 422.113281 365.761719 C 422.113281 365.761719 460.507812 363.5625 478.9375 345.296875 C 478.9375 345.425781 481.367188 341.84375 476.480469 343.710938 Z M 476.480469 343.710938 " fill-opacity="0.14" fill-rule="nonzero"/><path fill="#f6f6ec" d="M 296.378906 310.25 C 289.699219 310.046875 259.828125 314.597656 223.351562 306.539062 C 223.351562 306.539062 219.972656 307.640625 221.664062 308.917969 C 221.664062 308.917969 267.40625 318.230469 298.453125 312.015625 C 298.375 312.039062 303.0625 310.453125 296.378906 310.25 Z M 378.496094 308.945312 C 373.605469 309.148438 351.925781 314.0625 324.742188 309.96875 C 324.742188 309.96875 322.183594 310.964844 323.640625 311.8125 C 323.640625 311.8125 357.609375 316.289062 379.953125 310.121094 C 380.054688 310.25 383.410156 308.765625 378.496094 308.972656 Z M 378.496094 308.945312 " fill-opacity="0.29" fill-rule="nonzero"/><path fill="#f6f6ec" d="M 497.289062 259.855469 C 494.398438 258.957031 495.679688 260.980469 495.679688 260.980469 C 496.523438 266.53125 516.15625 279.140625 516.15625 279.140625 C 511.472656 277.964844 493.527344 282.878906 492.9375 284.769531 C 492.351562 286.664062 496.597656 287.328125 496.597656 287.328125 C 503.230469 282.210938 523.296875 280.675781 523.296875 280.675781 C 516.921875 278.476562 497.289062 259.855469 497.289062 259.855469 Z M 82.621094 274.820312 C 82.621094 274.820312 102.175781 262.179688 103.097656 256.628906 C 103.097656 256.628906 104.378906 254.636719 101.484375 255.503906 C 101.484375 255.503906 81.878906 274.152344 75.554688 276.304688 C 75.554688 276.304688 95.625 277.785156 102.253906 282.929688 C 102.253906 282.929688 106.503906 282.339844 105.914062 280.371094 C 105.324219 278.402344 87.253906 273.617188 82.542969 274.820312 Z M 367.769531 343.351562 C 353.078125 345.910156 334.492188 368.140625 334.492188 368.140625 C 333.855469 363.308594 305.082031 347.675781 299.324219 347.675781 C 293.566406 347.675781 295.511719 351.898438 295.511719 351.898438 C 315.320312 356.734375 336.464844 375.484375 336.464844 375.484375 C 337.105469 368.832031 372.300781 344.632812 372.300781 344.632812 C 372.25 341.535156 367.769531 343.351562 367.769531 343.351562 Z M 367.769531 343.351562 " fill-opacity="0.33" fill-rule="nonzero"/><path fill="#632227" d="M 145.027344 336.625 C 139.90625 334.296875 135.222656 333.707031 134.453125 335.347656 C 133.6875 336.984375 137.21875 340.179688 142.285156 342.535156 C 147.355469 344.886719 152.089844 345.476562 152.832031 343.839844 C 153.574219 342.203125 150.09375 338.980469 145.027344 336.625 Z M 405.089844 368.910156 C 399.5625 369.625 395.234375 371.648438 395.492188 373.4375 C 395.746094 375.226562 400.40625 375.996094 405.933594 375.355469 C 411.464844 374.714844 415.789062 372.59375 415.558594 370.800781 C 415.328125 369.011719 410.644531 368.167969 405.089844 368.910156 Z M 264.308594 379.757812 C 258.777344 378.910156 254.070312 379.757812 253.8125 381.46875 C 253.558594 383.183594 257.832031 385.359375 263.359375 386.175781 C 268.890625 386.996094 273.597656 386.175781 273.855469 384.464844 C 274.109375 382.75 269.757812 380.574219 264.203125 379.757812 Z M 264.308594 379.757812 " fill-opacity="1" fill-rule="nonzero"/><path fill="#f6f6ec" d="M 166.808594 412.09375 C 164.671875 411.117188 162.769531 409.804688 161.101562 408.152344 C 159.316406 406.425781 157.722656 404.542969 156.3125 402.5 C 156.757812 405.132812 157.78125 407.523438 159.386719 409.660156 C 161.023438 411.917969 163.117188 413.625 165.65625 414.777344 C 168.246094 415.90625 170.933594 416.230469 173.71875 415.75 C 176.375 415.273438 178.773438 414.21875 180.914062 412.578125 C 178.480469 413.082031 176.023438 413.355469 173.539062 413.398438 C 171.207031 413.421875 168.964844 412.988281 166.808594 412.09375 Z M 103.25 386.996094 C 101.941406 386.730469 100.707031 386.269531 99.539062 385.613281 C 98.4375 385.007812 97.472656 384.230469 96.652344 383.273438 C 95.832031 382.316406 95.207031 381.246094 94.777344 380.0625 C 93.851562 377.585938 93.304688 375.027344 93.140625 372.390625 C 93.011719 369.496094 93.011719 366.710938 93.011719 363.820312 C 91.828125 366.503906 91.136719 369.308594 90.941406 372.234375 C 90.648438 375.289062 91.050781 378.246094 92.144531 381.113281 C 92.734375 382.609375 93.585938 383.941406 94.703125 385.101562 C 95.828125 386.261719 97.148438 387.113281 98.671875 387.660156 C 100.121094 388.167969 101.613281 388.40625 103.148438 388.378906 C 103.886719 388.351562 104.621094 388.28125 105.351562 388.171875 C 106.070312 388.035156 106.777344 387.855469 107.476562 387.636719 C 106.757812 387.507812 106.042969 387.480469 105.351562 387.355469 C 104.644531 387.277344 103.945312 387.15625 103.25 386.996094 Z M 241.21875 429.949219 C 239.558594 430.503906 237.851562 430.785156 236.101562 430.792969 C 234.394531 430.789062 232.742188 430.496094 231.140625 429.910156 C 229.539062 429.324219 228.085938 428.484375 226.78125 427.390625 C 223.996094 425.039062 221.671875 422.292969 219.820312 419.152344 C 220.714844 422.96875 222.53125 426.277344 225.273438 429.078125 C 226.691406 430.511719 228.324219 431.648438 230.160156 432.480469 C 232.0625 433.308594 234.050781 433.710938 236.125 433.683594 C 238.148438 433.660156 240.101562 433.285156 241.988281 432.558594 C 243.792969 431.902344 245.5 431.050781 247.105469 430 C 250.234375 427.828125 252.9375 425.21875 255.21875 422.171875 C 252.242188 424.320312 249.144531 426.28125 245.929688 428.054688 C 244.429688 428.816406 242.878906 429.4375 241.269531 429.921875 Z M 498.210938 402.984375 C 496.695312 404.722656 494.808594 405.839844 492.554688 406.335938 C 490.226562 406.761719 487.894531 406.761719 485.566406 406.335938 C 483.085938 405.910156 480.636719 405.339844 478.222656 404.621094 C 480.222656 406.390625 482.492188 407.695312 485.03125 408.535156 C 487.691406 409.46875 490.402344 409.664062 493.167969 409.125 C 494.601562 408.824219 495.914062 408.253906 497.109375 407.410156 C 498.277344 406.570312 499.25 405.546875 500.027344 404.339844 C 501.457031 401.980469 502.148438 399.421875 502.101562 396.664062 C 501.089844 398.949219 499.792969 401.054688 498.210938 402.984375 Z M 334.210938 423.757812 C 333.292969 424.171875 332.355469 424.539062 331.398438 424.855469 C 327.609375 426.183594 323.71875 426.664062 319.726562 426.289062 C 315.71875 425.875 311.90625 424.792969 308.28125 423.039062 C 306.425781 422.160156 304.632812 421.164062 302.90625 420.046875 C 301.15625 418.929688 299.527344 417.660156 298.019531 416.234375 C 299.101562 418.074219 300.429688 419.714844 302.011719 421.148438 C 303.585938 422.609375 305.292969 423.898438 307.132812 425.011719 C 310.894531 427.351562 314.980469 428.734375 319.390625 429.15625 C 321.585938 429.375 323.769531 429.296875 325.941406 428.925781 C 328.113281 428.550781 330.195312 427.894531 332.191406 426.953125 C 333.175781 426.507812 334.132812 426.003906 335.058594 425.445312 C 335.925781 424.804688 336.847656 424.269531 337.617188 423.578125 C 339.277344 422.253906 340.78125 420.773438 342.121094 419.128906 C 340.355469 420.253906 338.667969 421.453125 336.824219 422.402344 C 336.183594 422.8125 335.109375 423.324219 334.210938 423.757812 Z M 398.84375 416.570312 C 395.714844 417.253906 392.609375 417.160156 389.527344 416.289062 C 387.984375 415.828125 386.53125 415.160156 385.175781 414.292969 C 383.75 413.414062 382.453125 412.371094 381.285156 411.171875 C 382.015625 412.78125 383.023438 414.199219 384.304688 415.417969 C 385.613281 416.664062 387.089844 417.660156 388.734375 418.410156 C 390.425781 419.117188 392.183594 419.550781 394.007812 419.71875 C 395.835938 419.882812 397.640625 419.769531 399.433594 419.382812 C 402.921875 418.613281 406.140625 417.214844 409.082031 415.1875 C 411.960938 413.238281 414.519531 410.933594 416.761719 408.28125 C 413.792969 409.996094 410.925781 411.734375 407.957031 413.21875 C 405.0625 414.722656 402.027344 415.839844 398.84375 416.570312 Z M 398.84375 416.570312 " fill-opacity="0.54" fill-rule="nonzero"/><path fill="#f6f6ec" d="M 456.488281 418.691406 C 436.703125 440.078125 349.339844 458.113281 349.339844 458.113281 C 348.136719 462.515625 352.4375 461.542969 352.4375 461.542969 C 375.628906 461.667969 460.6875 428.59375 461.070312 422.757812 C 461.453125 416.925781 456.488281 418.691406 456.488281 418.691406 Z M 337.539062 459.957031 C 334.339844 459.957031 331.753906 461.59375 331.753906 463.589844 C 331.753906 465.582031 334.316406 467.195312 337.539062 467.195312 C 340.765625 467.195312 343.324219 465.582031 343.324219 463.589844 C 343.324219 461.59375 340.714844 459.957031 337.515625 459.957031 Z M 337.539062 459.957031 " fill-opacity="0.24" fill-rule="nonzero"/><path fill="#ec9c5a" d="M 289.058594 115.828125 C 100.257812 115.828125 103.867188 248.851562 103.867188 248.851562 C 210.195312 347.191406 491.609375 297.304688 501.746094 258.242188 C 511.878906 219.179688 477.863281 115.828125 289.058594 115.828125 Z M 289.058594 115.828125 " fill-opacity="1" fill-rule="nonzero"/><path fill="#f2c079" d="M 337.15625 116.902344 C 337.15625 116.902344 225.042969 110.402344 215.621094 153.050781 C 206.203125 195.695312 274.214844 219.5625 274.214844 219.5625 C 274.214844 219.5625 378.214844 244.886719 496.574219 211.632812 C 496.574219 211.632812 484.003906 138.59375 337.15625 116.902344 Z M 337.15625 116.902344 " fill-opacity="0.49" fill-rule="nonzero"/><path fill="#edc897" d="M 240.578125 159.316406 C 240.578125 157.320312 236.6875 155.683594 231.902344 155.683594 C 227.113281 155.683594 223.222656 157.320312 223.222656 159.316406 C 223.222656 161.3125 227.113281 162.921875 231.902344 162.921875 C 236.6875 162.921875 240.578125 161.210938 240.578125 159.316406 Z M 255.066406 183.902344 C 255.066406 181.90625 251.175781 180.269531 246.363281 180.269531 C 241.550781 180.269531 237.6875 181.90625 237.6875 183.902344 C 237.6875 185.894531 241.476562 187.457031 246.363281 187.457031 C 251.253906 187.457031 255.066406 185.792969 255.066406 183.796875 Z M 249.152344 235.832031 C 244.367188 235.832031 240.476562 237.46875 240.476562 239.464844 C 240.476562 241.460938 244.367188 243.070312 249.152344 243.070312 C 253.941406 243.070312 257.855469 241.460938 257.855469 239.464844 C 257.855469 237.46875 254.070312 235.832031 249.152344 235.832031 Z M 268.710938 209.097656 C 263.898438 209.097656 260.007812 210.710938 260.007812 212.707031 C 260.007812 214.703125 263.898438 216.3125 268.710938 216.3125 C 273.523438 216.3125 277.386719 214.703125 277.386719 212.707031 C 277.386719 210.710938 273.597656 209.097656 268.8125 209.097656 Z M 276.644531 175.101562 C 271.859375 175.101562 267.96875 176.738281 267.96875 178.734375 C 267.96875 180.730469 271.960938 182.339844 276.746094 182.339844 C 281.535156 182.339844 285.449219 180.730469 285.449219 178.734375 C 285.449219 176.738281 281.558594 175.101562 276.746094 175.101562 Z M 210.09375 204.75 C 205.304688 204.75 201.414062 206.363281 201.414062 208.355469 C 201.414062 210.351562 205.304688 211.988281 210.09375 211.988281 C 214.878906 211.988281 218.769531 210.351562 218.769531 208.355469 C 218.769531 206.363281 215.007812 204.75 210.195312 204.75 Z M 157.003906 185.589844 C 152.21875 185.589844 148.328125 187.199219 148.328125 189.222656 C 148.328125 191.242188 152.246094 192.828125 157.003906 192.828125 C 161.765625 192.828125 165.683594 191.21875 165.683594 189.222656 C 165.683594 187.226562 161.816406 185.589844 157.003906 185.589844 Z M 220.996094 182.339844 C 216.210938 182.339844 212.320312 183.953125 212.320312 185.949219 C 212.320312 187.941406 216.210938 189.578125 220.996094 189.578125 C 225.785156 189.578125 229.675781 187.941406 229.675781 185.949219 C 229.675781 183.953125 225.859375 182.339844 220.996094 182.339844 Z M 178.378906 233.683594 C 173.59375 233.683594 169.703125 235.296875 169.703125 237.289062 C 169.703125 239.285156 173.59375 240.898438 178.378906 240.898438 C 183.164062 240.898438 187.054688 239.285156 187.054688 237.289062 C 187.054688 235.296875 183.164062 233.683594 178.378906 233.683594 Z M 202.234375 174.382812 C 202.234375 172.390625 198.371094 170.777344 193.558594 170.777344 C 188.746094 170.777344 184.878906 172.390625 184.878906 174.382812 C 184.878906 176.378906 188.769531 177.992188 193.558594 177.992188 C 198.34375 177.992188 202.234375 176.378906 202.234375 174.382812 Z M 256.5 149.800781 C 261.285156 149.800781 265.179688 148.1875 265.179688 146.191406 C 265.179688 144.199219 261.285156 142.585938 256.5 142.585938 C 251.714844 142.585938 247.824219 144.199219 247.824219 146.191406 C 247.824219 148.1875 251.714844 149.800781 256.5 149.800781 Z M 278.207031 153.433594 C 273.421875 153.433594 269.527344 155.042969 269.527344 157.039062 C 269.527344 159.035156 273.421875 160.648438 278.207031 160.648438 C 282.992188 160.648438 286.882812 159.035156 286.882812 157.039062 C 286.882812 155.042969 282.992188 153.433594 278.207031 153.433594 Z M 317.984375 163.539062 C 317.984375 161.542969 314.09375 159.929688 309.308594 159.929688 C 304.519531 159.929688 300.628906 161.542969 300.628906 163.539062 C 300.628906 165.53125 304.519531 167.171875 309.308594 167.171875 C 314.09375 167.171875 317.984375 165.53125 317.984375 163.539062 Z M 370.789062 240.285156 C 366.003906 240.285156 362.113281 241.894531 362.113281 243.890625 C 362.113281 245.886719 366.003906 247.523438 370.789062 247.523438 C 375.578125 247.523438 379.46875 245.886719 379.46875 243.890625 C 379.46875 241.894531 375.601562 240.179688 370.789062 240.179688 Z M 371.53125 178.09375 C 366.71875 178.09375 362.828125 179.730469 362.828125 181.726562 C 362.828125 183.722656 366.71875 185.332031 371.53125 185.332031 C 376.34375 185.332031 380.210938 183.722656 380.210938 181.726562 C 380.210938 179.730469 376.320312 177.992188 371.53125 177.992188 Z M 401.175781 175.945312 C 396.386719 175.945312 392.496094 177.554688 392.496094 179.550781 C 392.496094 181.546875 396.386719 183.160156 401.175781 183.160156 C 405.960938 183.160156 409.851562 181.546875 409.851562 179.550781 C 409.851562 177.554688 405.984375 175.84375 401.175781 175.84375 Z M 433.015625 201.246094 C 428.230469 201.246094 424.339844 202.855469 424.339844 204.851562 C 424.339844 206.847656 428.230469 208.460938 433.015625 208.460938 C 437.804688 208.460938 441.695312 206.847656 441.695312 204.851562 C 441.695312 202.855469 437.804688 201.144531 433.015625 201.144531 Z M 391.0625 213.523438 C 386.25 213.523438 382.386719 215.160156 382.386719 217.15625 C 382.386719 219.152344 386.25 220.714844 391.0625 220.714844 C 395.875 220.714844 399.742188 219.101562 399.742188 217.105469 C 399.742188 215.109375 395.851562 213.421875 391.0625 213.421875 Z M 315.089844 232.226562 C 310.304688 232.226562 306.414062 233.835938 306.414062 235.832031 C 306.414062 237.828125 310.304688 239.464844 315.089844 239.464844 C 319.878906 239.464844 323.769531 237.828125 323.769531 235.832031 C 323.769531 233.835938 319.902344 232.226562 315.089844 232.226562 Z M 321.617188 203.316406 C 321.617188 201.320312 317.726562 199.683594 312.914062 199.683594 C 308.105469 199.683594 304.238281 201.320312 304.238281 203.316406 C 304.238281 205.3125 308.128906 206.925781 312.914062 206.925781 C 317.703125 206.925781 321.617188 205.363281 321.617188 203.316406 Z M 361.398438 160.648438 C 361.398438 158.652344 357.503906 157.039062 352.71875 157.039062 C 347.933594 157.039062 344.042969 158.652344 344.042969 160.648438 C 344.042969 162.640625 347.933594 164.28125 352.71875 164.28125 C 357.503906 164.28125 361.394531 162.640625 361.394531 160.648438 Z M 365.746094 204.75 C 365.746094 202.753906 361.855469 201.144531 357.046875 201.144531 C 352.234375 201.144531 348.367188 202.753906 348.367188 204.75 C 348.367188 206.746094 352.257812 208.355469 357.046875 208.355469 C 361.832031 208.355469 365.746094 206.746094 365.746094 204.75 Z M 333.1875 179.449219 C 328.375 179.449219 324.511719 181.0625 324.511719 183.054688 C 324.511719 185.050781 328.375 186.6875 333.1875 186.6875 C 338 186.6875 341.867188 185.050781 341.867188 183.054688 C 341.867188 181.0625 337.976562 179.449219 333.1875 179.449219 Z M 333.1875 179.449219 " fill-opacity="1" fill-rule="nonzero"/><path fill="#f6f6ec" d="M 346.933594 141.128906 C 342.582031 137.519531 320.160156 141.128906 320.160156 141.128906 C 317.265625 144.019531 321.617188 144.019531 321.617188 144.019531 C 328.121094 141.84375 344.042969 145.476562 344.042969 145.476562 C 344.042969 145.476562 351.261719 144.734375 346.933594 141.128906 Z M 467.007812 197.535156 C 438.851562 149.800781 356.941406 142.585938 356.941406 142.585938 C 351.824219 145.476562 357.683594 146.910156 357.683594 146.910156 C 424.238281 150.542969 450.984375 196.792969 460.40625 201.859375 C 469.824219 206.925781 467.007812 197.535156 467.007812 197.535156 Z M 467.007812 197.535156 " fill-opacity="0.5" fill-rule="nonzero"/></svg>