<svg xmlns="http://www.w3.org/2000/svg" xmlns:xlink="http://www.w3.org/1999/xlink" width="794" zoomAndPan="magnify" viewBox="0 0 594.95996 595.499999" height="794" preserveAspectRatio="xMidYMid meet" version="1.0"><path fill="#f49cc3" d="M 427.007812 209.839844 C 421.789062 194.8125 408.652344 188.007812 405.410156 186.425781 C 408.179688 180.335938 411.582031 171.792969 414.035156 161.273438 C 415.855469 153.363281 420.679688 132.953125 415.855469 109.933594 C 410.949219 86.441406 398.210938 66.035156 380.964844 50.53125 C 324.632812 0.0625 229.296875 5.285156 179.296875 61.921875 C 173.839844 68.089844 146.9375 101.390625 152.238281 146.164062 C 154.296875 163.722656 160.703125 177.328125 165.53125 185.714844 C 161.65625 187.375 148.125 193.863281 141.242188 209.207031 C 140.371094 211.105469 130.957031 233.414062 144.25 250.894531 C 150.894531 259.59375 161.339844 264.421875 171.78125 265.289062 C 191.402344 267.03125 205.328125 253.425781 207.777344 250.894531 C 207.859375 250.816406 207.9375 250.734375 208.015625 250.65625 C 217.273438 260.78125 231.199219 268.375 246.230469 268.769531 C 266.484375 269.324219 280.089844 256.984375 282.9375 254.296875 C 292.511719 265.289062 305.882812 270.984375 321.074219 269.957031 C 324.871094 269.71875 332.226562 269.085938 340.296875 264.5 C 347.894531 260.148438 352.402344 254.375 354.617188 250.894531 C 363.003906 264.261719 376.929688 269.957031 392.671875 266.238281 C 419.253906 259.832031 434.761719 232.304688 427.007812 209.839844 Z M 197.492188 120.851562 C 197.097656 124.410156 196.859375 136.828125 189.425781 131.765625 C 186.179688 129.632812 185.785156 123.539062 186.101562 120.058594 C 187.207031 108.035156 190.925781 96.171875 198.046875 85.492188 C 201.925781 79.71875 206.75 73.546875 213.238281 69.039062 C 216.246094 66.902344 221.464844 63.660156 225.5 63.660156 C 206.75 78.53125 199.394531 100.441406 197.492188 120.851562 Z M 197.492188 120.851562 " fill-opacity="1" fill-rule="nonzero"/><path fill="#d43487" d="M 216.246094 219.175781 C 218.144531 222.496094 217.035156 226.847656 213.632812 228.824219 L 210.546875 230.566406 C 207.226562 232.464844 202.875 231.355469 200.894531 227.953125 L 185.785156 201.851562 C 183.886719 198.527344 184.992188 194.179688 188.394531 192.199219 L 191.480469 190.460938 C 194.804688 188.5625 199.15625 189.667969 201.132812 193.070312 Z M 374.160156 142.921875 L 344.492188 137.699219 C 340.695312 136.988281 336.976562 139.597656 336.34375 143.394531 L 335.710938 146.875 C 334.996094 150.671875 337.609375 154.390625 341.40625 155.023438 L 371.074219 160.242188 C 374.871094 160.957031 378.589844 158.34375 379.222656 154.546875 L 379.855469 151.066406 C 380.566406 147.269531 377.957031 143.632812 374.160156 142.921875 Z M 270.835938 47.761719 C 268.9375 44.4375 264.585938 43.253906 261.183594 45.152344 L 258.097656 46.890625 C 254.773438 48.789062 253.585938 53.140625 255.484375 56.542969 L 270.597656 82.644531 C 272.496094 85.96875 276.847656 87.152344 280.25 85.253906 L 283.335938 83.515625 C 286.65625 81.617188 287.84375 77.265625 285.945312 73.863281 Z M 270.835938 47.761719 " fill-opacity="1" fill-rule="nonzero"/><path fill="#f8ddc0" d="M 380.726562 239.425781 L 377.640625 241.164062 C 374.316406 243.0625 369.964844 241.957031 367.988281 238.554688 L 352.878906 212.449219 C 350.980469 209.128906 352.085938 204.777344 355.488281 202.800781 L 358.574219 201.058594 C 361.898438 199.160156 366.25 200.269531 368.226562 203.671875 L 383.335938 229.773438 C 385.234375 233.175781 384.050781 237.527344 380.726562 239.425781 Z M 272.890625 126.863281 C 270.4375 123.855469 265.929688 123.460938 263 125.914062 L 239.820312 145.136719 C 236.816406 147.585938 236.417969 152.097656 238.871094 155.023438 L 241.085938 157.710938 C 243.539062 160.71875 248.050781 161.113281 250.976562 158.660156 L 274.15625 139.441406 C 277.164062 136.988281 277.558594 132.480469 275.105469 129.550781 Z M 272.890625 126.863281 " fill-opacity="1" fill-rule="nonzero"/><path fill="#6183b5" d="M 363.796875 80.429688 L 340.535156 99.652344 C 337.527344 102.105469 333.097656 101.707031 330.644531 98.703125 L 328.429688 96.011719 C 325.976562 93.007812 326.375 88.578125 329.378906 86.125 L 352.5625 66.902344 C 355.566406 64.453125 359.996094 64.847656 362.449219 67.851562 L 364.664062 70.542969 C 367.199219 73.546875 366.800781 77.976562 363.796875 80.429688 Z M 307.78125 187.136719 L 304.695312 185.398438 C 301.375 183.5 297.023438 184.605469 295.042969 188.007812 L 279.933594 214.113281 C 278.035156 217.433594 279.140625 221.785156 282.542969 223.761719 L 285.628906 225.503906 C 288.953125 227.402344 293.304688 226.292969 295.28125 222.890625 L 310.390625 196.789062 C 312.292969 193.386719 311.105469 189.117188 307.78125 187.136719 Z M 307.78125 187.136719 " fill-opacity="1" fill-rule="nonzero"/><path fill="#e39b25" d="M 383.019531 276.128906 C 371.867188 276.128906 361.898438 272.015625 354.222656 264.339844 C 351.136719 267.425781 347.65625 270.035156 343.9375 272.171875 C 334.128906 277.789062 325.1875 278.421875 321.390625 278.660156 C 319.964844 278.738281 318.621094 278.816406 317.277344 278.816406 C 304.140625 278.816406 291.957031 274.230469 282.226562 265.84375 C 274.871094 271.222656 262.84375 277.550781 247.335938 277.550781 C 246.863281 277.550781 246.308594 277.550781 245.832031 277.550781 C 232.304688 277.15625 218.460938 271.617188 207.621094 262.363281 C 200.976562 267.585938 189.582031 274.230469 174.945312 274.230469 C 174.707031 274.230469 174.550781 274.230469 174.3125 274.230469 C 192.035156 325.25 280.722656 580.90625 284.601562 592.136719 C 285.628906 595.0625 289.742188 594.984375 290.613281 591.980469 C 290.613281 591.980469 367.832031 345.101562 389.667969 275.652344 C 387.371094 275.96875 385.15625 276.128906 383.019531 276.128906 Z M 383.019531 276.128906 " fill-opacity="1" fill-rule="nonzero"/></svg>