<svg xmlns="http://www.w3.org/2000/svg" xmlns:xlink="http://www.w3.org/1999/xlink" width="794" zoomAndPan="magnify" viewBox="0 0 594.95996 595.499999" height="794" preserveAspectRatio="xMidYMid meet" version="1.0"><defs><clipPath id="3050421dca"><path d="M 150 36.625 L 445.214844 36.625 L 445.214844 558.1875 L 150 558.1875 Z M 150 36.625 " clip-rule="nonzero"/></clipPath></defs><g clip-path="url(#3050421dca)"><path fill="#90a4ae" d="M 413.457031 558.1875 L 181.71875 558.1875 C 164.335938 558.1875 150.117188 543.964844 150.117188 526.578125 L 150.117188 68.234375 C 150.117188 50.851562 164.335938 36.625 181.71875 36.625 L 413.457031 36.625 C 430.835938 36.625 445.058594 50.851562 445.058594 68.234375 L 445.058594 526.578125 C 445.058594 543.964844 430.835938 558.1875 413.457031 558.1875 Z M 413.457031 558.1875 " fill-opacity="1" fill-rule="nonzero"/></g><path fill="#0d47a1" d="M 165.917969 89.308594 L 429.257812 89.308594 L 429.257812 489.699219 L 165.917969 489.699219 Z M 165.917969 89.308594 " fill-opacity="1" fill-rule="nonzero"/><path fill="#37474f" d="M 323.921875 68.234375 L 271.253906 68.234375 C 268.09375 68.234375 265.988281 66.128906 265.988281 62.96875 C 265.988281 59.804688 268.09375 57.699219 271.253906 57.699219 L 323.921875 57.699219 C 327.082031 57.699219 329.1875 59.804688 329.1875 62.96875 C 329.1875 66.128906 327.082031 68.234375 323.921875 68.234375 Z M 323.921875 68.234375 " fill-opacity="1" fill-rule="nonzero"/><path fill="#37474f" d="M 350.253906 62.96875 C 350.253906 63.3125 350.222656 63.65625 350.152344 63.996094 C 350.085938 64.335938 349.988281 64.664062 349.855469 64.984375 C 349.722656 65.304688 349.558594 65.605469 349.367188 65.894531 C 349.175781 66.183594 348.957031 66.449219 348.710938 66.691406 C 348.46875 66.9375 348.203125 67.15625 347.914062 67.347656 C 347.625 67.539062 347.324219 67.703125 347.003906 67.835938 C 346.683594 67.96875 346.355469 68.066406 346.015625 68.132812 C 345.675781 68.203125 345.335938 68.234375 344.988281 68.234375 C 344.640625 68.234375 344.300781 68.203125 343.960938 68.132812 C 343.621094 68.066406 343.292969 67.96875 342.972656 67.835938 C 342.652344 67.703125 342.351562 67.539062 342.0625 67.347656 C 341.773438 67.15625 341.507812 66.9375 341.265625 66.691406 C 341.019531 66.449219 340.800781 66.183594 340.609375 65.894531 C 340.417969 65.605469 340.253906 65.304688 340.121094 64.984375 C 339.988281 64.664062 339.890625 64.335938 339.824219 63.996094 C 339.753906 63.65625 339.722656 63.3125 339.722656 62.96875 C 339.722656 62.621094 339.753906 62.277344 339.824219 61.941406 C 339.890625 61.601562 339.988281 61.269531 340.121094 60.953125 C 340.253906 60.632812 340.417969 60.328125 340.609375 60.039062 C 340.800781 59.753906 341.019531 59.488281 341.265625 59.242188 C 341.507812 58.996094 341.773438 58.777344 342.0625 58.585938 C 342.351562 58.394531 342.652344 58.234375 342.972656 58.101562 C 343.292969 57.96875 343.621094 57.867188 343.960938 57.800781 C 344.300781 57.734375 344.640625 57.699219 344.988281 57.699219 C 345.335938 57.699219 345.675781 57.734375 346.015625 57.800781 C 346.355469 57.867188 346.683594 57.96875 347.003906 58.101562 C 347.324219 58.234375 347.625 58.394531 347.914062 58.585938 C 348.203125 58.777344 348.46875 58.996094 348.710938 59.242188 C 348.957031 59.488281 349.175781 59.753906 349.367188 60.039062 C 349.558594 60.328125 349.722656 60.632812 349.855469 60.953125 C 349.988281 61.269531 350.085938 61.601562 350.152344 61.941406 C 350.222656 62.277344 350.253906 62.621094 350.253906 62.96875 Z M 350.253906 62.96875 " fill-opacity="1" fill-rule="nonzero"/><path fill="#37474f" d="M 326.554688 531.847656 L 268.621094 531.847656 C 264.40625 531.847656 260.71875 528.160156 260.71875 523.945312 C 260.71875 519.730469 264.40625 516.042969 268.621094 516.042969 L 326.554688 516.042969 C 330.769531 516.042969 334.453125 519.730469 334.453125 523.945312 C 334.453125 528.160156 330.769531 531.847656 326.554688 531.847656 Z M 326.554688 531.847656 " fill-opacity="1" fill-rule="nonzero"/><path fill="#cfd8dc" d="M 287.054688 131.457031 L 308.121094 131.457031 C 313.914062 131.457031 318.652344 136.195312 318.652344 141.992188 L 318.652344 163.066406 C 318.652344 168.859375 313.914062 173.601562 308.121094 173.601562 L 287.054688 173.601562 C 281.261719 173.601562 276.519531 168.859375 276.519531 163.066406 L 276.519531 141.992188 C 276.519531 136.195312 281.261719 131.457031 287.054688 131.457031 Z M 287.054688 131.457031 " fill-opacity="1" fill-rule="nonzero"/><path fill="#cfd8dc" d="M 208.050781 131.457031 L 229.117188 131.457031 C 234.914062 131.457031 239.652344 136.195312 239.652344 141.992188 L 239.652344 163.066406 C 239.652344 168.859375 234.914062 173.601562 229.117188 173.601562 L 208.050781 173.601562 C 202.257812 173.601562 197.519531 168.859375 197.519531 163.066406 L 197.519531 141.992188 C 197.519531 136.195312 202.257812 131.457031 208.050781 131.457031 Z M 208.050781 131.457031 " fill-opacity="1" fill-rule="nonzero"/><path fill="#cfd8dc" d="M 366.054688 131.457031 L 387.121094 131.457031 C 392.914062 131.457031 397.65625 136.195312 397.65625 141.992188 L 397.65625 163.066406 C 397.65625 168.859375 392.914062 173.601562 387.121094 173.601562 L 366.054688 173.601562 C 360.261719 173.601562 355.523438 168.859375 355.523438 163.066406 L 355.523438 141.992188 C 355.523438 136.195312 360.261719 131.457031 366.054688 131.457031 Z M 366.054688 131.457031 " fill-opacity="1" fill-rule="nonzero"/><path fill="#cfd8dc" d="M 287.054688 199.941406 L 308.121094 199.941406 C 313.914062 199.941406 318.652344 204.683594 318.652344 210.480469 L 318.652344 231.554688 C 318.652344 237.347656 313.914062 242.089844 308.121094 242.089844 L 287.054688 242.089844 C 281.261719 242.089844 276.519531 237.347656 276.519531 231.554688 L 276.519531 210.480469 C 276.519531 204.683594 281.261719 199.941406 287.054688 199.941406 Z M 287.054688 199.941406 " fill-opacity="1" fill-rule="nonzero"/><path fill="#cfd8dc" d="M 366.054688 199.941406 L 387.121094 199.941406 C 392.914062 199.941406 397.65625 204.683594 397.65625 210.480469 L 397.65625 231.554688 C 397.65625 237.347656 392.914062 242.089844 387.121094 242.089844 L 366.054688 242.089844 C 360.261719 242.089844 355.523438 237.347656 355.523438 231.554688 L 355.523438 210.480469 C 355.523438 204.683594 360.261719 199.941406 366.054688 199.941406 Z M 366.054688 199.941406 " fill-opacity="1" fill-rule="nonzero"/><path fill="#cfd8dc" d="M 366.054688 268.429688 L 387.121094 268.429688 C 392.914062 268.429688 397.65625 273.171875 397.65625 278.96875 L 397.65625 300.042969 C 397.65625 305.835938 392.914062 310.578125 387.121094 310.578125 L 366.054688 310.578125 C 360.261719 310.578125 355.523438 305.835938 355.523438 300.042969 L 355.523438 278.96875 C 355.523438 273.171875 360.261719 268.429688 366.054688 268.429688 Z M 366.054688 268.429688 " fill-opacity="1" fill-rule="nonzero"/><path fill="#cfd8dc" d="M 208.050781 199.941406 L 229.117188 199.941406 C 234.914062 199.941406 239.652344 204.683594 239.652344 210.480469 L 239.652344 231.554688 C 239.652344 237.347656 234.914062 242.089844 229.117188 242.089844 L 208.050781 242.089844 C 202.257812 242.089844 197.519531 237.347656 197.519531 231.554688 L 197.519531 210.480469 C 197.519531 204.683594 202.257812 199.941406 208.050781 199.941406 Z M 208.050781 199.941406 " fill-opacity="1" fill-rule="nonzero"/><path fill="#cfd8dc" d="M 287.054688 268.429688 L 308.121094 268.429688 C 313.914062 268.429688 318.652344 273.171875 318.652344 278.96875 L 318.652344 300.042969 C 318.652344 305.835938 313.914062 310.578125 308.121094 310.578125 L 287.054688 310.578125 C 281.261719 310.578125 276.519531 305.835938 276.519531 300.042969 L 276.519531 278.96875 C 276.519531 273.171875 281.261719 268.429688 287.054688 268.429688 Z M 287.054688 268.429688 " fill-opacity="1" fill-rule="nonzero"/><path fill="#cfd8dc" d="M 208.050781 268.429688 L 229.117188 268.429688 C 234.914062 268.429688 239.652344 273.171875 239.652344 278.96875 L 239.652344 300.042969 C 239.652344 305.835938 234.914062 310.578125 229.117188 310.578125 L 208.050781 310.578125 C 202.257812 310.578125 197.519531 305.835938 197.519531 300.042969 L 197.519531 278.96875 C 197.519531 273.171875 202.257812 268.429688 208.050781 268.429688 Z M 208.050781 268.429688 " fill-opacity="1" fill-rule="nonzero"/><path fill="#cfd8dc" d="M 287.054688 336.917969 L 308.121094 336.917969 C 313.914062 336.917969 318.652344 341.660156 318.652344 347.457031 L 318.652344 368.527344 C 318.652344 374.324219 313.914062 379.066406 308.121094 379.066406 L 287.054688 379.066406 C 281.261719 379.066406 276.519531 374.324219 276.519531 368.527344 L 276.519531 347.457031 C 276.519531 341.660156 281.261719 336.917969 287.054688 336.917969 Z M 287.054688 336.917969 " fill-opacity="1" fill-rule="nonzero"/><path fill="#cfd8dc" d="M 208.050781 336.917969 L 229.117188 336.917969 C 234.914062 336.917969 239.652344 341.660156 239.652344 347.457031 L 239.652344 368.527344 C 239.652344 374.324219 234.914062 379.066406 229.117188 379.066406 L 208.050781 379.066406 C 202.257812 379.066406 197.519531 374.324219 197.519531 368.527344 L 197.519531 347.457031 C 197.519531 341.660156 202.257812 336.917969 208.050781 336.917969 Z M 208.050781 336.917969 " fill-opacity="1" fill-rule="nonzero"/><path fill="#ef5350" d="M 260.71875 426.480469 L 276.519531 426.480469 C 282.3125 426.480469 287.054688 431.222656 287.054688 437.015625 L 287.054688 452.820312 C 287.054688 458.617188 282.3125 463.359375 276.519531 463.359375 L 260.71875 463.359375 C 254.925781 463.359375 250.1875 458.617188 250.1875 452.820312 L 250.1875 437.015625 C 250.1875 431.222656 254.925781 426.480469 260.71875 426.480469 Z M 260.71875 426.480469 " fill-opacity="1" fill-rule="nonzero"/><path fill="#ffca28" d="M 202.785156 426.480469 L 218.585938 426.480469 C 224.378906 426.480469 229.117188 431.222656 229.117188 437.015625 L 229.117188 452.820312 C 229.117188 458.617188 224.378906 463.359375 218.585938 463.359375 L 202.785156 463.359375 C 196.992188 463.359375 192.25 458.617188 192.25 452.820312 L 192.25 437.015625 C 192.25 431.222656 196.992188 426.480469 202.785156 426.480469 Z M 202.785156 426.480469 " fill-opacity="1" fill-rule="nonzero"/><path fill="#4fc3f7" d="M 376.589844 426.480469 L 392.390625 426.480469 C 398.183594 426.480469 402.921875 431.222656 402.921875 437.015625 L 402.921875 452.820312 C 402.921875 458.617188 398.183594 463.359375 392.390625 463.359375 L 376.589844 463.359375 C 370.796875 463.359375 366.054688 458.617188 366.054688 452.820312 L 366.054688 437.015625 C 366.054688 431.222656 370.796875 426.480469 376.589844 426.480469 Z M 376.589844 426.480469 " fill-opacity="1" fill-rule="nonzero"/><path fill="#7cb342" d="M 318.652344 426.480469 L 334.453125 426.480469 C 340.25 426.480469 344.988281 431.222656 344.988281 437.015625 L 344.988281 452.820312 C 344.988281 458.617188 340.25 463.359375 334.453125 463.359375 L 318.652344 463.359375 C 312.859375 463.359375 308.121094 458.617188 308.121094 452.820312 L 308.121094 437.015625 C 308.121094 431.222656 312.859375 426.480469 318.652344 426.480469 Z M 318.652344 426.480469 " fill-opacity="1" fill-rule="nonzero"/></svg>