<svg xmlns="http://www.w3.org/2000/svg" xmlns:xlink="http://www.w3.org/1999/xlink" width="1080" zoomAndPan="magnify" viewBox="0 0 810 1012.49997" height="1350" preserveAspectRatio="xMidYMid meet" version="1.0"><defs><clipPath id="77f06319c1"><path d="M 3 333 L 739 333 L 739 822.410156 L 3 822.410156 Z M 3 333 " clip-rule="nonzero"/></clipPath></defs><path fill="#fdbd94" d="M 517.445312 335.585938 C 517.445312 335.585938 500.765625 314.328125 521.433594 296.078125 C 537.472656 281.914062 562.132812 282.890625 578.890625 292.472656 C 595.648438 302.054688 685.023438 349.160156 729.714844 430.597656 C 774.402344 512.035156 809.515625 615.828125 784.777344 670.917969 C 774.179688 694.515625 747.558594 666.445312 738.863281 647.863281 C 727.261719 623.0625 734.503906 598.953125 728.117188 580.699219 C 716.945312 548.761719 657.09375 404.25 517.445312 335.585938 Z M 517.445312 335.585938 " fill-opacity="1" fill-rule="nonzero"/><path fill="#db915d" d="M 5.863281 771.960938 C 5.863281 771.960938 1.105469 793.117188 3.851562 796.128906 C 6.597656 799.136719 7.777344 800.054688 14.183594 798.351562 C 20.59375 796.652344 54.34375 781.078125 60.621094 778.460938 C 66.902344 775.84375 115.429688 756.082031 130.605469 751.367188 C 145.777344 746.65625 306.019531 712.238281 338.984375 706.480469 C 371.945312 700.722656 563.449219 680.304688 602.691406 685.015625 C 641.933594 689.726562 743.441406 688.679688 743.441406 688.679688 C 743.441406 688.679688 781.898438 688.679688 784.253906 674.285156 C 786.609375 659.886719 790.796875 648.632812 771.695312 631.882812 C 752.597656 615.128906 727.222656 642.351562 730.101562 651.511719 C 732.976562 660.671875 740.835938 679.371094 737.167969 683.605469 C 733.5 687.839844 714.925781 682.921875 711.523438 682.921875 C 708.125 682.921875 634.347656 669.574219 608.449219 670.882812 C 582.546875 672.191406 470.316406 664.859375 457.496094 669.3125 C 444.675781 673.761719 346.832031 688.15625 268.347656 705.433594 C 189.859375 722.707031 52.511719 744.433594 28.183594 764.324219 C 3.851562 784.21875 5.863281 771.960938 5.863281 771.960938 Z M 5.863281 771.960938 " fill-opacity="1" fill-rule="nonzero"/><g clip-path="url(#77f06319c1)"><path fill="#fbc941" d="M 9.25 799.058594 C 9.25 799.058594 9.25 791.152344 5.015625 788.894531 C 0.785156 786.636719 5.863281 771.960938 5.863281 771.960938 C 5.863281 771.960938 13.761719 739.496094 48.464844 684.171875 C 83.167969 628.84375 132.542969 564.765625 166.964844 538.515625 C 201.386719 512.261719 266.84375 459.195312 286.308594 447.339844 C 305.777344 436.21875 333.707031 415.402344 405.089844 377.898438 C 473.707031 341.847656 510.890625 333.863281 519.074219 333.863281 C 527.253906 333.863281 562.804688 346 581.992188 362.371094 C 601.175781 378.742188 645.472656 420.804688 658.449219 447.339844 C 671.429688 473.871094 681.585938 468.507812 699.359375 511.980469 C 717.136719 555.449219 740.835938 593.839844 738.859375 634.488281 C 736.886719 675.136719 737.167969 683.605469 737.167969 683.605469 L 733.5 687.839844 C 733.5 687.839844 661.835938 675.417969 619.234375 676.265625 C 576.628906 677.113281 549.542969 681.347656 523.023438 694.613281 C 496.503906 707.882812 456.722656 713.527344 449.949219 713.527344 C 443.179688 713.527344 402.269531 697.71875 387.03125 694.613281 C 371.796875 691.507812 348.660156 683.324219 326.9375 697.71875 C 305.210938 712.117188 297.878906 708.164062 292.796875 710.421875 C 287.71875 712.679688 255.839844 724.820312 244.269531 745.140625 C 232.703125 765.464844 247.65625 777.886719 227.058594 798.492188 C 206.464844 819.101562 181.636719 804.984375 177.6875 791.71875 C 173.734375 778.453125 176.558594 748.246094 154.550781 744.859375 C 132.542969 741.472656 109.691406 746.273438 91.914062 757 C 74.140625 767.726562 74.988281 761.796875 66.804688 769.699219 C 58.625 777.605469 53.828125 777.886719 52.980469 781.273438 C 52.132812 784.660156 43.953125 799.058594 43.671875 803.292969 C 43.386719 807.527344 38.875 822.488281 26.460938 822.488281 C 14.046875 822.488281 11.507812 816.277344 10.097656 808.9375 C 8.683594 801.597656 9.25 799.058594 9.25 799.058594 Z M 9.25 799.058594 " fill-opacity="1" fill-rule="nonzero"/></g><path fill="#f6b002" d="M 502.332031 401.222656 C 464.820312 402.175781 451.386719 433.496094 431.046875 442.539062 C 426.683594 444.480469 356.277344 462.578125 363.335938 469.636719 C 364.296875 470.601562 365.425781 471.355469 366.671875 471.957031 C 326.117188 501.398438 249.132812 486.789062 216.621094 519.316406 C 212.820312 523.121094 219.070312 539.261719 216.621094 544.160156 C 214.816406 547.769531 197.671875 556.8125 205.335938 564.480469 C 205.910156 565.058594 230.105469 576.917969 214.363281 580.292969 C 191.574219 585.179688 139.78125 584.90625 121.824219 602.871094 C 109.699219 615.003906 130.324219 640.398438 110.539062 650.292969 C 96.609375 657.261719 67.765625 702.121094 54.109375 715.785156 C 43.191406 726.707031 8.699219 742.753906 22.507812 749.660156 C 52.339844 764.582031 217.859375 659.933594 230.160156 643.519531 C 240.347656 629.929688 295.984375 594.207031 313.679688 611.910156 C 342.917969 641.164062 258.859375 701.589844 259.503906 702.238281 C 263.582031 706.316406 301.753906 684.804688 304.648438 681.910156 C 316.003906 670.550781 355.953125 675.746094 372.363281 659.332031 C 388.660156 643.023438 358.683594 628.515625 394.933594 616.425781 C 397.449219 615.585938 399.914062 615.308594 402.347656 615.410156 C 386.179688 607.042969 375.691406 590.425781 361.035156 583.089844 C 337.378906 571.257812 301.976562 573.507812 284.421875 555.945312 C 257.035156 528.542969 383.550781 538.210938 384.976562 536.785156 C 390.828125 530.929688 379.125 507.507812 384.976562 501.652344 C 390.933594 495.691406 405.605469 493.785156 410.507812 488.878906 C 416.144531 483.242188 404.957031 473.136719 402.53125 471.316406 C 453.835938 462.433594 419.761719 495.585938 426.46875 500.058594 C 428.226562 501.234375 436.703125 500.714844 437.644531 501.652344 C 444.917969 508.933594 419.277344 525.871094 423.277344 527.203125 C 467.636719 541.996094 472.757812 533.058594 472.757812 581.496094 C 472.757812 585.789062 535.589844 571.738281 531.808594 583.089844 C 525.550781 601.875 451.328125 621.636719 418.542969 619.773438 C 423.367188 621.550781 428.234375 623.199219 433.304688 623.199219 C 522.738281 623.199219 448.847656 641.007812 480.703125 672.878906 C 514.75 706.941406 600.972656 624.007812 625.15625 611.910156 C 629.960938 609.503906 613.132812 605.390625 609.359375 602.871094 C 602.542969 598.328125 597.601562 576.480469 602.585938 569 C 614.449219 551.195312 671.371094 537.917969 652.242188 528.351562 C 648.214844 526.335938 643.253906 525.734375 638.03125 525.410156 C 643.894531 521.113281 653.933594 513.667969 652.242188 510.285156 C 649.75 505.300781 632.753906 504.339844 629.671875 501.253906 C 623.328125 494.910156 633.890625 471.308594 629.671875 462.863281 C 627.554688 458.628906 611.394531 455.867188 607.101562 451.574219 C 597.613281 442.082031 607.398438 418 600.332031 410.925781 C 587.820312 398.40625 543.339844 412.898438 525.847656 404.148438 C 517.050781 401.90625 509.28125 401.046875 502.332031 401.222656 Z M 502.332031 401.222656 " fill-opacity="1" fill-rule="nonzero"/><path fill="#ffdd8a" d="M 608.417969 444.171875 C 596.871094 413.390625 565.792969 395.140625 546.171875 375.507812 C 524.738281 354.0625 421.507812 377.277344 404.125 394.667969 C 401.480469 397.316406 411.660156 415.554688 446.398438 421.148438 C 473.296875 425.480469 528.660156 414.5625 517.445312 431.394531 C 504.71875 450.496094 455.394531 423.214844 442.429688 436.1875 C 434.089844 444.53125 465.835938 446.039062 455.199219 467.324219 C 442.816406 492.101562 397.8125 472.914062 373.800781 472.914062 C 361.644531 472.914062 345.988281 470.859375 335.496094 476.105469 C 333.992188 476.859375 329.027344 477.703125 330.710938 477.703125 C 335 477.703125 347.546875 477.464844 343.476562 476.105469 C 336.347656 473.726562 314.269531 475.261719 308.367188 476.105469 C 267.855469 481.898438 250.496094 497.277344 228.5625 519.21875 C 225.882812 521.902344 261.304688 522.414062 266.867188 522.414062 C 288.449219 522.414062 354.707031 514.207031 346.667969 546.367188 C 339.355469 575.640625 262.246094 538.714844 239.519531 559.339844 C 211.726562 584.558594 186.234375 591.410156 163.128906 600.65625 C 157.15625 603.046875 111.195312 608.519531 116.84375 619.820312 C 124.167969 634.472656 278.144531 604.695312 293.453125 593.207031 C 307.058594 583 468.3125 571.007812 456.792969 547.964844 C 452.179688 538.726562 412.167969 551.21875 404.125 543.171875 C 396.761719 535.804688 414.558594 515.289062 413.703125 514.429688 C 410.289062 511.015625 397.492188 516.699219 392.953125 514.429688 C 391.339844 513.621094 384.570312 499.179688 388.167969 498.460938 C 434.246094 489.242188 424.960938 523.210938 471.957031 523.210938 C 472.355469 523.210938 587.664062 500.046875 582.878906 492.074219 C 570.335938 471.15625 480.933594 460.488281 495.097656 456.945312 C 548.757812 443.523438 500.894531 518.925781 520.636719 528.800781 C 542.835938 539.90625 552.554688 525.496094 552.554688 554.351562 C 552.554688 564.285156 502.449219 558.929688 495.898438 567.125 C 486.300781 579.128906 516.96875 593.113281 503.078125 594.269531 C 432.585938 600.148438 377.882812 595.945312 313.953125 603.054688 C 263.53125 608.65625 220.527344 652.167969 171.109375 664.53125 C 149.417969 669.953125 126.300781 673.34375 104.074219 678.902344 C 102.636719 679.261719 94.410156 688.894531 94.5 689.050781 C 101.546875 701.441406 115.777344 685.289062 126.417969 685.289062 C 140.710938 685.289062 176.648438 680.078125 190.261719 686.886719 C 204.960938 694.238281 165.464844 741.605469 198.238281 725.210938 C 262.113281 693.253906 227.003906 699.601562 246.121094 667.722656 C 252.269531 657.472656 304.261719 707.800781 330.191406 682.03125 C 383.902344 628.65625 411.726562 634.46875 428.066406 651.753906 C 441.199219 665.652344 439.496094 683.597656 477.542969 669.320312 C 486.984375 665.777344 496.171875 659.203125 504.675781 654.949219 C 555.910156 629.320312 458.628906 644.273438 474.351562 624.609375 C 477.71875 620.398438 493.660156 615.363281 498.292969 613.433594 C 502.109375 611.839844 542.082031 605.648438 542.980469 603.851562 C 552.558594 584.683594 574.632812 573.347656 598.839844 570.316406 C 630.011719 566.421875 604.019531 597.0625 614.800781 600.65625 C 618.835938 602.003906 632.628906 597.738281 635.546875 600.65625 C 648.769531 613.886719 614.007812 636.585938 649.914062 629.402344 C 664.71875 626.4375 694.992188 606.226562 685.023438 586.285156 C 678.582031 573.394531 645.25 576.828125 635.546875 567.125 C 629.40625 560.980469 639.914062 525.398438 633.953125 522.414062 C 618.785156 514.828125 568.761719 532.242188 557.34375 520.816406 C 536.316406 499.777344 643.460938 500.804688 657.3125 486.945312 C 668.402344 475.851562 630.820312 456.945312 627.570312 456.945312 C 620.480469 456.945312 582.277344 452.757812 600.4375 434.589844 C 605.101562 429.921875 623.792969 436.476562 608.417969 444.171875 Z M 608.417969 444.171875 " fill-opacity="1" fill-rule="nonzero"/><path fill="#af3902" d="M 212.988281 632.9375 C 209.277344 644.015625 208.472656 652.132812 212.421875 660.601562 C 215.730469 667.695312 226.492188 681.601562 251.921875 680.359375 C 275.058594 679.230469 306.867188 659.019531 301.863281 627.292969 C 295.796875 588.855469 247.691406 594.828125 234.429688 606.402344 C 221.171875 617.976562 215.6875 624.886719 212.988281 632.9375 Z M 212.988281 632.9375 " fill-opacity="1" fill-rule="nonzero"/><path fill="#e84c03" d="M 209.945312 627.902344 C 206.230469 638.980469 205.429688 647.097656 209.378906 655.566406 C 212.6875 662.660156 223.449219 676.566406 248.878906 675.324219 C 272.015625 674.195312 303.824219 653.984375 298.816406 622.257812 C 292.753906 583.820312 244.648438 589.796875 231.386719 601.367188 C 218.125 612.941406 212.640625 619.851562 209.945312 627.902344 Z M 209.945312 627.902344 " fill-opacity="1" fill-rule="nonzero"/><path fill="#af3902" d="M 220.417969 628.980469 C 220.257812 634.652344 226.820312 630.261719 220.417969 628.980469 Z M 220.417969 628.980469 " fill-opacity="1" fill-rule="nonzero"/><path fill="#af3902" d="M 254.722656 609.46875 C 250.996094 610.257812 254.8125 614.3125 256.601562 612.523438 C 258.035156 611.085938 256.96875 608.34375 254.722656 609.46875 Z M 254.722656 609.46875 " fill-opacity="1" fill-rule="nonzero"/><path fill="#af3902" d="M 258.714844 639.558594 C 259.332031 638.078125 260.757812 638.148438 262.238281 638.148438 C 267.121094 638.148438 256.371094 651.28125 258.714844 639.558594 Z M 258.714844 639.558594 " fill-opacity="1" fill-rule="nonzero"/><path fill="#af3902" d="M 238.273438 640.96875 C 244.445312 639.679688 237.332031 648.613281 237.332031 642.613281 C 237.332031 641.125 237.140625 641.535156 238.273438 640.96875 Z M 238.273438 640.96875 " fill-opacity="1" fill-rule="nonzero"/><path fill="#af3902" d="M 284.324219 630.625 C 282.714844 636.957031 289.101562 627.039062 284.324219 630.625 Z M 284.324219 630.625 " fill-opacity="1" fill-rule="nonzero"/><path fill="#af3902" d="M 248.378906 664.476562 C 254.375 660.652344 248.378906 671.964844 248.378906 664.476562 Z M 248.378906 664.476562 " fill-opacity="1" fill-rule="nonzero"/><path fill="#af3902" d="M 233.808594 611.816406 C 234.039062 616.664062 237.855469 608.785156 233.808594 611.816406 Z M 233.808594 611.816406 " fill-opacity="1" fill-rule="nonzero"/><path fill="#af3902" d="M 224.175781 654.132812 C 227.566406 644.800781 215.273438 658.585938 224.175781 654.132812 Z M 224.175781 654.132812 " fill-opacity="1" fill-rule="nonzero"/><path fill="#af3902" d="M 278.453125 652.25 C 277.253906 652.023438 277.511719 652.210938 277.511719 651.074219 C 277.511719 646.742188 283.054688 655.703125 278.453125 652.25 Z M 278.453125 652.25 " fill-opacity="1" fill-rule="nonzero"/><path fill="#af3902" d="M 275.164062 610.171875 C 272.214844 607.503906 276.808594 603.871094 276.808594 609.234375 C 276.808594 610.484375 276.445312 610.171875 275.164062 610.171875 Z M 275.164062 610.171875 " fill-opacity="1" fill-rule="nonzero"/><path fill="#af3902" d="M 436.539062 407.5 C 433.484375 416.105469 432.828125 422.40625 436.078125 428.984375 C 438.796875 434.492188 447.652344 445.292969 468.574219 444.332031 C 487.609375 443.453125 513.785156 427.757812 509.664062 403.117188 C 504.671875 373.261719 465.09375 377.902344 454.183594 386.894531 C 443.273438 395.882812 438.761719 401.246094 436.539062 407.5 Z M 436.539062 407.5 " fill-opacity="1" fill-rule="nonzero"/><path fill="#e84c03" d="M 434.035156 403.589844 C 430.980469 412.195312 430.320312 418.5 433.570312 425.074219 C 436.292969 430.585938 445.148438 441.386719 466.070312 440.421875 C 485.105469 439.542969 511.277344 423.847656 507.160156 399.207031 C 502.167969 369.355469 462.589844 373.996094 451.679688 382.984375 C 440.769531 391.972656 436.257812 397.335938 434.035156 403.589844 Z M 434.035156 403.589844 " fill-opacity="1" fill-rule="nonzero"/><path fill="#af3902" d="M 442.652344 404.425781 C 442.523438 408.832031 447.921875 405.421875 442.652344 404.425781 Z M 442.652344 404.425781 " fill-opacity="1" fill-rule="nonzero"/><path fill="#af3902" d="M 470.878906 389.273438 C 467.8125 389.886719 470.953125 393.035156 472.425781 391.644531 C 473.605469 390.53125 472.726562 388.398438 470.878906 389.273438 Z M 470.878906 389.273438 " fill-opacity="1" fill-rule="nonzero"/><path fill="#af3902" d="M 474.164062 412.640625 C 474.671875 411.492188 475.84375 411.546875 477.0625 411.546875 C 481.078125 411.546875 472.234375 421.75 474.164062 412.640625 Z M 474.164062 412.640625 " fill-opacity="1" fill-rule="nonzero"/><path fill="#af3902" d="M 457.34375 413.738281 C 462.425781 412.738281 456.570312 419.675781 456.570312 415.015625 C 456.570312 413.859375 456.414062 414.175781 457.34375 413.738281 Z M 457.34375 413.738281 " fill-opacity="1" fill-rule="nonzero"/><path fill="#af3902" d="M 495.234375 405.703125 C 493.910156 410.621094 499.164062 402.921875 495.234375 405.703125 Z M 495.234375 405.703125 " fill-opacity="1" fill-rule="nonzero"/><path fill="#af3902" d="M 465.65625 431.992188 C 470.59375 429.027344 465.65625 437.808594 465.65625 431.992188 Z M 465.65625 431.992188 " fill-opacity="1" fill-rule="nonzero"/><path fill="#af3902" d="M 453.671875 391.097656 C 453.859375 394.863281 457 388.742188 453.671875 391.097656 Z M 453.671875 391.097656 " fill-opacity="1" fill-rule="nonzero"/><path fill="#af3902" d="M 445.746094 423.960938 C 448.535156 416.714844 438.417969 427.421875 445.746094 423.960938 Z M 445.746094 423.960938 " fill-opacity="1" fill-rule="nonzero"/><path fill="#af3902" d="M 490.402344 422.5 C 489.417969 422.324219 489.628906 422.46875 489.628906 421.585938 C 489.628906 418.222656 494.191406 425.183594 490.402344 422.5 Z M 490.402344 422.5 " fill-opacity="1" fill-rule="nonzero"/><path fill="#af3902" d="M 487.695312 389.820312 C 485.273438 387.746094 489.050781 384.925781 489.050781 389.089844 C 489.050781 390.0625 488.75 389.820312 487.695312 389.820312 Z M 487.695312 389.820312 " fill-opacity="1" fill-rule="nonzero"/><path fill="#9eb31a" d="M 329.195312 631.382812 C 328.882812 605.742188 354.640625 608.339844 363.332031 614.304688 C 356.402344 619.890625 344.964844 644.605469 329.195312 631.382812 Z M 329.195312 631.382812 " fill-opacity="1" fill-rule="nonzero"/><path fill="#497100" d="M 363.335938 614.304688 C 346.042969 615.558594 337.96875 623.144531 329.195312 631.382812 C 344.964844 644.605469 356.402344 619.890625 363.335938 614.304688 Z M 363.335938 614.304688 " fill-opacity="1" fill-rule="nonzero"/><path fill="#9eb31a" d="M 393.597656 532.433594 C 358.792969 531.039062 364.136719 496.25 372.847656 484.871094 C 379.933594 494.679688 412.648438 511.957031 393.597656 532.433594 Z M 393.597656 532.433594 " fill-opacity="1" fill-rule="nonzero"/><path fill="#497100" d="M 372.847656 484.871094 C 373.324219 508.4375 383.046875 519.941406 393.597656 532.433594 C 412.648438 511.957031 379.9375 494.679688 372.847656 484.871094 Z M 372.847656 484.871094 " fill-opacity="1" fill-rule="nonzero"/><path fill="#9eb31a" d="M 574.78125 490.777344 C 568.398438 465.695312 543.964844 474.949219 537.046875 483.035156 C 545.261719 486.671875 562.855469 507.78125 574.78125 490.777344 Z M 574.78125 490.777344 " fill-opacity="1" fill-rule="nonzero"/><path fill="#497100" d="M 537.046875 483.039062 C 554.230469 479.746094 564.082031 485.035156 574.777344 490.777344 C 562.855469 507.78125 545.261719 486.675781 537.046875 483.039062 Z M 537.046875 483.039062 " fill-opacity="1" fill-rule="nonzero"/><path fill="#9eb31a" d="M 474.058594 456.140625 C 451.804688 455.160156 453.347656 477.617188 458.285156 485.335938 C 463.328125 479.464844 485.101562 470.210938 474.058594 456.140625 Z M 474.058594 456.140625 " fill-opacity="1" fill-rule="nonzero"/><path fill="#497100" d="M 458.285156 485.335938 C 459.851562 470.34375 466.664062 463.535156 474.058594 456.140625 C 485.101562 470.210938 463.328125 479.464844 458.285156 485.335938 Z M 458.285156 485.335938 " fill-opacity="1" fill-rule="nonzero"/><path fill="#9eb31a" d="M 668.867188 596.203125 C 660.175781 572.078125 685.359375 566.085938 695.527344 568.875 C 690.808594 576.425781 688.097656 603.523438 668.867188 596.203125 Z M 668.867188 596.203125 " fill-opacity="1" fill-rule="nonzero"/><path fill="#497100" d="M 695.527344 568.867188 C 679.601562 575.71875 674.457031 585.539062 668.867188 596.195312 C 688.097656 603.515625 690.808594 576.417969 695.527344 568.867188 Z M 695.527344 568.867188 " fill-opacity="1" fill-rule="nonzero"/><path fill="#9eb31a" d="M 137.695312 601.515625 C 125.886719 582.863281 142.570312 568.019531 150.507812 566.753906 C 148.867188 575.371094 153.179688 600.984375 137.695312 601.515625 Z M 137.695312 601.515625 " fill-opacity="1" fill-rule="nonzero"/><path fill="#497100" d="M 150.511719 566.753906 C 140.667969 578.917969 139.242188 589.753906 137.695312 601.515625 C 153.183594 600.980469 148.867188 575.371094 150.511719 566.753906 Z M 150.511719 566.753906 " fill-opacity="1" fill-rule="nonzero"/><path fill="#c4e54a" d="M 115.65625 678.660156 C 113.671875 678.660156 112.957031 677.449219 110.84375 677.363281 C 109.453125 667.058594 114.640625 668.011719 120.28125 662.371094 C 127.207031 655.441406 123.644531 645.714844 138.039062 645.714844 C 138.128906 646.867188 138.222656 647.855469 138.222656 649.046875 C 125.121094 647.796875 131.691406 660.578125 127.679688 664.59375 C 124.710938 667.5625 120.4375 668.691406 117.691406 671.441406 C 115.949219 673.179688 116.652344 676.660156 115.65625 678.660156 Z M 115.65625 678.660156 " fill-opacity="1" fill-rule="nonzero"/><path fill="#c4e54a" d="M 221.160156 547.039062 C 221.316406 545.058594 222.578125 544.441406 222.824219 542.339844 C 233.199219 541.753906 231.847656 546.851562 237.03125 552.914062 C 243.402344 560.363281 253.371094 557.5625 252.253906 571.921875 C 251.097656 571.921875 250.101562 571.941406 248.917969 571.847656 C 251.179688 558.875 237.933594 564.4375 234.246094 560.125 C 231.515625 556.929688 230.722656 552.582031 228.195312 549.628906 C 226.597656 547.757812 223.074219 548.1875 221.160156 547.039062 Z M 221.160156 547.039062 " fill-opacity="1" fill-rule="nonzero"/><path fill="#c4e54a" d="M 439.375 652.414062 C 438.390625 653.597656 437.3125 653.421875 436.214844 654.644531 C 429.371094 650.355469 432.515625 647.730469 431.949219 641.558594 C 431.25 633.972656 423.671875 631.273438 430.824219 622.667969 C 431.558594 623.1875 432.195312 623.621094 432.90625 624.210938 C 425.652344 631.421875 436.546875 633.84375 436.949219 638.238281 C 437.25 641.488281 435.800781 644.601562 436.078125 647.609375 C 436.25 649.515625 438.679688 650.824219 439.375 652.414062 Z M 439.375 652.414062 " fill-opacity="1" fill-rule="nonzero"/><path fill="#c4e54a" d="M 325.070312 552.910156 C 323.894531 551.914062 324.078125 550.839844 322.867188 549.726562 C 327.210938 542.917969 329.808594 546.085938 335.984375 545.570312 C 343.570312 544.941406 346.335938 537.382812 354.871094 544.609375 C 354.347656 545.339844 353.90625 545.972656 353.3125 546.679688 C 346.167969 539.359375 343.652344 550.238281 339.257812 550.605469 C 336.007812 550.875 332.90625 549.398438 329.898438 549.652344 C 327.992188 549.808594 326.664062 552.226562 325.070312 552.910156 Z M 325.070312 552.910156 " fill-opacity="1" fill-rule="nonzero"/><path fill="#c4e54a" d="M 555.429688 570.105469 C 563.667969 556.621094 572.945312 576.941406 581.503906 579.417969 C 586.15625 579.664062 595.730469 594.210938 588.203125 590.507812 C 580.726562 583.757812 567.449219 585.738281 564.121094 573.84375 C 562.085938 571.277344 558.820312 569.285156 555.429688 570.105469 Z M 555.429688 570.105469 " fill-opacity="1" fill-rule="nonzero"/><path fill="#c4e54a" d="M 645.601562 537.40625 C 644.457031 538.441406 643.417969 538.113281 642.15625 539.164062 C 635.992188 533.945312 639.480469 531.792969 639.796875 525.605469 C 640.191406 517.996094 633.074219 514.242188 641.378906 506.746094 C 642.03125 507.363281 642.597656 507.886719 643.21875 508.570312 C 635.011719 514.671875 645.449219 518.625 645.222656 523.03125 C 645.054688 526.292969 643.175781 529.167969 643.023438 532.183594 C 642.925781 534.09375 645.140625 535.734375 645.601562 537.40625 Z M 645.601562 537.40625 " fill-opacity="1" fill-rule="nonzero"/><path fill="#c4e54a" d="M 381.558594 469.011719 C 380.019531 468.929688 379.515625 467.960938 377.878906 467.808594 C 377.222656 459.757812 381.207031 460.710938 385.8125 456.5625 C 391.472656 451.46875 389.105469 443.777344 400.273438 444.367188 C 400.300781 445.265625 400.332031 446.035156 400.28125 446.960938 C 390.167969 445.453125 394.742188 455.640625 391.464844 458.589844 C 389.039062 460.773438 385.675781 461.472656 383.433594 463.492188 C 382.011719 464.773438 382.414062 467.503906 381.558594 469.011719 Z M 381.558594 469.011719 " fill-opacity="1" fill-rule="nonzero"/><path fill="#c4e54a" d="M 564.363281 411.953125 C 564.453125 413.492188 563.550781 414.101562 563.582031 415.746094 C 555.664062 417.308594 556.15625 413.242188 551.519531 409.132812 C 545.820312 404.082031 538.449219 407.304688 537.769531 396.136719 C 538.660156 396.011719 539.421875 395.890625 540.34375 395.835938 C 539.992188 406.058594 549.589844 400.359375 552.890625 403.285156 C 555.335938 405.449219 556.410156 408.710938 558.671875 410.714844 C 560.101562 411.980469 562.765625 411.273438 564.363281 411.953125 Z M 564.363281 411.953125 " fill-opacity="1" fill-rule="nonzero"/><path fill="#c4e54a" d="M 629.191406 610.707031 C 628.503906 611.664062 627.871094 612.65625 627.300781 613.683594 C 626.730469 614.710938 626.230469 615.75 625.804688 616.808594 C 625.375 617.863281 625.023438 618.914062 624.753906 619.960938 C 624.480469 621.007812 624.292969 622.027344 624.191406 623.019531 C 624.085938 624.015625 624.070312 624.964844 624.140625 625.871094 C 624.207031 626.777344 624.363281 627.617188 624.601562 628.398438 C 624.839844 629.183594 625.15625 629.886719 625.554688 630.511719 C 625.953125 631.140625 626.425781 631.679688 626.96875 632.128906 C 627.484375 632.550781 628.054688 632.886719 628.683594 633.132812 C 628.324219 632.589844 628.027344 631.984375 627.789062 631.316406 C 627.554688 630.648438 627.382812 629.933594 627.277344 629.164062 C 627.171875 628.394531 627.132812 627.585938 627.164062 626.738281 C 627.191406 625.890625 627.285156 625.015625 627.445312 624.113281 C 627.609375 623.214844 627.832031 622.296875 628.121094 621.367188 C 628.410156 620.441406 628.761719 619.511719 629.167969 618.582031 C 629.578125 617.65625 630.039062 616.742188 630.554688 615.84375 C 631.070312 614.945312 631.632812 614.070312 632.242188 613.226562 C 632.847656 612.386719 633.492188 611.582031 634.171875 610.820312 C 634.855469 610.058594 635.5625 609.347656 636.296875 608.691406 C 637.03125 608.03125 637.78125 607.433594 638.546875 606.898438 C 639.308594 606.363281 640.078125 605.898438 640.851562 605.503906 C 641.625 605.109375 642.390625 604.789062 643.148438 604.542969 C 643.90625 604.296875 644.648438 604.132812 645.367188 604.046875 C 646.089844 603.960938 646.78125 603.953125 647.441406 604.03125 C 648.101562 604.105469 648.726562 604.257812 649.308594 604.492188 C 648.925781 603.90625 648.480469 603.402344 647.972656 602.976562 C 647.429688 602.527344 646.824219 602.175781 646.15625 601.921875 C 645.488281 601.667969 644.769531 601.515625 644.003906 601.464844 C 643.238281 601.417969 642.4375 601.472656 641.605469 601.628906 C 640.769531 601.789062 639.914062 602.046875 639.042969 602.40625 C 638.171875 602.765625 637.296875 603.21875 636.421875 603.761719 C 635.546875 604.308594 634.6875 604.9375 633.839844 605.652344 C 632.996094 606.363281 632.183594 607.144531 631.398438 607.996094 C 630.617188 608.847656 629.882812 609.75 629.191406 610.707031 Z M 629.191406 610.707031 " fill-opacity="1" fill-rule="nonzero"/><path fill="#68a100" d="M 649.308594 604.492188 C 649.667969 605.035156 649.964844 605.640625 650.199219 606.308594 C 650.4375 606.972656 650.605469 607.691406 650.710938 608.460938 C 650.816406 609.230469 650.855469 610.039062 650.828125 610.886719 C 650.796875 611.734375 650.703125 612.609375 650.542969 613.511719 C 650.382812 614.410156 650.15625 615.328125 649.867188 616.253906 C 649.578125 617.183594 649.230469 618.113281 648.820312 619.039062 C 648.410156 619.96875 647.949219 620.882812 647.433594 621.78125 C 646.917969 622.679688 646.355469 623.550781 645.75 624.394531 C 645.140625 625.238281 644.496094 626.042969 643.816406 626.804688 C 643.136719 627.566406 642.425781 628.277344 641.695312 628.933594 C 640.960938 629.59375 640.210938 630.191406 639.445312 630.726562 C 638.679688 631.261719 637.910156 631.726562 637.136719 632.121094 C 636.363281 632.515625 635.597656 632.835938 634.839844 633.082031 C 634.082031 633.328125 633.34375 633.492188 632.621094 633.578125 C 631.902344 633.664062 631.210938 633.671875 630.546875 633.59375 C 629.886719 633.519531 629.265625 633.367188 628.683594 633.132812 C 629.0625 633.71875 629.507812 634.222656 630.015625 634.648438 C 630.5625 635.097656 631.167969 635.449219 631.832031 635.703125 C 632.5 635.957031 633.21875 636.109375 633.984375 636.160156 C 634.75 636.207031 635.550781 636.152344 636.386719 635.996094 C 637.222656 635.835938 638.074219 635.578125 638.945312 635.21875 C 639.820312 634.859375 640.691406 634.40625 641.566406 633.859375 C 642.441406 633.316406 643.304688 632.6875 644.148438 631.972656 C 644.992188 631.261719 645.808594 630.480469 646.589844 629.628906 C 647.371094 628.777344 648.109375 627.875 648.796875 626.917969 C 649.488281 625.960938 650.117188 624.96875 650.6875 623.941406 C 651.257812 622.914062 651.757812 621.875 652.1875 620.816406 C 652.617188 619.761719 652.964844 618.710938 653.238281 617.664062 C 653.507812 616.617188 653.695312 615.597656 653.800781 614.605469 C 653.902344 613.609375 653.917969 612.660156 653.851562 611.753906 C 653.78125 610.847656 653.628906 610.003906 653.390625 609.222656 C 653.152344 608.441406 652.832031 607.738281 652.433594 607.113281 C 652.035156 606.484375 651.5625 605.945312 651.019531 605.496094 C 650.503906 605.074219 649.933594 604.738281 649.308594 604.492188 Z M 649.308594 604.492188 " fill-opacity="1" fill-rule="nonzero"/><path fill="#c4e54a" d="M 59.417969 713.613281 C 58.730469 714.570312 58.101562 715.5625 57.53125 716.589844 C 56.960938 717.617188 56.460938 718.65625 56.03125 719.714844 C 55.601562 720.769531 55.25 721.820312 54.980469 722.867188 C 54.707031 723.914062 54.519531 724.933594 54.417969 725.925781 C 54.316406 726.921875 54.296875 727.871094 54.367188 728.777344 C 54.433594 729.683594 54.589844 730.527344 54.828125 731.308594 C 55.066406 732.089844 55.382812 732.792969 55.78125 733.417969 C 56.179688 734.046875 56.652344 734.585938 57.195312 735.035156 C 57.710938 735.457031 58.28125 735.792969 58.910156 736.039062 C 58.550781 735.496094 58.253906 734.890625 58.015625 734.222656 C 57.78125 733.558594 57.609375 732.839844 57.503906 732.070312 C 57.398438 731.300781 57.363281 730.492188 57.390625 729.644531 C 57.417969 728.796875 57.511719 727.921875 57.675781 727.019531 C 57.835938 726.121094 58.0625 725.203125 58.351562 724.273438 C 58.640625 723.347656 58.988281 722.417969 59.398438 721.488281 C 59.804688 720.5625 60.265625 719.648438 60.78125 718.75 C 61.296875 717.851562 61.859375 716.980469 62.46875 716.132812 C 63.074219 715.292969 63.71875 714.488281 64.402344 713.726562 C 65.082031 712.964844 65.789062 712.253906 66.523438 711.597656 C 67.257812 710.9375 68.007812 710.339844 68.773438 709.804688 C 69.539062 709.269531 70.304688 708.804688 71.078125 708.410156 C 71.851562 708.015625 72.617188 707.695312 73.378906 707.449219 C 74.136719 707.203125 74.875 707.039062 75.59375 706.953125 C 76.316406 706.867188 77.007812 706.859375 77.667969 706.9375 C 78.332031 707.011719 78.953125 707.164062 79.535156 707.398438 C 79.152344 706.8125 78.707031 706.308594 78.199219 705.882812 C 77.65625 705.433594 77.050781 705.082031 76.382812 704.828125 C 75.714844 704.574219 75 704.421875 74.234375 704.371094 C 73.464844 704.324219 72.667969 704.378906 71.832031 704.535156 C 70.996094 704.695312 70.140625 704.953125 69.269531 705.3125 C 68.398438 705.671875 67.523438 706.125 66.648438 706.667969 C 65.773438 707.214844 64.914062 707.84375 64.070312 708.558594 C 63.222656 709.269531 62.410156 710.050781 61.628906 710.902344 C 60.84375 711.753906 60.109375 712.65625 59.417969 713.613281 Z M 59.417969 713.613281 " fill-opacity="1" fill-rule="nonzero"/><path fill="#68a100" d="M 79.535156 707.398438 C 79.894531 707.941406 80.191406 708.546875 80.425781 709.214844 C 80.664062 709.882812 80.832031 710.597656 80.9375 711.367188 C 81.042969 712.136719 81.082031 712.945312 81.054688 713.792969 C 81.027344 714.640625 80.929688 715.515625 80.769531 716.417969 C 80.609375 717.316406 80.382812 718.234375 80.09375 719.164062 C 79.804688 720.089844 79.457031 721.019531 79.046875 721.945312 C 78.640625 722.875 78.175781 723.789062 77.660156 724.6875 C 77.144531 725.585938 76.585938 726.457031 75.976562 727.304688 C 75.367188 728.144531 74.726562 728.949219 74.042969 729.710938 C 73.363281 730.472656 72.65625 731.183594 71.921875 731.839844 C 71.1875 732.5 70.4375 733.097656 69.671875 733.632812 C 68.90625 734.167969 68.136719 734.632812 67.363281 735.027344 C 66.589844 735.421875 65.824219 735.742188 65.066406 735.988281 C 64.308594 736.234375 63.570312 736.398438 62.847656 736.484375 C 62.128906 736.570312 61.4375 736.578125 60.777344 736.5 C 60.113281 736.425781 59.492188 736.273438 58.910156 736.039062 C 59.289062 736.625 59.734375 737.128906 60.246094 737.554688 C 60.789062 738.003906 61.394531 738.355469 62.0625 738.609375 C 62.730469 738.863281 63.445312 739.015625 64.210938 739.066406 C 64.976562 739.113281 65.777344 739.058594 66.613281 738.902344 C 67.449219 738.742188 68.300781 738.484375 69.175781 738.125 C 70.046875 737.765625 70.917969 737.3125 71.796875 736.769531 C 72.671875 736.222656 73.53125 735.59375 74.375 734.878906 C 75.222656 734.167969 76.035156 733.386719 76.816406 732.535156 C 77.597656 731.683594 78.335938 730.78125 79.023438 729.824219 C 79.714844 728.867188 80.34375 727.875 80.914062 726.847656 C 81.484375 725.820312 81.984375 724.78125 82.414062 723.722656 C 82.84375 722.667969 83.191406 721.617188 83.464844 720.570312 C 83.734375 719.523438 83.921875 718.503906 84.027344 717.511719 C 84.128906 716.515625 84.148438 715.566406 84.078125 714.660156 C 84.007812 713.753906 83.855469 712.914062 83.617188 712.132812 C 83.378906 711.347656 83.058594 710.644531 82.660156 710.019531 C 82.261719 709.390625 81.792969 708.851562 81.25 708.402344 C 80.734375 707.980469 80.160156 707.644531 79.535156 707.398438 Z M 79.535156 707.398438 " fill-opacity="1" fill-rule="nonzero"/><path fill="#c4e54a" d="M 286.289062 483.335938 C 285.511719 483.753906 284.757812 484.21875 284.039062 484.722656 C 283.316406 485.230469 282.636719 485.769531 282 486.339844 C 281.363281 486.914062 280.78125 487.507812 280.253906 488.125 C 279.726562 488.742188 279.265625 489.367188 278.871094 490.007812 C 278.472656 490.644531 278.148438 491.28125 277.898438 491.914062 C 277.648438 492.546875 277.476562 493.167969 277.378906 493.773438 C 277.285156 494.382812 277.269531 494.960938 277.332031 495.515625 C 277.394531 496.070312 277.535156 496.589844 277.753906 497.070312 C 277.964844 497.527344 278.242188 497.941406 278.582031 498.3125 C 278.519531 497.828125 278.515625 497.320312 278.578125 496.792969 C 278.636719 496.265625 278.757812 495.726562 278.9375 495.171875 C 279.117188 494.617188 279.359375 494.058594 279.65625 493.496094 C 279.953125 492.933594 280.304688 492.371094 280.710938 491.816406 C 281.113281 491.261719 281.566406 490.714844 282.066406 490.183594 C 282.566406 489.652344 283.109375 489.140625 283.6875 488.648438 C 284.269531 488.152344 284.882812 487.6875 285.527344 487.25 C 286.167969 486.8125 286.835938 486.410156 287.523438 486.039062 C 288.210938 485.667969 288.90625 485.339844 289.617188 485.046875 C 290.328125 484.757812 291.039062 484.511719 291.75 484.304688 C 292.464844 484.101562 293.164062 483.945312 293.859375 483.835938 C 294.550781 483.726562 295.222656 483.664062 295.875 483.652344 C 296.527344 483.640625 297.148438 483.675781 297.742188 483.757812 C 298.335938 483.84375 298.886719 483.972656 299.402344 484.152344 C 299.917969 484.332031 300.386719 484.554688 300.808594 484.820312 C 301.230469 485.089844 301.601562 485.398438 301.917969 485.746094 C 301.851562 485.226562 301.71875 484.742188 301.515625 484.285156 C 301.292969 483.804688 301 483.367188 300.632812 482.976562 C 300.265625 482.585938 299.832031 482.246094 299.332031 481.960938 C 298.828125 481.675781 298.269531 481.449219 297.65625 481.28125 C 297.039062 481.113281 296.378906 481.007812 295.671875 480.964844 C 294.964844 480.921875 294.226562 480.9375 293.453125 481.019531 C 292.683594 481.101562 291.894531 481.242188 291.089844 481.445312 C 290.285156 481.648438 289.480469 481.910156 288.671875 482.226562 C 287.863281 482.546875 287.070312 482.914062 286.289062 483.335938 Z M 286.289062 483.335938 " fill-opacity="1" fill-rule="nonzero"/><path fill="#68a100" d="M 301.917969 485.746094 C 301.980469 486.234375 301.984375 486.738281 301.925781 487.269531 C 301.867188 487.796875 301.746094 488.335938 301.5625 488.890625 C 301.382812 489.445312 301.144531 490.003906 300.84375 490.566406 C 300.546875 491.128906 300.195312 491.6875 299.792969 492.246094 C 299.386719 492.800781 298.933594 493.34375 298.433594 493.878906 C 297.933594 494.410156 297.390625 494.921875 296.8125 495.414062 C 296.230469 495.90625 295.621094 496.371094 294.976562 496.808594 C 294.332031 497.246094 293.667969 497.652344 292.980469 498.023438 C 292.292969 498.390625 291.59375 498.722656 290.882812 499.011719 C 290.171875 499.304688 289.460938 499.550781 288.75 499.753906 C 288.039062 499.957031 287.335938 500.113281 286.644531 500.222656 C 285.949219 500.332031 285.277344 500.394531 284.625 500.410156 C 283.972656 500.421875 283.351562 500.386719 282.757812 500.300781 C 282.167969 500.21875 281.613281 500.085938 281.097656 499.910156 C 280.582031 499.730469 280.113281 499.507812 279.691406 499.238281 C 279.269531 498.96875 278.898438 498.660156 278.582031 498.3125 C 278.648438 498.832031 278.78125 499.320312 278.988281 499.777344 C 279.207031 500.257812 279.5 500.695312 279.867188 501.085938 C 280.234375 501.476562 280.667969 501.8125 281.171875 502.097656 C 281.671875 502.382812 282.230469 502.609375 282.847656 502.777344 C 283.460938 502.945312 284.125 503.050781 284.832031 503.097656 C 285.539062 503.140625 286.277344 503.121094 287.046875 503.039062 C 287.816406 502.960938 288.605469 502.816406 289.410156 502.613281 C 290.214844 502.410156 291.019531 502.148438 291.828125 501.832031 C 292.636719 501.515625 293.429688 501.144531 294.210938 500.726562 C 294.992188 500.304688 295.742188 499.84375 296.464844 499.335938 C 297.1875 498.832031 297.867188 498.292969 298.503906 497.71875 C 299.140625 497.148438 299.71875 496.554688 300.246094 495.9375 C 300.773438 495.320312 301.234375 494.691406 301.632812 494.054688 C 302.027344 493.417969 302.351562 492.78125 302.601562 492.144531 C 302.851562 491.511719 303.027344 490.890625 303.121094 490.285156 C 303.21875 489.679688 303.234375 489.097656 303.171875 488.542969 C 303.105469 487.988281 302.964844 487.472656 302.746094 486.988281 C 302.535156 486.535156 302.261719 486.121094 301.917969 485.746094 Z M 301.917969 485.746094 " fill-opacity="1" fill-rule="nonzero"/><path fill="#fca66b" d="M 758.621094 626.550781 C 742.847656 626.175781 727.851562 644.355469 730.101562 651.511719 C 732.976562 660.671875 740.832031 679.371094 737.164062 683.605469 C 733.496094 687.839844 714.929688 682.921875 711.527344 682.921875 C 710.839844 682.921875 706.945312 683.695312 701.464844 682.835938 C 702.640625 685.363281 648.792969 685.832031 650.363281 688.171875 C 672.160156 688.269531 743.445312 688.679688 743.445312 688.679688 C 743.445312 688.679688 781.902344 688.679688 784.257812 674.285156 C 786.609375 659.886719 790.796875 648.632812 771.699219 631.878906 C 767.519531 628.214844 763.039062 626.65625 758.625 626.550781 Z M 758.621094 626.550781 " fill-opacity="1" fill-rule="nonzero"/><path fill="#fc6f06" d="M 739.289062 633.390625 C 701.503906 501.621094 621.390625 359.324219 517.445312 335.585938 L 513.996094 328.78125 C 624.867188 345.382812 713.925781 498.472656 739.289062 633.390625 Z M 739.289062 633.390625 " fill-opacity="1" fill-rule="nonzero"/><path fill="#af3902" d="M 453.46875 558.519531 C 450.066406 568.671875 449.332031 576.113281 452.953125 583.875 C 455.984375 590.375 465.847656 603.121094 489.15625 601.984375 C 510.359375 600.949219 539.515625 582.425781 534.925781 553.34375 C 529.367188 518.113281 485.277344 523.589844 473.121094 534.199219 C 460.96875 544.804688 455.941406 551.140625 453.46875 558.519531 Z M 453.46875 558.519531 " fill-opacity="1" fill-rule="nonzero"/><path fill="#e84c03" d="M 450.679688 553.90625 C 447.277344 564.058594 446.542969 571.496094 450.164062 579.257812 C 453.195312 585.761719 463.058594 598.507812 486.367188 597.371094 C 507.570312 596.335938 536.726562 577.8125 532.136719 548.730469 C 526.578125 513.5 482.488281 518.976562 470.332031 529.585938 C 458.179688 540.191406 453.152344 546.523438 450.679688 553.90625 Z M 450.679688 553.90625 " fill-opacity="1" fill-rule="nonzero"/><path fill="#af3902" d="M 460.277344 554.890625 C 460.132812 560.09375 466.144531 556.066406 460.277344 554.890625 Z M 460.277344 554.890625 " fill-opacity="1" fill-rule="nonzero"/><path fill="#af3902" d="M 491.71875 537.007812 C 488.304688 537.730469 491.804688 541.449219 493.441406 539.808594 C 494.757812 538.492188 493.78125 535.976562 491.71875 537.007812 Z M 491.71875 537.007812 " fill-opacity="1" fill-rule="nonzero"/><path fill="#af3902" d="M 495.378906 564.585938 C 495.945312 563.230469 497.25 563.292969 498.609375 563.292969 C 503.082031 563.292969 493.230469 575.332031 495.378906 564.585938 Z M 495.378906 564.585938 " fill-opacity="1" fill-rule="nonzero"/><path fill="#af3902" d="M 476.644531 565.878906 C 482.304688 564.699219 475.785156 572.886719 475.785156 567.386719 C 475.785156 566.023438 475.605469 566.398438 476.644531 565.878906 Z M 476.644531 565.878906 " fill-opacity="1" fill-rule="nonzero"/><path fill="#af3902" d="M 518.855469 556.398438 C 517.378906 562.203125 523.230469 553.113281 518.855469 556.398438 Z M 518.855469 556.398438 " fill-opacity="1" fill-rule="nonzero"/><path fill="#af3902" d="M 485.90625 587.425781 C 491.402344 583.921875 485.90625 594.289062 485.90625 587.425781 Z M 485.90625 587.425781 " fill-opacity="1" fill-rule="nonzero"/><path fill="#af3902" d="M 472.554688 539.160156 C 472.761719 543.601562 476.261719 536.378906 472.554688 539.160156 Z M 472.554688 539.160156 " fill-opacity="1" fill-rule="nonzero"/><path fill="#af3902" d="M 463.722656 577.945312 C 466.832031 569.390625 455.5625 582.027344 463.722656 577.945312 Z M 463.722656 577.945312 " fill-opacity="1" fill-rule="nonzero"/><path fill="#af3902" d="M 513.46875 576.222656 C 512.375 576.011719 512.609375 576.183594 512.609375 575.144531 C 512.609375 571.171875 517.6875 579.386719 513.46875 576.222656 Z M 513.46875 576.222656 " fill-opacity="1" fill-rule="nonzero"/><path fill="#af3902" d="M 510.457031 537.652344 C 507.753906 535.207031 511.960938 531.878906 511.960938 536.792969 C 511.960938 537.9375 511.628906 537.652344 510.457031 537.652344 Z M 510.457031 537.652344 " fill-opacity="1" fill-rule="nonzero"/><path fill="#fdd2b6" d="M 549.894531 285.371094 C 539.628906 285.699219 529.453125 288.996094 521.433594 296.074219 C 519.960938 297.375 518.699219 298.691406 517.585938 300.011719 C 649.839844 325.054688 745.226562 442.449219 785.921875 571.453125 C 775.335938 525.476562 753.945312 474.757812 729.714844 430.597656 C 685.027344 349.160156 595.648438 302.054688 578.890625 292.472656 C 570.511719 287.683594 560.160156 285.042969 549.894531 285.371094 Z M 549.894531 285.371094 " fill-opacity="1" fill-rule="nonzero"/></svg>