<svg xmlns="http://www.w3.org/2000/svg" xmlns:xlink="http://www.w3.org/1999/xlink" width="794" zoomAndPan="magnify" viewBox="0 0 594.95996 595.499999" height="794" preserveAspectRatio="xMidYMid meet" version="1.0"><defs><clipPath id="a5a839ce00"><path d="M 160.121094 113 L 435 113 L 435 561 L 160.121094 561 Z M 160.121094 113 " clip-rule="nonzero"/></clipPath><clipPath id="d2127d8978"><path d="M 170 29.101562 L 425 29.101562 L 425 155 L 170 155 Z M 170 29.101562 " clip-rule="nonzero"/></clipPath><clipPath id="5a188e8781"><path d="M 160.121094 216 L 435 216 L 435 449 L 160.121094 449 Z M 160.121094 216 " clip-rule="nonzero"/></clipPath></defs><g clip-path="url(#a5a839ce00)"><path fill="#e84e32" d="M 178.195312 113.125 C 173.273438 121.042969 163.605469 141.261719 160.59375 181.300781 L 160.59375 489.539062 C 160.59375 489.539062 168.8125 565.644531 297.609375 560.574219 C 426.40625 565.644531 434.628906 489.539062 434.628906 489.539062 L 434.628906 181.300781 C 431.609375 141.261719 421.949219 121.042969 417.019531 113.125 C 399.417969 137.34375 352.605469 154.664062 297.609375 154.664062 C 242.609375 154.664062 195.792969 137.34375 178.195312 113.125 Z M 178.195312 113.125 " fill-opacity="1" fill-rule="evenodd"/></g><g clip-path="url(#d2127d8978)"><path fill="#c9caca" d="M 424.480469 91.875 C 424.480469 92.902344 424.429688 93.929688 424.324219 94.957031 C 424.222656 95.984375 424.070312 97.007812 423.867188 98.03125 C 423.664062 99.050781 423.410156 100.070312 423.105469 101.085938 C 422.800781 102.105469 422.445312 103.117188 422.039062 104.125 C 421.636719 105.132812 421.179688 106.132812 420.675781 107.132812 C 420.171875 108.128906 419.617188 109.117188 419.015625 110.101562 C 418.414062 111.085938 417.761719 112.058594 417.0625 113.027344 C 416.363281 113.996094 415.617188 114.953125 414.820312 115.902344 C 414.027344 116.851562 413.183594 117.792969 412.296875 118.71875 C 411.410156 119.648438 410.476562 120.566406 409.5 121.472656 C 408.519531 122.378906 407.496094 123.273438 406.429688 124.15625 C 405.363281 125.035156 404.25 125.902344 403.097656 126.757812 C 401.945312 127.613281 400.75 128.453125 399.511719 129.277344 C 398.273438 130.101562 397 130.914062 395.679688 131.707031 C 394.363281 132.503906 393.007812 133.28125 391.613281 134.042969 C 390.21875 134.800781 388.789062 135.546875 387.320312 136.273438 C 385.851562 137 384.347656 137.707031 382.808594 138.398438 C 381.273438 139.089844 379.699219 139.757812 378.09375 140.410156 C 376.488281 141.0625 374.855469 141.695312 373.1875 142.308594 C 371.519531 142.917969 369.820312 143.511719 368.09375 144.082031 C 366.367188 144.652344 364.613281 145.203125 362.832031 145.730469 C 361.054688 146.257812 359.246094 146.765625 357.414062 147.25 C 355.585938 147.734375 353.730469 148.195312 351.855469 148.636719 C 349.976562 149.074219 348.078125 149.492188 346.160156 149.882812 C 344.242188 150.277344 342.304688 150.648438 340.351562 150.992188 C 338.394531 151.339844 336.425781 151.660156 334.4375 151.960938 C 332.453125 152.257812 330.453125 152.53125 328.4375 152.78125 C 326.421875 153.03125 324.398438 153.257812 322.363281 153.457031 C 320.324219 153.65625 318.28125 153.832031 316.226562 153.984375 C 314.171875 154.136719 312.113281 154.261719 310.046875 154.363281 C 307.980469 154.460938 305.910156 154.539062 303.835938 154.589844 C 301.761719 154.636719 299.6875 154.664062 297.609375 154.664062 C 295.535156 154.664062 293.460938 154.636719 291.386719 154.589844 C 289.3125 154.539062 287.242188 154.460938 285.175781 154.363281 C 283.109375 154.261719 281.050781 154.136719 278.996094 153.984375 C 276.941406 153.832031 274.894531 153.65625 272.859375 153.457031 C 270.824219 153.257812 268.796875 153.03125 266.785156 152.78125 C 264.769531 152.53125 262.769531 152.257812 260.78125 151.960938 C 258.796875 151.660156 256.824219 151.339844 254.871094 150.992188 C 252.914062 150.648438 250.976562 150.277344 249.058594 149.882812 C 247.140625 149.492188 245.246094 149.074219 243.367188 148.636719 C 241.492188 148.195312 239.636719 147.734375 237.804688 147.25 C 235.972656 146.765625 234.167969 146.257812 232.386719 145.730469 C 230.605469 145.203125 228.851562 144.652344 227.125 144.082031 C 225.398438 143.511719 223.703125 142.917969 222.035156 142.308594 C 220.367188 141.695312 218.730469 141.0625 217.125 140.410156 C 215.519531 139.757812 213.949219 139.089844 212.410156 138.398438 C 210.871094 137.707031 209.371094 137 207.902344 136.273438 C 206.433594 135.546875 205 134.800781 203.609375 134.042969 C 202.214844 133.28125 200.859375 132.503906 199.539062 131.707031 C 198.222656 130.914062 196.945312 130.105469 195.710938 129.277344 C 194.472656 128.453125 193.277344 127.613281 192.125 126.757812 C 190.96875 125.902344 189.859375 125.035156 188.792969 124.15625 C 187.726562 123.273438 186.703125 122.378906 185.722656 121.472656 C 184.742188 120.566406 183.8125 119.648438 182.921875 118.71875 C 182.035156 117.792969 181.195312 116.851562 180.398438 115.902344 C 179.605469 114.953125 178.859375 113.996094 178.160156 113.027344 C 177.460938 112.0625 176.808594 111.085938 176.207031 110.101562 C 175.601562 109.117188 175.050781 108.128906 174.542969 107.132812 C 174.039062 106.132812 173.585938 105.132812 173.179688 104.125 C 172.773438 103.117188 172.421875 102.105469 172.117188 101.085938 C 171.8125 100.070312 171.558594 99.050781 171.351562 98.03125 C 171.148438 97.007812 170.996094 95.984375 170.894531 94.957031 C 170.792969 93.929688 170.742188 92.902344 170.742188 91.875 C 170.742188 90.847656 170.792969 89.820312 170.894531 88.792969 C 170.996094 87.769531 171.148438 86.742188 171.351562 85.722656 C 171.558594 84.699219 171.8125 83.679688 172.117188 82.660156 C 172.421875 81.644531 172.773438 80.632812 173.179688 79.625 C 173.585938 78.617188 174.039062 77.617188 174.542969 76.617188 C 175.050781 75.621094 175.601562 74.632812 176.207031 73.648438 C 176.808594 72.664062 177.460938 71.691406 178.160156 70.722656 C 178.859375 69.753906 179.605469 68.796875 180.398438 67.847656 C 181.195312 66.898438 182.035156 65.957031 182.921875 65.027344 C 183.8125 64.101562 184.742188 63.183594 185.722656 62.277344 C 186.703125 61.371094 187.726562 60.476562 188.792969 59.59375 C 189.859375 58.714844 190.96875 57.84375 192.125 56.992188 C 193.277344 56.136719 194.472656 55.296875 195.710938 54.472656 C 196.945312 53.644531 198.222656 52.835938 199.539062 52.042969 C 200.859375 51.246094 202.214844 50.46875 203.609375 49.707031 C 205 48.945312 206.433594 48.203125 207.902344 47.476562 C 209.371094 46.75 210.871094 46.042969 212.410156 45.351562 C 213.949219 44.660156 215.519531 43.992188 217.125 43.339844 C 218.730469 42.6875 220.367188 42.054688 222.035156 41.441406 C 223.703125 40.832031 225.398438 40.238281 227.125 39.667969 C 228.851562 39.097656 230.605469 38.546875 232.386719 38.019531 C 234.167969 37.492188 235.972656 36.984375 237.804688 36.5 C 239.636719 36.015625 241.492188 35.554688 243.367188 35.113281 C 245.246094 34.675781 247.140625 34.257812 249.058594 33.867188 C 250.976562 33.472656 252.914062 33.101562 254.871094 32.757812 C 256.824219 32.410156 258.796875 32.089844 260.78125 31.789062 C 262.769531 31.492188 264.769531 31.21875 266.785156 30.96875 C 268.796875 30.71875 270.824219 30.492188 272.859375 30.292969 C 274.894531 30.09375 276.941406 29.917969 278.996094 29.765625 C 281.050781 29.617188 283.109375 29.488281 285.175781 29.390625 C 287.242188 29.289062 289.3125 29.210938 291.386719 29.160156 C 293.460938 29.113281 295.535156 29.085938 297.609375 29.085938 C 299.6875 29.085938 301.761719 29.113281 303.835938 29.160156 C 305.910156 29.210938 307.980469 29.289062 310.046875 29.386719 C 312.113281 29.488281 314.171875 29.613281 316.226562 29.765625 C 318.28125 29.917969 320.324219 30.09375 322.363281 30.292969 C 324.398438 30.492188 326.421875 30.71875 328.4375 30.96875 C 330.453125 31.21875 332.453125 31.492188 334.4375 31.789062 C 336.425781 32.089844 338.394531 32.410156 340.351562 32.757812 C 342.304688 33.101562 344.242188 33.472656 346.160156 33.867188 C 348.078125 34.257812 349.976562 34.675781 351.855469 35.113281 C 353.730469 35.554688 355.585938 36.015625 357.414062 36.5 C 359.246094 36.984375 361.054688 37.492188 362.832031 38.019531 C 364.613281 38.546875 366.367188 39.097656 368.09375 39.667969 C 369.820312 40.238281 371.519531 40.832031 373.1875 41.441406 C 374.855469 42.054688 376.488281 42.6875 378.09375 43.339844 C 379.699219 43.992188 381.273438 44.660156 382.808594 45.351562 C 384.347656 46.042969 385.851562 46.75 387.320312 47.476562 C 388.789062 48.203125 390.21875 48.945312 391.613281 49.707031 C 393.007812 50.46875 394.363281 51.246094 395.679688 52.042969 C 397 52.835938 398.273438 53.644531 399.511719 54.472656 C 400.75 55.296875 401.945312 56.136719 403.097656 56.992188 C 404.25 57.84375 405.363281 58.714844 406.429688 59.59375 C 407.496094 60.476562 408.519531 61.371094 409.5 62.277344 C 410.476562 63.183594 411.410156 64.101562 412.296875 65.027344 C 413.183594 65.957031 414.027344 66.898438 414.820312 67.847656 C 415.617188 68.796875 416.363281 69.753906 417.0625 70.722656 C 417.761719 71.691406 418.414062 72.664062 419.015625 73.648438 C 419.617188 74.632812 420.171875 75.621094 420.675781 76.617188 C 421.179688 77.617188 421.636719 78.617188 422.039062 79.625 C 422.445312 80.632812 422.800781 81.644531 423.105469 82.664062 C 423.410156 83.679688 423.664062 84.699219 423.867188 85.722656 C 424.070312 86.742188 424.222656 87.769531 424.324219 88.792969 C 424.429688 89.820312 424.480469 90.847656 424.480469 91.875 Z M 424.480469 91.875 " fill-opacity="1" fill-rule="nonzero"/></g><path fill="#eeeeef" d="M 406.871094 93.457031 C 406.871094 94.21875 406.824219 94.976562 406.738281 95.734375 C 406.648438 96.496094 406.519531 97.253906 406.34375 98.011719 C 406.167969 98.765625 405.949219 99.519531 405.6875 100.273438 C 405.425781 101.027344 405.117188 101.773438 404.769531 102.519531 C 404.421875 103.265625 404.03125 104.007812 403.59375 104.746094 C 403.160156 105.480469 402.683594 106.214844 402.164062 106.941406 C 401.644531 107.671875 401.085938 108.390625 400.484375 109.109375 C 399.878906 109.824219 399.238281 110.53125 398.550781 111.234375 C 397.867188 111.9375 397.144531 112.632812 396.378906 113.320312 C 395.613281 114.007812 394.8125 114.6875 393.96875 115.355469 C 393.125 116.027344 392.246094 116.6875 391.324219 117.339844 C 390.40625 117.992188 389.449219 118.636719 388.457031 119.269531 C 387.460938 119.898438 386.433594 120.523438 385.367188 121.132812 C 384.304688 121.742188 383.203125 122.34375 382.070312 122.929688 C 380.933594 123.519531 379.765625 124.09375 378.566406 124.65625 C 377.367188 125.21875 376.132812 125.769531 374.867188 126.308594 C 373.605469 126.847656 372.308594 127.371094 370.984375 127.878906 C 369.660156 128.390625 368.304688 128.886719 366.921875 129.371094 C 365.542969 129.851562 364.132812 130.320312 362.695312 130.773438 C 361.257812 131.226562 359.796875 131.664062 358.3125 132.085938 C 356.824219 132.507812 355.316406 132.914062 353.78125 133.304688 C 352.246094 133.695312 350.691406 134.070312 349.113281 134.429688 C 347.539062 134.789062 345.941406 135.128906 344.324219 135.453125 C 342.707031 135.78125 341.074219 136.089844 339.421875 136.378906 C 337.769531 136.671875 336.101562 136.945312 334.417969 137.199219 C 332.734375 137.457031 331.039062 137.695312 329.328125 137.914062 C 327.617188 138.136719 325.894531 138.339844 324.160156 138.523438 C 322.421875 138.707031 320.679688 138.875 318.925781 139.023438 C 317.171875 139.171875 315.410156 139.300781 313.640625 139.414062 C 311.875 139.523438 310.097656 139.617188 308.320312 139.691406 C 306.539062 139.765625 304.757812 139.824219 302.972656 139.859375 C 301.1875 139.898438 299.398438 139.917969 297.609375 139.917969 C 295.824219 139.917969 294.035156 139.898438 292.25 139.859375 C 290.464844 139.824219 288.679688 139.765625 286.902344 139.691406 C 285.121094 139.617188 283.347656 139.523438 281.578125 139.414062 C 279.808594 139.300781 278.050781 139.171875 276.296875 139.023438 C 274.542969 138.875 272.796875 138.707031 271.0625 138.523438 C 269.328125 138.339844 267.605469 138.136719 265.894531 137.914062 C 264.183594 137.695312 262.484375 137.457031 260.800781 137.199219 C 259.117188 136.945312 257.449219 136.671875 255.800781 136.378906 C 254.148438 136.089844 252.511719 135.78125 250.894531 135.453125 C 249.28125 135.128906 247.683594 134.789062 246.105469 134.429688 C 244.53125 134.070312 242.972656 133.695312 241.441406 133.304688 C 239.90625 132.914062 238.394531 132.507812 236.910156 132.085938 C 235.421875 131.664062 233.960938 131.226562 232.523438 130.773438 C 231.089844 130.320312 229.679688 129.851562 228.296875 129.371094 C 226.914062 128.886719 225.5625 128.390625 224.238281 127.882812 C 222.910156 127.371094 221.617188 126.847656 220.351562 126.308594 C 219.089844 125.769531 217.855469 125.21875 216.65625 124.65625 C 215.453125 124.09375 214.285156 123.519531 213.152344 122.929688 C 212.019531 122.34375 210.917969 121.742188 209.851562 121.132812 C 208.789062 120.523438 207.757812 119.898438 206.765625 119.269531 C 205.773438 118.636719 204.816406 117.992188 203.894531 117.339844 C 202.976562 116.6875 202.097656 116.027344 201.253906 115.355469 C 200.410156 114.6875 199.605469 114.007812 198.839844 113.320312 C 198.078125 112.632812 197.351562 111.9375 196.667969 111.234375 C 195.984375 110.535156 195.339844 109.824219 194.738281 109.109375 C 194.136719 108.390625 193.574219 107.671875 193.054688 106.941406 C 192.539062 106.214844 192.0625 105.484375 191.625 104.746094 C 191.191406 104.007812 190.800781 103.265625 190.449219 102.519531 C 190.101562 101.773438 189.796875 101.027344 189.535156 100.273438 C 189.273438 99.519531 189.054688 98.765625 188.878906 98.011719 C 188.703125 97.253906 188.570312 96.496094 188.484375 95.734375 C 188.394531 94.976562 188.351562 94.21875 188.351562 93.457031 C 188.351562 92.695312 188.394531 91.9375 188.484375 91.175781 C 188.570312 90.417969 188.703125 89.660156 188.878906 88.902344 C 189.054688 88.144531 189.273438 87.390625 189.535156 86.640625 C 189.796875 85.886719 190.101562 85.136719 190.449219 84.394531 C 190.800781 83.648438 191.191406 82.90625 191.625 82.167969 C 192.0625 81.429688 192.539062 80.699219 193.054688 79.96875 C 193.574219 79.242188 194.136719 78.519531 194.738281 77.804688 C 195.339844 77.089844 195.984375 76.378906 196.667969 75.675781 C 197.351562 74.972656 198.078125 74.28125 198.839844 73.59375 C 199.605469 72.90625 200.410156 72.226562 201.253906 71.554688 C 202.097656 70.882812 202.976562 70.222656 203.894531 69.570312 C 204.816406 68.917969 205.773438 68.277344 206.765625 67.644531 C 207.757812 67.011719 208.789062 66.390625 209.851562 65.78125 C 210.917969 65.167969 212.019531 64.570312 213.152344 63.984375 C 214.285156 63.394531 215.453125 62.820312 216.65625 62.257812 C 217.855469 61.691406 219.089844 61.140625 220.351562 60.605469 C 221.617188 60.066406 222.910156 59.542969 224.238281 59.03125 C 225.5625 58.519531 226.914062 58.023438 228.296875 57.542969 C 229.679688 57.058594 231.089844 56.59375 232.523438 56.140625 C 233.960938 55.6875 235.421875 55.25 236.910156 54.828125 C 238.394531 54.402344 239.90625 53.996094 241.441406 53.605469 C 242.972656 53.214844 244.53125 52.839844 246.105469 52.484375 C 247.683594 52.125 249.28125 51.78125 250.894531 51.457031 C 252.511719 51.132812 254.148438 50.824219 255.800781 50.53125 C 257.449219 50.242188 259.117188 49.96875 260.800781 49.710938 C 262.484375 49.457031 264.183594 49.21875 265.894531 48.996094 C 267.605469 48.777344 269.328125 48.574219 271.0625 48.390625 C 272.796875 48.203125 274.542969 48.039062 276.296875 47.890625 C 278.050781 47.742188 279.808594 47.609375 281.578125 47.5 C 283.347656 47.386719 285.121094 47.296875 286.902344 47.222656 C 288.679688 47.144531 290.464844 47.089844 292.25 47.054688 C 294.035156 47.015625 295.824219 46.996094 297.609375 46.996094 C 299.398438 46.996094 301.1875 47.015625 302.972656 47.054688 C 304.757812 47.089844 306.539062 47.144531 308.320312 47.222656 C 310.097656 47.296875 311.875 47.386719 313.640625 47.5 C 315.410156 47.613281 317.171875 47.742188 318.925781 47.890625 C 320.679688 48.039062 322.421875 48.203125 324.160156 48.390625 C 325.894531 48.574219 327.617188 48.777344 329.328125 48.996094 C 331.039062 49.21875 332.734375 49.457031 334.417969 49.710938 C 336.101562 49.96875 337.769531 50.242188 339.421875 50.535156 C 341.074219 50.824219 342.707031 51.132812 344.324219 51.457031 C 345.941406 51.78125 347.539062 52.125 349.113281 52.484375 C 350.691406 52.839844 352.246094 53.214844 353.78125 53.605469 C 355.316406 53.996094 356.824219 54.402344 358.3125 54.828125 C 359.796875 55.25 361.257812 55.6875 362.695312 56.140625 C 364.132812 56.59375 365.542969 57.058594 366.921875 57.542969 C 368.304688 58.023438 369.660156 58.519531 370.984375 59.03125 C 372.308594 59.542969 373.605469 60.066406 374.867188 60.605469 C 376.132812 61.140625 377.367188 61.691406 378.566406 62.257812 C 379.765625 62.820312 380.933594 63.394531 382.070312 63.984375 C 383.203125 64.570312 384.304688 65.167969 385.367188 65.78125 C 386.433594 66.390625 387.460938 67.011719 388.457031 67.644531 C 389.449219 68.277344 390.40625 68.917969 391.324219 69.570312 C 392.246094 70.222656 393.125 70.886719 393.96875 71.554688 C 394.8125 72.226562 395.613281 72.90625 396.378906 73.59375 C 397.144531 74.28125 397.867188 74.972656 398.550781 75.675781 C 399.238281 76.378906 399.878906 77.089844 400.484375 77.804688 C 401.085938 78.519531 401.644531 79.242188 402.164062 79.96875 C 402.683594 80.699219 403.160156 81.429688 403.59375 82.167969 C 404.03125 82.90625 404.421875 83.648438 404.769531 84.394531 C 405.117188 85.136719 405.425781 85.886719 405.6875 86.640625 C 405.949219 87.390625 406.167969 88.144531 406.34375 88.902344 C 406.519531 89.660156 406.648438 90.417969 406.738281 91.175781 C 406.824219 91.9375 406.871094 92.695312 406.871094 93.457031 Z M 406.871094 93.457031 " fill-opacity="1" fill-rule="nonzero"/><path fill="#c9caca" d="M 335.289062 103.265625 C 376.9375 91.054688 359.828125 67.664062 337.828125 68.316406 C 328.210938 68.601562 315.609375 74.402344 308.96875 78.210938 C 295.9375 78.503906 286.285156 79.941406 279.441406 82.058594 C 259.972656 82.007812 244.664062 90.371094 244.664062 101.472656 C 244.664062 113.160156 261.640625 123.460938 282.574219 124.476562 C 300.410156 125.335938 315.371094 119.171875 319.398438 110.089844 C 324.734375 108.628906 330.097656 106.410156 335.289062 103.265625 Z M 302.269531 86.175781 C 311.371094 89.710938 317.953125 95.214844 319.878906 101.378906 C 329.066406 99.46875 333.921875 95.925781 322.105469 89.761719 C 317.496094 87.351562 310.769531 85.195312 302.269531 86.175781 Z M 327.042969 84.652344 C 331.644531 87.265625 337.648438 91.628906 340.375 91.789062 C 345.785156 92.121094 352.992188 88.230469 351.785156 85.238281 C 350.03125 80.925781 342.320312 77.921875 337.667969 76.882812 C 330.265625 75.222656 316.015625 78.394531 327.042969 84.652344 Z M 327.042969 84.652344 " fill-opacity="1" fill-rule="evenodd"/><path fill="#757475" d="M 335.289062 98.886719 C 376.9375 84.652344 359.828125 62.089844 337.828125 63.808594 C 328.210938 64.550781 315.609375 70.96875 308.96875 75.097656 C 221.386719 81.355469 285.835938 131.171875 335.289062 98.886719 Z M 327.042969 80.660156 C 331.644531 83.054688 337.648438 87.132812 340.375 87.164062 C 345.785156 87.222656 352.992188 82.988281 351.785156 80.054688 C 350.03125 75.832031 342.320312 73.195312 337.667969 72.375 C 330.265625 71.082031 316.015625 74.9375 327.042969 80.660156 Z M 300.089844 100.652344 C 315.9375 99.476562 341.515625 95.207031 322.105469 86.007812 C 315.871094 83.054688 305.78125 80.753906 292.664062 86.167969 C 271.925781 94.714844 285.246094 101.742188 300.089844 100.652344 Z M 300.089844 100.652344 " fill-opacity="1" fill-rule="evenodd"/><g clip-path="url(#5a188e8781)"><path fill="#ef806d" d="M 160.59375 256.648438 C 254.941406 323.828125 343.445312 233.941406 434.628906 216.082031 L 434.628906 382.980469 C 343.445312 400.839844 254.941406 490.722656 160.59375 423.554688 Z M 160.59375 256.648438 " fill-opacity="1" fill-rule="evenodd"/></g></svg>