<svg xmlns="http://www.w3.org/2000/svg" xmlns:xlink="http://www.w3.org/1999/xlink" width="794" zoomAndPan="magnify" viewBox="0 0 595.5 595.499986" height="794" preserveAspectRatio="xMidYMid meet" version="1.0"><defs><clipPath id="9d5a654399"><path d="M 218 1.097656 L 261 1.097656 L 261 111 L 218 111 Z M 218 1.097656 " clip-rule="nonzero"/></clipPath><clipPath id="8836376a08"><rect x="0" width="473" y="0" height="559"/></clipPath></defs><g transform="matrix(1, 0, 0, 1, 59, 18)"><g clip-path="url(#8836376a08)"><g clip-path="url(#9d5a654399)"><path fill="#58b835" d="M 237.875 110.183594 C 237.875 110.183594 253.40625 61.347656 218.453125 16.640625 L 257.535156 1.09375 C 257.535156 1.09375 268.941406 70.992188 249.527344 110.882812 L 237.875 110.183594 " fill-opacity="1" fill-rule="nonzero"/></g><path fill="#e62138" d="M 231.648438 104.640625 C 231.648438 104.640625 90.578125 90.78125 45.699219 170.355469 C 0.828125 249.929688 42.949219 357.59375 96.023438 433.125 C 149.105469 508.660156 194.378906 544.359375 244.433594 551.230469 C 294.484375 558.101562 343.867188 512.171875 394.691406 411.695312 C 445.515625 311.214844 471.636719 223.9375 436.367188 165.78125 C 401.101562 107.628906 319.1875 99.546875 231.648438 104.640625 " fill-opacity="1" fill-rule="nonzero"/><path fill="#4fa036" d="M 219.992188 92.046875 C 219.992188 92.046875 173.394531 55.113281 117.082031 62.890625 L 99.605469 61.816406 C 99.605469 61.816406 165.625 107.601562 219.992188 92.046875 " fill-opacity="1" fill-rule="nonzero"/><path fill="#4fa036" d="M 253.789062 102.878906 C 253.789062 102.878906 232.363281 57.015625 190.136719 51.257812 L 178.117188 46.160156 C 178.117188 46.160156 210.503906 104.941406 253.789062 102.878906 " fill-opacity="1" fill-rule="nonzero"/><path fill="#4fa036" d="M 281.914062 90.105469 C 281.914062 90.105469 328.734375 65.039062 383.101562 78.542969 L 416.113281 90.105469 C 416.113281 90.105469 330.238281 111.488281 281.914062 90.105469 " fill-opacity="1" fill-rule="nonzero"/><path fill="#4fa036" d="M 245.015625 98.128906 C 245.015625 98.128906 272.160156 61.132812 318.660156 58.050781 L 348.078125 59.332031 C 348.078125 59.332031 289.648438 104.171875 245.015625 98.128906 " fill-opacity="1" fill-rule="nonzero"/><path fill="#58b835" d="M 169.507812 128.980469 C 169.507812 128.980469 134.558594 142.585938 122.90625 179.523438 C 111.257812 216.453125 122.90625 222.285156 122.90625 222.285156 C 122.90625 222.285156 179.21875 173.695312 198.636719 165.917969 C 218.050781 158.136719 239.660156 142.585938 239.660156 142.585938 C 239.660156 142.585938 268.539062 158.136719 291.839844 175.632812 C 315.140625 193.128906 350.09375 210.625 353.972656 222.285156 C 357.859375 233.949219 367.570312 202.851562 353.972656 175.632812 C 340.382812 148.417969 317.082031 128.980469 317.082031 128.980469 C 317.082031 128.980469 385.046875 142.585938 406.402344 165.917969 C 427.761719 189.246094 446.09375 186.921875 446.09375 186.921875 C 446.09375 186.921875 431.648438 120.503906 394.75 103.359375 C 357.859375 86.214844 322.269531 76.050781 281.914062 90.105469 C 281.914062 90.105469 245.238281 101.765625 219.992188 92.046875 C 194.75 82.332031 161.738281 78.8125 130.671875 83.488281 C 99.605469 88.160156 74.363281 99.828125 49.117188 125.089844 C 49.117188 125.089844 126.792969 109.542969 169.507812 128.980469 " fill-opacity="1" fill-rule="nonzero"/><path fill="#dd2529" d="M 394.691406 411.695312 C 427.066406 347.695312 449.332031 289.09375 452.179688 239.917969 C 449.207031 242.480469 449.773438 248.597656 446.09375 257.394531 C 425.816406 305.871094 410.285156 332.113281 383.101562 378.765625 C 355.917969 425.421875 299.480469 442.027344 253.789062 441.941406 C 183.558594 441.816406 150.09375 428.335938 99.605469 375.847656 C 59.511719 334.167969 28.742188 261.433594 27.207031 257.746094 C 30.511719 318.617188 60.765625 382.953125 96.023438 433.125 C 149.105469 508.660156 194.378906 544.359375 244.433594 551.230469 C 294.488281 558.101562 343.867188 512.171875 394.691406 411.695312 " fill-opacity="1" fill-rule="nonzero"/><path fill="#dd2529" d="M 313.195312 310.433594 C 313.195312 319.933594 309.472656 327.628906 304.875 327.628906 C 300.273438 327.628906 296.550781 319.933594 296.550781 310.433594 C 296.550781 300.933594 300.273438 293.238281 304.875 293.238281 C 309.472656 293.238281 313.195312 300.933594 313.195312 310.433594 " fill-opacity="1" fill-rule="nonzero"/><path fill="#f4d1b1" d="M 309.730469 306.171875 C 309.730469 312.25 307.554688 317.167969 304.875 317.167969 C 302.191406 317.167969 300.019531 312.25 300.019531 306.171875 C 300.019531 300.101562 302.191406 295.183594 304.875 295.183594 C 307.554688 295.183594 309.730469 300.101562 309.730469 306.171875 " fill-opacity="1" fill-rule="nonzero"/><path fill="#dd2529" d="M 365.417969 279.425781 C 367.523438 288.683594 365.601562 297.023438 361.117188 298.046875 C 356.636719 299.066406 351.296875 292.390625 349.183594 283.125 C 347.078125 273.867188 349 265.53125 353.484375 264.511719 C 357.964844 263.488281 363.304688 270.164062 365.417969 279.425781 " fill-opacity="1" fill-rule="nonzero"/><path fill="#f4d1b1" d="M 361.089844 276.039062 C 362.433594 281.960938 361.40625 287.246094 358.796875 287.84375 C 356.183594 288.4375 352.972656 284.121094 351.621094 278.199219 C 350.273438 272.285156 351.300781 267.003906 353.914062 266.40625 C 356.527344 265.8125 359.738281 270.125 361.089844 276.039062 " fill-opacity="1" fill-rule="nonzero"/><path fill="#dd2529" d="M 239.023438 289.945312 C 238.296875 299.410156 233.988281 306.804688 229.40625 306.453125 C 224.816406 306.09375 221.691406 298.136719 222.417969 288.664062 C 223.152344 279.195312 227.457031 271.804688 232.042969 272.15625 C 236.625 272.515625 239.753906 280.476562 239.023438 289.945312 " fill-opacity="1" fill-rule="nonzero"/><path fill="#f4d1b1" d="M 235.339844 284.792969 C 235.664062 290.855469 233.761719 295.886719 231.082031 296.027344 C 228.40625 296.171875 225.972656 291.375 225.648438 285.3125 C 225.316406 279.25 227.226562 274.21875 229.90625 274.074219 C 232.582031 273.933594 235.015625 278.726562 235.339844 284.792969 " fill-opacity="1" fill-rule="nonzero"/><path fill="#dd2529" d="M 179.503906 283.378906 C 177.109375 292.566406 171.566406 299.082031 167.113281 297.914062 C 162.667969 296.757812 161 288.363281 163.398438 279.175781 C 165.789062 269.984375 171.332031 263.476562 175.777344 264.636719 C 180.230469 265.800781 181.902344 274.1875 179.503906 283.378906 " fill-opacity="1" fill-rule="nonzero"/><path fill="#f4d1b1" d="M 176.792969 277.65625 C 176.046875 283.679688 173.277344 288.292969 170.617188 287.960938 C 167.953125 287.621094 166.40625 282.46875 167.160156 276.445312 C 167.914062 270.425781 170.675781 265.8125 173.339844 266.144531 C 176 266.476562 177.546875 271.628906 176.792969 277.65625 " fill-opacity="1" fill-rule="nonzero"/><path fill="#dd2529" d="M 125.578125 262.449219 C 123.183594 271.640625 117.640625 278.148438 113.195312 276.992188 C 108.742188 275.824219 107.074219 267.4375 109.464844 258.246094 C 111.863281 249.058594 117.40625 242.546875 121.859375 243.710938 C 126.304688 244.867188 127.976562 253.261719 125.578125 262.449219 " fill-opacity="1" fill-rule="nonzero"/><path fill="#f4d1b1" d="M 122.867188 256.722656 C 122.113281 262.75 119.351562 267.359375 116.691406 267.03125 C 114.027344 266.699219 112.480469 261.542969 113.234375 255.519531 C 113.988281 249.496094 116.75 244.882812 119.414062 245.214844 C 122.074219 245.546875 123.621094 250.699219 122.867188 256.722656 " fill-opacity="1" fill-rule="nonzero"/><path fill="#dd2529" d="M 84.976562 207.703125 C 81.5 216.539062 75.214844 222.332031 70.929688 220.644531 C 66.652344 218.953125 66.011719 210.421875 69.488281 201.585938 C 72.964844 192.75 79.257812 186.960938 83.53125 188.644531 C 87.808594 190.339844 88.460938 198.867188 84.976562 207.703125 " fill-opacity="1" fill-rule="nonzero"/><path fill="#f4d1b1" d="M 82.972656 201.691406 C 81.503906 207.582031 78.203125 211.828125 75.601562 211.179688 C 73.003906 210.527344 72.085938 205.226562 73.554688 199.335938 C 75.023438 193.441406 78.328125 189.199219 80.925781 189.851562 C 83.527344 190.5 84.441406 195.804688 82.972656 201.691406 " fill-opacity="1" fill-rule="nonzero"/><path fill="#dd2529" d="M 54.832031 276.25 C 53.53125 285.65625 48.785156 292.769531 44.230469 292.136719 C 39.675781 291.507812 37.042969 283.367188 38.34375 273.957031 C 39.640625 264.558594 44.386719 257.4375 48.941406 258.070312 C 53.5 258.699219 56.136719 266.839844 54.832031 276.25 " fill-opacity="1" fill-rule="nonzero"/><path fill="#f4d1b1" d="M 51.472656 270.882812 C 51.433594 276.953125 49.222656 281.859375 46.539062 281.839844 C 43.859375 281.820312 41.722656 276.878906 41.761719 270.808594 C 41.804688 264.738281 44.011719 259.832031 46.695312 259.851562 C 49.371094 259.871094 51.515625 264.804688 51.472656 270.882812 " fill-opacity="1" fill-rule="nonzero"/><path fill="#dd2529" d="M 91.800781 313.402344 C 90.5 322.800781 85.753906 329.921875 81.199219 329.289062 C 76.644531 328.660156 74.011719 320.519531 75.3125 311.109375 C 76.609375 301.703125 81.355469 294.589844 85.910156 295.222656 C 90.46875 295.851562 93.105469 303.992188 91.800781 313.402344 " fill-opacity="1" fill-rule="nonzero"/><path fill="#f4d1b1" d="M 88.441406 308.027344 C 88.402344 314.097656 86.191406 319.003906 83.507812 318.988281 C 80.828125 318.96875 78.691406 314.03125 78.730469 307.960938 C 78.773438 301.890625 80.976562 296.984375 83.664062 297.003906 C 86.339844 297.023438 88.484375 301.957031 88.441406 308.027344 " fill-opacity="1" fill-rule="nonzero"/><path fill="#dd2529" d="M 146.167969 351.789062 C 144.875 361.195312 140.121094 368.308594 135.566406 367.675781 C 131.015625 367.046875 128.378906 358.90625 129.679688 349.503906 C 130.976562 340.097656 135.730469 332.980469 140.277344 333.609375 C 144.835938 334.242188 147.472656 342.378906 146.167969 351.789062 " fill-opacity="1" fill-rule="nonzero"/><path fill="#f4d1b1" d="M 142.808594 346.421875 C 142.769531 352.492188 140.558594 357.398438 137.878906 357.378906 C 135.195312 357.359375 133.058594 352.425781 133.105469 346.347656 C 133.144531 340.277344 135.351562 335.371094 138.03125 335.390625 C 140.714844 335.410156 142.851562 340.351562 142.808594 346.421875 " fill-opacity="1" fill-rule="nonzero"/><path fill="#dd2529" d="M 216.589844 215.65625 C 215.289062 225.0625 210.542969 232.175781 205.988281 231.542969 C 201.433594 230.914062 198.792969 222.777344 200.097656 213.371094 C 201.398438 203.960938 206.144531 196.84375 210.699219 197.476562 C 215.257812 198.105469 217.886719 206.246094 216.589844 215.65625 " fill-opacity="1" fill-rule="nonzero"/><path fill="#f4d1b1" d="M 213.226562 210.285156 C 213.183594 216.355469 210.980469 221.261719 208.296875 221.242188 C 205.617188 221.222656 203.480469 216.292969 203.519531 210.214844 C 203.5625 204.144531 205.765625 199.238281 208.449219 199.257812 C 211.128906 199.277344 213.265625 204.214844 213.226562 210.285156 " fill-opacity="1" fill-rule="nonzero"/><path fill="#dd2529" d="M 296.296875 224.957031 C 296.121094 234.453125 292.261719 242.082031 287.660156 242 C 283.0625 241.921875 279.476562 234.152344 279.644531 224.660156 C 279.816406 215.160156 283.683594 207.527344 288.277344 207.613281 C 292.871094 207.695312 296.464844 215.460938 296.296875 224.957031 " fill-opacity="1" fill-rule="nonzero"/><path fill="#f4d1b1" d="M 292.3125 220.027344 C 292.996094 226.058594 291.390625 231.199219 288.726562 231.496094 C 286.058594 231.796875 283.351562 227.152344 282.667969 221.121094 C 281.984375 215.089844 283.597656 209.953125 286.253906 209.648438 C 288.921875 209.351562 291.636719 213.996094 292.3125 220.027344 " fill-opacity="1" fill-rule="nonzero"/><path fill="#dd2529" d="M 393.234375 198.785156 C 395.203125 208.074219 393.152344 216.382812 388.652344 217.332031 C 384.15625 218.289062 378.917969 211.53125 376.949219 202.246094 C 374.980469 192.953125 377.03125 184.644531 381.53125 183.695312 C 386.027344 182.738281 391.265625 189.492188 393.234375 198.785156 " fill-opacity="1" fill-rule="nonzero"/><path fill="#f4d1b1" d="M 388.25 194.878906 C 390.273438 200.605469 389.863281 205.964844 387.335938 206.863281 C 384.804688 207.753906 381.113281 203.839844 379.097656 198.113281 C 377.078125 192.386719 377.488281 187.027344 380.015625 186.136719 C 382.542969 185.238281 386.230469 189.152344 388.25 194.878906 " fill-opacity="1" fill-rule="nonzero"/><path fill="#dd2529" d="M 424.070312 288.183594 C 423.257812 297.640625 418.882812 304.996094 414.300781 304.597656 C 409.722656 304.207031 406.667969 296.21875 407.480469 286.75 C 408.292969 277.289062 412.664062 269.9375 417.246094 270.335938 C 421.828125 270.726562 424.882812 278.714844 424.070312 288.183594 " fill-opacity="1" fill-rule="nonzero"/><path fill="#f4d1b1" d="M 420.429688 282.988281 C 420.703125 289.058594 418.753906 294.070312 416.074219 294.195312 C 413.398438 294.3125 411.003906 289.496094 410.730469 283.433594 C 410.460938 277.363281 412.414062 272.351562 415.085938 272.226562 C 417.769531 272.109375 420.15625 276.925781 420.429688 282.988281 " fill-opacity="1" fill-rule="nonzero"/><path fill="#dd2529" d="M 397.414062 345.492188 C 396.601562 354.957031 392.234375 362.304688 387.652344 361.914062 C 383.070312 361.515625 380.015625 353.527344 380.828125 344.066406 C 381.640625 334.605469 386.015625 327.253906 390.589844 327.644531 C 395.171875 328.039062 398.226562 336.03125 397.414062 345.492188 " fill-opacity="1" fill-rule="nonzero"/><path fill="#f4d1b1" d="M 393.78125 340.304688 C 394.054688 346.367188 392.105469 351.386719 389.425781 351.507812 C 386.742188 351.625 384.359375 346.804688 384.085938 340.742188 C 383.8125 334.675781 385.761719 329.660156 388.4375 329.542969 C 391.117188 329.417969 393.507812 334.242188 393.78125 340.304688 " fill-opacity="1" fill-rule="nonzero"/><path fill="#dd2529" d="M 270.046875 354.722656 C 269.234375 364.191406 264.867188 371.542969 260.285156 371.144531 C 255.703125 370.75 252.648438 362.757812 253.460938 353.296875 C 254.273438 343.835938 258.644531 336.484375 263.222656 336.875 C 267.804688 337.273438 270.859375 345.261719 270.046875 354.722656 " fill-opacity="1" fill-rule="nonzero"/><path fill="#f4d1b1" d="M 266.414062 349.539062 C 266.6875 355.609375 264.734375 360.617188 262.058594 360.742188 C 259.375 360.859375 256.988281 356.039062 256.714844 349.972656 C 256.441406 343.910156 258.390625 338.894531 261.070312 338.777344 C 263.75 338.652344 266.140625 343.472656 266.414062 349.539062 " fill-opacity="1" fill-rule="nonzero"/><path fill="#dd2529" d="M 206.363281 374.015625 C 205.550781 383.480469 201.179688 390.828125 196.597656 390.4375 C 192.019531 390.039062 188.964844 382.050781 189.773438 372.589844 C 190.585938 363.128906 194.957031 355.777344 199.539062 356.175781 C 204.121094 356.566406 207.175781 364.554688 206.363281 374.015625 " fill-opacity="1" fill-rule="nonzero"/><path fill="#f4d1b1" d="M 202.726562 368.828125 C 203 374.894531 201.046875 379.910156 198.371094 380.03125 C 195.691406 380.148438 193.300781 375.328125 193.027344 369.265625 C 192.753906 363.199219 194.703125 358.183594 197.382812 358.066406 C 200.066406 357.945312 202.453125 362.765625 202.726562 368.828125 " fill-opacity="1" fill-rule="nonzero"/><path fill="#dd2529" d="M 166.75 419.574219 C 168.292969 428.949219 165.859375 437.148438 161.324219 437.894531 C 156.789062 438.644531 151.859375 431.65625 150.320312 422.28125 C 148.78125 412.910156 151.203125 404.707031 155.742188 403.957031 C 160.285156 403.214844 165.210938 410.203125 166.75 419.574219 " fill-opacity="1" fill-rule="nonzero"/><path fill="#f4d1b1" d="M 161.949219 415.441406 C 163.703125 421.257812 163.046875 426.601562 160.480469 427.375 C 157.917969 428.148438 154.410156 424.070312 152.652344 418.257812 C 150.898438 412.449219 151.554688 407.105469 154.121094 406.332031 C 156.691406 405.550781 160.191406 409.632812 161.949219 415.441406 " fill-opacity="1" fill-rule="nonzero"/><path fill="#dd2529" d="M 110.304688 382.621094 C 111.84375 392 109.417969 400.195312 104.882812 400.945312 C 100.347656 401.691406 95.421875 394.707031 93.878906 385.328125 C 92.339844 375.960938 94.761719 367.753906 99.300781 367.015625 C 103.835938 366.257812 108.761719 373.253906 110.304688 382.621094 " fill-opacity="1" fill-rule="nonzero"/><path fill="#f4d1b1" d="M 105.507812 378.496094 C 107.261719 384.308594 106.605469 389.644531 104.039062 390.425781 C 101.472656 391.199219 97.96875 387.117188 96.214844 381.308594 C 94.457031 375.5 95.113281 370.15625 97.683594 369.375 C 100.25 368.601562 103.753906 372.679688 105.507812 378.496094 " fill-opacity="1" fill-rule="nonzero"/><path fill="#dd2529" d="M 250.3125 430.085938 C 251.855469 439.457031 249.421875 447.660156 244.886719 448.410156 C 240.351562 449.15625 235.421875 442.164062 233.882812 432.792969 C 232.34375 423.425781 234.773438 415.21875 239.308594 414.472656 C 243.847656 413.722656 248.773438 420.71875 250.3125 430.085938 " fill-opacity="1" fill-rule="nonzero"/><path fill="#f4d1b1" d="M 245.511719 425.957031 C 247.273438 431.765625 246.617188 437.109375 244.046875 437.886719 C 241.480469 438.664062 237.976562 434.582031 236.222656 428.773438 C 234.46875 422.960938 235.125 417.621094 237.683594 416.839844 C 240.253906 416.066406 243.757812 420.144531 245.511719 425.957031 " fill-opacity="1" fill-rule="nonzero"/><path fill="#dd2529" d="M 341.675781 404.257812 C 341.28125 413.742188 337.238281 421.277344 332.640625 421.089844 C 328.046875 420.894531 324.648438 413.046875 325.042969 403.554688 C 325.441406 394.066406 329.488281 386.53125 334.085938 386.722656 C 338.679688 386.917969 342.078125 394.769531 341.675781 404.257812 " fill-opacity="1" fill-rule="nonzero"/><path fill="#f4d1b1" d="M 337.820312 399.234375 C 338.359375 405.277344 336.625 410.371094 333.953125 410.613281 C 331.289062 410.847656 328.691406 406.136719 328.152344 400.09375 C 327.617188 394.046875 329.347656 388.945312 332.019531 388.710938 C 334.6875 388.472656 337.28125 393.183594 337.820312 399.234375 " fill-opacity="1" fill-rule="nonzero"/><path fill="#dd2529" d="M 304.863281 483.113281 C 304.464844 492.601562 300.417969 500.136719 295.828125 499.945312 C 291.234375 499.75 287.835938 491.90625 288.230469 482.410156 C 288.628906 472.925781 292.675781 465.390625 297.273438 465.578125 C 301.867188 465.773438 305.265625 473.621094 304.863281 483.113281 " fill-opacity="1" fill-rule="nonzero"/><path fill="#f4d1b1" d="M 301.007812 478.089844 C 301.542969 484.136719 299.8125 489.230469 297.140625 489.472656 C 294.476562 489.707031 291.871094 484.996094 291.339844 478.949219 C 290.796875 472.90625 292.527344 467.8125 295.199219 467.570312 C 297.871094 467.335938 300.46875 472.039062 301.007812 478.089844 " fill-opacity="1" fill-rule="nonzero"/><path fill="#dd2529" d="M 220.03125 489.339844 C 220.851562 498.800781 217.796875 506.792969 213.214844 507.1875 C 208.632812 507.578125 204.257812 500.234375 203.445312 490.765625 C 202.632812 481.304688 205.6875 473.316406 210.265625 472.917969 C 214.847656 472.523438 219.21875 479.875 220.03125 489.339844 " fill-opacity="1" fill-rule="nonzero"/><path fill="#f4d1b1" d="M 215.566406 484.851562 C 216.867188 490.777344 215.808594 496.050781 213.1875 496.628906 C 210.570312 497.207031 207.390625 492.867188 206.085938 486.941406 C 204.785156 481.007812 205.851562 475.734375 208.46875 475.15625 C 211.089844 474.578125 214.269531 478.917969 215.566406 484.851562 " fill-opacity="1" fill-rule="nonzero"/><path fill="#4fa036" d="M 287.492188 162.027344 C 278.25 149.394531 260.847656 125.089844 239.695312 131.410156 C 239.695312 131.410156 191.449219 167.421875 168.777344 185.183594 C 168.734375 185.222656 168.707031 185.242188 168.660156 185.28125 C 180.503906 176.386719 191.839844 168.640625 198.636719 165.917969 C 218.050781 158.136719 239.660156 142.585938 239.660156 142.585938 C 239.660156 142.585938 268.539062 158.136719 291.839844 175.632812 C 301.277344 182.71875 312.605469 189.796875 323.023438 196.492188 L 323.027344 196.5 C 323.027344 196.5 296.738281 174.664062 287.492188 162.027344 " fill-opacity="1" fill-rule="nonzero"/><path fill="#4fa036" d="M 317.082031 128.980469 L 344.261719 159.523438 C 331.484375 141.125 317.082031 128.980469 317.082031 128.980469 " fill-opacity="1" fill-rule="nonzero"/><path fill="#4fa036" d="M 446.09375 186.921875 C 446.09375 186.921875 446.035156 186.675781 446.011719 186.542969 C 432.855469 181.90625 416.683594 173.589844 411.738281 165.917969 C 404.433594 154.570312 389.894531 144.53125 366.113281 134.8125 C 342.324219 125.089844 317.082031 128.980469 317.082031 128.980469 C 317.082031 128.980469 385.046875 142.585938 406.402344 165.917969 C 427.761719 189.246094 446.09375 186.921875 446.09375 186.921875 " fill-opacity="1" fill-rule="nonzero"/><path fill="#4fa036" d="M 169.507812 128.980469 C 169.507812 128.980469 112.226562 93.507812 49.117188 125.089844 C 49.117188 125.089844 126.792969 109.542969 169.507812 128.980469 " fill-opacity="1" fill-rule="nonzero"/></g></g></svg>