<svg xmlns="http://www.w3.org/2000/svg" xmlns:xlink="http://www.w3.org/1999/xlink" width="794" zoomAndPan="magnify" viewBox="0 0 594.95996 595.499999" height="794" preserveAspectRatio="xMidYMid meet" version="1.0"><defs><clipPath id="30e5f5eb40"><path d="M 188 114.699219 L 513 114.699219 L 513 400 L 188 400 Z M 188 114.699219 " clip-rule="nonzero"/></clipPath></defs><path fill="#b8ccd6" d="M 525.398438 253.417969 C 520.054688 197.867188 512.140625 153.921875 512.140625 153.921875 C 401.675781 214.605469 293.570312 214.09375 187.933594 153.921875 C 187.933594 153.921875 184.027344 176.511719 180.121094 209.675781 C 139.738281 193.554688 95.039062 200.023438 66.878906 227.644531 C 23.925781 269.640625 44.789062 335.871094 61.742188 364.929688 C 95.550781 422.839844 161.421875 430.644531 181.972656 431.671875 C 187.214844 449.535156 194.714844 463.5 205.195312 471.40625 C 248.253906 503.75 306.003906 519.359375 362.726562 517.40625 C 412.359375 515.765625 461.171875 500.566406 498.167969 471.40625 C 535.261719 442.144531 533.207031 335.152344 525.398438 253.417969 Z M 89.28125 348.808594 C 76.644531 327.140625 60.304688 278.574219 89.179688 250.339844 C 109.730469 230.214844 145.902344 227.339844 176.527344 243.046875 C 171.902344 291.921875 169.023438 351.886719 175.394531 399.121094 C 154.328125 396.65625 111.582031 387.003906 89.28125 348.808594 Z M 89.28125 348.808594 " fill-opacity="1" fill-rule="nonzero"/><path fill="#956d4f" d="M 213.621094 167.476562 C 214.957031 164.804688 217.9375 162.035156 222.972656 159.363281 C 243.011719 150.945312 286.683594 140.984375 349.265625 140.984375 C 411.847656 140.984375 455.519531 150.945312 475.558594 159.363281 C 480.59375 161.929688 484.191406 164.394531 486.453125 166.859375 C 393.863281 210.085938 302.921875 209.882812 213.621094 167.476562 Z M 213.621094 167.476562 " fill-opacity="1" fill-rule="nonzero"/><path fill="#89aabb" d="M 498.167969 471.40625 C 461.171875 500.566406 412.464844 515.765625 362.726562 517.40625 C 339.195312 501.902344 310.21875 479.109375 314.636719 460.421875 C 320.492188 435.46875 380.09375 442.453125 431.0625 412.675781 C 464.359375 393.164062 504.433594 351.886719 525.398438 253.417969 C 533.207031 335.152344 535.261719 442.144531 498.167969 471.40625 Z M 498.167969 471.40625 " fill-opacity="1" fill-rule="nonzero"/><g clip-path="url(#30e5f5eb40)"><path fill="#fcf1dd" d="M 512.246094 153.921875 C 504.332031 158.234375 494.46875 163.265625 486.65625 166.960938 C 484.394531 164.5 480.800781 161.621094 475.765625 159.054688 C 455.726562 150.636719 412.054688 140.675781 349.472656 140.675781 C 286.890625 140.675781 243.21875 150.636719 223.179688 159.054688 C 218.144531 161.828125 215.371094 164.804688 214.035156 167.476562 C 205.710938 163.472656 196.359375 158.644531 188.035156 153.921875 C 196.769531 131.742188 266.132812 114.699219 349.371094 114.699219 C 433.222656 114.699219 504.125 131.539062 512.246094 153.921875 Z M 308.367188 299.828125 L 288.84375 296.953125 C 288.84375 296.851562 288.945312 296.648438 288.945312 296.441406 C 289.664062 282.167969 281.648438 272.105469 274.558594 263.171875 C 265.621094 251.878906 260.890625 245.101562 267.878906 234.628906 C 283.089844 212.140625 309.191406 199.203125 309.394531 199.101562 C 310.9375 198.28125 311.65625 196.429688 310.835938 194.890625 C 310.011719 193.351562 308.164062 192.632812 306.621094 193.453125 C 305.492188 193.96875 278.773438 207.210938 262.640625 231.136719 C 252.671875 245.921875 261.304688 256.703125 269.628906 267.175781 C 276.304688 275.597656 283.191406 284.222656 282.675781 296.03125 L 262.535156 293.054688 C 258.324219 292.335938 254.316406 295.210938 253.699219 299.417969 L 234.484375 380.636719 C 233.761719 384.847656 236.742188 388.851562 240.855469 389.46875 L 303.433594 399.53125 C 307.648438 400.25 311.65625 397.375 312.273438 393.164062 L 314.945312 308.660156 C 315.457031 304.449219 312.582031 300.445312 308.367188 299.828125 Z M 308.367188 299.828125 " fill-opacity="1" fill-rule="nonzero"/></g></svg>