<svg xmlns="http://www.w3.org/2000/svg" xmlns:xlink="http://www.w3.org/1999/xlink" width="1080" zoomAndPan="magnify" viewBox="0 0 810 1012.49997" height="1350" preserveAspectRatio="xMidYMid meet" version="1.2"><defs><clipPath id="d288f0fb70"><path d="M 46 391.261719 L 222 391.261719 L 222 565.925781 L 46 565.925781 Z M 46 391.261719 "/></clipPath><clipPath id="e4b5cc5fdc"><path d="M 769.636719 467.625 L 781.851562 467.625 L 781.851562 496 L 769.636719 496 Z M 769.636719 467.625 "/></clipPath></defs><g id="c65178aa05"><g clip-rule="nonzero" clip-path="url(#d288f0fb70)"><path style=" stroke:none;fill-rule:nonzero;fill:#00bf63;fill-opacity:1;" d="M 221.828125 478.59375 C 221.828125 490.382812 219.511719 501.820312 214.957031 512.585938 C 210.550781 522.988281 204.246094 532.324219 196.214844 540.347656 C 188.183594 548.367188 178.835938 554.664062 168.425781 559.066406 C 157.644531 563.617188 146.191406 565.925781 134.390625 565.925781 C 122.585938 565.925781 111.140625 563.617188 100.351562 559.066406 C 89.941406 554.664062 80.589844 548.367188 72.5625 540.347656 C 64.539062 532.324219 58.226562 522.988281 53.828125 512.585938 C 49.265625 501.820312 46.949219 490.382812 46.949219 478.59375 C 46.949219 466.804688 49.265625 455.371094 53.828125 444.597656 C 58.226562 434.195312 64.539062 424.859375 72.5625 416.835938 C 80.589844 408.824219 89.941406 402.519531 100.351562 398.125 C 111.140625 393.566406 122.585938 391.261719 134.390625 391.261719 C 146.191406 391.261719 157.644531 393.566406 168.425781 398.125 C 178.835938 402.519531 188.183594 408.824219 196.214844 416.835938 C 204.246094 424.859375 210.550781 434.195312 214.957031 444.597656 C 219.511719 455.371094 221.828125 466.804688 221.828125 478.59375 "/></g><path style=" stroke:none;fill-rule:nonzero;fill:#ffffff;fill-opacity:1;" d="M 162.070312 469.773438 L 162.015625 469.773438 C 160.273438 469.773438 158.859375 471.183594 158.859375 472.925781 L 158.859375 486.152344 C 158.859375 486.921875 158.804688 487.699219 158.699219 488.472656 C 158.046875 493.316406 155.273438 497.605469 151.335938 500.503906 C 150.359375 501.222656 149.078125 501.84375 147.761719 502.363281 C 144.527344 503.636719 141.066406 504.21875 137.597656 504.21875 L 131.179688 504.21875 C 127.710938 504.21875 124.246094 503.636719 121.015625 502.363281 C 119.699219 501.84375 118.417969 501.222656 117.441406 500.503906 C 113.503906 497.605469 110.730469 493.316406 110.078125 488.472656 C 109.972656 487.699219 109.917969 486.921875 109.917969 486.152344 L 109.917969 472.925781 C 109.917969 471.183594 108.503906 469.773438 106.761719 469.773438 L 106.707031 469.773438 C 104.964844 469.773438 103.546875 471.183594 103.546875 472.925781 L 103.546875 485.492188 C 103.546875 499.042969 114.542969 510.023438 128.109375 510.023438 C 129.851562 510.023438 131.265625 511.4375 131.265625 513.179688 L 131.265625 517.75 C 131.265625 519.492188 129.851562 520.902344 128.109375 520.902344 L 119.785156 520.902344 C 118.171875 520.902344 116.726562 522.0625 116.53125 523.664062 C 116.300781 525.582031 117.792969 527.214844 119.667969 527.214844 L 148.992188 527.214844 C 150.605469 527.214844 152.050781 526.054688 152.246094 524.453125 C 152.480469 522.535156 150.984375 520.902344 149.109375 520.902344 L 140.667969 520.902344 C 138.925781 520.902344 137.511719 519.492188 137.511719 517.75 L 137.511719 513.179688 C 137.511719 511.4375 138.925781 510.023438 140.667969 510.023438 C 154.234375 510.023438 165.226562 499.042969 165.226562 485.492188 L 165.226562 472.925781 C 165.226562 471.183594 163.8125 469.773438 162.070312 469.773438 "/><path style=" stroke:none;fill-rule:nonzero;fill:#ffffff;fill-opacity:1;" d="M 136.394531 498.40625 L 132.382812 498.40625 C 123.46875 498.40625 116.238281 491.183594 116.238281 482.277344 L 116.238281 448.460938 C 116.238281 439.554688 123.46875 432.335938 132.382812 432.335938 L 136.394531 432.335938 C 145.308594 432.335938 152.539062 439.554688 152.539062 448.460938 L 152.539062 482.277344 C 152.539062 491.183594 145.308594 498.40625 136.394531 498.40625 "/><path style=" stroke:none;fill-rule:nonzero;fill:#000000;fill-opacity:1;" d="M 265.949219 467.78125 C 262.628906 467.78125 259.933594 470.472656 259.933594 473.792969 L 259.933594 489.921875 C 259.933594 493.242188 262.628906 495.929688 265.949219 495.929688 C 269.273438 495.929688 271.964844 493.242188 271.964844 489.921875 L 271.964844 473.792969 C 271.964844 470.472656 269.273438 467.78125 265.949219 467.78125 "/><path style=" stroke:none;fill-rule:nonzero;fill:#000000;fill-opacity:1;" d="M 286.34375 455.921875 C 283.023438 455.921875 280.328125 458.613281 280.328125 461.929688 L 280.328125 501.78125 C 280.328125 505.101562 283.023438 507.792969 286.34375 507.792969 C 289.667969 507.792969 292.359375 505.101562 292.359375 501.78125 L 292.359375 461.929688 C 292.359375 458.613281 289.667969 455.921875 286.34375 455.921875 "/><path style=" stroke:none;fill-rule:nonzero;fill:#000000;fill-opacity:1;" d="M 306.742188 444.0625 C 303.417969 444.0625 300.726562 446.75 300.726562 450.070312 L 300.726562 513.644531 C 300.726562 516.964844 303.417969 519.652344 306.742188 519.652344 C 310.0625 519.652344 312.757812 516.964844 312.757812 513.644531 L 312.757812 450.070312 C 312.757812 446.75 310.0625 444.0625 306.742188 444.0625 "/><path style=" stroke:none;fill-rule:nonzero;fill:#000000;fill-opacity:1;" d="M 327.136719 420.339844 C 323.8125 420.339844 321.121094 423.03125 321.121094 426.347656 L 321.121094 537.367188 C 321.121094 540.683594 323.8125 543.375 327.136719 543.375 C 330.457031 543.375 333.152344 540.683594 333.152344 537.367188 L 333.152344 426.347656 C 333.152344 423.03125 330.457031 420.339844 327.136719 420.339844 "/><path style=" stroke:none;fill-rule:nonzero;fill:#000000;fill-opacity:1;" d="M 347.53125 439.316406 C 344.210938 439.316406 341.515625 442.007812 341.515625 445.324219 L 341.515625 518.386719 C 341.515625 521.707031 344.210938 524.398438 347.53125 524.398438 C 350.855469 524.398438 353.546875 521.707031 353.546875 518.386719 L 353.546875 445.324219 C 353.546875 442.007812 350.855469 439.316406 347.53125 439.316406 "/><path style=" stroke:none;fill-rule:nonzero;fill:#000000;fill-opacity:1;" d="M 367.925781 453.550781 C 364.605469 453.550781 361.910156 456.238281 361.910156 459.558594 L 361.910156 504.15625 C 361.910156 507.472656 364.605469 510.164062 367.925781 510.164062 C 371.25 510.164062 373.945312 507.472656 373.945312 504.15625 L 373.945312 459.558594 C 373.945312 456.238281 371.25 453.550781 367.925781 453.550781 "/><g clip-rule="nonzero" clip-path="url(#e4b5cc5fdc)"><path style=" stroke:none;fill-rule:nonzero;fill:#000000;fill-opacity:1;" d="M 775.839844 467.78125 C 779.164062 467.78125 781.855469 470.472656 781.855469 473.792969 L 781.855469 489.921875 C 781.855469 493.242188 779.164062 495.929688 775.839844 495.929688 C 772.515625 495.929688 769.820312 493.242188 769.820312 489.921875 L 769.820312 473.792969 C 769.820312 470.472656 772.515625 467.78125 775.839844 467.78125 "/></g><path style=" stroke:none;fill-rule:nonzero;fill:#000000;fill-opacity:1;" d="M 755.4375 455.921875 C 758.761719 455.921875 761.453125 458.613281 761.453125 461.929688 L 761.453125 501.78125 C 761.453125 505.101562 758.761719 507.792969 755.4375 507.792969 C 752.113281 507.792969 749.425781 505.101562 749.425781 501.78125 L 749.425781 461.929688 C 749.425781 458.613281 752.113281 455.921875 755.4375 455.921875 "/><path style=" stroke:none;fill-rule:nonzero;fill:#000000;fill-opacity:1;" d="M 735.042969 444.0625 C 738.367188 444.0625 741.0625 446.75 741.0625 450.070312 L 741.0625 513.644531 C 741.0625 516.964844 738.367188 519.652344 735.042969 519.652344 C 731.722656 519.652344 729.027344 516.964844 729.027344 513.644531 L 729.027344 450.070312 C 729.027344 446.75 731.722656 444.0625 735.042969 444.0625 "/><path style=" stroke:none;fill-rule:nonzero;fill:#000000;fill-opacity:1;" d="M 714.652344 420.339844 C 717.976562 420.339844 720.664062 423.03125 720.664062 426.347656 L 720.664062 537.367188 C 720.664062 540.683594 717.976562 543.375 714.652344 543.375 C 711.324219 543.375 708.632812 540.683594 708.632812 537.367188 L 708.632812 426.347656 C 708.632812 423.03125 711.324219 420.339844 714.652344 420.339844 "/><path style=" stroke:none;fill-rule:nonzero;fill:#000000;fill-opacity:1;" d="M 694.253906 439.316406 C 697.578125 439.316406 700.273438 442.007812 700.273438 445.324219 L 700.273438 518.386719 C 700.273438 521.707031 697.578125 524.398438 694.253906 524.398438 C 690.933594 524.398438 688.238281 521.707031 688.238281 518.386719 L 688.238281 445.324219 C 688.238281 442.007812 690.933594 439.316406 694.253906 439.316406 "/><path style=" stroke:none;fill-rule:nonzero;fill:#000000;fill-opacity:1;" d="M 673.859375 453.550781 C 677.179688 453.550781 679.875 456.238281 679.875 459.558594 L 679.875 504.15625 C 679.875 507.472656 677.179688 510.164062 673.859375 510.164062 C 670.535156 510.164062 667.839844 507.472656 667.839844 504.15625 L 667.839844 459.558594 C 667.839844 456.238281 670.535156 453.550781 673.859375 453.550781 "/><path style=" stroke:none;fill-rule:nonzero;fill:#000000;fill-opacity:1;" d="M 388.324219 439.316406 C 385 439.316406 382.308594 442.007812 382.308594 445.324219 L 382.308594 518.386719 C 382.308594 521.707031 385 524.398438 388.324219 524.398438 C 391.644531 524.398438 394.339844 521.707031 394.339844 518.386719 L 394.339844 445.324219 C 394.339844 442.007812 391.644531 439.316406 388.324219 439.316406 "/><path style=" stroke:none;fill-rule:nonzero;fill:#000000;fill-opacity:1;" d="M 408.71875 422.710938 C 405.394531 422.710938 402.703125 425.402344 402.703125 428.722656 L 402.703125 534.992188 C 402.703125 538.3125 405.394531 541.003906 408.71875 541.003906 C 412.042969 541.003906 414.734375 538.3125 414.734375 534.992188 L 414.734375 428.722656 C 414.734375 425.402344 412.042969 422.710938 408.71875 422.710938 "/><path style=" stroke:none;fill-rule:nonzero;fill:#000000;fill-opacity:1;" d="M 429.113281 439.316406 C 425.789062 439.316406 423.097656 442.007812 423.097656 445.324219 L 423.097656 518.386719 C 423.097656 521.707031 425.789062 524.398438 429.113281 524.398438 C 432.4375 524.398438 435.128906 521.707031 435.128906 518.386719 L 435.128906 445.324219 C 435.128906 442.007812 432.4375 439.316406 429.113281 439.316406 "/><path style=" stroke:none;fill-rule:nonzero;fill:#000000;fill-opacity:1;" d="M 449.511719 453.550781 L 449.507812 453.550781 C 446.183594 453.550781 443.492188 456.238281 443.492188 459.558594 L 443.492188 504.15625 C 443.492188 507.472656 446.183594 510.164062 449.507812 510.164062 L 449.511719 510.164062 C 452.832031 510.164062 455.527344 507.472656 455.527344 504.15625 L 455.527344 459.558594 C 455.527344 456.238281 452.832031 453.550781 449.511719 453.550781 "/><path style=" stroke:none;fill-rule:nonzero;fill:#000000;fill-opacity:1;" d="M 469.90625 439.316406 C 466.582031 439.316406 463.886719 442.007812 463.886719 445.324219 L 463.886719 518.386719 C 463.886719 521.707031 466.582031 524.398438 469.90625 524.398438 C 473.226562 524.398438 475.921875 521.707031 475.921875 518.386719 L 475.921875 445.324219 C 475.921875 442.007812 473.226562 439.316406 469.90625 439.316406 "/><path style=" stroke:none;fill-rule:nonzero;fill:#000000;fill-opacity:1;" d="M 490.296875 425.082031 C 486.976562 425.082031 484.28125 427.773438 484.28125 431.09375 L 484.28125 532.621094 C 484.28125 535.941406 486.976562 538.628906 490.296875 538.628906 C 493.621094 538.628906 496.316406 535.941406 496.316406 532.621094 L 496.316406 431.09375 C 496.316406 427.773438 493.621094 425.082031 490.296875 425.082031 "/><path style=" stroke:none;fill-rule:nonzero;fill:#000000;fill-opacity:1;" d="M 510.695312 403.734375 C 507.371094 403.734375 504.679688 406.425781 504.679688 409.746094 L 504.679688 553.96875 C 504.679688 557.289062 507.371094 559.980469 510.695312 559.980469 C 514.019531 559.980469 516.710938 557.289062 516.710938 553.96875 L 516.710938 409.746094 C 516.710938 406.425781 514.019531 403.734375 510.695312 403.734375 "/><path style=" stroke:none;fill-rule:nonzero;fill:#000000;fill-opacity:1;" d="M 531.09375 422.710938 C 527.769531 422.710938 525.074219 425.402344 525.074219 428.722656 L 525.074219 534.992188 C 525.074219 538.3125 527.769531 541.003906 531.09375 541.003906 C 534.410156 541.003906 537.105469 538.3125 537.105469 534.992188 L 537.105469 428.722656 C 537.105469 425.402344 534.410156 422.710938 531.09375 422.710938 "/><path style=" stroke:none;fill-rule:nonzero;fill:#000000;fill-opacity:1;" d="M 551.484375 439.316406 C 548.167969 439.316406 545.46875 442.007812 545.46875 445.324219 L 545.46875 518.386719 C 545.46875 521.707031 548.167969 524.398438 551.484375 524.398438 C 554.808594 524.398438 557.503906 521.707031 557.503906 518.386719 L 557.503906 445.324219 C 557.503906 442.007812 554.808594 439.316406 551.484375 439.316406 "/><path style=" stroke:none;fill-rule:nonzero;fill:#000000;fill-opacity:1;" d="M 571.882812 455.921875 C 568.558594 455.921875 565.863281 458.613281 565.863281 461.929688 L 565.863281 501.78125 C 565.863281 505.101562 568.558594 507.792969 571.882812 507.792969 C 575.203125 507.792969 577.898438 505.101562 577.898438 501.78125 L 577.898438 461.929688 C 577.898438 458.613281 575.203125 455.921875 571.882812 455.921875 "/><path style=" stroke:none;fill-rule:nonzero;fill:#000000;fill-opacity:1;" d="M 592.277344 444.0625 C 588.953125 444.0625 586.261719 446.75 586.261719 450.070312 L 586.261719 513.644531 C 586.261719 516.964844 588.953125 519.652344 592.277344 519.652344 C 595.597656 519.652344 598.296875 516.964844 598.296875 513.644531 L 598.296875 450.070312 C 598.296875 446.75 595.597656 444.0625 592.277344 444.0625 "/><path style=" stroke:none;fill-rule:nonzero;fill:#000000;fill-opacity:1;" d="M 612.671875 422.710938 C 609.347656 422.710938 606.65625 425.402344 606.65625 428.722656 L 606.65625 534.992188 C 606.65625 538.3125 609.347656 541.003906 612.671875 541.003906 C 615.996094 541.003906 618.6875 538.3125 618.6875 534.992188 L 618.6875 428.722656 C 618.6875 425.402344 615.996094 422.710938 612.671875 422.710938 "/><path style=" stroke:none;fill-rule:nonzero;fill:#000000;fill-opacity:1;" d="M 633.070312 434.570312 C 629.746094 434.570312 627.050781 437.261719 627.050781 440.582031 L 627.050781 523.132812 C 627.050781 526.449219 629.746094 529.140625 633.070312 529.140625 C 636.390625 529.140625 639.085938 526.449219 639.085938 523.132812 L 639.085938 440.582031 C 639.085938 437.261719 636.390625 434.570312 633.070312 434.570312 "/><path style=" stroke:none;fill-rule:nonzero;fill:#000000;fill-opacity:1;" d="M 653.464844 446.433594 C 650.136719 446.433594 647.449219 449.125 647.449219 452.441406 L 647.449219 511.269531 C 647.449219 514.589844 650.136719 517.28125 653.464844 517.28125 C 656.785156 517.28125 659.480469 514.589844 659.480469 511.269531 L 659.480469 452.441406 C 659.480469 449.125 656.785156 446.433594 653.464844 446.433594 "/></g></svg>