<svg xmlns="http://www.w3.org/2000/svg" xmlns:xlink="http://www.w3.org/1999/xlink" width="192" zoomAndPan="magnify" viewBox="0 0 144 31.5" height="42" preserveAspectRatio="xMidYMid meet" version="1.2"><defs><clipPath id="3c95901ed2"><path d="M 1.125 0 L 33 0 L 33 31.007812 L 1.125 31.007812 Z M 1.125 0 "/></clipPath><clipPath id="ce72c97f81"><path d="M 129.539062 13.554688 L 131.703125 13.554688 L 131.703125 18.648438 L 129.539062 18.648438 Z M 129.539062 13.554688 "/></clipPath></defs><g id="9431b0d432"><g clip-rule="nonzero" clip-path="url(#3c95901ed2)"><path style=" stroke:none;fill-rule:nonzero;fill:#00bf63;fill-opacity:1;" d="M 32.398438 15.503906 C 32.398438 17.597656 31.988281 19.628906 31.179688 21.539062 C 30.398438 23.386719 29.28125 25.042969 27.859375 26.464844 C 26.433594 27.890625 24.777344 29.007812 22.929688 29.789062 C 21.019531 30.597656 18.988281 31.007812 16.894531 31.007812 C 14.800781 31.007812 12.773438 30.597656 10.859375 29.789062 C 9.015625 29.007812 7.355469 27.890625 5.933594 26.464844 C 4.507812 25.042969 3.390625 23.386719 2.609375 21.539062 C 1.800781 19.628906 1.390625 17.597656 1.390625 15.503906 C 1.390625 13.410156 1.800781 11.378906 2.609375 9.46875 C 3.390625 7.621094 4.507812 5.964844 5.933594 4.539062 C 7.355469 3.117188 9.015625 2 10.859375 1.21875 C 12.773438 0.410156 14.800781 0 16.894531 0 C 18.988281 0 21.019531 0.410156 22.929688 1.21875 C 24.777344 2 26.433594 3.117188 27.859375 4.539062 C 29.28125 5.964844 30.398438 7.621094 31.179688 9.46875 C 31.988281 11.378906 32.398438 13.410156 32.398438 15.503906 "/></g><path style=" stroke:none;fill-rule:nonzero;fill:#ffffff;fill-opacity:1;" d="M 21.804688 13.9375 L 21.792969 13.9375 C 21.484375 13.9375 21.234375 14.1875 21.234375 14.496094 L 21.234375 16.84375 C 21.234375 16.980469 21.226562 17.121094 21.207031 17.257812 C 21.089844 18.117188 20.597656 18.878906 19.898438 19.394531 C 19.726562 19.519531 19.5 19.632812 19.265625 19.722656 C 18.695312 19.949219 18.078125 20.050781 17.464844 20.050781 L 16.328125 20.050781 C 15.710938 20.050781 15.097656 19.949219 14.523438 19.722656 C 14.289062 19.632812 14.0625 19.519531 13.890625 19.394531 C 13.191406 18.878906 12.699219 18.117188 12.585938 17.257812 C 12.566406 17.121094 12.554688 16.980469 12.554688 16.84375 L 12.554688 14.496094 C 12.554688 14.1875 12.304688 13.9375 11.996094 13.9375 L 11.988281 13.9375 C 11.675781 13.9375 11.425781 14.1875 11.425781 14.496094 L 11.425781 16.730469 C 11.425781 19.132812 13.375 21.082031 15.78125 21.082031 C 16.089844 21.082031 16.34375 21.335938 16.34375 21.644531 L 16.34375 22.453125 C 16.34375 22.765625 16.089844 23.015625 15.78125 23.015625 L 14.304688 23.015625 C 14.019531 23.015625 13.765625 23.21875 13.730469 23.503906 C 13.6875 23.84375 13.953125 24.136719 14.285156 24.136719 L 19.484375 24.136719 C 19.769531 24.136719 20.027344 23.929688 20.0625 23.644531 C 20.101562 23.304688 19.839844 23.015625 19.503906 23.015625 L 18.007812 23.015625 C 17.699219 23.015625 17.449219 22.765625 17.449219 22.453125 L 17.449219 21.644531 C 17.449219 21.335938 17.699219 21.082031 18.007812 21.082031 C 20.414062 21.082031 22.363281 19.132812 22.363281 16.730469 L 22.363281 14.496094 C 22.363281 14.1875 22.113281 13.9375 21.804688 13.9375 "/><path style=" stroke:none;fill-rule:nonzero;fill:#ffffff;fill-opacity:1;" d="M 17.25 19.019531 L 16.539062 19.019531 C 14.957031 19.019531 13.675781 17.738281 13.675781 16.15625 L 13.675781 10.152344 C 13.675781 8.574219 14.957031 7.292969 16.539062 7.292969 L 17.25 7.292969 C 18.832031 7.292969 20.113281 8.574219 20.113281 10.152344 L 20.113281 16.15625 C 20.113281 17.738281 18.832031 19.019531 17.25 19.019531 "/><path style=" stroke:none;fill-rule:nonzero;fill:#000000;fill-opacity:1;" d="M 40.222656 13.585938 C 39.636719 13.585938 39.15625 14.0625 39.15625 14.652344 L 39.15625 17.515625 C 39.15625 18.105469 39.636719 18.582031 40.222656 18.582031 C 40.8125 18.582031 41.292969 18.105469 41.292969 17.515625 L 41.292969 14.652344 C 41.292969 14.0625 40.8125 13.585938 40.222656 13.585938 "/><path style=" stroke:none;fill-rule:nonzero;fill:#000000;fill-opacity:1;" d="M 43.839844 11.480469 C 43.25 11.480469 42.773438 11.957031 42.773438 12.546875 L 42.773438 19.621094 C 42.773438 20.210938 43.25 20.6875 43.839844 20.6875 C 44.429688 20.6875 44.90625 20.210938 44.90625 19.621094 L 44.90625 12.546875 C 44.90625 11.957031 44.429688 11.480469 43.839844 11.480469 "/><path style=" stroke:none;fill-rule:nonzero;fill:#000000;fill-opacity:1;" d="M 47.457031 9.375 C 46.867188 9.375 46.390625 9.851562 46.390625 10.441406 L 46.390625 21.726562 C 46.390625 22.316406 46.867188 22.792969 47.457031 22.792969 C 48.046875 22.792969 48.523438 22.316406 48.523438 21.726562 L 48.523438 10.441406 C 48.523438 9.851562 48.046875 9.375 47.457031 9.375 "/><path style=" stroke:none;fill-rule:nonzero;fill:#000000;fill-opacity:1;" d="M 51.074219 5.160156 C 50.484375 5.160156 50.007812 5.640625 50.007812 6.230469 L 50.007812 25.9375 C 50.007812 26.527344 50.484375 27.003906 51.074219 27.003906 C 51.664062 27.003906 52.140625 26.527344 52.140625 25.9375 L 52.140625 6.230469 C 52.140625 5.640625 51.664062 5.160156 51.074219 5.160156 "/><path style=" stroke:none;fill-rule:nonzero;fill:#000000;fill-opacity:1;" d="M 54.691406 8.53125 C 54.101562 8.53125 53.625 9.007812 53.625 9.597656 L 53.625 22.566406 C 53.625 23.15625 54.101562 23.636719 54.691406 23.636719 C 55.28125 23.636719 55.757812 23.15625 55.757812 22.566406 L 55.757812 9.597656 C 55.757812 9.007812 55.28125 8.53125 54.691406 8.53125 "/><path style=" stroke:none;fill-rule:nonzero;fill:#000000;fill-opacity:1;" d="M 58.308594 11.058594 C 57.71875 11.058594 57.238281 11.535156 57.238281 12.125 L 57.238281 20.042969 C 57.238281 20.628906 57.71875 21.109375 58.308594 21.109375 C 58.894531 21.109375 59.375 20.628906 59.375 20.042969 L 59.375 12.125 C 59.375 11.535156 58.894531 11.058594 58.308594 11.058594 "/><g clip-rule="nonzero" clip-path="url(#ce72c97f81)"><path style=" stroke:none;fill-rule:nonzero;fill:#000000;fill-opacity:1;" d="M 130.636719 13.585938 C 131.226562 13.585938 131.703125 14.0625 131.703125 14.652344 L 131.703125 17.515625 C 131.703125 18.105469 131.226562 18.582031 130.636719 18.582031 C 130.046875 18.582031 129.570312 18.105469 129.570312 17.515625 L 129.570312 14.652344 C 129.570312 14.0625 130.046875 13.585938 130.636719 13.585938 "/></g><path style=" stroke:none;fill-rule:nonzero;fill:#000000;fill-opacity:1;" d="M 127.019531 11.480469 C 127.609375 11.480469 128.085938 11.957031 128.085938 12.546875 L 128.085938 19.621094 C 128.085938 20.210938 127.609375 20.6875 127.019531 20.6875 C 126.429688 20.6875 125.953125 20.210938 125.953125 19.621094 L 125.953125 12.546875 C 125.953125 11.957031 126.429688 11.480469 127.019531 11.480469 "/><path style=" stroke:none;fill-rule:nonzero;fill:#000000;fill-opacity:1;" d="M 123.402344 9.375 C 123.992188 9.375 124.472656 9.851562 124.472656 10.441406 L 124.472656 21.726562 C 124.472656 22.316406 123.992188 22.792969 123.402344 22.792969 C 122.816406 22.792969 122.335938 22.316406 122.335938 21.726562 L 122.335938 10.441406 C 122.335938 9.851562 122.816406 9.375 123.402344 9.375 "/><path style=" stroke:none;fill-rule:nonzero;fill:#000000;fill-opacity:1;" d="M 119.789062 5.160156 C 120.378906 5.160156 120.855469 5.640625 120.855469 6.230469 L 120.855469 25.9375 C 120.855469 26.527344 120.378906 27.003906 119.789062 27.003906 C 119.199219 27.003906 118.71875 26.527344 118.71875 25.9375 L 118.71875 6.230469 C 118.71875 5.640625 119.199219 5.160156 119.789062 5.160156 "/><path style=" stroke:none;fill-rule:nonzero;fill:#000000;fill-opacity:1;" d="M 116.171875 8.53125 C 116.761719 8.53125 117.238281 9.007812 117.238281 9.597656 L 117.238281 22.566406 C 117.238281 23.15625 116.761719 23.636719 116.171875 23.636719 C 115.582031 23.636719 115.105469 23.15625 115.105469 22.566406 L 115.105469 9.597656 C 115.105469 9.007812 115.582031 8.53125 116.171875 8.53125 "/><path style=" stroke:none;fill-rule:nonzero;fill:#000000;fill-opacity:1;" d="M 112.554688 11.058594 C 113.144531 11.058594 113.621094 11.535156 113.621094 12.125 L 113.621094 20.042969 C 113.621094 20.628906 113.144531 21.109375 112.554688 21.109375 C 111.964844 21.109375 111.488281 20.628906 111.488281 20.042969 L 111.488281 12.125 C 111.488281 11.535156 111.964844 11.058594 112.554688 11.058594 "/><path style=" stroke:none;fill-rule:nonzero;fill:#000000;fill-opacity:1;" d="M 61.921875 8.53125 C 61.335938 8.53125 60.855469 9.007812 60.855469 9.597656 L 60.855469 22.566406 C 60.855469 23.15625 61.335938 23.636719 61.921875 23.636719 C 62.511719 23.636719 62.988281 23.15625 62.988281 22.566406 L 62.988281 9.597656 C 62.988281 9.007812 62.511719 8.53125 61.921875 8.53125 "/><path style=" stroke:none;fill-rule:nonzero;fill:#000000;fill-opacity:1;" d="M 65.539062 5.582031 C 64.949219 5.582031 64.472656 6.0625 64.472656 6.648438 L 64.472656 25.515625 C 64.472656 26.105469 64.949219 26.582031 65.539062 26.582031 C 66.128906 26.582031 66.605469 26.105469 66.605469 25.515625 L 66.605469 6.648438 C 66.605469 6.0625 66.128906 5.582031 65.539062 5.582031 "/><path style=" stroke:none;fill-rule:nonzero;fill:#000000;fill-opacity:1;" d="M 69.15625 8.53125 C 68.566406 8.53125 68.089844 9.007812 68.089844 9.597656 L 68.089844 22.566406 C 68.089844 23.15625 68.566406 23.636719 69.15625 23.636719 C 69.746094 23.636719 70.222656 23.15625 70.222656 22.566406 L 70.222656 9.597656 C 70.222656 9.007812 69.746094 8.53125 69.15625 8.53125 "/><path style=" stroke:none;fill-rule:nonzero;fill:#000000;fill-opacity:1;" d="M 72.773438 11.058594 C 72.183594 11.058594 71.707031 11.535156 71.707031 12.125 L 71.707031 20.042969 C 71.707031 20.628906 72.183594 21.109375 72.773438 21.109375 C 73.363281 21.109375 73.839844 20.628906 73.839844 20.042969 L 73.839844 12.125 C 73.839844 11.535156 73.363281 11.058594 72.773438 11.058594 "/><path style=" stroke:none;fill-rule:nonzero;fill:#000000;fill-opacity:1;" d="M 76.390625 8.53125 C 75.800781 8.53125 75.324219 9.007812 75.324219 9.597656 L 75.324219 22.566406 C 75.324219 23.15625 75.800781 23.636719 76.390625 23.636719 C 76.980469 23.636719 77.457031 23.15625 77.457031 22.566406 L 77.457031 9.597656 C 77.457031 9.007812 76.980469 8.53125 76.390625 8.53125 "/><path style=" stroke:none;fill-rule:nonzero;fill:#000000;fill-opacity:1;" d="M 80.003906 6.003906 C 79.417969 6.003906 78.9375 6.480469 78.9375 7.070312 L 78.9375 25.09375 C 78.9375 25.683594 79.417969 26.160156 80.003906 26.160156 C 80.59375 26.160156 81.074219 25.683594 81.074219 25.09375 L 81.074219 7.070312 C 81.074219 6.480469 80.59375 6.003906 80.003906 6.003906 "/><path style=" stroke:none;fill-rule:nonzero;fill:#000000;fill-opacity:1;" d="M 83.621094 2.214844 C 83.03125 2.214844 82.554688 2.691406 82.554688 3.28125 L 82.554688 28.886719 C 82.554688 29.472656 83.03125 29.953125 83.621094 29.953125 C 84.210938 29.953125 84.6875 29.472656 84.6875 28.886719 L 84.6875 3.28125 C 84.6875 2.691406 84.210938 2.214844 83.621094 2.214844 "/><path style=" stroke:none;fill-rule:nonzero;fill:#000000;fill-opacity:1;" d="M 87.238281 5.582031 C 86.648438 5.582031 86.171875 6.0625 86.171875 6.648438 L 86.171875 25.515625 C 86.171875 26.105469 86.648438 26.582031 87.238281 26.582031 C 87.828125 26.582031 88.304688 26.105469 88.304688 25.515625 L 88.304688 6.648438 C 88.304688 6.0625 87.828125 5.582031 87.238281 5.582031 "/><path style=" stroke:none;fill-rule:nonzero;fill:#000000;fill-opacity:1;" d="M 90.855469 8.53125 C 90.265625 8.53125 89.789062 9.007812 89.789062 9.597656 L 89.789062 22.566406 C 89.789062 23.15625 90.265625 23.636719 90.855469 23.636719 C 91.445312 23.636719 91.921875 23.15625 91.921875 22.566406 L 91.921875 9.597656 C 91.921875 9.007812 91.445312 8.53125 90.855469 8.53125 "/><path style=" stroke:none;fill-rule:nonzero;fill:#000000;fill-opacity:1;" d="M 94.472656 11.480469 C 93.882812 11.480469 93.40625 11.957031 93.40625 12.546875 L 93.40625 19.621094 C 93.40625 20.210938 93.882812 20.6875 94.472656 20.6875 C 95.0625 20.6875 95.539062 20.210938 95.539062 19.621094 L 95.539062 12.546875 C 95.539062 11.957031 95.0625 11.480469 94.472656 11.480469 "/><path style=" stroke:none;fill-rule:nonzero;fill:#000000;fill-opacity:1;" d="M 98.089844 9.375 C 97.5 9.375 97.023438 9.851562 97.023438 10.441406 L 97.023438 21.726562 C 97.023438 22.316406 97.5 22.792969 98.089844 22.792969 C 98.675781 22.792969 99.15625 22.316406 99.15625 21.726562 L 99.15625 10.441406 C 99.15625 9.851562 98.675781 9.375 98.089844 9.375 "/><path style=" stroke:none;fill-rule:nonzero;fill:#000000;fill-opacity:1;" d="M 101.707031 5.582031 C 101.117188 5.582031 100.636719 6.0625 100.636719 6.648438 L 100.636719 25.515625 C 100.636719 26.105469 101.117188 26.582031 101.707031 26.582031 C 102.292969 26.582031 102.773438 26.105469 102.773438 25.515625 L 102.773438 6.648438 C 102.773438 6.0625 102.292969 5.582031 101.707031 5.582031 "/><path style=" stroke:none;fill-rule:nonzero;fill:#000000;fill-opacity:1;" d="M 105.320312 7.6875 C 104.730469 7.6875 104.253906 8.167969 104.253906 8.753906 L 104.253906 23.410156 C 104.253906 24 104.730469 24.476562 105.320312 24.476562 C 105.910156 24.476562 106.386719 24 106.386719 23.410156 L 106.386719 8.753906 C 106.386719 8.167969 105.910156 7.6875 105.320312 7.6875 "/><path style=" stroke:none;fill-rule:nonzero;fill:#000000;fill-opacity:1;" d="M 108.9375 9.792969 C 108.347656 9.792969 107.871094 10.273438 107.871094 10.859375 L 107.871094 21.304688 C 107.871094 21.894531 108.347656 22.371094 108.9375 22.371094 C 109.527344 22.371094 110.003906 21.894531 110.003906 21.304688 L 110.003906 10.859375 C 110.003906 10.273438 109.527344 9.792969 108.9375 9.792969 "/></g></svg>