<svg xmlns="http://www.w3.org/2000/svg" xmlns:xlink="http://www.w3.org/1999/xlink" width="1080" zoomAndPan="magnify" viewBox="0 0 810 1012.49997" height="1350" preserveAspectRatio="xMidYMid meet" version="1.0"><defs><clipPath id="d4587c7f1b"><path d="M 81.160156 202 L 416 202 L 416 796 L 81.160156 796 Z M 81.160156 202 " clip-rule="nonzero"/></clipPath><clipPath id="92b848c96a"><path d="M 599 224 L 763.324219 224 L 763.324219 774 L 599 774 Z M 599 224 " clip-rule="nonzero"/></clipPath></defs><g clip-path="url(#d4587c7f1b)"><path fill="#3c3c3c" d="M 403.957031 204.402344 C 396.734375 201.199219 388.230469 202.5625 382.296875 207.859375 L 203.402344 367.980469 L 136.019531 367.980469 C 105.617188 367.980469 80.902344 392.769531 80.902344 423.171875 L 80.902344 575.519531 C 80.902344 605.84375 105.609375 630.46875 136.019531 630.46875 L 203.402344 630.46875 L 382.296875 790.59375 C 386.066406 793.960938 390.882812 795.726562 395.769531 795.726562 C 398.5 795.726562 401.304688 795.164062 403.957031 794.039062 C 411.179688 790.746094 415.828125 783.609375 415.828125 775.667969 L 415.828125 222.859375 C 415.828125 214.917969 411.171875 207.695312 403.957031 204.402344 Z M 403.957031 204.402344 " fill-opacity="1" fill-rule="nonzero"/></g><path fill="#3c3c3c" d="M 490.519531 365.804688 C 480.730469 360.585938 468.535156 364.28125 463.238281 374.070312 C 458.019531 383.859375 461.714844 396.054688 471.503906 401.347656 C 507.601562 420.679688 529.984375 458.230469 529.984375 499.296875 C 529.984375 540.367188 507.601562 577.753906 471.503906 597.09375 C 461.714844 602.386719 458.03125 614.582031 463.238281 624.363281 C 466.933594 631.101562 473.832031 634.957031 481.046875 634.957031 C 484.253906 634.957031 487.46875 634.230469 490.511719 632.628906 C 539.691406 606.234375 570.253906 555.128906 570.253906 499.296875 C 570.253906 443.46875 539.691406 392.199219 490.511719 365.804688 Z M 490.519531 365.804688 " fill-opacity="1" fill-rule="nonzero"/><g clip-path="url(#92b848c96a)"><path fill="#3c3c3c" d="M 632.1875 229.109375 C 623.523438 222.210938 610.851562 223.652344 603.953125 232.398438 C 597.054688 241.0625 598.496094 253.734375 607.246094 260.636719 C 680.730469 318.792969 722.847656 405.757812 722.847656 499.296875 C 722.847656 592.835938 680.730469 679.640625 607.246094 737.796875 C 598.503906 744.695312 597.054688 757.292969 603.953125 766.035156 C 607.886719 771.089844 613.820312 773.65625 619.757812 773.65625 C 624.089844 773.65625 628.496094 772.292969 632.1875 769.324219 C 715.375 703.542969 763.113281 605.109375 763.113281 499.296875 C 763.113281 393.488281 715.386719 294.890625 632.1875 229.109375 Z M 632.1875 229.109375 " fill-opacity="1" fill-rule="nonzero"/></g><path fill="#3c3c3c" d="M 562.476562 297.378906 C 553.410156 290.960938 540.894531 293.046875 534.394531 302.113281 C 527.972656 311.179688 530.140625 323.773438 539.203125 330.195312 C 593.832031 368.945312 626.40625 432.238281 626.40625 499.304688 C 626.40625 566.375 593.839844 629.507812 539.203125 668.253906 C 530.140625 674.675781 527.972656 687.273438 534.394531 696.335938 C 538.324219 701.871094 544.585938 704.839844 550.835938 704.839844 C 554.84375 704.839844 558.9375 703.550781 562.46875 701.070312 C 627.6875 654.78125 666.675781 579.371094 666.675781 499.316406 C 666.675781 419.257812 627.6875 343.6875 562.46875 297.398438 Z M 562.476562 297.378906 " fill-opacity="1" fill-rule="nonzero"/></svg>