<svg xmlns="http://www.w3.org/2000/svg" xmlns:xlink="http://www.w3.org/1999/xlink" width="794" zoomAndPan="magnify" viewBox="0 0 594.95996 595.499999" height="794" preserveAspectRatio="xMidYMid meet" version="1.0"><defs><clipPath id="112aa369ca"><path d="M 60 111 L 522 111 L 522 535.257812 L 60 535.257812 Z M 60 111 " clip-rule="nonzero"/></clipPath><clipPath id="d1cafe197f"><path d="M 72 111 L 522 111 L 522 535.257812 L 72 535.257812 Z M 72 111 " clip-rule="nonzero"/></clipPath><clipPath id="79bfbf0bd4"><path d="M 367 21.9375 L 510 21.9375 L 510 186 L 367 186 Z M 367 21.9375 " clip-rule="nonzero"/></clipPath><clipPath id="045fde5519"><path d="M 367 21.9375 L 432 21.9375 L 432 48 L 367 48 Z M 367 21.9375 " clip-rule="nonzero"/></clipPath></defs><g clip-path="url(#112aa369ca)"><path fill="#ffe082" d="M 431.972656 111.769531 C 444.796875 111.769531 521.75 98.9375 521.75 214.433594 C 521.75 329.929688 355.015625 535.257812 124.152344 535.257812 C 98.503906 535.257812 72.851562 522.425781 72.851562 522.425781 L 60.023438 483.925781 C 60.023438 483.925781 72.851562 432.59375 149.804688 394.097656 C 226.757812 355.597656 281.433594 323.335938 314.140625 290.625 C 339.792969 264.96875 380.667969 214.433594 380.667969 175.933594 C 380.667969 150.808594 406.320312 124.601562 406.320312 124.601562 " fill-opacity="1" fill-rule="nonzero"/></g><g clip-path="url(#d1cafe197f)"><path fill="#ffca28" d="M 85.675781 496.757812 C 85.675781 496.757812 175.457031 471.09375 252.410156 432.59375 C 329.367188 394.097656 496.101562 278.597656 444.796875 111.769531 C 444.796875 111.769531 521.75 98.9375 521.75 214.433594 C 521.75 329.929688 355.015625 535.257812 124.152344 535.257812 C 98.503906 535.257812 72.851562 522.425781 72.851562 522.425781 Z M 85.675781 496.757812 " fill-opacity="1" fill-rule="nonzero"/></g><g clip-path="url(#79bfbf0bd4)"><path fill="#c0ca33" d="M 509.734375 149.472656 C 485.683594 97.871094 431.972656 124.601562 431.972656 21.9375 C 393.492188 21.9375 367.84375 47.605469 367.84375 47.605469 C 367.84375 47.605469 406.320312 86.105469 406.320312 124.601562 C 431.972656 124.601562 452.644531 122.589844 454.941406 185.558594 C 472.28125 112.039062 509.734375 149.472656 509.734375 149.472656 Z M 509.734375 149.472656 " fill-opacity="1" fill-rule="nonzero"/></g><path fill="#c0ca33" d="M 380.667969 175.933594 C 380.667969 175.933594 379.859375 152.667969 406.320312 124.601562 C 432.777344 96.539062 458.019531 119.394531 458.019531 119.394531 L 454.941406 185.558594 C 454.941406 185.558594 443.71875 143.851562 426.085938 142.789062 C 388.890625 140.542969 380.667969 175.933594 380.667969 175.933594 Z M 380.667969 175.933594 " fill-opacity="1" fill-rule="nonzero"/><path fill="#5d4037" d="M 60.023438 496.757812 L 72.851562 522.425781 L 85.675781 522.425781 L 85.675781 496.757812 L 60.023438 483.925781 Z M 60.023438 496.757812 " fill-opacity="1" fill-rule="nonzero"/><g clip-path="url(#045fde5519)"><path fill="#827717" d="M 431.972656 21.9375 C 393.492188 21.9375 367.84375 47.605469 367.84375 47.605469 L 406.320312 47.605469 Z M 431.972656 21.9375 " fill-opacity="1" fill-rule="nonzero"/></g></svg>