<svg xmlns="http://www.w3.org/2000/svg" xmlns:xlink="http://www.w3.org/1999/xlink" width="1080" zoomAndPan="magnify" viewBox="0 0 810 1012.49997" height="1350" preserveAspectRatio="xMidYMid meet" version="1.0"><defs><filter x="0%" y="0%" width="100%" height="100%" id="7fa0e8be97"><feColorMatrix values="0 0 0 0 1 0 0 0 0 1 0 0 0 0 1 0 0 0 1 0" color-interpolation-filters="sRGB"/></filter><g/><mask id="1253e34635"><g filter="url(#7fa0e8be97)"><rect x="-81" width="972" fill="#000000" y="-101.249997" height="1214.999964" fill-opacity="0.86"/></g></mask><clipPath id="d6d7fec6e2"><path d="M 0.167969 1.039062 L 790 1.039062 L 790 323.355469 L 0.167969 323.355469 Z M 0.167969 1.039062 " clip-rule="nonzero"/></clipPath><clipPath id="28ed2a102f"><path d="M 38.398438 1.039062 L 751.601562 1.039062 C 761.738281 1.039062 771.464844 5.066406 778.632812 12.238281 C 785.804688 19.40625 789.832031 29.132812 789.832031 39.269531 L 789.832031 285.125 C 789.832031 295.265625 785.804688 304.988281 778.632812 312.160156 C 771.464844 319.328125 761.738281 323.355469 751.601562 323.355469 L 38.398438 323.355469 C 28.261719 323.355469 18.535156 319.328125 11.367188 312.160156 C 4.195312 304.988281 0.167969 295.265625 0.167969 285.125 L 0.167969 39.269531 C 0.167969 29.132812 4.195312 19.40625 11.367188 12.238281 C 18.535156 5.066406 28.261719 1.039062 38.398438 1.039062 Z M 38.398438 1.039062 " clip-rule="nonzero"/></clipPath><clipPath id="3107eed053"><path d="M 0.167969 0.0390625 L 789.964844 0.0390625 L 789.964844 322.355469 L 0.167969 322.355469 Z M 0.167969 0.0390625 " clip-rule="nonzero"/></clipPath><clipPath id="c37b92a4fd"><path d="M 38.398438 0.0390625 L 751.601562 0.0390625 C 761.738281 0.0390625 771.464844 4.066406 778.632812 11.238281 C 785.804688 18.40625 789.832031 28.132812 789.832031 38.269531 L 789.832031 284.125 C 789.832031 294.265625 785.804688 303.988281 778.632812 311.160156 C 771.464844 318.328125 761.738281 322.355469 751.601562 322.355469 L 38.398438 322.355469 C 28.261719 322.355469 18.535156 318.328125 11.367188 311.160156 C 4.195312 303.988281 0.167969 294.265625 0.167969 284.125 L 0.167969 38.269531 C 0.167969 28.132812 4.195312 18.40625 11.367188 11.238281 C 18.535156 4.066406 28.261719 0.0390625 38.398438 0.0390625 Z M 38.398438 0.0390625 " clip-rule="nonzero"/></clipPath><clipPath id="325351aa4b"><rect x="0" width="790" y="0" height="323"/></clipPath><clipPath id="3b419fb73c"><rect x="0" width="791" y="0" height="324"/></clipPath><clipPath id="0531d8f266"><rect x="0" width="423" y="0" height="90"/></clipPath><clipPath id="6f49562fd1"><path d="M 1.296875 1 L 328.554688 1 L 328.554688 218.816406 L 1.296875 218.816406 Z M 1.296875 1 " clip-rule="nonzero"/></clipPath><clipPath id="00a588e73b"><path d="M 75 18 L 263 18 L 263 218.816406 L 75 218.816406 Z M 75 18 " clip-rule="nonzero"/></clipPath><clipPath id="25977d1f89"><path d="M 108.054688 68.328125 L 225 68.328125 L 225 186.21875 L 108.054688 186.21875 Z M 108.054688 68.328125 " clip-rule="nonzero"/></clipPath><clipPath id="e2cf63feee"><rect x="0" width="330" y="0" height="346"/></clipPath><clipPath id="8bf2dd0071"><path d="M 223.664062 707.109375 L 575.988281 707.109375 L 575.988281 779 L 223.664062 779 Z M 223.664062 707.109375 " clip-rule="nonzero"/></clipPath><clipPath id="1561256d74"><path d="M 303 707.109375 L 506 707.109375 L 506 762 L 303 762 Z M 303 707.109375 " clip-rule="nonzero"/></clipPath></defs><g mask="url(#1253e34635)"><g transform="matrix(1, 0, 0, 1, 10, 412)"><g clip-path="url(#3b419fb73c)"><g clip-path="url(#d6d7fec6e2)"><g clip-path="url(#28ed2a102f)"><g transform="matrix(1, 0, 0, 1, 0, 1)"><g clip-path="url(#325351aa4b)"><g clip-path="url(#3107eed053)"><g clip-path="url(#c37b92a4fd)"><path fill="#0056e3" d="M 0.167969 0.0390625 L 789.597656 0.0390625 L 789.597656 322.355469 L 0.167969 322.355469 Z M 0.167969 0.0390625 " fill-opacity="1" fill-rule="nonzero"/></g></g></g></g></g></g></g></g></g><g transform="matrix(1, 0, 0, 1, 191, 546)"><g clip-path="url(#0531d8f266)"><g fill="#ffffff" fill-opacity="1"><g transform="translate(0.697067, 70.743167)"><g><path d="M 1.015625 -44.1875 L 11.625 -44.1875 L 11.625 0 L 1.015625 0 Z M 1.015625 -44.1875 "/></g></g></g><g fill="#ffffff" fill-opacity="1"><g transform="translate(13.341843, 70.743167)"><g><path d="M 19.4375 -34.875 C 24.425781 -35.28125 28.550781 -33.988281 31.8125 -31 C 35.300781 -27.78125 37.046875 -23.269531 37.046875 -17.46875 L 37.046875 0 L 28.21875 0 L 28.21875 -17.265625 L 28.140625 -17.265625 L 28.140625 -17.40625 C 28.140625 -19.800781 27.300781 -21.835938 25.625 -23.515625 C 23.945312 -25.191406 21.910156 -26.03125 19.515625 -26.03125 C 17.066406 -25.945312 15.023438 -25.085938 13.390625 -23.453125 C 11.671875 -21.734375 10.859375 -19.695312 10.953125 -17.34375 L 10.953125 -17.265625 L 10.875 -17.265625 L 10.875 0 L 1.359375 0 L 1.359375 -35.140625 L 10.875 -35.140625 L 10.875 -30.59375 C 13.007812 -33.132812 15.863281 -34.5625 19.4375 -34.875 Z M 19.4375 -34.875 "/></g></g></g><g fill="#ffffff" fill-opacity="1"><g transform="translate(51.752026, 70.743167)"><g><path d="M 11.484375 -47.390625 L 11.484375 -39.359375 L 2.046875 -39.359375 L 2.046875 -47.390625 Z M 11.5625 -34.9375 L 11.5625 0 L 2.046875 0 L 2.046875 -34.9375 Z M 11.5625 -34.9375 "/></g></g></g><g fill="#ffffff" fill-opacity="1"><g transform="translate(65.348546, 70.743167)"><g><path d="M 30.046875 -4.21875 C 26.742188 -1.40625 22.890625 0 18.484375 0 C 13.640625 -0.0390625 9.519531 -1.785156 6.125 -5.234375 C 2.71875 -8.679688 1.039062 -12.804688 1.09375 -17.609375 C 1.132812 -22.453125 2.878906 -26.578125 6.328125 -29.984375 C 9.765625 -33.378906 13.890625 -35.054688 18.703125 -35.015625 C 23.046875 -34.960938 26.847656 -33.507812 30.109375 -30.65625 L 23.796875 -24.40625 C 22.253906 -25.539062 20.53125 -26.109375 18.625 -26.109375 C 16.269531 -26.109375 14.234375 -25.289062 12.515625 -23.65625 C 10.835938 -21.976562 10 -19.941406 10 -17.546875 C 9.90625 -15.179688 10.71875 -13.140625 12.4375 -11.421875 C 14.070312 -9.785156 16.113281 -8.925781 18.5625 -8.84375 C 20.46875 -8.84375 22.1875 -9.40625 23.71875 -10.53125 Z M 30.046875 -4.21875 "/></g></g></g><g fill="#ffffff" fill-opacity="1"><g transform="translate(96.484586, 70.743167)"><g><path d="M 11.484375 -47.390625 L 11.484375 -39.359375 L 2.046875 -39.359375 L 2.046875 -47.390625 Z M 11.5625 -34.9375 L 11.5625 0 L 2.046875 0 L 2.046875 -34.9375 Z M 11.5625 -34.9375 "/></g></g></g><g fill="#ffffff" fill-opacity="1"><g transform="translate(110.081106, 70.743167)"><g><path d="M 27.1875 -35.140625 L 36.71875 -35.140625 L 36.71875 0 L 27.1875 0 L 27.1875 -3.9375 C 25.238281 -1.40625 22.296875 -0.140625 18.359375 -0.140625 C 13.554688 -0.0859375 9.429688 -1.765625 5.984375 -5.171875 C 2.535156 -8.566406 0.789062 -12.691406 0.75 -17.546875 C 0.707031 -22.347656 2.382812 -26.46875 5.78125 -29.90625 C 9.175781 -33.351562 13.300781 -35.097656 18.15625 -35.140625 C 22.144531 -35.140625 25.15625 -33.847656 27.1875 -31.265625 Z M 24.34375 -11.5625 C 26.019531 -13.238281 26.859375 -15.273438 26.859375 -17.671875 C 26.859375 -20.117188 25.992188 -22.160156 24.265625 -23.796875 C 22.546875 -25.515625 20.53125 -26.328125 18.21875 -26.234375 C 15.8125 -26.234375 13.769531 -25.394531 12.09375 -23.71875 C 10.414062 -22.050781 9.578125 -20.015625 9.578125 -17.609375 C 9.578125 -15.253906 10.441406 -13.210938 12.171875 -11.484375 C 13.847656 -9.804688 15.882812 -8.96875 18.28125 -8.96875 C 20.726562 -9.0625 22.75 -9.925781 24.34375 -11.5625 Z M 24.34375 -11.5625 "/></g></g></g><g fill="#ffffff" fill-opacity="1"><g transform="translate(148.831211, 70.743167)"><g><path d="M 11.5625 -29.78125 C 12.332031 -31.957031 13.625 -33.472656 15.4375 -34.328125 C 17.195312 -35.191406 19.847656 -35.625 23.390625 -35.625 L 23.390625 -25.90625 C 19.941406 -25.90625 17.0625 -24.722656 14.75 -22.359375 C 12.625 -20.273438 11.5625 -17.988281 11.5625 -15.5 L 11.5625 0 L 2.046875 0 L 2.046875 -35.015625 L 11.5625 -35.015625 Z M 11.5625 -29.78125 "/></g></g></g><g fill="#ffffff" fill-opacity="1"><g transform="translate(173.236966, 70.743167)"><g/></g></g><g fill="#ffffff" fill-opacity="1"><g transform="translate(190.912455, 70.743167)"><g><path d="M 37.734375 0 L 28.890625 0 L 28.890625 -17.265625 L 28.828125 -17.265625 L 28.828125 -17.46875 C 28.828125 -19.820312 27.988281 -21.835938 26.3125 -23.515625 C 24.632812 -25.191406 22.59375 -26.03125 20.1875 -26.03125 C 17.832031 -26.03125 15.796875 -25.171875 14.078125 -23.453125 C 12.347656 -21.734375 11.53125 -19.695312 11.625 -17.34375 L 11.625 -17.265625 L 11.5625 -17.265625 L 11.5625 0 L 2.046875 0 L 2.046875 -44.1875 L 11.5625 -44.1875 L 11.5625 -30.59375 C 13.6875 -33.132812 16.539062 -34.5625 20.125 -34.875 C 25.113281 -35.28125 29.238281 -33.988281 32.5 -31 C 35.988281 -27.78125 37.734375 -23.269531 37.734375 -17.46875 Z M 37.734375 0 "/></g></g></g><g fill="#ffffff" fill-opacity="1"><g transform="translate(230.682287, 70.743167)"><g><path d="M 11.484375 -47.390625 L 11.484375 -39.359375 L 2.046875 -39.359375 L 2.046875 -47.390625 Z M 11.5625 -34.9375 L 11.5625 0 L 2.046875 0 L 2.046875 -34.9375 Z M 11.5625 -34.9375 "/></g></g></g><g fill="#ffffff" fill-opacity="1"><g transform="translate(244.278807, 70.743167)"><g><path d="M 16.1875 0 C 13.820312 0 11.757812 -0.363281 10 -1.09375 C 8.59375 -1.582031 7.140625 -2.507812 5.640625 -3.875 C 3.054688 -6.28125 1.878906 -9.316406 2.109375 -12.984375 L 2.109375 -13.734375 L 9.71875 -13.59375 L 10.328125 -13.59375 L 10.328125 -13.046875 C 10.378906 -11.921875 10.628906 -10.992188 11.078125 -10.265625 C 11.847656 -8.953125 13.550781 -8.296875 16.1875 -8.296875 C 18.351562 -8.296875 19.914062 -8.546875 20.875 -9.046875 C 21.375 -9.265625 21.710938 -9.554688 21.890625 -9.921875 C 21.984375 -10.054688 22.03125 -10.191406 22.03125 -10.328125 L 22.09375 -10.671875 C 22.09375 -11.617188 21.34375 -12.390625 19.84375 -12.984375 C 19.257812 -13.210938 18.582031 -13.394531 17.8125 -13.53125 C 17.21875 -13.664062 16.5625 -13.78125 15.84375 -13.875 C 13.125 -14.144531 10.859375 -14.6875 9.046875 -15.5 C 7.234375 -16.226562 5.738281 -17.222656 4.5625 -18.484375 C 2.925781 -20.347656 2.109375 -22.476562 2.109375 -24.875 C 2.109375 -26.375 2.378906 -27.757812 2.921875 -29.03125 C 3.328125 -30.03125 3.875 -30.914062 4.5625 -31.6875 C 7 -34.488281 10.914062 -35.890625 16.3125 -35.890625 C 19.53125 -35.890625 22.25 -35.253906 24.46875 -33.984375 C 26.195312 -33.035156 27.582031 -31.742188 28.625 -30.109375 C 29.4375 -28.890625 30.003906 -27.460938 30.328125 -25.828125 C 30.410156 -25.285156 30.476562 -24.765625 30.53125 -24.265625 L 30.53125 -22.84375 L 22.296875 -22.84375 L 22.296875 -23.859375 C 22.253906 -24.046875 22.234375 -24.226562 22.234375 -24.40625 C 22.097656 -24.90625 21.914062 -25.3125 21.6875 -25.625 C 20.6875 -26.988281 18.894531 -27.671875 16.3125 -27.671875 C 12.507812 -27.671875 10.609375 -26.878906 10.609375 -25.296875 C 10.609375 -24.472656 11.0625 -23.8125 11.96875 -23.3125 C 12.914062 -22.726562 14.523438 -22.300781 16.796875 -22.03125 C 22.003906 -21.488281 25.785156 -19.832031 28.140625 -17.0625 C 29.734375 -15.207031 30.53125 -13.078125 30.53125 -10.671875 L 30.53125 -10.203125 L 30.453125 -9.578125 C 30.453125 -8.992188 30.382812 -8.453125 30.25 -7.953125 C 29.882812 -6.503906 29.207031 -5.210938 28.21875 -4.078125 C 27.082031 -2.722656 25.492188 -1.703125 23.453125 -1.015625 C 21.410156 -0.335938 18.988281 0 16.1875 0 Z M 16.1875 0 "/></g></g></g><g fill="#ffffff" fill-opacity="1"><g transform="translate(276.842482, 70.743167)"><g><path d="M 27.265625 -35.015625 L 27.265625 -25.5 L 19.4375 -25.5 L 19.4375 0 L 9.921875 0 L 9.921875 -25.5 L 2.046875 -25.5 L 2.046875 -35.015625 L 9.921875 -35.015625 L 9.921875 -47.25 L 19.4375 -47.25 L 19.4375 -35.015625 Z M 27.265625 -35.015625 "/></g></g></g><g fill="#ffffff" fill-opacity="1"><g transform="translate(306.143, 70.743167)"><g><path d="M 20.46875 -52.34375 L 25.421875 -47.390625 L 17.609375 -39.5625 L 12.640625 -44.53125 Z M 19.515625 -35.015625 C 24.359375 -35.054688 28.484375 -33.378906 31.890625 -29.984375 C 35.328125 -26.535156 37.046875 -22.410156 37.046875 -17.609375 C 37.097656 -12.753906 35.421875 -8.628906 32.015625 -5.234375 C 28.617188 -1.785156 24.519531 -0.0390625 19.71875 0 C 14.863281 0.0390625 10.71875 -1.632812 7.28125 -5.03125 C 3.832031 -8.425781 2.109375 -12.550781 2.109375 -17.40625 C 2.066406 -22.25 3.742188 -26.375 7.140625 -29.78125 C 10.535156 -33.21875 14.660156 -34.960938 19.515625 -35.015625 Z M 25.703125 -11.421875 C 27.378906 -13.097656 28.21875 -15.140625 28.21875 -17.546875 C 28.21875 -19.898438 27.351562 -21.9375 25.625 -23.65625 C 23.90625 -25.289062 21.867188 -26.109375 19.515625 -26.109375 C 17.148438 -26.109375 15.128906 -25.269531 13.453125 -23.59375 C 11.785156 -21.820312 10.953125 -19.78125 10.953125 -17.46875 C 10.953125 -15.113281 11.8125 -13.078125 13.53125 -11.359375 C 15.207031 -9.679688 17.242188 -8.84375 19.640625 -8.84375 C 22.085938 -8.925781 24.109375 -9.785156 25.703125 -11.421875 Z M 25.703125 -11.421875 "/></g></g></g><g fill="#ffffff" fill-opacity="1"><g transform="translate(345.300991, 70.743167)"><g><path d="M 11.5625 -29.78125 C 12.332031 -31.957031 13.625 -33.472656 15.4375 -34.328125 C 17.195312 -35.191406 19.847656 -35.625 23.390625 -35.625 L 23.390625 -25.90625 C 19.941406 -25.90625 17.0625 -24.722656 14.75 -22.359375 C 12.625 -20.273438 11.5625 -17.988281 11.5625 -15.5 L 11.5625 0 L 2.046875 0 L 2.046875 -35.015625 L 11.5625 -35.015625 Z M 11.5625 -29.78125 "/></g></g></g><g fill="#ffffff" fill-opacity="1"><g transform="translate(369.706766, 70.743167)"><g><path d="M 11.484375 -47.390625 L 11.484375 -39.359375 L 2.046875 -39.359375 L 2.046875 -47.390625 Z M 11.5625 -34.9375 L 11.5625 0 L 2.046875 0 L 2.046875 -34.9375 Z M 11.5625 -34.9375 "/></g></g></g><g fill="#ffffff" fill-opacity="1"><g transform="translate(383.303266, 70.743167)"><g><path d="M 27.1875 -35.140625 L 36.71875 -35.140625 L 36.71875 0 L 27.1875 0 L 27.1875 -3.9375 C 25.238281 -1.40625 22.296875 -0.140625 18.359375 -0.140625 C 13.554688 -0.0859375 9.429688 -1.765625 5.984375 -5.171875 C 2.535156 -8.566406 0.789062 -12.691406 0.75 -17.546875 C 0.707031 -22.347656 2.382812 -26.46875 5.78125 -29.90625 C 9.175781 -33.351562 13.300781 -35.097656 18.15625 -35.140625 C 22.144531 -35.140625 25.15625 -33.847656 27.1875 -31.265625 Z M 24.34375 -11.5625 C 26.019531 -13.238281 26.859375 -15.273438 26.859375 -17.671875 C 26.859375 -20.117188 25.992188 -22.160156 24.265625 -23.796875 C 22.546875 -25.515625 20.53125 -26.328125 18.21875 -26.234375 C 15.8125 -26.234375 13.769531 -25.394531 12.09375 -23.71875 C 10.414062 -22.050781 9.578125 -20.015625 9.578125 -17.609375 C 9.578125 -15.253906 10.441406 -13.210938 12.171875 -11.484375 C 13.847656 -9.804688 15.882812 -8.96875 18.28125 -8.96875 C 20.726562 -9.0625 22.75 -9.925781 24.34375 -11.5625 Z M 24.34375 -11.5625 "/></g></g></g></g></g><g transform="matrix(1, 0, 0, 1, 235, 228)"><g clip-path="url(#e2cf63feee)"><g clip-path="url(#6f49562fd1)"><path fill="#d38d5f" d="M 323.292969 300.125 L 268.328125 300.125 C 266.523438 295.066406 263.28125 290.691406 258.679688 287.707031 C 246.109375 279.558594 228.207031 284.839844 218.695312 299.511719 C 218.5625 299.714844 218.4375 299.921875 218.308594 300.125 L 119.660156 300.125 C 119.535156 299.921875 119.410156 299.714844 119.277344 299.511719 C 109.765625 284.839844 91.863281 279.558594 79.289062 287.707031 C 74.6875 290.691406 71.449219 295.066406 69.644531 300.125 L 6.074219 300.125 C 3.40625 300.125 1.246094 302.289062 1.246094 304.953125 C 1.246094 307.621094 3.40625 309.777344 6.074219 309.777344 L 67.976562 309.777344 C 67.925781 316.179688 69.804688 322.9375 73.757812 329.03125 C 83.269531 343.707031 101.171875 348.984375 113.746094 340.835938 C 128.777344 333.894531 132.054688 317.851562 132.738281 309.777344 L 205.230469 309.777344 C 205.910156 317.851562 209.195312 333.894531 224.226562 340.835938 C 236.796875 348.984375 254.699219 343.707031 264.214844 329.03125 C 268.167969 322.9375 270.046875 316.179688 269.996094 309.777344 L 323.292969 309.777344 C 325.960938 309.777344 328.121094 307.621094 328.121094 304.953125 C 328.121094 302.289062 325.960938 300.125 323.292969 300.125 Z M 1.246094 182.855469 C 1.246094 180.1875 3.40625 178.027344 6.074219 178.027344 L 47.949219 178.027344 C 50.832031 169.574219 61.101562 163.316406 73.339844 163.316406 C 85.574219 163.316406 95.851562 169.574219 98.730469 178.027344 L 107.925781 178.027344 C 84.578125 164.640625 69.546875 142.695312 69.546875 114.113281 C 69.546875 96.503906 75.246094 78.777344 85.074219 63.257812 C 71.433594 59.800781 61.335938 47.445312 61.335938 32.730469 C 61.335938 15.335938 75.4375 1.234375 92.835938 1.234375 C 108.132812 1.234375 120.875 12.144531 123.726562 26.609375 C 137.304688 19.097656 152.6875 14.675781 168.984375 14.675781 C 185.285156 14.675781 200.667969 19.097656 214.246094 26.609375 C 217.089844 12.144531 229.835938 1.234375 245.136719 1.234375 C 262.527344 1.234375 276.628906 15.335938 276.628906 32.730469 C 276.628906 47.445312 266.539062 59.800781 252.894531 63.257812 C 262.726562 78.777344 268.425781 96.503906 268.425781 114.113281 C 268.425781 142.695312 253.390625 164.640625 230.042969 178.027344 L 240.15625 178.027344 C 243.035156 169.574219 253.308594 163.316406 265.546875 163.316406 C 277.78125 163.316406 288.058594 169.574219 290.9375 178.027344 L 323.292969 178.027344 C 325.960938 178.027344 328.121094 180.1875 328.121094 182.855469 C 328.121094 185.515625 325.960938 187.679688 323.292969 187.679688 L 290.9375 187.679688 C 288.058594 196.132812 277.78125 202.386719 265.546875 202.386719 C 253.308594 202.386719 243.039062 196.132812 240.15625 187.679688 L 207.125 187.679688 C 195.378906 191.113281 182.5 192.914062 168.984375 192.914062 C 155.472656 192.914062 142.59375 191.113281 130.847656 187.679688 L 98.730469 187.679688 C 95.851562 196.132812 85.574219 202.386719 73.339844 202.386719 C 61.101562 202.386719 50.832031 196.132812 47.949219 187.679688 L 6.074219 187.679688 C 3.40625 187.679688 1.246094 185.515625 1.246094 182.855469 " fill-opacity="1" fill-rule="nonzero"/></g><g clip-path="url(#00a588e73b)"><path fill="#c8ab8d" d="M 76.882812 307.453125 C 75.417969 307.992188 74.734375 309.789062 75.34375 311.472656 C 75.964844 313.152344 77.652344 314.082031 79.109375 313.546875 C 80.574219 313.011719 81.265625 311.214844 80.648438 309.53125 C 80.035156 307.851562 78.347656 306.921875 76.882812 307.453125 Z M 86.175781 300.332031 C 84.96875 298.472656 82.683594 297.816406 81.0625 298.867188 C 79.445312 299.914062 79.109375 302.277344 80.316406 304.136719 C 81.519531 305.996094 83.8125 306.652344 85.429688 305.601562 C 87.050781 304.554688 87.378906 302.191406 86.175781 300.332031 Z M 92.710938 304.800781 C 94.617188 304.496094 95.878906 302.480469 95.53125 300.292969 C 95.1875 298.101562 93.363281 296.574219 91.457031 296.875 C 89.550781 297.175781 88.289062 299.195312 88.632812 301.386719 C 88.984375 303.570312 90.804688 305.105469 92.710938 304.800781 Z M 100.945312 300.839844 C 99.015625 300.839844 97.449219 302.632812 97.449219 304.851562 C 97.449219 307.070312 99.015625 308.863281 100.945312 308.863281 C 102.871094 308.863281 104.433594 307.070312 104.433594 304.851562 C 104.433594 302.632812 102.871094 300.839844 100.945312 300.839844 Z M 87.34375 308.441406 C 83.238281 310.660156 82.640625 317.503906 86.003906 323.738281 C 89.367188 329.96875 94.078125 330.15625 98.179688 327.9375 C 102.285156 325.726562 104.226562 321.945312 100.859375 315.714844 C 97.5 309.484375 91.445312 306.230469 87.34375 308.441406 Z M 261.085938 307.453125 C 259.621094 306.921875 257.9375 307.851562 257.324219 309.53125 C 256.707031 311.214844 257.394531 313.011719 258.855469 313.546875 C 260.320312 314.082031 262.003906 313.152344 262.621094 311.472656 C 263.238281 309.789062 262.550781 307.992188 261.085938 307.453125 Z M 257.652344 304.136719 C 258.859375 302.277344 258.527344 299.914062 256.910156 298.867188 C 255.289062 297.816406 253 298.472656 251.792969 300.332031 C 250.589844 302.191406 250.921875 304.554688 252.542969 305.601562 C 254.160156 306.652344 256.449219 305.996094 257.652344 304.136719 Z M 242.4375 300.292969 C 242.09375 302.480469 243.355469 304.496094 245.261719 304.800781 C 247.164062 305.105469 248.992188 303.570312 249.335938 301.386719 C 249.683594 299.195312 248.417969 297.175781 246.515625 296.875 C 244.609375 296.574219 242.785156 298.101562 242.4375 300.292969 Z M 240.523438 304.851562 C 240.523438 302.632812 238.957031 300.839844 237.027344 300.839844 C 235.097656 300.839844 233.539062 302.632812 233.539062 304.851562 C 233.539062 307.070312 235.097656 308.863281 237.027344 308.863281 C 238.957031 308.863281 240.523438 307.070312 240.523438 304.851562 Z M 250.628906 308.441406 C 246.527344 306.230469 240.472656 309.484375 237.105469 315.714844 C 233.746094 321.945312 235.6875 325.726562 239.792969 327.9375 C 243.890625 330.15625 248.601562 329.96875 251.96875 323.738281 C 255.328125 317.503906 254.734375 310.660156 250.628906 308.441406 Z M 256.265625 43.644531 C 261.988281 37.917969 261.988281 28.636719 256.265625 22.917969 C 250.539062 17.191406 241.261719 17.191406 235.539062 22.917969 C 229.816406 28.636719 232.453125 35.277344 238.179688 41.003906 C 243.902344 46.722656 250.539062 49.363281 256.265625 43.644531 Z M 81.703125 22.917969 C 75.984375 28.636719 75.984375 37.917969 81.703125 43.644531 C 87.429688 49.363281 94.070312 46.722656 99.792969 41.003906 C 105.515625 35.277344 108.15625 28.636719 102.429688 22.917969 C 96.710938 17.191406 87.429688 17.191406 81.703125 22.917969 Z M 219.644531 140.378906 C 219.644531 160.585938 196.960938 176.964844 168.984375 176.964844 C 141.007812 176.964844 118.328125 160.585938 118.328125 140.378906 C 118.328125 120.175781 141.007812 103.792969 168.984375 103.792969 C 196.960938 103.792969 219.644531 120.175781 219.644531 140.378906 " fill-opacity="1" fill-rule="nonzero"/></g><path fill="#322512" d="M 212.605469 96.757812 C 208.722656 96.757812 205.570312 99.90625 205.570312 103.792969 C 205.570312 107.679688 208.722656 110.832031 212.605469 110.832031 C 216.496094 110.832031 219.644531 107.679688 219.644531 103.792969 C 219.644531 99.90625 216.496094 96.757812 212.605469 96.757812 Z M 128.023438 96.757812 C 124.136719 96.757812 120.984375 99.90625 120.984375 103.792969 C 120.984375 107.679688 124.136719 110.832031 128.023438 110.832031 C 131.910156 110.832031 135.058594 107.679688 135.058594 103.792969 C 135.058594 99.90625 131.910156 96.757812 128.023438 96.757812 Z M 187.746094 116.929688 C 187.746094 122.625 179.347656 132.457031 168.984375 132.457031 C 158.621094 132.457031 150.226562 122.625 150.226562 116.929688 C 150.226562 111.226562 158.621094 106.605469 168.984375 106.605469 C 179.347656 106.605469 187.746094 111.226562 187.746094 116.929688 " fill-opacity="1" fill-rule="nonzero"/><path fill="#ffffff" d="M 209.101562 100.1875 C 208.179688 100.1875 207.433594 100.9375 207.433594 101.855469 C 207.433594 102.777344 208.179688 103.519531 209.101562 103.519531 C 210.019531 103.519531 210.769531 102.777344 210.769531 101.855469 C 210.769531 100.9375 210.019531 100.1875 209.101562 100.1875 Z M 124.464844 100.1875 C 123.542969 100.1875 122.792969 100.9375 122.792969 101.855469 C 122.792969 102.777344 123.542969 103.519531 124.464844 103.519531 C 125.382812 103.519531 126.132812 102.777344 126.132812 101.855469 C 126.132812 100.9375 125.382812 100.1875 124.464844 100.1875 Z M 175.851562 111.914062 C 175.851562 113.269531 172.539062 113.007812 168.449219 113.007812 C 164.363281 113.007812 161.050781 113.269531 161.050781 111.914062 C 161.050781 110.558594 164.363281 109.460938 168.449219 109.460938 C 172.539062 109.460938 175.851562 110.558594 175.851562 111.914062 " fill-opacity="1" fill-rule="nonzero"/><path fill="#55d3ff" d="M 204.070312 194.347656 C 205.21875 197.96875 205.824219 201.320312 204 204.75 C 202.355469 207.851562 199.5 209.417969 196.671875 209.722656 C 193.269531 210.097656 189.707031 209.050781 186.425781 207.75 C 180.816406 205.523438 175.582031 201.523438 171.414062 195.835938 L 171.390625 195.351562 C 171.160156 195.5 170.921875 195.613281 170.671875 195.703125 L 170.675781 195.824219 L 169.820312 195.867188 L 167.363281 195.984375 L 166.511719 196.027344 L 166.507812 195.902344 C 166.246094 195.84375 165.992188 195.75 165.753906 195.628906 L 165.777344 196.109375 C 162.179688 202.179688 157.363281 206.671875 152 209.429688 C 148.859375 211.046875 145.414062 212.4375 141.996094 212.402344 C 139.148438 212.367188 136.15625 211.085938 134.214844 208.167969 C 132.070312 204.925781 132.34375 201.53125 133.128906 197.8125 C 134.019531 193.613281 134.320312 190.242188 132.953125 186.011719 C 131.261719 180.796875 129.125 176.140625 132.15625 171.210938 C 134.320312 167.691406 138.128906 165.859375 141.515625 166.632812 C 152.445312 169.128906 161.699219 178.292969 164.328125 181.105469 C 164.742188 180.6875 165.21875 180.386719 165.734375 180.214844 L 165.730469 180.078125 L 166.585938 180.035156 L 169.039062 179.914062 L 169.894531 179.875 L 169.898438 180.007812 C 170.4375 180.136719 170.9375 180.382812 171.386719 180.761719 C 173.734375 177.707031 182.046875 167.683594 192.6875 164.128906 C 195.976562 163.03125 199.945312 164.484375 202.445312 167.777344 C 205.941406 172.386719 204.265625 177.230469 203.097656 182.582031 C 202.144531 186.921875 202.773438 190.25 204.070312 194.347656 " fill-opacity="1" fill-rule="nonzero"/><g clip-path="url(#25977d1f89)"><path fill="#d38d5f" d="M 260.292969 74.496094 C 270.035156 69.203125 276.648438 58.886719 276.648438 47.023438 C 276.648438 29.769531 262.660156 15.785156 245.410156 15.785156 C 231.109375 15.785156 219.058594 25.398438 215.355469 38.515625 C 201.910156 32.867188 186.246094 29.515625 168.179688 29.515625 C 150.117188 29.515625 134.453125 32.867188 121.007812 38.515625 C 117.300781 25.398438 105.253906 15.785156 90.953125 15.785156 C 73.699219 15.785156 59.714844 29.769531 59.714844 47.023438 C 59.714844 58.886719 66.328125 69.203125 76.070312 74.496094 C 58.808594 98.441406 52.570312 126.878906 55.222656 146.328125 C 60.632812 186.011719 90.246094 208.824219 168.179688 208.824219 C 246.117188 208.824219 275.730469 186.011719 281.140625 146.328125 C 283.792969 126.878906 277.554688 98.441406 260.292969 74.496094 " fill-opacity="1" fill-rule="nonzero"/></g><path fill="#fde4cd" d="M 168.179688 177.875 C 193.304688 177.875 206.785156 165.324219 208.441406 150.257812 C 210.101562 135.195312 199.289062 98.371094 168.179688 98.371094 C 137.074219 98.371094 126.261719 135.195312 127.917969 150.257812 C 129.574219 165.324219 143.058594 177.875 168.179688 177.875 " fill-opacity="1" fill-rule="nonzero"/><path fill="#4a4b5c" d="M 127.777344 101.023438 C 123.664062 101.023438 120.335938 105.210938 120.335938 110.378906 C 120.335938 115.546875 123.664062 119.734375 127.777344 119.734375 C 131.886719 119.734375 135.21875 115.546875 135.21875 110.378906 C 135.21875 105.210938 131.886719 101.023438 127.777344 101.023438 " fill-opacity="1" fill-rule="nonzero"/><path fill="#4a4b5c" d="M 208.585938 101.023438 C 204.472656 101.023438 201.144531 105.210938 201.144531 110.378906 C 201.144531 115.546875 204.472656 119.734375 208.585938 119.734375 C 212.695312 119.734375 216.027344 115.546875 216.027344 110.378906 C 216.027344 105.210938 212.695312 101.023438 208.585938 101.023438 " fill-opacity="1" fill-rule="nonzero"/><path fill="#4a4b5c" d="M 184.789062 137.191406 C 182.941406 136.597656 180.96875 137.597656 180.378906 139.445312 C 180.371094 139.460938 179.730469 141.269531 177.917969 143.011719 C 176.265625 144.605469 174.179688 145.648438 171.695312 146.140625 L 171.695312 130.046875 C 176.746094 128.71875 181.066406 124.761719 182.328125 120.8125 C 183.875 115.972656 176.574219 113.628906 168.179688 113.628906 C 159.789062 113.628906 152.488281 115.972656 154.035156 120.8125 C 155.28125 124.722656 159.527344 128.652344 164.515625 130.019531 L 164.667969 130.023438 L 164.667969 146.128906 C 157.921875 144.765625 156.074219 139.695312 155.996094 139.480469 C 155.40625 137.636719 153.425781 136.617188 151.582031 137.210938 C 149.734375 137.804688 148.714844 139.78125 149.308594 141.628906 C 149.464844 142.113281 153.285156 153.492188 168.179688 153.492188 C 183.078125 153.492188 186.898438 142.113281 187.054688 141.628906 C 187.648438 139.78125 186.636719 137.785156 184.789062 137.191406 " fill-opacity="1" fill-rule="nonzero"/></g></g><g clip-path="url(#8bf2dd0071)"><path fill="#d38d5f" d="M 570.542969 730.195312 L 511.332031 730.195312 C 509.386719 724.746094 505.894531 720.03125 500.9375 716.816406 C 487.394531 708.035156 468.109375 713.730469 457.859375 729.535156 C 457.714844 729.75 457.582031 729.972656 457.445312 730.195312 L 351.171875 730.195312 C 351.039062 729.972656 350.90625 729.75 350.761719 729.535156 C 340.511719 713.730469 321.226562 708.035156 307.683594 716.816406 C 302.726562 720.03125 299.234375 724.746094 297.289062 730.195312 L 228.808594 730.195312 C 225.933594 730.195312 223.609375 732.527344 223.609375 735.394531 C 223.609375 738.269531 225.933594 740.59375 228.808594 740.59375 L 295.496094 740.59375 C 295.441406 747.488281 297.464844 754.769531 301.722656 761.335938 C 311.972656 777.144531 331.257812 782.832031 344.800781 774.050781 C 360.996094 766.574219 364.527344 749.289062 365.261719 740.59375 L 443.355469 740.59375 C 444.089844 749.289062 447.625 766.574219 463.820312 774.050781 C 477.363281 782.832031 496.648438 777.144531 506.898438 761.335938 C 511.15625 754.769531 513.179688 747.488281 513.125 740.59375 L 570.542969 740.59375 C 573.417969 740.59375 575.742188 738.269531 575.742188 735.394531 C 575.742188 732.527344 573.417969 730.195312 570.542969 730.195312 Z M 223.609375 603.863281 C 223.609375 600.988281 225.933594 598.664062 228.808594 598.664062 L 273.917969 598.664062 C 277.023438 589.554688 288.089844 582.816406 301.273438 582.816406 C 314.453125 582.816406 325.523438 589.554688 328.625 598.664062 L 338.535156 598.664062 C 313.382812 584.238281 297.1875 560.601562 297.1875 529.808594 C 297.1875 510.839844 303.324219 491.742188 313.914062 475.023438 C 299.21875 471.296875 288.34375 457.988281 288.34375 442.136719 C 288.34375 423.398438 303.53125 408.207031 322.273438 408.207031 C 338.757812 408.207031 352.480469 419.960938 355.554688 435.542969 C 370.179688 427.449219 386.75 422.6875 404.308594 422.6875 C 421.871094 422.6875 438.441406 427.449219 453.066406 435.542969 C 456.132812 419.960938 469.863281 408.207031 486.347656 408.207031 C 505.082031 408.207031 520.273438 423.398438 520.273438 442.136719 C 520.273438 457.988281 509.402344 471.296875 494.707031 475.023438 C 505.296875 491.742188 511.433594 510.839844 511.433594 529.808594 C 511.433594 560.601562 495.238281 584.238281 470.085938 598.664062 L 480.980469 598.664062 C 484.082031 589.554688 495.152344 582.816406 508.332031 582.816406 C 521.515625 582.816406 532.585938 589.554688 535.6875 598.664062 L 570.542969 598.664062 C 573.417969 598.664062 575.742188 600.988281 575.742188 603.863281 C 575.742188 606.730469 573.417969 609.058594 570.542969 609.058594 L 535.6875 609.058594 C 532.585938 618.167969 521.515625 624.902344 508.332031 624.902344 C 495.152344 624.902344 484.085938 618.167969 480.980469 609.058594 L 445.394531 609.058594 C 432.742188 612.761719 418.867188 614.699219 404.308594 614.699219 C 389.753906 614.699219 375.878906 612.761719 363.226562 609.058594 L 328.625 609.058594 C 325.523438 618.167969 314.453125 624.902344 301.273438 624.902344 C 288.089844 624.902344 277.023438 618.167969 273.917969 609.058594 L 228.808594 609.058594 C 225.933594 609.058594 223.609375 606.730469 223.609375 603.863281 " fill-opacity="1" fill-rule="nonzero"/></g><g clip-path="url(#1561256d74)"><path fill="#e8a763" d="M 305.089844 738.089844 C 303.511719 738.671875 302.777344 740.605469 303.433594 742.417969 C 304.101562 744.230469 305.917969 745.230469 307.488281 744.65625 C 309.066406 744.078125 309.808594 742.140625 309.148438 740.328125 C 308.484375 738.515625 306.667969 737.515625 305.089844 738.089844 Z M 315.101562 730.417969 C 313.800781 728.417969 311.339844 727.707031 309.59375 728.839844 C 307.851562 729.96875 307.488281 732.511719 308.789062 734.515625 C 310.085938 736.519531 312.554688 737.226562 314.296875 736.09375 C 316.042969 734.964844 316.398438 732.421875 315.101562 730.417969 Z M 322.140625 735.230469 C 324.195312 734.90625 325.554688 732.734375 325.179688 730.375 C 324.808594 728.015625 322.84375 726.367188 320.789062 726.695312 C 318.738281 727.015625 317.378906 729.191406 317.75 731.550781 C 318.125 733.90625 320.089844 735.558594 322.140625 735.230469 Z M 331.011719 730.964844 C 328.933594 730.964844 327.246094 732.898438 327.246094 735.285156 C 327.246094 737.675781 328.933594 739.609375 331.011719 739.609375 C 333.085938 739.609375 334.769531 737.675781 334.769531 735.285156 C 334.769531 732.898438 333.085938 730.964844 331.011719 730.964844 Z M 316.359375 739.15625 C 311.9375 741.542969 311.292969 748.917969 314.914062 755.632812 C 318.539062 762.34375 323.613281 762.546875 328.03125 760.15625 C 332.453125 757.773438 334.546875 753.703125 330.921875 746.988281 C 327.300781 740.277344 320.777344 736.769531 316.359375 739.15625 Z M 503.53125 738.089844 C 501.953125 737.515625 500.136719 738.515625 499.472656 740.328125 C 498.8125 742.140625 499.554688 744.078125 501.125 744.65625 C 502.703125 745.230469 504.519531 744.230469 505.183594 742.417969 C 505.84375 740.605469 505.109375 738.671875 503.53125 738.089844 Z M 499.828125 734.515625 C 501.128906 732.511719 500.769531 729.96875 499.027344 728.839844 C 497.28125 727.707031 494.820312 728.417969 493.519531 730.417969 C 492.222656 732.421875 492.578125 734.964844 494.324219 736.09375 C 496.066406 737.226562 498.535156 736.519531 499.828125 734.515625 Z M 483.4375 730.375 C 483.066406 732.734375 484.425781 734.90625 486.480469 735.230469 C 488.53125 735.558594 490.5 733.90625 490.871094 731.550781 C 491.242188 729.191406 489.882812 727.015625 487.828125 726.695312 C 485.777344 726.367188 483.8125 728.015625 483.4375 730.375 Z M 481.375 735.285156 C 481.375 732.898438 479.6875 730.964844 477.609375 730.964844 C 475.53125 730.964844 473.851562 732.898438 473.851562 735.285156 C 473.851562 737.675781 475.53125 739.609375 477.609375 739.609375 C 479.6875 739.609375 481.375 737.675781 481.375 735.285156 Z M 492.261719 739.15625 C 487.84375 736.769531 481.320312 740.277344 477.695312 746.988281 C 474.074219 753.703125 476.167969 757.773438 480.589844 760.15625 C 485.003906 762.546875 490.082031 762.34375 493.707031 755.632812 C 497.328125 748.917969 496.683594 741.542969 492.261719 739.15625 Z M 498.335938 453.890625 C 504.5 447.722656 504.5 437.726562 498.335938 431.5625 C 492.167969 425.394531 482.171875 425.394531 476.007812 431.5625 C 469.839844 437.726562 472.683594 444.878906 478.851562 451.046875 C 485.015625 457.210938 492.167969 460.054688 498.335938 453.890625 Z M 310.285156 431.5625 C 304.121094 437.726562 304.121094 447.722656 310.285156 453.890625 C 316.453125 460.054688 323.605469 457.210938 329.769531 451.046875 C 335.9375 444.878906 338.78125 437.726562 332.613281 431.5625 C 326.449219 425.394531 316.453125 425.394531 310.285156 431.5625 Z M 458.882812 558.101562 C 458.882812 579.871094 434.449219 597.515625 404.308594 597.515625 C 374.171875 597.515625 349.738281 579.871094 349.738281 558.101562 C 349.738281 536.339844 374.171875 518.691406 404.308594 518.691406 C 434.449219 518.691406 458.882812 536.339844 458.882812 558.101562 " fill-opacity="1" fill-rule="nonzero"/></g></svg>