<svg xmlns="http://www.w3.org/2000/svg" xmlns:xlink="http://www.w3.org/1999/xlink" width="794" zoomAndPan="magnify" viewBox="0 0 594.95996 595.499999" height="794" preserveAspectRatio="xMidYMid meet" version="1.0"><defs><clipPath id="8bba169f53"><path d="M 17 55.386719 L 454 55.386719 L 454 321 L 17 321 Z M 17 55.386719 " clip-rule="nonzero"/></clipPath><clipPath id="2145b2b9ee"><path d="M 35 55.386719 L 471 55.386719 L 471 321 L 35 321 Z M 35 55.386719 " clip-rule="nonzero"/></clipPath><clipPath id="4158c976b6"><path d="M 0.230469 443 L 38 443 L 38 520 L 0.230469 520 Z M 0.230469 443 " clip-rule="nonzero"/></clipPath><clipPath id="45857c9975"><path d="M 4 472 L 59 472 L 59 534.984375 L 4 534.984375 Z M 4 472 " clip-rule="nonzero"/></clipPath></defs><path fill="#3c4664" d="M 271.488281 379.855469 C 299.023438 402.375 336.046875 406.8125 370.171875 400.78125 C 379.378906 399.152344 388.425781 396.785156 397.328125 393.949219 C 406.03125 391.179688 414.625 388.070312 423.410156 385.5625 C 431.96875 383.121094 440.734375 381.238281 449.65625 380.992188 C 457.289062 380.777344 464.898438 381.710938 472.265625 383.683594 C 488.953125 388.152344 504.023438 397.851562 514.796875 411.367188 C 516.535156 413.546875 519.585938 410.464844 517.863281 408.304688 C 508.324219 396.34375 495.433594 387.320312 481.125 381.972656 C 465.925781 376.292969 449.722656 375.390625 433.863281 378.539062 C 415.851562 382.117188 398.933594 389.683594 381.121094 394.046875 C 363.101562 398.460938 344.28125 400.394531 325.8125 397.988281 C 307.296875 395.582031 289.078125 388.675781 274.550781 376.796875 C 272.410156 375.042969 269.328125 378.089844 271.488281 379.855469 Z M 271.488281 379.855469 " fill-opacity="1" fill-rule="nonzero"/><path fill="#2f374f" d="M 340.332031 406.015625 C 340.332031 407.941406 339.546875 409.6875 338.296875 410.953125 C 337.03125 412.203125 335.285156 412.984375 333.355469 412.984375 L 181.851562 412.984375 C 166.851562 412.984375 156.3125 398.25 161.167969 384.078125 L 175.625 341.871094 L 204.175781 258.472656 L 312.445312 261.339844 L 286.3125 341.871094 L 270.339844 391.097656 C 269.0625 395.023438 271.988281 399.054688 276.121094 399.054688 L 333.359375 399.054688 C 337.210938 399.058594 340.332031 402.175781 340.332031 406.015625 Z M 340.332031 406.015625 " fill-opacity="1" fill-rule="nonzero"/><path fill="#555e7c" d="M 353.75 406.015625 C 353.75 407.941406 352.964844 409.6875 351.714844 410.953125 C 350.449219 412.203125 348.703125 412.984375 346.773438 412.984375 L 195.265625 412.984375 C 180.269531 412.984375 169.726562 398.25 174.582031 384.078125 L 189.039062 341.871094 L 217.589844 258.472656 L 325.859375 261.339844 L 299.730469 341.871094 L 283.753906 391.097656 C 282.476562 395.023438 285.40625 399.058594 289.539062 399.058594 L 346.773438 399.058594 C 350.628906 399.058594 353.75 402.175781 353.75 406.015625 Z M 353.75 406.015625 " fill-opacity="1" fill-rule="nonzero"/><path fill="#2f374f" d="M 325.859375 261.339844 L 299.730469 341.871094 L 189.039062 341.871094 L 217.589844 258.472656 Z M 325.859375 261.339844 " fill-opacity="1" fill-rule="nonzero"/><g clip-path="url(#8bba169f53)"><path fill="#2f374f" d="M 17.816406 63.804688 L 44.613281 313.773438 C 45.027344 317.640625 48.292969 320.574219 52.183594 320.574219 L 445.414062 320.574219 C 450.023438 320.574219 453.578125 316.507812 452.957031 311.941406 L 419.011719 61.96875 C 418.496094 58.199219 415.273438 55.382812 411.464844 55.382812 L 25.382812 55.382812 C 20.859375 55.382812 17.332031 59.308594 17.816406 63.804688 Z M 17.816406 63.804688 " fill-opacity="1" fill-rule="nonzero"/></g><g clip-path="url(#2145b2b9ee)"><path fill="#555e7c" d="M 35.480469 63.804688 L 62.277344 313.773438 C 62.695312 317.640625 65.957031 320.574219 69.851562 320.574219 L 463.078125 320.574219 C 467.691406 320.574219 471.242188 316.507812 470.621094 311.941406 L 436.675781 61.96875 C 436.164062 58.199219 432.941406 55.382812 429.132812 55.382812 L 43.050781 55.382812 C 38.523438 55.382812 35 59.308594 35.480469 63.804688 Z M 35.480469 63.804688 " fill-opacity="1" fill-rule="nonzero"/></g><path fill="#85c5ff" d="M 452.425781 303.65625 C 452.089844 304.050781 451.5 304.496094 450.582031 304.496094 L 79.660156 304.496094 C 78.414062 304.496094 77.363281 303.558594 77.222656 302.316406 L 71.804688 251.753906 L 69.03125 225.863281 L 52.765625 74.167969 C 52.679688 73.261719 53.050781 72.628906 53.378906 72.269531 C 53.714844 71.898438 54.292969 71.460938 55.203125 71.460938 L 419.59375 71.460938 C 420.816406 71.460938 421.855469 72.378906 422.019531 73.566406 L 442.707031 225.859375 L 446.210938 251.753906 L 453.007812 301.722656 C 453.136719 302.632812 452.765625 303.273438 452.425781 303.65625 Z M 452.425781 303.65625 " fill-opacity="1" fill-rule="nonzero"/><path fill="#88ddff" d="M 452.425781 303.65625 C 452.089844 304.050781 451.5 304.496094 450.582031 304.496094 L 191.988281 304.496094 L 331.558594 71.460938 L 419.59375 71.460938 C 420.816406 71.460938 421.855469 72.378906 422.019531 73.566406 L 442.707031 225.859375 L 446.210938 251.753906 L 453.007812 301.722656 C 453.136719 302.632812 452.765625 303.273438 452.425781 303.65625 Z M 452.425781 303.65625 " fill-opacity="1" fill-rule="nonzero"/><path fill="#555e7c" d="M 452.425781 303.660156 C 452.09375 304.046875 451.5 304.5 450.585938 304.5 L 79.664062 304.5 C 78.414062 304.5 77.359375 303.5625 77.226562 302.3125 L 76.347656 294.152344 L 71.808594 251.753906 L 446.21875 251.753906 L 451.984375 294.152344 L 453.007812 301.71875 C 453.132812 302.636719 452.761719 303.277344 452.425781 303.660156 Z M 452.425781 303.660156 " fill-opacity="1" fill-rule="nonzero"/><path fill="#2f374f" d="M 452.425781 303.660156 C 452.09375 304.046875 451.5 304.5 450.585938 304.5 L 79.664062 304.5 C 78.414062 304.5 77.359375 303.5625 77.226562 302.3125 L 76.347656 294.152344 L 451.980469 294.152344 L 453.007812 301.71875 C 453.132812 302.636719 452.761719 303.277344 452.425781 303.660156 Z M 452.425781 303.660156 " fill-opacity="1" fill-rule="nonzero"/><path fill="#ffffff" d="M 271.445312 273.761719 C 271.539062 274.578125 271.566406 275.390625 271.523438 276.203125 C 271.484375 277.015625 271.378906 277.8125 271.203125 278.59375 C 271.03125 279.375 270.792969 280.128906 270.496094 280.847656 C 270.195312 281.566406 269.835938 282.242188 269.421875 282.875 C 269.007812 283.503906 268.546875 284.078125 268.03125 284.59375 C 267.519531 285.113281 266.964844 285.5625 266.375 285.945312 C 265.78125 286.332031 265.160156 286.640625 264.511719 286.875 C 263.863281 287.109375 263.199219 287.269531 262.519531 287.347656 C 261.839844 287.425781 261.15625 287.421875 260.472656 287.34375 C 259.785156 287.261719 259.113281 287.101562 258.449219 286.859375 C 257.785156 286.621094 257.144531 286.308594 256.523438 285.921875 C 255.90625 285.535156 255.324219 285.082031 254.777344 284.5625 C 254.230469 284.042969 253.730469 283.46875 253.273438 282.835938 C 252.816406 282.203125 252.414062 281.523438 252.070312 280.804688 C 251.722656 280.082031 251.4375 279.328125 251.210938 278.546875 C 250.984375 277.765625 250.828125 276.964844 250.734375 276.152344 C 250.640625 275.339844 250.613281 274.527344 250.652344 273.714844 C 250.691406 272.898438 250.800781 272.101562 250.972656 271.320312 C 251.148438 270.539062 251.382812 269.789062 251.683594 269.070312 C 251.984375 268.347656 252.339844 267.675781 252.753906 267.042969 C 253.167969 266.414062 253.632812 265.839844 254.144531 265.320312 C 254.660156 264.804688 255.210938 264.355469 255.804688 263.96875 C 256.394531 263.585938 257.015625 263.277344 257.664062 263.042969 C 258.3125 262.804688 258.976562 262.648438 259.65625 262.570312 C 260.335938 262.492188 261.019531 262.492188 261.707031 262.574219 C 262.390625 262.65625 263.066406 262.816406 263.730469 263.054688 C 264.394531 263.292969 265.035156 263.605469 265.652344 263.992188 C 266.269531 264.378906 266.851562 264.832031 267.398438 265.355469 C 267.945312 265.875 268.449219 266.449219 268.902344 267.082031 C 269.359375 267.714844 269.761719 268.390625 270.109375 269.113281 C 270.457031 269.835938 270.742188 270.585938 270.964844 271.371094 C 271.191406 272.152344 271.351562 272.949219 271.445312 273.761719 Z M 271.445312 273.761719 " fill-opacity="1" fill-rule="nonzero"/><path fill="#ffffff" d="M 113.132812 100.03125 L 116.714844 134.089844 C 116.734375 134.277344 116.597656 134.429688 116.398438 134.429688 L 80.113281 134.429688 C 79.925781 134.429688 79.753906 134.277344 79.734375 134.089844 L 75.175781 90.730469 C 75.152344 90.53125 75.292969 90.378906 75.476562 90.378906 L 103.371094 90.378906 C 103.46875 90.378906 103.5625 90.421875 103.636719 90.5 L 103.757812 90.621094 L 112.601562 99.382812 L 113.019531 99.800781 C 113.082031 99.867188 113.125 99.953125 113.132812 100.03125 Z M 113.132812 100.03125 " fill-opacity="1" fill-rule="nonzero"/><path fill="#eeeae7" d="M 112.601562 99.382812 L 104.824219 99.382812 C 104.625 99.382812 104.457031 99.230469 104.433594 99.042969 L 103.582031 90.941406 C 103.570312 90.796875 103.644531 90.6875 103.757812 90.621094 Z M 112.601562 99.382812 " fill-opacity="1" fill-rule="nonzero"/><path fill="#ffcf57" d="M 162.722656 100.03125 L 166.304688 134.089844 C 166.324219 134.277344 166.1875 134.429688 165.988281 134.429688 L 129.699219 134.429688 C 129.515625 134.429688 129.34375 134.277344 129.324219 134.089844 L 124.765625 90.730469 C 124.746094 90.535156 124.882812 90.382812 125.066406 90.382812 L 152.960938 90.382812 C 153.058594 90.382812 153.152344 90.425781 153.226562 90.503906 L 153.347656 90.625 L 162.191406 99.386719 L 162.609375 99.800781 C 162.671875 99.867188 162.710938 99.953125 162.722656 100.03125 Z M 162.722656 100.03125 " fill-opacity="1" fill-rule="nonzero"/><path fill="#ff9d5a" d="M 162.191406 99.382812 L 154.414062 99.382812 C 154.214844 99.382812 154.046875 99.230469 154.027344 99.042969 L 153.171875 90.941406 C 153.160156 90.796875 153.234375 90.6875 153.351562 90.621094 Z M 162.191406 99.382812 " fill-opacity="1" fill-rule="nonzero"/><path fill="#ffffff" d="M 212.308594 100.03125 L 215.894531 134.089844 C 215.914062 134.277344 215.777344 134.429688 215.578125 134.429688 L 179.289062 134.429688 C 179.101562 134.429688 178.933594 134.277344 178.914062 134.089844 L 174.351562 90.730469 C 174.332031 90.535156 174.46875 90.382812 174.65625 90.382812 L 202.550781 90.382812 C 202.648438 90.382812 202.742188 90.425781 202.8125 90.503906 L 202.9375 90.625 L 211.78125 99.386719 L 212.199219 99.800781 C 212.257812 99.867188 212.300781 99.953125 212.308594 100.03125 Z M 212.308594 100.03125 " fill-opacity="1" fill-rule="nonzero"/><path fill="#eeeae7" d="M 211.78125 99.382812 L 204 99.382812 C 203.804688 99.382812 203.636719 99.230469 203.613281 99.042969 L 202.761719 90.941406 C 202.746094 90.796875 202.824219 90.6875 202.9375 90.621094 Z M 211.78125 99.382812 " fill-opacity="1" fill-rule="nonzero"/><path fill="#ffcf57" d="M 261.898438 100.03125 L 265.480469 134.089844 C 265.5 134.277344 265.363281 134.429688 265.167969 134.429688 L 228.878906 134.429688 C 228.691406 134.429688 228.523438 134.277344 228.503906 134.089844 L 223.941406 90.730469 C 223.921875 90.535156 224.058594 90.382812 224.246094 90.382812 L 252.140625 90.382812 C 252.238281 90.382812 252.328125 90.425781 252.402344 90.503906 L 252.527344 90.625 L 261.371094 99.386719 L 261.785156 99.800781 C 261.847656 99.867188 261.890625 99.953125 261.898438 100.03125 Z M 261.898438 100.03125 " fill-opacity="1" fill-rule="nonzero"/><path fill="#ff9d5a" d="M 261.371094 99.382812 L 253.589844 99.382812 C 253.394531 99.382812 253.222656 99.230469 253.203125 99.042969 L 252.351562 90.941406 C 252.335938 90.796875 252.410156 90.6875 252.527344 90.621094 Z M 261.371094 99.382812 " fill-opacity="1" fill-rule="nonzero"/><path fill="#ffffff" d="M 119.257812 158.269531 L 122.839844 192.328125 C 122.859375 192.515625 122.722656 192.667969 122.523438 192.667969 L 86.238281 192.667969 C 86.050781 192.667969 85.878906 192.515625 85.863281 192.328125 L 81.300781 148.96875 C 81.28125 148.773438 81.417969 148.621094 81.605469 148.621094 L 109.496094 148.621094 C 109.59375 148.621094 109.6875 148.664062 109.761719 148.742188 L 109.882812 148.863281 L 118.730469 157.625 L 119.144531 158.042969 C 119.207031 158.105469 119.25 158.191406 119.257812 158.269531 Z M 119.257812 158.269531 " fill-opacity="1" fill-rule="nonzero"/><path fill="#eeeae7" d="M 118.726562 157.621094 L 110.949219 157.621094 C 110.75 157.621094 110.582031 157.46875 110.5625 157.285156 L 109.707031 149.179688 C 109.695312 149.035156 109.769531 148.925781 109.882812 148.863281 Z M 118.726562 157.621094 " fill-opacity="1" fill-rule="nonzero"/><path fill="#ffffff" d="M 168.847656 158.269531 L 172.429688 192.328125 C 172.449219 192.515625 172.3125 192.667969 172.113281 192.667969 L 135.824219 192.667969 C 135.640625 192.667969 135.46875 192.515625 135.449219 192.328125 L 130.890625 148.96875 C 130.871094 148.773438 131.007812 148.621094 131.191406 148.621094 L 159.085938 148.621094 C 159.183594 148.621094 159.277344 148.664062 159.351562 148.742188 L 159.472656 148.863281 L 168.316406 157.625 L 168.734375 158.042969 C 168.796875 158.105469 168.835938 158.191406 168.847656 158.269531 Z M 168.847656 158.269531 " fill-opacity="1" fill-rule="nonzero"/><path fill="#eeeae7" d="M 168.316406 157.621094 L 160.539062 157.621094 C 160.339844 157.621094 160.171875 157.46875 160.152344 157.285156 L 159.296875 149.179688 C 159.285156 149.035156 159.359375 148.925781 159.472656 148.863281 Z M 168.316406 157.621094 " fill-opacity="1" fill-rule="nonzero"/><path fill="#ffffff" d="M 218.433594 158.269531 L 222.019531 192.328125 C 222.039062 192.515625 221.902344 192.667969 221.703125 192.667969 L 185.414062 192.667969 C 185.230469 192.667969 185.058594 192.515625 185.039062 192.328125 L 180.480469 148.96875 C 180.457031 148.773438 180.59375 148.621094 180.78125 148.621094 L 208.675781 148.621094 C 208.773438 148.621094 208.867188 148.664062 208.941406 148.742188 L 209.0625 148.863281 L 217.90625 157.625 L 218.324219 158.042969 C 218.382812 158.105469 218.425781 158.191406 218.433594 158.269531 Z M 218.433594 158.269531 " fill-opacity="1" fill-rule="nonzero"/><path fill="#eeeae7" d="M 217.90625 157.621094 L 210.128906 157.621094 C 209.929688 157.621094 209.761719 157.46875 209.738281 157.285156 L 208.886719 149.179688 C 208.875 149.035156 208.949219 148.925781 209.0625 148.863281 Z M 217.90625 157.621094 " fill-opacity="1" fill-rule="nonzero"/><path fill="#ffffff" d="M 402.082031 175.605469 L 405.664062 209.664062 C 405.6875 209.851562 405.546875 210.003906 405.351562 210.003906 L 369.0625 210.003906 C 368.875 210.003906 368.707031 209.851562 368.6875 209.664062 L 364.125 166.304688 C 364.105469 166.105469 364.242188 165.953125 364.429688 165.953125 L 392.324219 165.953125 C 392.421875 165.953125 392.511719 165.996094 392.585938 166.074219 L 392.710938 166.195312 L 401.554688 174.957031 L 401.96875 175.375 C 402.035156 175.4375 402.074219 175.527344 402.082031 175.605469 Z M 402.082031 175.605469 " fill-opacity="1" fill-rule="nonzero"/><path fill="#eeeae7" d="M 401.554688 174.957031 L 393.773438 174.957031 C 393.578125 174.957031 393.40625 174.804688 393.386719 174.617188 L 392.535156 166.515625 C 392.519531 166.371094 392.597656 166.261719 392.710938 166.195312 Z M 401.554688 174.957031 " fill-opacity="1" fill-rule="nonzero"/><path fill="#ffffff" d="M 446.214844 251.753906 L 71.804688 251.753906 L 69.03125 225.859375 L 442.703125 225.859375 Z M 446.214844 251.753906 " fill-opacity="1" fill-rule="nonzero"/><path fill="#7caffe" d="M 111.5 237.78125 C 111.5 238.335938 111.441406 238.886719 111.320312 239.429688 C 111.203125 239.972656 111.027344 240.5 110.792969 241.011719 C 110.558594 241.527344 110.269531 242.011719 109.929688 242.472656 C 109.589844 242.933594 109.203125 243.359375 108.773438 243.753906 C 108.339844 244.144531 107.867188 244.496094 107.359375 244.804688 C 106.851562 245.113281 106.3125 245.371094 105.75 245.585938 C 105.183594 245.796875 104.601562 245.957031 104 246.066406 C 103.398438 246.171875 102.792969 246.226562 102.183594 246.226562 C 101.570312 246.226562 100.964844 246.171875 100.363281 246.066406 C 99.761719 245.957031 99.179688 245.796875 98.617188 245.585938 C 98.050781 245.371094 97.511719 245.113281 97.003906 244.804688 C 96.496094 244.496094 96.023438 244.144531 95.59375 243.753906 C 95.160156 243.359375 94.773438 242.933594 94.433594 242.472656 C 94.09375 242.011719 93.804688 241.527344 93.570312 241.011719 C 93.335938 240.5 93.160156 239.972656 93.042969 239.429688 C 92.921875 238.886719 92.863281 238.335938 92.863281 237.78125 C 92.863281 237.226562 92.921875 236.675781 93.042969 236.132812 C 93.160156 235.589844 93.335938 235.0625 93.570312 234.550781 C 93.804688 234.035156 94.09375 233.550781 94.433594 233.089844 C 94.773438 232.628906 95.160156 232.203125 95.59375 231.808594 C 96.023438 231.417969 96.496094 231.066406 97.003906 230.757812 C 97.511719 230.449219 98.050781 230.191406 98.617188 229.976562 C 99.179688 229.765625 99.761719 229.605469 100.363281 229.496094 C 100.964844 229.390625 101.570312 229.335938 102.183594 229.335938 C 102.792969 229.335938 103.398438 229.390625 104 229.496094 C 104.601562 229.605469 105.183594 229.765625 105.75 229.980469 C 106.3125 230.191406 106.851562 230.449219 107.359375 230.757812 C 107.867188 231.066406 108.339844 231.417969 108.773438 231.808594 C 109.203125 232.203125 109.589844 232.628906 109.929688 233.089844 C 110.269531 233.550781 110.558594 234.035156 110.792969 234.550781 C 111.027344 235.0625 111.203125 235.589844 111.320312 236.132812 C 111.441406 236.675781 111.5 237.226562 111.5 237.78125 Z M 111.5 237.78125 " fill-opacity="1" fill-rule="nonzero"/><path fill="#ffffff" d="M 318.648438 119.21875 C 307.996094 136.722656 297.347656 154.226562 286.699219 171.730469 C 285.246094 174.121094 288.992188 176.296875 290.4375 173.917969 C 301.089844 156.414062 311.738281 138.90625 322.390625 121.402344 C 323.84375 119.015625 320.09375 116.835938 318.648438 119.21875 Z M 318.648438 119.21875 " fill-opacity="1" fill-rule="nonzero"/><path fill="#ffffff" d="M 355.417969 100.390625 C 350.796875 107.988281 346.175781 115.585938 341.554688 123.179688 C 340.101562 125.566406 343.847656 127.746094 345.296875 125.367188 C 349.917969 117.769531 354.539062 110.171875 359.160156 102.578125 C 360.613281 100.191406 356.867188 98.011719 355.417969 100.390625 Z M 355.417969 100.390625 " fill-opacity="1" fill-rule="nonzero"/><path fill="#3c4664" d="M 188.011719 402.132812 C 221.554688 402.132812 255.097656 402.132812 288.636719 402.132812 C 298.136719 402.132812 307.632812 402.132812 317.128906 402.132812 C 319.917969 402.132812 319.925781 397.800781 317.128906 397.800781 C 283.589844 397.800781 250.046875 397.800781 216.503906 397.800781 C 207.007812 397.800781 197.507812 397.800781 188.011719 397.800781 C 185.222656 397.800781 185.21875 402.132812 188.011719 402.132812 Z M 188.011719 402.132812 " fill-opacity="1" fill-rule="nonzero"/><path fill="#3c4664" d="M 221.570312 385.226562 C 232.601562 385.226562 243.632812 385.226562 254.664062 385.226562 C 257.453125 385.226562 257.457031 380.894531 254.664062 380.894531 C 243.632812 380.894531 232.601562 380.894531 221.570312 380.894531 C 218.78125 380.894531 218.777344 385.226562 221.570312 385.226562 Z M 221.570312 385.226562 " fill-opacity="1" fill-rule="nonzero"/><path fill="#3c4664" d="M 86.964844 285.085938 C 119.769531 285.308594 152.574219 285.53125 185.375 285.753906 C 194.714844 285.820312 204.050781 285.882812 213.390625 285.945312 C 216.179688 285.964844 216.183594 281.632812 213.390625 281.613281 C 180.585938 281.390625 147.785156 281.167969 114.980469 280.945312 C 105.644531 280.882812 96.304688 280.816406 86.964844 280.753906 C 84.175781 280.734375 84.175781 285.066406 86.964844 285.085938 Z M 86.964844 285.085938 " fill-opacity="1" fill-rule="nonzero"/><path fill="#3c4664" d="M 220.453125 286.007812 C 224.171875 286.007812 227.890625 286.007812 231.609375 286.007812 C 232.742188 286.007812 233.828125 285.011719 233.777344 283.84375 C 233.722656 282.671875 232.824219 281.679688 231.609375 281.679688 C 227.890625 281.679688 224.171875 281.679688 220.453125 281.679688 C 219.320312 281.679688 218.234375 282.675781 218.285156 283.84375 C 218.339844 285.015625 219.238281 286.007812 220.453125 286.007812 Z M 220.453125 286.007812 " fill-opacity="1" fill-rule="nonzero"/><path fill="#3c4664" d="M 306.71875 284.894531 C 341.601562 284.894531 376.480469 284.894531 411.363281 284.894531 C 421.226562 284.894531 431.089844 284.894531 440.953125 284.894531 C 443.742188 284.894531 443.746094 280.5625 440.953125 280.5625 C 406.074219 280.5625 371.191406 280.5625 336.308594 280.5625 C 326.445312 280.5625 316.582031 280.5625 306.71875 280.5625 C 303.929688 280.5625 303.925781 284.894531 306.71875 284.894531 Z M 306.71875 284.894531 " fill-opacity="1" fill-rule="nonzero"/><path fill="#2f374f" d="M 73.804688 434.804688 L 442.589844 431.71875 C 452.121094 431.636719 461.988281 435.84375 466.753906 442.011719 L 509.957031 497.957031 C 516.847656 506.878906 510.351562 515.929688 496.707031 516.414062 L 105.292969 530.324219 C 93.082031 530.757812 80.542969 524.058594 77.976562 515.730469 L 57.402344 448.964844 C 55 441.175781 62.273438 434.902344 73.804688 434.804688 Z M 73.804688 434.804688 " fill-opacity="1" fill-rule="nonzero"/><path fill="#555e7c" d="M 504.171875 507.132812 L 112.753906 521.042969 C 100.546875 521.484375 88 514.777344 85.441406 506.449219 L 64.859375 439.683594 C 62.46875 431.898438 69.730469 425.621094 81.269531 425.527344 L 450.054688 422.4375 C 459.585938 422.359375 469.453125 426.5625 474.210938 432.738281 L 517.417969 488.679688 C 524.304688 497.601562 517.808594 506.648438 504.171875 507.132812 Z M 504.171875 507.132812 " fill-opacity="1" fill-rule="nonzero"/><path fill="#8891a8" d="M 413.097656 460.640625 L 405.199219 444.597656 L 368.722656 445.101562 L 376.746094 461.324219 Z M 413.097656 460.640625 " fill-opacity="1" fill-rule="nonzero"/><path fill="#8891a8" d="M 364.289062 445.164062 L 325.882812 445.695312 L 333.421875 462.136719 L 372.324219 461.40625 Z M 364.289062 445.164062 " fill-opacity="1" fill-rule="nonzero"/><path fill="#8891a8" d="M 338.964844 483.933594 L 330.421875 465.304688 L 293.15625 466 L 301.222656 485.03125 Z M 338.964844 483.933594 " fill-opacity="1" fill-rule="nonzero"/><path fill="#8891a8" d="M 423.355469 481.484375 L 414.613281 463.722656 L 378.269531 464.40625 L 387.238281 482.535156 Z M 423.355469 481.484375 " fill-opacity="1" fill-rule="nonzero"/><path fill="#8891a8" d="M 408.113281 441.453125 L 436.519531 441.058594 L 431.566406 432.660156 L 403.898438 432.894531 Z M 408.113281 441.453125 " fill-opacity="1" fill-rule="nonzero"/><path fill="#8891a8" d="M 459.734375 480.429688 L 449.5 463.070312 L 419.035156 463.640625 L 427.753906 481.355469 Z M 459.734375 480.429688 " fill-opacity="1" fill-rule="nonzero"/><path fill="#8891a8" d="M 329.007812 462.21875 L 321.457031 445.757812 L 284.789062 446.265625 L 291.847656 462.917969 Z M 329.007812 462.21875 " fill-opacity="1" fill-rule="nonzero"/><path fill="#8891a8" d="M 367.199219 442.019531 L 403.683594 441.515625 L 399.457031 432.929688 L 362.855469 433.238281 Z M 367.199219 442.019531 " fill-opacity="1" fill-rule="nonzero"/><path fill="#8891a8" d="M 409.632812 444.535156 L 417.519531 460.558594 L 447.6875 459.996094 L 438.335938 444.136719 Z M 409.632812 444.535156 " fill-opacity="1" fill-rule="nonzero"/><path fill="#8891a8" d="M 253.273438 486.425781 L 244.308594 466.917969 L 204.9375 467.65625 L 213.609375 487.574219 Z M 253.273438 486.425781 " fill-opacity="1" fill-rule="nonzero"/><path fill="#8891a8" d="M 209.21875 487.703125 L 200.527344 467.738281 L 164.242188 468.417969 L 172.238281 488.777344 Z M 209.21875 487.703125 " fill-opacity="1" fill-rule="nonzero"/><path fill="#8891a8" d="M 190.402344 444.472656 L 186.15625 434.714844 L 151.125 435.007812 L 155.03125 444.960938 Z M 190.402344 444.472656 " fill-opacity="1" fill-rule="nonzero"/><path fill="#8891a8" d="M 452.148438 459.910156 L 479.714844 459.394531 L 467.621094 443.730469 L 442.808594 444.074219 Z M 452.148438 459.910156 " fill-opacity="1" fill-rule="nonzero"/><path fill="#8891a8" d="M 111.480469 448.667969 L 82.167969 449.078125 L 87.613281 466.746094 L 117.824219 466.179688 Z M 111.480469 448.667969 " fill-opacity="1" fill-rule="nonzero"/><path fill="#8891a8" d="M 156.246094 448.050781 L 163.03125 465.332031 L 199.1875 464.65625 L 191.742188 447.558594 Z M 156.246094 448.050781 " fill-opacity="1" fill-rule="nonzero"/><path fill="#8891a8" d="M 280.371094 446.328125 L 239.5625 446.894531 L 247.308594 463.753906 L 287.4375 463 Z M 280.371094 446.328125 " fill-opacity="1" fill-rule="nonzero"/><path fill="#8891a8" d="M 324.46875 442.613281 L 362.765625 442.082031 L 358.40625 433.273438 L 320.332031 433.59375 Z M 324.46875 442.613281 " fill-opacity="1" fill-rule="nonzero"/><path fill="#8891a8" d="M 235.136719 446.953125 L 196.164062 447.496094 L 203.597656 464.570312 L 242.894531 463.835938 Z M 235.136719 446.953125 " fill-opacity="1" fill-rule="nonzero"/><path fill="#8891a8" d="M 296.832031 485.160156 L 288.746094 466.082031 L 248.726562 466.835938 L 257.667969 486.296875 Z M 296.832031 485.160156 " fill-opacity="1" fill-rule="nonzero"/><path fill="#8891a8" d="M 382.835938 482.660156 L 373.847656 464.488281 L 334.835938 465.21875 L 343.359375 483.808594 Z M 382.835938 482.660156 " fill-opacity="1" fill-rule="nonzero"/><path fill="#8891a8" d="M 424.871094 484.5625 L 388.761719 485.609375 L 396.273438 500.800781 L 432.234375 499.519531 Z M 424.871094 484.5625 " fill-opacity="1" fill-rule="nonzero"/><path fill="#8891a8" d="M 461.546875 483.496094 L 429.269531 484.433594 L 436.621094 499.367188 L 470.199219 498.171875 Z M 461.546875 483.496094 " fill-opacity="1" fill-rule="nonzero"/><path fill="#8891a8" d="M 482.082031 462.457031 L 453.960938 462.984375 L 464.167969 480.296875 L 495.164062 479.398438 Z M 482.082031 462.457031 " fill-opacity="1" fill-rule="nonzero"/><path fill="#8891a8" d="M 497.523438 482.453125 L 465.980469 483.367188 L 474.617188 498.015625 L 500.183594 497.109375 C 502.414062 497.027344 504.160156 496.296875 504.96875 495.097656 C 505.464844 494.367188 505.804688 493.179688 504.636719 491.664062 Z M 497.523438 482.453125 " fill-opacity="1" fill-rule="nonzero"/><path fill="#ffffff" d="M 440.992188 440.996094 L 465.25 440.660156 L 461.433594 435.71875 C 460.039062 433.917969 457.085938 432.617188 454.082031 432.488281 C 453.882812 432.480469 453.6875 432.476562 453.488281 432.480469 L 436.054688 432.625 Z M 440.992188 440.996094 " fill-opacity="1" fill-rule="nonzero"/><path fill="#8891a8" d="M 127.617188 493.195312 L 96.042969 494.109375 L 99.882812 506.566406 C 100.589844 508.859375 104.167969 510.851562 107.863281 511.011719 C 108.164062 511.023438 108.46875 511.023438 108.769531 511.011719 L 133.753906 510.125 Z M 127.617188 493.195312 " fill-opacity="1" fill-rule="nonzero"/><path fill="#8891a8" d="M 110.359375 445.582031 L 106.664062 435.378906 L 84.703125 435.5625 C 80.957031 435.597656 78.585938 437.457031 79.308594 439.800781 L 81.214844 445.984375 Z M 110.359375 445.582031 " fill-opacity="1" fill-rule="nonzero"/><path fill="#8891a8" d="M 114.773438 445.519531 L 150.621094 445.023438 L 146.703125 435.046875 L 111.082031 435.34375 Z M 114.773438 445.519531 " fill-opacity="1" fill-rule="nonzero"/><path fill="#8891a8" d="M 194.820312 444.410156 L 233.722656 443.871094 L 229.347656 434.355469 L 190.582031 434.675781 Z M 194.820312 444.410156 " fill-opacity="1" fill-rule="nonzero"/><path fill="#8891a8" d="M 283.480469 443.179688 L 320.042969 442.675781 L 315.898438 433.628906 L 279.558594 433.933594 Z M 283.480469 443.179688 " fill-opacity="1" fill-rule="nonzero"/><path fill="#8891a8" d="M 118.945312 469.269531 L 88.566406 469.839844 L 95.089844 491.019531 L 126.5 490.105469 Z M 118.945312 469.269531 " fill-opacity="1" fill-rule="nonzero"/><path fill="#8891a8" d="M 238.144531 443.808594 L 279.0625 443.242188 L 275.128906 433.96875 L 233.785156 434.316406 Z M 238.144531 443.808594 " fill-opacity="1" fill-rule="nonzero"/><path fill="#8891a8" d="M 210.5625 490.785156 L 173.449219 491.863281 L 179.976562 508.484375 L 217.683594 507.144531 Z M 210.5625 490.785156 " fill-opacity="1" fill-rule="nonzero"/><path fill="#8891a8" d="M 158.625 465.414062 L 151.832031 448.109375 L 115.890625 448.609375 L 122.230469 466.097656 Z M 158.625 465.414062 " fill-opacity="1" fill-rule="nonzero"/><path fill="#8891a8" d="M 169.0625 491.992188 L 132.003906 493.066406 L 138.132812 509.972656 L 175.597656 508.640625 Z M 169.0625 491.992188 " fill-opacity="1" fill-rule="nonzero"/><path fill="#8891a8" d="M 167.847656 488.90625 L 159.835938 468.503906 L 123.351562 469.1875 L 130.886719 489.976562 Z M 167.847656 488.90625 " fill-opacity="1" fill-rule="nonzero"/><path fill="#8891a8" d="M 217.832031 490.585938 L 382.191406 485.644531 C 383.375 485.605469 384.601562 486.230469 384.984375 487.058594 L 390.082031 498.082031 C 390.488281 498.964844 389.785156 499.742188 388.53125 499.792969 L 224.359375 506.53125 C 223.136719 506.582031 221.863281 505.925781 221.507812 505.0625 L 216.222656 492.242188 C 215.867188 491.371094 216.589844 490.621094 217.832031 490.585938 Z M 217.832031 490.585938 " fill-opacity="1" fill-rule="nonzero"/><path fill="#555e7c" d="M 508.183594 442.289062 C 503.609375 434.367188 502.632812 424.757812 506.019531 416.261719 C 508.703125 409.53125 514.160156 403.082031 525.136719 401.871094 C 549.527344 399.179688 586.195312 420.203125 587.875 445.664062 C 589.558594 471.125 554.570312 486.339844 533.378906 470.832031 C 520.851562 461.664062 512.730469 450.160156 508.183594 442.289062 Z M 508.183594 442.289062 " fill-opacity="1" fill-rule="nonzero"/><path fill="#2f374f" d="M 587.875 445.664062 C 587.46875 439.46875 584.972656 433.539062 581.101562 428.148438 C 579.398438 447.058594 551.820312 460.175781 532.378906 450.039062 C 519.746094 443.453125 511.003906 434.375 505.96875 428.050781 C 505.265625 427.167969 504.632812 426.246094 504.054688 425.300781 C 503.738281 431.160156 505.179688 437.085938 508.183594 442.289062 C 512.726562 450.160156 520.847656 461.664062 533.375 470.832031 C 554.574219 486.339844 589.558594 471.125 587.875 445.664062 Z M 587.875 445.664062 " fill-opacity="1" fill-rule="nonzero"/><path fill="#8891a8" d="M 541.238281 416.542969 C 541.5625 416.769531 542.003906 416.777344 542.332031 416.554688 C 549.566406 411.644531 554.117188 409.855469 554.175781 409.835938 C 554.179688 409.835938 554.179688 409.835938 554.175781 409.835938 C 554.0625 409.769531 537.570312 399.984375 522.726562 404.695312 C 521.871094 404.964844 521.855469 406.179688 522.699219 406.488281 C 527.65625 408.304688 533.933594 411.378906 541.238281 416.542969 Z M 541.238281 416.542969 " fill-opacity="1" fill-rule="nonzero"/><path fill="#8891a8" d="M 516.507812 408.0625 C 516.230469 407.996094 515.949219 408.050781 515.71875 408.214844 C 514.695312 408.953125 513.699219 409.789062 512.734375 410.742188 C 512.734375 410.742188 506.023438 415.734375 507.511719 422.4375 C 508.800781 428.246094 522.105469 434.730469 525.625 436.355469 C 526.09375 436.570312 526.644531 436.375 526.871094 435.914062 C 528.160156 433.3125 532.453125 425.144531 538.113281 419.828125 C 538.5625 419.40625 538.519531 418.675781 538.007812 418.328125 C 528.71875 412.011719 521.316406 409.257812 516.507812 408.0625 Z M 516.507812 408.0625 " fill-opacity="1" fill-rule="nonzero"/><path fill="#ffffff" d="M 536.34375 411.816406 L 526.660156 407.160156 C 525.679688 406.6875 524.507812 406.867188 523.714844 407.609375 C 522.492188 408.757812 522.632812 410.738281 524.007812 411.695312 L 532.824219 417.839844 C 534.4375 418.964844 536.664062 418.535156 537.75 416.894531 C 538.914062 415.125 538.253906 412.734375 536.34375 411.816406 Z M 536.34375 411.816406 " fill-opacity="1" fill-rule="nonzero"/><path fill="#eeeae7" d="M 6.648438 447.808594 L 4.761719 433.734375 C 4.53125 432.03125 5.847656 430.515625 7.566406 430.496094 L 19.515625 430.371094 C 20.851562 430.355469 22.019531 431.265625 22.328125 432.566406 L 25.796875 447.160156 Z M 6.648438 447.808594 " fill-opacity="1" fill-rule="nonzero"/><g clip-path="url(#4158c976b6)"><path fill="#555e7c" d="M 37.191406 479.582031 L 21.777344 480.6875 C 21.648438 480.6875 21.503906 480.707031 21.375 480.730469 L 21.363281 480.742188 L 13.804688 482.160156 C 11.882812 482.523438 10.628906 484.320312 10.933594 486.242188 L 16.230469 519.4375 L 11.71875 519.4375 C 10.964844 519.4375 10.234375 519.339844 9.546875 519.152344 C 5.886719 518.222656 3.132812 514.972656 2.992188 511.03125 L 0.839844 452.109375 C 0.664062 447.175781 4.617188 443.074219 9.566406 443.074219 L 22.882812 443.074219 C 27.054688 443.074219 30.648438 446.03125 31.445312 450.125 L 35.925781 473.101562 Z M 37.191406 479.582031 " fill-opacity="1" fill-rule="nonzero"/></g><g clip-path="url(#45857c9975)"><path fill="#ffcf57" d="M 58.347656 518.410156 L 49.128906 480.617188 C 47.960938 475.804688 43.527344 472.554688 38.566406 472.914062 L 35.925781 473.097656 L 21.308594 474.148438 C 20.917969 474.179688 20.535156 474.222656 20.152344 474.300781 L 12.59375 475.730469 C 7.164062 476.757812 3.59375 481.820312 4.464844 487.277344 L 9.546875 519.152344 L 10.714844 526.453125 C 11.5 531.410156 15.835938 534.992188 20.730469 534.992188 C 21.210938 534.992188 21.703125 534.957031 22.191406 534.882812 L 49.960938 530.820312 C 52.777344 530.417969 55.3125 528.824219 56.894531 526.464844 C 58.488281 524.109375 59.015625 521.171875 58.347656 518.410156 Z M 51.464844 522.796875 C 50.898438 523.648438 50.023438 524.195312 49.007812 524.347656 L 21.242188 528.410156 C 19.308594 528.695312 17.496094 527.351562 17.179688 525.429688 L 16.226562 519.4375 L 10.929688 486.242188 C 10.625 484.320312 11.882812 482.523438 13.804688 482.160156 L 21.363281 480.742188 L 21.375 480.730469 C 21.503906 480.707031 21.648438 480.6875 21.777344 480.6875 L 37.1875 479.582031 L 39.023438 479.453125 C 39.113281 479.441406 39.199219 479.441406 39.285156 479.441406 C 40.925781 479.441406 42.367188 480.554688 42.757812 482.167969 L 51.976562 519.960938 C 52.21875 520.941406 52.035156 521.957031 51.464844 522.796875 Z M 51.464844 522.796875 " fill-opacity="1" fill-rule="nonzero"/></g><path fill="#2f374f" d="M 34.363281 519.4375 L 16.230469 519.4375 L 10.933594 486.242188 C 10.625 484.320312 11.882812 482.519531 13.804688 482.160156 L 21.363281 480.738281 L 21.375 480.730469 C 21.503906 480.707031 21.648438 480.683594 21.777344 480.683594 L 37.191406 479.582031 L 42.925781 509.042969 C 43.972656 514.4375 39.84375 519.4375 34.363281 519.4375 Z M 34.363281 519.4375 " fill-opacity="1" fill-rule="nonzero"/><path fill="#8891a8" d="M 37.511719 480.179688 C 37.511719 480.824219 37.429688 481.460938 37.273438 482.089844 C 37.113281 482.722656 36.878906 483.335938 36.570312 483.929688 C 36.257812 484.523438 35.878906 485.089844 35.425781 485.621094 C 34.976562 486.15625 34.464844 486.652344 33.890625 487.109375 C 33.316406 487.5625 32.691406 487.96875 32.015625 488.324219 C 31.339844 488.683594 30.628906 488.984375 29.878906 489.230469 C 29.128906 489.476562 28.355469 489.664062 27.558594 489.789062 C 26.761719 489.914062 25.960938 489.976562 25.148438 489.976562 C 24.335938 489.976562 23.53125 489.914062 22.734375 489.789062 C 21.9375 489.664062 21.167969 489.476562 20.417969 489.230469 C 19.667969 488.984375 18.953125 488.683594 18.277344 488.324219 C 17.605469 487.96875 16.980469 487.5625 16.40625 487.109375 C 15.832031 486.652344 15.320312 486.15625 14.867188 485.621094 C 14.417969 485.089844 14.035156 484.523438 13.726562 483.929688 C 13.414062 483.335938 13.179688 482.722656 13.023438 482.089844 C 12.863281 481.460938 12.785156 480.824219 12.785156 480.179688 C 12.785156 479.535156 12.863281 478.898438 13.023438 478.269531 C 13.179688 477.636719 13.414062 477.023438 13.726562 476.429688 C 14.035156 475.835938 14.417969 475.273438 14.867188 474.738281 C 15.320312 474.203125 15.832031 473.707031 16.40625 473.253906 C 16.980469 472.796875 17.605469 472.390625 18.277344 472.035156 C 18.953125 471.675781 19.667969 471.375 20.417969 471.128906 C 21.167969 470.882812 21.9375 470.695312 22.734375 470.570312 C 23.53125 470.445312 24.335938 470.382812 25.148438 470.382812 C 25.960938 470.382812 26.761719 470.445312 27.558594 470.570312 C 28.355469 470.695312 29.128906 470.882812 29.878906 471.128906 C 30.628906 471.375 31.339844 471.675781 32.015625 472.035156 C 32.691406 472.390625 33.316406 472.796875 33.890625 473.253906 C 34.464844 473.707031 34.976562 474.203125 35.425781 474.738281 C 35.878906 475.273438 36.257812 475.835938 36.570312 476.429688 C 36.878906 477.023438 37.113281 477.636719 37.273438 478.269531 C 37.429688 478.898438 37.511719 479.535156 37.511719 480.179688 Z M 37.511719 480.179688 " fill-opacity="1" fill-rule="nonzero"/></svg>