<svg xmlns="http://www.w3.org/2000/svg" xmlns:xlink="http://www.w3.org/1999/xlink" width="794" zoomAndPan="magnify" viewBox="0 0 594.95996 595.499999" height="794" preserveAspectRatio="xMidYMid meet" version="1.0"><defs><clipPath id="ba8163bba8"><path d="M 33 203 L 282 203 L 282 510.371094 L 33 510.371094 Z M 33 203 " clip-rule="nonzero"/></clipPath><clipPath id="4e7d34630a"><path d="M 34 272 L 282 272 L 282 510.371094 L 34 510.371094 Z M 34 272 " clip-rule="nonzero"/></clipPath><clipPath id="a70497fa37"><path d="M 147 75.734375 L 551 75.734375 L 551 454 L 147 454 Z M 147 75.734375 " clip-rule="nonzero"/></clipPath></defs><g clip-path="url(#ba8163bba8)"><path fill="#fff9ed" d="M 161.320312 510.242188 C 161.148438 510.207031 156.214844 505.167969 148.695312 497.335938 C 141.90625 490.269531 135.636719 483.742188 134.765625 482.835938 C 133.890625 481.929688 132.488281 480.472656 131.648438 479.597656 C 130.808594 478.722656 128.640625 476.460938 126.828125 474.578125 C 125.019531 472.691406 122.875 470.460938 122.066406 469.625 C 121.253906 468.785156 116.230469 463.554688 110.898438 458 C 105.570312 452.449219 99.921875 446.5625 98.34375 444.917969 C 96.765625 443.277344 93.28125 439.648438 90.601562 436.855469 C 87.917969 434.058594 85.058594 431.089844 84.246094 430.25 C 83.433594 429.410156 78.410156 424.183594 73.078125 418.628906 C 67.75 413.074219 62.15625 407.246094 60.644531 405.671875 C 49.984375 394.59375 46.765625 391.226562 46.613281 390.996094 C 46.5 390.832031 46.316406 389.59375 46.121094 387.691406 C 45.949219 386.019531 45.519531 381.882812 45.171875 378.492188 C 44.824219 375.105469 44.195312 369.019531 43.777344 364.964844 C 43.359375 360.914062 42.527344 352.886719 41.933594 347.121094 C 39.800781 326.390625 38.046875 309.386719 37.613281 305.207031 C 37.371094 302.867188 36.714844 296.496094 36.152344 291.046875 C 34.863281 278.5 34.308594 273.125 33.992188 270.109375 C 33.65625 266.882812 33.660156 266.617188 34.082031 266.167969 C 34.273438 265.957031 35.296875 265.378906 36.460938 264.820312 C 37.582031 264.28125 44.414062 260.953125 51.636719 257.425781 C 67.574219 249.640625 96.769531 235.386719 121.757812 223.191406 C 127.410156 220.429688 134.464844 216.988281 137.429688 215.539062 C 140.394531 214.089844 146.164062 211.277344 150.246094 209.28125 C 154.332031 207.289062 158.441406 205.28125 159.386719 204.820312 C 161.070312 203.996094 161.582031 203.859375 162.050781 204.105469 C 162.179688 204.175781 163.816406 205.933594 165.691406 208.011719 C 169.875 212.648438 177.742188 221.382812 184.835938 229.265625 C 187.765625 232.515625 192.21875 237.460938 194.734375 240.25 C 197.25 243.039062 201.929688 248.238281 205.136719 251.800781 C 208.34375 255.363281 212.511719 259.992188 214.402344 262.089844 C 219.476562 267.722656 226.625 275.652344 230.652344 280.128906 C 232.601562 282.296875 236 286.066406 238.203125 288.511719 C 240.40625 290.953125 244.601562 295.613281 247.53125 298.863281 C 252.328125 304.191406 257.160156 309.558594 267.792969 321.363281 C 270.457031 324.320312 271.339844 325.382812 271.441406 325.746094 C 271.511719 326.011719 271.714844 328.027344 271.890625 330.230469 C 272.664062 339.871094 274.144531 358.242188 274.496094 362.488281 C 274.703125 365.039062 275.304688 372.441406 275.828125 378.9375 C 276.351562 385.433594 276.921875 392.492188 277.09375 394.625 C 277.265625 396.753906 277.609375 400.953125 277.851562 403.957031 C 278.527344 412.226562 280.683594 438.941406 280.902344 441.679688 C 281.007812 443.007812 281.128906 444.472656 281.171875 444.933594 C 281.246094 445.730469 281.230469 445.792969 280.886719 446.171875 C 280.671875 446.40625 279.273438 447.238281 277.476562 448.203125 C 271.347656 451.488281 243.832031 466.28125 238.578125 469.113281 C 237.636719 469.621094 233.753906 471.707031 229.949219 473.75 C 222.574219 477.710938 220.804688 478.664062 217.195312 480.609375 C 215.9375 481.289062 214.050781 482.300781 213.003906 482.863281 C 211.957031 483.425781 209.246094 484.882812 206.976562 486.105469 C 202.84375 488.328125 192.011719 494.152344 185.59375 497.601562 C 183.707031 498.613281 181.082031 500.027344 179.753906 500.742188 C 178.429688 501.457031 174.601562 503.515625 171.25 505.3125 C 167.902344 507.113281 164.558594 508.910156 163.828125 509.308594 C 162.71875 509.910156 161.671875 510.386719 161.621094 510.3125 C 161.613281 510.300781 161.476562 510.269531 161.320312 510.242188 Z M 161.320312 510.242188 " fill-opacity="1" fill-rule="nonzero"/></g><g clip-path="url(#4e7d34630a)"><path fill="#f4eee3" d="M 161.320312 510.242188 C 161.148438 510.207031 156.214844 505.167969 148.695312 497.335938 C 141.90625 490.269531 135.636719 483.742188 134.765625 482.835938 C 133.890625 481.929688 132.488281 480.472656 131.648438 479.597656 C 130.808594 478.722656 128.640625 476.460938 126.828125 474.578125 C 125.019531 472.691406 122.875 470.460938 122.066406 469.625 C 121.253906 468.785156 116.230469 463.554688 110.898438 458 C 105.570312 452.449219 99.921875 446.5625 98.34375 444.917969 C 96.765625 443.277344 93.28125 439.648438 90.601562 436.855469 C 87.917969 434.058594 85.058594 431.089844 84.246094 430.25 C 83.433594 429.410156 78.410156 424.183594 73.078125 418.628906 C 67.75 413.074219 62.15625 407.246094 60.644531 405.671875 C 59.132812 404.101562 55.394531 400.214844 52.339844 397.035156 C 49.285156 393.859375 46.707031 391.140625 46.613281 390.996094 C 46.5 390.832031 46.316406 389.59375 46.121094 387.691406 C 45.949219 386.019531 45.519531 381.882812 45.171875 378.492188 C 44.824219 375.105469 44.195312 369.019531 43.777344 364.964844 C 43.359375 360.914062 42.527344 352.886719 41.933594 347.121094 C 41.339844 341.359375 40.226562 330.527344 39.457031 323.054688 C 38.683594 315.578125 37.855469 307.546875 37.613281 305.207031 C 37.371094 302.867188 36.714844 296.496094 36.152344 291.046875 C 35.59375 285.597656 34.933594 279.203125 34.6875 276.839844 C 34.4375 274.472656 34.265625 272.507812 34.300781 272.476562 C 34.332031 272.441406 35.179688 273.117188 36.179688 273.980469 C 37.175781 274.84375 38.792969 276.261719 39.769531 277.132812 C 40.75 278.007812 42.832031 279.894531 44.398438 281.328125 C 45.96875 282.761719 48.652344 285.25 50.363281 286.855469 C 52.074219 288.460938 55.074219 291.320312 57.03125 293.207031 C 58.984375 295.09375 61.984375 298.003906 63.691406 299.679688 C 65.402344 301.355469 68.746094 304.640625 71.117188 306.984375 C 73.488281 309.324219 79.226562 315.011719 83.867188 319.625 C 88.511719 324.234375 99.992188 335.6875 109.378906 345.074219 C 118.769531 354.460938 128.113281 363.863281 130.148438 365.96875 C 132.179688 368.070312 134.808594 370.820312 135.988281 372.078125 C 137.167969 373.335938 139.105469 375.421875 140.292969 376.714844 C 141.480469 378.007812 143.449219 380.179688 144.667969 381.542969 C 145.886719 382.902344 148.226562 385.558594 149.867188 387.441406 C 151.507812 389.324219 153.816406 391.953125 155 393.285156 C 156.183594 394.613281 157.757812 396.3125 158.5 397.054688 C 159.242188 397.796875 160.316406 398.75 160.882812 399.171875 C 161.453125 399.589844 162.332031 400.164062 162.839844 400.445312 C 163.347656 400.726562 164.078125 401.078125 164.460938 401.234375 C 164.847656 401.386719 165.53125 401.621094 165.984375 401.753906 C 166.4375 401.886719 167.296875 402.082031 167.886719 402.1875 C 168.53125 402.304688 169.742188 402.382812 170.882812 402.386719 C 172.277344 402.390625 173.242188 402.316406 174.414062 402.121094 C 175.300781 401.96875 176.636719 401.675781 177.382812 401.464844 C 178.128906 401.257812 179.617188 400.738281 180.6875 400.316406 C 181.757812 399.894531 183.984375 398.875 185.636719 398.058594 C 187.289062 397.238281 189.496094 396.089844 190.542969 395.511719 C 191.589844 394.933594 193.503906 393.828125 194.792969 393.058594 C 196.085938 392.289062 198.113281 391.058594 199.300781 390.328125 C 200.484375 389.59375 203.199219 387.910156 205.328125 386.582031 C 207.457031 385.257812 210.683594 383.253906 212.5 382.136719 C 214.3125 381.019531 217.96875 378.78125 220.621094 377.160156 C 223.273438 375.542969 226.871094 373.371094 228.617188 372.335938 C 230.359375 371.304688 233.558594 369.445312 235.722656 368.207031 C 237.886719 366.96875 240.941406 365.238281 242.511719 364.367188 C 244.082031 363.492188 247.222656 361.761719 249.492188 360.523438 C 251.761719 359.28125 255.445312 357.28125 257.679688 356.078125 C 259.914062 354.878906 262.652344 353.40625 263.769531 352.8125 C 264.886719 352.214844 266.34375 351.4375 267.007812 351.085938 C 267.667969 350.734375 269.355469 349.839844 270.75 349.101562 C 272.808594 348.011719 273.292969 347.800781 273.316406 347.980469 C 273.332031 348.101562 273.488281 350 273.664062 352.203125 C 273.839844 354.402344 274.210938 359.003906 274.492188 362.425781 C 274.769531 365.847656 275.371094 373.28125 275.828125 378.9375 C 276.285156 384.597656 276.828125 391.339844 277.039062 393.925781 C 277.246094 396.511719 277.617188 401.054688 277.859375 404.023438 C 278.101562 406.992188 278.839844 416.136719 279.503906 424.34375 C 280.167969 432.550781 280.796875 440.355469 280.902344 441.679688 C 281.007812 443.007812 281.128906 444.472656 281.171875 444.933594 C 281.246094 445.730469 281.230469 445.792969 280.886719 446.171875 C 280.671875 446.40625 279.273438 447.238281 277.476562 448.203125 C 275.800781 449.101562 272.460938 450.894531 270.050781 452.1875 C 267.644531 453.480469 261.820312 456.613281 257.109375 459.148438 C 252.394531 461.679688 246.683594 464.75 244.417969 465.972656 C 242.148438 467.191406 239.519531 468.605469 238.578125 469.113281 C 237.636719 469.621094 233.753906 471.707031 229.949219 473.75 C 226.144531 475.792969 222.230469 477.894531 221.253906 478.421875 C 220.277344 478.949219 218.449219 479.933594 217.195312 480.609375 C 215.9375 481.289062 214.050781 482.300781 213.003906 482.863281 C 211.957031 483.425781 209.246094 484.882812 206.976562 486.105469 C 204.707031 487.324219 199.738281 489.996094 195.9375 492.042969 C 192.132812 494.085938 187.476562 496.585938 185.59375 497.601562 C 183.707031 498.613281 181.082031 500.027344 179.753906 500.742188 C 178.429688 501.457031 174.601562 503.515625 171.25 505.3125 C 167.902344 507.113281 164.558594 508.910156 163.828125 509.308594 C 163.09375 509.707031 162.300781 510.101562 162.0625 510.179688 C 161.824219 510.261719 161.625 510.324219 161.621094 510.3125 C 161.613281 510.304688 161.476562 510.269531 161.320312 510.242188 Z M 256.855469 342.5625 C 256.855469 342.199219 256.867188 342.191406 257.617188 342.148438 C 258.035156 342.125 258.378906 342.117188 258.378906 342.132812 C 258.378906 342.148438 258.035156 342.335938 257.617188 342.546875 L 256.855469 342.933594 Z M 173.84375 327.359375 C 173.300781 326.800781 173.289062 326.777344 173.53125 326.597656 C 173.769531 326.425781 173.804688 326.457031 174.144531 327.128906 C 174.34375 327.519531 174.484375 327.863281 174.457031 327.890625 C 174.429688 327.917969 174.15625 327.679688 173.84375 327.359375 Z M 178.898438 317.726562 C 178.289062 317.078125 177.789062 316.519531 177.789062 316.476562 C 177.789062 316.433594 178.035156 316.484375 178.339844 316.589844 C 178.765625 316.734375 178.953125 316.894531 179.183594 317.3125 C 179.34375 317.605469 179.617188 318.089844 179.785156 318.386719 C 179.957031 318.683594 180.078125 318.917969 180.050781 318.914062 C 180.027344 318.90625 179.507812 318.371094 178.898438 317.726562 Z M 183.117188 301.441406 L 182.039062 300.34375 L 182.964844 301.082031 C 183.476562 301.488281 183.976562 301.980469 184.082031 302.179688 C 184.183594 302.378906 184.25 302.542969 184.230469 302.542969 C 184.207031 302.542969 183.707031 302.046875 183.113281 301.441406 Z M 183.117188 301.441406 " fill-opacity="1" fill-rule="nonzero"/></g><path fill="#e5e0d5" d="M 167.253906 454.761719 C 167.253906 425.808594 167.296875 402.117188 167.347656 402.117188 C 167.402344 402.117188 167.785156 402.175781 168.207031 402.25 C 168.625 402.320312 169.828125 402.382812 170.882812 402.386719 C 172.285156 402.390625 173.234375 402.316406 174.414062 402.117188 C 175.300781 401.96875 176.636719 401.675781 177.382812 401.464844 C 178.128906 401.257812 179.617188 400.738281 180.6875 400.316406 C 181.757812 399.894531 183.984375 398.875 185.636719 398.058594 C 187.289062 397.238281 189.496094 396.089844 190.542969 395.511719 C 191.589844 394.933594 193.503906 393.828125 194.792969 393.058594 C 196.085938 392.289062 198.113281 391.058594 199.300781 390.328125 C 200.484375 389.59375 203.199219 387.910156 205.328125 386.582031 C 207.457031 385.257812 210.683594 383.253906 212.5 382.136719 C 214.3125 381.019531 217.96875 378.78125 220.621094 377.160156 C 223.273438 375.542969 226.871094 373.371094 228.617188 372.335938 C 230.359375 371.304688 233.558594 369.445312 235.722656 368.207031 C 237.886719 366.96875 240.941406 365.238281 242.511719 364.367188 C 244.082031 363.492188 247.222656 361.761719 249.492188 360.519531 C 251.761719 359.28125 255.445312 357.28125 257.679688 356.078125 C 259.914062 354.878906 262.652344 353.40625 263.769531 352.8125 C 264.886719 352.214844 266.34375 351.4375 267.007812 351.085938 C 267.667969 350.730469 269.355469 349.839844 270.75 349.101562 C 272.808594 348.011719 273.292969 347.800781 273.316406 347.980469 C 273.332031 348.101562 273.488281 350 273.664062 352.203125 C 273.839844 354.402344 274.210938 359.003906 274.492188 362.425781 C 274.769531 365.847656 275.371094 373.28125 275.828125 378.9375 C 276.285156 384.597656 276.828125 391.339844 277.039062 393.925781 C 277.246094 396.511719 277.617188 401.054688 277.859375 404.023438 C 278.101562 406.992188 278.839844 416.136719 279.503906 424.34375 C 280.167969 432.550781 280.796875 440.355469 280.902344 441.679688 C 281.007812 443.007812 281.128906 444.472656 281.171875 444.933594 C 281.246094 445.730469 281.230469 445.792969 280.886719 446.171875 C 280.671875 446.40625 279.273438 447.238281 277.476562 448.203125 C 275.800781 449.101562 272.460938 450.894531 270.050781 452.1875 C 267.644531 453.480469 261.820312 456.613281 257.109375 459.144531 C 252.394531 461.679688 246.683594 464.75 244.417969 465.972656 C 242.148438 467.191406 239.519531 468.605469 238.578125 469.113281 C 237.636719 469.621094 233.753906 471.707031 229.949219 473.75 C 226.144531 475.792969 222.230469 477.894531 221.253906 478.421875 C 220.277344 478.949219 218.449219 479.933594 217.195312 480.609375 C 215.9375 481.289062 214.050781 482.300781 213.003906 482.863281 C 211.957031 483.425781 209.246094 484.882812 206.976562 486.105469 C 204.707031 487.324219 199.742188 489.996094 195.9375 492.039062 C 192.132812 494.082031 188.304688 496.140625 187.433594 496.613281 C 186.558594 497.085938 183.105469 498.945312 179.753906 500.742188 C 176.40625 502.542969 172.246094 504.777344 170.515625 505.710938 C 168.785156 506.644531 167.34375 507.410156 167.3125 507.410156 C 167.28125 507.410156 167.253906 483.71875 167.253906 454.761719 Z M 256.855469 342.5625 C 256.855469 342.199219 256.867188 342.191406 257.617188 342.148438 C 258.035156 342.125 258.378906 342.117188 258.378906 342.132812 C 258.378906 342.148438 258.035156 342.335938 257.617188 342.546875 L 256.855469 342.933594 Z M 173.84375 327.359375 C 173.300781 326.800781 173.289062 326.777344 173.53125 326.597656 C 173.769531 326.425781 173.804688 326.457031 174.144531 327.128906 C 174.34375 327.519531 174.484375 327.863281 174.457031 327.890625 C 174.429688 327.917969 174.15625 327.679688 173.84375 327.359375 Z M 178.898438 317.726562 C 178.289062 317.078125 177.789062 316.519531 177.789062 316.476562 C 177.789062 316.433594 178.035156 316.484375 178.339844 316.589844 C 178.765625 316.734375 178.953125 316.894531 179.183594 317.3125 C 179.34375 317.605469 179.617188 318.089844 179.785156 318.386719 C 179.957031 318.683594 180.078125 318.917969 180.050781 318.914062 C 180.027344 318.90625 179.507812 318.371094 178.898438 317.726562 Z M 183.117188 301.441406 L 182.039062 300.34375 L 182.964844 301.082031 C 183.476562 301.488281 183.976562 301.980469 184.082031 302.179688 C 184.183594 302.378906 184.25 302.542969 184.230469 302.542969 C 184.207031 302.542969 183.707031 302.046875 183.113281 301.441406 Z M 183.117188 301.441406 " fill-opacity="1" fill-rule="nonzero"/><path fill="#cfc6b1" d="M 246.492188 464.378906 C 246.800781 463.972656 247.566406 462.875 248.195312 461.933594 C 248.820312 460.992188 249.84375 459.367188 250.472656 458.320312 C 251.101562 457.269531 252.015625 455.671875 252.503906 454.761719 C 252.996094 453.855469 253.792969 452.3125 254.285156 451.332031 C 254.773438 450.355469 255.71875 448.328125 256.382812 446.824219 C 257.046875 445.324219 257.890625 443.351562 258.253906 442.441406 C 258.613281 441.535156 259.273438 439.777344 259.71875 438.535156 C 260.164062 437.292969 260.785156 435.4375 261.097656 434.40625 C 261.40625 433.378906 261.890625 431.648438 262.167969 430.566406 C 262.445312 429.484375 262.875 427.597656 263.121094 426.375 C 263.371094 425.152344 263.683594 423.351562 263.824219 422.375 C 263.964844 421.398438 264.171875 419.652344 264.289062 418.5 C 264.425781 417.125 264.519531 414.660156 264.5625 411.324219 C 264.609375 407.476562 264.574219 405.367188 264.414062 402.625 C 264.296875 400.632812 264.089844 397.75 263.949219 396.210938 C 263.8125 394.675781 263.585938 392.386719 263.453125 391.132812 C 263.316406 389.875 263.09375 387.585938 262.953125 386.050781 C 262.8125 384.511719 262.554688 381.253906 262.378906 378.8125 C 262.199219 376.367188 261.96875 373.507812 261.863281 372.460938 C 261.753906 371.414062 261.582031 369.953125 261.476562 369.222656 C 261.367188 368.488281 261.113281 367.03125 260.90625 365.984375 C 260.699219 364.933594 260.332031 363.335938 260.09375 362.425781 C 259.855469 361.519531 259.421875 360.03125 259.132812 359.125 C 258.84375 358.214844 258.292969 356.671875 257.90625 355.695312 C 257.523438 354.71875 256.75 352.984375 256.191406 351.847656 C 255.628906 350.707031 254.648438 348.90625 254.007812 347.847656 C 253.371094 346.785156 252.566406 345.488281 252.21875 344.960938 C 251.875 344.4375 251.195312 343.4375 250.710938 342.738281 C 250.226562 342.042969 249.425781 340.925781 248.933594 340.261719 C 248.441406 339.601562 247.613281 338.515625 247.089844 337.851562 C 246.566406 337.1875 245.328125 335.671875 244.335938 334.484375 C 243.34375 333.296875 241.492188 331.097656 240.222656 329.59375 C 238.957031 328.09375 236.648438 325.292969 235.097656 323.371094 C 233.546875 321.449219 230.664062 317.796875 228.6875 315.253906 C 226.714844 312.714844 224.457031 309.828125 223.671875 308.839844 C 222.886719 307.855469 221.710938 306.394531 221.0625 305.589844 C 220.410156 304.785156 219.105469 303.214844 218.164062 302.097656 C 217.21875 300.980469 215.613281 299.121094 214.597656 297.96875 C 213.582031 296.816406 211.753906 294.757812 210.53125 293.390625 C 209.308594 292.023438 207.109375 289.566406 205.640625 287.929688 C 204.171875 286.289062 202.136719 284.003906 201.121094 282.847656 C 200.105469 281.691406 197.851562 279.0625 196.113281 277.003906 C 194.375 274.949219 191.265625 271.238281 189.203125 268.757812 C 187.140625 266.277344 184.253906 262.789062 182.789062 261.007812 C 181.324219 259.226562 178.386719 255.65625 176.265625 253.070312 C 174.144531 250.484375 170.519531 246.113281 168.214844 243.355469 C 165.910156 240.59375 162.523438 236.546875 160.6875 234.359375 C 158.851562 232.171875 156.359375 229.144531 155.152344 227.628906 C 153.941406 226.113281 152.15625 223.816406 151.1875 222.523438 C 150.214844 221.230469 148.738281 219.183594 147.898438 217.980469 C 147.0625 216.773438 145.847656 215.03125 145.203125 214.105469 C 144.558594 213.183594 144.03125 212.394531 144.03125 212.351562 C 144.03125 212.308594 144.441406 212.082031 144.949219 211.851562 C 145.457031 211.617188 149.296875 209.75 153.484375 207.703125 C 157.957031 205.515625 161.246094 203.980469 161.457031 203.980469 C 161.652344 203.980469 161.917969 204.039062 162.050781 204.105469 C 162.179688 204.175781 163.816406 205.933594 165.691406 208.011719 C 167.566406 210.089844 171.441406 214.394531 174.304688 217.570312 C 177.167969 220.75 181.910156 226.011719 184.835938 229.265625 C 187.765625 232.515625 192.21875 237.460938 194.734375 240.25 C 197.25 243.039062 201.929688 248.238281 205.136719 251.800781 C 208.34375 255.363281 212.511719 259.992188 214.402344 262.089844 C 216.289062 264.183594 219.921875 268.214844 222.46875 271.042969 C 225.019531 273.871094 228.699219 277.960938 230.652344 280.128906 C 232.601562 282.296875 236 286.066406 238.203125 288.511719 C 240.40625 290.953125 244.601562 295.613281 247.53125 298.863281 C 250.460938 302.117188 255.425781 307.632812 258.566406 311.121094 C 261.707031 314.605469 265.859375 319.21875 267.792969 321.363281 C 270.457031 324.320312 271.339844 325.382812 271.441406 325.746094 C 271.511719 326.011719 271.714844 328.027344 271.890625 330.230469 C 272.066406 332.429688 272.640625 339.546875 273.160156 346.042969 C 273.683594 352.539062 274.285156 359.941406 274.496094 362.488281 C 274.703125 365.039062 275.304688 372.441406 275.828125 378.9375 C 276.351562 385.433594 276.921875 392.492188 277.09375 394.625 C 277.265625 396.753906 277.609375 400.953125 277.851562 403.957031 C 278.097656 406.960938 278.839844 416.136719 279.503906 424.34375 C 280.167969 432.550781 280.796875 440.355469 280.902344 441.679688 C 281.007812 443.007812 281.128906 444.472656 281.171875 444.933594 C 281.246094 445.730469 281.230469 445.792969 280.886719 446.171875 C 280.671875 446.40625 279.273438 447.238281 277.476562 448.203125 C 275.800781 449.101562 272.460938 450.894531 270.050781 452.1875 C 267.644531 453.480469 261.820312 456.613281 257.109375 459.144531 C 252.394531 461.675781 247.976562 464.054688 247.285156 464.429688 C 246.59375 464.804688 246.003906 465.113281 245.976562 465.113281 C 245.949219 465.113281 246.179688 464.78125 246.492188 464.378906 Z M 246.492188 464.378906 " fill-opacity="1" fill-rule="nonzero"/><path fill="#dbd7ce" d="M 169.96875 503.222656 C 169.820312 503.160156 169.578125 502.957031 169.429688 502.765625 C 169.28125 502.578125 169.15625 502.242188 169.15625 502.023438 C 169.15625 501.800781 169.25 501.488281 169.363281 501.328125 C 169.476562 501.164062 169.765625 500.949219 170 500.851562 C 170.304688 500.726562 170.425781 500.59375 170.425781 500.390625 C 170.425781 500.230469 170.371094 499.90625 170.300781 499.660156 C 170.230469 499.417969 169.976562 498.246094 169.738281 497.058594 C 169.496094 495.871094 169.183594 494.070312 169.039062 493.054688 C 168.894531 492.042969 168.667969 490.214844 168.527344 488.992188 C 168.390625 487.769531 168.195312 485.710938 168.089844 484.417969 C 167.984375 483.128906 167.839844 481.042969 167.765625 479.785156 C 167.695312 478.527344 167.550781 475.613281 167.449219 473.304688 C 167.347656 471 167.203125 467.601562 167.132812 465.75 C 167.0625 463.898438 166.972656 461.667969 166.9375 460.796875 C 166.898438 459.921875 166.816406 457.464844 166.75 455.335938 C 166.683594 453.203125 166.597656 449.945312 166.5625 448.09375 C 166.523438 446.242188 166.460938 442.5 166.421875 439.777344 C 166.382812 437.050781 166.410156 432.449219 166.484375 429.550781 C 166.558594 426.652344 166.734375 421.964844 166.871094 419.136719 C 167.011719 416.308594 167.183594 412.820312 167.257812 411.390625 C 167.332031 409.957031 167.425781 408.476562 167.460938 408.101562 C 167.511719 407.613281 167.617188 407.332031 167.832031 407.117188 C 168.054688 406.890625 168.269531 406.816406 168.691406 406.816406 C 169.132812 406.816406 169.324219 406.890625 169.601562 407.164062 L 169.953125 407.515625 L 169.875 409.609375 C 169.832031 410.761719 169.738281 412.679688 169.667969 413.867188 C 169.597656 415.054688 169.453125 417.769531 169.351562 419.898438 C 169.246094 422.027344 169.09375 426.28125 169.011719 429.347656 C 168.898438 433.640625 168.898438 436.972656 169.015625 443.828125 C 169.097656 448.722656 169.21875 455.902344 169.28125 459.78125 C 169.34375 463.65625 169.433594 469.171875 169.472656 472.035156 C 169.515625 474.902344 169.605469 479.042969 169.671875 481.246094 C 169.738281 483.445312 169.882812 486.644531 169.988281 488.355469 C 170.09375 490.070312 170.296875 492.640625 170.4375 494.074219 C 170.574219 495.503906 170.792969 497.476562 170.917969 498.453125 C 171.125 500.0625 171.167969 500.230469 171.390625 500.207031 C 171.523438 500.195312 172.667969 499.726562 173.933594 499.167969 C 175.199219 498.605469 177.320312 497.636719 178.648438 497.007812 C 179.976562 496.378906 183.027344 494.882812 185.421875 493.679688 C 187.820312 492.480469 196.976562 487.8125 205.773438 483.308594 C 214.566406 478.804688 223.53125 474.203125 225.695312 473.085938 C 227.859375 471.964844 231.488281 470.078125 233.753906 468.890625 C 236.023438 467.699219 239.28125 465.972656 240.988281 465.046875 C 242.699219 464.125 245.785156 462.441406 247.84375 461.304688 C 249.902344 460.167969 252.769531 458.589844 254.21875 457.796875 C 255.664062 457.007812 258.386719 455.558594 260.269531 454.582031 C 262.152344 453.605469 264.765625 452.28125 266.078125 451.640625 C 267.390625 451 269.121094 450.167969 269.925781 449.792969 C 270.726562 449.417969 271.484375 449.109375 271.605469 449.109375 C 271.730469 449.109375 271.828125 449.160156 271.828125 449.222656 C 271.828125 449.28125 271.570312 449.574219 271.253906 449.863281 C 270.933594 450.15625 269.863281 450.929688 268.871094 451.578125 C 267.882812 452.226562 266.214844 453.273438 265.167969 453.902344 C 264.121094 454.527344 260.4375 456.730469 256.980469 458.792969 C 253.527344 460.855469 249.640625 463.140625 248.351562 463.875 C 247.058594 464.609375 244.632812 465.953125 242.957031 466.859375 C 241.28125 467.765625 237.511719 469.765625 234.582031 471.300781 C 231.648438 472.839844 227.195312 475.152344 224.679688 476.445312 C 222.167969 477.738281 217.484375 480.144531 214.273438 481.789062 C 211.0625 483.4375 204.296875 486.90625 199.234375 489.5 C 194.175781 492.09375 187.902344 495.269531 185.296875 496.5625 C 182.691406 497.851562 179.691406 499.3125 178.632812 499.804688 C 177.574219 500.296875 175.425781 501.257812 173.851562 501.941406 C 172.28125 502.625 170.828125 503.21875 170.617188 503.257812 C 170.40625 503.296875 170.117188 503.28125 169.96875 503.222656 Z M 156.847656 502.109375 C 156.742188 502.070312 156.410156 501.867188 156.105469 501.660156 C 155.804688 501.453125 155.144531 500.941406 154.648438 500.523438 C 154.148438 500.105469 153.023438 499.09375 152.152344 498.273438 C 151.277344 497.453125 147.9375 494.355469 144.726562 491.386719 C 141.515625 488.417969 137.519531 484.652344 135.84375 483.019531 C 134.167969 481.382812 132.28125 479.527344 131.648438 478.898438 C 131.015625 478.269531 129.300781 476.523438 127.835938 475.019531 C 126.371094 473.519531 122.492188 469.492188 119.214844 466.074219 C 115.933594 462.652344 112.425781 458.992188 111.414062 457.941406 C 110.402344 456.890625 107.0625 453.402344 103.996094 450.1875 C 100.929688 446.976562 97.78125 443.691406 97.003906 442.886719 C 96.226562 442.085938 93.425781 439.167969 90.777344 436.410156 C 88.132812 433.652344 84.109375 429.476562 81.84375 427.132812 C 79.574219 424.789062 76.117188 421.1875 74.160156 419.128906 C 72.207031 417.074219 69.492188 414.191406 68.128906 412.722656 C 66.769531 411.253906 64 408.253906 61.976562 406.054688 C 59.957031 403.855469 57.542969 401.28125 56.613281 400.339844 C 55.6875 399.394531 54.894531 398.496094 54.855469 398.339844 C 54.816406 398.179688 54.820312 397.910156 54.863281 397.730469 C 54.90625 397.554688 55.054688 397.300781 55.191406 397.164062 C 55.328125 397.027344 55.582031 396.878906 55.757812 396.835938 C 55.933594 396.792969 56.234375 396.792969 56.429688 396.84375 C 56.644531 396.894531 57.460938 397.617188 58.558594 398.730469 C 59.539062 399.71875 62.652344 403.042969 65.476562 406.117188 C 68.300781 409.1875 71.605469 412.761719 72.820312 414.054688 C 74.039062 415.347656 76.207031 417.636719 77.644531 419.136719 C 79.078125 420.640625 81.109375 422.753906 82.15625 423.832031 C 83.207031 424.914062 84.953125 426.714844 86.042969 427.832031 C 87.128906 428.953125 90.214844 432.15625 92.894531 434.949219 C 95.574219 437.746094 100.277344 442.660156 103.34375 445.871094 C 106.410156 449.085938 109.636719 452.457031 110.515625 453.367188 C 111.394531 454.277344 112.769531 455.707031 113.578125 456.542969 C 114.382812 457.378906 117.890625 461.039062 121.375 464.671875 C 124.855469 468.300781 128.335938 471.933594 129.109375 472.734375 C 129.882812 473.539062 132.257812 475.996094 134.386719 478.195312 C 136.511719 480.394531 141.34375 485.308594 145.117188 489.117188 C 148.890625 492.925781 152.769531 496.898438 153.738281 497.945312 C 154.707031 498.996094 155.949219 500.320312 156.5 500.894531 C 157.050781 501.46875 157.464844 501.996094 157.421875 502.070312 C 157.375 502.140625 157.273438 502.195312 157.1875 502.191406 C 157.105469 502.1875 156.953125 502.148438 156.847656 502.109375 Z M 170.996094 401.277344 C 170.441406 401.175781 169.582031 400.972656 169.09375 400.828125 C 168.605469 400.683594 167.636719 400.3125 166.941406 400.007812 C 166.242188 399.699219 164.941406 399.046875 164.050781 398.558594 C 163.15625 398.066406 161.757812 397.230469 160.941406 396.703125 C 160.125 396.171875 158.882812 395.304688 158.183594 394.777344 C 157.484375 394.25 155.941406 393.046875 154.753906 392.105469 C 153.566406 391.160156 151.910156 389.816406 151.074219 389.113281 C 150.234375 388.414062 148.4375 386.867188 147.078125 385.675781 C 145.71875 384.484375 143.578125 382.574219 142.320312 381.429688 C 141.0625 380.28125 139.144531 378.511719 138.0625 377.492188 C 136.980469 376.472656 135.355469 374.925781 134.449219 374.050781 C 133.539062 373.179688 130.398438 370.085938 127.46875 367.175781 C 124.535156 364.269531 119.453125 359.183594 116.171875 355.871094 C 112.890625 352.558594 107.582031 347.191406 104.371094 343.945312 C 101.160156 340.695312 96.445312 335.921875 93.898438 333.335938 C 91.351562 330.75 87.949219 327.292969 86.34375 325.652344 C 84.734375 324.015625 81.589844 320.785156 79.359375 318.480469 C 77.125 316.175781 73.726562 312.660156 71.808594 310.667969 C 69.886719 308.679688 67.089844 305.765625 65.585938 304.191406 C 64.085938 302.621094 61.175781 299.5625 59.121094 297.394531 C 57.0625 295.226562 53.808594 291.769531 51.886719 289.710938 C 49.964844 287.652344 46.988281 284.445312 45.269531 282.589844 C 43.554688 280.734375 42.085938 279.09375 42.007812 278.945312 C 41.929688 278.800781 41.863281 278.5 41.863281 278.28125 C 41.863281 278.007812 41.984375 277.761719 42.234375 277.511719 C 42.519531 277.226562 42.722656 277.140625 43.105469 277.140625 C 43.453125 277.140625 43.699219 277.226562 43.910156 277.429688 C 44.074219 277.585938 45.554688 279.171875 47.195312 280.949219 C 48.835938 282.726562 51.433594 285.523438 52.964844 287.167969 C 54.496094 288.8125 56.695312 291.15625 57.847656 292.378906 C 59.003906 293.601562 60.464844 295.144531 61.097656 295.808594 C 61.730469 296.472656 63.445312 298.273438 64.90625 299.808594 C 66.363281 301.347656 68.902344 304.003906 70.542969 305.714844 C 72.1875 307.421875 75.351562 310.710938 77.582031 313.015625 C 79.808594 315.324219 82.722656 318.324219 84.050781 319.6875 C 85.378906 321.050781 87.753906 323.480469 89.328125 325.085938 C 90.902344 326.691406 96.898438 332.777344 102.652344 338.613281 C 108.40625 344.445312 117.34375 353.464844 122.511719 358.65625 C 127.679688 363.851562 133.679688 369.800781 135.84375 371.878906 C 138.007812 373.960938 140.664062 376.476562 141.746094 377.476562 C 142.828125 378.476562 144.96875 380.414062 146.503906 381.785156 C 148.039062 383.15625 150.09375 384.964844 151.074219 385.804688 C 152.050781 386.640625 153.476562 387.84375 154.246094 388.472656 C 155.011719 389.105469 156.5625 390.339844 157.691406 391.21875 C 158.820312 392.097656 160.304688 393.214844 160.992188 393.699219 C 161.679688 394.183594 162.871094 394.953125 163.636719 395.40625 C 164.40625 395.863281 165.574219 396.523438 166.238281 396.875 C 166.902344 397.226562 167.980469 397.726562 168.636719 397.988281 C 169.292969 398.246094 170.347656 398.570312 170.984375 398.699219 C 171.695312 398.847656 172.671875 398.9375 173.515625 398.941406 C 174.40625 398.941406 175.347656 398.851562 176.179688 398.683594 C 176.890625 398.539062 178.261719 398.195312 179.226562 397.914062 C 180.191406 397.636719 181.574219 397.183594 182.300781 396.90625 C 183.03125 396.628906 184.269531 396.113281 185.054688 395.757812 C 185.839844 395.40625 187.878906 394.398438 189.589844 393.519531 C 191.300781 392.640625 193.726562 391.378906 194.984375 390.714844 C 196.242188 390.050781 198.410156 388.878906 199.808594 388.109375 C 201.203125 387.339844 203.34375 386.140625 204.566406 385.445312 C 205.789062 384.746094 207.929688 383.515625 209.324219 382.703125 C 210.722656 381.894531 214.289062 379.769531 217.257812 377.980469 C 220.222656 376.191406 224.535156 373.585938 226.839844 372.1875 C 229.144531 370.789062 233.398438 368.242188 236.292969 366.527344 C 239.191406 364.816406 243.78125 362.140625 246.492188 360.589844 C 249.207031 359.035156 252.082031 357.367188 252.886719 356.882812 C 253.6875 356.398438 254.621094 355.863281 254.957031 355.691406 C 255.398438 355.46875 255.597656 355.421875 255.664062 355.527344 C 255.71875 355.617188 255.441406 355.972656 254.953125 356.429688 C 254.515625 356.84375 253.632812 357.566406 252.996094 358.039062 C 252.363281 358.507812 250.957031 359.484375 249.875 360.207031 C 248.792969 360.929688 245.707031 362.949219 243.019531 364.691406 C 240.332031 366.4375 235.765625 369.386719 232.867188 371.25 C 229.972656 373.113281 225.972656 375.640625 223.984375 376.863281 C 221.996094 378.085938 218.394531 380.261719 215.988281 381.691406 C 213.582031 383.125 210.722656 384.8125 209.644531 385.4375 C 208.5625 386.066406 206.617188 387.179688 205.328125 387.917969 C 204.035156 388.652344 201.722656 389.941406 200.1875 390.78125 C 198.652344 391.617188 196.234375 392.917969 194.816406 393.664062 C 193.394531 394.410156 190.710938 395.777344 188.851562 396.699219 C 186.988281 397.625 184.835938 398.625 184.070312 398.925781 C 183.300781 399.226562 181.988281 399.695312 181.152344 399.964844 C 180.3125 400.234375 179.058594 400.605469 178.359375 400.785156 C 177.660156 400.964844 176.546875 401.195312 175.882812 401.296875 C 175.222656 401.398438 174.078125 401.476562 173.347656 401.46875 C 172.613281 401.464844 171.554688 401.375 170.996094 401.277344 Z M 47.453125 393.742188 C 47.378906 393.605469 47.210938 393.019531 47.074219 392.441406 C 46.9375 391.859375 46.652344 390.441406 46.441406 389.289062 C 46.234375 388.136719 45.832031 385.535156 45.554688 383.511719 C 45.273438 381.484375 44.902344 378.683594 44.726562 377.285156 C 44.554688 375.890625 44.296875 373.71875 44.160156 372.460938 C 44.019531 371.203125 43.820312 369.289062 43.714844 368.207031 C 43.609375 367.121094 43.261719 363.378906 42.945312 359.886719 C 42.628906 356.394531 42.195312 351.820312 41.984375 349.726562 C 41.777344 347.628906 41.117188 341.285156 40.523438 335.628906 C 39.929688 329.96875 39.105469 322.28125 38.691406 318.542969 C 38.277344 314.808594 37.710938 309.519531 37.429688 306.796875 C 37.152344 304.070312 36.695312 299.585938 36.417969 296.824219 C 36.136719 294.066406 35.726562 289.894531 35.5 287.554688 C 35.136719 283.769531 35.09375 282.835938 35.085938 279.109375 C 35.082031 275.800781 35.125 274.59375 35.300781 273.378906 C 35.417969 272.53125 35.664062 271.332031 35.84375 270.714844 C 36.023438 270.097656 36.375 269.199219 36.625 268.71875 C 36.878906 268.238281 37.40625 267.523438 37.796875 267.125 C 38.257812 266.660156 38.953125 266.164062 39.773438 265.714844 C 40.46875 265.332031 41.839844 264.539062 42.816406 263.945312 C 43.792969 263.355469 45.433594 262.308594 46.464844 261.621094 C 47.492188 260.933594 49.152344 259.863281 50.15625 259.238281 C 51.15625 258.617188 54.3125 256.769531 57.167969 255.132812 C 60.023438 253.5 63.476562 251.554688 64.835938 250.816406 C 66.199219 250.078125 68.652344 248.777344 70.292969 247.929688 C 71.933594 247.078125 77.644531 244.199219 82.984375 241.53125 C 88.324219 238.859375 94.949219 235.582031 97.707031 234.246094 C 100.464844 232.910156 104.660156 230.875 107.035156 229.726562 C 109.40625 228.578125 113.949219 226.367188 117.125 224.8125 C 120.300781 223.257812 125.441406 220.789062 128.546875 219.328125 C 131.652344 217.867188 135.679688 215.894531 137.492188 214.945312 C 139.71875 213.777344 140.964844 213.195312 141.328125 213.15625 C 141.792969 213.101562 141.910156 213.144531 142.246094 213.480469 C 142.542969 213.78125 142.632812 213.980469 142.628906 214.355469 C 142.628906 214.621094 142.527344 214.964844 142.410156 215.117188 C 142.289062 215.265625 140.21875 216.390625 137.808594 217.613281 C 135.402344 218.835938 131.691406 220.648438 129.5625 221.640625 C 127.433594 222.632812 123.664062 224.433594 121.183594 225.636719 C 118.707031 226.84375 114.28125 229 111.347656 230.429688 C 108.417969 231.859375 103.449219 234.273438 100.308594 235.796875 C 97.167969 237.316406 89.519531 241.101562 83.3125 244.207031 C 77.105469 247.3125 70.996094 250.398438 69.734375 251.0625 C 68.472656 251.730469 66.4375 252.820312 65.21875 253.488281 C 63.996094 254.15625 61.054688 255.8125 58.679688 257.171875 C 56.308594 258.53125 53.507812 260.160156 52.460938 260.789062 C 51.414062 261.417969 49.386719 262.707031 47.957031 263.652344 C 46.527344 264.59375 44.726562 265.746094 43.960938 266.210938 C 43.191406 266.675781 41.996094 267.367188 41.304688 267.746094 C 40.609375 268.128906 39.847656 268.640625 39.609375 268.882812 C 39.371094 269.128906 39.039062 269.558594 38.878906 269.835938 C 38.714844 270.117188 38.433594 270.847656 38.257812 271.464844 C 38.074219 272.101562 37.84375 273.421875 37.730469 274.515625 C 37.570312 276.003906 37.539062 277.246094 37.589844 279.996094 C 37.632812 282.40625 37.761719 284.65625 37.984375 286.984375 C 38.164062 288.867188 38.457031 291.871094 38.632812 293.652344 C 38.808594 295.433594 39.292969 300.234375 39.710938 304.320312 C 40.128906 308.40625 40.839844 315.09375 41.292969 319.179688 C 41.742188 323.265625 42.597656 331.238281 43.191406 336.898438 C 43.785156 342.554688 44.441406 348.929688 44.648438 351.058594 C 44.859375 353.191406 45.316406 358.105469 45.667969 361.980469 C 46.015625 365.859375 46.53125 372.203125 46.808594 376.082031 C 47.089844 379.957031 47.429688 384.816406 47.566406 386.875 C 47.707031 388.9375 47.828125 391.195312 47.84375 391.894531 C 47.859375 392.589844 47.863281 393.347656 47.851562 393.574219 C 47.839844 393.804688 47.773438 393.988281 47.707031 393.988281 C 47.640625 393.988281 47.527344 393.878906 47.453125 393.742188 Z M 47.453125 393.742188 " fill-opacity="1" fill-rule="nonzero"/><path fill="#96e6f2" d="M 274.011719 457.304688 C 273.804688 457.128906 273.601562 456.859375 273.5625 456.699219 C 273.523438 456.542969 273.347656 454.929688 273.171875 453.113281 C 272.992188 451.296875 272.621094 447.4375 272.34375 444.539062 C 272.066406 441.640625 271.605469 436.839844 271.320312 433.871094 C 271.039062 430.902344 270.636719 426.730469 270.429688 424.597656 C 270.226562 422.46875 269.597656 415.921875 269.039062 410.054688 C 268.476562 404.1875 267.734375 396.441406 267.386719 392.84375 C 267.042969 389.246094 266.386719 382.417969 265.933594 377.667969 C 265.480469 372.917969 264.734375 365.144531 264.277344 360.394531 C 263.820312 355.644531 263.332031 350.558594 263.195312 349.089844 C 263.054688 347.625 262.765625 344.621094 262.554688 342.421875 C 262.34375 340.222656 262.121094 337.921875 262.058594 337.3125 C 261.996094 336.699219 261.902344 336.132812 261.851562 336.046875 C 261.800781 335.964844 259.699219 333.664062 257.179688 330.9375 C 254.664062 328.210938 250.859375 324.09375 248.730469 321.785156 C 246.601562 319.472656 240.746094 313.128906 235.71875 307.679688 C 230.695312 302.234375 220.730469 291.433594 213.578125 283.679688 C 206.429688 275.925781 200.542969 269.554688 200.503906 269.519531 C 200.464844 269.484375 195.265625 263.855469 188.953125 257.007812 C 182.640625 250.164062 172.992188 239.703125 167.511719 233.765625 C 162.035156 227.828125 154.097656 219.226562 149.878906 214.648438 C 145.660156 210.074219 141.964844 206.066406 141.667969 205.742188 C 141.328125 205.371094 141.09375 204.976562 141.039062 204.679688 C 140.976562 204.355469 141.011719 204.078125 141.144531 203.796875 C 141.328125 203.414062 141.792969 203.183594 147.921875 200.457031 C 151.539062 198.84375 157.953125 195.984375 162.175781 194.101562 C 166.402344 192.21875 173.511719 189.046875 177.976562 187.054688 C 182.445312 185.0625 196.324219 178.878906 208.816406 173.308594 C 221.3125 167.738281 234.132812 162.023438 237.308594 160.605469 C 240.484375 159.191406 245.996094 156.734375 249.554688 155.148438 C 253.117188 153.558594 266.222656 147.71875 278.683594 142.164062 C 291.140625 136.609375 304.449219 130.679688 308.253906 128.980469 C 312.058594 127.285156 318.082031 124.601562 321.640625 123.011719 C 325.203125 121.425781 331.226562 118.738281 335.03125 117.042969 C 338.835938 115.347656 349.285156 110.6875 358.257812 106.691406 C 367.226562 102.695312 377.191406 98.25 380.402344 96.820312 C 383.613281 95.386719 390.152344 92.472656 394.933594 90.339844 C 399.714844 88.207031 407.855469 84.578125 413.019531 82.277344 C 420.621094 78.894531 422.480469 78.109375 422.78125 78.167969 C 422.984375 78.210938 423.496094 78.566406 423.921875 78.964844 C 424.347656 79.359375 425.78125 80.742188 427.105469 82.039062 C 428.433594 83.332031 430.515625 85.363281 431.738281 86.554688 C 432.960938 87.742188 434.988281 89.71875 436.242188 90.949219 C 437.5 92.179688 441.753906 96.320312 445.699219 100.152344 C 449.640625 103.984375 453.984375 108.207031 455.34375 109.53125 C 456.707031 110.859375 458.761719 112.871094 459.914062 113.996094 C 461.066406 115.125 466.261719 120.179688 471.460938 125.234375 C 476.660156 130.289062 481.945312 135.433594 483.203125 136.667969 C 484.457031 137.902344 489.742188 143.046875 494.941406 148.097656 C 500.140625 153.152344 505.367188 158.234375 506.554688 159.394531 C 507.738281 160.558594 509.765625 162.53125 511.054688 163.789062 C 512.34375 165.042969 514.488281 167.128906 515.816406 168.425781 C 517.140625 169.722656 520.425781 172.917969 523.113281 175.53125 C 525.800781 178.140625 529.085938 181.339844 530.414062 182.636719 C 531.738281 183.933594 534.792969 186.910156 537.203125 189.246094 C 539.609375 191.585938 542.609375 194.5 543.863281 195.726562 C 545.121094 196.953125 547.148438 198.9375 548.371094 200.136719 L 550.589844 202.320312 L 550.589844 322.476562 L 550.273438 322.789062 C 550.097656 322.960938 541.847656 327.070312 531.933594 331.921875 C 522.023438 336.769531 503.433594 345.867188 490.625 352.140625 C 477.816406 358.410156 465.910156 364.238281 464.164062 365.09375 C 462.417969 365.945312 450.625 371.71875 437.957031 377.921875 C 425.289062 384.125 413.523438 389.882812 411.8125 390.71875 C 410.101562 391.554688 407.363281 392.898438 405.722656 393.703125 C 404.082031 394.503906 401.367188 395.832031 399.691406 396.652344 C 398.019531 397.472656 386.339844 403.1875 373.738281 409.355469 C 361.140625 415.523438 349.289062 421.324219 347.40625 422.25 C 345.519531 423.171875 333.671875 428.972656 321.070312 435.140625 C 308.472656 441.308594 296.566406 447.136719 294.609375 448.09375 C 292.65625 449.050781 287.476562 451.585938 283.101562 453.726562 C 278.070312 456.1875 275.007812 457.621094 274.765625 457.621094 C 274.546875 457.621094 274.226562 457.488281 274.011719 457.304688 Z M 274.011719 457.304688 " fill-opacity="1" fill-rule="nonzero"/><path fill="#88d2dd" d="M 274.011719 457.304688 C 273.804688 457.128906 273.601562 456.859375 273.5625 456.699219 C 273.523438 456.542969 273.347656 454.929688 273.171875 453.113281 C 272.992188 451.296875 272.621094 447.4375 272.34375 444.539062 C 272.066406 441.640625 271.605469 436.839844 271.320312 433.871094 C 271.039062 430.902344 270.636719 426.730469 270.429688 424.597656 C 270.226562 422.46875 269.597656 415.921875 269.039062 410.054688 C 268.476562 404.1875 267.734375 396.441406 267.386719 392.84375 C 267.042969 389.246094 266.386719 382.417969 265.933594 377.667969 C 265.480469 372.917969 264.734375 365.144531 264.28125 360.394531 C 263.828125 355.644531 263.441406 351.535156 263.421875 351.257812 L 263.390625 350.761719 L 267.132812 349.011719 C 269.191406 348.046875 271.933594 346.761719 273.226562 346.152344 C 274.515625 345.539062 276.515625 344.589844 277.667969 344.035156 C 278.820312 343.480469 280.21875 342.8125 280.777344 342.550781 C 281.335938 342.289062 284.363281 340.832031 287.503906 339.308594 C 290.644531 337.789062 294.183594 336.074219 295.371094 335.496094 C 296.558594 334.921875 298.769531 333.84375 300.289062 333.101562 C 301.808594 332.359375 304.261719 331.160156 305.746094 330.433594 C 307.230469 329.710938 311.214844 327.746094 314.597656 326.070312 C 317.984375 324.394531 327.578125 319.617188 335.921875 315.457031 C 344.261719 311.292969 354.484375 306.167969 358.636719 304.0625 C 362.789062 301.960938 367.644531 299.492188 369.425781 298.578125 C 371.203125 297.667969 373.6875 296.390625 374.945312 295.746094 C 376.203125 295.101562 378.34375 294 379.703125 293.300781 C 381.066406 292.601562 384.09375 291.042969 386.429688 289.839844 C 388.769531 288.632812 392.28125 286.820312 394.234375 285.804688 C 396.191406 284.792969 398.730469 283.480469 399.882812 282.886719 C 401.035156 282.292969 402.71875 281.421875 403.628906 280.949219 C 404.535156 280.480469 406.191406 279.621094 407.308594 279.042969 C 408.425781 278.46875 410.136719 277.582031 411.117188 277.074219 C 412.09375 276.570312 413.71875 275.726562 414.730469 275.203125 C 415.746094 274.679688 417.515625 273.765625 418.667969 273.167969 C 419.816406 272.574219 424.160156 270.328125 428.3125 268.183594 C 432.464844 266.039062 436.492188 263.953125 437.257812 263.550781 C 438.027344 263.148438 440.824219 261.6875 443.476562 260.308594 C 446.128906 258.929688 448.898438 257.488281 449.632812 257.101562 C 450.367188 256.71875 451.621094 256.058594 452.425781 255.640625 C 453.226562 255.21875 454.339844 254.632812 454.898438 254.339844 C 455.457031 254.042969 458.171875 252.617188 460.929688 251.164062 C 463.683594 249.710938 468.339844 247.242188 471.273438 245.671875 C 474.203125 244.101562 478.230469 241.929688 480.21875 240.84375 C 482.207031 239.761719 485.578125 237.917969 487.707031 236.746094 C 489.835938 235.578125 492.261719 234.269531 493.101562 233.839844 C 493.9375 233.410156 497.363281 231.738281 500.714844 230.121094 C 504.066406 228.507812 507.464844 226.886719 508.265625 226.523438 C 509.070312 226.160156 512.054688 224.738281 514.898438 223.371094 C 517.746094 222 522.714844 219.542969 525.941406 217.914062 C 529.167969 216.285156 532.4375 214.605469 533.203125 214.179688 C 533.972656 213.757812 535.628906 212.855469 536.886719 212.171875 C 538.140625 211.488281 539.570312 210.691406 540.058594 210.398438 C 540.546875 210.105469 541.375 209.632812 541.898438 209.351562 C 542.421875 209.070312 543.707031 208.339844 544.753906 207.730469 C 545.800781 207.117188 547.257812 206.273438 547.988281 205.851562 C 548.722656 205.433594 549.609375 204.894531 549.957031 204.660156 L 550.589844 204.234375 L 550.628906 263.007812 C 550.648438 295.335938 550.632812 321.960938 550.59375 322.175781 C 550.554688 322.390625 550.398438 322.6875 550.242188 322.832031 C 550.085938 322.980469 541.847656 327.070312 531.933594 331.917969 C 522.023438 336.769531 503.433594 345.867188 490.625 352.140625 C 477.816406 358.410156 465.910156 364.238281 464.164062 365.09375 C 462.417969 365.945312 450.625 371.71875 437.957031 377.921875 C 425.289062 384.125 413.523438 389.882812 411.8125 390.71875 C 410.101562 391.554688 407.363281 392.898438 405.722656 393.703125 C 404.082031 394.503906 401.367188 395.832031 399.691406 396.652344 C 398.019531 397.472656 386.339844 403.1875 373.738281 409.355469 C 361.140625 415.523438 349.289062 421.324219 347.40625 422.25 C 345.519531 423.171875 333.671875 428.972656 321.070312 435.140625 C 308.472656 441.308594 296.566406 447.136719 294.609375 448.09375 C 292.65625 449.050781 287.476562 451.585938 283.101562 453.726562 C 278.070312 456.1875 275.007812 457.621094 274.765625 457.621094 C 274.546875 457.621094 274.226562 457.488281 274.011719 457.304688 Z M 274.011719 457.304688 " fill-opacity="1" fill-rule="nonzero"/><g clip-path="url(#a70497fa37)"><path fill="#53aebe" d="M 282.679688 453.28125 C 282.539062 453.207031 282.328125 453.019531 282.207031 452.871094 C 282.085938 452.726562 281.988281 452.414062 281.984375 452.183594 C 281.984375 451.949219 282.039062 451.652344 282.113281 451.519531 C 282.183594 451.386719 282.625 451.054688 283.09375 450.78125 C 283.566406 450.507812 285.464844 449.46875 287.3125 448.472656 C 289.164062 447.476562 295.929688 443.90625 302.351562 440.535156 C 308.773438 437.167969 315.742188 433.507812 317.835938 432.40625 C 319.929688 431.304688 324.125 429.089844 327.164062 427.484375 C 330.199219 425.878906 338.28125 421.609375 345.121094 417.996094 C 351.960938 414.378906 361.441406 409.367188 366.1875 406.851562 C 370.933594 404.335938 378.074219 400.5625 382.050781 398.46875 C 386.03125 396.375 392.257812 393.117188 395.886719 391.230469 C 399.515625 389.34375 405.570312 386.214844 409.339844 384.277344 C 413.109375 382.339844 417.390625 380.136719 418.855469 379.382812 C 420.324219 378.632812 424.09375 376.699219 427.234375 375.09375 C 430.375 373.488281 435.855469 370.6875 439.417969 368.871094 C 442.976562 367.058594 449.402344 363.785156 453.695312 361.601562 C 457.988281 359.421875 463.5 356.617188 465.941406 355.378906 C 468.382812 354.136719 476.207031 350.179688 483.328125 346.582031 C 490.449219 342.988281 501.15625 337.585938 507.125 334.578125 C 513.09375 331.566406 519.660156 328.296875 521.71875 327.304688 C 523.777344 326.3125 526.460938 325.042969 527.683594 324.484375 C 528.90625 323.925781 531.273438 322.878906 532.949219 322.160156 C 534.625 321.445312 537.039062 320.480469 538.316406 320.019531 C 539.589844 319.558594 540.664062 319.179688 540.699219 319.179688 C 540.734375 319.179688 541.726562 318.75 542.90625 318.226562 C 544.082031 317.703125 545.136719 317.273438 545.25 317.273438 C 545.359375 317.273438 545.453125 317.328125 545.453125 317.390625 C 545.453125 317.457031 545.3125 317.675781 545.140625 317.875 C 544.972656 318.078125 544.335938 318.597656 543.730469 319.03125 C 543.121094 319.460938 542.21875 320.039062 541.722656 320.308594 C 541.226562 320.582031 539.449219 321.417969 537.773438 322.171875 C 536.097656 322.925781 528.21875 326.808594 520.257812 330.804688 C 512.300781 334.800781 499.023438 341.484375 490.753906 345.660156 C 482.480469 349.832031 471.714844 355.277344 466.828125 357.757812 C 461.945312 360.238281 454.578125 363.980469 450.457031 366.078125 C 446.339844 368.175781 438.886719 371.976562 433.894531 374.523438 C 428.90625 377.070312 423.738281 379.714844 422.410156 380.394531 C 421.085938 381.078125 418.769531 382.265625 417.269531 383.035156 C 415.769531 383.804688 411.65625 385.921875 408.132812 387.734375 C 404.609375 389.550781 399.503906 392.1875 396.792969 393.597656 C 394.082031 395.007812 389.570312 397.363281 386.765625 398.835938 C 383.964844 400.308594 379.617188 402.597656 377.101562 403.929688 C 374.589844 405.257812 368.195312 408.644531 362.890625 411.453125 C 357.582031 414.261719 350.074219 418.234375 346.199219 420.277344 C 342.324219 422.324219 336.214844 425.554688 332.621094 427.457031 C 329.027344 429.359375 323.371094 432.34375 320.054688 434.089844 C 316.742188 435.835938 309.203125 439.796875 303.304688 442.886719 C 297.40625 445.976562 291.039062 449.335938 289.152344 450.347656 C 287.269531 451.359375 285.234375 452.46875 284.632812 452.808594 C 284.03125 453.148438 283.402344 453.425781 283.238281 453.425781 C 283.070312 453.421875 282.820312 453.359375 282.679688 453.28125 Z M 273.03125 451.691406 C 272.925781 451.433594 272.699219 450.476562 272.53125 449.5625 C 272.363281 448.652344 272.140625 447.132812 272.03125 446.191406 C 271.925781 445.246094 271.691406 442.644531 271.515625 440.410156 C 271.339844 438.175781 270.996094 433.429688 270.753906 429.867188 C 270.511719 426.304688 270.285156 422.992188 270.246094 422.503906 C 270.210938 422.011719 270.09375 420.5 269.988281 419.136719 C 269.886719 417.773438 269.570312 413.546875 269.289062 409.738281 C 269.011719 405.929688 268.496094 399.15625 268.144531 394.6875 C 267.796875 390.214844 267.253906 383.445312 266.9375 379.636719 C 266.625 375.828125 266.226562 371.199219 266.050781 369.347656 C 265.878906 367.496094 265.449219 363.152344 265.097656 359.695312 C 264.75 356.238281 264.238281 351.464844 263.960938 349.089844 C 263.6875 346.714844 263.316406 343.402344 263.140625 341.722656 C 262.960938 340.046875 262.78125 338.40625 262.738281 338.074219 C 262.6875 337.699219 262.71875 337.324219 262.820312 337.082031 C 262.910156 336.871094 263.140625 336.613281 263.339844 336.511719 C 263.535156 336.410156 263.832031 336.324219 264 336.324219 C 264.167969 336.324219 264.460938 336.449219 264.652344 336.597656 C 264.839844 336.746094 265.046875 337 265.109375 337.167969 C 265.171875 337.332031 265.394531 339.109375 265.609375 341.117188 C 265.820312 343.128906 266.164062 346.230469 266.371094 348.011719 C 266.578125 349.792969 266.832031 352.019531 266.9375 352.964844 C 267.039062 353.90625 267.355469 356.9375 267.636719 359.695312 C 267.914062 362.453125 268.289062 366.226562 268.460938 368.078125 C 268.636719 369.929688 268.863281 372.414062 268.96875 373.601562 C 269.070312 374.789062 269.386719 378.589844 269.667969 382.050781 C 269.945312 385.507812 270.433594 391.621094 270.746094 395.640625 C 271.0625 399.65625 271.605469 406.828125 271.957031 411.578125 C 272.308594 416.328125 272.710938 421.757812 272.84375 423.644531 C 272.980469 425.53125 273.148438 428.675781 273.21875 430.632812 C 273.289062 432.585938 273.410156 438.144531 273.488281 442.984375 C 273.570312 447.820312 273.601562 451.863281 273.558594 451.96875 C 273.519531 452.074219 273.429688 452.160156 273.359375 452.160156 C 273.285156 452.160156 273.140625 451.949219 273.03125 451.691406 Z M 260.011719 332.664062 C 259.496094 332.328125 258.582031 331.65625 257.984375 331.171875 C 257.382812 330.6875 254.785156 328.40625 252.210938 326.101562 C 249.636719 323.796875 246.644531 321.085938 245.5625 320.082031 C 244.476562 319.074219 242.792969 317.472656 241.8125 316.523438 C 240.835938 315.574219 238.160156 312.96875 235.867188 310.734375 C 233.574219 308.496094 230.058594 304.953125 228.054688 302.859375 C 226.050781 300.761719 223.5 298.078125 222.386719 296.890625 C 221.277344 295.699219 219.195312 293.441406 217.765625 291.867188 C 216.335938 290.292969 213.453125 287.066406 211.359375 284.691406 C 209.269531 282.320312 206.953125 279.691406 206.210938 278.855469 C 205.46875 278.015625 203.417969 275.671875 201.644531 273.644531 C 199.875 271.621094 196.765625 268.019531 194.734375 265.644531 C 192.703125 263.269531 190.097656 260.210938 188.945312 258.851562 C 187.789062 257.488281 185.394531 254.628906 183.617188 252.5 C 181.84375 250.367188 179.472656 247.511719 178.351562 246.148438 C 177.230469 244.785156 174.886719 241.929688 173.140625 239.796875 C 171.398438 237.667969 168.257812 233.78125 166.160156 231.160156 C 164.066406 228.542969 160.726562 224.339844 158.734375 221.828125 C 156.746094 219.3125 154.179688 216.035156 153.03125 214.546875 C 151.882812 213.058594 150.589844 211.375 150.152344 210.800781 C 149.5 209.945312 149.359375 209.675781 149.359375 209.273438 C 149.359375 208.90625 149.449219 208.699219 149.730469 208.417969 C 150.015625 208.132812 150.214844 208.046875 150.585938 208.050781 C 150.855469 208.050781 151.160156 208.125 151.265625 208.207031 C 151.371094 208.292969 152.230469 209.363281 153.175781 210.585938 C 154.121094 211.808594 155.488281 213.582031 156.214844 214.523438 C 156.941406 215.464844 159.390625 218.582031 161.65625 221.445312 C 163.925781 224.308594 167.039062 228.222656 168.574219 230.144531 C 170.113281 232.066406 173.285156 235.980469 175.625 238.84375 C 177.964844 241.710938 182.140625 246.769531 184.902344 250.085938 C 187.664062 253.402344 191.601562 258.089844 193.652344 260.5 C 195.703125 262.910156 198.867188 266.597656 200.683594 268.691406 C 202.503906 270.789062 206.300781 275.132812 209.125 278.347656 C 211.949219 281.558594 215.203125 285.246094 216.359375 286.539062 C 217.511719 287.832031 219.339844 289.859375 220.421875 291.046875 C 221.503906 292.234375 222.769531 293.605469 223.230469 294.09375 C 223.691406 294.585938 225.546875 296.554688 227.355469 298.476562 C 229.167969 300.394531 232.363281 303.683594 234.460938 305.777344 C 236.554688 307.875 240.554688 311.796875 243.34375 314.492188 C 246.132812 317.191406 249.472656 320.449219 250.761719 321.734375 C 252.054688 323.023438 253.882812 324.875 254.824219 325.851562 C 255.769531 326.828125 257.640625 328.78125 258.980469 330.191406 C 260.519531 331.808594 261.421875 332.855469 261.421875 333.019531 C 261.421875 333.1875 261.339844 333.277344 261.183594 333.277344 C 261.054688 333.277344 260.527344 333.003906 260.011719 332.664062 Z M 548.847656 319.550781 C 548.722656 319.480469 548.546875 319.265625 548.449219 319.078125 C 548.355469 318.890625 548.242188 318.449219 548.199219 318.101562 C 548.15625 317.75 548.0625 315.636719 547.996094 313.402344 C 547.929688 311.164062 547.84375 307.507812 547.804688 305.273438 C 547.765625 303.035156 547.707031 300.4375 547.671875 299.492188 C 547.640625 298.550781 547.582031 295.578125 547.542969 292.886719 C 547.507812 290.199219 547.449219 287.597656 547.417969 287.109375 C 547.386719 286.621094 547.328125 282.761719 547.289062 278.535156 C 547.246094 274.308594 547.160156 267.28125 547.097656 262.914062 C 547.03125 258.546875 546.914062 248.832031 546.835938 241.324219 C 546.726562 230.992188 546.726562 225.273438 546.839844 217.824219 C 546.925781 212 547.035156 207.933594 547.109375 207.863281 C 547.183594 207.785156 547.273438 207.785156 547.347656 207.863281 C 547.414062 207.929688 547.554688 208.316406 547.664062 208.730469 C 547.769531 209.140625 547.945312 210.109375 548.054688 210.886719 C 548.164062 211.664062 548.363281 214.128906 548.496094 216.363281 C 548.632812 218.601562 548.832031 222.574219 548.9375 225.191406 C 549.046875 227.8125 549.191406 232.171875 549.257812 234.882812 C 549.324219 237.59375 549.390625 242.277344 549.40625 245.296875 C 549.421875 248.316406 549.472656 253.070312 549.519531 255.863281 C 549.566406 258.660156 549.644531 264.402344 549.6875 268.628906 C 549.730469 272.855469 549.796875 278.257812 549.835938 280.632812 C 549.871094 283.007812 549.957031 287.722656 550.023438 291.109375 C 550.089844 294.5 550.171875 298.585938 550.210938 300.191406 C 550.246094 301.796875 550.335938 305.800781 550.40625 309.082031 C 550.476562 312.367188 550.59375 315.894531 550.664062 316.925781 C 550.75 318.21875 550.75 318.875 550.660156 319.046875 C 550.585938 319.183594 550.398438 319.382812 550.246094 319.492188 C 550.089844 319.597656 549.761719 319.6875 549.515625 319.683594 C 549.269531 319.683594 548.96875 319.621094 548.847656 319.550781 Z M 148.570312 202.640625 C 148.378906 202.535156 148.164062 202.34375 148.09375 202.210938 C 148.023438 202.074219 147.964844 201.769531 147.964844 201.53125 C 147.964844 201.285156 148.074219 200.949219 148.222656 200.765625 C 148.398438 200.542969 151.757812 198.792969 158.46875 195.425781 C 163.964844 192.671875 170.886719 189.234375 173.851562 187.785156 C 176.820312 186.339844 181.21875 184.210938 183.625 183.058594 C 186.035156 181.90625 190.488281 179.792969 193.523438 178.359375 C 196.5625 176.925781 205.042969 172.953125 212.371094 169.53125 C 219.699219 166.109375 227.210938 162.605469 229.058594 161.75 C 230.910156 160.894531 235.535156 158.75 239.339844 156.988281 C 243.144531 155.222656 251.96875 151.152344 258.949219 147.941406 C 265.929688 144.726562 273.4375 141.269531 275.636719 140.257812 C 277.835938 139.246094 284.175781 136.328125 289.722656 133.78125 C 295.273438 131.230469 304.269531 127.113281 309.710938 124.636719 C 315.15625 122.15625 322.722656 118.726562 326.527344 117.015625 C 330.332031 115.300781 336.984375 112.328125 341.3125 110.40625 C 345.640625 108.488281 354.644531 104.523438 361.324219 101.601562 C 368.003906 98.675781 376.140625 95.085938 379.410156 93.625 C 382.675781 92.160156 388.207031 89.679688 391.699219 88.109375 C 395.1875 86.539062 399.414062 84.625 401.089844 83.855469 C 402.765625 83.085938 406.191406 81.472656 408.703125 80.269531 C 411.214844 79.066406 414.046875 77.722656 414.988281 77.28125 C 415.933594 76.839844 417.21875 76.324219 417.84375 76.132812 C 418.851562 75.824219 419.1875 75.785156 420.761719 75.785156 C 422.332031 75.785156 422.667969 75.824219 423.671875 76.132812 C 424.296875 76.320312 425.226562 76.652344 425.738281 76.863281 C 426.253906 77.078125 427.257812 77.605469 427.976562 78.035156 C 428.695312 78.46875 429.875 79.269531 430.605469 79.824219 C 431.332031 80.375 432.757812 81.511719 433.769531 82.351562 C 434.78125 83.191406 436.292969 84.480469 437.128906 85.21875 C 437.964844 85.957031 439.933594 87.796875 441.507812 89.308594 C 443.078125 90.820312 444.648438 92.363281 444.992188 92.738281 C 445.335938 93.113281 446.304688 94.132812 447.148438 95.007812 C 447.992188 95.882812 449.683594 97.679688 450.90625 99.007812 C 452.132812 100.335938 454.132812 102.535156 455.351562 103.898438 C 456.570312 105.257812 460.191406 109.375 463.398438 113.042969 C 466.605469 116.710938 470.316406 120.9375 471.644531 122.441406 C 472.972656 123.941406 475.34375 126.601562 476.910156 128.347656 C 478.480469 130.09375 480.679688 132.523438 481.796875 133.746094 C 482.914062 134.96875 484.71875 136.9375 485.804688 138.125 C 486.890625 139.3125 489.863281 142.542969 492.40625 145.300781 C 494.945312 148.0625 498.109375 151.492188 499.433594 152.921875 C 500.753906 154.355469 503.238281 157.011719 504.949219 158.828125 C 506.660156 160.644531 510.664062 164.734375 513.84375 167.914062 C 517.023438 171.09375 521.054688 175.039062 522.800781 176.679688 C 524.546875 178.316406 527.542969 181.085938 529.460938 182.835938 C 531.375 184.582031 534.140625 187.152344 535.605469 188.550781 C 537.070312 189.945312 539.332031 192.148438 540.632812 193.4375 C 542.070312 194.863281 543.378906 196.300781 543.964844 197.089844 C 544.496094 197.804688 545.128906 198.804688 545.375 199.3125 C 545.621094 199.820312 545.859375 200.449219 545.90625 200.710938 C 545.957031 201.011719 545.9375 201.1875 545.855469 201.1875 C 545.78125 201.1875 545.152344 200.542969 544.457031 199.757812 C 543.761719 198.972656 542.773438 197.921875 542.257812 197.425781 C 541.746094 196.925781 539.757812 195.191406 537.835938 193.5625 C 535.917969 191.933594 533.691406 190.027344 532.890625 189.324219 C 532.089844 188.617188 529.804688 186.558594 527.8125 184.746094 C 525.824219 182.9375 522.851562 180.195312 521.210938 178.65625 C 519.570312 177.117188 515.398438 173.023438 511.9375 169.566406 C 508.480469 166.105469 504.308594 161.84375 502.671875 160.097656 C 501.035156 158.351562 498.585938 155.722656 497.234375 154.257812 C 495.882812 152.789062 494.480469 151.273438 494.125 150.890625 C 493.765625 150.507812 491.789062 148.363281 489.726562 146.128906 C 487.667969 143.894531 484.703125 140.664062 483.132812 138.953125 C 481.566406 137.242188 478.679688 134.070312 476.722656 131.902344 C 474.765625 129.738281 472.050781 126.707031 470.6875 125.171875 C 469.324219 123.632812 465.597656 119.390625 462.40625 115.738281 C 459.214844 112.089844 455.628906 108 454.433594 106.65625 C 453.238281 105.3125 451 102.84375 449.457031 101.167969 C 447.914062 99.488281 445.597656 97.035156 444.304688 95.707031 C 443.011719 94.382812 441.011719 92.378906 439.859375 91.253906 C 438.707031 90.128906 437.167969 88.660156 436.433594 87.992188 C 435.699219 87.320312 434.246094 86.050781 433.199219 85.164062 C 432.152344 84.277344 430.621094 83.027344 429.796875 82.390625 C 428.972656 81.75 427.6875 80.839844 426.941406 80.371094 C 426.195312 79.898438 425.097656 79.320312 424.503906 79.082031 C 423.910156 78.84375 422.976562 78.550781 422.425781 78.429688 C 421.703125 78.269531 421.117188 78.226562 420.332031 78.277344 C 419.730469 78.3125 418.835938 78.46875 418.347656 78.621094 C 417.859375 78.773438 415.0625 80.042969 412.128906 81.445312 C 409.199219 82.847656 405.570312 84.5625 404.070312 85.261719 C 402.570312 85.957031 398.171875 87.957031 394.300781 89.703125 C 390.425781 91.449219 385.285156 93.761719 382.878906 94.84375 C 380.46875 95.925781 376.8125 97.554688 374.753906 98.460938 C 372.695312 99.371094 367.355469 101.714844 362.886719 103.667969 C 358.421875 105.625 353.136719 107.9375 351.148438 108.8125 C 349.160156 109.6875 344.476562 111.761719 340.742188 113.421875 C 337.007812 115.085938 332.210938 117.226562 330.082031 118.183594 C 327.953125 119.144531 325.070312 120.441406 323.671875 121.070312 C 322.277344 121.703125 319.019531 123.175781 316.4375 124.347656 C 313.855469 125.519531 308.429688 127.992188 304.382812 129.839844 C 300.332031 131.691406 294.25 134.480469 290.867188 136.035156 C 287.480469 137.589844 283.253906 139.53125 281.472656 140.347656 C 279.695312 141.167969 275.441406 143.125 272.019531 144.699219 C 268.597656 146.273438 262.574219 149.046875 258.628906 150.863281 C 254.6875 152.675781 249.234375 155.191406 246.511719 156.449219 C 243.789062 157.707031 237.191406 160.765625 231.851562 163.242188 C 226.511719 165.722656 217.433594 169.953125 211.671875 172.644531 C 205.914062 175.335938 198.777344 178.675781 195.808594 180.074219 C 192.84375 181.46875 188.617188 183.46875 186.417969 184.519531 C 184.21875 185.566406 180.53125 187.339844 178.222656 188.460938 C 175.910156 189.578125 168.472656 193.273438 161.691406 196.667969 C 154.910156 200.0625 149.257812 202.835938 149.136719 202.832031 C 149.015625 202.832031 148.757812 202.742188 148.570312 202.640625 Z M 148.570312 202.640625 " fill-opacity="0.827" fill-rule="nonzero"/></g><path fill="#ffffff" d="M 279.253906 335.925781 C 279.042969 335.847656 278.6875 335.648438 278.460938 335.476562 C 278.230469 335.308594 277.921875 334.929688 277.773438 334.636719 C 277.589844 334.277344 277.5 333.867188 277.5 333.386719 C 277.496094 332.847656 277.578125 332.539062 277.828125 332.109375 C 278.011719 331.796875 278.238281 331.476562 278.332031 331.398438 C 278.425781 331.320312 281.273438 329.820312 284.652344 328.0625 C 288.035156 326.304688 293.085938 323.679688 295.878906 322.230469 C 298.671875 320.777344 305.410156 317.277344 310.855469 314.449219 C 316.300781 311.621094 326.777344 306.175781 334.144531 302.351562 C 341.507812 298.523438 350.503906 293.851562 354.132812 291.96875 C 357.761719 290.082031 362.128906 287.808594 363.839844 286.917969 C 365.550781 286.027344 370.0625 283.683594 373.867188 281.710938 C 377.671875 279.734375 385.921875 275.449219 392.207031 272.1875 C 398.488281 268.921875 409.652344 263.121094 417.015625 259.292969 C 424.378906 255.46875 434.089844 250.421875 438.589844 248.082031 C 443.09375 245.742188 451.261719 241.5 456.738281 238.65625 C 462.21875 235.808594 469.699219 231.921875 473.367188 230.019531 C 477.03125 228.113281 484.484375 224.242188 489.925781 221.414062 C 495.371094 218.585938 503.652344 214.285156 508.328125 211.855469 C 513.007812 209.421875 520.144531 205.710938 524.195312 203.605469 C 528.242188 201.5 531.785156 199.714844 532.066406 199.636719 C 532.355469 199.558594 532.828125 199.535156 533.164062 199.585938 C 533.496094 199.636719 533.972656 199.832031 534.253906 200.039062 C 534.539062 200.246094 534.878906 200.65625 535.042969 200.992188 C 535.214844 201.347656 535.328125 201.820312 535.328125 202.179688 C 535.328125 202.507812 535.242188 202.976562 535.140625 203.21875 C 535.039062 203.464844 534.792969 203.820312 534.597656 204.015625 C 534.40625 204.207031 533.496094 204.757812 532.582031 205.238281 C 531.667969 205.71875 524.953125 209.210938 517.65625 213 C 510.363281 216.789062 498.398438 223.003906 491.070312 226.8125 C 483.742188 230.621094 474.058594 235.652344 469.558594 237.992188 C 465.054688 240.332031 456.089844 244.988281 449.632812 248.339844 C 443.175781 251.695312 435.722656 255.566406 433.070312 256.945312 C 430.417969 258.324219 422.308594 262.539062 415.050781 266.308594 C 407.789062 270.082031 398.796875 274.753906 395.0625 276.695312 C 391.328125 278.632812 384.617188 282.121094 380.148438 284.441406 C 375.679688 286.765625 368.972656 290.25 365.238281 292.191406 C 361.503906 294.128906 354.019531 298.015625 348.609375 300.824219 C 343.203125 303.636719 332.75 309.066406 325.386719 312.890625 C 318.023438 316.71875 309.941406 320.917969 307.429688 322.226562 C 304.914062 323.53125 297.925781 327.164062 291.894531 330.296875 C 282.183594 335.339844 280.855469 335.996094 280.28125 336.027344 C 279.925781 336.046875 279.464844 336.003906 279.253906 335.925781 Z M 279.253906 335.925781 " fill-opacity="1" fill-rule="nonzero"/></svg>