<svg xmlns="http://www.w3.org/2000/svg" xmlns:xlink="http://www.w3.org/1999/xlink" width="1080" zoomAndPan="magnify" viewBox="0 0 810 1012.49997" height="1350" preserveAspectRatio="xMidYMid meet" version="1.2"><defs><clipPath id="14386461cf"><path d="M 50.574219 177.601562 L 765 177.601562 L 765 850.214844 L 50.574219 850.214844 Z M 50.574219 177.601562 "/></clipPath><clipPath id="3c5b4b1637"><path d="M 88.808594 177.601562 L 726.5625 177.601562 C 747.675781 177.601562 764.792969 194.71875 764.792969 215.832031 L 764.792969 811.984375 C 764.792969 833.097656 747.675781 850.214844 726.5625 850.214844 L 88.808594 850.214844 C 67.691406 850.214844 50.574219 833.097656 50.574219 811.984375 L 50.574219 215.832031 C 50.574219 194.71875 67.691406 177.601562 88.808594 177.601562 Z M 88.808594 177.601562 "/></clipPath><clipPath id="36912bc738"><path d="M 354 600 L 462 600 L 462 707.691406 L 354 707.691406 Z M 354 600 "/></clipPath></defs><g id="2edcc2c5ab"><g clip-rule="nonzero" clip-path="url(#14386461cf)"><g clip-rule="nonzero" clip-path="url(#3c5b4b1637)"><path style=" stroke:none;fill-rule:nonzero;fill:#ff6ce7;fill-opacity:1;" d="M 50.574219 177.601562 L 765.226562 177.601562 L 765.226562 850.214844 L 50.574219 850.214844 Z M 50.574219 177.601562 "/></g></g><path style=" stroke:none;fill-rule:nonzero;fill:#7e57c2;fill-opacity:1;" d="M 182.238281 374.882812 L 633.289062 374.882812 L 633.289062 686.21875 L 182.238281 686.21875 Z M 182.238281 374.882812 "/><g clip-rule="nonzero" clip-path="url(#36912bc738)"><path style=" stroke:none;fill-rule:nonzero;fill:#7e57c2;fill-opacity:1;" d="M 407.765625 600.332031 C 406.003906 600.332031 404.25 600.421875 402.5 600.59375 C 400.75 600.765625 399.011719 601.023438 397.289062 601.363281 C 395.5625 601.707031 393.859375 602.136719 392.175781 602.644531 C 390.496094 603.15625 388.839844 603.746094 387.214844 604.417969 C 385.589844 605.09375 384.003906 605.84375 382.453125 606.671875 C 380.902344 607.5 379.394531 608.402344 377.933594 609.378906 C 376.46875 610.355469 375.058594 611.402344 373.699219 612.519531 C 372.339844 613.632812 371.039062 614.8125 369.796875 616.054688 C 368.550781 617.300781 367.371094 618.601562 366.257812 619.960938 C 365.140625 621.316406 364.09375 622.726562 363.117188 624.191406 C 362.140625 625.652344 361.238281 627.15625 360.410156 628.707031 C 359.578125 630.257812 358.828125 631.847656 358.15625 633.46875 C 357.484375 635.09375 356.890625 636.746094 356.378906 638.429688 C 355.871094 640.113281 355.441406 641.816406 355.101562 643.539062 C 354.757812 645.265625 354.5 647 354.328125 648.75 C 354.152344 650.5 354.066406 652.253906 354.066406 654.011719 C 354.066406 655.769531 354.152344 657.523438 354.328125 659.273438 C 354.5 661.023438 354.757812 662.761719 355.101562 664.484375 C 355.441406 666.207031 355.871094 667.910156 356.378906 669.59375 C 356.890625 671.277344 357.484375 672.929688 358.15625 674.554688 C 358.828125 676.179688 359.578125 677.765625 360.410156 679.316406 C 361.238281 680.867188 362.140625 682.371094 363.117188 683.835938 C 364.09375 685.296875 365.140625 686.707031 366.257812 688.066406 C 367.371094 689.425781 368.550781 690.726562 369.796875 691.96875 C 371.039062 693.210938 372.339844 694.390625 373.699219 695.507812 C 375.058594 696.621094 376.46875 697.667969 377.933594 698.644531 C 379.394531 699.621094 380.902344 700.523438 382.453125 701.351562 C 384.003906 702.179688 385.589844 702.933594 387.214844 703.605469 C 388.839844 704.277344 390.496094 704.867188 392.175781 705.378906 C 393.859375 705.890625 395.5625 706.316406 397.289062 706.660156 C 399.011719 707.003906 400.75 707.261719 402.5 707.433594 C 404.25 707.605469 406.003906 707.691406 407.765625 707.691406 C 409.523438 707.691406 411.277344 707.605469 413.027344 707.433594 C 414.777344 707.261719 416.515625 707.003906 418.238281 706.660156 C 419.964844 706.316406 421.667969 705.890625 423.351562 705.378906 C 425.035156 704.867188 426.6875 704.277344 428.3125 703.605469 C 429.9375 702.933594 431.527344 702.179688 433.078125 701.351562 C 434.628906 700.523438 436.132812 699.621094 437.597656 698.644531 C 439.058594 697.667969 440.46875 696.621094 441.828125 695.507812 C 443.1875 694.390625 444.488281 693.210938 445.734375 691.96875 C 446.976562 690.726562 448.15625 689.425781 449.273438 688.066406 C 450.386719 686.707031 451.433594 685.296875 452.410156 683.835938 C 453.386719 682.371094 454.292969 680.867188 455.121094 679.316406 C 455.949219 677.765625 456.699219 676.179688 457.375 674.554688 C 458.046875 672.929688 458.636719 671.277344 459.148438 669.59375 C 459.660156 667.910156 460.085938 666.207031 460.429688 664.484375 C 460.773438 662.761719 461.03125 661.023438 461.203125 659.273438 C 461.375 657.523438 461.460938 655.769531 461.460938 654.011719 C 461.460938 652.253906 461.375 650.5 461.203125 648.75 C 461.03125 647 460.773438 645.265625 460.429688 643.539062 C 460.085938 641.816406 459.660156 640.113281 459.148438 638.429688 C 458.636719 636.746094 458.046875 635.09375 457.375 633.46875 C 456.699219 631.847656 455.949219 630.257812 455.121094 628.707031 C 454.292969 627.15625 453.386719 625.652344 452.410156 624.191406 C 451.433594 622.726562 450.386719 621.316406 449.273438 619.960938 C 448.15625 618.601562 446.976562 617.300781 445.734375 616.054688 C 444.488281 614.8125 443.1875 613.632812 441.828125 612.519531 C 440.46875 611.402344 439.058594 610.355469 437.597656 609.378906 C 436.132812 608.402344 434.628906 607.5 433.078125 606.671875 C 431.527344 605.84375 429.9375 605.09375 428.3125 604.417969 C 426.6875 603.746094 425.035156 603.15625 423.351562 602.644531 C 421.667969 602.136719 419.964844 601.707031 418.238281 601.363281 C 416.515625 601.023438 414.777344 600.765625 413.027344 600.59375 C 411.277344 600.421875 409.523438 600.332031 407.765625 600.332031 Z M 407.765625 600.332031 "/></g><path style=" stroke:none;fill-rule:nonzero;fill:#5e35b1;fill-opacity:1;" d="M 407.765625 621.804688 C 406.710938 621.804688 405.65625 621.855469 404.605469 621.960938 C 403.554688 622.0625 402.515625 622.21875 401.480469 622.425781 C 400.445312 622.628906 399.421875 622.886719 398.410156 623.191406 C 397.402344 623.5 396.410156 623.851562 395.433594 624.257812 C 394.460938 624.660156 393.507812 625.109375 392.578125 625.609375 C 391.644531 626.105469 390.742188 626.648438 389.863281 627.234375 C 388.988281 627.820312 388.140625 628.445312 387.324219 629.117188 C 386.511719 629.785156 385.730469 630.492188 384.984375 631.238281 C 384.238281 631.984375 383.527344 632.765625 382.859375 633.582031 C 382.191406 634.394531 381.5625 635.242188 380.976562 636.117188 C 380.390625 636.996094 379.847656 637.898438 379.351562 638.828125 C 378.851562 639.761719 378.402344 640.710938 378 641.6875 C 377.59375 642.660156 377.238281 643.652344 376.933594 644.664062 C 376.628906 645.671875 376.371094 646.695312 376.164062 647.730469 C 375.960938 648.761719 375.804688 649.804688 375.703125 650.855469 C 375.597656 651.90625 375.546875 652.957031 375.546875 654.011719 C 375.546875 655.066406 375.597656 656.121094 375.703125 657.167969 C 375.804688 658.21875 375.960938 659.261719 376.164062 660.296875 C 376.371094 661.332031 376.628906 662.351562 376.933594 663.363281 C 377.238281 664.371094 377.59375 665.363281 378 666.335938 C 378.402344 667.3125 378.851562 668.265625 379.351562 669.195312 C 379.847656 670.125 380.390625 671.027344 380.976562 671.90625 C 381.5625 672.78125 382.191406 673.628906 382.859375 674.445312 C 383.527344 675.257812 384.238281 676.039062 384.984375 676.785156 C 385.730469 677.53125 386.511719 678.238281 387.324219 678.910156 C 388.140625 679.578125 388.988281 680.207031 389.863281 680.792969 C 390.742188 681.378906 391.644531 681.917969 392.578125 682.417969 C 393.507812 682.914062 394.460938 683.363281 395.433594 683.769531 C 396.410156 684.171875 397.402344 684.527344 398.410156 684.832031 C 399.421875 685.140625 400.445312 685.394531 401.480469 685.601562 C 402.515625 685.804688 403.554688 685.960938 404.605469 686.0625 C 405.65625 686.167969 406.710938 686.21875 407.765625 686.21875 C 408.820312 686.21875 409.871094 686.167969 410.921875 686.0625 C 411.972656 685.960938 413.015625 685.804688 414.050781 685.601562 C 415.085938 685.394531 416.105469 685.140625 417.117188 684.832031 C 418.125 684.527344 419.117188 684.171875 420.09375 683.769531 C 421.070312 683.363281 422.019531 682.914062 422.953125 682.417969 C 423.882812 681.917969 424.785156 681.378906 425.664062 680.792969 C 426.539062 680.207031 427.386719 679.578125 428.203125 678.910156 C 429.019531 678.238281 429.800781 677.53125 430.546875 676.785156 C 431.292969 676.039062 432 675.257812 432.667969 674.445312 C 433.339844 673.628906 433.964844 672.78125 434.550781 671.90625 C 435.136719 671.027344 435.679688 670.125 436.179688 669.195312 C 436.675781 668.265625 437.125 667.3125 437.53125 666.335938 C 437.933594 665.363281 438.289062 664.371094 438.59375 663.363281 C 438.902344 662.351562 439.15625 661.332031 439.363281 660.296875 C 439.570312 659.261719 439.722656 658.21875 439.828125 657.167969 C 439.929688 656.121094 439.980469 655.066406 439.980469 654.011719 C 439.980469 652.957031 439.929688 651.90625 439.828125 650.855469 C 439.722656 649.804688 439.570312 648.761719 439.363281 647.730469 C 439.15625 646.695312 438.902344 645.671875 438.59375 644.664062 C 438.289062 643.652344 437.933594 642.660156 437.53125 641.6875 C 437.125 640.710938 436.675781 639.761719 436.179688 638.828125 C 435.679688 637.898438 435.136719 636.996094 434.550781 636.117188 C 433.964844 635.242188 433.339844 634.394531 432.667969 633.582031 C 432 632.765625 431.292969 631.984375 430.546875 631.238281 C 429.800781 630.492188 429.019531 629.785156 428.203125 629.117188 C 427.386719 628.445312 426.539062 627.820312 425.664062 627.234375 C 424.785156 626.648438 423.882812 626.105469 422.953125 625.609375 C 422.019531 625.109375 421.070312 624.660156 420.09375 624.257812 C 419.117188 623.851562 418.125 623.5 417.117188 623.191406 C 416.105469 622.886719 415.085938 622.628906 414.050781 622.425781 C 413.015625 622.21875 411.972656 622.0625 410.921875 621.960938 C 409.871094 621.855469 408.820312 621.804688 407.765625 621.804688 Z M 407.765625 621.804688 "/><path style=" stroke:none;fill-rule:nonzero;fill:#d7ccc8;fill-opacity:1;" d="M 579.59375 342.675781 L 418.503906 374.882812 L 397.023438 374.882812 L 235.9375 342.675781 L 214.457031 396.355469 L 214.457031 654.011719 L 601.070312 654.011719 L 601.070312 396.355469 Z M 579.59375 342.675781 "/><path style=" stroke:none;fill-rule:nonzero;fill:#bcaaa4;fill-opacity:1;" d="M 235.9375 621.804688 L 397.023438 621.804688 L 397.023438 654.011719 L 418.503906 654.011719 L 418.503906 621.804688 L 579.59375 621.804688 L 601.070312 654.011719 L 214.457031 654.011719 Z M 235.9375 621.804688 "/><path style=" stroke:none;fill-rule:nonzero;fill:#efebe9;fill-opacity:1;" d="M 579.59375 342.675781 C 579.59375 342.675781 418.503906 342.675781 418.503906 374.882812 C 418.503906 407.089844 418.503906 654.011719 418.503906 654.011719 C 418.503906 621.804688 579.59375 621.804688 579.59375 621.804688 Z M 235.9375 342.675781 C 235.9375 342.675781 397.023438 342.675781 397.023438 374.882812 C 397.023438 407.089844 397.023438 654.011719 397.023438 654.011719 C 397.023438 621.804688 235.9375 621.804688 235.9375 621.804688 Z M 235.9375 342.675781 "/><path style=" stroke:none;fill-rule:nonzero;fill:#ff8a65;fill-opacity:1;" d="M 336.886719 324.425781 L 339.03125 333.015625 C 340.105469 340.53125 346.550781 345.898438 352.996094 346.972656 L 361.585938 349.117188 C 365.882812 350.191406 365.882812 356.632812 361.585938 356.632812 L 352.996094 358.78125 C 345.476562 359.855469 340.105469 366.296875 339.03125 372.738281 L 336.886719 381.324219 C 335.8125 385.621094 329.367188 385.621094 329.367188 381.324219 L 327.21875 372.738281 C 326.144531 365.222656 319.703125 359.855469 313.257812 358.78125 L 304.667969 356.632812 C 300.371094 355.558594 300.371094 349.117188 304.667969 349.117188 L 313.257812 346.972656 C 320.777344 345.898438 326.144531 339.457031 327.21875 333.015625 L 329.367188 324.425781 C 329.367188 320.132812 335.8125 320.132812 336.886719 324.425781 Z M 336.886719 324.425781 "/><path style=" stroke:none;fill-rule:nonzero;fill:#ff7043;fill-opacity:1;" d="M 517.304688 452.179688 L 518.378906 458.621094 C 519.453125 462.917969 522.675781 467.210938 528.042969 468.285156 L 534.488281 469.359375 C 537.710938 470.433594 537.710938 473.652344 534.488281 474.726562 L 528.042969 475.800781 C 523.75 476.875 519.453125 480.09375 518.378906 485.460938 L 517.304688 491.902344 C 516.230469 495.125 513.007812 495.125 511.933594 491.902344 L 510.859375 485.460938 C 509.789062 481.167969 506.566406 476.875 501.195312 475.800781 L 494.753906 474.726562 C 491.53125 473.652344 491.53125 470.433594 494.753906 469.359375 L 501.195312 468.285156 C 505.492188 467.210938 509.789062 463.992188 510.859375 458.621094 L 511.933594 452.179688 C 513.007812 448.960938 517.304688 448.960938 517.304688 452.179688 Z M 517.304688 452.179688 "/><path style=" stroke:none;fill-rule:nonzero;fill:#ff8a65;fill-opacity:1;" d="M 356.214844 527.332031 L 357.289062 533.773438 C 358.363281 538.066406 361.585938 542.359375 366.957031 543.433594 L 373.398438 544.507812 C 376.621094 545.582031 376.621094 548.800781 373.398438 549.875 L 366.957031 550.949219 C 362.660156 552.023438 358.363281 555.242188 357.289062 560.613281 L 356.214844 567.054688 C 355.140625 570.273438 351.921875 570.273438 350.847656 567.054688 L 349.773438 560.613281 C 348.699219 556.316406 345.476562 552.023438 340.105469 550.949219 L 333.664062 549.875 C 330.441406 548.800781 330.441406 545.582031 333.664062 544.507812 L 340.105469 543.433594 C 344.402344 542.359375 348.699219 539.140625 349.773438 533.773438 L 350.847656 527.332031 C 351.921875 524.109375 356.214844 524.109375 356.214844 527.332031 Z M 356.214844 527.332031 "/></g></svg>