<svg xmlns="http://www.w3.org/2000/svg" xmlns:xlink="http://www.w3.org/1999/xlink" width="1080" zoomAndPan="magnify" viewBox="0 0 810 1012.49997" height="1350" preserveAspectRatio="xMidYMid meet" version="1.0"><defs><clipPath id="9770c85fc1"><path d="M 0.199219 76 L 809.800781 76 L 809.800781 839.15625 L 0.199219 839.15625 Z M 0.199219 76 " clip-rule="nonzero"/></clipPath><clipPath id="a724e8251c"><path d="M 38.429688 76.714844 L 771.570312 76.714844 C 781.707031 76.714844 791.433594 80.742188 798.601562 87.914062 C 805.773438 95.082031 809.800781 104.808594 809.800781 114.945312 L 809.800781 800.925781 C 809.800781 811.066406 805.773438 820.789062 798.601562 827.960938 C 791.433594 835.128906 781.707031 839.15625 771.570312 839.15625 L 38.429688 839.15625 C 28.292969 839.15625 18.566406 835.128906 11.398438 827.960938 C 4.226562 820.789062 0.199219 811.066406 0.199219 800.925781 L 0.199219 114.945312 C 0.199219 104.808594 4.226562 95.082031 11.398438 87.914062 C 18.566406 80.742188 28.292969 76.714844 38.429688 76.714844 Z M 38.429688 76.714844 " clip-rule="nonzero"/></clipPath><clipPath id="ebb3d71edd"><path d="M 0.199219 0.523438 L 809.800781 0.523438 L 809.800781 763.15625 L 0.199219 763.15625 Z M 0.199219 0.523438 " clip-rule="nonzero"/></clipPath><clipPath id="d9af2b4097"><path d="M 38.429688 0.714844 L 771.570312 0.714844 C 781.707031 0.714844 791.433594 4.742188 798.601562 11.914062 C 805.773438 19.082031 809.800781 28.808594 809.800781 38.945312 L 809.800781 724.925781 C 809.800781 735.066406 805.773438 744.789062 798.601562 751.960938 C 791.433594 759.128906 781.707031 763.15625 771.570312 763.15625 L 38.429688 763.15625 C 28.292969 763.15625 18.566406 759.128906 11.398438 751.960938 C 4.226562 744.789062 0.199219 735.066406 0.199219 724.925781 L 0.199219 38.945312 C 0.199219 28.808594 4.226562 19.082031 11.398438 11.914062 C 18.566406 4.742188 28.292969 0.714844 38.429688 0.714844 Z M 38.429688 0.714844 " clip-rule="nonzero"/></clipPath><clipPath id="e92a0b28ff"><rect x="0" width="810" y="0" height="764"/></clipPath><clipPath id="e41f979252"><path d="M 344 555 L 466 555 L 466 677.566406 L 344 677.566406 Z M 344 555 " clip-rule="nonzero"/></clipPath></defs><g clip-path="url(#9770c85fc1)"><g clip-path="url(#a724e8251c)"><g transform="matrix(1, 0, 0, 1, 0.000000000000000028, 76)"><g clip-path="url(#e92a0b28ff)"><g clip-path="url(#ebb3d71edd)"><g clip-path="url(#d9af2b4097)"><path fill="#586dfb" d="M 0.199219 0.714844 L 810.292969 0.714844 L 810.292969 763.15625 L 0.199219 763.15625 Z M 0.199219 0.714844 " fill-opacity="1" fill-rule="nonzero"/></g></g></g></g></g></g><path fill="#7e57c2" d="M 149.441406 300.339844 L 660.242188 300.339844 L 660.242188 653.226562 L 149.441406 653.226562 Z M 149.441406 300.339844 " fill-opacity="1" fill-rule="nonzero"/><g clip-path="url(#e41f979252)"><path fill="#7e57c2" d="M 404.84375 555.878906 C 402.851562 555.878906 400.863281 555.976562 398.882812 556.171875 C 396.898438 556.367188 394.933594 556.660156 392.980469 557.046875 C 391.023438 557.4375 389.097656 557.921875 387.191406 558.5 C 385.285156 559.078125 383.410156 559.75 381.570312 560.511719 C 379.730469 561.273438 377.933594 562.125 376.175781 563.0625 C 374.421875 564.003906 372.714844 565.027344 371.058594 566.132812 C 369.402344 567.242188 367.804688 568.425781 366.265625 569.691406 C 364.726562 570.953125 363.25 572.289062 361.84375 573.699219 C 360.433594 575.109375 359.097656 576.582031 357.835938 578.125 C 356.570312 579.664062 355.386719 581.261719 354.28125 582.917969 C 353.175781 584.578125 352.152344 586.285156 351.210938 588.042969 C 350.273438 589.796875 349.421875 591.597656 348.660156 593.4375 C 347.898438 595.28125 347.230469 597.152344 346.652344 599.058594 C 346.074219 600.96875 345.589844 602.898438 345.199219 604.851562 C 344.8125 606.804688 344.519531 608.773438 344.324219 610.757812 C 344.128906 612.742188 344.03125 614.730469 344.03125 616.722656 C 344.03125 618.714844 344.128906 620.703125 344.324219 622.6875 C 344.519531 624.667969 344.8125 626.636719 345.199219 628.589844 C 345.589844 630.546875 346.074219 632.476562 346.652344 634.382812 C 347.230469 636.289062 347.898438 638.164062 348.660156 640.003906 C 349.421875 641.847656 350.273438 643.644531 351.210938 645.402344 C 352.152344 647.160156 353.175781 648.867188 354.28125 650.523438 C 355.386719 652.179688 356.570312 653.78125 357.835938 655.320312 C 359.097656 656.859375 360.433594 658.335938 361.84375 659.746094 C 363.25 661.152344 364.726562 662.488281 366.265625 663.753906 C 367.804688 665.019531 369.402344 666.203125 371.058594 667.3125 C 372.714844 668.417969 374.421875 669.441406 376.175781 670.378906 C 377.933594 671.320312 379.730469 672.171875 381.570312 672.933594 C 383.410156 673.695312 385.285156 674.367188 387.191406 674.945312 C 389.097656 675.523438 391.023438 676.007812 392.980469 676.394531 C 394.933594 676.785156 396.898438 677.078125 398.882812 677.273438 C 400.863281 677.46875 402.851562 677.566406 404.84375 677.566406 C 406.832031 677.566406 408.820312 677.46875 410.800781 677.273438 C 412.785156 677.078125 414.753906 676.785156 416.707031 676.394531 C 418.660156 676.007812 420.589844 675.523438 422.496094 674.945312 C 424.398438 674.367188 426.273438 673.695312 428.113281 672.933594 C 429.953125 672.171875 431.75 671.320312 433.507812 670.378906 C 435.265625 669.441406 436.96875 668.417969 438.625 667.3125 C 440.28125 666.203125 441.878906 665.019531 443.417969 663.753906 C 444.957031 662.488281 446.433594 661.152344 447.839844 659.746094 C 449.25 658.335938 450.585938 656.859375 451.847656 655.320312 C 453.113281 653.78125 454.296875 652.179688 455.402344 650.523438 C 456.511719 648.867188 457.53125 647.160156 458.472656 645.402344 C 459.410156 643.644531 460.261719 641.847656 461.023438 640.003906 C 461.785156 638.164062 462.457031 636.289062 463.035156 634.382812 C 463.613281 632.476562 464.09375 630.546875 464.484375 628.589844 C 464.871094 626.636719 465.164062 624.667969 465.359375 622.6875 C 465.554688 620.703125 465.652344 618.714844 465.652344 616.722656 C 465.652344 614.730469 465.554688 612.742188 465.359375 610.757812 C 465.164062 608.773438 464.871094 606.804688 464.484375 604.851562 C 464.09375 602.898438 463.613281 600.96875 463.035156 599.058594 C 462.457031 597.152344 461.785156 595.28125 461.023438 593.4375 C 460.261719 591.597656 459.410156 589.796875 458.472656 588.042969 C 457.53125 586.285156 456.511719 584.578125 455.402344 582.917969 C 454.296875 581.261719 453.113281 579.664062 451.847656 578.125 C 450.585938 576.582031 449.25 575.109375 447.839844 573.699219 C 446.433594 572.289062 444.957031 570.953125 443.417969 569.691406 C 441.878906 568.425781 440.28125 567.242188 438.625 566.132812 C 436.96875 565.027344 435.265625 564.003906 433.507812 563.0625 C 431.75 562.125 429.953125 561.273438 428.113281 560.511719 C 426.273438 559.75 424.398438 559.078125 422.496094 558.5 C 420.589844 557.921875 418.660156 557.4375 416.707031 557.046875 C 414.753906 556.660156 412.785156 556.367188 410.800781 556.171875 C 408.820312 555.976562 406.832031 555.878906 404.84375 555.878906 Z M 404.84375 555.878906 " fill-opacity="1" fill-rule="nonzero"/></g><path fill="#5e35b1" d="M 404.84375 580.214844 C 403.648438 580.214844 402.457031 580.273438 401.265625 580.390625 C 400.078125 580.507812 398.894531 580.683594 397.722656 580.917969 C 396.550781 581.152344 395.394531 581.441406 394.25 581.789062 C 393.105469 582.136719 391.984375 582.539062 390.878906 582.996094 C 389.777344 583.453125 388.695312 583.964844 387.644531 584.527344 C 386.589844 585.089844 385.566406 585.703125 384.570312 586.367188 C 383.578125 587.03125 382.621094 587.746094 381.695312 588.503906 C 380.773438 589.261719 379.886719 590.0625 379.042969 590.910156 C 378.199219 591.753906 377.394531 592.640625 376.636719 593.5625 C 375.878906 594.488281 375.167969 595.445312 374.503906 596.441406 C 373.839844 597.433594 373.226562 598.460938 372.664062 599.511719 C 372.101562 600.566406 371.589844 601.648438 371.132812 602.75 C 370.675781 603.855469 370.273438 604.980469 369.925781 606.125 C 369.582031 607.269531 369.289062 608.425781 369.058594 609.601562 C 368.824219 610.773438 368.648438 611.953125 368.53125 613.144531 C 368.414062 614.332031 368.355469 615.527344 368.355469 616.722656 C 368.355469 617.917969 368.414062 619.109375 368.53125 620.300781 C 368.648438 621.488281 368.824219 622.671875 369.058594 623.84375 C 369.289062 625.015625 369.582031 626.175781 369.925781 627.320312 C 370.273438 628.464844 370.675781 629.585938 371.132812 630.691406 C 371.589844 631.796875 372.101562 632.875 372.664062 633.929688 C 373.226562 634.984375 373.839844 636.007812 374.503906 637.003906 C 375.167969 637.996094 375.878906 638.957031 376.636719 639.882812 C 377.394531 640.804688 378.199219 641.691406 379.042969 642.535156 C 379.886719 643.378906 380.773438 644.183594 381.695312 644.941406 C 382.621094 645.699219 383.578125 646.410156 384.570312 647.074219 C 385.566406 647.738281 386.589844 648.351562 387.644531 648.917969 C 388.695312 649.480469 389.777344 649.992188 390.878906 650.449219 C 391.984375 650.90625 393.105469 651.308594 394.25 651.65625 C 395.394531 652.003906 396.550781 652.292969 397.722656 652.527344 C 398.894531 652.757812 400.078125 652.933594 401.265625 653.050781 C 402.457031 653.167969 403.648438 653.226562 404.84375 653.226562 C 406.035156 653.226562 407.230469 653.167969 408.417969 653.050781 C 409.609375 652.933594 410.789062 652.757812 411.960938 652.527344 C 413.132812 652.292969 414.289062 652.003906 415.433594 651.65625 C 416.578125 651.308594 417.699219 650.90625 418.804688 650.449219 C 419.910156 649.992188 420.988281 649.480469 422.042969 648.917969 C 423.09375 648.351562 424.117188 647.738281 425.113281 647.074219 C 426.105469 646.410156 427.066406 645.699219 427.988281 644.941406 C 428.914062 644.183594 429.796875 643.378906 430.640625 642.535156 C 431.488281 641.691406 432.289062 640.804688 433.046875 639.882812 C 433.804688 638.957031 434.515625 637.996094 435.179688 637.003906 C 435.84375 636.007812 436.457031 634.984375 437.019531 633.929688 C 437.582031 632.875 438.09375 631.796875 438.550781 630.691406 C 439.007812 629.585938 439.410156 628.464844 439.757812 627.320312 C 440.105469 626.175781 440.394531 625.015625 440.625 623.84375 C 440.859375 622.671875 441.035156 621.488281 441.152344 620.300781 C 441.269531 619.109375 441.328125 617.917969 441.328125 616.722656 C 441.328125 615.527344 441.269531 614.332031 441.152344 613.144531 C 441.035156 611.953125 440.859375 610.773438 440.625 609.601562 C 440.394531 608.425781 440.105469 607.269531 439.757812 606.125 C 439.410156 604.980469 439.007812 603.855469 438.550781 602.75 C 438.09375 601.648438 437.582031 600.566406 437.019531 599.511719 C 436.457031 598.460938 435.84375 597.433594 435.179688 596.441406 C 434.515625 595.445312 433.804688 594.488281 433.046875 593.5625 C 432.289062 592.640625 431.488281 591.753906 430.640625 590.910156 C 429.796875 590.0625 428.914062 589.261719 427.988281 588.503906 C 427.066406 587.746094 426.105469 587.03125 425.113281 586.367188 C 424.117188 585.703125 423.09375 585.089844 422.042969 584.527344 C 420.988281 583.964844 419.910156 583.453125 418.804688 582.996094 C 417.699219 582.539062 416.578125 582.136719 415.433594 581.789062 C 414.289062 581.441406 413.132812 581.152344 411.960938 580.917969 C 410.789062 580.683594 409.609375 580.507812 408.417969 580.390625 C 407.230469 580.273438 406.035156 580.214844 404.84375 580.214844 Z M 404.84375 580.214844 " fill-opacity="1" fill-rule="nonzero"/><path fill="#d7ccc8" d="M 599.433594 263.835938 L 417.003906 300.339844 L 392.679688 300.339844 L 210.25 263.835938 L 185.925781 324.679688 L 185.925781 616.722656 L 623.757812 616.722656 L 623.757812 324.679688 Z M 599.433594 263.835938 " fill-opacity="1" fill-rule="nonzero"/><path fill="#bcaaa4" d="M 210.25 580.214844 L 392.679688 580.214844 L 392.679688 616.722656 L 417.003906 616.722656 L 417.003906 580.214844 L 599.433594 580.214844 L 623.757812 616.722656 L 185.925781 616.722656 Z M 210.25 580.214844 " fill-opacity="1" fill-rule="nonzero"/><path fill="#efebe9" d="M 599.433594 263.835938 C 599.433594 263.835938 417.003906 263.835938 417.003906 300.339844 C 417.003906 336.847656 417.003906 616.722656 417.003906 616.722656 C 417.003906 580.214844 599.433594 580.214844 599.433594 580.214844 Z M 210.25 263.835938 C 210.25 263.835938 392.679688 263.835938 392.679688 300.339844 C 392.679688 336.847656 392.679688 616.722656 392.679688 616.722656 C 392.679688 580.214844 210.25 580.214844 210.25 580.214844 Z M 210.25 263.835938 " fill-opacity="1" fill-rule="nonzero"/><path fill="#ff8a65" d="M 324.574219 243.148438 L 327.003906 252.882812 C 328.222656 261.402344 335.519531 267.484375 342.816406 268.703125 L 352.546875 271.136719 C 357.410156 272.351562 357.410156 279.65625 352.546875 279.65625 L 342.816406 282.089844 C 334.304688 283.304688 328.222656 290.605469 327.003906 297.90625 L 324.574219 307.640625 C 323.355469 312.507812 316.058594 312.507812 316.058594 307.640625 L 313.628906 297.90625 C 312.410156 289.390625 305.113281 283.304688 297.816406 282.089844 L 288.085938 279.65625 C 283.222656 278.4375 283.222656 271.136719 288.085938 271.136719 L 297.816406 268.703125 C 306.332031 267.484375 312.410156 260.183594 313.628906 252.882812 L 316.058594 243.148438 C 316.058594 238.28125 323.355469 238.28125 324.574219 243.148438 Z M 324.574219 243.148438 " fill-opacity="1" fill-rule="nonzero"/><path fill="#ff7043" d="M 528.894531 387.953125 L 530.109375 395.253906 C 531.328125 400.121094 534.976562 404.988281 541.054688 406.207031 L 548.351562 407.421875 C 552 408.640625 552 412.292969 548.351562 413.507812 L 541.054688 414.726562 C 536.191406 415.941406 531.328125 419.59375 530.109375 425.675781 L 528.894531 432.976562 C 527.675781 436.628906 524.027344 436.628906 522.8125 432.976562 L 521.597656 425.675781 C 520.378906 420.808594 516.730469 415.941406 510.652344 414.726562 L 503.355469 413.507812 C 499.707031 412.292969 499.707031 408.640625 503.355469 407.421875 L 510.652344 406.207031 C 515.515625 404.988281 520.378906 401.339844 521.597656 395.253906 L 522.8125 387.953125 C 524.027344 384.304688 528.894531 384.304688 528.894531 387.953125 Z M 528.894531 387.953125 " fill-opacity="1" fill-rule="nonzero"/><path fill="#ff8a65" d="M 346.464844 473.132812 L 347.679688 480.433594 C 348.898438 485.300781 352.546875 490.167969 358.625 491.386719 L 365.925781 492.601562 C 369.574219 493.820312 369.574219 497.46875 365.925781 498.6875 L 358.625 499.90625 C 353.761719 501.121094 348.898438 504.773438 347.679688 510.855469 L 346.464844 518.15625 C 345.25 521.808594 341.601562 521.808594 340.382812 518.15625 L 339.167969 510.855469 C 337.953125 505.988281 334.304688 501.121094 328.222656 499.90625 L 320.925781 498.6875 C 317.277344 497.46875 317.277344 493.820312 320.925781 492.601562 L 328.222656 491.386719 C 333.085938 490.167969 337.953125 486.519531 339.167969 480.433594 L 340.382812 473.132812 C 341.601562 469.484375 346.464844 469.484375 346.464844 473.132812 Z M 346.464844 473.132812 " fill-opacity="1" fill-rule="nonzero"/></svg>