<svg xmlns="http://www.w3.org/2000/svg" xmlns:xlink="http://www.w3.org/1999/xlink" width="1080" zoomAndPan="magnify" viewBox="0 0 810 1012.49997" height="1350" preserveAspectRatio="xMidYMid meet" version="1.0"><defs><clipPath id="8526fa1ceb"><path d="M 0.199219 44.335938 L 809.800781 44.335938 L 809.800781 967.667969 L 0.199219 967.667969 Z M 0.199219 44.335938 " clip-rule="nonzero"/></clipPath><clipPath id="ddddff9201"><path d="M 0.199219 891.214844 L 0.199219 120.785156 C 0.199219 78.496094 17.050781 44.335938 37.90625 44.335938 L 772.003906 44.335938 C 792.859375 44.335938 809.707031 78.496094 809.707031 120.785156 L 809.707031 891.03125 C 809.707031 933.316406 792.859375 967.480469 772.003906 967.480469 L 37.90625 967.480469 C 17.140625 967.667969 0.199219 933.503906 0.199219 891.214844 Z M 0.199219 891.214844 " clip-rule="nonzero"/></clipPath><clipPath id="acd34b3f38"><path d="M 0.199219 0.335938 L 809.800781 0.335938 L 809.800781 923.667969 L 0.199219 923.667969 Z M 0.199219 0.335938 " clip-rule="nonzero"/></clipPath><clipPath id="eff3e65679"><path d="M 0.199219 847.214844 L 0.199219 76.785156 C 0.199219 34.496094 17.050781 0.335938 37.90625 0.335938 L 772.003906 0.335938 C 792.859375 0.335938 809.707031 34.496094 809.707031 76.785156 L 809.707031 847.03125 C 809.707031 889.316406 792.859375 923.480469 772.003906 923.480469 L 37.90625 923.480469 C 17.140625 923.667969 0.199219 889.503906 0.199219 847.214844 Z M 0.199219 847.214844 " clip-rule="nonzero"/></clipPath><clipPath id="6bdfd9f240"><rect x="0" width="810" y="0" height="924"/></clipPath><clipPath id="c98022648f"><path d="M 11.742188 106.261719 L 801.523438 106.261719 L 801.523438 905.882812 L 11.742188 905.882812 Z M 11.742188 106.261719 " clip-rule="nonzero"/></clipPath><clipPath id="a9ab6399dd"><path d="M 11.742188 839.542969 L 11.742188 172.457031 C 11.742188 135.84375 28.179688 106.261719 48.527344 106.261719 L 764.652344 106.261719 C 784.996094 106.261719 801.433594 135.84375 801.433594 172.457031 L 801.433594 839.382812 C 801.433594 875.996094 784.996094 905.578125 764.652344 905.578125 L 48.527344 905.578125 C 28.269531 905.738281 11.742188 876.15625 11.742188 839.542969 Z M 11.742188 839.542969 " clip-rule="nonzero"/></clipPath><clipPath id="547b81fa03"><path d="M 0.742188 0.261719 L 790.523438 0.261719 L 790.523438 799.792969 L 0.742188 799.792969 Z M 0.742188 0.261719 " clip-rule="nonzero"/></clipPath><clipPath id="8780dc45ca"><path d="M 0.742188 733.542969 L 0.742188 66.457031 C 0.742188 29.84375 17.179688 0.261719 37.527344 0.261719 L 753.652344 0.261719 C 773.996094 0.261719 790.433594 29.84375 790.433594 66.457031 L 790.433594 733.382812 C 790.433594 769.996094 773.996094 799.578125 753.652344 799.578125 L 37.527344 799.578125 C 17.269531 799.738281 0.742188 770.15625 0.742188 733.542969 Z M 0.742188 733.542969 " clip-rule="nonzero"/></clipPath><clipPath id="8e4feb59ea"><rect x="0" width="791" y="0" height="800"/></clipPath><clipPath id="f0cf497bf6"><path d="M 199 342 L 611 342 L 611 734.527344 L 199 734.527344 Z M 199 342 " clip-rule="nonzero"/></clipPath><clipPath id="6c3c9e9971"><path d="M 319 342 L 611 342 L 611 734.527344 L 319 734.527344 Z M 319 342 " clip-rule="nonzero"/></clipPath><clipPath id="7eeb8bcce0"><path d="M 362 277.25 L 507 277.25 L 507 373 L 362 373 Z M 362 277.25 " clip-rule="nonzero"/></clipPath></defs><g clip-path="url(#8526fa1ceb)"><g clip-path="url(#ddddff9201)"><g transform="matrix(1, 0, 0, 1, 0.000000000000000028, 44)"><g clip-path="url(#6bdfd9f240)"><g clip-path="url(#acd34b3f38)"><g clip-path="url(#eff3e65679)"><path fill="#ebdfdf" d="M 0.199219 0.335938 L 809.605469 0.335938 L 809.605469 923.667969 L 0.199219 923.667969 Z M 0.199219 0.335938 " fill-opacity="1" fill-rule="nonzero"/></g></g></g></g></g></g><g clip-path="url(#c98022648f)"><g clip-path="url(#a9ab6399dd)"><g transform="matrix(1, 0, 0, 1, 11, 106)"><g clip-path="url(#8e4feb59ea)"><g clip-path="url(#547b81fa03)"><g clip-path="url(#8780dc45ca)"><path fill="#fff7f7" d="M 0.742188 0.261719 L 790.523438 0.261719 L 790.523438 799.882812 L 0.742188 799.882812 Z M 0.742188 0.261719 " fill-opacity="1" fill-rule="nonzero"/></g></g></g></g></g></g><g clip-path="url(#f0cf497bf6)"><path fill="#fd0000" d="M 346.796875 368.058594 C 335.011719 368.117188 323.253906 368.59375 311.527344 369.902344 C 302.390625 370.921875 293.34375 372.351562 284.441406 374.632812 C 250.261719 383.394531 226.054688 404.085938 211.144531 435.890625 C 205.335938 448.277344 203.90625 461.734375 201.773438 475.003906 C 200.46875 483.101562 199.976562 491.300781 199.675781 499.484375 C 199.316406 509.445312 198.882812 519.410156 199.492188 529.398438 C 200.03125 538.347656 201.046875 547.246094 202.539062 556.089844 C 204.773438 569.3125 209.054688 581.9375 214.3125 594.21875 C 221.8125 611.757812 231.378906 628.183594 241.910156 644.054688 C 249.664062 655.726562 258.136719 666.847656 267.660156 677.140625 C 275.398438 685.496094 283.765625 693.199219 292.234375 700.785156 C 298.433594 706.339844 304.789062 711.714844 311.875 716.164062 C 319.613281 721.027344 327.742188 725.054688 336.425781 727.964844 C 336.554688 728.085938 336.695312 728.1875 336.851562 728.265625 C 344.039062 730.851562 350.996094 734.144531 358.917969 734.25 C 362.726562 734.308594 366.496094 734.527344 370.273438 733.847656 C 376.898438 732.648438 383.171875 730.324219 389.46875 728.050781 C 396.773438 725.410156 404.011719 722.644531 411.710938 721.207031 C 413.769531 720.824219 415.832031 720.492188 417.898438 720.207031 C 422.6875 719.542969 427.476562 719.117188 432.3125 718.839844 C 434.847656 718.695312 437.417969 718.308594 439.917969 718.566406 C 443.90625 718.976562 447.835938 719.9375 451.816406 720.480469 C 456.28125 721.078125 460.683594 722.050781 465.171875 722.5 C 468.84375 722.867188 472.511719 723.097656 476.191406 723.289062 C 482.113281 723.613281 488.046875 724.070312 493.929688 723.175781 C 505.15625 721.472656 515.054688 716.796875 523.15625 708.808594 C 527.886719 704.144531 532.230469 699.078125 536.6875 694.144531 C 540.941406 689.4375 545.332031 684.832031 548.945312 679.605469 C 556.628906 668.488281 563.890625 657.101562 570.503906 645.304688 C 576.820312 634.054688 582.871094 622.703125 587.304688 610.546875 C 589.453125 604.652344 590.800781 598.5 593.171875 592.699219 C 597.964844 580.957031 602.304688 569.054688 605.019531 556.636719 C 606.90625 548.015625 608.492188 539.355469 609.324219 530.558594 C 609.945312 524.011719 610.519531 517.472656 610.789062 510.898438 C 611.089844 503.820312 610.171875 496.773438 610.445312 489.699219 C 610.546875 488 610.492188 486.304688 610.289062 484.613281 C 609.390625 478.199219 608.375 471.804688 607.140625 465.4375 C 604.667969 452.375 601.199219 439.582031 596.742188 427.058594 C 594.511719 420.855469 591.304688 415.085938 588.84375 409.003906 C 584.894531 399.269531 579.144531 390.867188 571.804688 383.507812 C 565.1875 376.871094 558.421875 370.375 551.230469 364.355469 C 542.296875 356.875 532.335938 351.253906 521.066406 348.171875 C 508.15625 344.640625 495.042969 342.328125 481.601562 342.269531 " fill-opacity="1" fill-rule="nonzero"/></g><g clip-path="url(#6c3c9e9971)"><path fill="#d10001" d="M 346.796875 367.996094 C 346.636719 368.964844 351.035156 377.3125 350.390625 377.53125 C 346.5 378.878906 340.328125 380.570312 337.011719 383.011719 C 334.140625 385.132812 331.445312 387.554688 331.113281 391.507812 C 331.027344 392.519531 330.460938 392.5625 329.738281 392.261719 C 329.175781 392.035156 328.640625 391.753906 328.132812 391.421875 C 326.230469 390.152344 324.351562 388.84375 322.445312 387.570312 C 321.753906 387.105469 321.109375 386.882812 320.378906 387.675781 C 319.648438 388.46875 319.894531 389.097656 320.355469 389.769531 C 321.785156 391.863281 323.375 393.777344 325.488281 395.304688 C 328.207031 397.265625 331.214844 398.644531 334.171875 400.09375 C 343.414062 404.613281 353.371094 406.261719 363.515625 406.929688 C 370.121094 407.367188 376.4375 405.835938 382.675781 403.851562 L 384.289062 403.328125 C 385.1875 403.027344 386.085938 402.730469 386.96875 402.429688 L 388.085938 402.046875 C 388.957031 401.746094 389.832031 401.449219 390.707031 401.125 L 392.304688 400.558594 L 393.804688 400.027344 C 398.628906 398.3125 403.464844 396.621094 408.421875 395.28125 C 417.632812 392.785156 426.957031 391.019531 436.523438 391.011719 C 443.097656 391.058594 449.617188 391.683594 456.078125 392.890625 C 460.804688 393.742188 465.679688 394.195312 470.148438 395.925781 C 478.832031 399.292969 486.542969 404.40625 493.355469 410.738281 C 499.554688 416.5 504.855469 423.09375 509.941406 429.835938 C 517.726562 440.15625 524.964844 450.835938 529.804688 462.941406 C 532.5625 469.839844 535.160156 476.816406 536.5625 484.105469 C 538.609375 494.78125 539.601562 505.621094 540.617188 516.425781 C 541.175781 522.414062 541.59375 528.433594 541.679688 534.445312 C 541.769531 540.535156 541.859375 546.628906 541.480469 552.742188 C 541.046875 559.707031 540.167969 566.613281 538.835938 573.460938 C 537.144531 582.105469 534.851562 590.59375 531.648438 598.796875 C 530.007812 603.011719 527.871094 607.027344 526.136719 611.203125 C 521.207031 623.070312 517.394531 635.355469 512.4375 647.21875 C 508.304688 657.191406 502.492188 666.0625 495.003906 673.835938 C 489.140625 679.929688 483.027344 685.761719 476.417969 691.058594 C 471.644531 694.878906 466.851562 698.605469 461.238281 701.132812 C 457.429688 702.851562 453.574219 704.054688 449.234375 704.019531 C 441.019531 703.953125 432.792969 703.519531 424.578125 704.28125 C 421.707031 704.550781 418.878906 705.054688 416.089844 705.796875 L 415.792969 705.878906 C 415.492188 705.964844 415.160156 706.054688 414.847656 706.148438 L 414.351562 706.292969 L 413.558594 706.539062 C 413.125 706.679688 412.691406 706.839844 412.261719 706.972656 C 412.03125 707.050781 411.796875 707.136719 411.570312 707.222656 L 410.941406 707.457031 L 410.300781 707.703125 C 410.085938 707.785156 409.875 707.871094 409.664062 707.957031 C 409.25 708.125 408.832031 708.304688 408.421875 708.480469 C 407.226562 709.007812 406.042969 709.578125 404.878906 710.191406 C 404.75 710.253906 404.621094 710.324219 404.488281 710.394531 L 404.0625 710.625 C 403.867188 710.734375 403.671875 710.835938 403.460938 710.949219 C 402.847656 711.289062 402.238281 711.644531 401.628906 712.015625 C 392.546875 717.511719 383.726562 723.445312 373.53125 726.851562 C 365.851562 729.414062 358.097656 730.40625 350.066406 729.101562 C 345.511719 728.363281 340.949219 727.628906 336.308594 727.933594 L 336.351562 727.933594 C 336.480469 728.054688 336.621094 728.152344 336.777344 728.230469 C 343.960938 730.816406 350.921875 734.109375 358.84375 734.21875 C 360.441406 734.242188 362.035156 734.292969 363.632812 734.296875 C 365.738281 734.320312 367.828125 734.15625 369.90625 733.8125 C 376.53125 732.617188 382.808594 730.292969 389.105469 728.015625 C 396.40625 725.375 403.648438 722.613281 411.34375 721.175781 C 413.40625 720.792969 415.46875 720.457031 417.53125 720.175781 C 422.320312 719.507812 427.113281 719.082031 431.949219 718.808594 C 433.90625 718.695312 435.878906 718.441406 437.828125 718.453125 C 438.503906 718.441406 439.179688 718.46875 439.851562 718.535156 C 443.839844 718.945312 447.773438 719.902344 451.75 720.449219 C 456.214844 721.046875 460.621094 722.015625 465.109375 722.46875 C 468.777344 722.835938 472.445312 723.066406 476.125 723.253906 C 479.417969 723.433594 482.695312 723.65625 485.972656 723.660156 C 488.515625 723.679688 491.046875 723.503906 493.5625 723.140625 C 504.792969 721.4375 514.6875 716.761719 522.789062 708.777344 C 527.519531 704.109375 531.863281 699.046875 536.324219 694.109375 C 540.578125 689.40625 544.96875 684.796875 548.582031 679.570312 C 556.265625 668.457031 563.523438 657.070312 570.136719 645.269531 C 576.453125 634.019531 582.503906 622.667969 586.9375 610.511719 C 589.089844 604.621094 590.4375 598.464844 592.808594 592.667969 C 597.597656 580.921875 601.9375 569.023438 604.65625 556.605469 C 606.542969 547.984375 608.125 539.320312 608.957031 530.527344 C 609.582031 523.980469 610.15625 517.4375 610.425781 510.867188 C 610.722656 503.789062 609.808594 496.738281 610.082031 489.667969 C 610.179688 487.96875 610.128906 486.269531 609.925781 484.578125 C 609.027344 478.167969 608.007812 471.769531 606.773438 465.40625 C 604.300781 452.34375 600.835938 439.550781 596.375 427.023438 C 594.144531 420.824219 590.9375 415.054688 588.476562 408.972656 C 584.527344 399.238281 578.78125 390.835938 571.4375 383.476562 C 564.820312 376.839844 558.058594 370.34375 550.867188 364.320312 C 541.929688 356.839844 531.972656 351.21875 520.703125 348.140625 C 507.882812 344.632812 494.855469 342.332031 481.515625 342.246094 L 372.828125 363.03125 " fill-opacity="1" fill-rule="nonzero"/></g><path fill="#feaf91" d="M 266.78125 431.792969 C 266.089844 447.355469 263.324219 462.507812 256.65625 476.777344 C 254.882812 480.574219 252.617188 484.074219 249.472656 486.929688 C 247.421875 488.792969 245.121094 490.222656 242.285156 490.441406 C 237.582031 490.8125 234.46875 488.425781 232.429688 484.457031 C 230.550781 480.785156 229.996094 476.769531 229.816406 472.714844 C 229.519531 465.753906 230.929688 459.011719 232.707031 452.347656 C 235.171875 443.121094 238.734375 434.371094 244.617188 426.753906 C 246.789062 423.949219 249.355469 421.4375 251.804688 418.851562 C 254.136719 416.390625 256.933594 414.820312 260.398438 415.875 C 264.023438 416.976562 265.363281 420.046875 266.058594 423.445312 C 266.625 426.164062 266.601562 428.957031 266.78125 431.792969 Z M 266.78125 431.792969 " fill-opacity="1" fill-rule="nonzero"/><path fill="#feaf90" d="M 229.726562 515.03125 C 229.671875 512.769531 229.90625 510.566406 230.878906 508.488281 C 233.160156 503.632812 238.460938 502.699219 242.175781 506.558594 C 244.960938 509.453125 246.070312 513.179688 247.023438 516.933594 C 248.105469 521.199219 248.523438 525.515625 247.191406 529.804688 C 246.28125 532.746094 244.796875 535.417969 241.367188 535.789062 C 237.855469 536.160156 235.359375 534.175781 234.09375 531.136719 C 231.941406 525.96875 229.726562 520.777344 229.726562 515.03125 Z M 229.726562 515.03125 " fill-opacity="1" fill-rule="nonzero"/><path fill="#8d4314" d="M 368.515625 326.910156 C 366.90625 320.429688 364.972656 314.046875 362.722656 307.757812 C 360.121094 300.46875 357.132812 293.390625 351.710938 287.628906 C 346.71875 282.332031 344.140625 281.925781 337.804688 285.53125 C 337.753906 285.566406 337.707031 285.605469 337.660156 285.644531 C 326.351562 291.523438 316.1875 298.699219 309.890625 310.230469 C 308.414062 312.027344 309.988281 312.722656 311.085938 313.589844 C 311.542969 314.070312 311.984375 314.5625 312.453125 315.019531 C 321.503906 323.757812 329.234375 333.53125 335.648438 344.351562 C 340.140625 351.957031 343.476562 360.070312 346.496094 368.332031 C 347.835938 371.019531 348.898438 373.8125 349.6875 376.710938 C 351.9375 382.316406 352.898438 388.21875 353.601562 394.15625 C 353.929688 396.933594 354.5 399.242188 357.617188 399.976562 C 358.25 400.160156 358.871094 400.378906 359.480469 400.632812 L 359.59375 400.558594 L 359.480469 400.632812 L 360.539062 400.886719 C 365.773438 402.183594 370.683594 401.960938 374.8125 397.894531 C 376.011719 396.695312 376.648438 395.332031 376.402344 393.667969 C 375.839844 389.921875 375.515625 386.152344 375.429688 382.359375 C 375.371094 378.738281 375.128906 375.132812 374.699219 371.539062 " fill-opacity="1" fill-rule="nonzero"/><path fill="#8e4416" d="M 337.660156 285.355469 C 341.207031 287.089844 341.507812 291.164062 338.414062 294.578125 C 334.84375 298.515625 330.453125 301.363281 325.949219 304.0625 C 322.507812 306.074219 318.914062 307.769531 315.171875 309.148438 C 313.417969 309.8125 311.71875 310.152344 309.882812 309.933594 C 316.1875 298.410156 326.351562 291.238281 337.660156 285.355469 Z M 337.660156 285.355469 " fill-opacity="1" fill-rule="nonzero"/><path fill="#6c280b" d="M 374.824219 397.625 C 375.820312 396.644531 376.414062 395.527344 376.460938 394.257812 C 376.457031 394.070312 376.4375 393.882812 376.410156 393.699219 C 375.84375 389.941406 375.515625 386.160156 375.429688 382.359375 C 375.371094 378.738281 375.128906 375.132812 374.699219 371.539062 L 368.515625 326.914062 C 366.90625 320.433594 364.972656 314.046875 362.722656 307.761719 C 360.121094 300.472656 357.132812 293.394531 351.710938 287.632812 C 346.746094 282.359375 344.167969 281.945312 337.90625 285.476562 C 341.21875 287.273438 341.433594 291.238281 338.414062 294.570312 C 334.84375 298.507812 330.453125 301.355469 325.949219 304.050781 C 322.507812 306.066406 318.914062 307.761719 315.171875 309.140625 C 313.527344 309.820312 311.820312 310.085938 310.046875 309.941406 L 309.882812 310.222656 C 309.574219 310.554688 309.375 310.941406 309.285156 311.386719 C 309.386719 312.195312 310.339844 312.703125 311.082031 313.285156 C 312.957031 313.269531 314.886719 313.53125 316.699219 313.191406 C 323.433594 311.921875 329.574219 309.132812 335.210938 305.28125 C 338.863281 302.773438 343.5 302.84375 346.289062 306.195312 C 350.03125 310.597656 353.003906 315.472656 355.203125 320.816406 C 357.324219 326.078125 358.53125 331.621094 359.78125 337.136719 C 360.773438 341.519531 363.175781 352.816406 364.140625 357.191406 C 364.140625 357.109375 365.394531 369.019531 365.457031 368.972656 C 365.527344 369.347656 365.570312 369.722656 365.59375 370.105469 C 365.855469 375.789062 366.097656 381.445312 365.984375 387.128906 C 365.984375 387.605469 366.046875 388.089844 366.085938 388.566406 C 366.632812 395.589844 366.4375 397.875 359.921875 400.042969 C 359.757812 400.117188 359.609375 400.210938 359.464844 400.320312 L 360.523438 400.570312 C 365.785156 401.898438 370.691406 401.675781 374.824219 397.625 Z M 374.824219 397.625 " fill-opacity="1" fill-rule="nonzero"/><g clip-path="url(#7eeb8bcce0)"><path fill="#1ad319" d="M 503.988281 278.335938 C 503.390625 278.269531 502.792969 278.246094 502.191406 278.203125 C 497.550781 277.921875 492.910156 277.46875 488.265625 277.398438 C 479.496094 277.265625 470.722656 277.304688 461.949219 277.378906 C 457.472656 277.417969 453.023438 277.808594 448.609375 278.558594 C 438.859375 280.207031 429.40625 282.953125 420.167969 286.421875 C 398.515625 294.550781 380.527344 307.222656 368.933594 327.796875 C 368.796875 328.277344 368.65625 328.753906 368.515625 329.234375 C 368.585938 329.5625 368.476562 329.816406 368.195312 330 C 365.648438 334.949219 364.324219 340.261719 363.457031 345.71875 C 363.214844 347.25 362.953125 348.785156 362.703125 350.316406 C 362.527344 353.378906 362.296875 356.433594 362.332031 359.507812 C 362.351562 361.324219 362.734375 363.097656 362.757812 364.894531 C 362.785156 366.59375 364.222656 367.027344 365.273438 367.820312 C 368.445312 368.871094 371.4375 370.429688 374.695312 371.234375 C 381.238281 372.613281 387.871094 372.992188 394.523438 372.761719 C 406.054688 372.359375 417.578125 371.949219 428.988281 369.953125 C 442.941406 367.503906 455.894531 362.570312 467.726562 354.765625 C 472.925781 351.335938 477.117188 346.800781 481.308594 342.269531 C 481.675781 341.792969 482.039062 341.3125 482.40625 340.839844 C 487.015625 334.957031 491.828125 329.214844 495.652344 322.777344 C 500.972656 313.824219 503.820312 304.015625 505.460938 293.808594 C 506.113281 289.769531 506.765625 285.726562 506.878906 281.621094 C 506.941406 279.335938 506.214844 278.570312 503.988281 278.335938 Z M 366.917969 336.394531 C 366.84375 336.695312 366.773438 336.972656 366.699219 337.261719 C 366.777344 336.984375 366.859375 336.695312 366.925781 336.40625 Z M 366.917969 336.394531 " fill-opacity="1" fill-rule="nonzero"/></g><path fill="#009f02" d="M 481.308594 342.273438 C 477.117188 346.800781 472.925781 351.339844 467.726562 354.769531 C 455.894531 362.574219 442.941406 367.507812 428.988281 369.953125 C 417.578125 371.953125 406.054688 372.363281 394.523438 372.765625 C 387.867188 372.996094 381.238281 372.617188 374.699219 371.234375 C 371.4375 370.433594 368.445312 368.875 365.273438 367.824219 C 364.222656 367.03125 362.785156 366.597656 362.757812 364.898438 C 362.734375 363.101562 362.351562 361.320312 362.332031 359.507812 C 362.296875 356.4375 362.527344 353.378906 362.703125 350.320312 C 362.953125 348.785156 363.214844 347.253906 363.457031 345.722656 C 364.324219 340.265625 365.648438 334.949219 368.195312 330.003906 C 367.789062 333.964844 366.402344 337.71875 365.753906 341.640625 C 364.886719 346.527344 364.832031 351.425781 365.582031 356.332031 C 365.699219 357.234375 365.949219 358.097656 366.324219 358.921875 C 367.222656 360.75 367.375 360.789062 368.792969 359.304688 C 374.941406 352.867188 381.902344 347.371094 388.925781 341.957031 C 399.777344 333.597656 411.191406 326.042969 422.78125 318.75 C 433.667969 311.898438 444.800781 305.480469 456.238281 299.597656 C 464.730469 295.230469 473.3125 291.054688 481.988281 287.070312 C 488.671875 283.992188 495.40625 281.039062 502.191406 278.210938 C 502.792969 278.25 503.390625 278.277344 503.988281 278.339844 C 506.207031 278.578125 506.9375 279.339844 506.871094 281.632812 C 506.757812 285.734375 506.105469 289.78125 505.457031 293.820312 C 503.8125 304.027344 500.964844 313.835938 495.648438 322.789062 C 491.820312 329.226562 487.011719 334.96875 482.402344 340.851562 C 482.039062 341.316406 481.675781 341.796875 481.308594 342.273438 Z M 481.308594 342.273438 " fill-opacity="1" fill-rule="nonzero"/></svg>