<svg xmlns="http://www.w3.org/2000/svg" xmlns:xlink="http://www.w3.org/1999/xlink" width="1080" zoomAndPan="magnify" viewBox="0 0 810 1012.49997" height="1350" preserveAspectRatio="xMidYMid meet" version="1.0"><defs><clipPath id="2b28d35d1b"><path d="M 157.117188 309 L 652.621094 309 L 652.621094 781 L 157.117188 781 Z M 157.117188 309 " clip-rule="nonzero"/></clipPath></defs><g clip-path="url(#2b28d35d1b)"><path fill="#fd0000" d="M 334.9375 340.222656 C 320.773438 340.292969 306.640625 340.867188 292.546875 342.4375 C 281.570312 343.667969 270.695312 345.386719 259.992188 348.132812 C 218.917969 358.675781 189.824219 383.570312 171.90625 421.84375 C 164.929688 436.746094 163.207031 452.9375 160.644531 468.90625 C 159.078125 478.652344 158.484375 488.515625 158.125 498.363281 C 157.691406 510.347656 157.171875 522.339844 157.90625 534.359375 C 158.550781 545.128906 159.773438 555.835938 161.566406 566.476562 C 164.253906 582.386719 169.398438 597.578125 175.714844 612.355469 C 184.730469 633.460938 196.222656 653.226562 208.882812 672.324219 C 218.203125 686.367188 228.382812 699.75 239.828125 712.136719 C 249.125 722.191406 259.183594 731.460938 269.363281 740.585938 C 276.8125 747.269531 284.453125 753.738281 292.964844 759.089844 C 302.265625 764.941406 312.035156 769.785156 322.472656 773.292969 C 322.625 773.4375 322.792969 773.554688 322.980469 773.652344 C 331.617188 776.761719 339.980469 780.722656 349.503906 780.855469 C 354.078125 780.921875 358.609375 781.183594 363.148438 780.367188 C 371.109375 778.925781 378.652344 776.128906 386.21875 773.390625 C 394.996094 770.214844 403.695312 766.886719 412.949219 765.160156 C 415.421875 764.699219 417.902344 764.296875 420.382812 763.957031 C 426.140625 763.152344 431.898438 762.640625 437.707031 762.3125 C 440.757812 762.136719 443.84375 761.671875 446.847656 761.984375 C 451.640625 762.476562 456.367188 763.628906 461.148438 764.285156 C 466.511719 765.003906 471.804688 766.171875 477.199219 766.714844 C 481.613281 767.160156 486.019531 767.4375 490.441406 767.664062 C 497.554688 768.054688 504.691406 768.601562 511.757812 767.527344 C 525.253906 765.476562 537.144531 759.851562 546.882812 750.238281 C 552.566406 744.625 557.789062 738.53125 563.144531 732.59375 C 568.257812 726.933594 573.535156 721.386719 577.878906 715.097656 C 587.109375 701.722656 595.835938 688.023438 603.785156 673.824219 C 611.375 660.289062 618.648438 646.628906 623.976562 632 C 626.558594 624.910156 628.179688 617.507812 631.027344 610.527344 C 636.785156 596.394531 642.003906 582.078125 645.265625 567.136719 C 647.535156 556.761719 649.4375 546.339844 650.4375 535.753906 C 651.1875 527.878906 651.878906 520.007812 652.203125 512.097656 C 652.5625 503.582031 651.460938 495.101562 651.789062 486.59375 C 651.910156 484.546875 651.847656 482.503906 651.601562 480.46875 C 650.519531 472.753906 649.296875 465.058594 647.816406 457.398438 C 644.84375 441.679688 640.675781 426.285156 635.316406 411.214844 C 632.636719 403.753906 628.785156 396.808594 625.824219 389.492188 C 621.078125 377.777344 614.171875 367.667969 605.347656 358.8125 C 597.394531 350.828125 589.265625 343.011719 580.625 335.765625 C 569.886719 326.761719 557.917969 320 544.375 316.292969 C 528.859375 312.046875 513.097656 309.261719 496.945312 309.191406 " fill-opacity="1" fill-rule="nonzero"/></g><path fill="#d10001" d="M 334.9375 340.144531 C 334.742188 341.3125 340.027344 351.359375 339.253906 351.621094 C 334.578125 353.242188 327.160156 355.277344 323.175781 358.214844 C 319.726562 360.765625 316.488281 363.683594 316.085938 368.441406 C 315.984375 369.652344 315.304688 369.707031 314.433594 369.347656 C 313.757812 369.070312 313.113281 368.734375 312.503906 368.335938 C 310.21875 366.808594 307.960938 365.230469 305.667969 363.699219 C 304.835938 363.140625 304.0625 362.871094 303.183594 363.828125 C 302.304688 364.78125 302.605469 365.539062 303.160156 366.347656 C 304.875 368.867188 306.785156 371.167969 309.328125 373.007812 C 312.59375 375.363281 316.210938 377.023438 319.761719 378.769531 C 330.871094 384.210938 342.835938 386.191406 355.027344 386.996094 C 362.964844 387.523438 370.554688 385.679688 378.054688 383.292969 L 379.996094 382.660156 C 381.074219 382.300781 382.152344 381.941406 383.214844 381.582031 L 384.554688 381.121094 C 385.605469 380.757812 386.65625 380.398438 387.707031 380.011719 L 389.628906 379.328125 L 391.425781 378.6875 C 397.226562 376.625 403.039062 374.589844 408.992188 372.976562 C 420.066406 369.976562 431.269531 367.847656 442.765625 367.84375 C 450.667969 367.894531 458.5 368.648438 466.269531 370.105469 C 471.949219 371.125 477.808594 371.671875 483.179688 373.753906 C 493.617188 377.804688 502.882812 383.957031 511.070312 391.578125 C 518.519531 398.511719 524.890625 406.445312 531.003906 414.558594 C 540.359375 426.972656 549.054688 439.828125 554.875 454.394531 C 558.1875 462.695312 561.3125 471.089844 562.996094 479.859375 C 565.457031 492.703125 566.648438 505.746094 567.867188 518.75 C 568.539062 525.953125 569.039062 533.199219 569.144531 540.429688 C 569.253906 547.761719 569.359375 555.09375 568.902344 562.449219 C 568.386719 570.828125 567.328125 579.136719 565.726562 587.378906 C 563.691406 597.777344 560.9375 607.992188 557.089844 617.867188 C 555.117188 622.9375 552.550781 627.765625 550.464844 632.792969 C 544.542969 647.074219 539.957031 661.855469 534.003906 676.128906 C 531.542969 682.078125 528.550781 687.742188 525.027344 693.128906 C 521.503906 698.511719 517.511719 703.523438 513.050781 708.160156 C 506.003906 715.488281 498.65625 722.507812 490.710938 728.882812 C 484.976562 733.476562 479.214844 737.964844 472.472656 741.003906 C 467.890625 743.070312 463.261719 744.515625 458.046875 744.476562 C 448.171875 744.398438 438.285156 743.875 428.414062 744.792969 C 424.960938 745.113281 421.5625 745.722656 418.210938 746.617188 L 417.851562 746.714844 C 417.492188 746.820312 417.09375 746.925781 416.71875 747.039062 L 416.121094 747.214844 L 415.167969 747.511719 C 414.644531 747.679688 414.128906 747.871094 413.609375 748.03125 C 413.332031 748.125 413.050781 748.226562 412.777344 748.332031 L 412.023438 748.613281 L 411.253906 748.910156 C 410.996094 749.007812 410.742188 749.113281 410.492188 749.21875 C 409.988281 749.417969 409.488281 749.632812 408.996094 749.847656 C 407.558594 750.480469 406.136719 751.167969 404.738281 751.902344 C 404.582031 751.980469 404.425781 752.066406 404.269531 752.148438 L 403.753906 752.425781 C 403.523438 752.554688 403.285156 752.679688 403.035156 752.816406 C 402.296875 753.226562 401.5625 753.652344 400.832031 754.097656 C 389.917969 760.710938 379.316406 767.851562 367.0625 771.953125 C 357.835938 775.035156 348.515625 776.230469 338.863281 774.660156 C 333.390625 773.769531 327.90625 772.882812 322.328125 773.25 L 322.382812 773.25 C 322.535156 773.394531 322.703125 773.515625 322.890625 773.613281 C 331.527344 776.722656 339.890625 780.683594 349.414062 780.8125 C 351.332031 780.84375 353.246094 780.902344 355.167969 780.90625 C 357.699219 780.933594 360.210938 780.742188 362.707031 780.328125 C 370.671875 778.886719 378.214844 776.089844 385.78125 773.351562 C 394.558594 770.175781 403.257812 766.847656 412.507812 765.121094 C 414.984375 764.660156 417.460938 764.257812 419.941406 763.917969 C 425.699219 763.113281 431.457031 762.601562 437.269531 762.269531 C 439.621094 762.136719 441.992188 761.832031 444.335938 761.84375 C 445.148438 761.832031 445.960938 761.863281 446.769531 761.945312 C 451.5625 762.4375 456.285156 763.589844 461.070312 764.246094 C 466.433594 764.964844 471.726562 766.132812 477.121094 766.675781 C 481.53125 767.117188 485.941406 767.394531 490.363281 767.621094 C 494.320312 767.839844 498.257812 768.105469 502.199219 768.113281 C 505.253906 768.132812 508.292969 767.921875 511.320312 767.484375 C 524.8125 765.4375 536.707031 759.8125 546.441406 750.199219 C 552.128906 744.585938 557.347656 738.492188 562.707031 732.554688 C 567.820312 726.894531 573.09375 721.347656 577.4375 715.058594 C 586.671875 701.683594 595.398438 687.980469 603.347656 673.785156 C 610.9375 660.25 618.207031 646.589844 623.539062 631.960938 C 626.121094 624.871094 627.738281 617.46875 630.589844 610.488281 C 636.347656 596.355469 641.566406 582.039062 644.828125 567.097656 C 647.09375 556.722656 649 546.300781 650 535.714844 C 650.746094 527.839844 651.4375 519.96875 651.761719 512.058594 C 652.121094 503.542969 651.019531 495.0625 651.347656 486.550781 C 651.46875 484.507812 651.40625 482.464844 651.160156 480.429688 C 650.082031 472.710938 648.859375 465.015625 647.375 457.355469 C 644.402344 441.640625 640.238281 426.246094 634.878906 411.175781 C 632.199219 403.714844 628.34375 396.769531 625.386719 389.453125 C 620.640625 377.738281 613.730469 367.628906 604.910156 358.773438 C 596.957031 350.785156 588.828125 342.972656 580.183594 335.726562 C 569.445312 326.722656 557.480469 319.960938 543.933594 316.253906 C 528.527344 312.035156 512.875 309.265625 496.839844 309.160156 L 366.21875 334.171875 " fill-opacity="1" fill-rule="nonzero"/><path fill="#feaf91" d="M 238.769531 416.910156 C 237.9375 435.636719 234.617188 453.871094 226.605469 471.042969 C 224.46875 475.613281 221.75 479.820312 217.96875 483.257812 C 215.507812 485.5 212.738281 487.21875 209.332031 487.484375 C 203.679688 487.929688 199.9375 485.058594 197.488281 480.28125 C 195.230469 475.863281 194.5625 471.03125 194.347656 466.152344 C 193.988281 457.773438 195.683594 449.664062 197.820312 441.644531 C 200.78125 430.542969 205.066406 420.011719 212.136719 410.851562 C 214.746094 407.472656 217.828125 404.453125 220.773438 401.339844 C 223.574219 398.378906 226.933594 396.488281 231.101562 397.761719 C 235.457031 399.085938 237.070312 402.78125 237.902344 406.867188 C 238.582031 410.136719 238.558594 413.5 238.769531 416.910156 Z M 238.769531 416.910156 " fill-opacity="1" fill-rule="nonzero"/><path fill="#feaf90" d="M 194.242188 517.074219 C 194.171875 514.351562 194.453125 511.699219 195.625 509.195312 C 198.363281 503.355469 204.738281 502.230469 209.203125 506.878906 C 212.550781 510.359375 213.878906 514.84375 215.027344 519.363281 C 216.328125 524.492188 216.828125 529.6875 215.230469 534.847656 C 214.132812 538.386719 212.351562 541.605469 208.226562 542.050781 C 204.007812 542.496094 201.007812 540.109375 199.488281 536.449219 C 196.898438 530.230469 194.242188 523.988281 194.242188 517.074219 Z M 194.242188 517.074219 " fill-opacity="1" fill-rule="nonzero"/><path fill="#8d4314" d="M 361.035156 290.710938 C 359.101562 282.914062 356.78125 275.230469 354.074219 267.664062 C 350.949219 258.894531 347.359375 250.378906 340.839844 243.441406 C 334.84375 237.066406 331.746094 236.582031 324.125 240.921875 C 324.066406 240.960938 324.007812 241.007812 323.953125 241.054688 C 310.363281 248.128906 298.148438 256.761719 290.578125 270.636719 C 288.804688 272.800781 290.699219 273.636719 292.019531 274.683594 C 292.566406 275.257812 293.097656 275.851562 293.660156 276.402344 C 304.535156 286.914062 313.828125 298.679688 321.535156 311.695312 C 326.933594 320.847656 330.945312 330.609375 334.574219 340.550781 C 336.183594 343.785156 337.460938 347.148438 338.410156 350.636719 C 341.113281 357.378906 342.269531 364.480469 343.113281 371.625 C 343.507812 374.96875 344.191406 377.746094 347.9375 378.628906 C 348.699219 378.851562 349.445312 379.113281 350.179688 379.421875 L 350.3125 379.328125 L 350.179688 379.421875 L 351.449219 379.722656 C 357.742188 381.285156 363.640625 381.015625 368.605469 376.121094 C 370.046875 374.679688 370.8125 373.039062 370.511719 371.039062 C 369.835938 366.527344 369.449219 361.992188 369.347656 357.429688 C 369.277344 353.074219 368.980469 348.734375 368.464844 344.410156 " fill-opacity="1" fill-rule="nonzero"/><path fill="#8e4416" d="M 323.953125 240.707031 C 328.21875 242.792969 328.578125 247.699219 324.859375 251.804688 C 320.566406 256.542969 315.292969 259.972656 309.878906 263.214844 C 305.742188 265.640625 301.425781 267.679688 296.925781 269.339844 C 294.816406 270.136719 292.777344 270.542969 290.570312 270.28125 C 298.148438 256.417969 310.363281 247.785156 323.953125 240.707031 Z M 323.953125 240.707031 " fill-opacity="1" fill-rule="nonzero"/><path fill="#6c280b" d="M 368.617188 375.796875 C 369.816406 374.621094 370.53125 373.277344 370.585938 371.746094 C 370.578125 371.519531 370.558594 371.296875 370.523438 371.074219 C 369.84375 366.550781 369.449219 362.003906 369.347656 357.429688 C 369.277344 353.074219 368.980469 348.734375 368.464844 344.410156 L 361.035156 290.714844 C 359.101562 282.917969 356.78125 275.234375 354.074219 267.667969 C 350.949219 258.898438 347.359375 250.382812 340.839844 243.445312 C 334.875 237.105469 331.777344 236.601562 324.25 240.851562 C 328.230469 243.011719 328.488281 247.785156 324.859375 251.792969 C 320.566406 256.53125 315.292969 259.960938 309.878906 263.207031 C 305.742188 265.628906 301.425781 267.667969 296.925781 269.328125 C 294.949219 270.148438 292.898438 270.46875 290.765625 270.289062 L 290.570312 270.632812 C 290.199219 271.027344 289.957031 271.492188 289.851562 272.027344 C 289.976562 273.003906 291.117188 273.613281 292.011719 274.316406 C 294.269531 274.296875 296.585938 274.609375 298.765625 274.199219 C 306.859375 272.675781 314.238281 269.320312 321.011719 264.683594 C 325.402344 261.667969 330.96875 261.75 334.324219 265.785156 C 338.820312 271.082031 342.390625 276.945312 345.035156 283.375 C 347.585938 289.710938 349.039062 296.375 350.539062 303.015625 C 351.730469 308.289062 354.617188 321.882812 355.777344 327.144531 C 355.777344 327.046875 357.285156 341.378906 357.359375 341.324219 C 357.441406 341.773438 357.496094 342.226562 357.527344 342.683594 C 357.839844 349.527344 358.132812 356.332031 357.996094 363.167969 C 357.996094 363.742188 358.070312 364.324219 358.117188 364.898438 C 358.773438 373.351562 358.539062 376.101562 350.707031 378.707031 C 350.511719 378.796875 350.332031 378.910156 350.160156 379.042969 L 351.429688 379.34375 C 357.753906 380.941406 363.652344 380.671875 368.617188 375.796875 Z M 368.617188 375.796875 " fill-opacity="1" fill-rule="nonzero"/><path fill="#1ad319" d="M 523.847656 232.261719 C 523.128906 232.179688 522.410156 232.152344 521.691406 232.101562 C 516.113281 231.761719 510.535156 231.214844 504.953125 231.132812 C 494.414062 230.976562 483.867188 231.019531 473.324219 231.109375 C 467.945312 231.15625 462.601562 231.628906 457.292969 232.527344 C 445.578125 234.511719 434.214844 237.816406 423.109375 241.992188 C 397.089844 251.773438 375.472656 267.019531 361.539062 291.777344 C 361.371094 292.355469 361.203125 292.929688 361.039062 293.507812 C 361.074219 293.683594 361.058594 293.859375 360.988281 294.027344 C 360.917969 294.195312 360.804688 294.328125 360.652344 294.429688 C 357.589844 300.378906 356 306.777344 354.957031 313.339844 C 354.664062 315.183594 354.351562 317.027344 354.050781 318.871094 C 353.839844 322.558594 353.566406 326.234375 353.605469 329.933594 C 353.628906 332.117188 354.085938 334.253906 354.117188 336.414062 C 354.152344 338.460938 355.878906 338.980469 357.136719 339.9375 C 360.953125 341.199219 364.546875 343.078125 368.464844 344.042969 C 376.328125 345.703125 384.296875 346.160156 392.292969 345.882812 C 406.152344 345.398438 420 344.90625 433.710938 342.5 C 450.480469 339.554688 466.046875 333.621094 480.269531 324.226562 C 486.515625 320.101562 491.554688 314.640625 496.589844 309.191406 C 497.03125 308.617188 497.46875 308.039062 497.910156 307.472656 C 503.449219 300.390625 509.230469 293.484375 513.832031 285.734375 C 520.226562 274.964844 523.644531 263.160156 525.617188 250.878906 C 526.398438 246.015625 527.183594 241.15625 527.320312 236.214844 C 527.398438 233.464844 526.523438 232.542969 523.847656 232.261719 Z M 359.117188 302.125 C 359.027344 302.484375 358.941406 302.820312 358.855469 303.164062 C 358.949219 302.832031 359.042969 302.484375 359.125 302.136719 Z M 359.117188 302.125 " fill-opacity="1" fill-rule="nonzero"/><path fill="#009f02" d="M 496.589844 309.195312 C 491.554688 314.644531 486.515625 320.105469 480.269531 324.230469 C 466.046875 333.625 450.480469 339.558594 433.710938 342.503906 C 420 344.910156 406.152344 345.402344 392.292969 345.886719 C 384.289062 346.164062 376.328125 345.707031 368.464844 344.046875 C 364.546875 343.082031 360.953125 341.203125 357.136719 339.941406 C 355.878906 338.984375 354.152344 338.464844 354.117188 336.417969 C 354.085938 334.257812 353.628906 332.113281 353.605469 329.9375 C 353.566406 326.238281 353.839844 322.558594 354.050781 318.875 C 354.351562 317.03125 354.664062 315.1875 354.957031 313.34375 C 356 306.78125 357.589844 300.378906 360.652344 294.429688 C 360.164062 299.199219 358.496094 303.714844 357.71875 308.433594 C 356.675781 314.316406 356.609375 320.207031 357.511719 326.109375 C 357.652344 327.195312 357.949219 328.234375 358.40625 329.230469 C 359.484375 331.425781 359.664062 331.472656 361.371094 329.6875 C 368.761719 321.945312 377.121094 315.328125 385.566406 308.816406 C 398.609375 298.757812 412.320312 289.667969 426.25 280.890625 C 439.335938 272.648438 452.71875 264.921875 466.460938 257.84375 C 476.667969 252.589844 486.984375 247.566406 497.40625 242.773438 C 505.441406 239.066406 513.535156 235.511719 521.691406 232.109375 C 522.410156 232.160156 523.128906 232.1875 523.847656 232.265625 C 526.515625 232.550781 527.390625 233.46875 527.3125 236.230469 C 527.175781 241.164062 526.394531 246.03125 525.613281 250.894531 C 523.636719 263.171875 520.214844 274.976562 513.824219 285.75 C 509.226562 293.5 503.441406 300.40625 497.90625 307.484375 C 497.46875 308.042969 497.03125 308.621094 496.589844 309.195312 Z M 496.589844 309.195312 " fill-opacity="1" fill-rule="nonzero"/></svg>