<svg xmlns="http://www.w3.org/2000/svg" xmlns:xlink="http://www.w3.org/1999/xlink" width="1080" zoomAndPan="magnify" viewBox="0 0 810 1012.49997" height="1350" preserveAspectRatio="xMidYMid meet" version="1.0"><defs><clipPath id="9bb5644165"><path d="M 0.199219 44.335938 L 809.800781 44.335938 L 809.800781 967.667969 L 0.199219 967.667969 Z M 0.199219 44.335938 " clip-rule="nonzero"/></clipPath><clipPath id="aa0ad4907b"><path d="M 0.199219 891.214844 L 0.199219 120.785156 C 0.199219 78.496094 17.050781 44.335938 37.90625 44.335938 L 772.003906 44.335938 C 792.859375 44.335938 809.707031 78.496094 809.707031 120.785156 L 809.707031 891.03125 C 809.707031 933.316406 792.859375 967.480469 772.003906 967.480469 L 37.90625 967.480469 C 17.140625 967.667969 0.199219 933.503906 0.199219 891.214844 Z M 0.199219 891.214844 " clip-rule="nonzero"/></clipPath><clipPath id="b056dfc0a5"><path d="M 0.199219 0.335938 L 809.800781 0.335938 L 809.800781 923.667969 L 0.199219 923.667969 Z M 0.199219 0.335938 " clip-rule="nonzero"/></clipPath><clipPath id="0d1a82a767"><path d="M 0.199219 847.214844 L 0.199219 76.785156 C 0.199219 34.496094 17.050781 0.335938 37.90625 0.335938 L 772.003906 0.335938 C 792.859375 0.335938 809.707031 34.496094 809.707031 76.785156 L 809.707031 847.03125 C 809.707031 889.316406 792.859375 923.480469 772.003906 923.480469 L 37.90625 923.480469 C 17.140625 923.667969 0.199219 889.503906 0.199219 847.214844 Z M 0.199219 847.214844 " clip-rule="nonzero"/></clipPath><clipPath id="c74818327c"><rect x="0" width="810" y="0" height="924"/></clipPath><clipPath id="48833db876"><path d="M 11.742188 106.261719 L 801.523438 106.261719 L 801.523438 905.882812 L 11.742188 905.882812 Z M 11.742188 106.261719 " clip-rule="nonzero"/></clipPath><clipPath id="0fb9c8a151"><path d="M 11.742188 839.542969 L 11.742188 172.457031 C 11.742188 135.84375 28.179688 106.261719 48.527344 106.261719 L 764.652344 106.261719 C 784.996094 106.261719 801.433594 135.84375 801.433594 172.457031 L 801.433594 839.382812 C 801.433594 875.996094 784.996094 905.578125 764.652344 905.578125 L 48.527344 905.578125 C 28.269531 905.738281 11.742188 876.15625 11.742188 839.542969 Z M 11.742188 839.542969 " clip-rule="nonzero"/></clipPath><clipPath id="22068c969e"><path d="M 0.742188 0.261719 L 790.523438 0.261719 L 790.523438 799.792969 L 0.742188 799.792969 Z M 0.742188 0.261719 " clip-rule="nonzero"/></clipPath><clipPath id="4561334ad8"><path d="M 0.742188 733.542969 L 0.742188 66.457031 C 0.742188 29.84375 17.179688 0.261719 37.527344 0.261719 L 753.652344 0.261719 C 773.996094 0.261719 790.433594 29.84375 790.433594 66.457031 L 790.433594 733.382812 C 790.433594 769.996094 773.996094 799.578125 753.652344 799.578125 L 37.527344 799.578125 C 17.269531 799.738281 0.742188 770.15625 0.742188 733.542969 Z M 0.742188 733.542969 " clip-rule="nonzero"/></clipPath><clipPath id="404ff30fe6"><rect x="0" width="791" y="0" height="800"/></clipPath></defs><g clip-path="url(#9bb5644165)"><g clip-path="url(#aa0ad4907b)"><g transform="matrix(1, 0, 0, 1, 0.000000000000000028, 44)"><g clip-path="url(#c74818327c)"><g clip-path="url(#b056dfc0a5)"><g clip-path="url(#0d1a82a767)"><path fill="#ebdfdf" d="M 0.199219 0.335938 L 809.605469 0.335938 L 809.605469 923.667969 L 0.199219 923.667969 Z M 0.199219 0.335938 " fill-opacity="1" fill-rule="nonzero"/></g></g></g></g></g></g><g clip-path="url(#48833db876)"><g clip-path="url(#0fb9c8a151)"><g transform="matrix(1, 0, 0, 1, 11, 106)"><g clip-path="url(#404ff30fe6)"><g clip-path="url(#22068c969e)"><g clip-path="url(#4561334ad8)"><path fill="#fff7f7" d="M 0.742188 0.261719 L 790.523438 0.261719 L 790.523438 799.882812 L 0.742188 799.882812 Z M 0.742188 0.261719 " fill-opacity="1" fill-rule="nonzero"/></g></g></g></g></g></g><path fill="#f27b06" d="M 561.535156 376.152344 C 577.535156 383.195312 621.082031 403.117188 648.265625 452.21875 C 676.65625 503.507812 668.71875 553.238281 665.964844 568.972656 C 662.355469 589.589844 650.570312 636.335938 609.324219 673.34375 C 541.652344 734.066406 452.875 716.375 442.058594 714.03125 C 432.871094 712.042969 324.648438 686.683594 296.914062 586.664062 C 275.089844 507.945312 315.328125 426.996094 377.449219 386.765625 C 460.007812 333.304688 550.820312 371.4375 561.535156 376.152344 Z M 561.535156 376.152344 " fill-opacity="1" fill-rule="nonzero"/><path fill="#fe8d00" d="M 638.148438 446.058594 C 662.0625 499.019531 646.121094 550.390625 641.796875 563.625 C 640.023438 569.0625 610.0625 655.664062 520.515625 679.371094 C 447.386719 698.730469 369.8125 666.796875 329.929688 607.371094 C 324.089844 598.671875 285.976562 539.773438 307.132812 467.933594 C 332.539062 381.640625 422.246094 364.035156 429.667969 362 C 510.808594 339.773438 604.410156 371.332031 638.148438 446.058594 Z M 638.148438 446.058594 " fill-opacity="1" fill-rule="nonzero"/><path fill="#ffaa4d" d="M 392.9375 394.285156 C 401.066406 386.421875 411.339844 385.648438 419.929688 384.996094 C 427.835938 384.398438 436.066406 383.777344 438.515625 388.09375 C 441.820312 393.914062 432.199219 404.464844 430.996094 405.785156 C 421.015625 416.722656 407.523438 417.910156 404 418.167969 C 398.53125 418.5625 388.050781 419.324219 384.972656 413.742188 C 381.78125 407.960938 388.375 398.699219 392.9375 394.285156 Z M 392.9375 394.285156 " fill-opacity="1" fill-rule="nonzero"/><path fill="#ffaa4d" d="M 379.21875 435.855469 C 379.21875 436.640625 379.144531 437.417969 378.992188 438.183594 C 378.835938 438.953125 378.609375 439.699219 378.3125 440.425781 C 378.011719 441.148438 377.640625 441.835938 377.207031 442.488281 C 376.769531 443.140625 376.277344 443.746094 375.722656 444.300781 C 375.167969 444.851562 374.5625 445.347656 373.910156 445.785156 C 373.257812 446.21875 372.570312 446.585938 371.84375 446.886719 C 371.121094 447.1875 370.375 447.414062 369.605469 447.566406 C 368.835938 447.71875 368.058594 447.796875 367.273438 447.796875 C 366.488281 447.796875 365.710938 447.71875 364.941406 447.566406 C 364.171875 447.414062 363.425781 447.1875 362.699219 446.886719 C 361.976562 446.585938 361.289062 446.21875 360.636719 445.785156 C 359.984375 445.347656 359.378906 444.851562 358.824219 444.300781 C 358.269531 443.746094 357.773438 443.140625 357.339844 442.488281 C 356.902344 441.835938 356.535156 441.148438 356.234375 440.425781 C 355.933594 439.699219 355.707031 438.953125 355.554688 438.183594 C 355.402344 437.417969 355.324219 436.640625 355.324219 435.855469 C 355.324219 435.070312 355.402344 434.296875 355.554688 433.527344 C 355.707031 432.757812 355.933594 432.011719 356.234375 431.285156 C 356.535156 430.5625 356.902344 429.875 357.339844 429.222656 C 357.773438 428.570312 358.269531 427.96875 358.824219 427.414062 C 359.378906 426.859375 359.984375 426.363281 360.636719 425.929688 C 361.289062 425.492188 361.976562 425.125 362.699219 424.824219 C 363.425781 424.523438 364.171875 424.296875 364.941406 424.144531 C 365.710938 423.992188 366.488281 423.914062 367.273438 423.914062 C 368.058594 423.914062 368.835938 423.992188 369.605469 424.144531 C 370.375 424.296875 371.121094 424.523438 371.84375 424.824219 C 372.570312 425.125 373.257812 425.492188 373.910156 425.929688 C 374.5625 426.363281 375.167969 426.859375 375.722656 427.414062 C 376.277344 427.96875 376.769531 428.570312 377.207031 429.222656 C 377.640625 429.875 378.011719 430.5625 378.3125 431.285156 C 378.609375 432.011719 378.835938 432.757812 378.992188 433.527344 C 379.144531 434.296875 379.21875 435.070312 379.21875 435.855469 Z M 379.21875 435.855469 " fill-opacity="1" fill-rule="nonzero"/><path fill="#599a2a" d="M 541.769531 332.222656 C 536.175781 335.511719 516.226562 346.355469 495.746094 339.296875 C 479.519531 333.703125 471.171875 319.699219 462.117188 304.507812 C 447.445312 279.890625 451.210938 269.484375 439.105469 251.4375 C 425.054688 230.484375 404.761719 221.535156 397.804688 218.417969 C 365.457031 203.917969 335.316406 210.449219 325.234375 213.109375 C 331.113281 218.492188 336.425781 224.390625 341.164062 230.800781 C 354.511719 248.855469 356.273438 261.691406 367.125 286.816406 C 376.996094 309.675781 381.933594 321.105469 390.136719 329.273438 C 412.265625 351.304688 447.433594 349.996094 452.675781 349.914062 C 468.15625 349.667969 472.25 345.746094 493.167969 346.523438 C 502.585938 346.871094 508.96875 347.933594 517.945312 345.636719 C 522.414062 344.429688 526.664062 342.691406 530.695312 340.417969 C 534.730469 338.148438 538.417969 335.417969 541.769531 332.222656 Z M 541.769531 332.222656 " fill-opacity="1" fill-rule="nonzero"/><path fill="#8dbd36" d="M 498.699219 343.425781 C 489.578125 342.296875 480.832031 339.832031 472.46875 336.027344 C 468.316406 334.105469 464.332031 331.894531 460.503906 329.390625 C 456.667969 326.898438 453.023438 324.160156 449.5625 321.171875 C 442.652344 315.160156 436.421875 308.511719 430.867188 301.226562 C 425.195312 294.054688 420.113281 286.488281 415.617188 278.527344 C 413.535156 274.488281 411.21875 270.59375 408.664062 266.839844 C 406.015625 263.148438 403.140625 259.644531 400.035156 256.332031 C 393.816406 249.671875 387.03125 243.644531 379.683594 238.253906 C 372.339844 232.859375 364.554688 228.191406 356.339844 224.25 C 348.128906 220.265625 339.628906 217.042969 330.839844 214.582031 C 339.679688 216.90625 348.242188 219.996094 356.527344 223.851562 C 364.800781 227.761719 372.644531 232.402344 380.050781 237.777344 C 387.457031 243.152344 394.300781 249.167969 400.585938 255.820312 C 403.734375 259.140625 406.652344 262.65625 409.335938 266.363281 C 411.933594 270.128906 414.289062 274.039062 416.402344 278.089844 C 420.835938 286.042969 425.855469 293.601562 431.460938 300.773438 C 436.945312 308.050781 443.109375 314.699219 449.953125 320.71875 C 453.375 323.710938 456.988281 326.457031 460.789062 328.953125 C 464.585938 331.464844 468.539062 333.691406 472.652344 335.632812 C 480.9375 339.558594 489.617188 342.15625 498.699219 343.425781 Z M 498.699219 343.425781 " fill-opacity="1" fill-rule="nonzero"/><path fill="#8dbd36" d="M 442.351562 310.109375 C 442.671875 308.214844 442.882812 306.304688 442.976562 304.386719 C 443.058594 302.480469 443.003906 300.578125 442.820312 298.679688 C 442.632812 296.78125 442.316406 294.902344 441.863281 293.050781 C 441.394531 291.183594 440.820312 289.351562 440.140625 287.554688 C 441.144531 289.230469 441.941406 291 442.527344 292.863281 C 443.132812 294.730469 443.527344 296.636719 443.714844 298.589844 C 443.90625 300.542969 443.890625 302.492188 443.664062 304.441406 C 443.449219 306.382812 443.011719 308.273438 442.351562 310.109375 Z M 442.351562 310.109375 " fill-opacity="1" fill-rule="nonzero"/><path fill="#8dbd36" d="M 439.425781 314.128906 C 436.90625 315.847656 434.179688 317.121094 431.246094 317.957031 C 428.296875 318.78125 425.296875 319.152344 422.234375 319.070312 C 419.167969 319.027344 416.171875 318.550781 413.246094 317.644531 C 410.332031 316.738281 407.589844 315.46875 405.011719 313.835938 L 405.054688 313.753906 C 407.796875 314.96875 410.609375 315.980469 413.5 316.78125 C 416.363281 317.621094 419.285156 318.144531 422.261719 318.351562 C 425.261719 318.519531 428.214844 318.246094 431.128906 317.523438 C 434.066406 316.8125 436.816406 315.65625 439.378906 314.050781 Z M 439.425781 314.128906 " fill-opacity="1" fill-rule="nonzero"/><path fill="#8dbd36" d="M 422.882812 286.226562 C 422.480469 283.804688 422.285156 281.367188 422.292969 278.910156 C 422.304688 276.453125 422.480469 274.007812 422.816406 271.574219 C 423.214844 269.191406 423.347656 266.792969 423.210938 264.378906 C 422.988281 261.953125 422.433594 259.605469 421.554688 257.335938 C 422.769531 259.511719 423.554688 261.832031 423.898438 264.300781 C 424.183594 266.773438 424.117188 269.234375 423.710938 271.6875 C 423.386719 274.105469 423.121094 276.503906 422.980469 278.929688 C 422.839844 281.351562 422.839844 283.785156 422.882812 286.226562 Z M 422.882812 286.226562 " fill-opacity="1" fill-rule="nonzero"/><path fill="#8dbd36" d="M 417 286.859375 C 414.527344 288.230469 411.890625 289.144531 409.097656 289.601562 C 407.691406 289.808594 406.28125 289.839844 404.867188 289.695312 C 403.457031 289.53125 402.078125 289.222656 400.730469 288.773438 C 398.050781 287.894531 395.484375 286.871094 392.832031 286.152344 C 391.511719 285.765625 390.164062 285.488281 388.804688 285.230469 C 387.441406 284.980469 386.0625 284.859375 384.675781 284.652344 L 384.679688 284.5625 C 386.082031 284.492188 387.484375 284.507812 388.886719 284.609375 C 390.289062 284.746094 391.679688 284.96875 393.058594 285.28125 C 395.753906 286.046875 398.386719 286.984375 400.960938 288.09375 C 402.25 288.570312 403.574219 288.910156 404.933594 289.117188 C 406.300781 289.300781 407.671875 289.3125 409.039062 289.15625 C 411.816406 288.820312 414.457031 288.027344 416.960938 286.777344 Z M 417 286.859375 " fill-opacity="1" fill-rule="nonzero"/><path fill="#8dbd36" d="M 403.578125 262.683594 C 401.351562 263.742188 399.011719 264.417969 396.566406 264.710938 C 394.09375 264.949219 391.652344 264.757812 389.246094 264.136719 C 386.867188 263.605469 384.503906 263.105469 382.148438 262.539062 C 379.789062 261.992188 377.425781 261.484375 375.082031 260.769531 L 375.097656 260.679688 C 377.527344 260.886719 379.933594 261.269531 382.339844 261.660156 C 384.734375 262.117188 387.078125 262.816406 389.414062 263.4375 C 391.734375 264.132812 394.105469 264.40625 396.523438 264.261719 C 398.953125 264.089844 401.292969 263.535156 403.539062 262.601562 Z M 403.578125 262.683594 " fill-opacity="1" fill-rule="nonzero"/><path fill="#8dbd36" d="M 404.664062 257.738281 C 404.382812 256.199219 404.199219 254.644531 404.027344 253.089844 C 403.835938 251.535156 403.742188 249.96875 403.699219 248.414062 C 403.699219 246.878906 403.535156 245.363281 403.214844 243.863281 C 402.851562 242.355469 402.339844 240.902344 401.679688 239.496094 C 402.65625 240.761719 403.390625 242.15625 403.878906 243.675781 C 404.359375 245.210938 404.597656 246.777344 404.597656 248.382812 L 404.71875 253.050781 C 404.742188 254.609375 404.753906 256.167969 404.664062 257.738281 Z M 404.664062 257.738281 " fill-opacity="1" fill-rule="nonzero"/><path fill="#8dbd36" d="M 379.660156 240.207031 C 376.21875 240.132812 372.792969 239.847656 369.386719 239.351562 C 367.675781 239.144531 365.980469 238.839844 364.304688 238.4375 C 362.628906 238.011719 360.996094 237.457031 359.40625 236.777344 L 359.429688 236.691406 C 361.148438 236.910156 362.820312 237.265625 364.503906 237.5625 C 366.179688 237.878906 367.832031 238.308594 369.507812 238.640625 C 372.863281 239.289062 376.25 239.78125 379.667969 240.117188 Z M 379.660156 240.207031 " fill-opacity="1" fill-rule="nonzero"/><path fill="#8dbd36" d="M 382.429688 236.289062 C 382.390625 234.636719 382.144531 233.015625 381.691406 231.421875 C 381.210938 229.863281 380.515625 228.402344 379.609375 227.042969 C 378.75 225.625 377.867188 224.199219 377.148438 222.6875 C 376.398438 221.195312 375.664062 219.699219 375.015625 218.160156 C 375.992188 219.523438 376.878906 220.929688 377.75 222.34375 L 380.375 226.574219 C 380.824219 227.296875 381.226562 228.039062 381.585938 228.808594 C 381.933594 229.597656 382.191406 230.414062 382.359375 231.253906 C 382.714844 232.929688 382.738281 234.609375 382.429688 236.289062 Z M 382.429688 236.289062 " fill-opacity="1" fill-rule="nonzero"/><path fill="#599a2a" d="M 512.636719 381.679688 C 513.585938 376.863281 515.355469 372.367188 517.945312 368.191406 C 523.066406 360.027344 527.785156 359.414062 538.964844 349.839844 C 546.957031 342.992188 554.21875 336.640625 558.4375 326.398438 C 560.511719 321.292969 561.621094 315.988281 561.753906 310.476562 C 560.6875 309.648438 559.503906 309.0625 558.195312 308.71875 C 556.890625 308.371094 555.570312 308.296875 554.230469 308.488281 C 552.367188 308.8125 550.746094 309.625 549.363281 310.921875 C 549.503906 313.914062 549.210938 316.859375 548.480469 319.765625 C 547.246094 324.617188 543.957031 332.292969 520.378906 351.386719 C 512.1875 358.023438 507.238281 361.425781 504.230469 368.855469 C 502.8125 372.40625 502.074219 376.089844 502.015625 379.910156 C 499.257812 379.214844 496.453125 378.917969 493.609375 379.027344 C 490.625 379.171875 487.722656 379.730469 484.898438 380.707031 C 482.074219 381.6875 479.449219 383.042969 477.015625 384.777344 C 479.234375 386.355469 481.59375 387.683594 484.09375 388.757812 C 489.328125 390.980469 494.785156 392.011719 500.46875 391.851562 C 500.957031 394.085938 501.84375 396.148438 503.121094 398.042969 C 504.210938 399.613281 505.507812 400.984375 507.019531 402.15625 C 508.527344 403.324219 510.179688 404.238281 511.972656 404.898438 C 512.5625 401.582031 513.152344 398.265625 513.742188 394.949219 C 514.550781 395.328125 515.386719 395.640625 516.246094 395.882812 C 517.105469 396.128906 517.980469 396.300781 518.867188 396.402344 C 519.757812 396.503906 520.644531 396.53125 521.539062 396.488281 C 522.433594 396.441406 523.316406 396.328125 524.1875 396.136719 C 525.0625 395.949219 525.914062 395.691406 526.746094 395.363281 C 527.578125 395.035156 528.378906 394.640625 529.144531 394.183594 C 529.910156 393.726562 530.636719 393.207031 531.320312 392.632812 C 532 392.054688 532.632812 391.425781 533.214844 390.746094 C 529.75 387.464844 525.765625 385.03125 521.265625 383.449219 C 518.46875 382.472656 515.59375 381.882812 512.636719 381.679688 Z M 512.636719 381.679688 " fill-opacity="1" fill-rule="nonzero"/><path fill="#f5ecbb" d="M 434.976562 596.171875 C 431.460938 596.953125 425.269531 598.230469 417.496094 599.269531 C 380.554688 604.191406 362.441406 596.355469 311.074219 596.171875 C 295.859375 596.117188 287.667969 592.222656 280.101562 589.90625 C 255.023438 582.242188 250.3125 589.015625 220.140625 578.261719 C 208.105469 573.972656 190.640625 562.613281 165.933594 554.230469 C 160.589844 562.527344 142.46875 594.761719 146.019531 632.65625 C 147.050781 643.648438 151.808594 677.433594 179.207031 703.417969 C 212.378906 734.875 255.824219 733.179688 281.871094 732.164062 C 296.339844 731.601562 337.496094 729.441406 377.007812 700.765625 C 389.605469 691.621094 419.195312 670.148438 430.550781 630.890625 C 433.808594 619.542969 435.285156 607.972656 434.976562 596.171875 Z M 434.976562 596.171875 " fill-opacity="1" fill-rule="nonzero"/><path fill="#fa8400" d="M 434.976562 596.171875 C 440.621094 605.570312 459.167969 631.6875 454.445312 662.730469 C 448.308594 703.105469 416.117188 725.242188 400.902344 735.703125 C 359.859375 763.925781 316.429688 762.457031 296.914062 761.796875 C 277.167969 761.125 238.429688 759.296875 200.890625 732.605469 C 189.070312 724.203125 161.382812 703.929688 148.234375 665.828125 C 144.636719 655.402344 133.621094 621.902344 147.789062 585.335938 C 152.320312 574.085938 158.367188 563.714844 165.933594 554.230469 C 160.839844 563.207031 140.671875 601.207031 150.296875 646.808594 C 152.238281 655.992188 157.632812 680.414062 188.945312 705.480469 C 245.238281 750.546875 325.578125 724.246094 337.921875 719.339844 C 352.164062 713.671875 391.03125 701.332031 416.835938 654.328125 C 421.742188 645.324219 425.71875 635.929688 428.773438 626.144531 C 431.828125 616.355469 433.894531 606.367188 434.976562 596.171875 Z M 434.976562 596.171875 " fill-opacity="1" fill-rule="nonzero"/><path fill="#fea41f" d="M 317.269531 598.75 C 325.8125 592.09375 333.980469 597.511719 361.519531 598.382812 C 371.078125 598.6875 390.648438 601.25 395.261719 600.816406 C 418.777344 598.601562 423.140625 597.609375 423.25 600.152344 C 423.441406 604.574219 424.96875 607.222656 421.996094 618.210938 C 418.398438 631.535156 412.59375 643.820312 404.589844 655.066406 C 398.835938 663.128906 392.949219 671.195312 382.171875 677.472656 C 375.523438 681.34375 371.082031 683.929688 365.652344 683.074219 C 357.945312 681.859375 356.460938 675.011719 341.164062 654.769531 C 332.285156 643.023438 327.847656 637.148438 323.761719 632.65625 C 316.101562 624.246094 311.664062 620.871094 311.074219 614.378906 C 310.636719 609.515625 312.328125 602.605469 317.269531 598.75 Z M 317.269531 598.75 " fill-opacity="1" fill-rule="nonzero"/><path fill="#fec01f" d="M 318.820312 610.988281 C 319.671875 618.523438 324.816406 621.757812 332.980469 630.890625 C 340.355469 639.136719 337.675781 638.199219 350.457031 654.105469 C 363.050781 669.78125 365.640625 670.675781 367.714844 670.914062 C 375.609375 671.804688 382.835938 663.875 390.726562 655.210938 C 394.476562 651.097656 397.207031 647.015625 402.675781 638.847656 C 409.390625 628.816406 410.804688 625.171875 411.304688 623.8125 C 414.105469 616.171875 414.324219 604.421875 411.523438 599.929688 C 409.601562 596.847656 400.683594 598.382812 389.839844 598.605469 C 355.664062 599.300781 360.1875 597.386719 349.90625 597.386719 C 345.148438 597.386719 337.726562 595.03125 328.886719 595.507812 C 322.453125 595.855469 322.921875 598.808594 321.472656 600.375 C 318.039062 604.082031 318.65625 609.558594 318.820312 610.988281 Z M 318.820312 610.988281 " fill-opacity="1" fill-rule="nonzero"/><path fill="#fea41f" d="M 357.390625 613.199219 C 360.679688 613.5 363.976562 613.546875 367.273438 613.347656 C 369.214844 613.046875 371.082031 613.292969 372.878906 614.082031 C 374.1875 614.671875 375.171875 615.605469 375.828125 616.882812 C 376.484375 618.253906 376.855469 620.484375 375.828125 621.75 C 373.917969 624.109375 368.066406 622.007812 365.652344 620.863281 C 363.929688 620.015625 362.367188 618.941406 360.960938 617.636719 C 359.554688 616.332031 358.363281 614.851562 357.390625 613.199219 Z M 357.390625 613.199219 " fill-opacity="1" fill-rule="nonzero"/><path fill="#fea41f" d="M 381.285156 606.121094 C 384.578125 606.421875 387.871094 606.472656 391.167969 606.269531 C 393.109375 605.972656 394.976562 606.214844 396.773438 607.007812 C 398.085938 607.597656 399.066406 608.53125 399.722656 609.808594 C 400.382812 611.175781 400.75 613.40625 399.722656 614.671875 C 397.8125 617.03125 391.960938 614.933594 389.546875 613.789062 C 387.824219 612.941406 386.261719 611.863281 384.855469 610.558594 C 383.449219 609.253906 382.257812 607.777344 381.285156 606.121094 Z M 381.285156 606.121094 " fill-opacity="1" fill-rule="nonzero"/><path fill="#fea41f" d="M 356.800781 645.042969 C 360.089844 645.339844 363.386719 645.390625 366.683594 645.1875 C 368.625 644.890625 370.492188 645.132812 372.289062 645.925781 C 373.597656 646.515625 374.582031 647.449219 375.238281 648.726562 C 375.894531 650.09375 376.265625 652.324219 375.238281 653.589844 C 373.328125 655.949219 367.476562 653.851562 365.0625 652.707031 C 363.339844 651.859375 361.777344 650.78125 360.371094 649.476562 C 358.964844 648.171875 357.773438 646.695312 356.800781 645.042969 Z M 356.800781 645.042969 " fill-opacity="1" fill-rule="nonzero"/><path fill="#fea41f" d="M 331.429688 601.109375 C 334.722656 601.410156 338.015625 601.460938 341.3125 601.257812 C 343.253906 600.957031 345.121094 601.203125 346.917969 601.996094 C 348.230469 602.585938 349.210938 603.519531 349.867188 604.796875 C 350.527344 606.164062 350.894531 608.394531 349.867188 609.660156 C 347.957031 612.019531 342.105469 609.921875 339.691406 608.777344 C 337.96875 607.929688 336.40625 606.851562 335 605.546875 C 333.59375 604.242188 332.402344 602.765625 331.429688 601.109375 Z M 331.429688 601.109375 " fill-opacity="1" fill-rule="nonzero"/><path fill="#ffcc5d" d="M 373.617188 630.003906 C 376.90625 630.304688 380.199219 630.351562 383.5 630.152344 C 385.4375 629.851562 387.308594 630.097656 389.105469 630.890625 C 390.414062 631.476562 391.398438 632.410156 392.054688 633.691406 C 392.710938 635.058594 393.078125 637.289062 392.054688 638.554688 C 390.140625 640.914062 384.292969 638.8125 381.875 637.671875 C 380.15625 636.824219 378.589844 635.746094 377.183594 634.441406 C 375.777344 633.136719 374.589844 631.65625 373.617188 630.003906 Z M 373.617188 630.003906 " fill-opacity="1" fill-rule="nonzero"/><path fill="#ffcc5d" d="M 340.011719 621.082031 C 342.855469 622.761719 345.8125 624.210938 348.878906 625.441406 C 350.761719 626 352.347656 627.019531 353.632812 628.5 C 354.566406 629.59375 355.054688 630.859375 355.101562 632.292969 C 355.109375 633.8125 354.488281 635.984375 353.019531 636.691406 C 350.28125 638.007812 345.890625 633.609375 344.199219 631.542969 C 343.003906 630.042969 342.050781 628.398438 341.339844 626.621094 C 340.625 624.839844 340.183594 622.992188 340.011719 621.082031 Z M 340.011719 621.082031 " fill-opacity="1" fill-rule="nonzero"/><path fill="#fea41f" d="M 293.765625 617.523438 C 294.339844 617.285156 294.929688 617.097656 295.539062 616.957031 C 296.144531 616.816406 296.757812 616.726562 297.378906 616.683594 C 298 616.644531 298.621094 616.652344 299.242188 616.714844 C 299.863281 616.773438 300.472656 616.886719 301.074219 617.046875 C 301.675781 617.207031 302.261719 617.414062 302.828125 617.671875 C 303.398438 617.925781 303.941406 618.226562 304.460938 618.570312 C 304.976562 618.914062 305.464844 619.300781 305.921875 619.722656 C 306.378906 620.148438 306.796875 620.605469 307.175781 621.097656 C 321.042969 638.957031 332.019531 652.855469 338.511719 660.960938 C 347.136719 671.734375 351.453125 677.121094 352.964844 678.355469 C 356.105469 680.921875 358.886719 682.609375 359.75 686.023438 C 360.015625 687.070312 361.042969 691.996094 353.851562 700.175781 C 340.847656 714.957031 320.34375 718.351562 303.699219 721.109375 C 296.074219 722.558594 288.40625 722.851562 280.691406 721.992188 C 271.375 720.859375 263.203125 719.863281 259.746094 714.328125 C 257.011719 709.949219 259.007812 705.589844 265.941406 685.136719 C 272.9375 664.488281 276.4375 654.164062 276.855469 651.234375 C 277.902344 643.878906 278.226562 635.136719 283.640625 626.464844 C 285.417969 623.449219 287.777344 620.992188 290.71875 619.09375 C 291.691406 618.488281 292.707031 617.960938 293.765625 617.523438 Z M 293.765625 617.523438 " fill-opacity="1" fill-rule="nonzero"/><path fill="#fec01f" d="M 300.011719 623.589844 C 307.734375 624.429688 309.828125 631.890625 320.589844 645.703125 C 328.75 656.183594 335.695312 662.355469 346.253906 678.210938 C 348.617188 681.757812 350.621094 684.980469 350.015625 688.824219 C 348.914062 695.828125 339.972656 699.679688 330.988281 703.417969 C 319 708.40625 309.34375 709.429688 296.25 710.714844 C 277.007812 712.601562 274.574219 710.398438 273.683594 709.386719 C 270.738281 706.050781 272.714844 702.257812 274.570312 682.632812 C 275.832031 669.273438 277.351562 668.945312 278.625 662.4375 C 280.519531 652.757812 279.554688 654.742188 283.199219 640.617188 C 285.097656 633.253906 285.476562 629.980469 288.730469 627.128906 C 290.296875 625.808594 292.058594 624.839844 294.015625 624.226562 C 295.972656 623.609375 297.96875 623.398438 300.011719 623.589844 Z M 300.011719 623.589844 " fill-opacity="1" fill-rule="nonzero"/><path fill="#fea41f" d="M 269.480469 607.449219 C 261.070312 606.453125 252.996094 609.804688 242.929688 614.527344 C 229.332031 620.902344 232.925781 616.789062 209.742188 626.023438 C 188.070312 634.65625 187.902344 637.066406 177.882812 638.40625 C 170.863281 639.347656 166.28125 642.078125 163.5 645.484375 C 159.289062 650.636719 163.019531 656.585938 165.933594 664.277344 C 167.796875 669.554688 170.242188 674.546875 173.269531 679.253906 C 176.296875 683.960938 179.828125 688.253906 183.855469 692.140625 C 191.976562 699.90625 199.671875 703.589844 210.40625 708.726562 C 216.660156 711.734375 223.148438 714.089844 229.875 715.800781 C 239.164062 718.160156 243.808594 719.339844 248.019531 717.347656 C 252.113281 715.414062 253.644531 711.679688 258.636719 695.457031 C 263.226562 680.550781 265.148438 673.25 268.816406 660.960938 C 273.054688 646.753906 275.171875 639.652344 275.230469 639.511719 C 278.5625 631.742188 281.820312 627 280.320312 620.71875 C 279.429688 617.488281 277.878906 614.613281 275.675781 612.09375 C 275.675781 612.09375 273.28125 607.898438 269.480469 607.449219 Z M 269.480469 607.449219 " fill-opacity="1" fill-rule="nonzero"/><path fill="#fec01f" d="M 262.988281 614.96875 C 257.085938 613.089844 252.074219 614.824219 230.835938 624.699219 C 206.84375 635.847656 210.886719 634.730469 206.644531 636.195312 C 201.128906 638.101562 195.058594 639.730469 188.648438 645.039062 C 185.660156 647.515625 182.9375 649.773438 181.570312 653.589844 C 178.34375 662.582031 185.492188 672.25 187.175781 674.523438 C 189.722656 677.96875 189.511719 681.007812 207.527344 691.917969 C 221.9375 700.644531 225.296875 699.605469 227.292969 699.585938 C 237.515625 699.476562 244.96875 687.703125 254.433594 672.753906 C 259.320312 665.042969 255.445312 669.351562 268.59375 642.09375 C 272.453125 634.089844 275.246094 628.621094 273.019531 623.222656 C 270.679688 617.554688 264.210938 615.355469 262.988281 614.96875 Z M 262.988281 614.96875 " fill-opacity="1" fill-rule="nonzero"/><path fill="#fea41f" d="M 273.609375 589.316406 C 269.773438 584.894531 256.929688 584.035156 235.554688 579.292969 C 228.148438 577.5625 220.871094 575.398438 213.722656 572.808594 C 193.945312 566.066406 188.246094 561.675781 180.980469 564.550781 C 176.265625 566.414062 173.902344 570.316406 169.179688 578.113281 C 161.886719 590.148438 160.382812 601.269531 159.445312 608.777344 C 157.839844 621.609375 156.804688 629.914062 161.507812 633.542969 C 163.453125 635.042969 166.761719 636.039062 185.109375 630.003906 C 201.183594 624.71875 203.449219 622.371094 218.148438 617.328125 C 234.835938 611.597656 245.878906 608.777344 245.878906 608.777344 C 252.359375 607.121094 258.410156 604.089844 264.757812 601.996094 C 269.035156 600.585938 273.273438 599.273438 274.496094 595.804688 C 274.816406 594.710938 274.898438 593.597656 274.746094 592.464844 C 274.59375 591.335938 274.214844 590.285156 273.609375 589.316406 Z M 273.609375 589.316406 " fill-opacity="1" fill-rule="nonzero"/><path fill="#fec01f" d="M 187.835938 568.308594 C 182.515625 571.328125 177.917969 577.714844 173.898438 587.105469 C 172.597656 590.144531 162.871094 612.882812 170.800781 619.613281 C 174.3125 622.589844 180.785156 620.828125 193.589844 617.179688 C 203.726562 614.292969 205.03125 612.796875 223.902344 605.902344 C 235.925781 601.507812 241.9375 599.3125 244.257812 599.046875 C 249.78125 598.414062 255.324219 598.761719 259.964844 594.84375 C 261.40625 593.632812 264.738281 591.144531 264.390625 588.652344 C 263.730469 583.929688 250.597656 583.675781 233.636719 580.03125 C 203.613281 573.574219 198.105469 562.488281 187.835938 568.308594 Z M 187.835938 568.308594 " fill-opacity="1" fill-rule="nonzero"/><path fill="#ffcc5d" d="M 298.292969 631.003906 C 299.648438 634.015625 301.222656 636.90625 303.019531 639.679688 C 304.230469 641.222656 304.933594 642.96875 305.128906 644.921875 C 305.257812 646.351562 304.929688 647.667969 304.136719 648.863281 C 303.269531 650.109375 301.503906 651.527344 299.898438 651.253906 C 296.902344 650.75 295.859375 644.625 295.667969 641.960938 C 295.5625 640.046875 295.730469 638.15625 296.179688 636.289062 C 296.625 634.425781 297.328125 632.664062 298.292969 631.003906 Z M 298.292969 631.003906 " fill-opacity="1" fill-rule="nonzero"/><path fill="#fea41f" d="M 260.96875 624.882812 C 259.386719 627.785156 258.035156 630.785156 256.910156 633.890625 C 256.414062 635.789062 255.445312 637.402344 254.003906 638.738281 C 252.941406 639.707031 251.695312 640.238281 250.261719 640.332031 C 248.742188 640.390625 246.550781 639.839844 245.792969 638.398438 C 244.386719 635.707031 248.640625 631.175781 250.648438 629.414062 C 252.113281 628.171875 253.722656 627.167969 255.480469 626.394531 C 257.234375 625.625 259.066406 625.121094 260.96875 624.882812 Z M 260.96875 624.882812 " fill-opacity="1" fill-rule="nonzero"/><path fill="#fea41f" d="M 247.46875 592.03125 C 244.296875 592.953125 241.214844 594.109375 238.214844 595.5 C 236.519531 596.488281 234.691406 596.941406 232.730469 596.863281 C 231.292969 596.792969 230.039062 596.28125 228.960938 595.332031 C 227.847656 594.296875 226.691406 592.355469 227.179688 590.800781 C 228.097656 587.910156 234.3125 587.726562 236.980469 587.910156 C 238.890625 588.070312 240.742188 588.503906 242.527344 589.203125 C 244.3125 589.90625 245.960938 590.847656 247.46875 592.03125 Z M 247.46875 592.03125 " fill-opacity="1" fill-rule="nonzero"/><path fill="#fea41f" d="M 211.480469 579.648438 C 208.308594 580.570312 205.222656 581.726562 202.226562 583.117188 C 200.53125 584.105469 198.699219 584.558594 196.738281 584.476562 C 195.304688 584.410156 194.046875 583.898438 192.96875 582.949219 C 191.855469 581.914062 190.699219 579.972656 191.191406 578.417969 C 192.109375 575.523438 198.320312 575.34375 200.988281 575.527344 C 202.902344 575.6875 204.75 576.121094 206.535156 576.820312 C 208.320312 577.523438 209.96875 578.464844 211.480469 579.648438 Z M 211.480469 579.648438 " fill-opacity="1" fill-rule="nonzero"/><path fill="#fea41f" d="M 193.191406 610.3125 C 190.015625 611.234375 186.933594 612.390625 183.9375 613.78125 C 182.238281 614.769531 180.410156 615.222656 178.449219 615.140625 C 177.011719 615.070312 175.757812 614.5625 174.679688 613.609375 C 173.566406 612.578125 172.410156 610.636719 172.902344 609.082031 C 173.816406 606.1875 180.03125 606.007812 182.699219 606.191406 C 184.609375 606.351562 186.460938 606.78125 188.246094 607.484375 C 190.03125 608.183594 191.679688 609.128906 193.191406 610.3125 Z M 193.191406 610.3125 " fill-opacity="1" fill-rule="nonzero"/><path fill="#ffcc5d" d="M 214.726562 595.863281 C 211.550781 596.785156 208.46875 597.941406 205.472656 599.335938 C 203.773438 600.320312 201.945312 600.773438 199.984375 600.695312 C 198.546875 600.625 197.292969 600.113281 196.214844 599.164062 C 195.101562 598.128906 193.945312 596.1875 194.4375 594.636719 C 195.351562 591.742188 201.566406 591.558594 204.234375 591.742188 C 206.144531 591.902344 207.996094 592.335938 209.78125 593.035156 C 211.566406 593.738281 213.214844 594.679688 214.726562 595.863281 Z M 214.726562 595.863281 " fill-opacity="1" fill-rule="nonzero"/><path fill="#fea41f" d="M 237.074219 628.863281 C 235.492188 631.765625 234.140625 634.765625 233.011719 637.871094 C 232.515625 639.769531 231.550781 641.382812 230.109375 642.71875 C 229.046875 643.6875 227.800781 644.21875 226.367188 644.3125 C 224.847656 644.371094 222.652344 643.820312 221.898438 642.378906 C 220.492188 639.6875 224.746094 635.15625 226.753906 633.394531 C 228.21875 632.152344 229.828125 631.148438 231.582031 630.375 C 233.339844 629.605469 235.171875 629.101562 237.074219 628.863281 Z M 237.074219 628.863281 " fill-opacity="1" fill-rule="nonzero"/><path fill="#fea41f" d="M 253.226562 652.082031 C 251.644531 654.980469 250.289062 657.984375 249.164062 661.089844 C 248.667969 662.988281 247.699219 664.601562 246.261719 665.9375 C 245.199219 666.902344 243.953125 667.433594 242.515625 667.527344 C 241 667.589844 238.804688 667.039062 238.050781 665.597656 C 236.644531 662.90625 240.894531 658.375 242.90625 656.613281 C 244.367188 655.371094 245.976562 654.363281 247.734375 653.59375 C 249.492188 652.824219 251.324219 652.320312 253.226562 652.082031 Z M 253.226562 652.082031 " fill-opacity="1" fill-rule="nonzero"/><path fill="#ffcc5d" d="M 226.898438 656.949219 C 225.316406 659.847656 223.960938 662.847656 222.835938 665.953125 C 222.339844 667.851562 221.371094 669.46875 219.933594 670.800781 C 218.871094 671.769531 217.621094 672.300781 216.1875 672.394531 C 214.671875 672.453125 212.476562 671.90625 211.722656 670.460938 C 210.3125 667.769531 214.566406 663.238281 216.578125 661.476562 C 218.039062 660.234375 219.648438 659.230469 221.40625 658.457031 C 223.164062 657.6875 224.992188 657.183594 226.898438 656.949219 Z M 226.898438 656.949219 " fill-opacity="1" fill-rule="nonzero"/><path fill="#ffcc5d" d="M 208.3125 649.652344 C 206.730469 652.550781 205.375 655.550781 204.25 658.65625 C 203.753906 660.554688 202.785156 662.171875 201.347656 663.503906 C 200.285156 664.472656 199.035156 665.003906 197.601562 665.097656 C 196.085938 665.15625 193.890625 664.605469 193.136719 663.164062 C 191.730469 660.472656 195.980469 655.941406 197.992188 654.179688 C 199.453125 652.9375 201.0625 651.933594 202.820312 651.160156 C 204.578125 650.390625 206.410156 649.886719 208.3125 649.652344 Z M 208.3125 649.652344 " fill-opacity="1" fill-rule="nonzero"/><path fill="#fea41f" d="M 235.746094 676.628906 C 234.164062 679.527344 232.8125 682.527344 231.6875 685.632812 C 231.191406 687.53125 230.222656 689.148438 228.78125 690.480469 C 227.71875 691.449219 226.472656 691.980469 225.039062 692.074219 C 223.519531 692.132812 221.328125 691.585938 220.570312 690.140625 C 219.164062 687.449219 223.417969 682.917969 225.425781 681.15625 C 226.890625 679.917969 228.5 678.910156 230.257812 678.136719 C 232.011719 677.367188 233.84375 676.863281 235.746094 676.628906 Z M 235.746094 676.628906 " fill-opacity="1" fill-rule="nonzero"/><path fill="#fea41f" d="M 317.320312 649.136719 C 318.675781 652.148438 320.25 655.039062 322.046875 657.8125 C 323.257812 659.355469 323.964844 661.101562 324.15625 663.054688 C 324.285156 664.484375 323.957031 665.796875 323.164062 666.996094 C 322.296875 668.242188 320.53125 669.65625 318.925781 669.386719 C 315.929688 668.882812 314.886719 662.757812 314.695312 660.09375 C 314.589844 658.179688 314.757812 656.289062 315.207031 654.421875 C 315.652344 652.558594 316.355469 650.796875 317.320312 649.136719 Z M 317.320312 649.136719 " fill-opacity="1" fill-rule="nonzero"/><path fill="#fea41f" d="M 289 658.425781 C 290.355469 661.433594 291.929688 664.328125 293.726562 667.097656 C 294.9375 668.640625 295.644531 670.386719 295.835938 672.339844 C 295.964844 673.769531 295.636719 675.085938 294.84375 676.285156 C 293.976562 677.527344 292.210938 678.945312 290.605469 678.675781 C 287.609375 678.167969 286.566406 672.046875 286.375 669.378906 C 286.269531 667.464844 286.4375 665.574219 286.886719 663.710938 C 287.332031 661.84375 288.035156 660.082031 289 658.425781 Z M 289 658.425781 " fill-opacity="1" fill-rule="nonzero"/><path fill="#fea41f" d="M 306.921875 672.574219 C 308.277344 675.585938 309.851562 678.480469 311.644531 681.25 C 312.859375 682.792969 313.5625 684.539062 313.757812 686.492188 C 313.886719 687.921875 313.558594 689.238281 312.765625 690.4375 C 311.898438 691.679688 310.132812 693.097656 308.527344 692.828125 C 305.53125 692.320312 304.488281 686.195312 304.296875 683.53125 C 304.191406 681.617188 304.359375 679.726562 304.808594 677.863281 C 305.253906 675.996094 305.957031 674.234375 306.921875 672.574219 Z M 306.921875 672.574219 " fill-opacity="1" fill-rule="nonzero"/><path fill="#ffcc5d" d="M 329.488281 674.566406 C 330.84375 677.578125 332.417969 680.46875 334.214844 683.242188 C 335.429688 684.785156 336.132812 686.53125 336.324219 688.484375 C 336.457031 689.914062 336.125 691.226562 335.332031 692.425781 C 334.464844 693.671875 332.703125 695.085938 331.09375 694.816406 C 328.097656 694.3125 327.054688 688.1875 326.863281 685.523438 C 326.757812 683.609375 326.929688 681.71875 327.375 679.851562 C 327.820312 677.988281 328.527344 676.226562 329.488281 674.566406 Z M 329.488281 674.566406 " fill-opacity="1" fill-rule="nonzero"/><path fill="#ffcc5d" d="M 290.324219 685.84375 C 291.679688 688.855469 293.257812 691.746094 295.050781 694.519531 C 296.265625 696.0625 296.96875 697.808594 297.164062 699.761719 C 297.292969 701.191406 296.964844 702.503906 296.171875 703.703125 C 295.304688 704.949219 293.539062 706.363281 291.933594 706.09375 C 288.9375 705.589844 287.894531 699.464844 287.703125 696.800781 C 287.597656 694.886719 287.765625 692.996094 288.214844 691.128906 C 288.660156 689.265625 289.363281 687.503906 290.324219 685.84375 Z M 290.324219 685.84375 " fill-opacity="1" fill-rule="nonzero"/></svg>