<svg xmlns="http://www.w3.org/2000/svg" xmlns:xlink="http://www.w3.org/1999/xlink" width="1080" zoomAndPan="magnify" viewBox="0 0 810 1012.49997" height="1350" preserveAspectRatio="xMidYMid meet" version="1.0"><path fill="#f27b06" d="M 570.167969 359.84375 C 588.445312 367.894531 638.175781 390.667969 669.21875 446.804688 C 701.644531 505.4375 692.578125 562.292969 689.433594 580.285156 C 685.3125 603.855469 671.855469 657.292969 624.746094 699.605469 C 547.464844 769.023438 446.074219 748.800781 433.71875 746.121094 C 423.230469 743.847656 299.632812 714.851562 267.960938 600.507812 C 243.035156 510.511719 288.988281 417.96875 359.9375 371.976562 C 454.222656 310.855469 557.929688 354.453125 570.167969 359.84375 Z M 570.167969 359.84375 " fill-opacity="1" fill-rule="nonzero"/><path fill="#fe8d00" d="M 657.667969 439.761719 C 684.976562 500.308594 666.769531 559.039062 661.835938 574.167969 C 659.804688 580.382812 625.589844 679.390625 523.324219 706.492188 C 439.804688 728.625 351.214844 692.117188 305.664062 624.183594 C 298.996094 614.234375 255.46875 546.902344 279.628906 464.769531 C 308.648438 366.117188 411.09375 345.988281 419.570312 343.664062 C 512.238281 318.253906 619.136719 354.332031 657.667969 439.761719 Z M 657.667969 439.761719 " fill-opacity="1" fill-rule="nonzero"/><path fill="#ffaa4d" d="M 377.625 380.574219 C 386.90625 371.585938 398.640625 370.699219 408.453125 369.953125 C 417.476562 369.273438 426.878906 368.558594 429.675781 373.492188 C 433.449219 380.148438 422.460938 392.210938 421.085938 393.71875 C 409.691406 406.226562 394.285156 407.582031 390.257812 407.875 C 384.011719 408.328125 372.042969 409.195312 368.527344 402.820312 C 364.882812 396.207031 372.410156 385.621094 377.625 380.574219 Z M 377.625 380.574219 " fill-opacity="1" fill-rule="nonzero"/><path fill="#ffaa4d" d="M 361.957031 428.097656 C 361.957031 428.996094 361.871094 429.882812 361.695312 430.761719 C 361.519531 431.640625 361.261719 432.492188 360.917969 433.320312 C 360.574219 434.148438 360.15625 434.9375 359.65625 435.683594 C 359.160156 436.425781 358.59375 437.117188 357.960938 437.75 C 357.328125 438.382812 356.636719 438.949219 355.894531 439.449219 C 355.148438 439.945312 354.363281 440.367188 353.535156 440.710938 C 352.707031 441.050781 351.855469 441.3125 350.976562 441.488281 C 350.097656 441.660156 349.210938 441.75 348.3125 441.75 C 347.417969 441.75 346.53125 441.660156 345.652344 441.488281 C 344.773438 441.3125 343.917969 441.050781 343.09375 440.710938 C 342.265625 440.367188 341.476562 439.945312 340.734375 439.449219 C 339.988281 438.949219 339.300781 438.382812 338.664062 437.75 C 338.03125 437.117188 337.464844 436.425781 336.96875 435.683594 C 336.472656 434.9375 336.050781 434.148438 335.707031 433.320312 C 335.363281 432.492188 335.105469 431.640625 334.929688 430.761719 C 334.757812 429.882812 334.667969 428.996094 334.667969 428.097656 C 334.667969 427.203125 334.757812 426.3125 334.929688 425.433594 C 335.105469 424.554688 335.363281 423.703125 335.707031 422.875 C 336.050781 422.046875 336.46875 421.257812 336.96875 420.515625 C 337.464844 419.769531 338.03125 419.078125 338.664062 418.445312 C 339.296875 417.8125 339.988281 417.246094 340.734375 416.746094 C 341.476562 416.25 342.265625 415.828125 343.09375 415.488281 C 343.917969 415.144531 344.773438 414.882812 345.652344 414.710938 C 346.53125 414.535156 347.417969 414.449219 348.3125 414.449219 C 349.210938 414.449219 350.097656 414.535156 350.976562 414.710938 C 351.855469 414.882812 352.707031 415.144531 353.535156 415.488281 C 354.363281 415.828125 355.148438 416.25 355.894531 416.746094 C 356.636719 417.246094 357.328125 417.8125 357.960938 418.445312 C 358.59375 419.078125 359.160156 419.769531 359.65625 420.515625 C 360.15625 421.257812 360.574219 422.046875 360.917969 422.875 C 361.261719 423.703125 361.519531 424.554688 361.695312 425.433594 C 361.871094 426.3125 361.957031 427.203125 361.957031 428.097656 Z M 361.957031 428.097656 " fill-opacity="1" fill-rule="nonzero"/><path fill="#599a2a" d="M 547.59375 309.621094 C 541.207031 313.382812 518.425781 325.78125 495.039062 317.710938 C 476.503906 311.316406 466.96875 295.300781 456.628906 277.9375 C 439.875 249.789062 444.175781 237.898438 430.351562 217.265625 C 414.304688 193.3125 391.125 183.074219 383.183594 179.511719 C 346.238281 162.9375 311.816406 170.402344 300.304688 173.445312 C 307.019531 179.601562 313.082031 186.34375 318.496094 193.667969 C 333.738281 214.3125 335.753906 228.984375 348.144531 257.710938 C 359.417969 283.84375 365.054688 296.910156 374.425781 306.25 C 399.695312 331.4375 439.863281 329.9375 445.847656 329.84375 C 463.527344 329.566406 468.199219 325.082031 492.089844 325.96875 C 502.847656 326.367188 510.140625 327.582031 520.390625 324.957031 C 525.492188 323.574219 530.347656 321.585938 534.953125 318.992188 C 539.558594 316.394531 543.773438 313.273438 547.59375 309.621094 Z M 547.59375 309.621094 " fill-opacity="1" fill-rule="nonzero"/><path fill="#8dbd36" d="M 498.40625 322.429688 C 487.988281 321.136719 478.003906 318.320312 468.449219 313.972656 C 463.710938 311.773438 459.15625 309.246094 454.789062 306.378906 C 450.410156 303.535156 446.242188 300.402344 442.292969 296.984375 C 434.398438 290.113281 427.285156 282.511719 420.941406 274.1875 C 414.464844 265.984375 408.660156 257.335938 403.527344 248.230469 C 401.148438 243.617188 398.5 239.164062 395.582031 234.871094 C 392.5625 230.652344 389.277344 226.648438 385.730469 222.859375 C 378.625 215.246094 370.878906 208.355469 362.488281 202.1875 C 354.097656 196.023438 345.210938 190.6875 335.824219 186.179688 C 326.449219 181.625 316.742188 177.945312 306.707031 175.132812 C 316.800781 177.785156 326.578125 181.316406 336.042969 185.726562 C 345.492188 190.195312 354.445312 195.503906 362.90625 201.648438 C 371.367188 207.792969 379.183594 214.667969 386.359375 222.273438 C 389.953125 226.074219 393.285156 230.089844 396.351562 234.324219 C 399.316406 238.632812 402.007812 243.101562 404.421875 247.734375 C 409.484375 256.824219 415.214844 265.46875 421.617188 273.664062 C 427.882812 281.984375 434.921875 289.589844 442.738281 296.46875 C 446.648438 299.890625 450.773438 303.027344 455.117188 305.882812 C 459.449219 308.753906 463.964844 311.296875 468.660156 313.519531 C 478.121094 318.007812 488.039062 320.976562 498.40625 322.429688 Z M 498.40625 322.429688 " fill-opacity="1" fill-rule="nonzero"/><path fill="#8dbd36" d="M 434.058594 284.339844 C 434.425781 282.171875 434.660156 279.992188 434.769531 277.796875 C 434.863281 275.617188 434.804688 273.441406 434.589844 271.269531 C 434.378906 269.101562 434.015625 266.957031 433.496094 264.835938 C 432.964844 262.703125 432.308594 260.609375 431.53125 258.554688 C 432.679688 260.46875 433.589844 262.492188 434.257812 264.621094 C 434.945312 266.753906 435.398438 268.9375 435.613281 271.171875 C 435.832031 273.402344 435.8125 275.632812 435.554688 277.859375 C 435.3125 280.078125 434.8125 282.238281 434.058594 284.339844 Z M 434.058594 284.339844 " fill-opacity="1" fill-rule="nonzero"/><path fill="#8dbd36" d="M 430.714844 288.933594 C 427.839844 290.898438 424.726562 292.359375 421.375 293.3125 C 418.007812 294.253906 414.578125 294.675781 411.082031 294.582031 C 407.582031 294.535156 404.160156 293.992188 400.816406 292.953125 C 397.488281 291.914062 394.355469 290.464844 391.414062 288.597656 L 391.460938 288.507812 C 394.59375 289.898438 397.804688 291.050781 401.105469 291.964844 C 404.378906 292.925781 407.714844 293.523438 411.117188 293.761719 C 414.539062 293.957031 417.914062 293.640625 421.242188 292.816406 C 424.59375 292.003906 427.734375 290.679688 430.660156 288.847656 Z M 430.714844 288.933594 " fill-opacity="1" fill-rule="nonzero"/><path fill="#8dbd36" d="M 411.820312 257.039062 C 411.363281 254.269531 411.136719 251.480469 411.148438 248.671875 C 411.164062 245.863281 411.363281 243.066406 411.75 240.285156 C 412.203125 237.5625 412.351562 234.816406 412.199219 232.058594 C 411.941406 229.285156 411.308594 226.601562 410.304688 224.003906 C 411.695312 226.492188 412.589844 229.148438 412.984375 231.96875 C 413.304688 234.792969 413.234375 237.609375 412.765625 240.414062 C 412.398438 243.175781 412.097656 245.921875 411.933594 248.691406 C 411.773438 251.460938 411.773438 254.242188 411.820312 257.039062 Z M 411.820312 257.039062 " fill-opacity="1" fill-rule="nonzero"/><path fill="#8dbd36" d="M 405.105469 257.757812 C 402.277344 259.324219 399.269531 260.371094 396.078125 260.894531 C 394.472656 261.128906 392.863281 261.167969 391.246094 261.003906 C 389.636719 260.8125 388.0625 260.460938 386.523438 259.949219 C 383.464844 258.941406 380.535156 257.773438 377.503906 256.949219 C 375.996094 256.507812 374.453125 256.191406 372.902344 255.898438 C 371.347656 255.613281 369.773438 255.472656 368.191406 255.234375 L 368.191406 255.132812 C 369.792969 255.054688 371.394531 255.070312 372.996094 255.1875 C 374.601562 255.34375 376.1875 255.597656 377.761719 255.957031 C 380.839844 256.832031 383.847656 257.902344 386.785156 259.167969 C 388.257812 259.714844 389.773438 260.105469 391.324219 260.339844 C 392.886719 260.546875 394.449219 260.5625 396.015625 260.386719 C 399.1875 260 402.203125 259.09375 405.058594 257.667969 Z M 405.105469 257.757812 " fill-opacity="1" fill-rule="nonzero"/><path fill="#8dbd36" d="M 389.773438 230.121094 C 387.230469 231.328125 384.5625 232.101562 381.765625 232.4375 C 378.941406 232.710938 376.15625 232.492188 373.410156 231.78125 C 370.691406 231.175781 367.992188 230.605469 365.300781 229.957031 C 362.609375 229.332031 359.90625 228.746094 357.234375 227.933594 L 357.25 227.832031 C 360.023438 228.066406 362.773438 228.503906 365.519531 228.953125 C 368.253906 229.472656 370.929688 230.273438 373.601562 230.980469 C 376.25 231.777344 378.957031 232.089844 381.722656 231.925781 C 384.496094 231.730469 387.164062 231.097656 389.734375 230.023438 Z M 389.773438 230.121094 " fill-opacity="1" fill-rule="nonzero"/><path fill="#8dbd36" d="M 391.015625 224.46875 C 390.695312 222.707031 390.484375 220.929688 390.289062 219.152344 C 390.070312 217.375 389.964844 215.582031 389.914062 213.804688 C 389.914062 212.054688 389.726562 210.320312 389.359375 208.605469 C 388.945312 206.882812 388.359375 205.21875 387.605469 203.613281 C 388.722656 205.058594 389.5625 206.652344 390.121094 208.390625 C 390.667969 210.144531 390.9375 211.9375 390.9375 213.769531 L 391.078125 219.109375 C 391.105469 220.890625 391.117188 222.671875 391.015625 224.46875 Z M 391.015625 224.46875 " fill-opacity="1" fill-rule="nonzero"/><path fill="#8dbd36" d="M 362.460938 204.421875 C 358.53125 204.339844 354.621094 204.011719 350.730469 203.445312 C 348.773438 203.210938 346.835938 202.863281 344.921875 202.402344 C 343.007812 201.914062 341.144531 201.28125 339.328125 200.503906 L 339.359375 200.402344 C 341.320312 200.652344 343.226562 201.0625 345.148438 201.398438 C 347.0625 201.761719 348.949219 202.253906 350.867188 202.632812 C 354.695312 203.375 358.5625 203.9375 362.46875 204.320312 Z M 362.460938 204.421875 " fill-opacity="1" fill-rule="nonzero"/><path fill="#8dbd36" d="M 365.621094 199.945312 C 365.578125 198.054688 365.296875 196.203125 364.78125 194.382812 C 364.230469 192.597656 363.4375 190.925781 362.398438 189.375 C 361.421875 187.753906 360.414062 186.121094 359.59375 184.398438 C 358.734375 182.691406 357.894531 180.976562 357.15625 179.21875 C 358.273438 180.777344 359.28125 182.386719 360.277344 184 L 363.277344 188.839844 C 363.789062 189.664062 364.25 190.515625 364.660156 191.394531 C 365.054688 192.292969 365.347656 193.226562 365.542969 194.191406 C 365.949219 196.105469 365.976562 198.023438 365.621094 199.945312 Z M 365.621094 199.945312 " fill-opacity="1" fill-rule="nonzero"/><path fill="#599a2a" d="M 514.324219 366.164062 C 515.410156 360.652344 517.433594 355.511719 520.390625 350.742188 C 526.238281 341.40625 531.628906 340.703125 544.394531 329.757812 C 553.523438 321.933594 561.816406 314.671875 566.632812 302.964844 C 569.003906 297.128906 570.265625 291.058594 570.421875 284.761719 C 569.203125 283.8125 567.847656 283.144531 566.355469 282.746094 C 564.867188 282.351562 563.355469 282.265625 561.828125 282.484375 C 559.699219 282.859375 557.847656 283.785156 556.269531 285.265625 C 556.433594 288.6875 556.09375 292.058594 555.261719 295.378906 C 553.851562 300.925781 550.097656 309.699219 523.167969 331.527344 C 513.8125 339.117188 508.160156 343.003906 504.722656 351.5 C 503.105469 355.558594 502.265625 359.773438 502.195312 364.140625 C 499.042969 363.34375 495.84375 363.007812 492.59375 363.128906 C 489.1875 363.292969 485.871094 363.933594 482.648438 365.050781 C 479.421875 366.167969 476.421875 367.71875 473.644531 369.703125 C 476.175781 371.507812 478.871094 373.023438 481.730469 374.253906 C 487.707031 376.792969 493.9375 377.972656 500.429688 377.792969 C 500.988281 380.34375 502 382.703125 503.460938 384.871094 C 504.703125 386.664062 506.183594 388.230469 507.910156 389.570312 C 509.632812 390.90625 511.519531 391.953125 513.566406 392.707031 C 514.242188 388.914062 514.914062 385.121094 515.589844 381.332031 C 516.511719 381.765625 517.464844 382.121094 518.449219 382.402344 C 519.429688 382.679688 520.429688 382.878906 521.441406 382.992188 C 522.457031 383.109375 523.472656 383.140625 524.492188 383.089844 C 525.511719 383.039062 526.519531 382.90625 527.519531 382.691406 C 528.515625 382.476562 529.492188 382.179688 530.441406 381.804688 C 531.390625 381.429688 532.300781 380.980469 533.179688 380.457031 C 534.054688 379.933594 534.882812 379.339844 535.664062 378.683594 C 536.441406 378.023438 537.164062 377.304688 537.824219 376.527344 C 533.871094 372.777344 529.320312 369.996094 524.179688 368.183594 C 520.984375 367.070312 517.699219 366.394531 514.324219 366.164062 Z M 514.324219 366.164062 " fill-opacity="1" fill-rule="nonzero"/><path fill="#f5ecbb" d="M 425.632812 611.378906 C 421.617188 612.273438 414.550781 613.734375 405.671875 614.917969 C 363.480469 620.542969 342.796875 611.585938 284.132812 611.378906 C 266.753906 611.316406 257.402344 606.859375 248.757812 604.214844 C 220.121094 595.453125 214.738281 603.199219 180.28125 590.902344 C 166.539062 585.996094 146.589844 573.011719 118.375 563.429688 C 112.269531 572.914062 91.574219 609.765625 95.632812 653.089844 C 96.808594 665.652344 102.242188 704.277344 133.535156 733.984375 C 171.414062 769.949219 221.03125 768.011719 250.777344 766.851562 C 267.304688 766.203125 314.304688 763.734375 359.433594 730.953125 C 373.820312 720.5 407.613281 695.953125 420.582031 651.066406 C 424.300781 638.097656 425.988281 624.867188 425.632812 611.378906 Z M 425.632812 611.378906 " fill-opacity="1" fill-rule="nonzero"/><path fill="#fa8400" d="M 425.632812 611.378906 C 432.078125 622.121094 453.261719 651.980469 447.871094 687.46875 C 440.859375 733.628906 404.097656 758.933594 386.722656 770.894531 C 339.847656 803.160156 290.246094 801.480469 267.960938 800.726562 C 245.410156 799.960938 201.167969 797.871094 158.296875 767.355469 C 144.796875 757.746094 113.175781 734.570312 98.160156 691.007812 C 94.050781 679.089844 81.46875 640.796875 97.652344 598.992188 C 102.828125 586.125 109.734375 574.273438 118.375 563.429688 C 112.554688 573.691406 89.523438 617.132812 100.515625 669.269531 C 102.730469 679.765625 108.894531 707.6875 144.652344 736.34375 C 208.945312 787.867188 300.699219 757.800781 314.792969 752.1875 C 331.058594 745.710938 375.449219 731.601562 404.914062 677.863281 C 410.519531 667.570312 415.0625 656.832031 418.550781 645.644531 C 422.035156 634.453125 424.398438 623.03125 425.632812 611.378906 Z M 425.632812 611.378906 " fill-opacity="1" fill-rule="nonzero"/><path fill="#fea41f" d="M 291.207031 614.328125 C 300.964844 606.714844 310.292969 612.910156 341.742188 613.90625 C 352.660156 614.25 375.007812 617.183594 380.277344 616.6875 C 407.132812 614.15625 412.117188 613.019531 412.242188 615.929688 C 412.460938 620.980469 414.203125 624.011719 410.808594 636.574219 C 408.769531 644.128906 406.082031 651.445312 402.742188 658.523438 C 399.402344 665.601562 395.46875 672.328125 390.933594 678.707031 C 384.359375 687.925781 377.636719 697.148438 365.328125 704.324219 C 357.738281 708.75 352.664062 711.707031 346.460938 710.726562 C 337.664062 709.339844 335.96875 701.511719 318.496094 678.371094 C 308.355469 664.9375 303.285156 658.222656 298.621094 653.089844 C 289.875 643.472656 284.804688 639.617188 284.132812 632.191406 C 283.628906 626.632812 285.5625 618.730469 291.207031 614.328125 Z M 291.207031 614.328125 " fill-opacity="1" fill-rule="nonzero"/><path fill="#fec01f" d="M 292.976562 628.316406 C 293.949219 636.929688 299.824219 640.625 309.148438 651.066406 C 317.570312 660.5 314.511719 659.425781 329.109375 677.613281 C 343.492188 695.527344 346.449219 696.554688 348.820312 696.824219 C 357.835938 697.84375 366.085938 688.777344 375.097656 678.875 C 379.378906 674.171875 382.5 669.503906 388.742188 660.167969 C 396.414062 648.699219 398.027344 644.53125 398.597656 642.976562 C 401.800781 634.242188 402.050781 620.8125 398.851562 615.675781 C 396.652344 612.152344 386.46875 613.90625 374.085938 614.160156 C 335.058594 614.957031 340.222656 612.769531 328.476562 612.769531 C 323.046875 612.769531 314.570312 610.070312 304.472656 610.621094 C 297.125 611.019531 297.664062 614.390625 296.007812 616.179688 C 292.085938 620.421875 292.792969 626.679688 292.976562 628.316406 Z M 292.976562 628.316406 " fill-opacity="1" fill-rule="nonzero"/><path fill="#fea41f" d="M 337.027344 630.84375 C 340.785156 631.1875 344.546875 631.242188 348.3125 631.011719 C 350.53125 630.667969 352.664062 630.949219 354.714844 631.855469 C 356.210938 632.527344 357.335938 633.59375 358.085938 635.058594 C 358.835938 636.621094 359.253906 639.171875 358.085938 640.617188 C 355.902344 643.316406 349.21875 640.914062 346.460938 639.605469 C 344.496094 638.636719 342.710938 637.40625 341.101562 635.914062 C 339.496094 634.425781 338.140625 632.734375 337.027344 630.84375 Z M 337.027344 630.84375 " fill-opacity="1" fill-rule="nonzero"/><path fill="#fea41f" d="M 364.316406 622.753906 C 368.074219 623.097656 371.835938 623.152344 375.601562 622.921875 C 377.820312 622.582031 379.953125 622.859375 382.003906 623.765625 C 383.5 624.4375 384.625 625.507812 385.375 626.96875 C 386.125 628.53125 386.546875 631.082031 385.375 632.527344 C 383.191406 635.226562 376.507812 632.824219 373.75 631.519531 C 371.785156 630.546875 370 629.316406 368.394531 627.828125 C 366.789062 626.335938 365.429688 624.644531 364.316406 622.753906 Z M 364.316406 622.753906 " fill-opacity="1" fill-rule="nonzero"/><path fill="#fea41f" d="M 336.351562 667.246094 C 340.113281 667.589844 343.875 667.644531 347.640625 667.414062 C 349.855469 667.074219 351.988281 667.355469 354.042969 668.257812 C 355.539062 668.929688 356.660156 670 357.410156 671.460938 C 358.160156 673.023438 358.582031 675.574219 357.410156 677.023438 C 355.226562 679.71875 348.546875 677.320312 345.785156 676.011719 C 343.820312 675.042969 342.035156 673.8125 340.429688 672.320312 C 338.824219 670.828125 337.464844 669.136719 336.351562 667.246094 Z M 336.351562 667.246094 " fill-opacity="1" fill-rule="nonzero"/><path fill="#fea41f" d="M 307.378906 617.023438 C 311.136719 617.367188 314.898438 617.421875 318.664062 617.191406 C 320.882812 616.851562 323.015625 617.132812 325.066406 618.035156 C 326.5625 618.707031 327.6875 619.777344 328.4375 621.238281 C 329.1875 622.800781 329.609375 625.351562 328.4375 626.800781 C 326.253906 629.496094 319.570312 627.09375 316.8125 625.789062 C 314.847656 624.820312 313.0625 623.589844 311.457031 622.097656 C 309.847656 620.605469 308.492188 618.914062 307.378906 617.023438 Z M 307.378906 617.023438 " fill-opacity="1" fill-rule="nonzero"/><path fill="#ffcc5d" d="M 355.558594 650.054688 C 359.316406 650.398438 363.078125 650.453125 366.84375 650.226562 C 369.058594 649.882812 371.191406 650.164062 373.246094 651.066406 C 374.742188 651.742188 375.863281 652.808594 376.613281 654.269531 C 377.363281 655.832031 377.785156 658.382812 376.613281 659.832031 C 374.429688 662.527344 367.75 660.128906 364.992188 658.820312 C 363.023438 657.851562 361.238281 656.621094 359.632812 655.128906 C 358.027344 653.636719 356.667969 651.945312 355.558594 650.054688 Z M 355.558594 650.054688 " fill-opacity="1" fill-rule="nonzero"/><path fill="#ffcc5d" d="M 317.175781 639.859375 C 320.429688 641.773438 323.804688 643.433594 327.308594 644.839844 C 329.457031 645.476562 331.265625 646.644531 332.734375 648.339844 C 333.800781 649.585938 334.359375 651.03125 334.410156 652.675781 C 334.421875 654.410156 333.710938 656.894531 332.035156 657.703125 C 328.910156 659.207031 323.894531 654.175781 321.960938 651.816406 C 320.597656 650.097656 319.507812 648.222656 318.695312 646.1875 C 317.878906 644.152344 317.375 642.042969 317.175781 639.859375 Z M 317.175781 639.859375 " fill-opacity="1" fill-rule="nonzero"/><path fill="#fea41f" d="M 264.363281 635.789062 C 265.019531 635.515625 265.695312 635.300781 266.386719 635.140625 C 267.082031 634.976562 267.78125 634.875 268.492188 634.828125 C 269.203125 634.78125 269.910156 634.792969 270.617188 634.863281 C 271.328125 634.933594 272.023438 635.058594 272.710938 635.242188 C 273.398438 635.425781 274.066406 635.664062 274.714844 635.957031 C 275.363281 636.246094 275.984375 636.589844 276.578125 636.984375 C 277.167969 637.378906 277.726562 637.816406 278.246094 638.300781 C 278.769531 638.789062 279.246094 639.3125 279.679688 639.875 C 295.515625 660.289062 308.050781 676.179688 315.464844 685.449219 C 325.316406 697.765625 330.246094 703.921875 331.972656 705.335938 C 335.558594 708.265625 338.734375 710.199219 339.722656 714.097656 C 340.027344 715.296875 341.199219 720.929688 332.984375 730.277344 C 318.132812 747.179688 294.714844 751.058594 275.710938 754.210938 C 267 755.867188 258.242188 756.203125 249.429688 755.222656 C 238.792969 753.921875 229.460938 752.785156 225.511719 746.457031 C 222.386719 741.453125 224.671875 736.46875 232.585938 713.085938 C 240.578125 689.480469 244.574219 677.675781 245.050781 674.324219 C 246.246094 665.921875 246.617188 655.925781 252.800781 646.011719 C 254.832031 642.5625 257.527344 639.753906 260.886719 637.585938 C 261.996094 636.890625 263.152344 636.289062 264.363281 635.789062 Z M 264.363281 635.789062 " fill-opacity="1" fill-rule="nonzero"/><path fill="#fec01f" d="M 271.5 642.726562 C 280.320312 643.683594 282.707031 652.210938 294.996094 668.003906 C 304.320312 679.984375 312.25 687.042969 324.308594 705.167969 C 327.007812 709.222656 329.296875 712.90625 328.605469 717.300781 C 327.34375 725.304688 317.136719 729.710938 306.875 733.984375 C 293.179688 739.6875 282.152344 740.859375 267.203125 742.328125 C 245.222656 744.484375 242.445312 741.964844 241.429688 740.8125 C 238.066406 736.996094 240.320312 732.660156 242.441406 710.222656 C 243.882812 694.949219 245.617188 694.574219 247.074219 687.132812 C 249.234375 676.070312 248.136719 678.335938 252.292969 662.191406 C 254.464844 653.769531 254.898438 650.027344 258.613281 646.769531 C 260.402344 645.257812 262.414062 644.152344 264.648438 643.449219 C 266.882812 642.746094 269.167969 642.507812 271.5 642.726562 Z M 271.5 642.726562 " fill-opacity="1" fill-rule="nonzero"/><path fill="#fea41f" d="M 236.628906 624.269531 C 227.027344 623.132812 217.800781 626.964844 206.304688 632.359375 C 190.777344 639.648438 194.882812 634.949219 168.40625 645.507812 C 143.65625 655.375 143.464844 658.128906 132.019531 659.664062 C 124.003906 660.738281 118.769531 663.859375 115.59375 667.753906 C 110.785156 673.640625 115.046875 680.445312 118.375 689.242188 C 120.503906 695.273438 123.296875 700.976562 126.753906 706.359375 C 130.210938 711.738281 134.238281 716.652344 138.839844 721.09375 C 148.117188 729.972656 156.90625 734.179688 169.164062 740.054688 C 176.304688 743.492188 183.71875 746.1875 191.398438 748.140625 C 202.007812 750.839844 207.3125 752.1875 212.117188 749.910156 C 216.792969 747.699219 218.542969 743.429688 224.246094 724.886719 C 229.488281 707.84375 231.683594 699.496094 235.871094 685.449219 C 240.710938 669.207031 243.128906 661.085938 243.199219 660.925781 C 247 652.042969 250.722656 646.621094 249.011719 639.4375 C 247.988281 635.75 246.222656 632.460938 243.703125 629.578125 C 243.703125 629.578125 240.96875 624.785156 236.628906 624.269531 Z M 236.628906 624.269531 " fill-opacity="1" fill-rule="nonzero"/><path fill="#fec01f" d="M 229.214844 632.867188 C 222.476562 630.71875 216.75 632.703125 192.492188 643.988281 C 165.09375 656.738281 169.710938 655.457031 164.867188 657.132812 C 158.570312 659.316406 151.636719 661.175781 144.316406 667.246094 C 140.902344 670.078125 137.792969 672.65625 136.230469 677.019531 C 132.546875 687.300781 140.710938 698.351562 142.632812 700.953125 C 145.539062 704.894531 145.300781 708.367188 165.878906 720.839844 C 182.332031 730.8125 186.167969 729.628906 188.449219 729.605469 C 200.121094 729.476562 208.636719 716.019531 219.445312 698.929688 C 225.023438 690.113281 220.597656 695.042969 235.617188 663.875 C 240.027344 654.730469 243.214844 648.476562 240.671875 642.304688 C 238 635.824219 230.609375 633.308594 229.214844 632.867188 Z M 229.214844 632.867188 " fill-opacity="1" fill-rule="nonzero"/><path fill="#fea41f" d="M 241.34375 603.542969 C 236.964844 598.484375 222.296875 597.503906 197.882812 592.082031 C 189.425781 590.101562 181.117188 587.628906 172.953125 584.664062 C 150.363281 576.960938 143.855469 571.941406 135.554688 575.226562 C 130.171875 577.359375 127.476562 581.816406 122.078125 590.734375 C 113.753906 604.492188 112.03125 617.207031 110.960938 625.789062 C 109.132812 640.457031 107.945312 649.949219 113.320312 654.101562 C 115.539062 655.816406 119.316406 656.957031 140.273438 650.054688 C 158.628906 644.011719 161.21875 641.332031 178.007812 635.5625 C 197.066406 629.011719 209.675781 625.789062 209.675781 625.789062 C 217.074219 623.894531 223.984375 620.429688 231.238281 618.035156 C 236.121094 616.421875 240.960938 614.921875 242.355469 610.957031 C 242.722656 609.707031 242.820312 608.433594 242.644531 607.140625 C 242.464844 605.847656 242.035156 604.648438 241.34375 603.542969 Z M 241.34375 603.542969 " fill-opacity="1" fill-rule="nonzero"/><path fill="#fec01f" d="M 143.390625 579.523438 C 137.308594 582.976562 132.058594 590.277344 127.46875 601.011719 C 125.984375 604.488281 114.875 630.480469 123.933594 638.175781 C 127.941406 641.582031 135.335938 639.566406 149.957031 635.394531 C 161.535156 632.09375 163.023438 630.382812 184.574219 622.5 C 198.308594 617.480469 205.175781 614.96875 207.824219 614.664062 C 214.132812 613.941406 220.460938 614.339844 225.761719 609.859375 C 227.40625 608.472656 231.214844 605.632812 230.816406 602.78125 C 230.0625 597.382812 215.0625 597.09375 195.695312 592.921875 C 161.40625 585.542969 155.113281 572.871094 143.390625 579.523438 Z M 143.390625 579.523438 " fill-opacity="1" fill-rule="nonzero"/><path fill="#ffcc5d" d="M 269.53125 651.199219 C 271.082031 654.640625 272.878906 657.949219 274.929688 661.117188 C 276.316406 662.878906 277.121094 664.878906 277.339844 667.109375 C 277.492188 668.746094 277.113281 670.25 276.207031 671.617188 C 275.214844 673.042969 273.203125 674.660156 271.367188 674.351562 C 267.945312 673.773438 266.753906 666.773438 266.535156 663.726562 C 266.414062 661.535156 266.609375 659.375 267.117188 657.242188 C 267.628906 655.109375 268.433594 653.097656 269.53125 651.199219 Z M 269.53125 651.199219 " fill-opacity="1" fill-rule="nonzero"/><path fill="#fea41f" d="M 226.910156 644.203125 C 225.101562 647.515625 223.558594 650.949219 222.273438 654.5 C 221.707031 656.667969 220.601562 658.515625 218.957031 660.039062 C 217.742188 661.148438 216.316406 661.753906 214.679688 661.863281 C 212.945312 661.929688 210.441406 661.300781 209.578125 659.652344 C 207.972656 656.574219 212.828125 651.394531 215.125 649.382812 C 216.792969 647.960938 218.632812 646.8125 220.640625 645.929688 C 222.644531 645.046875 224.734375 644.472656 226.910156 644.203125 Z M 226.910156 644.203125 " fill-opacity="1" fill-rule="nonzero"/><path fill="#fea41f" d="M 211.492188 606.644531 C 207.867188 607.699219 204.347656 609.019531 200.925781 610.613281 C 198.988281 611.738281 196.898438 612.257812 194.65625 612.164062 C 193.019531 612.085938 191.582031 611.503906 190.351562 610.417969 C 189.082031 609.234375 187.757812 607.015625 188.320312 605.238281 C 189.367188 601.929688 196.464844 601.722656 199.511719 601.933594 C 201.695312 602.117188 203.804688 602.609375 205.847656 603.410156 C 207.886719 604.214844 209.769531 605.289062 211.492188 606.644531 Z M 211.492188 606.644531 " fill-opacity="1" fill-rule="nonzero"/><path fill="#fea41f" d="M 170.390625 592.488281 C 166.765625 593.542969 163.242188 594.863281 159.820312 596.453125 C 157.882812 597.582031 155.792969 598.101562 153.554688 598.007812 C 151.914062 597.929688 150.480469 597.347656 149.25 596.257812 C 147.980469 595.078125 146.65625 592.859375 147.21875 591.082031 C 148.265625 587.773438 155.363281 587.566406 158.410156 587.777344 C 160.59375 587.960938 162.703125 588.453125 164.742188 589.253906 C 166.78125 590.058594 168.664062 591.132812 170.390625 592.488281 Z M 170.390625 592.488281 " fill-opacity="1" fill-rule="nonzero"/><path fill="#fea41f" d="M 149.5 627.542969 C 145.878906 628.597656 142.355469 629.917969 138.933594 631.507812 C 136.996094 632.636719 134.90625 633.15625 132.667969 633.0625 C 131.027344 632.984375 129.589844 632.402344 128.359375 631.3125 C 127.089844 630.132812 125.769531 627.914062 126.332031 626.136719 C 127.378906 622.828125 134.472656 622.621094 137.519531 622.832031 C 139.703125 623.015625 141.816406 623.507812 143.855469 624.308594 C 145.894531 625.113281 147.777344 626.1875 149.5 627.542969 Z M 149.5 627.542969 " fill-opacity="1" fill-rule="nonzero"/><path fill="#ffcc5d" d="M 174.09375 611.027344 C 170.472656 612.082031 166.949219 613.402344 163.527344 614.992188 C 161.589844 616.121094 159.5 616.640625 157.261719 616.546875 C 155.621094 616.46875 154.1875 615.882812 152.957031 614.796875 C 151.683594 613.617188 150.363281 611.394531 150.925781 609.621094 C 151.972656 606.3125 159.070312 606.105469 162.113281 606.316406 C 164.296875 606.5 166.410156 606.992188 168.449219 607.792969 C 170.488281 608.59375 172.371094 609.671875 174.09375 611.027344 Z M 174.09375 611.027344 " fill-opacity="1" fill-rule="nonzero"/><path fill="#fea41f" d="M 199.621094 648.753906 C 197.8125 652.066406 196.265625 655.5 194.980469 659.046875 C 194.414062 661.21875 193.308594 663.066406 191.664062 664.589844 C 190.453125 665.699219 189.027344 666.304688 187.390625 666.410156 C 185.65625 666.480469 183.152344 665.851562 182.289062 664.203125 C 180.683594 661.125 185.539062 655.945312 187.835938 653.933594 C 189.503906 652.511719 191.34375 651.363281 193.347656 650.480469 C 195.355469 649.597656 197.445312 649.023438 199.621094 648.753906 Z M 199.621094 648.753906 " fill-opacity="1" fill-rule="nonzero"/><path fill="#fea41f" d="M 218.066406 675.296875 C 216.257812 678.613281 214.714844 682.042969 213.429688 685.59375 C 212.863281 687.761719 211.757812 689.609375 210.113281 691.136719 C 208.898438 692.242188 207.472656 692.847656 205.835938 692.957031 C 204.101562 693.023438 201.597656 692.398438 200.734375 690.746094 C 199.128906 687.671875 203.984375 682.488281 206.28125 680.476562 C 207.949219 679.058594 209.789062 677.90625 211.792969 677.023438 C 213.800781 676.144531 215.890625 675.566406 218.066406 675.296875 Z M 218.066406 675.296875 " fill-opacity="1" fill-rule="nonzero"/><path fill="#ffcc5d" d="M 187.996094 680.859375 C 186.191406 684.171875 184.644531 687.605469 183.359375 691.152344 C 182.792969 693.324219 181.6875 695.171875 180.042969 696.695312 C 178.828125 697.804688 177.40625 698.410156 175.765625 698.515625 C 174.035156 698.585938 171.527344 697.957031 170.664062 696.308594 C 169.058594 693.230469 173.914062 688.050781 176.210938 686.039062 C 177.882812 684.617188 179.71875 683.46875 181.726562 682.585938 C 183.730469 681.703125 185.824219 681.128906 187.996094 680.859375 Z M 187.996094 680.859375 " fill-opacity="1" fill-rule="nonzero"/><path fill="#ffcc5d" d="M 166.773438 672.515625 C 164.964844 675.832031 163.417969 679.261719 162.132812 682.8125 C 161.566406 684.980469 160.460938 686.828125 158.816406 688.355469 C 157.605469 689.460938 156.179688 690.066406 154.542969 690.175781 C 152.808594 690.242188 150.300781 689.617188 149.441406 687.964844 C 147.832031 684.890625 152.691406 679.707031 154.984375 677.695312 C 156.65625 676.277344 158.492188 675.125 160.5 674.242188 C 162.507812 673.363281 164.597656 672.785156 166.773438 672.515625 Z M 166.773438 672.515625 " fill-opacity="1" fill-rule="nonzero"/><path fill="#fea41f" d="M 198.105469 703.359375 C 196.296875 706.671875 194.75 710.105469 193.464844 713.652344 C 192.898438 715.824219 191.792969 717.671875 190.148438 719.195312 C 188.9375 720.300781 187.511719 720.910156 185.875 721.015625 C 184.140625 721.085938 181.636719 720.457031 180.773438 718.808594 C 179.164062 715.730469 184.023438 710.550781 186.316406 708.535156 C 187.988281 707.117188 189.828125 705.964844 191.832031 705.085938 C 193.839844 704.203125 195.929688 703.628906 198.105469 703.359375 Z M 198.105469 703.359375 " fill-opacity="1" fill-rule="nonzero"/><path fill="#fea41f" d="M 291.261719 671.929688 C 292.8125 675.371094 294.609375 678.679688 296.660156 681.847656 C 298.046875 683.609375 298.851562 685.605469 299.070312 687.839844 C 299.222656 689.476562 298.84375 690.976562 297.9375 692.347656 C 296.945312 693.769531 294.933594 695.390625 293.097656 695.082031 C 289.675781 694.503906 288.484375 687.5 288.269531 684.453125 C 288.144531 682.265625 288.339844 680.105469 288.851562 677.972656 C 289.359375 675.839844 290.164062 673.824219 291.261719 671.929688 Z M 291.261719 671.929688 " fill-opacity="1" fill-rule="nonzero"/><path fill="#fea41f" d="M 258.921875 682.546875 C 260.46875 685.988281 262.265625 689.296875 264.316406 692.464844 C 265.703125 694.226562 266.507812 696.226562 266.730469 698.457031 C 266.878906 700.09375 266.5 701.59375 265.597656 702.964844 C 264.601562 704.386719 262.589844 706.007812 260.753906 705.699219 C 257.332031 705.121094 256.140625 698.117188 255.925781 695.070312 C 255.800781 692.882812 255.996094 690.722656 256.507812 688.589844 C 257.015625 686.457031 257.820312 684.445312 258.921875 682.546875 Z M 258.921875 682.546875 " fill-opacity="1" fill-rule="nonzero"/><path fill="#fea41f" d="M 279.386719 698.726562 C 280.933594 702.167969 282.734375 705.472656 284.785156 708.644531 C 286.171875 710.40625 286.976562 712.402344 287.195312 714.636719 C 287.34375 716.269531 286.96875 717.773438 286.0625 719.144531 C 285.070312 720.566406 283.058594 722.1875 281.222656 721.875 C 277.800781 721.300781 276.609375 714.296875 276.390625 711.25 C 276.269531 709.0625 276.464844 706.902344 276.972656 704.769531 C 277.484375 702.636719 278.289062 700.621094 279.386719 698.726562 Z M 279.386719 698.726562 " fill-opacity="1" fill-rule="nonzero"/><path fill="#ffcc5d" d="M 305.160156 701 C 306.707031 704.445312 308.507812 707.75 310.558594 710.917969 C 311.945312 712.679688 312.75 714.679688 312.96875 716.910156 C 313.117188 718.546875 312.742188 720.050781 311.835938 721.421875 C 310.84375 722.84375 308.832031 724.460938 306.996094 724.152344 C 303.574219 723.574219 302.382812 716.574219 302.164062 713.527344 C 302.042969 711.335938 302.238281 709.175781 302.746094 707.042969 C 303.257812 704.914062 304.0625 702.898438 305.160156 701 Z M 305.160156 701 " fill-opacity="1" fill-rule="nonzero"/><path fill="#ffcc5d" d="M 260.4375 713.894531 C 261.984375 717.335938 263.785156 720.640625 265.832031 723.8125 C 267.21875 725.574219 268.023438 727.570312 268.246094 729.804688 C 268.394531 731.4375 268.015625 732.941406 267.113281 734.3125 C 266.121094 735.734375 264.105469 737.355469 262.269531 737.046875 C 258.847656 736.46875 257.65625 729.464844 257.441406 726.417969 C 257.320312 724.230469 257.511719 722.070312 258.023438 719.9375 C 258.53125 717.804688 259.335938 715.789062 260.4375 713.894531 Z M 260.4375 713.894531 " fill-opacity="1" fill-rule="nonzero"/></svg>