<svg xmlns="http://www.w3.org/2000/svg" xmlns:xlink="http://www.w3.org/1999/xlink" width="794" zoomAndPan="magnify" viewBox="0 0 594.95996 595.499999" height="794" preserveAspectRatio="xMidYMid meet" version="1.0"><path fill="#010101" d="M 366.457031 46.742188 C 366.617188 46.75 366.773438 46.675781 366.867188 46.542969 C 374.347656 36.199219 379.949219 28.222656 383.671875 22.617188 C 387.347656 17.082031 390.125 13.476562 392.007812 11.796875 C 400.101562 4.566406 409.28125 0.0078125 420.09375 0.160156 C 426.367188 0.246094 432.332031 1.457031 437.992188 3.796875 C 440.570312 4.859375 443.992188 6.601562 448.257812 9.023438 C 455.332031 13.039062 462.058594 17.199219 468.441406 21.5 C 481.132812 30.058594 489.65625 36.019531 494.007812 39.386719 C 508.167969 50.332031 515.765625 56.210938 516.804688 57.03125 C 531.632812 68.707031 537.222656 86.46875 530.613281 104.433594 C 526.984375 114.292969 520.742188 123.851562 513.1875 133.5 C 510.535156 136.890625 506.910156 141.644531 502.316406 147.753906 C 502.175781 147.941406 502.144531 148.179688 502.222656 148.394531 C 503.179688 150.921875 502.738281 153.324219 500.902344 155.601562 C 490.410156 168.597656 481.304688 181.820312 471.433594 195.246094 C 470.988281 195.859375 470.515625 196.402344 470.019531 196.878906 C 468.921875 197.953125 466.921875 198.566406 466.058594 199.742188 C 403.910156 284.761719 325.078125 392.554688 229.558594 523.113281 C 228.257812 524.894531 227.417969 526.085938 227.046875 526.691406 C 224.683594 530.496094 222.601562 532.058594 218.609375 533.820312 C 182.960938 549.523438 145.683594 565.523438 106.777344 581.824219 C 95.792969 586.425781 88.855469 589.246094 85.972656 590.285156 C 80.019531 592.425781 73.417969 594.96875 67.511719 594.355469 C 58.066406 593.382812 59.03125 581.320312 59.621094 574.53125 C 59.910156 571.199219 61.28125 561.15625 63.730469 544.394531 C 64.890625 536.460938 66.207031 526.410156 67.679688 514.242188 C 70.742188 488.976562 72.875 472.679688 74.078125 465.359375 C 76.535156 450.4375 78.3125 439.445312 79.410156 432.382812 C 79.476562 431.988281 79.644531 431.625 79.902344 431.324219 C 81.050781 430.003906 82.410156 428.996094 83.664062 427.316406 C 85.433594 424.953125 87.179688 422.589844 88.894531 420.238281 C 96.300781 410.101562 120.722656 376.679688 162.160156 319.972656 C 239.953125 213.519531 287.699219 148.054688 305.398438 123.574219 C 309.015625 118.574219 315.710938 109.382812 325.484375 96.003906 C 326.066406 95.203125 326.644531 94.367188 327.222656 93.496094 C 333.09375 84.664062 338.367188 76.964844 343.039062 70.390625 C 348.019531 63.382812 354.003906 56.5625 358.621094 50.292969 C 360.484375 47.761719 363.09375 46.578125 366.457031 46.742188 Z M 366.457031 46.742188 " fill-opacity="1" fill-rule="nonzero"/><path fill="#f9bf31" d="M 365.128906 120.320312 C 358.46875 130.234375 351.65625 139.128906 344.316406 149.183594 C 242.191406 289.089844 176.746094 378.882812 147.976562 418.558594 C 135.792969 435.363281 129.207031 444.355469 128.21875 445.535156 C 128.054688 445.730469 127.816406 445.839844 127.566406 445.839844 C 123.378906 445.832031 118.632812 446.046875 113.328125 446.492188 C 103.398438 447.320312 95.554688 443.191406 92.128906 433.910156 C 91.824219 433.089844 91.953125 432.167969 92.46875 431.460938 L 333.039062 101.859375 C 333.15625 101.691406 333.378906 101.644531 333.554688 101.742188 C 337.6875 103.992188 342.179688 105.730469 346.128906 108.011719 C 353.191406 112.085938 359.480469 115.964844 364.992188 119.644531 C 365.214844 119.792969 365.277344 120.09375 365.128906 120.320312 Z M 365.128906 120.320312 " fill-opacity="1" fill-rule="nonzero"/><path fill="#f9bf31" d="M 373.015625 125.457031 C 373.113281 125.320312 373.296875 125.292969 373.429688 125.386719 C 373.433594 125.390625 373.4375 125.390625 373.441406 125.394531 C 376.683594 127.894531 381.703125 131.519531 388.5 136.265625 C 397.929688 142.839844 410.066406 152.113281 418.859375 158.957031 C 419.089844 159.140625 419.136719 159.476562 418.964844 159.71875 L 183.082031 482.0625 C 182.941406 482.25 182.707031 482.347656 182.472656 482.3125 C 175.335938 481.226562 168.644531 479.976562 162.398438 478.558594 C 156.960938 477.324219 152.308594 475.242188 148.449219 472.308594 C 142.480469 467.78125 137.671875 459.671875 135 452.464844 C 134.863281 452.09375 134.917969 451.679688 135.152344 451.363281 Z M 373.015625 125.457031 " fill-opacity="1" fill-rule="nonzero"/><path fill="#f9bf31" d="M 425.761719 165.414062 C 425.898438 165.230469 426.160156 165.191406 426.34375 165.332031 C 436.179688 172.84375 445.3125 180.746094 453.742188 189.035156 C 454.839844 190.113281 456.125 191.734375 457.597656 193.894531 C 457.820312 194.226562 457.816406 194.660156 457.582031 194.980469 L 220.820312 519.375 C 220.640625 519.617188 220.328125 519.71875 220.042969 519.625 C 216.621094 518.523438 211.898438 517.703125 208.128906 515.933594 C 200.902344 512.546875 195.894531 506.96875 193.105469 499.195312 C 191.691406 495.269531 190.609375 491.867188 189.859375 488.980469 C 189.816406 488.8125 189.851562 488.632812 189.953125 488.496094 Z M 425.761719 165.414062 " fill-opacity="1" fill-rule="nonzero"/><path fill="#faaeb0" d="M 495.527344 140.625 C 484.546875 130.523438 478.898438 124.984375 470.097656 118.132812 C 465.136719 114.277344 459.511719 109.042969 453.96875 104.789062 C 447.652344 99.945312 441.296875 95.066406 434.910156 90.152344 C 428.507812 85.238281 421.425781 80.605469 415.746094 76.519531 C 401.898438 66.550781 390.359375 58.933594 381.121094 53.667969 C 379.753906 52.890625 378.019531 52.007812 375.925781 51.007812 C 375.59375 50.855469 375.453125 50.457031 375.609375 50.125 C 375.628906 50.085938 375.648438 50.046875 375.675781 50.015625 C 381.511719 42.152344 387.527344 33.578125 393.714844 24.296875 C 394.957031 22.4375 397.15625 20.074219 400.316406 17.210938 C 412.375 6.28125 429.011719 8.523438 441.925781 16.246094 C 453.691406 23.285156 461.898438 28.382812 466.550781 31.542969 C 483.949219 43.351562 499.554688 55.070312 513.363281 66.699219 C 523.589844 75.3125 525.921875 88.101562 521.980469 100.757812 C 520.628906 105.09375 517.964844 110.210938 515.316406 114.292969 C 511.683594 119.882812 507.859375 125.269531 503.832031 130.460938 C 498.871094 136.863281 496.234375 140.242188 495.921875 140.609375 C 495.820312 140.722656 495.648438 140.730469 495.535156 140.632812 C 495.53125 140.628906 495.53125 140.625 495.527344 140.625 Z M 495.527344 140.625 " fill-opacity="1" fill-rule="nonzero"/><path fill="#fbdab0" d="M 86.851562 444.664062 C 86.875 444.527344 87.007812 444.4375 87.148438 444.464844 C 87.210938 444.476562 87.269531 444.511719 87.308594 444.5625 C 91.636719 450.699219 97.605469 454.371094 105.210938 455.578125 C 111.523438 456.570312 121.027344 455.492188 125.449219 455.296875 C 125.777344 455.28125 126.074219 455.476562 126.191406 455.78125 C 128.25 461.128906 131.210938 467.402344 134.804688 471.867188 C 140.011719 478.339844 146.328125 483.054688 153.746094 486.011719 C 156.238281 487.003906 160.640625 488.085938 166.953125 489.253906 C 170.371094 489.886719 174.8125 490.761719 180.285156 491.875 C 180.652344 491.949219 180.945312 492.222656 181.046875 492.589844 C 181.886719 495.738281 182.871094 498.847656 184 501.914062 C 188.640625 514.53125 197.234375 522.8125 209.777344 526.75 C 209.941406 526.804688 210.027344 526.984375 209.972656 527.148438 C 209.945312 527.226562 209.886719 527.292969 209.808594 527.328125 L 115.25 568.289062 C 114.871094 568.453125 114.425781 568.292969 114.242188 567.925781 C 106.472656 552.671875 91.726562 540.863281 74.566406 537.921875 C 74.316406 537.878906 74.144531 537.648438 74.171875 537.390625 C 75.476562 526.796875 77.15625 513.03125 79.210938 496.089844 C 80.046875 489.21875 81.238281 480.640625 82.78125 470.355469 C 84.792969 456.988281 86.148438 448.425781 86.851562 444.664062 Z M 86.851562 444.664062 " fill-opacity="1" fill-rule="nonzero"/><path fill="#ced2d6" d="M 356.28125 69.675781 C 356.003906 69.589844 355.851562 69.296875 355.9375 69.019531 C 355.957031 68.960938 355.984375 68.90625 356.023438 68.855469 L 365.25 56.878906 C 365.484375 56.582031 365.882812 56.476562 366.230469 56.621094 C 372.21875 59.160156 377.921875 62.210938 383.34375 65.78125 C 389.359375 69.734375 396.996094 74.828125 406.253906 81.0625 C 410.535156 83.949219 414.949219 87.113281 419.496094 90.554688 C 425.03125 94.75 431.683594 99.222656 437.089844 103.484375 C 444.429688 109.265625 451.007812 114.46875 456.832031 119.089844 C 463.140625 124.097656 469.367188 129.832031 474.464844 134.0625 C 480.773438 139.300781 486.886719 145.4375 492.207031 150.746094 C 492.351562 150.890625 492.367188 151.113281 492.246094 151.273438 L 482.035156 164.515625 C 481.851562 164.757812 481.507812 164.804688 481.261719 164.621094 C 481.246094 164.605469 481.226562 164.59375 481.214844 164.578125 C 474.136719 157.589844 466.117188 150.285156 457.820312 143.667969 C 456.214844 142.394531 454.792969 141.753906 453.558594 141.746094 C 450.15625 141.738281 448 145.210938 449.503906 148.371094 C 449.832031 149.070312 450.949219 150.105469 452.851562 151.484375 C 461.257812 157.554688 467.152344 163.613281 475.988281 171.753906 C 476.265625 172.011719 476.308594 172.433594 476.085938 172.734375 L 465.144531 187.726562 C 465.054688 187.851562 464.882812 187.875 464.761719 187.785156 C 464.746094 187.769531 464.726562 187.753906 464.714844 187.734375 C 458.410156 179.851562 450.210938 173.191406 443.195312 166.972656 C 435.957031 160.546875 426.253906 153.199219 421.46875 149.25 C 417.632812 146.085938 413.898438 143.230469 410.269531 140.683594 C 404.113281 136.371094 390.199219 125.617188 378.992188 118.027344 C 371.105469 112.6875 362.554688 106.476562 354.445312 101.878906 C 348.671875 98.613281 343.496094 95.960938 338.917969 93.921875 C 338.652344 93.804688 338.53125 93.496094 338.644531 93.230469 C 338.660156 93.195312 338.679688 93.164062 338.703125 93.132812 C 340.035156 91.292969 342.5625 87.527344 346.28125 81.828125 C 347.550781 79.886719 349.335938 77.859375 350.851562 75.738281 C 350.96875 75.570312 351.199219 75.523438 351.371094 75.640625 C 351.394531 75.65625 351.417969 75.679688 351.4375 75.699219 C 355.363281 80.03125 361.5 82.445312 366.417969 85.6875 C 374.335938 90.914062 379.714844 94.414062 382.554688 96.183594 C 392.441406 102.359375 401.796875 109.6875 411.242188 115.703125 C 412.082031 116.242188 412.964844 116.648438 413.890625 116.925781 C 414.105469 116.992188 414.332031 117.019531 414.558594 117.003906 C 416.113281 116.875 417.015625 116.042969 417.261719 114.503906 C 417.636719 112.210938 411.878906 106.78125 409.957031 105.054688 C 404.269531 99.960938 396.039062 94.636719 389.570312 90.101562 C 381.125 84.183594 375.082031 80.628906 361.308594 72.054688 C 359.582031 70.980469 357.90625 70.1875 356.28125 69.675781 Z M 356.28125 69.675781 " fill-opacity="1" fill-rule="nonzero"/><path fill="#43444b" d="M 105.734375 572.542969 C 105.476562 572.746094 105.199219 572.890625 104.902344 572.980469 C 101.402344 574.082031 98.035156 575.347656 94.792969 576.789062 C 89.609375 579.097656 86.296875 580.488281 84.847656 580.964844 C 79.757812 582.644531 74.828125 584.09375 70.054688 585.308594 C 68.921875 585.597656 68.335938 585.039062 68.292969 583.628906 C 68.210938 581.078125 68.4375 576.175781 68.96875 568.925781 C 69.484375 561.863281 71.984375 554.375 72.589844 547.417969 C 72.625 547.058594 72.941406 546.792969 73.300781 546.824219 C 73.316406 546.828125 73.335938 546.828125 73.351562 546.832031 C 75.742188 547.242188 78.113281 547.9375 80.464844 548.914062 C 87.179688 551.699219 92.546875 554.132812 97.140625 559.191406 C 100.632812 563.039062 103.59375 566.96875 106.023438 570.976562 C 106.339844 571.496094 106.214844 572.171875 105.734375 572.542969 Z M 105.734375 572.542969 " fill-opacity="1" fill-rule="nonzero"/><path fill="#010101" d="M 374.324219 91.210938 C 374.644531 91.4375 374.9375 91.691406 375.207031 91.976562 C 375.476562 92.257812 375.714844 92.558594 375.925781 92.886719 C 376.136719 93.210938 376.316406 93.546875 376.460938 93.902344 C 376.605469 94.257812 376.714844 94.621094 376.789062 94.992188 C 376.863281 95.363281 376.898438 95.734375 376.898438 96.105469 C 376.894531 96.480469 376.859375 96.847656 376.78125 97.207031 C 376.707031 97.566406 376.59375 97.914062 376.449219 98.25 C 376.300781 98.585938 376.121094 98.898438 375.90625 99.195312 C 375.695312 99.492188 375.453125 99.761719 375.179688 100.007812 C 374.910156 100.253906 374.617188 100.46875 374.296875 100.652344 C 373.980469 100.839844 373.644531 100.992188 373.289062 101.109375 C 372.9375 101.230469 372.570312 101.3125 372.195312 101.359375 C 371.820312 101.40625 371.445312 101.417969 371.0625 101.390625 C 370.679688 101.367188 370.300781 101.304688 369.925781 101.207031 C 369.550781 101.109375 369.1875 100.976562 368.835938 100.808594 C 368.484375 100.640625 368.148438 100.445312 367.832031 100.214844 C 367.515625 99.988281 367.222656 99.730469 366.953125 99.449219 C 366.683594 99.167969 366.441406 98.863281 366.230469 98.539062 C 366.019531 98.214844 365.839844 97.875 365.695312 97.519531 C 365.550781 97.167969 365.441406 96.804688 365.367188 96.433594 C 365.296875 96.0625 365.257812 95.691406 365.261719 95.316406 C 365.261719 94.945312 365.300781 94.578125 365.375 94.21875 C 365.449219 93.855469 365.5625 93.507812 365.710938 93.175781 C 365.855469 92.839844 366.035156 92.523438 366.25 92.230469 C 366.464844 91.933594 366.707031 91.664062 366.976562 91.417969 C 367.246094 91.171875 367.542969 90.957031 367.859375 90.769531 C 368.179688 90.585938 368.515625 90.433594 368.867188 90.3125 C 369.222656 90.195312 369.585938 90.113281 369.960938 90.066406 C 370.335938 90.015625 370.714844 90.007812 371.097656 90.03125 C 371.476562 90.058594 371.855469 90.121094 372.230469 90.21875 C 372.605469 90.316406 372.96875 90.449219 373.320312 90.617188 C 373.675781 90.78125 374.007812 90.980469 374.324219 91.210938 Z M 374.324219 91.210938 " fill-opacity="1" fill-rule="nonzero"/></svg>