<svg xmlns="http://www.w3.org/2000/svg" xmlns:xlink="http://www.w3.org/1999/xlink" width="1080" zoomAndPan="magnify" viewBox="0 0 810 1012.49997" height="1350" preserveAspectRatio="xMidYMid meet" version="1.0"><defs><clipPath id="13adb2f631"><path d="M 195.132812 235 L 614.894531 235 L 614.894531 834.449219 L 195.132812 834.449219 Z M 195.132812 235 " clip-rule="nonzero"/></clipPath><clipPath id="97faef0526"><path d="M 196 177.445312 L 614 177.445312 L 614 238 L 196 238 Z M 196 177.445312 " clip-rule="nonzero"/></clipPath></defs><path fill="#f0fafd" d="M 286.550781 282.554688 C 258.046875 276.957031 234.914062 269.382812 219.851562 260.683594 C 219.15625 260.28125 218.472656 259.878906 217.84375 259.492188 L 217.839844 259.492188 C 212.03125 255.933594 207.589844 252.207031 204.667969 248.46875 C 201.734375 244.726562 200.320312 241.046875 200.316406 237.339844 L 200.316406 235.234375 L 200.1875 235.234375 C 204.25 205.300781 294.507812 181.300781 404.871094 181.300781 C 515.230469 181.300781 605.488281 205.300781 609.550781 235.234375 L 609.421875 235.234375 L 609.421875 237.339844 C 609.414062 241.046875 608 244.730469 605.078125 248.472656 C 602.160156 252.203125 597.734375 255.925781 591.957031 259.476562 C 591.480469 259.746094 591.203125 259.941406 591.074219 259.992188 L 590.980469 260.03125 L 590.890625 260.089844 C 582.832031 264.882812 572.3125 269.363281 559.800781 273.359375 C 549.019531 276.800781 536.765625 279.882812 523.308594 282.53125 C 491.113281 277.953125 449.917969 275.203125 405.015625 275.203125 C 360.035156 275.203125 318.769531 277.960938 286.550781 282.554688 " fill-opacity="1" fill-rule="nonzero"/><path fill="#f0fafd" d="M 404.976562 830.230469 C 360.039062 830.230469 319.382812 819.8125 290.117188 803.101562 C 275.476562 794.753906 263.695312 784.835938 255.621094 773.933594 C 247.542969 763.023438 243.152344 751.175781 243.152344 738.757812 L 243.152344 738.664062 L 200.667969 250.179688 C 200.890625 250.480469 201.113281 250.78125 201.347656 251.078125 C 204.707031 255.359375 209.535156 259.34375 215.636719 263.089844 L 215.636719 263.085938 C 216.324219 263.507812 217.035156 263.925781 217.734375 264.332031 L 217.746094 264.339844 C 231.433594 272.222656 250.964844 279.023438 274.765625 284.382812 C 240.011719 290.253906 218.429688 298.453125 218.429688 307.527344 C 218.429688 308.917969 218.933594 310.285156 219.914062 311.625 C 219.414062 311.367188 218.917969 311.117188 218.429688 310.859375 L 256.007812 729.425781 C 256.007812 774.933594 322.699219 811.820312 405.015625 811.820312 C 487.296875 811.820312 554.027344 774.933594 554.027344 729.425781 L 591.601562 310.300781 C 591.289062 310.472656 590.972656 310.644531 590.652344 310.8125 C 591.28125 309.730469 591.601562 308.636719 591.601562 307.527344 C 591.601562 298.4375 569.957031 290.226562 535.101562 284.355469 C 544.453125 282.246094 553.148438 279.914062 561.078125 277.378906 C 573.777344 273.320312 584.539062 268.761719 592.976562 263.757812 C 593.515625 263.488281 593.839844 263.246094 594.050781 263.140625 L 594.09375 263.113281 L 594.140625 263.085938 C 600.222656 259.34375 605.039062 255.355469 608.394531 251.074219 C 608.746094 250.625 609.085938 250.171875 609.402344 249.71875 L 566.878906 738.664062 L 566.878906 738.757812 C 566.878906 751.175781 562.488281 763.023438 554.410156 773.933594 C 542.300781 790.289062 521.835938 804.414062 495.933594 814.390625 C 470.039062 824.375 438.734375 830.230469 405.027344 830.230469 C 405.019531 830.230469 405.019531 830.230469 405.015625 830.230469 C 405.003906 830.230469 404.988281 830.230469 404.976562 830.230469 M 404.503906 340.566406 C 379.8125 340.566406 356.128906 339.460938 334.179688 337.441406 C 356.023438 338.996094 379.941406 339.851562 405.015625 339.851562 C 428.4375 339.851562 450.84375 339.101562 471.5 337.738281 C 450.492188 339.570312 427.953125 340.566406 404.503906 340.566406 " fill-opacity="1" fill-rule="nonzero"/><g clip-path="url(#13adb2f631)"><path fill="#d6d8da" d="M 405.015625 834.449219 C 370.816406 834.449219 339.023438 828.523438 312.582031 818.328125 C 286.140625 808.132812 265.019531 793.679688 252.234375 776.445312 C 243.734375 764.992188 238.949219 752.246094 238.933594 738.851562 L 195.132812 235.234375 L 196.488281 235.234375 C 196.410156 235.933594 196.371094 236.636719 196.371094 237.339844 C 196.371094 246.300781 202.878906 254.832031 215.71875 262.703125 C 216.394531 263.117188 217.105469 263.535156 217.824219 263.949219 C 231.851562 272.042969 251.714844 278.90625 275.632812 284.238281 C 275.34375 284.285156 275.054688 284.335938 274.765625 284.382812 C 250.964844 279.023438 231.433594 272.222656 217.746094 264.339844 L 217.734375 264.332031 C 217.035156 263.925781 216.324219 263.507812 215.636719 263.085938 L 215.636719 263.089844 C 209.535156 259.34375 204.707031 255.359375 201.347656 251.078125 C 201.113281 250.78125 200.890625 250.480469 200.667969 250.179688 L 243.152344 738.664062 L 243.152344 738.757812 C 243.152344 751.175781 247.542969 763.023438 255.621094 773.933594 C 263.695312 784.835938 275.476562 794.753906 290.117188 803.101562 C 319.382812 819.8125 360.039062 830.230469 404.976562 830.230469 C 404.988281 830.230469 405.003906 830.230469 405.015625 830.230469 C 405.019531 830.230469 405.019531 830.230469 405.027344 830.230469 C 438.734375 830.230469 470.039062 824.375 495.933594 814.390625 C 521.835938 804.414062 542.300781 790.289062 554.410156 773.933594 C 562.488281 763.023438 566.878906 751.175781 566.878906 738.757812 L 566.878906 738.664062 L 609.402344 249.71875 C 609.085938 250.171875 608.746094 250.625 608.394531 251.074219 C 605.039062 255.355469 600.222656 259.34375 594.140625 263.085938 L 594.09375 263.113281 L 594.050781 263.140625 C 593.839844 263.246094 593.515625 263.488281 592.976562 263.757812 C 584.539062 268.761719 573.777344 273.320312 561.078125 277.378906 C 553.148438 279.914062 544.453125 282.246094 535.101562 284.355469 C 534.707031 284.289062 534.296875 284.21875 533.898438 284.152344 C 558.597656 278.683594 578.980469 271.636719 592.792969 263.417969 C 593.085938 263.28125 593.363281 263.117188 593.636719 262.949219 L 594.054688 262.703125 C 606.871094 254.824219 613.367188 246.289062 613.367188 237.339844 C 613.367188 236.636719 613.328125 235.933594 613.246094 235.234375 L 614.894531 235.234375 L 571.097656 738.847656 C 571.082031 752.246094 566.292969 764.988281 557.796875 776.445312 C 549.277344 787.9375 537.039062 798.183594 522.007812 806.765625 C 491.933594 823.921875 450.617188 834.441406 405.015625 834.449219 " fill-opacity="1" fill-rule="nonzero"/></g><path fill="#d2d7da" d="M 285.53125 282.699219 C 257.863281 277.214844 234.976562 269.835938 219.78125 261.070312 C 219.089844 260.675781 218.40625 260.273438 217.753906 259.875 C 206.003906 252.667969 200.042969 245.089844 200.042969 237.339844 C 200.042969 236.636719 200.09375 235.933594 200.1875 235.234375 L 200.316406 235.234375 L 200.316406 237.339844 C 200.320312 241.046875 201.734375 244.726562 204.667969 248.46875 C 207.589844 252.207031 212.03125 255.933594 217.839844 259.492188 L 217.84375 259.492188 C 218.472656 259.878906 219.15625 260.28125 219.851562 260.683594 C 234.914062 269.382812 258.046875 276.957031 286.550781 282.554688 C 286.210938 282.605469 285.867188 282.652344 285.53125 282.699219 M 524.390625 282.6875 C 524.03125 282.632812 523.671875 282.578125 523.308594 282.53125 C 536.765625 279.882812 549.019531 276.800781 559.800781 273.359375 C 572.3125 269.363281 582.832031 264.882812 590.890625 260.089844 L 590.980469 260.03125 L 591.074219 259.992188 C 591.203125 259.941406 591.480469 259.746094 591.957031 259.476562 C 597.734375 255.925781 602.160156 252.203125 605.078125 248.472656 C 608 244.730469 609.414062 241.046875 609.421875 237.339844 L 609.421875 235.234375 L 609.550781 235.234375 C 609.644531 235.933594 609.695312 236.636719 609.695312 237.339844 C 609.695312 245.082031 603.746094 252.660156 592.089844 259.835938 L 591.601562 260.117188 C 591.449219 260.214844 591.304688 260.308594 590.972656 260.472656 C 575.796875 269.496094 552.589844 277.078125 524.390625 282.6875 " fill-opacity="1" fill-rule="nonzero"/><path fill="#4f9fdd" d="M 591.601562 307.527344 C 591.601562 325.382812 508.0625 339.851562 405.015625 339.851562 C 301.96875 339.851562 218.429688 325.382812 218.429688 307.527344 C 218.429688 289.679688 301.96875 275.203125 405.015625 275.203125 C 508.0625 275.203125 591.601562 289.679688 591.601562 307.527344 " fill-opacity="1" fill-rule="nonzero"/><path fill="#84d8f6" d="M 405.015625 811.820312 C 322.699219 811.820312 256.007812 774.933594 256.007812 729.425781 L 218.429688 310.859375 C 218.917969 311.117188 219.414062 311.367188 219.914062 311.625 C 222.710938 315.457031 229.375 319.078125 239.214844 322.367188 L 268.523438 643.113281 C 269.328125 651.898438 277.296875 658.539062 286.675781 658.539062 C 287.191406 658.539062 287.707031 658.523438 288.230469 658.484375 C 298.265625 657.699219 305.710938 649.550781 304.867188 640.277344 L 276.59375 330.976562 C 293.191406 333.703125 312.679688 335.914062 334.179688 337.441406 C 356.128906 339.460938 379.8125 340.566406 404.503906 340.566406 C 427.953125 340.566406 450.492188 339.570312 471.5 337.738281 C 536.070312 333.46875 583.449219 323.167969 590.652344 310.8125 C 590.972656 310.644531 591.289062 310.472656 591.601562 310.300781 L 554.027344 729.425781 C 554.027344 774.933594 487.296875 811.820312 405.015625 811.820312 " fill-opacity="1" fill-rule="nonzero"/><path fill="#66c6f1" d="M 471.5 337.738281 C 523.898438 333.171875 566.796875 323.390625 590.652344 310.8125 C 583.449219 323.167969 536.070312 333.46875 471.5 337.738281 M 334.179688 337.441406 C 312.679688 335.914062 293.191406 333.703125 276.59375 330.976562 L 276.4375 329.246094 C 293.675781 332.71875 313.128906 335.5 334.179688 337.441406 M 239.214844 322.367188 C 229.375 319.078125 222.710938 315.457031 219.914062 311.625 C 225.378906 314.378906 231.761719 316.996094 238.960938 319.449219 C 238.972656 319.695312 238.992188 319.941406 239.011719 320.191406 L 239.214844 322.367188 " fill-opacity="1" fill-rule="nonzero"/><g clip-path="url(#97faef0526)"><path fill="#d6d8da" d="M 612.597656 237.339844 L 612.597656 235.234375 L 611.394531 235.234375 C 607.429688 204.28125 516.503906 179.597656 404.871094 179.597656 C 293.273438 179.597656 202.304688 204.28125 198.34375 235.234375 L 196.488281 235.234375 C 200.257812 202.914062 290.429688 177.898438 404.871094 177.898438 C 519.308594 177.898438 609.476562 202.914062 613.246094 235.234375 L 612.597656 235.234375 L 612.597656 237.339844 " fill-opacity="1" fill-rule="nonzero"/></g><path fill="#d2d7da" d="M 611.394531 235.234375 L 609.550781 235.234375 C 605.488281 205.300781 515.230469 181.300781 404.871094 181.300781 C 294.507812 181.300781 204.25 205.300781 200.1875 235.234375 L 198.34375 235.234375 C 202.304688 204.28125 293.273438 179.597656 404.871094 179.597656 C 516.503906 179.597656 607.429688 204.28125 611.394531 235.234375 " fill-opacity="1" fill-rule="nonzero"/><path fill="#cdd0d3" d="M 275.632812 284.238281 C 251.714844 278.90625 231.851562 272.042969 217.824219 263.949219 C 217.105469 263.535156 216.394531 263.117188 215.71875 262.703125 C 202.878906 254.832031 196.371094 246.300781 196.371094 237.339844 C 196.371094 236.636719 196.410156 235.933594 196.488281 235.234375 L 198.34375 235.234375 C 198.253906 235.933594 198.207031 236.636719 198.207031 237.339844 C 198.207031 245.867188 204.828125 253.988281 216.738281 261.289062 C 217.398438 261.695312 218.097656 262.105469 218.800781 262.507812 C 233.164062 270.792969 254.402344 277.972656 280.445312 283.460938 C 278.8125 283.714844 277.210938 283.976562 275.632812 284.238281 M 533.898438 284.152344 C 532.425781 283.910156 530.9375 283.671875 529.421875 283.4375 C 556.035156 277.816406 577.621094 270.433594 591.96875 261.902344 C 592.335938 261.730469 592.664062 261.492188 593.035156 261.289062 C 604.910156 253.988281 611.53125 245.867188 611.53125 237.339844 C 611.53125 236.636719 611.480469 235.933594 611.394531 235.234375 L 612.597656 235.234375 L 612.597656 237.339844 L 612.597656 235.234375 L 613.246094 235.234375 C 613.328125 235.933594 613.367188 236.636719 613.367188 237.339844 C 613.367188 246.289062 606.871094 254.824219 594.054688 262.703125 L 593.636719 262.949219 C 593.363281 263.117188 593.085938 263.28125 592.792969 263.417969 C 578.980469 271.636719 558.597656 278.683594 533.898438 284.152344 " fill-opacity="1" fill-rule="nonzero"/><path fill="#cccfd2" d="M 280.445312 283.460938 C 254.402344 277.972656 233.164062 270.792969 218.800781 262.507812 C 218.097656 262.105469 217.398438 261.695312 216.738281 261.289062 C 204.828125 253.988281 198.207031 245.867188 198.207031 237.339844 C 198.207031 236.636719 198.253906 235.933594 198.34375 235.234375 L 200.1875 235.234375 C 200.09375 235.933594 200.042969 236.636719 200.042969 237.339844 C 200.042969 245.089844 206.003906 252.667969 217.753906 259.875 C 218.40625 260.273438 219.089844 260.675781 219.78125 261.070312 C 234.976562 269.835938 257.863281 277.214844 285.53125 282.699219 C 283.808594 282.949219 282.113281 283.207031 280.445312 283.460938 M 529.421875 283.4375 C 527.769531 283.179688 526.097656 282.929688 524.390625 282.6875 C 552.589844 277.078125 575.796875 269.496094 590.972656 260.472656 C 591.304688 260.308594 591.449219 260.214844 591.601562 260.117188 L 592.089844 259.835938 C 603.746094 252.660156 609.695312 245.082031 609.695312 237.339844 C 609.695312 236.636719 609.644531 235.933594 609.550781 235.234375 L 611.394531 235.234375 C 611.480469 235.933594 611.53125 236.636719 611.53125 237.339844 C 611.53125 245.867188 604.910156 253.988281 593.035156 261.289062 C 592.664062 261.492188 592.335938 261.730469 591.96875 261.902344 C 577.621094 270.433594 556.035156 277.816406 529.421875 283.4375 " fill-opacity="1" fill-rule="nonzero"/><path fill="#a4c7d9" d="M 404.871094 296.78125 C 356.679688 296.78125 311.578125 292.246094 275.632812 284.238281 C 277.210938 283.976562 278.8125 283.714844 280.445312 283.460938 C 282.113281 283.207031 283.808594 282.949219 285.53125 282.699219 C 319.832031 289.5 361.472656 293.386719 404.871094 293.386719 C 448.453125 293.386719 490.109375 289.496094 524.390625 282.6875 C 526.097656 282.929688 527.769531 283.179688 529.421875 283.4375 C 530.9375 283.671875 532.425781 283.910156 533.898438 284.152344 C 497.777344 292.15625 452.425781 296.78125 404.871094 296.78125 " fill-opacity="1" fill-rule="nonzero"/><path fill="#d1f0fc" d="M 276.4375 329.246094 C 262.34375 326.410156 249.738281 323.117188 238.960938 319.449219 C 238.566406 310.492188 245.882812 302.753906 255.644531 301.984375 C 256.167969 301.949219 256.6875 301.929688 257.203125 301.929688 C 266.582031 301.929688 274.546875 308.570312 275.351562 317.359375 L 276.4375 329.246094 " fill-opacity="1" fill-rule="nonzero"/><path fill="#e8f8fd" d="M 286.675781 658.539062 C 277.296875 658.539062 269.328125 651.898438 268.523438 643.113281 L 239.214844 322.367188 C 248.851562 325.589844 261.53125 328.5 276.59375 330.976562 L 304.867188 640.277344 C 305.710938 649.550781 298.265625 657.699219 288.230469 658.484375 C 287.707031 658.523438 287.191406 658.539062 286.675781 658.539062 " fill-opacity="1" fill-rule="nonzero"/><path fill="#dff5fd" d="M 276.59375 330.976562 C 261.53125 328.5 248.851562 325.589844 239.214844 322.367188 L 239.011719 320.191406 C 238.992188 319.941406 238.972656 319.695312 238.960938 319.449219 C 249.738281 323.117188 262.34375 326.410156 276.4375 329.246094 L 276.59375 330.976562 " fill-opacity="1" fill-rule="nonzero"/><path fill="#ffffff" d="M 317.585938 706.523438 C 317.585938 717.777344 308.535156 726.902344 297.367188 726.902344 C 286.195312 726.902344 277.140625 717.777344 277.140625 706.523438 C 277.140625 695.269531 286.195312 686.144531 297.367188 686.144531 C 308.535156 686.144531 317.585938 695.269531 317.585938 706.523438 " fill-opacity="1" fill-rule="nonzero"/></svg>