<svg width="24" height="33" viewBox="0 0 24 33" fill="none" xmlns="http://www.w3.org/2000/svg">
<path d="M12.9067 8.18579C13.84 7.82046 14.5333 6.81578 14.64 5.68933C14.7067 4.97389 14.5733 4.30411 14.2667 3.7561L12.56 0.376752C12.3067 -0.125584 11.6667 -0.125584 11.4 0.376752L9.69333 3.7561C9.46667 4.21277 9.33333 4.74555 9.33333 5.324C9.33333 7.33334 11.0667 8.90124 12.9067 8.18579ZM18.04 23.469L16.7067 21.9468L15.2667 23.5755C13.5333 25.5544 10.4933 25.5697 8.74667 23.5755L7.32 21.9468L5.86667 23.5755C5 24.565 3.84 25.113 2.61333 25.113C1.64 25.113 0.746667 24.7629 0 24.1844V29.6797C0 31.3541 1.2 32.7241 2.66667 32.7241H21.3333C22.8 32.7241 24 31.3541 24 29.6797V24.1844C23 24.9608 21.72 25.3261 20.3467 24.976C19.4667 24.7629 18.68 24.1997 18.04 23.469ZM20 12.9351H13.3333V11.4129C13.3333 10.5757 12.7333 9.89069 12 9.89069C11.2667 9.89069 10.6667 10.5757 10.6667 11.4129V12.9351H4C1.78667 12.9351 0 14.9749 0 17.5018V19.7243C0 21.0182 0.666667 22.2664 1.74667 22.6774C2.72 23.0428 3.77333 22.7688 4.45333 21.9772L7.30667 18.7348L10.1467 21.9772C11.16 23.1341 12.8267 23.1341 13.84 21.9772L16.6933 18.7348L19.5333 21.9772C20.1067 22.6318 20.9067 22.9362 21.7333 22.8144C23.0533 22.6165 23.9867 21.2009 23.9867 19.6786V17.5171C24 14.9749 22.2133 12.9351 20 12.9351Z" fill="#5EC4E6"/>
</svg>
