<svg width="24" height="28" viewBox="0 0 24 28" fill="none" xmlns="http://www.w3.org/2000/svg">
<path d="M12.9067 7.00407C13.84 6.69148 14.5333 5.83184 14.64 4.86801C14.7067 4.25584 14.5733 3.68275 14.2667 3.21386L12.56 0.322363C12.3067 -0.107454 11.6667 -0.107454 11.4 0.322363L9.69333 3.21386C9.46667 3.60461 9.33333 4.06047 9.33333 4.55541C9.33333 6.27468 11.0667 7.61624 12.9067 7.00407ZM18.04 20.0809L16.7067 18.7785L15.2667 20.1721C13.5333 21.8653 10.4933 21.8784 8.74667 20.1721L7.32 18.7785L5.86667 20.1721C5 21.0187 3.84 21.4876 2.61333 21.4876C1.64 21.4876 0.746667 21.188 0 20.6931V25.395C0 26.8278 1.2 28 2.66667 28H21.3333C22.8 28 24 26.8278 24 25.395V20.6931C23 21.3574 21.72 21.67 20.3467 21.3704C19.4667 21.188 18.68 20.7061 18.04 20.0809ZM20 11.0678H13.3333V9.76532C13.3333 9.04896 12.7333 8.46284 12 8.46284C11.2667 8.46284 10.6667 9.04896 10.6667 9.76532V11.0678H4C1.78667 11.0678 0 12.8131 0 14.9752V16.8768C0 17.984 0.666667 19.052 1.74667 19.4037C2.72 19.7162 3.77333 19.4818 4.45333 18.8045L7.30667 16.0302L10.1467 18.8045C11.16 19.7944 12.8267 19.7944 13.84 18.8045L16.6933 16.0302L19.5333 18.8045C20.1067 19.3646 20.9067 19.6251 21.7333 19.5209C23.0533 19.3516 23.9867 18.1403 23.9867 16.8378V14.9883C24 12.8131 22.2133 11.0678 20 11.0678Z" fill="#0262FF"/>
</svg>
