<svg width="30" height="30" viewBox="0 0 30 30" fill="none" xmlns="http://www.w3.org/2000/svg">
<path fill-rule="evenodd" clip-rule="evenodd" d="M7.27637 9.70181C7.27637 7.772 8.04298 5.92123 9.40756 4.55664C10.7721 3.19206 12.6229 2.42545 14.5527 2.42545C16.4825 2.42545 18.3333 3.19206 19.6979 4.55664C21.0625 5.92123 21.8291 7.772 21.8291 9.70181H23.0418C23.6851 9.70181 24.302 9.95735 24.7569 10.4122C25.2117 10.8671 25.4673 11.484 25.4673 12.1273V24.2545C25.4673 24.8978 25.2117 25.5147 24.7569 25.9696C24.302 26.4245 23.6851 26.68 23.0418 26.68H6.06364C5.42037 26.68 4.80344 26.4245 4.34858 25.9696C3.89372 25.5147 3.63818 24.8978 3.63818 24.2545V12.1273C3.63818 11.484 3.89372 10.8671 4.34858 10.4122C4.80344 9.95735 5.42037 9.70181 6.06364 9.70181H7.27637ZM14.5527 4.8509C15.8393 4.8509 17.0731 5.36198 17.9828 6.2717C18.8926 7.18142 19.4036 8.41527 19.4036 9.70181H9.70182C9.70182 8.41527 10.2129 7.18142 11.1226 6.2717C12.0323 5.36198 13.2662 4.8509 14.5527 4.8509ZM16.9782 16.9782C16.9782 17.4039 16.8661 17.8222 16.6532 18.1909C16.4403 18.5596 16.1342 18.8657 15.7655 19.0786V20.6164C15.7655 20.938 15.6377 21.2465 15.4103 21.4739C15.1828 21.7013 14.8744 21.8291 14.5527 21.8291C14.2311 21.8291 13.9226 21.7013 13.6952 21.4739C13.4678 21.2465 13.34 20.938 13.34 20.6164V19.0786C12.8776 18.8116 12.5163 18.3996 12.312 17.9063C12.1077 17.413 12.0718 16.8661 12.21 16.3504C12.3482 15.8347 12.6527 15.379 13.0763 15.054C13.4998 14.7289 14.0188 14.5527 14.5527 14.5527C15.196 14.5527 15.8129 14.8083 16.2678 15.2631C16.7226 15.718 16.9782 16.3349 16.9782 16.9782Z" fill="#00BEFF"/>
</svg>
