<svg width="29" height="30" viewBox="0 0 29 30" fill="none" xmlns="http://www.w3.org/2000/svg">
<path d="M14.0589 0C15.1599 0.012 16.2564 0.1395 17.3319 0.3795C17.5607 0.430575 17.7678 0.551854 17.9243 0.726391C18.0808 0.900928 18.1789 1.12 18.2049 1.353L18.4599 3.6435C18.4959 3.96643 18.6072 4.27639 18.7848 4.54846C18.9625 4.82053 19.2015 5.04709 19.4827 5.20993C19.7638 5.37278 20.0793 5.46734 20.4037 5.48602C20.7281 5.50471 21.0523 5.44698 21.3503 5.3175L23.4504 4.395C23.6637 4.30102 23.901 4.27566 24.1294 4.32242C24.3578 4.36918 24.5661 4.48574 24.7253 4.656C26.2435 6.27774 27.3743 8.22245 28.0328 10.344C28.1017 10.5671 28.0994 10.8061 28.0263 11.0278C27.9531 11.2496 27.8129 11.4431 27.6249 11.5815L25.7634 12.9555C25.5011 13.1478 25.2878 13.3991 25.1408 13.6891C24.9938 13.9792 24.9171 14.2998 24.9171 14.625C24.9171 14.9502 24.9938 15.2708 25.1408 15.5609C25.2878 15.8509 25.5011 16.1022 25.7634 16.2945L27.6279 17.667C27.8162 17.8055 27.9566 17.9993 28.0298 18.2213C28.1029 18.4434 28.105 18.6827 28.0359 18.906C27.3777 21.0274 26.2474 22.9721 24.7299 24.594C24.5709 24.7642 24.363 24.8809 24.1349 24.9279C23.9068 24.9749 23.6697 24.9499 23.4564 24.8565L21.3474 23.931C21.0497 23.8005 20.7256 23.7419 20.4011 23.76C20.0767 23.778 19.761 23.8722 19.4797 24.0349C19.1984 24.1976 18.9594 24.4243 18.7819 24.6965C18.6045 24.9688 18.4936 25.279 18.4584 25.602L18.2034 27.891C18.1779 28.1213 18.082 28.3381 17.9287 28.5118C17.7754 28.6855 17.5722 28.8076 17.3469 28.8615C15.1743 29.3794 12.9104 29.3794 10.7379 28.8615C10.5123 28.8079 10.3087 28.6859 10.1551 28.5121C10.0016 28.3384 9.90541 28.1215 9.87985 27.891L9.62635 25.605C9.58953 25.283 9.4777 24.974 9.29985 24.7031C9.122 24.4321 8.88309 24.2066 8.60229 24.0447C8.32149 23.8827 8.00664 23.7889 7.68302 23.7708C7.35939 23.7526 7.03601 23.8105 6.73885 23.94L4.62985 24.864C4.41633 24.9578 4.17895 24.9829 3.95053 24.9359C3.72211 24.8889 3.51395 24.772 3.35485 24.6015C1.83704 22.9777 0.707209 21.0309 0.0503507 18.9075C-0.0188048 18.6842 -0.0166748 18.4449 0.0564447 18.2228C0.129564 18.0008 0.270041 17.807 0.45835 17.6685L2.32285 16.2945C2.58512 16.1022 2.79841 15.8509 2.94543 15.5609C3.09244 15.2708 3.16906 14.9502 3.16906 14.625C3.16906 14.2998 3.09244 13.9792 2.94543 13.6891C2.79841 13.3991 2.58512 13.1478 2.32285 12.9555L0.45835 11.5845C0.270041 11.446 0.129564 11.2522 0.0564447 11.0302C-0.0166748 10.8081 -0.0188048 10.5688 0.0503507 10.3455C0.708912 8.22395 1.83974 6.27924 3.35785 4.6575C3.51713 4.48724 3.72537 4.37068 3.95378 4.32392C4.18219 4.27716 4.41948 4.30253 4.63285 4.3965L6.73285 5.319C7.03138 5.44841 7.3561 5.50599 7.68092 5.48713C8.00574 5.46827 8.32162 5.37348 8.60316 5.21039C8.8847 5.0473 9.12407 4.82045 9.30203 4.54806C9.47999 4.27567 9.59159 3.96534 9.62785 3.642L9.88285 1.353C9.90859 1.11953 10.0068 0.899975 10.1636 0.725121C10.3204 0.550267 10.528 0.428886 10.7574 0.378C11.8314 0.14 12.9319 0.014 14.0589 0ZM14.0589 2.25C13.3784 2.25723 12.6995 2.3159 12.0279 2.4255L11.8629 3.891C11.7878 4.56496 11.5555 5.21186 11.1846 5.77957C10.8137 6.34728 10.3147 6.81993 9.72766 7.15941C9.14064 7.4989 8.48207 7.69573 7.80503 7.73405C7.128 7.77236 6.45143 7.65109 5.82985 7.38L4.48135 6.789C3.62416 7.82994 2.94177 9.00322 2.46085 10.263L3.65635 11.1435C4.20304 11.5447 4.64761 12.0689 4.95408 12.6738C5.26055 13.2787 5.42033 13.9473 5.42048 14.6254C5.42062 15.3035 5.26113 15.9721 4.95492 16.5771C4.64871 17.1821 4.20437 17.7066 3.65785 18.108L2.45935 18.99C2.93935 20.253 3.62335 21.429 4.48135 22.473L5.83885 21.8775C6.45909 21.6067 7.13424 21.4853 7.80996 21.5231C8.48568 21.5609 9.14309 21.7568 9.72927 22.095C10.3155 22.4333 10.814 22.9044 11.1849 23.4706C11.5557 24.0367 11.7884 24.682 11.8644 25.3545L12.0279 26.8305C13.3629 27.0555 14.7263 27.0555 16.0599 26.8305L16.2249 25.3545C16.2992 24.681 16.531 24.0344 16.9014 23.467C17.2718 22.8996 17.7705 22.4273 18.3572 22.0883C18.9439 21.7492 19.6021 21.5529 20.2787 21.5153C20.9552 21.4776 21.6312 21.5997 22.2519 21.8715L23.6079 22.4655C24.4659 21.4238 25.1488 20.2494 25.6299 18.9885L24.4328 18.1065C23.8862 17.7053 23.4416 17.1811 23.1351 16.5762C22.8286 15.9713 22.6689 15.3027 22.6687 14.6246C22.6686 13.9465 22.8281 13.2779 23.1343 12.6729C23.4405 12.0679 23.8848 11.5434 24.4314 11.142L25.6269 10.2615C25.1456 9.00109 24.4627 7.82729 23.6049 6.786L22.2593 7.3755C21.638 7.64752 20.9613 7.76962 20.2841 7.73192C19.6068 7.69423 18.9479 7.4978 18.3606 7.1585C17.7732 6.8192 17.2739 6.34654 16.9029 5.77868C16.5319 5.21082 16.2996 4.56367 16.2249 3.8895L16.0614 2.4255C15.3996 2.31739 14.7293 2.25873 14.0589 2.25ZM14.0409 9C15.5327 9 16.9634 9.59263 18.0183 10.6475C19.0732 11.7024 19.6659 13.1332 19.6659 14.625C19.6659 16.1168 19.0732 17.5476 18.0183 18.6025C16.9634 19.6574 15.5327 20.25 14.0409 20.25C12.549 20.25 11.1183 19.6574 10.0634 18.6025C9.00848 17.5476 8.41585 16.1168 8.41585 14.625C8.41585 13.1332 9.00848 11.7024 10.0634 10.6475C11.1183 9.59263 12.549 9 14.0409 9ZM14.0409 11.25C13.1457 11.25 12.2873 11.6056 11.6544 12.2385C11.0214 12.8715 10.6659 13.7299 10.6659 14.625C10.6659 15.5201 11.0214 16.3785 11.6544 17.0115C12.2873 17.6444 13.1457 18 14.0409 18C14.936 18 15.7944 17.6444 16.4273 17.0115C17.0603 16.3785 17.4159 15.5201 17.4159 14.625C17.4159 13.7299 17.0603 12.8715 16.4273 12.2385C15.7944 11.6056 14.936 11.25 14.0409 11.25Z" fill="#009CD0"/>
</svg>
