<svg width="31" height="31" viewBox="0 0 31 31" fill="none" xmlns="http://www.w3.org/2000/svg">
<path fill-rule="evenodd" clip-rule="evenodd" d="M10.8291 17.1133L15.1021 20.035L19.2211 17.1933L28.4542 26.3026C28.2106 26.3821 27.9529 26.4224 27.6811 26.4234H2.51702C2.18484 26.4234 1.86776 26.3585 1.57634 26.2422L10.8291 17.1133ZM30.1981 9.62718V23.9064C30.1981 24.2793 30.1166 24.6326 29.9717 24.9512L20.9213 16.0216L30.1981 9.62718ZM0 9.7072L9.12286 15.9461L0.16005 24.7912C0.0550554 24.508 0.000874224 24.2084 0 23.9064L0 9.7072ZM27.6811 3.77478C29.0702 3.77478 30.1981 4.90117 30.1981 6.29179V7.1766L15.0961 17.5874L0 7.26267V6.29179C0 4.90268 1.12639 3.77478 2.51702 3.77478H27.6811Z" fill="#00BEFF"/>
</svg>
