<svg width="88" height="33" viewBox="0 0 88 33" fill="none" xmlns="http://www.w3.org/2000/svg">
<g clip-path="url(#clip0_164_149)">
<path d="M7.77565 18.985C9.8553 19.2515 11.0932 18.177 11.3749 16.0566L11.6071 14.2965L9.60431 14.0417L9.35332 15.9342C9.22867 16.8813 8.75913 17.1679 8.0864 17.0808C7.41197 16.9953 7.03292 16.5997 7.15756 15.6543L8.10348 8.49835C8.22812 7.55126 8.69937 7.24619 9.37381 7.33167C10.0482 7.41884 10.4239 7.8312 10.2992 8.77828L10.1114 10.1981L12.1142 10.4545L12.285 9.16717C12.565 7.04671 11.6464 5.69733 9.56675 5.4308C7.4871 5.16596 6.2475 6.24043 5.96748 8.36089L5.05742 15.2503C4.77741 17.3708 5.696 18.7201 7.77565 18.985Z" fill="black"/>
<path d="M15.268 19.9421C17.3476 20.207 18.6436 19.1409 18.9236 17.0204L19.8337 10.131C20.1137 8.01056 19.1387 6.6528 17.0591 6.38795C14.9777 6.1231 13.6818 7.1892 13.4018 9.30966L12.4917 16.1991C12.2117 18.3195 13.1883 19.6773 15.268 19.9421ZM15.5378 9.44711C15.6624 8.50003 16.1337 8.19495 16.8081 8.28044C17.4825 8.3676 17.8582 8.78164 17.7335 9.72705L16.7876 16.883C16.663 17.8301 16.1917 18.1351 15.5173 18.0496C14.8428 17.9625 14.4672 17.5501 14.5919 16.603L15.5378 9.44711Z" fill="black"/>
<path d="M22.9393 11.2391L23.2808 20.8105L25.2836 21.0669L28.0019 11.7503L26.7469 21.253L28.7497 21.5095L30.4998 8.25869L27.5545 7.88154L24.867 17.106L24.5494 7.49767L21.6024 7.12219L19.8523 20.373L21.7014 20.6093L22.9393 11.2391Z" fill="black"/>
<path d="M32.0417 8.45483L34.1607 8.72639L32.4088 21.9772L30.2899 21.7073L32.0417 8.45483Z" fill="black"/>
<path d="M37.106 12.8164L38.4754 22.7515L40.6523 23.0281L42.4024 9.77731L40.5157 9.53593L39.4674 17.468L38.3388 9.25935L35.682 8.91907L33.9319 22.1699L35.8374 22.4146L37.106 12.8164Z" fill="black"/>
<path d="M45.1394 23.7557C47.2191 24.0205 48.457 22.9477 48.737 20.8273L49.2936 16.6249L46.3278 16.246L46.0768 18.1385L47.0398 18.2609L46.7171 20.7032C46.5924 21.6503 46.1229 21.9369 45.4502 21.8514C44.7757 21.7643 44.3967 21.3704 44.5213 20.4233L45.4672 13.2673C45.5919 12.3219 46.0631 12.0152 46.7376 12.1024C47.412 12.1878 47.7876 12.6019 47.663 13.5473L47.4752 14.9671L49.478 15.2235L49.6487 13.9362C49.9288 11.8157 49.0102 10.4663 46.9305 10.2015C44.8492 9.93663 43.6113 11.0094 43.3313 13.1299L42.4212 20.021C42.1412 22.1414 43.0598 23.4908 45.1394 23.7557Z" fill="black"/>
<path d="M55.4813 25.0766C57.561 25.3414 58.8006 24.2669 59.0806 22.1465C59.5809 18.3615 55.507 17.3222 55.8672 14.595C55.9936 13.6495 56.4255 13.3378 57.1 13.4249C57.7727 13.5104 58.1108 13.9194 57.9861 14.8665L57.9144 15.4146L59.9172 15.6711L59.9719 15.2537C60.2519 13.1333 59.3521 11.7872 57.2912 11.5241C55.2303 11.2609 54.0112 12.337 53.7312 14.4575C53.2309 18.2442 57.3049 19.2834 56.9446 22.009C56.82 22.9561 56.3504 23.2427 55.676 23.1573C55.0033 23.0701 54.6242 22.6762 54.7489 21.7291L54.8735 20.782L52.8707 20.5272L52.7631 21.3402C52.4831 23.4607 53.4017 24.81 55.4813 25.0766Z" fill="black"/>
<path d="M62.8967 26.0218C64.9763 26.2884 66.2722 25.2206 66.5523 23.1018L67.464 16.2107C67.744 14.0903 66.7674 12.7342 64.6877 12.4677C62.6081 12.2028 61.3105 13.2689 61.0304 15.3894L60.1204 22.2804C59.8404 24.4009 60.817 25.757 62.8967 26.0218ZM63.1664 15.5268C63.2911 14.5814 63.764 14.2747 64.4368 14.3618C65.1112 14.4473 65.4868 14.8614 65.3622 15.8068L64.4163 22.9627C64.2916 23.9098 63.8204 24.2148 63.1459 24.1294C62.4732 24.0439 62.0959 23.6298 62.2222 22.6827L63.1664 15.5268Z" fill="black"/>
<path d="M70.5237 26.9958C72.6034 27.2624 73.8993 26.1946 74.1793 24.0741L75.0911 17.1847C75.3711 15.0643 74.3945 13.7065 72.3148 13.4417C70.2352 13.1768 68.9375 14.2429 68.6575 16.3634L67.7475 23.2544C67.4674 25.3732 68.4441 26.731 70.5237 26.9958ZM70.7935 16.5008C70.9181 15.5537 71.3894 15.2487 72.0638 15.3341C72.7383 15.4213 73.1139 15.8353 72.9893 16.7808L72.0433 23.9367C71.9187 24.8838 71.4475 25.1888 70.773 25.1034C70.1003 25.0162 69.7229 24.6038 69.8493 23.6567L70.7935 16.5008Z" fill="black"/>
<path d="M78.2824 18.0731L79.6535 28.0065L81.8304 28.2848L83.5805 15.034L81.6938 14.7926L80.6455 22.7247L79.5169 14.5144L76.8601 14.1758L75.1083 27.4266L77.0155 27.6713L78.2824 18.0731Z" fill="black"/>
<mask id="mask0_164_149" style="mask-type:luminance" maskUnits="userSpaceOnUse" x="0" y="0" width="89" height="33">
<path d="M0.0170898 0.479248H88.2024V32.9852H0.0170898V0.479248Z" fill="white"/>
</mask>
<g mask="url(#mask0_164_149)">
<path d="M2.86508 0.506104L0.0170898 22.0644L85.3527 32.9584L88.2007 11.4001L2.86508 0.506104ZM83.7973 30.9737L2.03698 20.5357L4.42055 2.49246L86.1808 12.9288L83.7973 30.9737Z" fill="black"/>
</g>
</g>
<defs>
<clipPath id="clip0_164_149">
<rect width="88" height="33" fill="white"/>
</clipPath>
</defs>
</svg>
