<svg width="24" height="26" viewBox="0 0 24 26" fill="none" xmlns="http://www.w3.org/2000/svg">
<path d="M12.5256 10.694L12.5265 10.6958H12.5269L12.5256 10.694Z" fill="#0553D2"/>
<mask id="mask0_99_4" style="mask-type:luminance" maskUnits="userSpaceOnUse" x="0" y="7" width="24" height="15">
<path d="M0.00585938 7.36987H23.9941V21.9299H0.00585938V7.36987Z" fill="white"/>
</mask>
<g mask="url(#mask0_99_4)">
<path d="M20.7826 13.1506L23.6792 9.80521C23.8978 9.55203 23.9976 9.2488 23.9976 8.95078C23.9971 8.58596 23.8494 8.21663 23.5375 7.93897L23.5302 7.93275L23.5186 7.92222L23.5288 7.93155C23.2271 7.66513 22.8217 7.53463 22.4206 7.53443C22.0638 7.53443 21.7002 7.63815 21.4097 7.85602L21.4103 7.85561L18.8798 9.75115C18.6758 9.90452 18.4446 10.0469 18.2509 10.1448C18.155 10.1935 18.0673 10.2312 18.0046 10.2536C17.9732 10.2645 17.9479 10.2717 17.9344 10.2746L17.9285 10.276C17.7115 10.276 16.3152 10.276 16.0894 10.276C16.0762 10.2732 16.0291 10.259 15.9699 10.2317C15.7728 10.1441 15.4585 9.93923 15.2067 9.71403L13.0174 7.76905C12.7331 7.51617 12.3526 7.38737 11.9758 7.38757C11.6005 7.38707 11.2204 7.51507 10.9365 7.76724L8.73311 9.71504C8.54619 9.88075 8.33114 10.035 8.15117 10.1401C8.06158 10.1928 7.98045 10.2328 7.92339 10.2557C7.89619 10.2666 7.87524 10.2732 7.86529 10.2758C7.64827 10.2758 6.19422 10.2758 5.99283 10.2758C5.97698 10.2715 5.93334 10.258 5.87848 10.2342C5.67999 10.1506 5.35441 9.95929 5.07733 9.74764L2.57281 7.84528C2.28566 7.62711 1.92478 7.52109 1.56922 7.52139C1.16795 7.52109 0.761932 7.6558 0.463437 7.92713L0.455566 7.93416C0.147928 8.21562 0.0035988 8.58717 0.00244141 8.95399C0.00302011 9.25161 0.0989692 9.55444 0.312048 9.80893L2.90904 12.8996C3.06934 13.0903 3.2183 13.3038 3.32177 13.4823C3.37351 13.5713 3.41378 13.6517 3.43797 13.7109C3.45036 13.7405 3.45846 13.7648 3.46216 13.7797L3.46517 13.7921C3.4654 13.9934 3.48045 14.5542 3.49874 15.0644L3.70047 20.6585C3.71332 20.9938 3.85325 21.3008 4.08392 21.5337C4.31286 21.7651 4.64816 21.9287 5.02976 21.9289C5.52084 21.9289 8.43276 21.9289 8.91251 21.9289C9.29191 21.9285 9.62327 21.7623 9.847 21.5306C10.0727 21.2976 10.2093 20.992 10.2217 20.6585L10.4236 15.0489C10.4419 14.534 10.4572 13.9608 10.4572 13.7571C10.457 13.7504 10.4669 13.6951 10.4901 13.6264C10.5581 13.4138 10.7286 13.056 10.919 12.7505L11.253 12.2128C11.388 11.9951 11.5436 11.7659 11.6824 11.5772C11.7519 11.4826 11.8169 11.3982 11.8715 11.3315C11.9159 11.2772 11.9549 11.2348 11.9764 11.2129C11.9945 11.2334 12.0164 11.2588 12.0404 11.288C12.1985 11.4789 12.4497 11.8224 12.6638 12.1459L13.2236 12.9921C13.3301 13.1525 13.4205 13.3311 13.481 13.491C13.5426 13.6494 13.5714 13.7951 13.5698 13.8604L13.5682 13.886C13.5203 13.9992 13.4471 14.1878 13.3619 14.4141C13.275 14.6449 13.1774 14.9108 13.0901 15.1579L12.4045 17.0893C12.3389 17.2743 12.2867 17.4475 12.2497 17.5988C12.2131 17.7519 12.1896 17.8747 12.1886 17.9947C12.1902 18.044 12.1894 18.0912 12.2176 18.1703C12.2337 18.2097 12.2572 18.262 12.3236 18.322C12.3564 18.3511 12.4019 18.3807 12.4561 18.4015C12.51 18.4224 12.572 18.433 12.6269 18.4327C12.7111 18.4327 13.0641 18.4327 13.4116 18.4327C13.6505 18.4327 13.9137 18.4327 14.1044 18.4327C14.1431 18.56 14.1757 18.776 14.1749 19.0154V20.6469C14.1759 20.9635 14.266 21.2553 14.4373 21.4922C14.524 21.6101 14.6323 21.7153 14.7697 21.7959C14.9064 21.8761 15.0777 21.9292 15.2589 21.9287C15.6332 21.9287 18.1057 21.9287 18.5346 21.9287C18.7186 21.9289 18.894 21.8828 19.0416 21.8072C19.2642 21.6936 19.4296 21.5207 19.5432 21.3211C19.6561 21.1213 19.7179 20.8908 19.7179 20.6469V19.0154C19.7174 18.782 19.7456 18.5688 19.782 18.4374C19.7822 18.4357 19.7828 18.4344 19.783 18.4327C19.9651 18.4327 20.2111 18.4327 20.4357 18.4327C20.7732 18.4327 21.1167 18.4327 21.199 18.4327C21.2549 18.433 21.3173 18.4222 21.3721 18.4006C21.4692 18.3625 21.5296 18.3013 21.5617 18.2555C21.6103 18.1845 21.619 18.1372 21.6276 18.098C21.6346 18.0588 21.6359 18.0269 21.6362 17.9957C21.6351 17.8763 21.6119 17.7536 21.5759 17.6002C21.5394 17.4489 21.488 17.275 21.4235 17.0895L20.512 14.4771C20.4781 14.3808 20.4586 14.2559 20.4586 14.1202C20.4586 13.9459 20.4905 13.7543 20.5492 13.5811C20.607 13.4082 20.6925 13.2534 20.7826 13.1506ZM13.5714 13.8785L13.5717 13.8776C13.5714 13.8778 13.5714 13.8782 13.5714 13.8785ZM20.1375 12.7309C19.9721 12.9225 19.8553 13.1476 19.7744 13.3856C19.6946 13.6236 19.6517 13.8745 19.6515 14.1207C19.6517 14.3123 19.6776 14.5013 19.7395 14.6798L20.6508 17.2923C20.7081 17.4562 20.753 17.6085 20.7835 17.7342C20.6745 17.7342 20.5549 17.7342 20.4354 17.7342C20.0979 17.7342 19.7078 17.7342 19.5682 17.7342C19.4296 17.7337 19.3159 17.7892 19.2516 17.8393C19.1927 17.8843 19.1575 17.9283 19.1287 17.9698C19.0793 18.0426 19.0499 18.112 19.0236 18.1875C18.9485 18.4108 18.9117 18.6945 18.9107 19.0163V20.6478C18.9117 20.835 18.844 21.0002 18.7585 21.1009C18.7164 21.1516 18.6713 21.1854 18.6331 21.2048C18.5943 21.2239 18.5651 21.2298 18.5342 21.2302C18.2254 21.2302 17.7451 21.2302 17.314 21.2302V18.2003C17.314 18.0074 17.1336 17.8507 16.9107 17.8507C16.688 17.8507 16.5072 18.0074 16.5072 18.2003V21.2302C16.0608 21.2302 15.5542 21.2302 15.2583 21.2302C15.2527 21.2298 15.2449 21.2305 15.2189 21.216C15.1809 21.1951 15.1145 21.1319 15.0653 21.0301C15.0149 20.9291 14.9811 20.7944 14.9811 20.6473V19.0159C14.9806 18.735 14.9499 18.4809 14.8904 18.2728C14.8598 18.1679 14.8249 18.075 14.7622 17.9803C14.7296 17.9332 14.6901 17.8834 14.6215 17.833C14.5553 17.7843 14.4429 17.7332 14.3104 17.7337C14.1636 17.7337 13.7586 17.7337 13.4111 17.7337C13.2839 17.7337 13.1564 17.7337 13.0411 17.7337C13.072 17.6095 13.1171 17.4578 13.175 17.2949L13.8604 15.3636C13.9465 15.1208 14.0428 14.8577 14.1284 14.6309C14.2133 14.4046 14.2886 14.2116 14.3279 14.1198L14.3284 14.1186C14.3669 14.0256 14.3752 13.9423 14.3757 13.8606C14.3744 13.6732 14.3243 13.4804 14.2467 13.2726C14.1678 13.066 14.0587 12.8498 13.9228 12.6447L13.3627 11.7983C13.2112 11.5699 13.0464 11.3371 12.8995 11.142C12.8262 11.0444 12.7573 10.9564 12.6955 10.8817C12.6337 10.8071 12.5823 10.7479 12.5261 10.6946C12.3846 10.5589 12.1808 10.4915 11.9933 10.4932C11.7685 10.4936 11.556 10.5785 11.3998 10.7225C11.3369 10.781 11.2801 10.8461 11.2134 10.9267C11.0177 11.1656 10.7605 11.5299 10.5419 11.8818L10.2079 12.4196C10.0585 12.6605 9.92501 12.9162 9.82582 13.1446C9.77582 13.2588 9.73462 13.3663 9.70395 13.4651C9.67408 13.5655 9.65151 13.6505 9.64989 13.7564C9.65013 13.9382 9.63508 14.5185 9.61679 15.0273L9.41459 20.6368C9.40892 20.8156 9.33207 20.976 9.22952 21.0806C9.12466 21.1866 9.01205 21.2302 8.91193 21.23C8.52871 21.23 7.8992 21.23 7.36378 21.23V18.2C7.36378 18.0072 7.18334 17.8505 6.96043 17.8505C6.73774 17.8505 6.55695 18.0072 6.55695 18.2V21.23C6.02744 21.23 5.41135 21.23 5.02895 21.23C4.92003 21.23 4.8014 21.184 4.69469 21.0776C4.58959 20.9729 4.51205 20.8137 4.50649 20.6368L4.30476 15.0427C4.28647 14.5337 4.27108 13.9592 4.27108 13.7849C4.27084 13.7231 4.26089 13.6732 4.24804 13.6236C4.20175 13.455 4.11193 13.2821 3.99307 13.0859C3.87397 12.8919 3.72489 12.6838 3.56066 12.4883L0.9639 9.39776C0.865173 9.2808 0.809039 9.12091 0.809039 8.9545C0.808228 8.74866 0.895844 8.54524 1.0389 8.41704L1.04723 8.40952C1.18196 8.28654 1.37293 8.22104 1.56864 8.22104C1.74191 8.22104 1.9102 8.2721 2.0404 8.3713L4.54515 10.2739C4.78589 10.4564 5.04214 10.6195 5.27582 10.7435C5.39307 10.8055 5.50383 10.8573 5.61147 10.8978C5.66552 10.9183 5.71899 10.9356 5.77582 10.9497C5.83334 10.9633 5.89353 10.9747 5.97235 10.9752C6.16656 10.9752 7.67385 10.9752 7.88439 10.9752C7.96587 10.9747 8.03022 10.9624 8.09064 10.9474C8.19561 10.9201 8.28936 10.8815 8.38809 10.8344C8.67964 10.6927 9.00927 10.4678 9.30834 10.2051L11.5117 8.25665C11.641 8.1425 11.8059 8.08773 11.975 8.08723C12.1442 8.08743 12.3096 8.1429 12.4395 8.25765L14.6288 10.2023C14.8563 10.4042 15.1067 10.5839 15.3431 10.7206C15.4614 10.7889 15.5762 10.8467 15.6903 10.8916C15.7476 10.9139 15.8048 10.9333 15.8659 10.9484C15.9274 10.9631 15.9925 10.9747 16.0727 10.9752C16.2948 10.9752 17.7271 10.9752 17.9409 10.9752C18.017 10.9747 18.0783 10.9643 18.1372 10.9514C18.3373 10.9041 18.5307 10.816 18.7495 10.7002C18.9655 10.5841 19.1933 10.4399 19.4065 10.28L21.9372 8.38464L21.9376 8.38414C22.0686 8.28514 22.241 8.23358 22.4196 8.23358C22.6199 8.23338 22.8154 8.29958 22.9517 8.42075L22.9612 8.42938C23.1043 8.55457 23.1909 8.75127 23.1901 8.95048C23.1903 9.11318 23.1338 9.26957 23.033 9.38542L20.1375 12.7309Z" fill="#0553D2"/>
</g>
<path d="M6.96088 9.46033C8.6691 9.46033 10.0535 8.26043 10.0535 6.77998C10.0535 5.29962 8.6691 4.09973 6.96088 4.09973C5.25266 4.09973 3.86829 5.29962 3.86829 6.77998C3.86829 8.26043 5.25266 9.46033 6.96088 9.46033ZM6.96088 4.79898C8.22164 4.79898 9.24676 5.68762 9.24676 6.77998C9.24676 7.87244 8.2213 8.76107 6.96088 8.76107C5.70046 8.76107 4.675 7.87244 4.675 6.77998C4.675 5.68762 5.70046 4.79898 6.96088 4.79898Z" fill="#0553D2"/>
<path d="M7.34467 13.2225C7.34467 13.2455 7.34201 13.2682 7.33692 13.2907C7.33171 13.3133 7.32407 13.335 7.31388 13.3563C7.30381 13.3775 7.29131 13.3976 7.27662 13.4167C7.26192 13.4359 7.24525 13.4535 7.2265 13.4698C7.20775 13.4859 7.18738 13.5005 7.16539 13.5132C7.14328 13.5259 7.12013 13.5368 7.0956 13.5455C7.07118 13.5543 7.04594 13.5609 7.0199 13.5654C6.99398 13.5699 6.9677 13.5721 6.9412 13.5721C6.91469 13.5721 6.88854 13.5699 6.86249 13.5654C6.83657 13.5609 6.81134 13.5543 6.78692 13.5455C6.76238 13.5368 6.73911 13.5259 6.71712 13.5132C6.69513 13.5005 6.67476 13.4859 6.65601 13.4698C6.63726 13.4535 6.6206 13.4359 6.60578 13.4167C6.59108 13.3976 6.5787 13.3775 6.56851 13.3563C6.55844 13.335 6.5508 13.3133 6.5456 13.2907C6.54039 13.2682 6.53784 13.2455 6.53784 13.2225C6.53784 13.1995 6.54039 13.1769 6.5456 13.1543C6.5508 13.1318 6.55844 13.11 6.56851 13.0887C6.5787 13.0675 6.59108 13.0474 6.60578 13.0283C6.6206 13.0092 6.63726 12.9915 6.65601 12.9753C6.67476 12.9591 6.69513 12.9445 6.71712 12.9318C6.73911 12.9191 6.76238 12.9083 6.78692 12.8995C6.81134 12.8908 6.83657 12.8841 6.86249 12.8796C6.88854 12.8751 6.91469 12.8729 6.9412 12.8729C6.9677 12.8729 6.99398 12.8751 7.0199 12.8796C7.04594 12.8841 7.07118 12.8908 7.0956 12.8995C7.12013 12.9083 7.14328 12.9191 7.16539 12.9318C7.18738 12.9445 7.20775 12.9591 7.2265 12.9753C7.24525 12.9915 7.26192 13.0092 7.27662 13.0283C7.29131 13.0474 7.30381 13.0675 7.31388 13.0887C7.32407 13.11 7.33171 13.1318 7.33692 13.1543C7.34201 13.1769 7.34467 13.1995 7.34467 13.2225Z" fill="#0553D2"/>
<path d="M7.34467 14.8541C7.34467 14.877 7.34201 14.8997 7.33692 14.9223C7.33171 14.9447 7.32407 14.9666 7.31388 14.9878C7.30381 15.009 7.29131 15.0292 7.27662 15.0483C7.26192 15.0673 7.24525 15.085 7.2265 15.1012C7.20775 15.1175 7.18738 15.1319 7.16539 15.1448C7.14328 15.1575 7.12013 15.1682 7.0956 15.1771C7.07118 15.1858 7.04594 15.1924 7.0199 15.1969C6.99398 15.2014 6.9677 15.2036 6.9412 15.2036C6.91469 15.2036 6.88854 15.2014 6.86249 15.1969C6.83657 15.1924 6.81134 15.1858 6.78692 15.1771C6.76238 15.1682 6.73911 15.1575 6.71712 15.1448C6.69513 15.1319 6.67476 15.1175 6.65601 15.1012C6.63726 15.085 6.6206 15.0673 6.60578 15.0483C6.59108 15.0292 6.5787 15.009 6.56851 14.9878C6.55844 14.9666 6.5508 14.9447 6.5456 14.9223C6.54039 14.8997 6.53784 14.877 6.53784 14.8541C6.53784 14.8311 6.54039 14.8083 6.5456 14.7859C6.5508 14.7633 6.55844 14.7414 6.56851 14.7203C6.5787 14.6991 6.59108 14.6789 6.60578 14.6598C6.6206 14.6407 6.63726 14.6231 6.65601 14.6068C6.67476 14.5906 6.69513 14.5761 6.71712 14.5634C6.73911 14.5506 6.76238 14.5398 6.78692 14.5311C6.81134 14.5222 6.83657 14.5156 6.86249 14.5111C6.88854 14.5067 6.91469 14.5044 6.9412 14.5044C6.9677 14.5044 6.99398 14.5067 7.0199 14.5111C7.04594 14.5156 7.07118 14.5222 7.0956 14.5311C7.12013 14.5398 7.14328 14.5506 7.16539 14.5634C7.18738 14.5761 7.20775 14.5906 7.2265 14.6068C7.24525 14.6231 7.26192 14.6407 7.27662 14.6598C7.29131 14.6789 7.30381 14.6991 7.31388 14.7203C7.32407 14.7414 7.33171 14.7633 7.33692 14.7859C7.34201 14.8083 7.34467 14.8311 7.34467 14.8541Z" fill="#0553D2"/>
<path d="M17.2949 13.2225C17.2949 13.2455 17.2922 13.2682 17.2871 13.2907C17.2819 13.3133 17.2743 13.335 17.2641 13.3563C17.254 13.3775 17.2415 13.3976 17.2268 13.4167C17.2121 13.4359 17.1954 13.4535 17.1767 13.4698C17.1579 13.4859 17.1376 13.5005 17.1156 13.5132C17.0935 13.5259 17.0703 13.5368 17.0458 13.5455C17.0214 13.5543 16.9961 13.5609 16.9701 13.5654C16.9442 13.5699 16.9179 13.5721 16.8914 13.5721C16.865 13.5721 16.8387 13.5699 16.8127 13.5654C16.7868 13.5609 16.7615 13.5543 16.7371 13.5455C16.7126 13.5368 16.6893 13.5259 16.6673 13.5132C16.6453 13.5005 16.625 13.4859 16.6062 13.4698C16.5875 13.4535 16.5708 13.4359 16.5561 13.4167C16.5413 13.3976 16.5289 13.3775 16.5187 13.3563C16.5086 13.335 16.501 13.3133 16.4958 13.2907C16.4906 13.2682 16.488 13.2455 16.488 13.2225C16.488 13.1995 16.4906 13.1769 16.4958 13.1543C16.501 13.1318 16.5086 13.11 16.5187 13.0887C16.5289 13.0675 16.5413 13.0474 16.5561 13.0283C16.5708 13.0092 16.5875 12.9915 16.6062 12.9753C16.625 12.9591 16.6453 12.9445 16.6673 12.9318C16.6893 12.9191 16.7126 12.9083 16.7371 12.8995C16.7615 12.8908 16.7868 12.8841 16.8127 12.8796C16.8387 12.8751 16.865 12.8729 16.8914 12.8729C16.9179 12.8729 16.9442 12.8751 16.9701 12.8796C16.9961 12.8841 17.0214 12.8908 17.0458 12.8995C17.0703 12.9083 17.0935 12.9191 17.1156 12.9318C17.1376 12.9445 17.1579 12.9591 17.1767 12.9753C17.1954 12.9915 17.2121 13.0092 17.2268 13.0283C17.2415 13.0474 17.254 13.0675 17.2641 13.0887C17.2743 13.11 17.2819 13.1318 17.2871 13.1543C17.2922 13.1769 17.2949 13.1995 17.2949 13.2225Z" fill="#0553D2"/>
<path d="M17.2949 14.8541C17.2949 14.877 17.2922 14.8997 17.2871 14.9223C17.2819 14.9447 17.2743 14.9666 17.2641 14.9878C17.254 15.009 17.2415 15.0292 17.2268 15.0483C17.2121 15.0673 17.1954 15.085 17.1767 15.1012C17.1579 15.1175 17.1376 15.1319 17.1156 15.1448C17.0935 15.1575 17.0703 15.1682 17.0458 15.1771C17.0214 15.1858 16.9961 15.1924 16.9701 15.1969C16.9442 15.2014 16.9179 15.2036 16.8914 15.2036C16.865 15.2036 16.8387 15.2014 16.8127 15.1969C16.7868 15.1924 16.7615 15.1858 16.7371 15.1771C16.7126 15.1682 16.6893 15.1575 16.6673 15.1448C16.6453 15.1319 16.625 15.1175 16.6062 15.1012C16.5875 15.085 16.5708 15.0673 16.5561 15.0483C16.5413 15.0292 16.5289 15.009 16.5187 14.9878C16.5086 14.9666 16.501 14.9447 16.4958 14.9223C16.4906 14.8997 16.488 14.877 16.488 14.8541C16.488 14.8311 16.4906 14.8083 16.4958 14.7859C16.501 14.7633 16.5086 14.7414 16.5187 14.7203C16.5289 14.6991 16.5413 14.6789 16.5561 14.6598C16.5708 14.6407 16.5875 14.6231 16.6062 14.6068C16.625 14.5906 16.6453 14.5761 16.6673 14.5634C16.6893 14.5506 16.7126 14.5398 16.7371 14.5311C16.7615 14.5222 16.7868 14.5156 16.8127 14.5111C16.8387 14.5067 16.865 14.5044 16.8914 14.5044C16.9179 14.5044 16.9442 14.5067 16.9701 14.5111C16.9961 14.5156 17.0214 14.5222 17.0458 14.5311C17.0703 14.5398 17.0935 14.5506 17.1156 14.5634C17.1376 14.5761 17.1579 14.5906 17.1767 14.6068C17.1954 14.6231 17.2121 14.6407 17.2268 14.6598C17.2415 14.6789 17.254 14.6991 17.2641 14.7203C17.2743 14.7414 17.2819 14.7633 17.2871 14.7859C17.2922 14.8083 17.2949 14.8311 17.2949 14.8541Z" fill="#0553D2"/>
<path d="M11.3782 6.39945C11.3782 6.39945 12.0317 6.73318 12.8635 6.73318C13.1246 6.73318 13.4034 6.70038 13.685 6.61391C13.7305 6.59967 13.7705 6.58101 13.8138 6.56516C13.8077 6.63628 13.8014 6.7074 13.8014 6.78002C13.8014 8.26048 15.1859 9.46037 16.8942 9.46037C18.6024 9.46037 19.9868 8.26048 19.9868 6.78002C19.9868 6.70268 19.9808 6.62675 19.9733 6.55122C20.028 6.57218 20.0792 6.59616 20.1371 6.61411C20.4189 6.70058 20.6975 6.73348 20.959 6.73348C21.7907 6.73348 22.4442 6.39975 22.4442 6.39975C22.5717 6.33465 22.6335 6.18298 22.5819 6.06292C22.5819 6.06292 22.1241 4.99914 20.9458 4.63723C20.6642 4.55076 20.3858 4.51786 20.1245 4.51786C19.6111 4.51786 19.166 4.64515 18.9001 4.74285C18.3596 4.34262 17.66 4.09998 16.8938 4.09998C16.133 4.09998 15.4371 4.33911 14.8984 4.73423C14.6303 4.63813 14.1965 4.51786 13.6974 4.51786C13.4363 4.51786 13.1579 4.55076 12.8763 4.63723C11.6976 4.99914 11.24 6.06292 11.24 6.06292C11.1884 6.18298 11.2504 6.33445 11.3782 6.39945ZM20.1247 5.21691C20.3197 5.21691 20.505 5.24319 20.6763 5.29616C21.1092 5.42896 21.4107 5.71545 21.5962 5.94967C21.4172 5.99561 21.1961 6.03403 20.959 6.03403C20.7637 6.03403 20.5778 6.00765 20.4065 5.95478C19.9739 5.82197 19.6722 5.53549 19.4869 5.30147C19.6659 5.25553 19.887 5.21691 20.1247 5.21691ZM16.8938 4.79903C18.1543 4.79903 19.1797 5.68766 19.1797 6.78002C19.1797 7.87248 18.1543 8.76112 16.8938 8.76112C15.6334 8.76112 14.6079 7.87248 14.6079 6.78002C14.6079 5.68766 15.6336 4.79903 16.8938 4.79903ZM13.1461 5.29616C13.3174 5.24319 13.5027 5.21691 13.6976 5.21691C13.9276 5.21691 14.142 5.25322 14.3183 5.29776C14.2883 5.33718 14.2611 5.37821 14.2336 5.41913C14.0457 5.62517 13.7764 5.84434 13.4158 5.95498C13.2445 6.00795 13.059 6.03423 12.8637 6.03423C12.6266 6.03423 12.4057 5.99581 12.2267 5.94987C12.4116 5.71494 12.7131 5.42876 13.1461 5.29616Z" fill="#0553D2"/>
</svg>
