<svg width="223" height="226" viewBox="0 0 223 226" fill="none" xmlns="http://www.w3.org/2000/svg">
<g clip-path="url(#clip0_347_137)">
<mask id="mask0_347_137" style="mask-type:luminance" maskUnits="userSpaceOnUse" x="33" y="-1" width="148" height="126">
<path d="M33.1926 -0.467285H180.807V124.783H33.1926V-0.467285Z" fill="white"/>
</mask>
<g mask="url(#mask0_347_137)">
<path d="M166.823 37.6441C173.152 34.2084 177.446 27.511 177.446 19.8097C177.446 8.60933 168.361 -0.469116 157.153 -0.469116C147.864 -0.469116 140.038 5.77164 137.63 14.2865C128.895 10.6189 118.721 8.44444 106.985 8.44444C95.25 8.44444 85.0757 10.6189 76.3394 14.2865C73.9332 5.77164 66.1071 -0.469116 56.8159 -0.469116C45.6099 -0.469116 36.5236 8.60933 36.5236 19.8097C36.5236 27.511 40.8192 34.2084 47.1475 37.6441C35.9361 53.1898 31.8834 71.6493 33.6042 84.2758C37.1201 110.038 56.3571 124.846 106.985 124.846C157.612 124.846 176.851 110.038 180.365 84.2758C182.088 71.6493 178.035 53.1898 166.823 37.6441Z" fill="#D38D5F"/>
</g>
<path d="M106.985 104.758C123.305 104.758 132.063 96.6069 133.14 86.8272C134.217 77.0475 127.193 53.1445 106.985 53.1445C86.7765 53.1445 79.7537 77.0475 80.8308 86.8272C81.9061 96.6069 90.666 104.758 106.985 104.758Z" fill="#FDE4CD"/>
<path d="M54.9283 28.553C58.1487 25.3782 61.7553 22.4499 65.7608 19.8623C66.4408 19.4238 66.7744 18.6192 66.6148 17.8274C65.6556 13.0544 61.3074 9.50998 56.1795 9.82709C51.1766 10.137 47.0932 14.2522 46.823 19.2516C46.5891 23.5662 49.0932 27.319 52.7542 28.9444C53.494 29.2724 54.3517 29.1202 54.9283 28.553Z" fill="#F4AA78"/>
<path d="M159.043 28.553C155.822 25.3782 152.214 22.4499 148.21 19.8623C147.53 19.4238 147.197 18.6192 147.356 17.8274C148.314 13.0544 152.662 9.50998 157.79 9.82709C162.793 10.137 166.876 14.2522 167.148 19.2516C167.382 23.5662 164.878 27.319 161.215 28.9444C160.477 29.2724 159.619 29.1202 159.043 28.553Z" fill="#F4AA78"/>
<path d="M80.7383 54.8643C78.0674 54.8643 75.9023 57.5842 75.9023 60.9383C75.9023 64.2942 78.0674 67.0123 80.7383 67.0123C83.4075 67.0123 85.5725 64.2942 85.5725 60.9383C85.5725 57.5842 83.4075 54.8643 80.7383 54.8643Z" fill="#4A4B5C"/>
<path d="M133.233 54.8643C130.562 54.8643 128.398 57.5842 128.398 60.9383C128.398 64.2942 130.562 67.0123 133.233 67.0123C135.904 67.0123 138.067 64.2942 138.067 60.9383C138.067 57.5842 135.904 54.8643 133.233 54.8643Z" fill="#4A4B5C"/>
<path d="M117.774 78.3448C116.572 77.9589 115.292 78.6076 114.91 79.8072C114.904 79.8198 114.487 80.9923 113.312 82.123C112.239 83.1577 110.882 83.8354 109.267 84.1543V73.7077C112.55 72.8434 115.357 70.2757 116.175 67.7134C117.18 64.5713 112.436 63.0474 106.986 63.0474C101.533 63.0474 96.7913 64.5713 97.7959 67.7134C98.6046 70.2503 101.364 72.7999 104.605 73.6896L104.703 73.6914V84.1471C100.322 83.2628 99.1195 79.9721 99.0706 79.8325C98.6862 78.6329 97.4006 77.9734 96.202 78.3575C95.0016 78.7417 94.3398 80.0246 94.7242 81.226C94.8257 81.5395 97.3081 88.9255 106.986 88.9255C116.663 88.9255 119.144 81.5395 119.245 81.226C119.631 80.0246 118.973 78.729 117.774 78.3448Z" fill="#4A4B5C"/>
<path d="M26.4988 189.275C22.8614 190.13 19.9819 190.482 17.8603 190.326C15.737 190.166 14.1649 189.606 13.1458 188.644C12.125 187.678 11.4087 186.448 10.9989 184.955C10.3752 182.53 10.7106 180.287 12.0071 178.228C13.3018 176.17 16.1069 174.409 20.4207 172.944L18.2158 176.844C17.3345 174.965 16.4768 172.725 15.6409 170.125C14.8086 167.526 14.0815 164.794 13.4577 161.927C12.8376 159.062 12.3371 156.302 11.9563 153.65C11.5792 150.997 11.4087 148.71 11.4486 146.785L21.204 144.894C20.2212 145.618 18.9266 146.351 17.3164 147.09C15.7062 147.826 14.0452 148.395 12.3335 148.8C8.69789 149.656 5.87644 149.663 3.86914 148.822C1.85823 147.981 0.587123 146.445 0.0540213 144.212C-0.703926 140.99 0.190017 138.093 2.73766 135.522C5.28712 132.947 9.67887 130.923 15.9165 129.448C23.4978 127.661 30.1652 127.279 35.9205 128.302C41.674 129.328 46.3759 131.533 50.0278 134.92C53.6779 138.309 56.1367 142.674 57.4042 148.018C58.5066 152.696 58.61 157.208 57.7161 161.557C56.8257 165.906 55.0197 169.922 52.298 173.604C49.5745 177.286 46.0386 180.479 41.6867 183.179C37.3349 185.881 32.2722 187.912 26.4988 189.275ZM33.8897 166.24C35.2913 165.906 36.4681 165.203 37.4219 164.13C38.3793 163.054 39.0194 161.695 39.344 160.057C39.6722 158.419 39.5979 156.585 39.1191 154.556C38.7275 152.899 38.1509 151.446 37.3929 150.199C36.6332 148.953 35.7465 147.929 34.731 147.126C33.7156 146.325 32.6367 145.771 31.4962 145.466C30.3538 145.162 29.2114 145.145 28.0654 145.415C27.3401 145.586 26.8179 145.981 26.4988 146.604C26.1833 147.228 26.1089 148.248 26.2739 149.663C26.4426 151.075 26.8197 153.026 27.4054 155.52C28.3628 159.57 29.3166 162.454 30.2704 164.174C31.2278 165.895 32.4336 166.584 33.8897 166.24Z" fill="#00BEFF"/>
<path d="M102.844 175.079C100.663 175.259 98.9457 174.905 97.6945 174.021C96.4416 173.133 95.5494 171.923 95.0181 170.389C94.4905 168.853 94.155 167.208 94.01 165.453L94.3799 165.091C93.7706 167.45 92.7225 169.52 91.2393 171.303C89.7542 173.082 88.0225 174.496 86.0461 175.543C84.0732 176.592 82.046 177.201 79.968 177.37C76.8347 177.631 74.1474 177.172 71.9098 175.992C69.6704 174.815 67.7629 172.792 66.1871 169.926C64.8562 167.519 63.6848 164.243 62.6694 160.097C61.6576 155.951 60.9649 151.62 60.5877 147.101C60.4191 145.028 60.3556 143.12 60.3992 141.375C60.439 139.631 60.595 138.16 60.8706 136.961C61.3457 134.888 62.2995 133.311 63.7356 132.227C65.1717 131.146 66.9559 130.517 69.0884 130.343C71.587 130.136 73.636 130.783 75.2317 132.285C76.8274 133.784 77.8791 135.957 78.3868 138.802C78.6715 140.382 78.9526 142.192 79.2282 144.231C79.5038 146.271 79.7758 148.268 80.0478 150.225C80.3179 152.182 80.5664 153.874 80.7948 155.299C81.172 157.252 81.7704 158.662 82.5936 159.532C83.415 160.401 84.4903 160.782 85.8212 160.67C87.3625 160.545 88.4831 159.691 89.1794 158.111C89.8793 156.527 90.1187 154.405 89.8975 151.747C89.7814 150.312 89.5801 148.695 89.2955 146.898C89.0144 145.097 88.7478 143.337 88.4976 141.621C88.2456 139.901 88.0733 138.483 87.9826 137.366C87.6816 133.753 88.173 131.115 89.455 129.451C90.7352 127.79 92.6536 126.855 95.2067 126.646C97.2811 126.472 99.1016 126.766 100.668 127.523C102.235 128.277 103.428 129.449 104.251 131.039C105.125 132.517 105.938 134.565 106.688 137.178C107.443 139.793 108.114 142.748 108.705 146.043C109.299 149.339 109.751 152.849 110.061 156.574C110.554 162.523 110.286 167.026 109.256 170.085C108.226 173.144 106.088 174.809 102.844 175.079Z" fill="#00BEFF"/>
<path d="M126.409 176.913C121.399 176.624 117.582 174.44 114.957 170.361C112.335 166.278 111.258 160.217 111.722 152.175C112.186 144.188 113.883 138.423 116.814 134.881C119.744 131.335 123.711 129.706 128.716 129.995C131.864 130.175 134.571 130.972 136.839 132.387C139.111 133.799 141.142 135.732 142.932 138.186L141.626 138.432C141.418 136.495 141.229 134.439 141.061 132.264C140.89 130.09 140.781 128.038 140.734 126.11C140.685 124.182 140.693 122.664 140.756 121.551C140.905 118.996 141.606 117.046 142.859 115.702C144.116 114.354 145.971 113.752 148.423 113.897C151.139 114.053 153.322 115.098 154.972 117.036C156.626 118.974 157.772 121.834 158.41 125.618C158.816 127.884 159.117 130.747 159.317 134.207C159.52 137.662 159.63 141.274 159.65 145.043C159.674 148.812 159.589 152.347 159.396 155.647C159.057 161.558 158.352 166.139 157.279 169.39C156.209 172.642 154.851 174.888 153.202 176.131C151.552 177.372 149.688 177.932 147.61 177.812C145.159 177.667 143.514 176.741 142.678 175.036C141.84 173.336 141.478 170.618 141.59 166.882L143.186 166.976C141.556 170.194 139.298 172.71 136.411 174.522C133.525 176.334 130.19 177.131 126.409 176.913ZM135.309 163.149C136.372 163.212 137.376 162.924 138.319 162.286C139.266 161.649 140.049 160.627 140.669 159.22C141.287 157.811 141.659 155.986 141.786 153.748C141.955 150.869 141.623 148.498 140.792 146.637C139.96 144.778 138.453 143.785 136.274 143.658C134.46 143.553 132.961 144.266 131.777 145.797C130.596 147.33 129.913 149.722 129.724 152.972C129.559 155.848 129.982 158.238 130.993 160.141C132.003 162.04 133.441 163.044 135.309 163.149Z" fill="#00BEFF"/>
<path d="M166.188 195.522C161.999 194.691 160.382 191.866 161.336 187.049C161.713 185.168 162.652 183.168 164.157 181.047C165.666 178.926 167.555 176.869 169.829 174.872C172.106 172.877 174.558 171.159 177.184 169.718L176.857 170.965C171.809 164.853 168.186 159.294 165.992 154.287C163.802 149.282 163.149 144.556 164.034 140.109C164.687 136.81 166.028 134.425 168.059 132.955C170.094 131.487 172.553 131.038 175.436 131.607C179.207 132.357 182.036 135.106 183.922 139.856C185.811 144.607 186.555 151.292 186.148 159.912L186.46 159.977C189.168 151.27 192.277 145.06 195.788 141.349C199.298 137.638 202.889 136.144 206.559 136.869C208.86 137.324 210.472 138.377 211.396 140.03C212.325 141.682 212.53 143.817 212.013 146.43C211.668 148.16 210.985 150.161 209.96 152.431C208.934 154.704 207.618 157.148 206.007 159.767C204.401 162.387 202.557 165.107 200.473 167.928C198.388 170.751 196.118 173.553 193.663 176.336C187.269 183.603 181.929 188.783 177.641 191.876C173.35 194.973 169.533 196.189 166.188 195.522Z" fill="#00BEFF"/>
<mask id="mask1_347_137" style="mask-type:luminance" maskUnits="userSpaceOnUse" x="12" y="167" width="197" height="60">
<path d="M208.195 167.094H12.3037V226.472H208.195V167.094Z" fill="white"/>
</mask>
<g mask="url(#mask1_347_137)">
<path d="M20.6634 176.227C22.6889 176.227 24.1322 176.702 24.9935 177.647C25.8585 178.59 26.2918 179.681 26.2918 180.916C26.2918 182.42 25.7515 183.587 24.6744 184.417C23.6009 185.249 22.1014 185.664 20.1775 185.664C18.2808 185.664 16.8701 185.207 15.9417 184.294C15.0133 183.381 14.5491 182.306 14.5491 181.069C14.5491 179.47 15.1094 178.264 16.2318 177.452C17.3579 176.636 18.8357 176.227 20.6634 176.227ZM21.2074 187.135C22.8031 187.135 24.047 188.114 24.9428 190.071C25.8422 192.024 26.2918 195.138 26.2918 199.414C26.2918 204.662 25.7279 208.444 24.6019 210.758C23.4795 213.073 21.775 214.229 19.4884 214.229C17.6933 214.229 16.3805 213.374 15.55 211.664C14.7177 209.953 14.3025 206.963 14.3025 202.69C14.3025 197.439 14.9371 193.534 16.2101 190.977C17.4812 188.417 19.1476 187.135 21.2074 187.135Z" fill="#FE95F6"/>
<path d="M37.8487 214.425C34.777 214.425 32.369 213.227 30.6246 210.83C28.8784 208.434 28.0062 204.774 28.0062 199.849C28.0062 194.96 28.8367 191.381 30.5013 189.114C32.1695 186.849 34.5358 185.715 37.6021 185.715C39.5259 185.715 41.2068 186.106 42.643 186.889C44.0791 187.672 45.3846 188.781 46.5596 190.216L45.7763 190.412C45.5823 189.237 45.3937 187.991 45.2105 186.672C45.031 185.349 44.8932 184.098 44.7971 182.924C44.6992 181.75 44.6521 180.82 44.6521 180.134C44.6521 178.568 45.0093 177.356 45.7255 176.495C46.4454 175.631 47.5551 175.198 49.0547 175.198C50.7229 175.198 52.0937 175.761 53.1672 176.886C54.2443 178.008 55.0457 179.711 55.568 181.996C55.8907 183.364 56.1772 185.102 56.4238 187.208C56.6704 189.31 56.8663 191.512 57.0113 193.811C57.1564 196.112 57.2289 198.272 57.2289 200.291C57.2289 203.912 56.9605 206.733 56.4238 208.757C55.8871 210.777 55.1346 212.196 54.1681 213.012C53.2053 213.824 52.0883 214.229 50.8172 214.229C49.3176 214.229 48.2822 213.726 47.7129 212.715C47.1417 211.705 46.8225 210.06 46.7555 207.778H47.7346C46.8534 209.799 45.5659 211.413 43.8687 212.62C42.1715 213.824 40.1642 214.425 37.8487 214.425ZM42.788 205.72C43.4408 205.72 44.0446 205.51 44.6013 205.089C45.1561 204.665 45.5968 204.013 45.9213 203.132C46.2496 202.248 46.4146 201.123 46.4146 199.755C46.4146 197.991 46.1281 196.556 45.5587 195.449C44.9875 194.338 44.0319 193.782 42.6937 193.782C41.5804 193.782 40.6919 194.273 40.0246 195.253C39.3573 196.23 39.0237 197.714 39.0237 199.704C39.0237 201.463 39.3646 202.906 40.0463 204.031C40.7318 205.158 41.6457 205.72 42.788 205.72Z" fill="#FE95F6"/>
<path d="M65.5492 176.227C67.5746 176.227 69.018 176.702 69.8793 177.647C70.7442 178.59 71.1776 179.681 71.1776 180.916C71.1776 182.42 70.6372 183.587 69.5601 184.417C68.4867 185.249 66.9871 185.664 65.0632 185.664C63.1666 185.664 61.7558 185.207 60.8274 184.294C59.899 183.381 59.4348 182.306 59.4348 181.069C59.4348 179.47 59.9951 178.264 61.1176 177.452C62.2436 176.636 63.7214 176.227 65.5492 176.227ZM66.0932 187.135C67.6888 187.135 68.9328 188.114 69.8285 190.071C70.7279 192.024 71.1776 195.138 71.1776 199.414C71.1776 204.662 70.6137 208.444 69.4876 210.758C68.3652 213.073 66.6607 214.229 64.3742 214.229C62.5791 214.229 61.2662 213.374 60.4358 211.664C59.6035 209.953 59.1882 206.963 59.1882 202.69C59.1882 197.439 59.8229 193.534 61.0958 190.977C62.3669 188.417 64.0333 187.135 66.0932 187.135Z" fill="#FE95F6"/>
<path d="M87.3836 213.889C84.4479 213.889 81.8949 213.313 79.7244 212.156C77.5521 210.997 75.8694 209.342 74.6762 207.191C73.4867 205.037 72.892 202.476 72.892 199.508C72.892 196.411 73.4958 193.706 74.7052 191.39C75.9129 189.076 77.6174 187.266 79.8187 185.961C82.0236 184.656 84.593 184.004 87.5287 184.004C90.662 184.004 93.3783 184.633 95.6812 185.889C97.9822 187.141 99.7683 188.893 101.041 191.144C102.312 193.396 102.949 196.022 102.949 199.023C102.949 202.087 102.303 204.727 101.012 206.945C99.7248 209.163 97.9242 210.877 95.6086 212.084C93.2913 213.287 90.5496 213.889 87.3836 213.889ZM88.0654 203.814C89.342 203.814 90.361 203.326 91.1262 202.35C91.8951 201.369 92.2795 200.064 92.2795 198.435C92.2795 196.803 91.8951 195.498 91.1262 194.521C90.361 193.541 89.342 193.05 88.0654 193.05C86.7599 193.05 85.7227 193.541 84.9539 194.521C84.1887 195.498 83.8079 196.803 83.8079 198.435C83.8079 200.064 84.1887 201.369 84.9539 202.35C85.7227 203.326 86.7599 203.814 88.0654 203.814Z" fill="#FE95F6"/>
<path d="M130.41 191.339C130.732 190.002 131.318 188.795 132.165 187.723C133.015 186.646 134.053 185.791 135.277 185.157C136.504 184.519 137.851 184.2 139.317 184.2C141.081 184.2 142.647 184.609 144.017 185.425C145.389 186.237 146.468 187.574 147.251 189.433C148.035 191.289 148.426 193.768 148.426 196.87C148.426 198.368 148.361 199.892 148.231 201.443C148.1 202.991 147.935 204.426 147.737 205.749C147.543 207.068 147.331 208.168 147.099 209.047C146.707 210.647 145.982 211.837 144.923 212.62C143.864 213.403 142.566 213.795 141.028 213.795C139.563 213.795 138.404 213.387 137.554 212.57C136.707 211.754 136.285 210.596 136.285 209.098C136.285 208.543 136.364 207.784 136.524 206.822C136.687 205.861 136.867 204.827 137.061 203.719C137.258 202.609 137.44 201.523 137.605 200.465C137.768 199.403 137.851 198.513 137.851 197.798C137.851 196.754 137.663 195.947 137.286 195.377C136.912 194.808 136.383 194.521 135.697 194.521C134.783 194.521 134.047 195.108 133.492 196.283C132.936 197.457 132.593 199.153 132.462 201.371C132.364 203.063 132.241 204.56 132.092 205.865C131.947 207.17 131.712 208.264 131.389 209.148C130.963 210.352 130.348 211.256 129.547 211.859C128.749 212.464 127.683 212.765 126.348 212.765C124.877 212.765 123.702 212.35 122.823 211.519C121.942 210.689 121.468 209.391 121.401 207.626C121.367 206.651 121.358 205.493 121.372 204.154C121.39 202.817 121.409 201.498 121.423 200.197C121.441 198.892 121.418 197.816 121.351 196.964C121.287 195.757 121.05 194.867 120.64 194.297C120.234 193.728 119.655 193.441 118.906 193.441C118.089 193.441 117.45 193.867 116.992 194.717C116.536 195.563 116.226 196.752 116.063 198.283C116.034 199.037 116.02 199.968 116.02 201.074C116.02 202.181 116.027 203.283 116.041 204.379C116.056 205.472 116.049 206.392 116.02 207.141C115.951 209.489 115.461 211.169 114.547 212.178C113.633 213.189 112.36 213.693 110.732 213.693C108.904 213.693 107.548 213.189 106.663 212.178C105.782 211.169 105.245 209.538 105.053 207.286C104.922 206.015 104.823 204.745 104.756 203.473C104.692 202.203 104.661 200.929 104.661 199.653C104.661 198.383 104.708 197.022 104.806 195.572C104.902 194.119 105.017 192.738 105.147 191.434C105.408 189.25 105.938 187.433 106.736 185.983C107.537 184.533 108.835 183.808 110.631 183.808C112.264 183.808 113.439 184.272 114.156 185.2C114.875 186.128 115.236 187.554 115.236 189.477C115.236 190.129 115.187 190.734 115.091 191.289L114.939 190.31C115.592 188.194 116.683 186.541 118.217 185.352C119.755 184.16 121.452 183.562 123.309 183.562C125.692 183.562 127.552 184.305 128.887 185.787C130.225 187.271 130.961 189.317 131.092 191.927L130.41 191.339Z" fill="#FE95F6"/>
<path d="M173.872 214.229C171.981 214.229 170.733 213.798 170.129 212.939C169.524 212.075 169.239 210.696 169.273 208.8L170.107 209.047C168.341 212.604 164.965 214.382 159.975 214.382C157.687 214.382 155.801 213.983 154.318 213.186C152.832 212.385 151.723 211.33 150.988 210.025C150.252 208.721 149.886 207.269 149.886 205.669C149.886 202.964 150.889 200.82 152.896 199.24C154.907 197.66 157.576 196.87 160.903 196.87C162.923 196.87 164.7 197.18 166.234 197.798C167.772 198.417 169.063 199.282 170.107 200.392L168.541 200.291C168.541 197.75 168.066 195.94 167.119 194.862C166.171 193.786 164.784 193.246 162.956 193.246C162.173 193.246 161.331 193.369 160.432 193.615C159.536 193.858 158.615 194.101 157.668 194.347C156.726 194.594 155.763 194.717 154.782 194.717C153.476 194.717 152.455 194.367 151.721 193.666C150.99 192.961 150.626 192.055 150.626 190.948C150.626 189.451 151.26 188.114 152.533 186.94C153.804 185.765 155.493 184.836 157.596 184.149C159.703 183.464 161.98 183.12 164.428 183.12C167.623 183.12 170.398 183.718 172.748 184.91C175.098 186.099 176.746 187.933 177.694 190.412C178.409 192.206 178.922 194.228 179.232 196.478C179.546 198.725 179.703 201.123 179.703 203.669C179.703 206.438 179.507 208.59 179.116 210.127C178.724 211.66 178.095 212.727 177.23 213.331C176.363 213.929 175.244 214.229 173.872 214.229ZM164.283 207.09C164.936 207.09 165.596 206.985 166.263 206.771C166.931 206.559 167.491 206.249 167.946 205.843C168.405 205.437 168.635 204.941 168.635 204.35C168.635 203.767 168.456 203.295 168.098 202.937C167.739 202.574 167.259 202.313 166.655 202.154C166.049 201.991 165.404 201.907 164.718 201.907C163.48 201.907 162.486 202.168 161.737 202.69C160.987 203.212 160.613 203.864 160.613 204.647C160.613 205.363 160.947 205.95 161.614 206.409C162.281 206.863 163.17 207.09 164.283 207.09Z" fill="#FE95F6"/>
<path d="M196.243 183.12C199.768 183.12 202.303 183.732 203.852 184.954C205.404 186.177 206.18 187.75 206.18 189.672C206.18 190.881 205.781 191.876 204.983 192.659C204.185 193.441 203.068 193.833 201.632 193.833C200.588 193.833 199.467 193.662 198.274 193.318C197.085 192.976 195.723 192.804 194.191 192.804C193.469 192.804 192.921 192.934 192.544 193.195C192.171 193.456 191.986 193.8 191.986 194.224C191.986 194.65 192.189 195.003 192.595 195.282C193.005 195.558 193.911 195.775 195.315 195.935C197.795 196.134 199.892 196.527 201.603 197.116C203.319 197.702 204.617 198.606 205.498 199.827C206.378 201.05 206.818 202.737 206.818 204.886C206.818 208.052 205.632 210.352 203.264 211.787C200.9 213.222 197.614 213.939 193.407 213.939C190.501 213.939 188.165 213.655 186.401 213.084C184.64 212.515 183.369 211.718 182.586 210.692C181.802 209.663 181.411 208.48 181.411 207.141C181.411 205.836 181.842 204.818 182.709 204.082C183.574 203.348 184.595 202.98 185.77 202.98C186.519 202.98 187.316 203.087 188.163 203.299C189.014 203.513 189.913 203.732 190.861 203.959C191.808 204.187 192.771 204.299 193.748 204.299C195.054 204.299 195.706 203.926 195.706 203.176C195.706 202.915 195.63 202.679 195.482 202.465C195.337 202.253 195.027 202.058 194.553 201.878C194.078 201.701 193.353 201.563 192.377 201.465C190.191 201.204 188.297 200.813 186.698 200.291C185.097 199.769 183.857 198.963 182.977 197.87C182.096 196.779 181.657 195.286 181.657 193.391C181.657 190.328 182.928 187.851 185.472 185.961C188.02 184.068 191.61 183.12 196.243 183.12Z" fill="#FE95F6"/>
</g>
</g>
<defs>
<clipPath id="clip0_347_137">
<rect width="223" height="226" fill="white"/>
</clipPath>
</defs>
</svg>
