<svg width="40" height="40" viewBox="0 0 40 40" fill="none" xmlns="http://www.w3.org/2000/svg">
<path d="M20 18.3333C20.9167 18.3333 21.7017 18.0072 22.355 17.355C23.0083 16.7028 23.3344 15.9178 23.3333 15C23.3322 14.0822 23.0061 13.2978 22.355 12.6467C21.7039 11.9956 20.9189 11.6689 20 11.6667C19.0811 11.6644 18.2967 11.9911 17.6467 12.6467C16.9967 13.3022 16.67 14.0867 16.6667 15C16.6633 15.9133 16.99 16.6983 17.6467 17.355C18.3033 18.0117 19.0878 18.3378 20 18.3333ZM11.6667 18V11.6667H8.33333V13.3333C8.33333 14.3889 8.63889 15.3406 9.25 16.1883C9.86111 17.0361 10.6667 17.64 11.6667 18ZM28.3333 18C29.3333 17.6389 30.1389 17.0344 30.75 16.1867C31.3611 15.3389 31.6667 14.3878 31.6667 13.3333V11.6667H28.3333V18ZM18.3333 31.6667V26.5C16.9722 26.1944 15.7572 25.6183 14.6883 24.7717C13.6194 23.925 12.8344 22.8622 12.3333 21.5833C10.25 21.3333 8.50722 20.4239 7.105 18.855C5.70278 17.2861 5.00111 15.4456 5 13.3333V11.6667C5 10.75 5.32667 9.96556 5.98 9.31333C6.63333 8.66111 7.41778 8.33444 8.33333 8.33333H11.6667C11.6667 7.41667 11.9933 6.63222 12.6467 5.98C13.3 5.32778 14.0844 5.00111 15 5H25C25.9167 5 26.7017 5.32667 27.355 5.98C28.0083 6.63333 28.3344 7.41778 28.3333 8.33333H31.6667C32.5833 8.33333 33.3683 8.66 34.0217 9.31333C34.675 9.96667 35.0011 10.7511 35 11.6667V13.3333C35 15.4444 34.2983 17.285 32.895 18.855C31.4917 20.425 29.7489 21.3344 27.6667 21.5833C27.1667 22.8611 26.3822 23.9239 25.3133 24.7717C24.2444 25.6194 23.0289 26.1956 21.6667 26.5V31.6667H26.6667C27.1389 31.6667 27.535 31.8267 27.855 32.1467C28.175 32.4667 28.3344 32.8622 28.3333 33.3333C28.3322 33.8044 28.1722 34.2006 27.8533 34.5217C27.5344 34.8428 27.1389 35.0022 26.6667 35H13.3333C12.8611 35 12.4656 34.84 12.1467 34.52C11.8278 34.2 11.6678 33.8044 11.6667 33.3333C11.6656 32.8622 11.8256 32.4667 12.1467 32.1467C12.4678 31.8267 12.8633 31.6667 13.3333 31.6667H18.3333Z" fill="white"/>
</svg>
