<svg width="46" height="73" viewBox="0 0 46 73" fill="none" xmlns="http://www.w3.org/2000/svg">
<path d="M31.6516 63.3372C31.6516 65.6711 30.7245 67.9094 29.0742 69.5597C27.4239 71.21 25.1855 72.1372 22.8516 72.1372C20.5177 72.1372 18.2794 71.21 16.6291 69.5597C14.9788 67.9094 14.0516 65.6711 14.0516 63.3372C14.0516 61.0033 14.9788 58.7649 16.6291 57.1146C18.2794 55.4643 20.5177 54.5372 22.8516 54.5372C25.1855 54.5372 27.4239 55.4643 29.0742 57.1146C30.7245 58.7649 31.6516 61.0033 31.6516 63.3372Z" fill="white"/>
<path fill-rule="evenodd" clip-rule="evenodd" d="M22.7241 12.966C19.7761 12.966 17.2461 13.846 15.4641 15.1044C13.7481 16.3188 12.8989 17.7312 12.6525 18.95C12.2884 20.5792 11.3003 22.0007 9.9001 22.9097C8.49995 23.8187 6.79929 24.1427 5.16298 23.8123C3.52667 23.4818 2.08507 22.5231 1.14746 21.1419C0.209844 19.7608 -0.149092 18.0672 0.147658 16.4244C1.14646 11.47 4.21766 7.42639 8.10726 4.67639C12.1553 1.81639 17.2857 0.205994 22.7241 0.205994C33.9749 0.205994 45.6393 7.73 45.6393 19.8124C45.6393 26.8084 41.4813 32.4668 36.0957 35.7668C34.6521 36.6502 32.9168 36.9239 31.2714 36.5279C29.6261 36.1318 28.2054 35.0983 27.3221 33.6548C26.4387 32.2113 26.1649 30.476 26.561 28.8306C26.9571 27.1852 27.9905 25.7646 29.4341 24.8812C31.9421 23.3456 32.8793 21.3876 32.8793 19.8124C32.8793 17.2868 29.7333 12.966 22.7241 12.966Z" fill="white"/>
<path fill-rule="evenodd" clip-rule="evenodd" d="M22.7241 29.972C26.2441 29.972 29.1041 32.8232 29.1041 36.352V42.9608C29.1041 44.6529 28.4319 46.2756 27.2355 47.4721C26.039 48.6686 24.4162 49.3408 22.7241 49.3408C21.032 49.3408 19.4093 48.6686 18.2128 47.4721C17.0163 46.2756 16.3441 44.6529 16.3441 42.9608V36.352C16.3441 32.832 19.1997 29.972 22.7241 29.972Z" fill="white"/>
<path fill-rule="evenodd" clip-rule="evenodd" d="M38.2517 27.0504C38.6827 27.7696 38.9677 28.5668 39.0904 29.3962C39.213 30.2257 39.171 31.0712 38.9667 31.8844C38.7624 32.6976 38.3997 33.4626 37.8996 34.1355C37.3994 34.8085 36.7715 35.3763 36.0517 35.8064L26.0021 41.8212C24.5504 42.6905 22.8128 42.9476 21.1716 42.5359C19.5303 42.1241 18.1199 41.0773 17.2505 39.6256C16.3811 38.1739 16.124 36.4363 16.5358 34.795C16.9475 33.1538 17.9944 31.7433 19.4461 30.874L29.5001 24.8548C30.2192 24.4245 31.016 24.14 31.845 24.0177C32.674 23.8954 33.5189 23.9376 34.3316 24.1419C35.1443 24.3462 35.9088 24.7086 36.5814 25.2084C37.254 25.7082 37.8216 26.3312 38.2517 27.0504Z" fill="white"/>
</svg>
