<svg width="59" height="56" viewBox="0 0 59 56" fill="none" xmlns="http://www.w3.org/2000/svg">
<g clip-path="url(#clip0_164_81)">
<path d="M31.9145 41.8086C31.9145 41.8086 33.4515 43.5798 36.7527 43.5934C41.9845 43.6162 43.3231 40.4378 43.3231 40.4378C43.3231 40.4378 47.398 42.2787 50.0253 39.5174C52.654 36.756 52.0226 33.2562 52.0226 33.2562C53.9109 32.125 55.2162 30.0703 55.4358 27.8776C55.6569 25.6864 54.7846 23.4119 53.1583 21.9273C53.5778 18.5139 50.6416 15.0672 47.2057 14.9444C46.8816 12.0026 45.0251 9.2746 42.41 7.89166C39.7948 6.51023 36.4967 6.5163 33.8876 7.90834C32.967 6.97273 32.284 6.20847 30.2594 6.04622C26.9704 5.77934 25.4001 7.90834 25.4001 7.90834C22.791 6.5163 19.4914 6.51023 16.8763 7.89166C14.2626 9.2746 12.4061 12.0026 12.0821 14.9444C8.6462 15.0672 5.70851 18.5139 6.12947 21.9273C4.50314 23.4119 3.63092 25.6864 3.852 27.8776C4.07157 30.0703 5.37536 32.125 7.26367 33.2562C7.26367 33.2562 6.63373 36.756 9.26099 39.5174C11.8898 42.2787 15.9632 40.4378 15.9632 40.4378C15.9632 40.4378 18.7282 43.924 22.5351 43.5934C25.8241 43.3099 27.3732 41.8086 27.3732 41.8086C27.3732 41.8086 29.1313 43.1097 31.913 41.8086H31.9145Z" fill="#FFCFCA"/>
<path d="M13.2027 21.4056C13.2254 19.5177 14.9047 18.3091 16.7203 18.6397C17.1322 18.7155 17.5214 18.4668 17.532 18.021C17.5532 17.1309 17.8515 16.2969 18.5254 15.7116C19.3188 15.0231 20.3803 14.7077 21.407 14.9625C22.2096 15.1596 22.5518 13.9222 21.7477 13.7236C20.2955 13.3642 18.8509 13.7797 17.7107 14.7244C16.7325 15.5372 16.2767 16.7639 16.2479 18.021L17.0611 17.4023C15.6573 17.1446 14.3066 17.4099 13.2239 18.3804C12.3623 19.1538 11.9337 20.2607 11.9201 21.4056C11.911 22.232 13.1936 22.232 13.2027 21.4056Z" fill="#FFA59B"/>
<path d="M13.1436 34.7225C13.8326 36.019 14.7942 37.2018 16.0571 37.9782C17.3911 38.7986 19.069 39.0988 20.5757 38.6242C21.3616 38.377 21.0254 37.1366 20.235 37.3853C17.6395 38.2026 15.3908 36.2192 14.2521 34.075C13.8629 33.3441 12.7559 33.9931 13.1436 34.7225Z" fill="#FFA59B"/>
<path d="M41.9421 14.6926C42.3237 14.8776 42.6993 15.0778 43.0582 15.3052C43.2277 15.4144 43.3943 15.5281 43.5548 15.651C43.4837 15.5964 43.5609 15.657 43.5927 15.6813C43.6305 15.7131 43.6699 15.745 43.7078 15.7783C43.7911 15.8481 43.8713 15.9209 43.9501 15.9952C44.0833 16.1226 44.209 16.256 44.3286 16.397C44.3589 16.4334 44.3877 16.4683 44.418 16.5047C44.5315 16.6457 44.3468 16.4016 44.4513 16.5502C44.5028 16.626 44.5573 16.7003 44.6057 16.7791C44.7042 16.9338 44.7935 17.0946 44.8707 17.2614C44.8798 17.2796 44.9404 17.4448 44.8935 17.3099C44.9086 17.3523 44.9253 17.3963 44.9419 17.4388C44.9752 17.5343 45.004 17.6314 45.0313 17.7284C45.1191 18.0529 45.4916 18.2834 45.8202 18.1773C46.1488 18.0696 46.3623 17.7345 46.2684 17.3872C45.7748 15.566 44.212 14.3696 42.5902 13.5826C42.2874 13.437 41.8816 13.4901 41.712 13.8146C41.5605 14.1012 41.6196 14.5364 41.9421 14.6926Z" fill="#FFA59B"/>
<path d="M20.709 25.3224C20.709 25.3224 20.4061 24.2701 22.361 23.9122C24.3145 23.5543 26.6025 23.9001 25.9544 25.4589C25.3078 27.0162 20.4243 27.0284 20.709 25.3224Z" fill="#FFA59B"/>
<path d="M40.4854 23.3557C40.4854 23.3557 40.2007 22.2973 42.1602 21.9743C44.1197 21.6498 46.4002 22.0319 45.7278 23.5787C45.054 25.1254 40.1719 25.0556 40.4854 23.3557Z" fill="#FFA59B"/>
<path d="M15.9057 15.3173C15.6452 15.6539 14.0855 16.353 13.8629 14.1027C13.6403 11.8524 16.6189 8.36164 19.5914 8.6725C22.5655 8.98336 19.4779 11.0866 18.1756 12.1299C16.8718 13.1731 16.5296 14.5121 15.9057 15.3173Z" fill="white"/>
<path d="M40.3446 9.49904C39.8691 8.51642 37.9869 8.45576 36.9314 8.61802C36.8148 8.63621 36.6891 8.66199 36.6058 8.74843C36.4953 8.86215 36.4998 9.05322 36.5771 9.19273C36.6528 9.33223 36.786 9.4308 36.9208 9.51572C37.8703 10.1223 39.0726 10.3164 40.1644 10.0389C40.2946 10.007 40.4445 9.94334 40.4672 9.81293C40.4794 9.74772 40.4551 9.681 40.4248 9.62338C40.2446 9.27916 39.8085 9.09416 39.436 9.20182" fill="white"/>
<path d="M40.8988 9.17455C40.5551 8.49673 39.7843 8.15402 39.0741 8.01755C38.3291 7.87653 37.5689 7.87804 36.8194 7.99025C36.5498 8.02968 36.306 8.12673 36.1198 8.33447C35.882 8.59832 35.826 8.98197 35.935 9.31406C36.1031 9.83266 36.6422 10.1344 37.1101 10.3467C38.0641 10.7789 39.1165 10.9093 40.1462 10.7C40.4703 10.6333 40.7974 10.5181 40.9836 10.2209C41.1941 9.88422 41.1214 9.47025 40.8928 9.16545C40.5112 8.65595 39.8858 8.42242 39.2664 8.58013C38.9409 8.66353 38.7122 9.04566 38.8182 9.37016C38.9272 9.7068 39.2589 9.90848 39.6071 9.81901C39.7252 9.78869 39.6177 9.81143 39.592 9.81295C39.6268 9.81143 39.6617 9.81295 39.6965 9.81143C39.6723 9.81295 39.5647 9.77807 39.6828 9.80992C39.7056 9.81598 39.7328 9.8266 39.7586 9.83266C39.8418 9.84783 39.6828 9.77807 39.751 9.82963C39.7676 9.84024 39.8661 9.89483 39.7979 9.84934C39.7358 9.81143 39.804 9.85692 39.8146 9.86602C39.9494 9.97369 39.7237 9.77807 39.8464 9.89787C39.9297 9.97975 39.7934 10.2102 39.9539 9.67496L40.0342 9.40504C39.9796 9.43385 39.9751 9.4384 40.0175 9.41717C40.0841 9.39746 39.9024 9.43992 39.8691 9.4475C39.7843 9.4657 39.6995 9.48238 39.6147 9.49451C39.7162 9.47934 39.6087 9.49451 39.5905 9.49602C39.5375 9.50057 39.483 9.50664 39.43 9.50967C39.2664 9.52029 39.1044 9.5218 38.9424 9.5127C38.8561 9.50967 38.7697 9.50057 38.6834 9.49148C38.6971 9.49299 38.7697 9.50361 38.694 9.49299C38.6395 9.48389 38.5865 9.4748 38.5335 9.4657C38.373 9.43385 38.217 9.39443 38.0611 9.3459C37.9778 9.31861 37.896 9.29131 37.8157 9.25947C37.7855 9.24734 37.7552 9.23672 37.7249 9.22308C37.8248 9.26553 37.6416 9.18213 37.6416 9.18213C37.5053 9.11541 37.3721 9.04111 37.2449 8.95922C37.2131 8.93799 37.1767 8.91677 37.1464 8.8925C37.2312 8.96074 37.1464 8.89099 37.1389 8.87734C37.1722 8.93951 37.1343 8.91677 37.1313 8.86672C37.1343 8.9198 37.1661 8.95771 37.157 9.01836C37.1419 9.13513 37.0677 9.17607 36.9935 9.23824C36.8966 9.31861 36.9254 9.26705 36.9844 9.25947C37.048 9.25037 37.1192 9.23976 37.1813 9.22459C37.1676 9.22762 37.0192 9.2443 37.1343 9.23217C37.1631 9.22914 37.1904 9.22611 37.2191 9.22308C37.2782 9.21701 37.3372 9.21094 37.3963 9.20639C37.6522 9.1882 37.9081 9.18365 38.164 9.19578C38.2806 9.20033 38.3972 9.20943 38.5123 9.22156C38.5456 9.22459 38.5774 9.23066 38.6123 9.23369C38.4639 9.21701 38.5562 9.22459 38.588 9.23066C38.6607 9.2443 38.7349 9.25492 38.8061 9.2716C38.9393 9.29889 39.0696 9.33225 39.1983 9.37471C39.2286 9.38381 39.2573 9.39443 39.2861 9.40504C39.2997 9.41111 39.4194 9.47176 39.3346 9.42475C39.2543 9.37926 39.3376 9.42779 39.3588 9.4384C39.3921 9.45508 39.4239 9.47025 39.4557 9.48844C39.5117 9.52029 39.5617 9.5582 39.6177 9.59004C39.6783 9.62492 39.5663 9.55668 39.5693 9.55213C39.5693 9.55061 39.6556 9.62947 39.6586 9.6325C39.6738 9.64615 39.6859 9.66283 39.701 9.67647C39.7919 9.76442 39.6813 9.68254 39.6889 9.65221C39.6859 9.66586 39.7843 9.80688 39.7919 9.82205C39.9433 10.1223 40.39 10.233 40.6686 10.0541C40.9745 9.85692 41.0624 9.49602 40.8988 9.17607V9.17455Z" fill="white"/>
<path d="M48.8064 30.6102C48.4505 30.9741 47.9039 32.0022 49.3591 32.5693C50.8128 33.138 52.9191 31.749 53.8489 29.3152C54.7802 26.8814 53.4885 26.2369 52.4452 26.2308C51.4018 26.2263 50.2404 29.1393 48.8079 30.6102H48.8064Z" fill="#FFBDC5"/>
<path d="M31.2922 12.0026C31.3982 12.0374 31.5012 12.0769 31.6057 12.1178C31.5012 12.0769 31.6163 12.1224 31.6556 12.1406C31.698 12.1588 31.7389 12.18 31.7798 12.1997C31.9721 12.2952 32.1554 12.4014 32.3325 12.5197C32.3795 12.55 32.4249 12.5818 32.4703 12.6137C32.493 12.6304 32.6248 12.7289 32.5188 12.6455C32.599 12.7092 32.6778 12.7744 32.7535 12.8411C32.9125 12.9837 33.0639 13.1338 33.2047 13.293C33.2426 13.3355 33.2789 13.3779 33.3138 13.4204C33.3244 13.4325 33.4198 13.5493 33.3698 13.4856C33.3229 13.428 33.4243 13.5614 33.4364 13.5751C33.4637 13.613 33.4894 13.6509 33.5152 13.6903C33.6409 13.8738 33.7544 14.0664 33.8529 14.2635C33.8741 14.3044 33.8937 14.3469 33.9149 14.3894C33.9225 14.406 33.9922 14.5607 33.9604 14.4894C33.9271 14.4121 33.9846 14.5531 33.9907 14.5668C34.0103 14.6183 34.03 14.6714 34.0467 14.723C34.1194 14.9353 34.1769 15.1491 34.2208 15.3674C34.2859 15.698 34.6963 15.9164 35.0098 15.8148C35.3596 15.701 35.5292 15.378 35.458 15.0247C35.0628 13.0443 33.5394 11.3899 31.6344 10.7622C31.3149 10.6575 30.9182 10.8835 30.844 11.2095C30.7637 11.5628 30.9515 11.8858 31.2922 11.9995V12.0026Z" fill="#FFA59B"/>
<path d="M34.8538 16.9096C35.0355 16.6958 35.2339 16.4971 35.4489 16.3167C35.4732 16.297 35.4974 16.2788 35.5216 16.2591C35.4565 16.3045 35.6155 16.1817 35.5216 16.2591C35.5792 16.2181 35.6352 16.1757 35.6927 16.1362C35.8093 16.0589 35.9275 15.9831 36.0501 15.9148C36.1652 15.8511 36.2833 15.7905 36.4029 15.7344C36.4378 15.7192 36.4741 15.6995 36.5105 15.6874C36.4696 15.701 36.412 15.7283 36.4862 15.6995C36.5513 15.6737 36.618 15.6495 36.6831 15.6267C36.9556 15.5312 37.2358 15.463 37.5205 15.4175C37.8521 15.3644 38.0671 14.9307 37.9672 14.6274C37.8521 14.265 37.5341 14.1225 37.1782 14.1786C35.9396 14.3757 34.7584 15.0444 33.9453 16.0013C33.7287 16.2575 33.6757 16.6624 33.9453 16.9096C34.1845 17.1295 34.6206 17.1825 34.8538 16.9096Z" fill="#FFA59B"/>
<path d="M11.004 37.916C10.3044 37.1427 8.92641 34.8893 11.0434 32.9711C13.1618 31.0513 16.6144 32.7436 17.2322 33.934C17.2322 33.934 19.0039 34.1129 20.3986 35.6551C20.3986 35.6551 23.4423 33.3623 26.5647 34.5087C29.6871 35.6551 29.8703 36.9304 30.8365 37.0866C31.8041 37.2427 32.6127 35.4746 35.0477 35.6854C37.4826 35.8947 38.1989 37.9645 38.1989 37.9645C38.1989 37.9645 41.2123 37.264 41.7892 35.602C42.3677 33.9385 45.0858 33.2956 46.4819 34.5951C47.8766 35.8947 47.8493 38.4301 45.9383 39.114C44.0273 39.7963 42.9431 38.9138 42.7871 39.114C42.6311 39.3141 40.9442 41.8192 37.8854 42.1528C33.7348 42.6077 32.0948 40.597 32.0948 40.597C32.0948 40.597 29.5584 41.5584 27.1749 40.3862C27.1749 40.3862 26.8085 40.4241 25.8348 40.8836C23.7148 41.8859 20.5258 42.1119 18.5193 40.8836C16.516 39.6568 16.2176 38.9578 15.7543 38.6045C15.6074 38.4922 15.4317 38.4361 15.247 38.4407C14.3778 38.4574 12.1624 39.1989 11.0025 37.916H11.004Z" fill="#FFBDC5"/>
<path d="M16.7295 34.1842C17.9606 35.74 20.1699 36.4042 22.0612 35.8492C22.3944 35.7507 22.6033 35.3973 22.5095 35.0592C22.4186 34.7271 22.0552 34.5118 21.7205 34.6103C21.5252 34.668 21.3253 34.7165 21.1224 34.7423C21.2102 34.7316 21.0875 34.7438 21.0557 34.7468C21.0118 34.7514 20.9664 34.7544 20.921 34.7559C20.8195 34.762 20.7181 34.7635 20.6166 34.7635C20.5136 34.762 20.4122 34.7559 20.3107 34.7468C20.2547 34.7423 20.1972 34.7377 20.1426 34.7286C20.2123 34.7392 20.1396 34.7286 20.1108 34.7225C19.8973 34.6831 19.6884 34.6361 19.4824 34.5709C19.1205 34.4557 18.8313 34.3162 18.4754 34.075C18.1953 33.887 17.8924 33.6004 17.6365 33.2774C17.423 33.006 16.9551 33.053 16.7295 33.2774C16.4614 33.5473 16.5129 33.9143 16.7295 34.1873V34.1842Z" fill="#FFA59B"/>
<path d="M7.06227 29.582C7.68464 30.5403 8.44934 31.3895 9.47602 31.9187C10.5088 32.4495 11.6687 32.6481 12.8195 32.501C13.1633 32.457 13.4616 32.2387 13.4616 31.8596C13.4616 31.5472 13.1648 31.1727 12.8195 31.2182C12.2895 31.2849 11.7368 31.2925 11.2492 31.1939C11.0297 31.1499 10.8116 31.0893 10.5996 31.015C10.5481 30.9968 10.4966 30.9771 10.4452 30.9573C10.4118 30.9452 10.3119 30.9012 10.3937 30.9376C10.3028 30.8967 10.2135 30.8542 10.1256 30.8087C9.29128 30.3796 8.67951 29.7154 8.17223 28.936C7.98295 28.6449 7.60438 28.5235 7.29395 28.704C7.00624 28.8738 6.87601 29.2908 7.06378 29.582H7.06227Z" fill="#FFA59B"/>
<path d="M36.0562 21.0614C37.84 21.7817 40.0266 21.2691 41.3425 19.8801C41.5802 19.6284 41.5908 19.222 41.3425 18.9703C41.1017 18.7307 40.6732 18.7186 40.4339 18.9703C40.1477 19.2736 39.9554 19.4282 39.5829 19.636C39.4951 19.686 39.4042 19.73 39.3134 19.774C39.2937 19.7846 39.2195 19.8179 39.2801 19.7906C39.2286 19.8134 39.1756 19.8331 39.1226 19.8528C38.9318 19.9226 38.738 19.9787 38.5396 20.0227C38.4518 20.0408 38.3624 20.0575 38.2731 20.0712C38.2276 20.0788 38.2292 20.0788 38.2761 20.0712L38.2095 20.0788C38.164 20.0833 38.1186 20.0879 38.0747 20.0909C37.8718 20.1045 37.6704 20.1045 37.4675 20.0909C37.422 20.0879 37.3781 20.0833 37.3342 20.0788L37.2661 20.0712C37.3145 20.0772 37.316 20.0772 37.2706 20.0712C37.1813 20.0575 37.0934 20.0393 37.0056 20.0196C36.7982 19.9711 36.5937 19.9044 36.3969 19.824C36.0743 19.6936 35.6912 19.965 35.6064 20.2713C35.5065 20.6398 35.7321 20.9325 36.0547 21.0614H36.0562Z" fill="black"/>
<path d="M37.9899 28.6221C38.3079 28.6767 38.5244 29.0513 38.7062 29.2969C38.9727 29.6578 39.218 30.0354 39.4375 30.4266C39.8737 31.197 40.2007 32.0113 40.4324 32.8665C40.8231 32.7012 41.2138 32.5359 41.6045 32.3706C41.3228 31.8263 40.8534 31.385 40.2931 31.1363C39.7237 30.8831 38.8379 30.695 38.317 31.1484C37.7809 31.6155 37.678 32.4556 37.8127 33.1182C37.949 33.7809 38.37 34.3586 38.8954 34.7726C39.4481 35.2093 40.2007 35.5111 40.8867 35.1987C41.5136 34.9151 41.8028 34.2206 41.7044 33.561C41.6075 32.8999 41.1426 32.2524 40.596 31.8778C40.0205 31.482 39.1332 31.5245 38.7501 32.172C38.4109 32.7467 38.6395 33.5474 39.0045 34.0538C39.3603 34.5512 40.0357 35.1001 40.6914 34.9712C42.2829 34.6574 41.2941 31.9279 40.2871 31.4669C39.5799 31.1439 38.791 31.5685 38.6971 32.3418C38.6153 33.009 38.9257 33.6975 39.3391 34.204C39.751 34.7089 40.5142 35.27 41.1669 34.8575C41.8831 34.4056 41.6772 33.5034 41.4212 32.8453C41.2804 32.4859 41.1275 32.1022 40.7731 31.9006C40.3809 31.6746 39.8767 31.8005 39.642 32.1887C39.2604 32.818 39.5935 33.7748 40.0841 34.2419C40.3779 34.5194 40.7656 34.7165 41.1714 34.5815C41.5742 34.4496 41.7695 34.0493 41.7892 33.6474C41.8225 32.9893 41.5076 32.1235 40.7792 31.9976C40.4627 31.943 40.0539 32.0795 39.9887 32.4465C39.8827 33.0667 39.9236 33.7627 40.2931 34.2995C40.6126 34.7605 41.3743 34.991 41.7044 34.3981C41.874 34.0948 41.8195 33.6884 41.7862 33.3563C41.7574 33.094 41.762 32.7558 41.6635 32.5041C41.5469 32.2084 41.2986 31.9946 40.9609 32.0446C40.6671 32.0886 40.3779 32.3524 40.4037 32.6754C40.4097 32.7497 40.4218 32.824 40.4324 32.8983C40.4567 33.0727 40.4233 32.8013 40.4385 32.9454C40.4461 33.0151 40.4506 33.0849 40.4597 33.1531C40.4885 33.3533 40.3613 33.2865 40.5339 33.0181C40.6626 32.9196 40.7898 32.821 40.9185 32.7224L40.9079 32.7255C41.073 32.7467 41.2365 32.7679 41.4031 32.7907L41.3894 32.7801C41.1063 32.5799 40.6747 32.73 40.5112 33.0121C40.3234 33.332 40.4582 33.6899 40.7429 33.8901C41.2305 34.2343 41.7453 33.7308 41.7498 33.2441C41.7498 33.1273 41.7332 33.0106 41.718 32.8968C41.7074 32.8074 41.6953 32.7194 41.6832 32.6315C41.6635 32.495 41.6832 32.6178 41.6893 32.6785C41.2683 32.7346 40.8489 32.7907 40.4294 32.8483C40.4491 32.8983 40.4506 32.9605 40.4597 33.0136C40.4703 33.0758 40.4779 33.1379 40.4869 33.2001C40.4718 33.0833 40.496 33.2714 40.4975 33.2911C40.5142 33.4261 40.5278 33.561 40.5339 33.6975C40.5369 33.7566 40.5339 33.8158 40.5384 33.8749C40.5384 33.9083 40.5354 33.9401 40.5324 33.9719C40.5324 33.8522 40.5808 33.7475 40.6747 33.6596L40.9579 33.4958C41.0911 33.5261 41.2229 33.5565 41.3561 33.5868C41.3349 33.5549 41.3183 33.5216 41.3062 33.4867C41.2925 33.4048 41.2501 33.3229 41.235 33.2411C41.2077 33.094 41.2047 32.9393 41.2305 32.7922C40.967 32.9408 40.7035 33.0909 40.44 33.2411C40.6202 33.2714 40.437 33.2501 40.4158 33.1865C40.437 33.2532 40.4657 33.3047 40.4854 33.3775C40.5006 33.4367 40.4991 33.4913 40.5097 33.5352C40.5566 33.7248 40.4491 33.5929 40.549 33.514L40.8322 33.3487C41.1441 33.2411 40.9882 33.4549 40.9276 33.2699C40.9064 33.2077 40.8413 33.1455 40.8171 33.0818C40.8004 33.0394 40.7883 32.9893 40.7822 32.9454L40.7792 32.8498C40.8019 32.6679 40.755 32.7133 40.6369 32.9848L40.3128 33.0742C40.0902 32.915 40.0251 32.9044 40.1205 33.0409C40.1417 33.0818 40.1599 33.1243 40.1765 33.1667C40.2219 33.2774 40.2613 33.3897 40.2961 33.5034C40.3249 33.5913 40.3446 33.7597 40.3885 33.837C40.3885 33.928 40.3931 33.9356 40.4037 33.8643C40.5036 33.8127 40.602 33.7612 40.702 33.7111C40.702 33.7142 40.3249 33.3957 40.2901 33.3533C40.175 33.2062 40.0841 33.0333 40.0296 32.8559C40.0069 32.7831 40.0039 32.6694 39.9691 32.6072C39.8994 32.4844 40.0539 32.5359 39.9115 32.5799C39.9933 32.5541 39.7571 32.683 39.7586 32.6299C39.7586 32.6481 39.9312 32.8483 39.9463 32.8771C40.0614 33.0773 40.1387 33.2896 40.1856 33.5155C40.2023 33.5959 40.1947 33.7172 40.2204 33.7945C40.2749 33.9568 40.1477 33.8476 40.2825 33.79C40.39 33.7612 40.4975 33.7308 40.6066 33.702C40.3401 33.7308 40.0417 33.3669 39.9418 33.1319C39.9433 33.1349 39.8525 32.7937 39.8661 32.7983C39.7646 32.8908 39.7374 32.9272 39.7813 32.9029C39.7843 32.9014 39.7858 32.9014 39.7904 32.9029C39.7843 32.8862 40.016 33.0379 39.907 32.962C40.1432 33.1243 40.4233 33.4897 40.4445 33.7824C40.4642 34.0614 40.2961 34.0963 40.0539 33.9992C39.7328 33.8734 39.4406 33.5989 39.2589 33.3093C39.1544 33.141 39.0741 32.9605 39.0469 32.7634C39.0348 32.6709 39.0332 32.5723 39.0423 32.4798C39.0514 32.3919 39.1256 32.2675 39.1165 32.1902L39.1377 32.1523C39.168 32.0931 39.1377 32.1007 39.0484 32.1796C39.0999 32.2114 39.2725 32.175 39.3316 32.1826C39.4648 32.1978 39.6056 32.2372 39.7298 32.2903C40.0751 32.4389 40.3264 32.6982 40.496 33.0257C40.8352 33.6793 41.8574 33.2259 41.6696 32.5314C41.391 31.5033 40.9761 30.507 40.4324 29.5911C40.1568 29.1241 39.8449 28.6828 39.5087 28.2582C39.1998 27.8685 38.844 27.4788 38.3291 27.3908C37.9884 27.3317 37.6386 27.4818 37.5402 27.8382C37.4554 28.1475 37.6446 28.5691 37.9884 28.6297L37.9899 28.6221Z" fill="#FFA59B"/>
<path d="M41.4924 33.4791L41.5 33.4002C41.394 33.5837 41.288 33.7687 41.182 33.9537L41.0215 33.9886C40.8716 33.9249 40.7186 33.8627 40.5687 33.8005C40.7004 33.9173 40.755 34.1766 40.8261 34.3328C40.9155 34.5299 41.0078 34.7255 41.1078 34.9181C41.3016 35.3048 41.5136 35.6824 41.7408 36.0508C42.195 36.7878 42.7129 37.4884 43.2793 38.1435C43.7911 38.7379 44.3574 39.3611 45.0676 39.722C45.7642 40.0768 46.5425 40.1648 47.3087 40.0389C48.605 39.8297 49.9708 38.9896 50.5569 37.7795C51.1777 36.4982 51.0899 34.9666 51.0899 33.5807C51.0899 32.7527 49.8073 32.7527 49.8073 33.5807C49.8073 34.7589 49.9618 36.2449 49.353 37.314C48.7579 38.3588 47.2497 39.0533 46.0791 38.7439C45.3281 38.5468 44.7875 37.919 44.2923 37.358C43.7563 36.7484 43.2747 36.0948 42.8492 35.4034C42.4191 34.7043 42.1163 33.9598 41.7392 33.2364C41.344 32.4782 40.2946 32.5662 40.2083 33.4791C40.1311 34.3009 41.4137 34.2964 41.4924 33.4791Z" fill="#FFA59B"/>
<path d="M32.9095 24.3838C34.2587 23.9516 35.6216 23.8258 37.0374 23.9941C37.3721 24.0335 37.6946 23.6696 37.6795 23.3512C37.6628 22.969 37.3963 22.7522 37.0374 22.7097C35.5413 22.5308 34.0043 22.6855 32.5688 23.1464C32.2387 23.2511 32.0267 23.5923 32.1221 23.9365C32.2099 24.2595 32.5794 24.4915 32.911 24.3838H32.9095Z" fill="black"/>
<mask id="mask0_164_81" style="mask-type:luminance" maskUnits="userSpaceOnUse" x="0" y="23" width="12" height="19">
<path d="M0.225342 23.5604H11.3901V41.4174H0.225342V23.5604Z" fill="white"/>
</mask>
<g mask="url(#mask0_164_81)">
<path d="M9.31552 23.985C7.68616 24.904 6.11132 25.9245 4.59704 27.0224C3.29022 27.9701 1.9728 29.0376 1.20961 30.4934C0.463072 31.9127 0.245016 33.655 1.00821 35.1138C1.74112 36.5134 3.20997 37.2853 4.6137 37.8554C6.51866 38.6303 8.4645 39.2611 10.53 39.3824C10.3801 39.017 10.2271 38.6515 10.0757 38.2861C9.75163 38.6925 9.39729 38.9321 8.91575 39.1216C8.1571 39.4203 8.48116 40.6577 9.25646 40.3605C9.75163 40.1709 10.1257 39.8298 10.2165 39.2854C10.3119 38.7076 9.80312 38.3255 9.27312 38.5605C8.68861 38.8229 8.06473 39.249 8.04505 39.9602C8.02687 40.5804 8.46601 41.2112 9.12472 41.2097C9.86066 41.2081 10.4073 40.4151 10.5436 39.763C10.6859 39.0837 10.1908 38.5241 9.48966 38.6318C8.83853 38.7304 8.60987 39.2277 8.55081 39.8176C8.49479 40.3711 8.49327 41.1369 9.25949 41.1581C9.79403 41.1718 10.3528 40.6622 10.7147 40.3241C11.1327 39.9344 11.4506 39.4628 11.3704 38.8638C11.2553 38.0055 10.3937 37.7235 9.70166 38.1754C9.00812 38.6273 8.63107 39.4188 8.63713 40.2361C8.64015 40.6835 9.04144 40.9261 9.44878 40.8548C10.0015 40.7578 10.4739 40.3954 10.7026 39.8813C11.0373 39.1322 9.93032 38.4787 9.59415 39.2323C9.48361 39.4795 9.37004 39.5689 9.10807 39.6159C9.37761 39.8222 9.64866 40.0284 9.91972 40.2346C9.9182 39.9374 9.99089 39.6599 10.1908 39.4309C10.3225 39.2793 10.5133 39.302 10.2574 39.1595C9.95909 38.9927 10.2059 39.0791 10.0484 39.1701C9.87126 39.2717 9.71832 39.5068 9.55023 39.6357C9.46392 39.7009 9.33824 39.7509 9.26858 39.8267C9.14441 39.9617 9.11564 39.763 9.37004 39.8692C9.49875 39.9677 9.62595 40.0663 9.75466 40.1649C9.82432 40.2725 9.76375 40.2286 9.79706 40.13C9.81675 40.0709 9.83492 39.9374 9.82886 39.8768C9.80009 39.6159 9.85006 39.9116 9.71983 39.8813C9.56992 39.7767 9.42152 39.6736 9.27161 39.5689C9.25041 39.6402 9.21861 39.7054 9.17621 39.7661C9.08535 39.9086 8.9521 39.9116 9.17924 39.9799C9.53509 40.083 9.21407 40.0208 9.37761 39.9677C9.54266 39.9162 9.75012 39.7448 9.92275 39.6675C9.60778 39.4264 9.29432 39.1838 8.97935 38.9427C8.99601 39.023 8.97481 39.0807 8.91727 39.1201C9.02932 39.5325 9.14441 39.9465 9.25798 40.359C9.9394 40.0891 10.5179 39.7736 10.9843 39.1914C11.3341 38.7562 11.1175 38.1299 10.53 38.095C8.5175 37.9752 6.55046 37.311 4.71061 36.5134C3.12365 35.825 1.67449 34.7135 1.81986 32.8043C1.96372 30.9331 3.40076 29.5214 4.80904 28.4493C6.43991 27.2104 8.18133 26.0943 9.96363 25.0905C10.6829 24.6856 10.0378 23.5756 9.31552 23.9805V23.985Z" fill="#FFA59B"/>
</g>
<path d="M49.4575 25.368C49.8633 27.544 48.5504 29.9869 46.4895 30.8224C46.1685 30.9513 45.9413 31.25 46.0413 31.6125C46.1246 31.9157 46.5077 32.1917 46.8302 32.0598C49.5801 30.9468 51.2398 27.9519 50.6946 25.0268C50.631 24.6856 50.2192 24.4915 49.9057 24.5795C49.5468 24.678 49.3939 25.0268 49.4575 25.3695V25.368Z" fill="#FFA59B"/>
<path d="M26.1588 18.5564C25.8015 18.3698 25.3381 18.5791 25.111 18.9127C24.8838 19.2478 24.8369 19.6709 24.8066 20.0743C24.7824 20.4079 24.7703 20.7581 24.9081 21.0645C25.0443 21.3692 25.3775 21.6134 25.7015 21.5345C26.1558 21.4254 26.2724 20.8385 26.2966 20.3699C26.3088 20.1334 26.3224 19.8968 26.3345 19.6618C26.3496 19.3797 26.3618 19.0841 26.2406 18.8308C26.118 18.5761 25.8151 18.3865 25.5547 18.4911" fill="black"/>
<path d="M26.4799 18.0044C26.0468 17.7966 25.6168 17.8133 25.1867 18.0196C24.8263 18.1924 24.5613 18.5245 24.4084 18.8869C24.2494 19.266 24.1994 19.6664 24.1691 20.0758C24.1373 20.5095 24.1616 20.9356 24.3357 21.3389C24.687 22.1472 25.7697 22.4899 26.4269 21.8317C26.9418 21.3147 26.9266 20.5155 26.963 19.8392C26.9872 19.3646 27.0145 18.8521 26.7495 18.4335C26.4693 17.9892 25.9075 17.6951 25.3866 17.874C25.0717 17.9832 24.8309 18.3183 24.9429 18.6625C25.0429 18.9749 25.3897 19.2266 25.7258 19.1098C25.7803 19.0901 25.8 19.1068 25.6758 19.1038C25.7046 19.1038 25.7516 19.1159 25.6713 19.0962C25.5714 19.0704 25.6607 19.0992 25.6849 19.1038C25.75 19.1144 25.6319 19.0901 25.6289 19.0795C25.6304 19.0871 25.7001 19.1129 25.7016 19.125L25.6698 19.1023C25.6274 19.0689 25.6274 19.0719 25.6698 19.1098C25.6819 19.1341 25.6955 19.175 25.6743 19.1114C25.641 19.0113 25.6925 19.1462 25.6925 19.1553C25.6925 19.1477 25.6531 19.0173 25.6819 19.1493C25.688 19.1735 25.6925 19.2023 25.7001 19.2251C25.7304 19.313 25.697 19.1189 25.7001 19.2114C25.7001 19.2372 25.7046 19.263 25.7061 19.2903C25.7122 19.4343 25.7031 19.5799 25.6955 19.7225C25.6804 19.9909 25.6758 20.2608 25.6486 20.5277C25.6471 20.5474 25.644 20.5671 25.6425 20.5883C25.638 20.6732 25.6683 20.4534 25.6486 20.5368C25.638 20.5822 25.6319 20.6293 25.6213 20.6763C25.6107 20.7202 25.6001 20.7657 25.5865 20.8097C25.5804 20.8294 25.5729 20.8476 25.5668 20.8658C25.532 20.9841 25.6183 20.7824 25.5804 20.837C25.5698 20.8506 25.5153 20.9295 25.5153 20.9492C25.5123 20.8886 25.6077 20.8476 25.5502 20.9037C25.5426 20.9113 25.5017 20.9492 25.5017 20.9522C25.5017 20.9553 25.6138 20.8688 25.5608 20.9052C25.535 20.9234 25.4669 20.9477 25.5592 20.9143C25.6683 20.8779 25.5804 20.9098 25.5683 20.9098C25.4396 20.9068 25.6819 20.9219 25.5956 20.9113C25.5714 20.9083 25.4745 20.9083 25.5759 20.9143C25.6713 20.9219 25.5971 20.9098 25.5774 20.9098C25.4957 20.9052 25.5835 20.8491 25.6107 20.9249C25.6092 20.9189 25.5623 20.8961 25.5547 20.8931C25.4805 20.8597 25.635 20.9735 25.5789 20.9143C25.5638 20.8977 25.5456 20.8825 25.5305 20.8688C25.4381 20.787 25.5426 20.8946 25.5441 20.8961C25.5199 20.884 25.4972 20.8249 25.4851 20.8021C25.4775 20.79 25.4563 20.7581 25.4563 20.7445L25.482 20.7991L25.4669 20.749C25.4608 20.7172 25.4502 20.6808 25.4411 20.6475C25.4381 20.6353 25.423 20.5474 25.4366 20.6293C25.4502 20.7157 25.4366 20.605 25.4336 20.5822C25.4321 20.5565 25.4305 20.5307 25.4305 20.5034C25.4275 20.4321 25.429 20.3593 25.4321 20.2896C25.4366 20.1592 25.4472 20.0303 25.4593 19.8999C25.4608 19.8741 25.4639 19.8483 25.4669 19.8225C25.4775 19.6997 25.4639 19.821 25.4639 19.8407C25.4654 19.774 25.485 19.7043 25.5002 19.6406C25.5168 19.5663 25.5365 19.4935 25.5608 19.4222C25.5668 19.4025 25.5744 19.3676 25.5865 19.3525C25.5108 19.451 25.5759 19.3858 25.5971 19.3464C25.6077 19.3252 25.6213 19.3039 25.635 19.2812C25.7061 19.1493 25.5759 19.3343 25.6259 19.2857C25.6456 19.266 25.6637 19.2433 25.6834 19.2236C25.7334 19.175 25.7682 19.1887 25.6683 19.2266C25.7152 19.2084 25.7667 19.1644 25.8121 19.1371C25.8818 19.0962 25.8348 19.1644 25.7758 19.1538C25.7924 19.1568 25.8379 19.1356 25.856 19.1311C25.9666 19.0962 25.8167 19.1462 25.8076 19.1341C25.8121 19.1402 25.9 19.1341 25.9075 19.1341C25.9696 19.125 25.8454 19.1311 25.8379 19.1235C25.8576 19.128 25.8757 19.1341 25.8969 19.1402C25.9408 19.1553 25.9227 19.1477 25.8394 19.1144C26.1392 19.2584 26.5405 19.2084 26.7101 18.8854C26.86 18.5988 26.8025 18.1636 26.4814 18.0089L26.4799 18.0044Z" fill="black"/>
<mask id="mask1_164_81" style="mask-type:luminance" maskUnits="userSpaceOnUse" x="48" y="0" width="8" height="9">
<path d="M48.605 0.00952148H55.1951V8.42091H48.605V0.00952148Z" fill="white"/>
</mask>
<g mask="url(#mask1_164_81)">
<path d="M52.0772 0.0216214C52.7208 0.00494103 53.6006 0.115637 54.126 0.490184C54.65 0.861699 55.1254 1.78821 55.1345 2.43419C55.1451 3.07259 55.0331 3.56541 54.709 4.11586C53.8489 5.57614 52.6769 6.84687 51.2913 7.82039C51.1368 7.92957 50.9748 8.03571 50.7901 8.07211C50.3282 8.16006 49.8785 7.74153 49.8134 7.27449C49.7483 6.80896 49.9875 6.34494 50.3131 6.00527C50.6386 5.66712 51.0505 5.4245 51.4336 5.15155C51.8183 4.8786 52.1893 4.55713 52.3801 4.12799C52.5012 3.85352 52.5436 3.54418 52.4967 3.24849C52.4558 2.97705 52.3256 2.69804 52.0833 2.57066C51.6123 2.32198 51.0763 2.74656 50.734 3.15447C50.3903 3.56086 49.9375 4.03549 49.4242 3.89598C49.032 3.78832 48.817 3.33644 48.8412 2.93005C48.8669 2.52366 49.0744 2.15517 49.2743 1.80186C49.2743 1.80186 50.1162 0.0686294 52.0742 0.0216214H52.0772Z" fill="#5E4D5C"/>
</g>
<path d="M50.4539 8.95456C50.5084 9.10468 50.5599 9.34276 50.572 9.50198C50.6099 10.0175 50.301 10.433 49.8073 10.5877C49.6271 10.6438 49.4363 10.6544 49.2486 10.6575C48.979 10.6605 48.7292 10.565 48.4823 10.4543C48.2597 10.3542 48.0917 10.1434 48.022 10.0297C47.76 9.60964 47.7782 9.1896 48.022 8.76653C48.1462 8.54969 48.3612 8.31465 48.5929 8.22063C48.7292 8.16453 49.0154 8.07203 49.1622 8.09022C49.4802 8.12965 49.5575 8.15694 49.8376 8.31616C49.8376 8.31616 50.2919 8.51329 50.4539 8.95456Z" fill="#5E4D5C"/>
<path d="M50.1753 9.20032C50.1617 9.15938 50.1405 9.1154 50.1011 9.09721C50.0617 9.07901 50.0011 9.10479 50.0057 9.14877C49.9709 9.16241 49.9254 9.33073 49.9436 9.45204C49.9542 9.5218 50.0269 9.66585 50.0617 9.72802C50.0723 9.74319 50.0844 9.75835 50.1011 9.76442C50.1435 9.77806 50.1783 9.72499 50.1904 9.68102C50.2328 9.52331 50.2283 9.35348 50.1753 9.20032Z" fill="white"/>
<path d="M50.3811 9.14409C50.3584 9.0804 50.3342 9.02884 50.2903 8.97729C50.2388 8.91663 50.1631 8.88479 50.0859 8.87872C49.9329 8.86659 49.7891 8.99548 49.7906 9.15015C49.8269 9.08798 49.8617 9.02733 49.8966 8.96516C49.8269 8.99852 49.7891 9.07737 49.7648 9.14409C49.7436 9.20171 49.7361 9.26237 49.7285 9.32151C49.7209 9.38519 49.724 9.4504 49.7361 9.51409C49.7467 9.56868 49.7724 9.62023 49.7936 9.67179C49.8436 9.78855 49.9072 9.93716 50.0419 9.97204C50.1661 10.0024 50.2842 9.94474 50.3524 9.84011C50.3887 9.78097 50.4054 9.71273 50.416 9.64601C50.4417 9.47921 50.4357 9.30786 50.3811 9.14409C50.3448 9.03946 50.2327 8.95757 50.1177 8.99548C50.0132 9.02884 49.9299 9.14561 49.9693 9.25933C49.9859 9.30786 49.998 9.35942 50.0041 9.40946L49.998 9.35183C50.0071 9.42765 50.0071 9.50196 49.998 9.57778L50.0041 9.52167C49.998 9.56564 49.9905 9.61114 49.9738 9.65208L49.9965 9.60052C49.9905 9.61114 49.9844 9.62175 49.9768 9.63236L50.0117 9.58839C50.0056 9.59446 49.9995 9.60052 49.9935 9.60659L50.0359 9.57323C50.0359 9.57323 50.0283 9.57778 50.0223 9.58081L50.0737 9.55806L50.0662 9.55958L50.1237 9.55351C50.1237 9.55351 50.1131 9.55351 50.1071 9.55351L50.1646 9.55958L50.1555 9.55806L50.207 9.58081C50.2009 9.57778 50.1949 9.57474 50.1919 9.57171L50.2343 9.60507C50.2343 9.60507 50.2252 9.59749 50.2221 9.59142L50.2555 9.6354C50.2161 9.58081 50.1888 9.5156 50.1631 9.45495L50.1843 9.50651C50.1707 9.47163 50.154 9.43372 50.1479 9.39581L50.1555 9.45192C50.1495 9.40642 50.151 9.36245 50.157 9.31696L50.1495 9.37306C50.1555 9.3306 50.1646 9.28815 50.1813 9.24872L50.1585 9.30028C50.1631 9.28966 50.1676 9.27905 50.1752 9.26995L50.1404 9.31241C50.1404 9.31241 50.1464 9.30634 50.1495 9.30483L50.1071 9.33819C50.1071 9.33819 50.1101 9.33515 50.1116 9.33515C50.1782 9.30331 50.2191 9.21991 50.2176 9.15015V9.14257C50.2146 9.16229 50.2115 9.18048 50.21 9.19868C50.21 9.19413 50.2115 9.18958 50.2131 9.18503L50.1919 9.23659C50.1919 9.23659 50.1949 9.22901 50.1979 9.22597L50.1646 9.26843C50.1646 9.26843 50.1707 9.26085 50.1752 9.25933L50.1328 9.29269C50.1328 9.29269 50.1404 9.28815 50.1464 9.28511L50.0949 9.30786C50.1025 9.30483 50.1101 9.30179 50.1161 9.30179L50.0601 9.30786C50.0692 9.30786 50.0753 9.30786 50.0828 9.30786L50.0268 9.30179C50.0268 9.30179 50.0374 9.30331 50.0419 9.30483L49.9905 9.2836C49.995 9.28511 50.0011 9.28815 50.0056 9.29269L49.9632 9.25933C49.9723 9.26692 49.9799 9.2745 49.9889 9.28511L49.9556 9.24265C49.9647 9.2563 49.9723 9.26995 49.9783 9.2836L49.9571 9.23204C49.9602 9.23962 49.9632 9.25024 49.9662 9.25782C49.9859 9.31241 50.0147 9.35638 50.0662 9.38671C50.1116 9.41401 50.1782 9.42462 50.2297 9.40794C50.3342 9.37458 50.4205 9.25782 50.3796 9.14409H50.3811Z" fill="white"/>
<path d="M54.2608 1.11485C54.1396 1.10423 54.0049 1.13304 53.9488 1.24222C53.911 1.31501 53.911 1.40296 53.914 1.48484C53.9231 2.05804 53.9519 2.64943 53.7474 3.18471C53.6081 3.55016 53.3583 3.90348 53.4082 4.29167C53.4264 4.44028 53.5021 4.59495 53.6414 4.65105C53.7505 4.69655 53.8777 4.67077 53.9852 4.61921C54.3138 4.46454 54.494 4.10667 54.5954 3.75942C54.8211 2.99516 54.7832 2.1566 54.4894 1.41661C54.4894 1.41661 54.3743 1.12394 54.2608 1.11485Z" fill="white"/>
<mask id="mask2_164_81" style="mask-type:luminance" maskUnits="userSpaceOnUse" x="53" y="7" width="6" height="7">
<path d="M53.6444 7.64441H58.955V13.4673H53.6444V7.64441Z" fill="white"/>
</mask>
<g mask="url(#mask2_164_81)">
<path d="M57.2302 8.05836C57.686 8.21 58.2751 8.51024 58.5507 8.9045C58.8248 9.29876 58.9247 10.0691 58.7703 10.524C58.6158 10.9744 58.4144 11.2913 58.048 11.5976C57.0773 12.4043 55.934 13.0018 54.7165 13.3354C54.5818 13.3718 54.4394 13.4066 54.3016 13.3854C53.9549 13.3323 53.7444 12.9244 53.8156 12.5802C53.8882 12.2375 54.1729 11.9721 54.4864 11.816C54.8013 11.6613 55.1511 11.5946 55.4888 11.499C55.8265 11.405 56.1672 11.2731 56.4095 11.0183C56.564 10.8576 56.6715 10.6499 56.7139 10.4315C56.7532 10.2298 56.732 10.0024 56.5942 9.85072C56.3262 9.55806 55.8432 9.72032 55.4994 9.92048C55.1572 10.1191 54.7181 10.339 54.394 10.1115C54.1457 9.93716 54.1093 9.56564 54.2274 9.28815C54.3471 9.00913 54.5863 8.80139 54.8165 8.60426C54.8165 8.60426 55.8432 7.60041 57.2302 8.06139V8.05836Z" fill="#5E4D5C"/>
</g>
<path d="M53.431 13.8464C53.431 13.9647 53.4068 14.1452 53.3765 14.2604C53.2735 14.6319 52.951 14.8457 52.5648 14.8291C52.424 14.8215 52.2877 14.7821 52.156 14.7366C51.9652 14.6698 51.8137 14.5409 51.6684 14.3999C51.5381 14.2741 51.473 14.083 51.4533 13.9875C51.3746 13.6266 51.4942 13.3354 51.7713 13.0989C51.9137 12.9791 52.1242 12.8684 52.3089 12.8608C52.4194 12.8547 52.6436 12.8623 52.742 12.9123C52.957 13.02 53.004 13.0594 53.1599 13.2414C53.1599 13.2414 53.4295 13.4946 53.431 13.8449V13.8464Z" fill="#5E4D5C"/>
<path d="M23.1424 39.6174C22.9592 40.7182 23.1288 41.8358 23.2348 42.9367C23.3469 44.1149 23.4756 45.2901 23.6194 46.4638C23.9056 48.7991 24.2509 51.1267 24.6522 53.4468C24.7945 54.2596 26.0302 53.9138 25.8893 53.1056C25.5077 50.8993 25.1746 48.6853 24.902 46.4653C24.7673 45.3599 24.6461 44.2545 24.5371 43.146C24.4371 42.1209 24.21 40.9851 24.3796 39.9601C24.5159 39.1503 23.2787 38.8031 23.1424 39.6189V39.6174Z" fill="#FFA59B"/>
<mask id="mask3_164_81" style="mask-type:luminance" maskUnits="userSpaceOnUse" x="20" y="52" width="7" height="4">
<path d="M20.3062 52.675H26.121V55.6184H20.3062V52.675Z" fill="white"/>
</mask>
<g mask="url(#mask3_164_81)">
<path d="M25.1957 52.8874C24.2508 52.8085 23.2847 52.7888 22.3625 53.0406C21.6356 53.2392 19.9245 53.9261 20.4727 54.9527C20.7256 55.4289 21.2737 55.5138 21.7598 55.5623C22.2535 55.6108 22.7517 55.5577 23.2362 55.4653C23.6739 55.3818 24.1009 55.2499 24.5188 55.0983C24.9368 54.9451 25.3002 54.8087 25.597 54.472C25.7787 54.2673 25.921 54.052 25.9407 53.773C25.9725 53.3787 25.6984 53.0451 25.3244 52.9556C25.064 52.8935 24.7853 52.9556 24.5355 53.0315C24.4461 53.0587 24.3568 53.0906 24.2674 53.1179C24.2205 53.1331 24.1705 53.1421 24.1236 53.1573C23.9949 53.2013 24.219 53.1573 24.0872 53.1649C23.7526 53.1816 23.4285 53.45 23.4452 53.8078C23.4588 54.1414 23.7269 54.466 24.0872 54.4493C24.3083 54.4387 24.5173 54.3871 24.7278 54.3189C24.8156 54.2901 24.905 54.2597 24.9928 54.2355C25.0306 54.2264 25.0685 54.2203 25.1064 54.2082C25.0306 54.2157 25.017 54.2173 25.064 54.2142C25.1366 54.2142 25.0973 54.1991 24.9443 54.1748L24.7142 53.9443C24.7884 53.5182 24.7838 53.3893 24.6975 53.5516C24.6596 53.6062 24.6627 53.6031 24.7081 53.5425C24.6657 53.5895 24.6188 53.635 24.5748 53.682C24.5536 53.7002 24.534 53.7184 24.5128 53.7366C24.5779 53.688 24.5824 53.6835 24.5279 53.7214C24.4779 53.7487 24.4825 53.7487 24.543 53.7199C24.5067 53.7335 24.4719 53.7472 24.434 53.7608C24.0797 53.8973 23.7193 54.0217 23.3528 54.1202C23.0045 54.2127 22.6987 54.2703 22.3746 54.2885C22.1944 54.2976 22.0157 54.2961 21.837 54.281C21.8567 54.284 21.6175 54.2537 21.7008 54.2673C21.6493 54.2582 21.5993 54.2491 21.5478 54.2385C21.4782 54.2157 21.4751 54.2203 21.5402 54.2491C21.4751 54.2097 21.4721 54.2127 21.5342 54.2552C21.41 54.7814 21.4282 54.9694 21.5887 54.8193C21.6175 54.795 21.619 54.7935 21.5917 54.8117C21.6296 54.7844 21.6674 54.7571 21.7068 54.7313C21.8416 54.6388 21.9839 54.5554 22.1308 54.4826C22.3413 54.3795 22.6775 54.2749 22.9788 54.2097C23.6769 54.0641 24.4628 54.1081 25.1972 54.1687C25.5319 54.1976 25.8529 53.8548 25.8393 53.5273C25.8211 53.1558 25.5561 52.9147 25.1972 52.8844L25.1957 52.8874Z" fill="#FFA59B"/>
</g>
<path d="M36.1288 39.9586C36.3014 40.9852 36.0728 42.1195 35.9713 43.1445C35.8638 44.253 35.7411 45.3584 35.6064 46.4639C35.3353 48.6854 35.0022 50.8993 34.6191 53.1041C34.4782 53.9124 35.7139 54.2596 35.8562 53.4453C36.259 51.1268 36.6043 48.7991 36.8905 46.4624C37.0298 45.3236 37.154 44.1833 37.266 43.0399C37.3751 41.9072 37.5553 40.7486 37.366 39.6159C37.2297 38.8031 35.994 39.1489 36.1288 39.9571V39.9586Z" fill="#FFA59B"/>
<mask id="mask4_164_81" style="mask-type:luminance" maskUnits="userSpaceOnUse" x="34" y="52" width="7" height="4">
<path d="M34.2617 52.675H40.4642V55.6184H34.2617V52.675Z" fill="white"/>
</mask>
<g mask="url(#mask4_164_81)">
<path d="M35.3126 54.1718C36.0485 54.1111 36.8329 54.0671 37.531 54.2127C37.8339 54.2749 38.1655 54.3795 38.379 54.4857C38.5259 54.5569 38.6682 54.6388 38.803 54.7328C38.7954 54.7268 38.9756 54.8481 38.8984 54.8026C39.0725 54.9754 39.0983 54.7935 38.9756 54.2582C39.0362 54.2157 39.0347 54.2127 38.9696 54.2521C39.0316 54.2233 39.0286 54.2203 38.9605 54.2415C38.9226 54.2506 38.8848 54.2567 38.8469 54.2643C38.806 54.2703 38.7545 54.2779 38.6728 54.284C38.4926 54.2976 38.3139 54.3007 38.1352 54.2916C37.8051 54.2734 37.5053 54.2142 37.157 54.1232C36.8072 54.0323 36.4543 53.9094 36.1106 53.779C36.0622 53.7593 36.0137 53.7411 35.9652 53.7229C36.0258 53.7517 36.0319 53.7517 35.9804 53.7244C35.8774 53.6759 36.041 53.7942 35.9562 53.7047C35.9047 53.6516 35.8502 53.6016 35.8002 53.5455C35.8456 53.6077 35.8486 53.6107 35.8108 53.5561C35.7245 53.3923 35.7199 53.5227 35.7956 53.9473C35.7184 54.0247 35.6427 54.1005 35.564 54.1793L35.4216 54.2173C35.4807 54.2218 35.4852 54.2203 35.4368 54.2157C35.3944 54.2097 35.3928 54.2112 35.4307 54.2188C35.4504 54.2233 35.4686 54.2263 35.4867 54.2324C35.5867 54.2567 35.6836 54.2916 35.7805 54.3219C35.991 54.3901 36.1984 54.4432 36.4225 54.4538C36.7572 54.469 37.0782 54.1475 37.0646 53.8109C37.0479 53.45 36.7814 53.1861 36.4225 53.1694C36.3059 53.1634 36.4195 53.1694 36.4407 53.174C36.3923 53.1634 36.3453 53.1527 36.2999 53.1391C36.2196 53.1164 36.1409 53.0891 36.0622 53.0648C35.8623 52.9996 35.6578 52.942 35.4458 52.9344C34.7599 52.9101 34.3389 53.6168 34.7038 54.2051C34.9325 54.5736 35.2641 54.8223 35.6609 54.977C36.0879 55.1438 36.5225 55.2939 36.9692 55.4015C37.4235 55.5122 37.8975 55.585 38.3669 55.5835C38.8469 55.5835 39.4738 55.5547 39.8448 55.2044C40.0341 55.027 40.1371 54.7935 40.131 54.5327C40.1219 54.1809 39.8812 53.9504 39.6207 53.7532C39.2664 53.4818 38.8711 53.2862 38.4517 53.1391C37.4492 52.7858 36.3574 52.804 35.3126 52.8919C34.9794 52.9192 34.6539 53.1679 34.6705 53.5334C34.6857 53.8579 34.9537 54.2051 35.3126 54.1748V54.1718Z" fill="#FFA59B"/>
</g>
</g>
<defs>
<clipPath id="clip0_164_81">
<rect width="59" height="56" fill="white"/>
</clipPath>
</defs>
</svg>
