<svg width="27" height="27" viewBox="0 0 27 27" fill="none" xmlns="http://www.w3.org/2000/svg">
<path d="M13.5 10.7222C14.1384 10.7222 14.7705 10.5965 15.3603 10.3522C15.95 10.1079 16.4859 9.74983 16.9373 9.29844C17.3887 8.84704 17.7468 8.31115 17.9911 7.72138C18.2354 7.1316 18.3611 6.49948 18.3611 5.86111C18.3611 5.22274 18.2354 4.59062 17.9911 4.00084C17.7468 3.41107 17.3887 2.87518 16.9373 2.42379C16.4859 1.97239 15.95 1.61432 15.3603 1.37003C14.7705 1.12574 14.1384 1 13.5 1C12.2108 1 10.9743 1.51215 10.0627 2.42379C9.15104 3.33542 8.63889 4.57186 8.63889 5.86111C8.63889 7.15036 9.15104 8.3868 10.0627 9.29844C10.9743 10.2101 12.2108 10.7222 13.5 10.7222ZM1 25.1667V26H26V25.1667C26 22.0556 26 20.5 25.3944 19.3111C24.8618 18.2658 24.012 17.416 22.9667 16.8833C21.7778 16.2778 20.2222 16.2778 17.1111 16.2778H9.88889C6.77778 16.2778 5.22222 16.2778 4.03333 16.8833C2.98803 17.416 2.13818 18.2658 1.60556 19.3111C1 20.5 1 22.0556 1 25.1667Z" fill="#0262FF" stroke="#0262FF" stroke-width="2" stroke-linecap="round" stroke-linejoin="round"/>
</svg>
