<svg width="27" height="30" viewBox="0 0 27 30" fill="none" xmlns="http://www.w3.org/2000/svg">
<path d="M13.5 11.5422C14.1384 11.5422 14.7705 11.4058 15.3603 11.1409C15.95 10.876 16.4859 10.4878 16.9373 9.9983C17.3887 9.50884 17.7468 8.92776 17.9911 8.28824C18.2354 7.64872 18.3611 6.96329 18.3611 6.27108C18.3611 5.57888 18.2354 4.89344 17.9911 4.25393C17.7468 3.61441 17.3887 3.03333 16.9373 2.54387C16.4859 2.0544 15.95 1.66613 15.3603 1.40124C14.7705 1.13634 14.1384 1 13.5 1C12.2108 1 10.9743 1.55535 10.0627 2.54387C9.15104 3.53239 8.63889 4.87311 8.63889 6.27108C8.63889 7.66906 9.15104 9.00978 10.0627 9.9983C10.9743 10.9868 12.2108 11.5422 13.5 11.5422ZM1 27.2048V28.1084H26V27.2048C26 23.8313 26 22.1446 25.3944 20.8554C24.8618 19.722 24.012 18.8004 22.9667 18.2229C21.7778 17.5663 20.2222 17.5663 17.1111 17.5663H9.88889C6.77778 17.5663 5.22222 17.5663 4.03333 18.2229C2.98803 18.8004 2.13818 19.722 1.60556 20.8554C1 22.1446 1 23.8313 1 27.2048Z" fill="#00BEFF" stroke="#00BEFF" stroke-width="2" stroke-linecap="round" stroke-linejoin="round"/>
</svg>
