<svg width="22" height="21" viewBox="0 0 22 21" fill="none" xmlns="http://www.w3.org/2000/svg">
<path d="M17.17 15.3263C15.5383 16.3849 13.5514 16.9715 11.5 17C4.81818 17 1 10.5 1 10.5C2.18735 8.61655 3.83417 6.97101 5.83 5.67377M9.49545 4.19502C10.1525 4.06411 10.8252 3.99867 11.5 4.00002C18.1818 4.00002 22 10.5 22 10.5C21.4206 11.4227 20.7296 12.2914 19.9382 13.0919M13.5236 12.2225C13.2615 12.462 12.9453 12.6541 12.5941 12.7873C12.2428 12.9205 11.8636 12.9922 11.4791 12.9979C11.0946 13.0037 10.7127 12.9435 10.3561 12.8209C9.99951 12.6983 9.6756 12.5158 9.40367 12.2844C9.13175 12.0529 8.91737 11.7772 8.77335 11.4737C8.62932 11.1702 8.55859 10.8451 8.56538 10.5178C8.57216 10.1905 8.65632 9.86776 8.81284 9.56876C8.96935 9.26977 9.19501 9.00066 9.47636 8.77751" stroke="#0262FF" stroke-width="2" stroke-linecap="round" stroke-linejoin="round"/>
<path d="M1 1L22 20" stroke="#0262FF" stroke-width="2" stroke-linecap="round" stroke-linejoin="round"/>
</svg>
