<svg width="24" height="22" viewBox="0 0 24 22" fill="none" xmlns="http://www.w3.org/2000/svg">
<path d="M17.2288 15.3783C15.5912 16.4409 13.5971 17.0295 11.5382 17.0582C4.83207 17.0582 1 10.5345 1 10.5345C2.19167 8.64424 3.84448 6.99271 5.84756 5.69075M9.52635 4.20662C10.1858 4.07524 10.8609 4.00956 11.5382 4.01092C18.2443 4.01092 22.0764 10.5345 22.0764 10.5345C21.4948 11.4606 20.8013 12.3324 20.007 13.1358M13.5692 12.2633C13.3061 12.5037 12.9888 12.6964 12.6362 12.8301C12.2837 12.9639 11.9031 13.0357 11.5172 13.0415C11.1313 13.0473 10.748 12.9869 10.3901 12.8639C10.0322 12.7408 9.70715 12.5577 9.43423 12.3254C9.16132 12.0931 8.94617 11.8164 8.80162 11.5118C8.65707 11.2072 8.58608 10.8809 8.59289 10.5524C8.5997 10.2239 8.68416 9.89999 8.84125 9.59991C8.99833 9.29982 9.22481 9.02974 9.50719 8.80578" stroke="#00BEFF" stroke-width="2" stroke-linecap="round" stroke-linejoin="round"/>
<path d="M1 1L22.0764 20.0691" stroke="#00BEFF" stroke-width="2" stroke-linecap="round" stroke-linejoin="round"/>
</svg>
