<svg width="21" height="21" viewBox="0 0 21 21" fill="none" xmlns="http://www.w3.org/2000/svg">
<path d="M14 1.75C14.2143 1.75003 14.4212 1.82871 14.5813 1.97113C14.7415 2.11354 14.8438 2.30978 14.8689 2.52262L14.875 2.625V3.5H15.75C16.4196 3.49996 17.0638 3.75578 17.551 4.21512C18.0381 4.67446 18.3313 5.30259 18.3706 5.971L18.375 6.125V16.625C18.375 17.2946 18.1192 17.9388 17.6599 18.426C17.2005 18.9131 16.5724 19.2063 15.904 19.2456L15.75 19.25H5.25C4.58044 19.25 3.93617 18.9942 3.44902 18.5349C2.96187 18.0755 2.66866 17.4474 2.62938 16.779L2.625 16.625V6.125C2.62496 5.45544 2.88078 4.81117 3.34012 4.32402C3.79946 3.83687 4.42759 3.54366 5.096 3.50438L5.25 3.5H6.125V2.625C6.12525 2.40198 6.21064 2.18747 6.36374 2.0253C6.51684 1.86313 6.72608 1.76554 6.94872 1.75247C7.17136 1.7394 7.39058 1.81184 7.5616 1.95498C7.73262 2.09812 7.84253 2.30117 7.86888 2.52262L7.875 2.625V3.5H13.125V2.625C13.125 2.39294 13.2172 2.17038 13.3813 2.00628C13.5454 1.84219 13.7679 1.75 14 1.75ZM16.625 7.875H4.375V16.2969C4.375 16.9137 4.71275 17.4221 5.14762 17.4921L5.25 17.5H15.75C16.1989 17.5 16.569 17.0362 16.6189 16.4369L16.625 16.2969V7.875Z" fill="#0262FF"/>
<path d="M10.5 10.5C10.7143 10.5 10.9212 10.5787 11.0813 10.7211C11.2415 10.8635 11.3438 11.0598 11.3689 11.2726L11.375 11.375V14C11.3748 14.223 11.2894 14.4375 11.1363 14.5997C10.9832 14.7619 10.7739 14.8595 10.5513 14.8725C10.3287 14.8856 10.1094 14.8132 9.9384 14.67C9.76738 14.5269 9.65747 14.3238 9.63113 14.1024L9.62501 14V12.25C9.40199 12.2498 9.18748 12.1644 9.02531 12.0113C8.86314 11.8582 8.76555 11.6489 8.75248 11.4263C8.73941 11.2036 8.81185 10.9844 8.95499 10.8134C9.09813 10.6424 9.30117 10.5325 9.52263 10.5061L9.62501 10.5H10.5Z" fill="#0262FF"/>
</svg>
