<svg xmlns="http://www.w3.org/2000/svg" xmlns:xlink="http://www.w3.org/1999/xlink" width="133" zoomAndPan="magnify" viewBox="0 0 99.75 99.749996" height="133" preserveAspectRatio="xMidYMid meet" version="1.2"><defs><clipPath id="3fa5269454"><path d="M 0 0 L 99.5 0 L 99.5 99.5 L 0 99.5 Z M 0 0 "/></clipPath><clipPath id="b548fb4ca7"><path d="M 49.75 0 C 22.273438 0 0 22.273438 0 49.75 C 0 77.226562 22.273438 99.5 49.75 99.5 C 77.226562 99.5 99.5 77.226562 99.5 49.75 C 99.5 22.273438 77.226562 0 49.75 0 Z M 49.75 0 "/></clipPath><clipPath id="43a37c2655"><path d="M 0 0 L 99.5 0 L 99.5 99.5 L 0 99.5 Z M 0 0 "/></clipPath><clipPath id="117a4b7e72"><path d="M 49.75 0 C 22.273438 0 0 22.273438 0 49.75 C 0 77.226562 22.273438 99.5 49.75 99.5 C 77.226562 99.5 99.5 77.226562 99.5 49.75 C 99.5 22.273438 77.226562 0 49.75 0 Z M 49.75 0 "/></clipPath><clipPath id="1a45448640"><rect x="0" width="100" y="0" height="100"/></clipPath><clipPath id="70295294a9"><path d="M 16.085938 20 L 83.414062 20 L 83.414062 81 L 16.085938 81 Z M 16.085938 20 "/></clipPath><clipPath id="77874a1e54"><path d="M 43 9.949219 L 57 9.949219 L 57 22 L 43 22 Z M 43 9.949219 "/></clipPath></defs><g id="dd538c713b"><g clip-rule="nonzero" clip-path="url(#3fa5269454)"><g clip-rule="nonzero" clip-path="url(#b548fb4ca7)"><g transform="matrix(1,0,0,1,-0,-0.000000000000003885)"><g clip-path="url(#1a45448640)"><g clip-rule="nonzero" clip-path="url(#43a37c2655)"><g clip-rule="nonzero" clip-path="url(#117a4b7e72)"><path style=" stroke:none;fill-rule:nonzero;fill:#eb9fff;fill-opacity:1;" d="M 0 0 L 99.5 0 L 99.5 99.5 L 0 99.5 Z M 0 0 "/></g></g></g></g></g></g><g clip-rule="nonzero" clip-path="url(#70295294a9)"><path style=" stroke:none;fill-rule:nonzero;fill:#fdf384;fill-opacity:1;" d="M 83.386719 60.054688 C 83.386719 38.328125 68.332031 20.71875 49.765625 20.71875 C 31.195312 20.71875 16.140625 38.328125 16.140625 60.054688 C 16.140625 81.777344 31.195312 80.09375 49.761719 80.09375 C 68.332031 80.09375 83.386719 81.78125 83.386719 60.054688 Z M 83.386719 60.054688 "/></g><g clip-rule="nonzero" clip-path="url(#77874a1e54)"><path style=" stroke:none;fill-rule:nonzero;fill:#fbb465;fill-opacity:1;" d="M 45.476562 21.382812 C 47.128906 21.09375 48.820312 20.9375 50.542969 20.9375 C 51.984375 20.9375 53.40625 21.046875 54.800781 21.253906 C 55.949219 20.300781 56.4375 18.988281 55.894531 18.136719 C 55.535156 17.578125 54.804688 17.34375 53.964844 17.425781 C 54 15.867188 53.257812 14.488281 51.976562 14.015625 C 51.59375 13.878906 51.195312 13.828125 50.800781 13.863281 C 50.257812 11.574219 48.863281 9.949219 47.230469 9.949219 C 45.121094 9.949219 43.410156 12.660156 43.410156 16.003906 C 43.410156 18.347656 44.25 20.375 45.476562 21.382812 Z M 45.476562 21.382812 "/></g><path style=" stroke:none;fill-rule:nonzero;fill:#fbb465;fill-opacity:1;" d="M 52.457031 57.667969 C 52.457031 59.898438 50.722656 60.863281 48.585938 60.863281 C 46.445312 60.863281 44.710938 59.898438 44.710938 57.667969 C 44.710938 55.441406 46.445312 53.628906 48.585938 53.628906 C 50.722656 53.628906 52.457031 55.4375 52.457031 57.667969 Z M 52.457031 57.667969 "/><path style=" stroke:none;fill-rule:nonzero;fill:#282828;fill-opacity:1;" d="M 40.671875 52.398438 C 40.671875 52.746094 40.613281 53.082031 40.5 53.40625 C 40.386719 53.726562 40.226562 54.011719 40.015625 54.261719 C 39.804688 54.507812 39.5625 54.699219 39.285156 54.832031 C 39.011719 54.964844 38.722656 55.03125 38.425781 55.03125 C 38.128906 55.03125 37.839844 54.964844 37.566406 54.832031 C 37.292969 54.699219 37.046875 54.507812 36.835938 54.261719 C 36.628906 54.011719 36.464844 53.726562 36.351562 53.40625 C 36.238281 53.082031 36.179688 52.746094 36.179688 52.398438 C 36.179688 52.046875 36.238281 51.710938 36.351562 51.390625 C 36.464844 51.066406 36.628906 50.78125 36.835938 50.535156 C 37.046875 50.289062 37.292969 50.097656 37.566406 49.964844 C 37.839844 49.828125 38.128906 49.761719 38.425781 49.761719 C 38.722656 49.761719 39.011719 49.828125 39.285156 49.964844 C 39.5625 50.097656 39.804688 50.289062 40.015625 50.535156 C 40.226562 50.78125 40.386719 51.066406 40.5 51.390625 C 40.613281 51.710938 40.671875 52.046875 40.671875 52.398438 Z M 40.671875 52.398438 "/><path style=" stroke:none;fill-rule:nonzero;fill:#282828;fill-opacity:1;" d="M 61.28125 52.398438 C 61.28125 52.746094 61.222656 53.082031 61.109375 53.40625 C 60.996094 53.726562 60.832031 54.011719 60.621094 54.261719 C 60.414062 54.507812 60.167969 54.699219 59.894531 54.832031 C 59.617188 54.964844 59.332031 55.03125 59.035156 55.03125 C 58.738281 55.03125 58.449219 54.964844 58.175781 54.832031 C 57.898438 54.699219 57.65625 54.507812 57.445312 54.261719 C 57.234375 54.011719 57.074219 53.726562 56.960938 53.40625 C 56.84375 53.082031 56.789062 52.746094 56.789062 52.398438 C 56.789062 52.046875 56.84375 51.710938 56.960938 51.390625 C 57.074219 51.066406 57.234375 50.78125 57.445312 50.535156 C 57.65625 50.289062 57.898438 50.097656 58.175781 49.964844 C 58.449219 49.828125 58.738281 49.761719 59.035156 49.761719 C 59.332031 49.761719 59.617188 49.828125 59.894531 49.964844 C 60.167969 50.097656 60.414062 50.289062 60.621094 50.535156 C 60.832031 50.78125 60.996094 51.066406 61.109375 51.390625 C 61.222656 51.710938 61.28125 52.046875 61.28125 52.398438 Z M 61.28125 52.398438 "/></g></svg>