<svg xmlns="http://www.w3.org/2000/svg" xmlns:xlink="http://www.w3.org/1999/xlink" width="133" zoomAndPan="magnify" viewBox="0 0 99.75 99.749996" height="133" preserveAspectRatio="xMidYMid meet" version="1.2"><defs><clipPath id="ea5dab814e"><path d="M 0 0 L 99.5 0 L 99.5 99.5 L 0 99.5 Z M 0 0 "/></clipPath><clipPath id="5b28ea0964"><path d="M 49.75 0 C 22.273438 0 0 22.273438 0 49.75 C 0 77.226562 22.273438 99.5 49.75 99.5 C 77.226562 99.5 99.5 77.226562 99.5 49.75 C 99.5 22.273438 77.226562 0 49.75 0 Z M 49.75 0 "/></clipPath><clipPath id="099b2fa238"><path d="M 0 0 L 99.5 0 L 99.5 99.5 L 0 99.5 Z M 0 0 "/></clipPath><clipPath id="678ef3d947"><path d="M 49.75 0 C 22.273438 0 0 22.273438 0 49.75 C 0 77.226562 22.273438 99.5 49.75 99.5 C 77.226562 99.5 99.5 77.226562 99.5 49.75 C 99.5 22.273438 77.226562 0 49.75 0 Z M 49.75 0 "/></clipPath><clipPath id="4f88c1643e"><rect x="0" width="100" y="0" height="100"/></clipPath><clipPath id="001dc6eb8a"><path d="M 19 23 L 81 23 L 81 80.6875 L 19 80.6875 Z M 19 23 "/></clipPath></defs><g id="ce383532d4"><g clip-rule="nonzero" clip-path="url(#ea5dab814e)"><g clip-rule="nonzero" clip-path="url(#5b28ea0964)"><g transform="matrix(1,0,0,1,-0,-0.000000000000003885)"><g clip-path="url(#4f88c1643e)"><g clip-rule="nonzero" clip-path="url(#099b2fa238)"><g clip-rule="nonzero" clip-path="url(#678ef3d947)"><path style=" stroke:none;fill-rule:nonzero;fill:#e89e8a;fill-opacity:1;" d="M 0 0 L 99.5 0 L 99.5 99.5 L 0 99.5 Z M 0 0 "/></g></g></g></g></g></g><path style=" stroke:none;fill-rule:evenodd;fill:#807b78;fill-opacity:1;" d="M 37.640625 29.136719 C 37.640625 29.136719 35.007812 21.453125 27.851562 19.589844 C 24.039062 18.59375 19.109375 21.195312 17.679688 26.285156 C 16.09375 31.957031 24.089844 37.300781 28.027344 37.222656 C 31.261719 37.15625 35.089844 36.042969 35.089844 36.042969 Z M 37.640625 29.136719 "/><path style=" stroke:none;fill-rule:evenodd;fill:#807b78;fill-opacity:1;" d="M 61.851562 29.136719 C 61.851562 29.136719 64.484375 21.453125 71.640625 19.589844 C 75.453125 18.59375 80.382812 21.195312 81.8125 26.285156 C 83.398438 31.957031 75.402344 37.300781 71.464844 37.222656 C 68.230469 37.15625 64.402344 36.042969 64.402344 36.042969 Z M 61.851562 29.136719 "/><path style=" stroke:none;fill-rule:evenodd;fill:#353535;fill-opacity:1;" d="M 32.96875 29.554688 C 32.96875 29.554688 31.886719 24.75 27.890625 23.707031 C 25.761719 23.148438 23.539062 24.535156 22.777344 27.390625 C 21.433594 32.433594 27.210938 33.355469 28.671875 33.425781 C 30.480469 33.507812 32.96875 29.554688 32.96875 29.554688 Z M 32.96875 29.554688 "/><path style=" stroke:none;fill-rule:evenodd;fill:#353535;fill-opacity:1;" d="M 66.519531 29.554688 C 66.519531 29.554688 67.601562 24.75 71.597656 23.707031 C 73.726562 23.148438 75.949219 24.535156 76.710938 27.390625 C 78.050781 32.433594 72.277344 33.355469 70.816406 33.425781 C 69.007812 33.507812 66.519531 29.554688 66.519531 29.554688 Z M 66.519531 29.554688 "/><g clip-rule="nonzero" clip-path="url(#001dc6eb8a)"><path style=" stroke:none;fill-rule:evenodd;fill:#e4e4e4;fill-opacity:1;" d="M 22.28125 54.617188 C 22.148438 53.5 22.082031 52.367188 22.082031 51.222656 C 22.082031 35.746094 34.457031 23.175781 49.703125 23.175781 C 64.945312 23.175781 77.320312 35.742188 77.320312 51.222656 C 77.320312 52.367188 77.25 53.5 77.121094 54.617188 C 79.15625 57.035156 80.300781 59.753906 80.300781 62.632812 C 80.300781 72.59375 66.589844 80.683594 49.707031 80.683594 C 32.824219 80.683594 19.109375 72.597656 19.109375 62.632812 C 19.101562 59.75 20.246094 57.027344 22.28125 54.617188 Z M 22.28125 54.617188 "/></g><path style=" stroke:none;fill-rule:evenodd;fill:#807b78;fill-opacity:1;" d="M 43.871094 42.242188 C 47.527344 44.523438 48.382812 50.480469 44.242188 55.289062 C 39.457031 60.847656 33.113281 62.679688 29.65625 59.953125 C 26.382812 57.371094 26.894531 49.394531 30.910156 44.476562 C 34.921875 39.5625 40.191406 39.9375 43.871094 42.242188 Z M 43.871094 42.242188 "/><path style=" stroke:none;fill-rule:evenodd;fill:#807b78;fill-opacity:1;" d="M 55.351562 42.242188 C 51.695312 44.523438 50.839844 50.480469 54.980469 55.289062 C 59.765625 60.847656 66.109375 62.679688 69.566406 59.953125 C 72.839844 57.371094 72.328125 49.394531 68.3125 44.476562 C 64.296875 39.5625 59.03125 39.9375 55.351562 42.242188 Z M 55.351562 42.242188 "/><path style=" stroke:none;fill-rule:evenodd;fill:#ffffff;fill-opacity:1;" d="M 43.929688 46.886719 C 43.929688 44.328125 41.855469 42.257812 39.289062 42.257812 C 36.722656 42.257812 34.644531 44.332031 34.644531 46.886719 L 34.644531 49.492188 C 34.644531 52.046875 36.722656 54.117188 39.289062 54.117188 C 41.855469 54.117188 43.929688 52.042969 43.929688 49.492188 Z M 43.929688 46.886719 "/><path style=" stroke:none;fill-rule:evenodd;fill:#ffffff;fill-opacity:1;" d="M 55.089844 46.886719 C 55.089844 44.328125 57.167969 42.257812 59.734375 42.257812 C 62.300781 42.257812 64.378906 44.332031 64.378906 46.886719 L 64.378906 49.492188 C 64.378906 52.046875 62.300781 54.117188 59.734375 54.117188 C 57.167969 54.117188 55.089844 52.042969 55.089844 49.492188 Z M 55.089844 46.886719 "/><path style=" stroke:none;fill-rule:evenodd;fill:#353535;fill-opacity:1;" d="M 44.71875 47.027344 C 44.71875 44.746094 42.863281 42.898438 40.578125 42.898438 C 38.289062 42.898438 36.4375 44.746094 36.4375 47.027344 L 36.4375 49.347656 C 36.4375 51.625 38.289062 53.472656 40.578125 53.472656 C 42.863281 53.472656 44.71875 51.625 44.71875 49.347656 Z M 44.71875 47.027344 "/><path style=" stroke:none;fill-rule:evenodd;fill:#353535;fill-opacity:1;" d="M 54.304688 47.027344 C 54.304688 44.746094 56.15625 42.898438 58.445312 42.898438 C 60.730469 42.898438 62.585938 44.746094 62.585938 47.027344 L 62.585938 49.347656 C 62.585938 51.625 60.730469 53.472656 58.445312 53.472656 C 56.15625 53.472656 54.304688 51.625 54.304688 49.347656 Z M 54.304688 47.027344 "/><path style=" stroke:none;fill-rule:evenodd;fill:#353535;fill-opacity:1;" d="M 52.132812 59.980469 C 51.597656 60.820312 47.453125 60.957031 46.910156 59.945312 C 46.414062 59.015625 48.023438 55.457031 49.472656 55.296875 C 50.894531 55.144531 52.601562 59.242188 52.132812 59.980469 Z M 52.132812 59.980469 "/><path style=" stroke:none;fill-rule:evenodd;fill:#353535;fill-opacity:1;" d="M 48.894531 59.085938 C 48.964844 61.015625 48.410156 62.320312 47.597656 63.050781 C 47.1875 63.417969 46.714844 63.625 46.238281 63.675781 C 45.492188 63.753906 44.730469 63.46875 44.214844 62.804688 C 44.035156 62.554688 43.679688 62.496094 43.429688 62.679688 C 43.175781 62.859375 43.121094 63.210938 43.300781 63.460938 C 44.285156 64.886719 46.019531 65.324219 47.503906 64.675781 C 48.09375 64.414062 48.648438 63.96875 49.089844 63.335938 C 49.773438 62.371094 50.195312 60.941406 50.058594 59.023438 C 50.042969 58.703125 49.765625 58.457031 49.445312 58.472656 C 49.128906 58.492188 48.882812 58.765625 48.894531 59.085938 Z M 48.894531 59.085938 "/><path style=" stroke:none;fill-rule:evenodd;fill:#353535;fill-opacity:1;" d="M 49.152344 59.023438 C 49.015625 60.941406 49.441406 62.371094 50.121094 63.335938 C 50.5625 63.96875 51.117188 64.414062 51.710938 64.675781 C 53.195312 65.328125 54.925781 64.886719 55.910156 63.460938 C 56.09375 63.210938 56.035156 62.863281 55.785156 62.679688 C 55.53125 62.496094 55.183594 62.554688 54.996094 62.804688 C 54.480469 63.46875 53.726562 63.753906 52.976562 63.675781 C 52.496094 63.625 52.027344 63.417969 51.617188 63.050781 C 50.800781 62.320312 50.246094 61.019531 50.316406 59.085938 C 50.335938 58.765625 50.089844 58.492188 49.761719 58.472656 C 49.445312 58.457031 49.171875 58.703125 49.152344 59.023438 Z M 49.152344 59.023438 "/><path style=" stroke:none;fill-rule:evenodd;fill:#353535;fill-opacity:1;" d="M 39.703125 38.203125 C 38.671875 38.046875 37.65625 38.0625 36.679688 38.339844 C 36.289062 38.453125 35.90625 38.609375 35.539062 38.816406 C 35.035156 39.097656 34.554688 39.460938 34.09375 39.914062 C 33.824219 40.148438 33.796875 40.550781 34.027344 40.816406 C 34.261719 41.078125 34.667969 41.109375 34.933594 40.878906 C 35.351562 40.558594 35.785156 40.324219 36.207031 40.128906 C 36.507812 39.988281 36.808594 39.878906 37.109375 39.785156 C 37.894531 39.542969 38.699219 39.449219 39.542969 39.519531 C 39.90625 39.5625 40.238281 39.300781 40.28125 38.941406 C 40.332031 38.574219 40.066406 38.242188 39.703125 38.203125 Z M 39.703125 38.203125 "/><path style=" stroke:none;fill-rule:evenodd;fill:#353535;fill-opacity:1;" d="M 58.914062 39.519531 C 59.757812 39.449219 60.5625 39.542969 61.351562 39.785156 C 61.652344 39.878906 61.953125 39.988281 62.25 40.128906 C 62.671875 40.328125 63.105469 40.558594 63.527344 40.878906 C 63.792969 41.113281 64.195312 41.085938 64.429688 40.816406 C 64.660156 40.550781 64.632812 40.148438 64.363281 39.914062 C 63.902344 39.464844 63.421875 39.097656 62.921875 38.816406 C 62.550781 38.609375 62.164062 38.453125 61.777344 38.339844 C 60.800781 38.0625 59.789062 38.046875 58.757812 38.203125 C 58.394531 38.242188 58.132812 38.574219 58.175781 38.933594 C 58.21875 39.300781 58.550781 39.5625 58.914062 39.519531 Z M 58.914062 39.519531 "/></g></svg>