<svg xmlns="http://www.w3.org/2000/svg" xmlns:xlink="http://www.w3.org/1999/xlink" width="133" zoomAndPan="magnify" viewBox="0 0 99.75 99.749996" height="133" preserveAspectRatio="xMidYMid meet" version="1.2"><defs><clipPath id="7b27e05930"><path d="M 0 0 L 99.5 0 L 99.5 99.5 L 0 99.5 Z M 0 0 "/></clipPath><clipPath id="d8df573ebc"><path d="M 49.75 0 C 22.273438 0 0 22.273438 0 49.75 C 0 77.226562 22.273438 99.5 49.75 99.5 C 77.226562 99.5 99.5 77.226562 99.5 49.75 C 99.5 22.273438 77.226562 0 49.75 0 Z M 49.75 0 "/></clipPath><clipPath id="b1f9f0baf3"><path d="M 0 0 L 99.5 0 L 99.5 99.5 L 0 99.5 Z M 0 0 "/></clipPath><clipPath id="ba319c29a1"><path d="M 49.75 0 C 22.273438 0 0 22.273438 0 49.75 C 0 77.226562 22.273438 99.5 49.75 99.5 C 77.226562 99.5 99.5 77.226562 99.5 49.75 C 99.5 22.273438 77.226562 0 49.75 0 Z M 49.75 0 "/></clipPath><clipPath id="0cc699fd59"><rect x="0" width="100" y="0" height="100"/></clipPath><clipPath id="30da5dbc81"><path d="M 16.085938 27 L 83.414062 27 L 83.414062 76.558594 L 16.085938 76.558594 Z M 16.085938 27 "/></clipPath><clipPath id="670d77c7c4"><path d="M 18 22.695312 L 45 22.695312 L 45 50 L 18 50 Z M 18 22.695312 "/></clipPath><clipPath id="4c239f11c4"><path d="M 53 22.695312 L 81 22.695312 L 81 50 L 53 50 Z M 53 22.695312 "/></clipPath><clipPath id="760bc8c9d7"><path d="M 18 45 L 81 45 L 81 76.558594 L 18 76.558594 Z M 18 45 "/></clipPath></defs><g id="39e113c297"><g clip-rule="nonzero" clip-path="url(#7b27e05930)"><g clip-rule="nonzero" clip-path="url(#d8df573ebc)"><g transform="matrix(1,0,0,1,-0,-0.000000000000003885)"><g clip-path="url(#0cc699fd59)"><g clip-rule="nonzero" clip-path="url(#b1f9f0baf3)"><g clip-rule="nonzero" clip-path="url(#ba319c29a1)"><path style=" stroke:none;fill-rule:nonzero;fill:#fff697;fill-opacity:1;" d="M 0 0 L 99.5 0 L 99.5 99.5 L 0 99.5 Z M 0 0 "/></g></g></g></g></g></g><g clip-rule="nonzero" clip-path="url(#30da5dbc81)"><path style=" stroke:none;fill-rule:evenodd;fill:#a9cd76;fill-opacity:1;" d="M 19.574219 47.902344 C 19.425781 46.679688 25.285156 27.449219 49.742188 27.375 C 72.210938 27.308594 80.054688 46.679688 79.910156 47.902344 C 82.152344 50.5625 83.410156 53.550781 83.410156 56.714844 C 83.410156 67.664062 68.324219 76.558594 49.75 76.558594 C 31.171875 76.558594 16.085938 67.664062 16.085938 56.714844 C 16.078125 53.550781 17.335938 50.558594 19.574219 47.902344 Z M 19.574219 47.902344 "/></g><g clip-rule="nonzero" clip-path="url(#670d77c7c4)"><path style=" stroke:none;fill-rule:nonzero;fill:#a9cd76;fill-opacity:1;" d="M 44.546875 35.878906 C 44.546875 36.742188 44.460938 37.601562 44.292969 38.449219 C 44.121094 39.296875 43.871094 40.121094 43.539062 40.921875 C 43.207031 41.71875 42.800781 42.480469 42.316406 43.199219 C 41.832031 43.917969 41.285156 44.585938 40.667969 45.195312 C 40.054688 45.808594 39.386719 46.355469 38.664062 46.835938 C 37.941406 47.316406 37.179688 47.722656 36.375 48.054688 C 35.574219 48.386719 34.746094 48.636719 33.890625 48.804688 C 33.039062 48.972656 32.179688 49.058594 31.308594 49.058594 C 30.441406 49.058594 29.578125 48.972656 28.726562 48.804688 C 27.875 48.636719 27.046875 48.386719 26.246094 48.054688 C 25.441406 47.722656 24.679688 47.316406 23.957031 46.835938 C 23.234375 46.355469 22.566406 45.808594 21.949219 45.195312 C 21.335938 44.585938 20.785156 43.917969 20.304688 43.199219 C 19.820312 42.480469 19.414062 41.71875 19.082031 40.921875 C 18.75 40.121094 18.496094 39.296875 18.328125 38.449219 C 18.15625 37.601562 18.074219 36.742188 18.074219 35.878906 C 18.074219 35.011719 18.15625 34.15625 18.328125 33.304688 C 18.496094 32.457031 18.75 31.632812 19.082031 30.832031 C 19.414062 30.035156 19.820312 29.273438 20.304688 28.554688 C 20.785156 27.835938 21.335938 27.167969 21.949219 26.558594 C 22.566406 25.945312 23.234375 25.398438 23.957031 24.917969 C 24.679688 24.4375 25.441406 24.03125 26.246094 23.699219 C 27.046875 23.371094 27.875 23.121094 28.726562 22.949219 C 29.578125 22.78125 30.441406 22.699219 31.308594 22.699219 C 32.179688 22.699219 33.039062 22.78125 33.890625 22.949219 C 34.746094 23.121094 35.574219 23.371094 36.375 23.699219 C 37.179688 24.03125 37.941406 24.4375 38.664062 24.917969 C 39.386719 25.398438 40.054688 25.945312 40.667969 26.558594 C 41.285156 27.167969 41.832031 27.835938 42.316406 28.554688 C 42.800781 29.273438 43.207031 30.035156 43.539062 30.832031 C 43.871094 31.632812 44.121094 32.457031 44.292969 33.304688 C 44.460938 34.15625 44.546875 35.011719 44.546875 35.878906 Z M 44.546875 35.878906 "/></g><g clip-rule="nonzero" clip-path="url(#4c239f11c4)"><path style=" stroke:none;fill-rule:nonzero;fill:#a9cd76;fill-opacity:1;" d="M 80.414062 35.878906 C 80.414062 36.742188 80.328125 37.601562 80.160156 38.449219 C 79.988281 39.296875 79.738281 40.121094 79.40625 40.921875 C 79.074219 41.71875 78.664062 42.480469 78.183594 43.199219 C 77.699219 43.917969 77.152344 44.585938 76.535156 45.195312 C 75.921875 45.808594 75.253906 46.355469 74.53125 46.835938 C 73.808594 47.316406 73.046875 47.722656 72.242188 48.054688 C 71.441406 48.386719 70.613281 48.636719 69.757812 48.804688 C 68.90625 48.972656 68.046875 49.058594 67.175781 49.058594 C 66.308594 49.058594 65.445312 48.972656 64.59375 48.804688 C 63.742188 48.636719 62.914062 48.386719 62.113281 48.054688 C 61.308594 47.722656 60.546875 47.316406 59.824219 46.835938 C 59.101562 46.355469 58.433594 45.808594 57.816406 45.195312 C 57.203125 44.585938 56.652344 43.917969 56.171875 43.199219 C 55.6875 42.480469 55.28125 41.71875 54.949219 40.921875 C 54.617188 40.121094 54.363281 39.296875 54.195312 38.449219 C 54.023438 37.601562 53.941406 36.742188 53.941406 35.878906 C 53.941406 35.011719 54.023438 34.15625 54.195312 33.304688 C 54.363281 32.457031 54.617188 31.632812 54.949219 30.832031 C 55.28125 30.035156 55.6875 29.273438 56.171875 28.554688 C 56.652344 27.835938 57.203125 27.167969 57.816406 26.558594 C 58.433594 25.945312 59.101562 25.398438 59.824219 24.917969 C 60.546875 24.4375 61.308594 24.03125 62.113281 23.699219 C 62.914062 23.371094 63.742188 23.121094 64.59375 22.949219 C 65.445312 22.78125 66.308594 22.699219 67.175781 22.699219 C 68.046875 22.699219 68.90625 22.78125 69.757812 22.949219 C 70.613281 23.121094 71.441406 23.371094 72.242188 23.699219 C 73.046875 24.03125 73.808594 24.4375 74.53125 24.917969 C 75.253906 25.398438 75.921875 25.945312 76.535156 26.558594 C 77.152344 27.167969 77.699219 27.835938 78.183594 28.554688 C 78.664062 29.273438 79.074219 30.035156 79.40625 30.832031 C 79.738281 31.632812 79.988281 32.457031 80.160156 33.304688 C 80.328125 34.15625 80.414062 35.011719 80.414062 35.878906 Z M 80.414062 35.878906 "/></g><g clip-rule="nonzero" clip-path="url(#760bc8c9d7)"><path style=" stroke:none;fill-rule:evenodd;fill:#ffd9b6;fill-opacity:1;" d="M 18.746094 64.457031 C 21.460938 55.351562 33.722656 45.777344 49.019531 45.914062 C 66.285156 46.066406 77.734375 55.625 80.777344 64.414062 C 75.667969 71.546875 63.695312 76.558594 49.742188 76.558594 C 35.820312 76.558594 23.863281 71.5625 18.746094 64.457031 Z M 18.746094 64.457031 "/></g><path style=" stroke:none;fill-rule:evenodd;fill:#ffffff;fill-opacity:1;" d="M 36.988281 35.296875 C 36.988281 32.484375 34.703125 30.207031 31.878906 30.207031 C 29.054688 30.207031 26.769531 32.488281 26.769531 35.296875 L 26.769531 38.15625 C 26.769531 40.96875 29.054688 43.246094 31.878906 43.246094 C 34.703125 43.246094 36.988281 40.964844 36.988281 38.15625 Z M 36.988281 35.296875 "/><path style=" stroke:none;fill-rule:evenodd;fill:#ffffff;fill-opacity:1;" d="M 62.371094 35.867188 C 62.371094 33.054688 64.65625 30.78125 67.480469 30.78125 C 70.304688 30.78125 72.589844 33.0625 72.589844 35.867188 L 72.589844 38.730469 C 72.589844 41.542969 70.304688 43.816406 67.480469 43.816406 C 64.65625 43.816406 62.371094 41.535156 62.371094 38.730469 Z M 62.371094 35.867188 "/><path style=" stroke:none;fill-rule:evenodd;fill:#512d1b;fill-opacity:1;" d="M 37.859375 35.453125 C 37.859375 32.949219 35.820312 30.917969 33.304688 30.917969 C 30.789062 30.917969 28.746094 32.949219 28.746094 35.453125 L 28.746094 38.003906 C 28.746094 40.511719 30.789062 42.542969 33.304688 42.542969 C 35.820312 42.542969 37.859375 40.511719 37.859375 38.003906 Z M 37.859375 35.453125 "/><path style=" stroke:none;fill-rule:evenodd;fill:#512d1b;fill-opacity:1;" d="M 61.5 36.019531 C 61.5 33.515625 63.539062 31.484375 66.054688 31.484375 C 68.570312 31.484375 70.609375 33.515625 70.609375 36.019531 L 70.609375 38.570312 C 70.609375 41.078125 68.570312 43.109375 66.054688 43.109375 C 63.539062 43.109375 61.5 41.078125 61.5 38.570312 Z M 61.5 36.019531 "/><path style=" stroke:none;fill-rule:evenodd;fill:#512d1b;fill-opacity:1;" d="M 48.652344 43.960938 C 48.652344 43.960938 45.351562 44.230469 44.035156 43.296875 C 43.367188 42.820312 43.808594 40.816406 44.726562 40.785156 C 46.128906 40.738281 48.652344 43.960938 48.652344 43.960938 Z M 48.652344 43.960938 "/><path style=" stroke:none;fill-rule:evenodd;fill:#512d1b;fill-opacity:1;" d="M 50.117188 43.960938 C 50.117188 43.960938 53.417969 44.230469 54.734375 43.296875 C 55.402344 42.820312 54.960938 40.816406 54.042969 40.785156 C 52.636719 40.738281 50.117188 43.960938 50.117188 43.960938 Z M 50.117188 43.960938 "/><path style=" stroke:none;fill-rule:evenodd;fill:#512d1b;fill-opacity:1;" d="M 32.339844 25.753906 C 31.207031 25.585938 30.089844 25.601562 29.015625 25.90625 C 28.582031 26.03125 28.164062 26.203125 27.757812 26.425781 C 27.207031 26.738281 26.675781 27.136719 26.171875 27.636719 C 25.871094 27.890625 25.84375 28.335938 26.097656 28.625 C 26.355469 28.917969 26.800781 28.949219 27.09375 28.699219 C 27.554688 28.347656 28.03125 28.085938 28.496094 27.871094 C 28.824219 27.71875 29.15625 27.597656 29.484375 27.492188 C 30.351562 27.230469 31.242188 27.125 32.164062 27.203125 C 32.566406 27.25 32.929688 26.964844 32.976562 26.566406 C 33.027344 26.164062 32.738281 25.800781 32.339844 25.753906 Z M 32.339844 25.753906 "/><path style=" stroke:none;fill-rule:evenodd;fill:#512d1b;fill-opacity:1;" d="M 66.570312 27.765625 C 67.5 27.6875 68.386719 27.789062 69.253906 28.054688 C 69.585938 28.15625 69.914062 28.28125 70.242188 28.433594 C 70.707031 28.652344 71.183594 28.90625 71.644531 29.257812 C 71.9375 29.515625 72.382812 29.484375 72.640625 29.1875 C 72.894531 28.890625 72.863281 28.453125 72.566406 28.199219 C 72.0625 27.699219 71.53125 27.300781 70.980469 26.988281 C 70.574219 26.765625 70.148438 26.589844 69.722656 26.46875 C 68.648438 26.164062 67.53125 26.148438 66.398438 26.316406 C 66 26.363281 65.710938 26.722656 65.757812 27.121094 C 65.808594 27.523438 66.171875 27.808594 66.570312 27.765625 Z M 66.570312 27.765625 "/></g></svg>