<svg xmlns="http://www.w3.org/2000/svg" xmlns:xlink="http://www.w3.org/1999/xlink" width="133" zoomAndPan="magnify" viewBox="0 0 99.75 99.749996" height="133" preserveAspectRatio="xMidYMid meet" version="1.2"><defs><clipPath id="f91c188af4"><path d="M 0 0 L 99.5 0 L 99.5 99.5 L 0 99.5 Z M 0 0 "/></clipPath><clipPath id="6fa4ae31ed"><path d="M 49.75 0 C 22.273438 0 0 22.273438 0 49.75 C 0 77.226562 22.273438 99.5 49.75 99.5 C 77.226562 99.5 99.5 77.226562 99.5 49.75 C 99.5 22.273438 77.226562 0 49.75 0 Z M 49.75 0 "/></clipPath><clipPath id="6ebc138eac"><path d="M 0 0 L 99.5 0 L 99.5 99.5 L 0 99.5 Z M 0 0 "/></clipPath><clipPath id="ab5a290ccd"><path d="M 49.75 0 C 22.273438 0 0 22.273438 0 49.75 C 0 77.226562 22.273438 99.5 49.75 99.5 C 77.226562 99.5 99.5 77.226562 99.5 49.75 C 99.5 22.273438 77.226562 0 49.75 0 Z M 49.75 0 "/></clipPath><clipPath id="318308e2d2"><rect x="0" width="100" y="0" height="100"/></clipPath><clipPath id="9ba947c7e7"><path d="M 61 8.140625 L 67 8.140625 L 67 28 L 61 28 Z M 61 8.140625 "/></clipPath><clipPath id="b4cc9340da"><path d="M 32 8.140625 L 38 8.140625 L 38 28 L 32 28 Z M 32 8.140625 "/></clipPath><clipPath id="dc2eb92054"><path d="M 18 33 L 80 33 L 80 91.183594 L 18 91.183594 Z M 18 33 "/></clipPath></defs><g id="77b27b0fab"><g clip-rule="nonzero" clip-path="url(#f91c188af4)"><g clip-rule="nonzero" clip-path="url(#6fa4ae31ed)"><g transform="matrix(1,0,0,1,-0,-0.000000000000003885)"><g clip-path="url(#318308e2d2)"><g clip-rule="nonzero" clip-path="url(#6ebc138eac)"><g clip-rule="nonzero" clip-path="url(#ab5a290ccd)"><path style=" stroke:none;fill-rule:nonzero;fill:#a9cf82;fill-opacity:1;" d="M 0 0 L 99.5 0 L 99.5 99.5 L 0 99.5 Z M 0 0 "/></g></g></g></g></g></g><path style=" stroke:none;fill-rule:evenodd;fill:#9d664b;fill-opacity:1;" d="M 40.1875 41.390625 C 40.1875 41.390625 33.140625 34.832031 30.113281 33.230469 C 26.980469 31.578125 18.074219 30.167969 17.140625 31.804688 C 16.132812 33.578125 24.722656 48.738281 30.335938 47.667969 Z M 40.1875 41.390625 "/><path style=" stroke:none;fill-rule:evenodd;fill:#9d664b;fill-opacity:1;" d="M 59.320312 41.390625 C 59.320312 41.390625 66.367188 34.832031 69.394531 33.230469 C 72.527344 31.578125 81.433594 30.167969 82.367188 31.804688 C 83.378906 33.578125 74.785156 48.738281 69.171875 47.667969 Z M 59.320312 41.390625 "/><path style=" stroke:none;fill-rule:evenodd;fill:#ffd9b6;fill-opacity:1;" d="M 34.640625 40.617188 C 34.640625 40.617188 30.722656 36.976562 29.042969 36.085938 C 27.304688 35.171875 22.066406 34.113281 21.339844 36.152344 C 20.671875 38.015625 29.164062 44.105469 29.164062 44.105469 Z M 34.640625 40.617188 "/><path style=" stroke:none;fill-rule:evenodd;fill:#ffd9b6;fill-opacity:1;" d="M 64.867188 40.617188 C 64.867188 40.617188 68.785156 36.976562 70.464844 36.085938 C 72.203125 35.171875 77.441406 34.113281 78.167969 36.152344 C 78.835938 38.015625 70.34375 44.105469 70.34375 44.105469 Z M 64.867188 40.617188 "/><path style=" stroke:none;fill-rule:evenodd;fill:#512d1b;fill-opacity:1;" d="M 54.863281 38.605469 C 54.617188 36 55.253906 34.226562 56.515625 32.695312 C 58.277344 30.550781 61.15625 28.847656 64.496094 26.207031 C 66.8125 24.328125 68.324219 22.671875 69.433594 20.890625 C 70.640625 18.964844 71.382812 16.894531 72.199219 14.257812 C 72.332031 13.839844 72.105469 13.394531 71.6875 13.261719 C 71.269531 13.128906 70.824219 13.355469 70.691406 13.769531 C 69.855469 16.230469 69.113281 18.148438 67.945312 19.941406 C 66.886719 21.558594 65.480469 23.054688 63.328125 24.75 C 59.894531 27.523438 56.941406 29.339844 55.140625 31.582031 C 53.640625 33.460938 52.875 35.621094 53.226562 38.777344 C 53.273438 39.226562 53.675781 39.554688 54.125 39.507812 C 54.582031 39.457031 54.910156 39.054688 54.863281 38.605469 Z M 54.863281 38.605469 "/><path style=" stroke:none;fill-rule:evenodd;fill:#512d1b;fill-opacity:1;" d="M 45.863281 38.773438 C 46.21875 35.621094 45.453125 33.457031 43.949219 31.578125 C 42.148438 29.328125 39.199219 27.515625 35.761719 24.746094 C 33.609375 23.050781 32.203125 21.550781 31.144531 19.9375 C 29.976562 18.148438 29.234375 16.222656 28.398438 13.765625 C 28.265625 13.351562 27.820312 13.121094 27.402344 13.257812 C 26.984375 13.390625 26.757812 13.835938 26.890625 14.253906 C 27.707031 16.890625 28.449219 18.960938 29.65625 20.886719 C 30.769531 22.667969 32.277344 24.324219 34.59375 26.203125 C 37.933594 28.84375 40.8125 30.546875 42.574219 32.6875 C 43.835938 34.222656 44.472656 35.996094 44.226562 38.601562 C 44.179688 39.050781 44.511719 39.453125 44.960938 39.5 C 45.410156 39.550781 45.816406 39.226562 45.863281 38.773438 Z M 45.863281 38.773438 "/><path style=" stroke:none;fill-rule:evenodd;fill:#512d1b;fill-opacity:1;" d="M 57.039062 32.34375 C 58.910156 31.683594 60.800781 31.496094 62.679688 31.261719 C 64.023438 31.097656 65.367188 30.917969 66.679688 30.578125 C 68.089844 30.210938 69.464844 29.660156 70.800781 28.800781 C 71.175781 28.574219 71.292969 28.089844 71.066406 27.714844 C 70.839844 27.339844 70.351562 27.222656 69.976562 27.449219 C 68.75 28.144531 67.5 28.527344 66.246094 28.808594 C 64.984375 29.09375 63.710938 29.257812 62.433594 29.433594 C 60.433594 29.710938 58.429688 30.035156 56.464844 30.808594 C 56.035156 30.96875 55.824219 31.4375 55.980469 31.867188 C 56.140625 32.28125 56.613281 32.5 57.039062 32.34375 Z M 57.039062 32.34375 "/><path style=" stroke:none;fill-rule:evenodd;fill:#512d1b;fill-opacity:1;" d="M 42.625 30.804688 C 40.660156 30.03125 38.65625 29.707031 36.65625 29.429688 C 35.375 29.253906 34.105469 29.089844 32.84375 28.804688 C 31.585938 28.523438 30.335938 28.140625 29.113281 27.445312 C 28.738281 27.21875 28.25 27.339844 28.023438 27.707031 C 27.796875 28.082031 27.917969 28.570312 28.289062 28.796875 C 29.625 29.65625 31.003906 30.207031 32.414062 30.574219 C 33.730469 30.910156 35.070312 31.09375 36.410156 31.257812 C 38.289062 31.492188 40.183594 31.679688 42.050781 32.335938 C 42.472656 32.496094 42.953125 32.28125 43.109375 31.855469 C 43.269531 31.433594 43.054688 30.960938 42.625 30.804688 Z M 42.625 30.804688 "/><path style=" stroke:none;fill-rule:evenodd;fill:#512d1b;fill-opacity:1;" d="M 59.34375 29.347656 C 58.988281 27.816406 58.742188 26.277344 58.632812 24.742188 C 58.59375 24.136719 58.570312 23.527344 58.574219 22.917969 C 58.582031 22.019531 58.640625 21.117188 58.820312 20.214844 C 58.921875 19.789062 58.664062 19.363281 58.234375 19.257812 C 57.808594 19.15625 57.382812 19.414062 57.28125 19.839844 C 56.898438 21.175781 56.714844 22.519531 56.722656 23.871094 C 56.726562 24.476562 56.777344 25.082031 56.859375 25.6875 C 57.039062 27.050781 57.367188 28.402344 57.753906 29.753906 C 57.863281 30.195312 58.316406 30.457031 58.753906 30.347656 C 59.195312 30.234375 59.457031 29.785156 59.34375 29.347656 Z M 59.34375 29.347656 "/><path style=" stroke:none;fill-rule:evenodd;fill:#512d1b;fill-opacity:1;" d="M 41.34375 29.753906 C 41.722656 28.40625 42.054688 27.050781 42.238281 25.6875 C 42.316406 25.082031 42.371094 24.476562 42.371094 23.871094 C 42.386719 22.519531 42.195312 21.175781 41.816406 19.839844 C 41.714844 19.414062 41.28125 19.15625 40.859375 19.257812 C 40.433594 19.363281 40.171875 19.789062 40.273438 20.214844 C 40.457031 21.121094 40.511719 22.019531 40.519531 22.917969 C 40.527344 23.523438 40.503906 24.128906 40.460938 24.742188 C 40.355469 26.277344 40.101562 27.816406 39.75 29.347656 C 39.640625 29.785156 39.902344 30.230469 40.34375 30.347656 C 40.785156 30.460938 41.230469 30.191406 41.34375 29.753906 Z M 41.34375 29.753906 "/><g clip-rule="nonzero" clip-path="url(#9ba947c7e7)"><path style=" stroke:none;fill-rule:evenodd;fill:#512d1b;fill-opacity:1;" d="M 62.652344 27.328125 C 64.335938 25.363281 65.253906 23.746094 65.746094 22.277344 C 66.398438 20.34375 66.335938 18.664062 66.242188 16.761719 C 66.140625 14.769531 66 12.507812 66.960938 9.265625 C 67.089844 8.851562 66.859375 8.40625 66.441406 8.277344 C 66.023438 8.148438 65.578125 8.378906 65.449219 8.789062 C 64.285156 12.25 64.289062 14.691406 64.371094 16.84375 C 64.4375 18.523438 64.570312 20 64.035156 21.722656 C 63.621094 23.039062 62.84375 24.488281 61.390625 26.277344 C 61.101562 26.625 61.148438 27.144531 61.496094 27.429688 C 61.84375 27.722656 62.363281 27.675781 62.652344 27.328125 Z M 62.652344 27.328125 "/></g><g clip-rule="nonzero" clip-path="url(#b4cc9340da)"><path style=" stroke:none;fill-rule:evenodd;fill:#512d1b;fill-opacity:1;" d="M 37.703125 26.28125 C 36.257812 24.492188 35.472656 23.039062 35.0625 21.726562 C 34.523438 20.007812 34.652344 18.53125 34.722656 16.847656 C 34.804688 14.695312 34.804688 12.253906 33.644531 8.796875 C 33.515625 8.378906 33.070312 8.148438 32.652344 8.28125 C 32.234375 8.410156 32.003906 8.855469 32.132812 9.273438 C 33.09375 12.511719 32.957031 14.769531 32.851562 16.765625 C 32.753906 18.667969 32.695312 20.347656 33.347656 22.285156 C 33.847656 23.75 34.757812 25.367188 36.445312 27.332031 C 36.730469 27.679688 37.25 27.726562 37.597656 27.441406 C 37.945312 27.148438 37.992188 26.628906 37.703125 26.28125 Z M 37.703125 26.28125 "/></g><path style=" stroke:none;fill-rule:evenodd;fill:#512d1b;fill-opacity:1;" d="M 65.945312 19.917969 C 65.691406 18.820312 65.28125 17.625 64.582031 16.433594 C 64.335938 16.019531 64.058594 15.605469 63.734375 15.203125 C 63.289062 14.652344 62.773438 14.121094 62.1875 13.59375 C 61.882812 13.285156 61.375 13.28125 61.066406 13.589844 C 60.753906 13.894531 60.75 14.394531 61.0625 14.710938 C 61.523438 15.234375 61.910156 15.769531 62.269531 16.289062 C 62.53125 16.660156 62.769531 17.023438 62.984375 17.386719 C 63.617188 18.414062 64.085938 19.398438 64.363281 20.335938 C 64.480469 20.769531 64.929688 21.035156 65.371094 20.917969 C 65.796875 20.800781 66.0625 20.351562 65.945312 19.917969 Z M 65.945312 19.917969 "/><path style=" stroke:none;fill-rule:evenodd;fill:#512d1b;fill-opacity:1;" d="M 34.738281 20.339844 C 35.015625 19.40625 35.484375 18.417969 36.113281 17.390625 C 36.332031 17.03125 36.570312 16.664062 36.828125 16.292969 C 37.1875 15.773438 37.570312 15.238281 38.039062 14.714844 C 38.34375 14.40625 38.34375 13.90625 38.035156 13.59375 C 37.722656 13.285156 37.222656 13.289062 36.910156 13.601562 C 36.328125 14.121094 35.808594 14.65625 35.367188 15.207031 C 35.042969 15.609375 34.757812 16.019531 34.519531 16.4375 C 33.8125 17.632812 33.40625 18.824219 33.15625 19.921875 C 33.039062 20.359375 33.296875 20.808594 33.738281 20.921875 C 34.171875 21.039062 34.621094 20.773438 34.738281 20.339844 Z M 34.738281 20.339844 "/><path style=" stroke:none;fill-rule:evenodd;fill:#512d1b;fill-opacity:1;" d="M 64.363281 24.574219 C 65.527344 24.464844 66.835938 24.527344 68.070312 24.429688 C 68.667969 24.386719 69.253906 24.296875 69.804688 24.152344 C 71.21875 23.765625 72.429688 23.195312 73.542969 22.496094 C 75.148438 21.492188 76.542969 20.242188 78.246094 19.160156 C 78.621094 18.933594 78.742188 18.445312 78.519531 18.074219 C 78.292969 17.699219 77.804688 17.582031 77.433594 17.808594 C 76.195312 18.507812 75.09375 19.273438 73.984375 20.015625 C 73.269531 20.492188 72.546875 20.949219 71.777344 21.367188 C 71.019531 21.773438 70.21875 22.140625 69.308594 22.398438 C 68.863281 22.527344 68.390625 22.609375 67.898438 22.664062 C 66.65625 22.800781 65.335938 22.789062 64.167969 22.949219 C 63.71875 23 63.394531 23.410156 63.445312 23.855469 C 63.503906 24.300781 63.914062 24.625 64.363281 24.574219 Z M 64.363281 24.574219 "/><path style=" stroke:none;fill-rule:evenodd;fill:#512d1b;fill-opacity:1;" d="M 34.917969 22.945312 C 33.75 22.789062 32.429688 22.796875 31.1875 22.660156 C 30.699219 22.601562 30.222656 22.523438 29.777344 22.394531 C 28.867188 22.128906 28.066406 21.765625 27.308594 21.363281 C 26.539062 20.949219 25.820312 20.488281 25.101562 20.011719 C 23.992188 19.269531 22.890625 18.5 21.652344 17.804688 C 21.273438 17.574219 20.789062 17.695312 20.566406 18.070312 C 20.339844 18.445312 20.464844 18.933594 20.839844 19.15625 C 22.546875 20.234375 23.9375 21.488281 25.542969 22.492188 C 26.65625 23.191406 27.867188 23.761719 29.28125 24.148438 C 29.828125 24.292969 30.414062 24.378906 31.015625 24.425781 C 32.25 24.523438 33.558594 24.460938 34.722656 24.570312 C 35.171875 24.621094 35.582031 24.300781 35.632812 23.851562 C 35.691406 23.402344 35.367188 22.996094 34.917969 22.945312 Z M 34.917969 22.945312 "/><g clip-rule="nonzero" clip-path="url(#dc2eb92054)"><path style=" stroke:none;fill-rule:evenodd;fill:#9d664b;fill-opacity:1;" d="M 21.609375 65.1875 C 21.472656 64.078125 21.410156 62.949219 21.410156 61.804688 C 21.410156 46.371094 33.734375 33.835938 48.917969 33.835938 C 64.097656 33.835938 76.425781 46.367188 76.425781 61.804688 C 76.425781 62.949219 76.355469 64.078125 76.222656 65.1875 C 78.25 67.601562 79.390625 70.3125 79.390625 73.183594 C 79.390625 83.117188 65.738281 91.183594 48.921875 91.183594 C 32.101562 91.183594 18.449219 83.117188 18.449219 73.183594 C 18.445312 70.3125 19.582031 67.601562 21.609375 65.1875 Z M 21.609375 65.1875 "/></g><path style=" stroke:none;fill-rule:evenodd;fill:#512d1b;fill-opacity:1;" d="M 43.359375 36.796875 C 43.664062 36.304688 44.105469 36.402344 44.3125 36.535156 C 44.457031 36.632812 45.273438 37.6875 44.914062 38.386719 C 44.726562 38.742188 43.503906 38.910156 43.167969 38.648438 C 42.636719 38.21875 43.207031 37.046875 43.359375 36.796875 Z M 43.359375 36.796875 "/><path style=" stroke:none;fill-rule:evenodd;fill:#512d1b;fill-opacity:1;" d="M 45.261719 39.929688 C 45.566406 39.4375 46.007812 39.535156 46.210938 39.667969 C 46.359375 39.765625 47.175781 40.820312 46.816406 41.519531 C 46.628906 41.878906 45.40625 42.042969 45.070312 41.78125 C 44.539062 41.355469 45.105469 40.179688 45.261719 39.929688 Z M 45.261719 39.929688 "/><path style=" stroke:none;fill-rule:evenodd;fill:#512d1b;fill-opacity:1;" d="M 48.015625 36.796875 C 47.710938 36.304688 47.269531 36.402344 47.066406 36.535156 C 46.917969 36.632812 46.101562 37.6875 46.460938 38.386719 C 46.648438 38.742188 47.871094 38.910156 48.207031 38.648438 C 48.742188 38.21875 48.167969 37.046875 48.015625 36.796875 Z M 48.015625 36.796875 "/><path style=" stroke:none;fill-rule:evenodd;fill:#512d1b;fill-opacity:1;" d="M 49.917969 39.929688 C 49.613281 39.4375 49.171875 39.535156 48.96875 39.667969 C 48.820312 39.765625 48.003906 40.820312 48.363281 41.519531 C 48.550781 41.878906 49.773438 42.042969 50.109375 41.78125 C 50.640625 41.355469 50.070312 40.179688 49.917969 39.929688 Z M 49.917969 39.929688 "/><path style=" stroke:none;fill-rule:evenodd;fill:#512d1b;fill-opacity:1;" d="M 50.113281 36.796875 C 50.417969 36.304688 50.859375 36.402344 51.0625 36.535156 C 51.210938 36.632812 52.027344 37.6875 51.667969 38.386719 C 51.480469 38.742188 50.257812 38.910156 49.921875 38.648438 C 49.386719 38.21875 49.957031 37.046875 50.113281 36.796875 Z M 50.113281 36.796875 "/><path style=" stroke:none;fill-rule:evenodd;fill:#512d1b;fill-opacity:1;" d="M 52.011719 39.929688 C 52.316406 39.4375 52.757812 39.535156 52.960938 39.667969 C 53.109375 39.765625 53.925781 40.820312 53.566406 41.519531 C 53.378906 41.878906 52.15625 42.042969 51.820312 41.78125 C 51.285156 41.355469 51.859375 40.179688 52.011719 39.929688 Z M 52.011719 39.929688 "/><path style=" stroke:none;fill-rule:evenodd;fill:#512d1b;fill-opacity:1;" d="M 53.628906 36.796875 C 53.9375 36.304688 54.375 36.402344 54.582031 36.535156 C 54.730469 36.632812 55.546875 37.6875 55.183594 38.386719 C 54.996094 38.742188 53.773438 38.910156 53.4375 38.648438 C 52.90625 38.21875 53.472656 37.046875 53.628906 36.796875 Z M 53.628906 36.796875 "/><path style=" stroke:none;fill-rule:evenodd;fill:#ffd9b6;fill-opacity:1;" d="M 39.804688 74.308594 C 38.714844 71.039062 43.234375 63.457031 49.261719 63.527344 C 56.101562 63.605469 60.007812 71.207031 59.347656 74.210938 C 57.949219 80.613281 41.734375 80.09375 39.804688 74.308594 Z M 39.804688 74.308594 "/><path style=" stroke:none;fill-rule:evenodd;fill:#ffffff;fill-opacity:1;" d="M 44.589844 57.484375 C 44.589844 54.933594 42.519531 52.871094 39.964844 52.871094 C 37.410156 52.871094 35.339844 54.941406 35.339844 57.484375 L 35.339844 60.082031 C 35.339844 62.632812 37.410156 64.699219 39.964844 64.699219 C 42.519531 64.699219 44.589844 62.628906 44.589844 60.082031 Z M 44.589844 57.484375 "/><path style=" stroke:none;fill-rule:evenodd;fill:#ffffff;fill-opacity:1;" d="M 52.484375 57.484375 C 52.484375 54.933594 54.550781 52.871094 57.109375 52.871094 C 59.664062 52.871094 61.734375 54.941406 61.734375 57.484375 L 61.734375 60.082031 C 61.734375 62.632812 59.664062 64.699219 57.109375 64.699219 C 54.550781 64.699219 52.484375 62.628906 52.484375 60.082031 Z M 52.484375 57.484375 "/><path style=" stroke:none;fill-rule:evenodd;fill:#512d1b;fill-opacity:1;" d="M 45.371094 57.625 C 45.371094 55.351562 43.527344 53.511719 41.25 53.511719 C 38.972656 53.511719 37.125 55.351562 37.125 57.625 L 37.125 59.9375 C 37.125 62.210938 38.972656 64.054688 41.25 64.054688 C 43.527344 64.054688 45.371094 62.210938 45.371094 59.9375 Z M 45.371094 57.625 "/><path style=" stroke:none;fill-rule:evenodd;fill:#512d1b;fill-opacity:1;" d="M 51.699219 57.625 C 51.699219 55.351562 53.546875 53.511719 55.824219 53.511719 C 58.101562 53.511719 59.949219 55.351562 59.949219 57.625 L 59.949219 59.9375 C 59.949219 62.210938 58.101562 64.054688 55.824219 64.054688 C 53.546875 64.054688 51.699219 62.210938 51.699219 59.9375 Z M 51.699219 57.625 "/><path style=" stroke:none;fill-rule:evenodd;fill:#512d1b;fill-opacity:1;" d="M 53.046875 65.65625 C 54.222656 67.753906 51.5625 70.433594 49.339844 70.539062 C 47.222656 70.640625 44.363281 67.417969 45.328125 65.691406 C 46.144531 64.230469 52.359375 64.429688 53.046875 65.65625 Z M 53.046875 65.65625 "/><path style=" stroke:none;fill-rule:evenodd;fill:#512d1b;fill-opacity:1;" d="M 48.769531 67.402344 C 48.785156 68.238281 48.832031 69.058594 48.785156 69.867188 C 48.757812 70.378906 48.691406 70.882812 48.550781 71.394531 C 48.246094 72.570312 47.554688 73.390625 46.621094 73.789062 C 45.710938 74.175781 44.585938 74.191406 43.375 73.746094 C 43.085938 73.636719 42.761719 73.773438 42.644531 74.066406 C 42.535156 74.355469 42.671875 74.675781 42.964844 74.792969 C 44.488281 75.433594 45.941406 75.464844 47.121094 74.988281 C 48.414062 74.46875 49.390625 73.339844 49.800781 71.71875 C 49.949219 71.113281 50.015625 70.519531 50.035156 69.921875 C 50.058594 69.070312 49.984375 68.226562 49.933594 67.355469 C 49.917969 67.035156 49.648438 66.785156 49.324219 66.800781 C 49.003906 66.8125 48.753906 67.082031 48.769531 67.402344 Z M 48.769531 67.402344 "/><path style=" stroke:none;fill-rule:evenodd;fill:#512d1b;fill-opacity:1;" d="M 49.101562 67.355469 C 49.050781 68.230469 48.976562 69.078125 49 69.921875 C 49.019531 70.515625 49.082031 71.113281 49.230469 71.71875 C 49.644531 73.339844 50.617188 74.46875 51.914062 74.988281 C 53.089844 75.464844 54.546875 75.433594 56.070312 74.792969 C 56.355469 74.683594 56.5 74.359375 56.390625 74.066406 C 56.277344 73.78125 55.949219 73.636719 55.660156 73.746094 C 54.449219 74.191406 53.328125 74.175781 52.414062 73.789062 C 51.480469 73.390625 50.785156 72.570312 50.484375 71.394531 C 50.34375 70.882812 50.28125 70.378906 50.246094 69.867188 C 50.203125 69.054688 50.246094 68.238281 50.265625 67.402344 C 50.28125 67.082031 50.03125 66.8125 49.710938 66.800781 C 49.386719 66.785156 49.117188 67.035156 49.101562 67.355469 Z M 49.101562 67.355469 "/><path style=" stroke:none;fill-rule:evenodd;fill:#512d1b;fill-opacity:1;" d="M 40.382812 48.824219 C 39.355469 48.671875 38.34375 48.6875 37.371094 48.964844 C 36.980469 49.074219 36.601562 49.234375 36.234375 49.4375 C 35.734375 49.71875 35.257812 50.078125 34.796875 50.535156 C 34.53125 50.765625 34.5 51.167969 34.730469 51.429688 C 34.964844 51.695312 35.367188 51.722656 35.632812 51.496094 C 36.050781 51.175781 36.480469 50.941406 36.902344 50.746094 C 37.199219 50.609375 37.5 50.496094 37.796875 50.402344 C 38.582031 50.164062 39.390625 50.070312 40.222656 50.140625 C 40.585938 50.183594 40.914062 49.921875 40.957031 49.5625 C 41.003906 49.195312 40.742188 48.867188 40.382812 48.824219 Z M 40.382812 48.824219 "/><path style=" stroke:none;fill-rule:evenodd;fill:#512d1b;fill-opacity:1;" d="M 56.292969 50.136719 C 57.132812 50.066406 57.933594 50.160156 58.71875 50.398438 C 59.019531 50.492188 59.316406 50.601562 59.613281 50.742188 C 60.035156 50.941406 60.46875 51.171875 60.882812 51.492188 C 61.148438 51.722656 61.550781 51.695312 61.785156 51.425781 C 62.015625 51.160156 61.988281 50.761719 61.71875 50.527344 C 61.261719 50.078125 60.777344 49.714844 60.28125 49.433594 C 59.914062 49.226562 59.53125 49.070312 59.144531 48.960938 C 58.171875 48.683594 57.164062 48.667969 56.132812 48.820312 C 55.773438 48.863281 55.511719 49.191406 55.554688 49.550781 C 55.601562 49.917969 55.929688 50.175781 56.292969 50.136719 Z M 56.292969 50.136719 "/></g></svg>