<svg xmlns="http://www.w3.org/2000/svg" xmlns:xlink="http://www.w3.org/1999/xlink" width="133" zoomAndPan="magnify" viewBox="0 0 99.75 99.749996" height="133" preserveAspectRatio="xMidYMid meet" version="1.2"><defs><clipPath id="52882c5a68"><path d="M 0 0 L 99.5 0 L 99.5 99.5 L 0 99.5 Z M 0 0 "/></clipPath><clipPath id="eb5619186d"><path d="M 49.75 0 C 22.273438 0 0 22.273438 0 49.75 C 0 77.226562 22.273438 99.5 49.75 99.5 C 77.226562 99.5 99.5 77.226562 99.5 49.75 C 99.5 22.273438 77.226562 0 49.75 0 Z M 49.75 0 "/></clipPath><clipPath id="81ec3a9310"><path d="M 0 0 L 99.5 0 L 99.5 99.5 L 0 99.5 Z M 0 0 "/></clipPath><clipPath id="e030089c94"><path d="M 49.75 0 C 22.273438 0 0 22.273438 0 49.75 C 0 77.226562 22.273438 99.5 49.75 99.5 C 77.226562 99.5 99.5 77.226562 99.5 49.75 C 99.5 22.273438 77.226562 0 49.75 0 Z M 49.75 0 "/></clipPath><clipPath id="3a95f4b674"><rect x="0" width="100" y="0" height="100"/></clipPath><clipPath id="ca045eec1e"><path d="M 19 23 L 81 23 L 81 80.628906 L 19 80.628906 Z M 19 23 "/></clipPath></defs><g id="0d8903a314"><g clip-rule="nonzero" clip-path="url(#52882c5a68)"><g clip-rule="nonzero" clip-path="url(#eb5619186d)"><g transform="matrix(1,0,0,1,-0,-0.000000000000003885)"><g clip-path="url(#3a95f4b674)"><g clip-rule="nonzero" clip-path="url(#81ec3a9310)"><g clip-rule="nonzero" clip-path="url(#e030089c94)"><path style=" stroke:none;fill-rule:nonzero;fill:#ceb6ff;fill-opacity:1;" d="M 0 0 L 99.5 0 L 99.5 99.5 L 0 99.5 Z M 0 0 "/></g></g></g></g></g></g><path style=" stroke:none;fill-rule:evenodd;fill:#9d664b;fill-opacity:1;" d="M 37.632812 29.109375 C 37.632812 29.109375 35 21.4375 27.847656 19.574219 C 24.03125 18.582031 19.101562 21.179688 17.671875 26.261719 C 16.082031 31.925781 24.085938 37.261719 28.023438 37.179688 C 31.261719 37.117188 35.089844 36.003906 35.089844 36.003906 Z M 37.632812 29.109375 "/><path style=" stroke:none;fill-rule:evenodd;fill:#9d664b;fill-opacity:1;" d="M 61.859375 29.109375 C 61.859375 29.109375 64.492188 21.4375 71.652344 19.574219 C 75.46875 18.582031 80.398438 21.179688 81.828125 26.261719 C 83.417969 31.925781 75.414062 37.261719 71.476562 37.179688 C 68.238281 37.117188 64.410156 36.003906 64.410156 36.003906 Z M 61.859375 29.109375 "/><path style=" stroke:none;fill-rule:evenodd;fill:#512d1b;fill-opacity:1;" d="M 32.960938 29.523438 C 32.960938 29.523438 31.878906 24.726562 27.882812 23.683594 C 25.753906 23.128906 23.53125 24.515625 22.765625 27.367188 C 21.421875 32.398438 27.203125 33.320312 28.664062 33.390625 C 30.472656 33.472656 32.960938 29.523438 32.960938 29.523438 Z M 32.960938 29.523438 "/><path style=" stroke:none;fill-rule:evenodd;fill:#512d1b;fill-opacity:1;" d="M 66.53125 29.523438 C 66.53125 29.523438 67.609375 24.726562 71.609375 23.683594 C 73.738281 23.128906 75.960938 24.515625 76.726562 27.367188 C 78.066406 32.398438 72.289062 33.320312 70.824219 33.390625 C 69.019531 33.472656 66.53125 29.523438 66.53125 29.523438 Z M 66.53125 29.523438 "/><g clip-rule="nonzero" clip-path="url(#ca045eec1e)"><path style=" stroke:none;fill-rule:evenodd;fill:#9d664b;fill-opacity:1;" d="M 22.269531 54.546875 C 22.136719 53.433594 22.070312 52.304688 22.070312 51.160156 C 22.070312 35.707031 34.453125 23.15625 49.703125 23.15625 C 64.953125 23.15625 77.335938 35.703125 77.335938 51.160156 C 77.335938 52.304688 77.265625 53.433594 77.136719 54.546875 C 79.171875 56.960938 80.316406 59.675781 80.316406 62.550781 C 80.316406 72.496094 66.601562 80.574219 49.707031 80.574219 C 32.816406 80.574219 19.097656 72.5 19.097656 62.550781 C 19.089844 59.671875 20.234375 56.957031 22.269531 54.546875 Z M 22.269531 54.546875 "/></g><path style=" stroke:none;fill-rule:evenodd;fill:#ffffff;fill-opacity:1;" d="M 43.925781 46.828125 C 43.925781 44.277344 41.847656 42.210938 39.28125 42.210938 C 36.710938 42.210938 34.632812 44.28125 34.632812 46.828125 L 34.632812 49.429688 C 34.632812 51.984375 36.710938 54.050781 39.28125 54.050781 C 41.847656 54.050781 43.925781 51.980469 43.925781 49.429688 Z M 43.925781 46.828125 "/><path style=" stroke:none;fill-rule:evenodd;fill:#ffffff;fill-opacity:1;" d="M 55.09375 46.828125 C 55.09375 44.277344 57.171875 42.210938 59.742188 42.210938 C 62.308594 42.210938 64.386719 44.28125 64.386719 46.828125 L 64.386719 49.429688 C 64.386719 51.984375 62.308594 54.050781 59.742188 54.050781 C 57.171875 54.050781 55.09375 51.980469 55.09375 49.429688 Z M 55.09375 46.828125 "/><path style=" stroke:none;fill-rule:evenodd;fill:#512d1b;fill-opacity:1;" d="M 44.71875 46.96875 C 44.71875 44.695312 42.863281 42.847656 40.574219 42.847656 C 38.285156 42.847656 36.433594 44.695312 36.433594 46.96875 L 36.433594 49.285156 C 36.433594 51.5625 38.285156 53.40625 40.574219 53.40625 C 42.863281 53.40625 44.71875 51.5625 44.71875 49.285156 Z M 44.71875 46.96875 "/><path style=" stroke:none;fill-rule:evenodd;fill:#512d1b;fill-opacity:1;" d="M 54.308594 46.96875 C 54.308594 44.695312 56.160156 42.847656 58.449219 42.847656 C 60.738281 42.847656 62.59375 44.695312 62.59375 46.96875 L 62.59375 49.285156 C 62.59375 51.5625 60.738281 53.40625 58.449219 53.40625 C 56.160156 53.40625 54.308594 51.5625 54.308594 49.285156 Z M 54.308594 46.96875 "/><path style=" stroke:none;fill-rule:evenodd;fill:#ffd9b6;fill-opacity:1;" d="M 39.523438 73.304688 C 34.128906 65.960938 39.875 54.210938 49.558594 53.988281 C 59.507812 53.761719 65.207031 66.085938 59.726562 73.699219 C 56.207031 78.59375 43.363281 78.535156 39.523438 73.304688 Z M 39.523438 73.304688 "/><path style=" stroke:none;fill-rule:evenodd;fill:#512d1b;fill-opacity:1;" d="M 52.136719 59.902344 C 51.601562 60.742188 47.453125 60.875 46.914062 59.867188 C 46.414062 58.941406 48.027344 55.386719 49.476562 55.226562 C 50.894531 55.074219 52.605469 59.167969 52.136719 59.902344 Z M 52.136719 59.902344 "/><path style=" stroke:none;fill-rule:evenodd;fill:#512d1b;fill-opacity:1;" d="M 48.898438 59.007812 C 48.96875 60.9375 48.414062 62.238281 47.597656 62.96875 C 47.1875 63.332031 46.714844 63.542969 46.238281 63.59375 C 45.492188 63.671875 44.730469 63.382812 44.214844 62.722656 C 44.03125 62.472656 43.679688 62.414062 43.425781 62.597656 C 43.175781 62.777344 43.121094 63.128906 43.300781 63.378906 C 44.285156 64.800781 46.015625 65.238281 47.503906 64.589844 C 48.09375 64.328125 48.648438 63.882812 49.09375 63.253906 C 49.773438 62.289062 50.199219 60.863281 50.0625 58.949219 C 50.042969 58.628906 49.769531 58.382812 49.445312 58.398438 C 49.128906 58.417969 48.882812 58.691406 48.898438 59.007812 Z M 48.898438 59.007812 "/><path style=" stroke:none;fill-rule:evenodd;fill:#512d1b;fill-opacity:1;" d="M 49.152344 58.949219 C 49.019531 60.863281 49.441406 62.289062 50.121094 63.253906 C 50.566406 63.882812 51.121094 64.328125 51.710938 64.589844 C 53.199219 65.242188 54.933594 64.800781 55.914062 63.378906 C 56.097656 63.128906 56.039062 62.78125 55.789062 62.597656 C 55.539062 62.414062 55.1875 62.472656 55 62.722656 C 54.484375 63.382812 53.730469 63.671875 52.980469 63.59375 C 52.5 63.542969 52.027344 63.332031 51.617188 62.96875 C 50.804688 62.238281 50.25 60.941406 50.316406 59.007812 C 50.335938 58.691406 50.089844 58.417969 49.765625 58.398438 C 49.445312 58.382812 49.171875 58.628906 49.152344 58.949219 Z M 49.152344 58.949219 "/><path style=" stroke:none;fill-rule:evenodd;fill:#512d1b;fill-opacity:1;" d="M 39.699219 38.160156 C 38.667969 38.007812 37.652344 38.019531 36.675781 38.296875 C 36.285156 38.410156 35.902344 38.566406 35.53125 38.769531 C 35.03125 39.054688 34.550781 39.414062 34.089844 39.867188 C 33.824219 40.101562 33.789062 40.503906 34.023438 40.769531 C 34.257812 41.03125 34.660156 41.058594 34.925781 40.832031 C 35.347656 40.511719 35.78125 40.277344 36.203125 40.082031 C 36.503906 39.941406 36.804688 39.832031 37.101562 39.738281 C 37.890625 39.5 38.703125 39.40625 39.539062 39.476562 C 39.902344 39.515625 40.234375 39.257812 40.277344 38.894531 C 40.324219 38.53125 40.0625 38.199219 39.699219 38.160156 Z M 39.699219 38.160156 "/><path style=" stroke:none;fill-rule:evenodd;fill:#512d1b;fill-opacity:1;" d="M 58.921875 39.476562 C 59.761719 39.40625 60.570312 39.5 61.359375 39.738281 C 61.660156 39.832031 61.957031 39.941406 62.257812 40.082031 C 62.679688 40.28125 63.113281 40.511719 63.535156 40.832031 C 63.800781 41.066406 64.203125 41.035156 64.4375 40.769531 C 64.671875 40.503906 64.640625 40.101562 64.371094 39.867188 C 63.910156 39.417969 63.429688 39.054688 62.925781 38.769531 C 62.558594 38.566406 62.171875 38.410156 61.785156 38.296875 C 60.808594 38.019531 59.796875 38.007812 58.761719 38.160156 C 58.398438 38.199219 58.136719 38.53125 58.179688 38.890625 C 58.226562 39.257812 58.558594 39.515625 58.921875 39.476562 Z M 58.921875 39.476562 "/></g></svg>