<svg xmlns="http://www.w3.org/2000/svg" xmlns:xlink="http://www.w3.org/1999/xlink" width="133" zoomAndPan="magnify" viewBox="0 0 99.75 99.749996" height="133" preserveAspectRatio="xMidYMid meet" version="1.2"><defs><clipPath id="984e185d45"><path d="M 0 0 L 99.5 0 L 99.5 99.5 L 0 99.5 Z M 0 0 "/></clipPath><clipPath id="df074738e1"><path d="M 49.75 0 C 22.273438 0 0 22.273438 0 49.75 C 0 77.226562 22.273438 99.5 49.75 99.5 C 77.226562 99.5 99.5 77.226562 99.5 49.75 C 99.5 22.273438 77.226562 0 49.75 0 Z M 49.75 0 "/></clipPath><clipPath id="b9ba66c4f2"><path d="M 0 0 L 99.5 0 L 99.5 99.5 L 0 99.5 Z M 0 0 "/></clipPath><clipPath id="ee264fa74b"><path d="M 49.75 0 C 22.273438 0 0 22.273438 0 49.75 C 0 77.226562 22.273438 99.5 49.75 99.5 C 77.226562 99.5 99.5 77.226562 99.5 49.75 C 99.5 22.273438 77.226562 0 49.75 0 Z M 49.75 0 "/></clipPath><clipPath id="00e786f304"><rect x="0" width="100" y="0" height="100"/></clipPath></defs><g id="61aee89934"><g clip-rule="nonzero" clip-path="url(#984e185d45)"><g clip-rule="nonzero" clip-path="url(#df074738e1)"><g transform="matrix(1,0,0,1,-0,-0.000000000000003885)"><g clip-path="url(#00e786f304)"><g clip-rule="nonzero" clip-path="url(#b9ba66c4f2)"><g clip-rule="nonzero" clip-path="url(#ee264fa74b)"><path style=" stroke:none;fill-rule:nonzero;fill:#505296;fill-opacity:1;" d="M 0 0 L 99.5 0 L 99.5 99.5 L 0 99.5 Z M 0 0 "/></g></g></g></g></g></g><path style=" stroke:none;fill-rule:evenodd;fill:#b1b0af;fill-opacity:1;" d="M 41.0625 36.277344 C 41.0625 36.277344 36.140625 19.496094 24.84375 24.382812 C 16.132812 28.152344 21.511719 37 21.566406 44.242188 C 21.601562 49.296875 18.125 58.128906 22.839844 60.511719 C 27.984375 63.109375 33.730469 57.335938 35.105469 53.234375 C 36.082031 50.324219 41.0625 36.277344 41.0625 36.277344 Z M 41.0625 36.277344 "/><path style=" stroke:none;fill-rule:evenodd;fill:#b1b0af;fill-opacity:1;" d="M 58.441406 36.277344 C 58.441406 36.277344 63.363281 19.496094 74.660156 24.382812 C 83.367188 28.152344 77.992188 37 77.9375 44.242188 C 77.902344 49.296875 81.378906 58.128906 76.664062 60.511719 C 71.519531 63.109375 65.773438 57.335938 64.398438 53.234375 C 63.421875 50.324219 58.441406 36.277344 58.441406 36.277344 Z M 58.441406 36.277344 "/><path style=" stroke:none;fill-rule:evenodd;fill:#807b78;fill-opacity:1;" d="M 35.808594 38.074219 C 35.808594 38.074219 33.378906 26.941406 26.820312 30.472656 C 21.761719 33.195312 24.632812 39 24.5 43.851562 C 24.40625 47.238281 22.222656 53.234375 24.859375 54.722656 C 27.734375 56.351562 31.148438 52.351562 32.023438 49.570312 C 32.648438 47.597656 35.808594 38.074219 35.808594 38.074219 Z M 35.808594 38.074219 "/><path style=" stroke:none;fill-rule:evenodd;fill:#807b78;fill-opacity:1;" d="M 63.695312 38.074219 C 63.695312 38.074219 66.125 26.941406 72.683594 30.472656 C 77.742188 33.195312 74.871094 39 75.003906 43.851562 C 75.09375 47.238281 77.28125 53.234375 74.644531 54.722656 C 71.769531 56.351562 68.355469 52.351562 67.480469 49.570312 C 66.855469 47.597656 63.695312 38.074219 63.695312 38.074219 Z M 63.695312 38.074219 "/><path style=" stroke:none;fill-rule:evenodd;fill:#e5e5e5;fill-opacity:1;" d="M 29.054688 53.519531 C 28.957031 52.6875 28.90625 51.84375 28.90625 50.988281 C 28.90625 39.457031 38.082031 30.089844 49.386719 30.089844 C 60.6875 30.089844 69.867188 39.453125 69.867188 50.988281 C 69.867188 51.84375 69.8125 52.6875 69.714844 53.519531 C 71.226562 55.320312 72.074219 57.347656 72.074219 59.492188 C 72.074219 66.917969 61.90625 72.945312 49.386719 72.945312 C 36.863281 72.945312 26.699219 66.917969 26.699219 59.492188 C 26.699219 57.347656 27.546875 55.320312 29.054688 53.519531 Z M 29.054688 53.519531 "/><path style=" stroke:none;fill-rule:evenodd;fill:#ffffff;fill-opacity:1;" d="M 35.027344 65.6875 C 37.007812 64.289062 41.148438 56.597656 46.558594 62.644531 L 47.324219 66.539062 C 36.855469 80.09375 25.074219 67.582031 26.792969 65.734375 C 28.027344 64.40625 32.304688 67.613281 35.027344 65.6875 Z M 35.027344 65.6875 "/><path style=" stroke:none;fill-rule:evenodd;fill:#ffffff;fill-opacity:1;" d="M 66.269531 65.6875 C 64.289062 64.289062 60.148438 56.597656 54.738281 62.644531 L 53.972656 66.539062 C 64.441406 80.09375 76.21875 67.582031 74.5 65.734375 C 73.269531 64.40625 68.992188 67.613281 66.269531 65.6875 Z M 66.269531 65.6875 "/><path style=" stroke:none;fill-rule:evenodd;fill:#ffffff;fill-opacity:1;" d="M 45.589844 46.226562 C 45.589844 44.320312 44.046875 42.773438 42.140625 42.773438 C 40.242188 42.773438 38.695312 44.320312 38.695312 46.226562 L 38.695312 48.164062 C 38.695312 50.070312 40.238281 51.613281 42.140625 51.613281 C 44.042969 51.613281 45.589844 50.070312 45.589844 48.164062 Z M 45.589844 46.226562 "/><path style=" stroke:none;fill-rule:evenodd;fill:#ffffff;fill-opacity:1;" d="M 52.425781 46.226562 C 52.425781 44.320312 53.96875 42.773438 55.871094 42.773438 C 57.773438 42.773438 59.316406 44.320312 59.316406 46.226562 L 59.316406 48.164062 C 59.316406 50.070312 57.777344 51.613281 55.871094 51.613281 C 53.96875 51.613281 52.425781 50.070312 52.425781 48.164062 Z M 52.425781 46.226562 "/><path style=" stroke:none;fill-rule:evenodd;fill:#353535;fill-opacity:1;" d="M 46.171875 46.328125 C 46.171875 44.628906 44.796875 43.253906 43.101562 43.253906 C 41.40625 43.253906 40.03125 44.628906 40.03125 46.328125 L 40.03125 48.058594 C 40.03125 49.753906 41.40625 51.132812 43.101562 51.132812 C 44.796875 51.132812 46.171875 49.753906 46.171875 48.058594 Z M 46.171875 46.328125 "/><path style=" stroke:none;fill-rule:evenodd;fill:#353535;fill-opacity:1;" d="M 51.839844 46.328125 C 51.839844 44.628906 53.214844 43.253906 54.910156 43.253906 C 56.605469 43.253906 57.980469 44.628906 57.980469 46.328125 L 57.980469 48.058594 C 57.980469 49.753906 56.605469 51.132812 54.910156 51.132812 C 53.214844 51.132812 51.839844 49.753906 51.839844 48.058594 Z M 51.839844 46.328125 "/><path style=" stroke:none;fill-rule:evenodd;fill:#b1b0af;fill-opacity:1;" d="M 54.292969 53.664062 C 57.804688 58.933594 54.65625 66.054688 57.714844 67.9375 C 59.636719 69.117188 66.917969 66.890625 66.917969 66.890625 C 66.917969 66.890625 69.707031 63.976562 71.378906 65.089844 C 73.605469 66.574219 70.570312 67.214844 70.925781 69.449219 C 71.277344 71.683594 74.070312 72.503906 72.167969 74.089844 C 70.800781 75.230469 68.089844 73.675781 68.089844 73.675781 C 68.089844 73.675781 54.855469 79.339844 47.347656 74.339844 C 40.238281 69.601562 42.277344 57.089844 44.453125 53.976562 C 46.515625 51.027344 52.359375 50.761719 54.292969 53.664062 Z M 54.292969 53.664062 "/><path style=" stroke:none;fill-rule:evenodd;fill:#807b78;fill-opacity:1;" d="M 44.933594 58.59375 C 46.609375 58.070312 47.898438 57.6875 49.183594 57.539062 C 49.734375 57.472656 50.289062 57.453125 50.875 57.480469 C 51.644531 57.523438 52.46875 57.644531 53.429688 57.894531 C 53.65625 57.957031 53.894531 57.828125 53.960938 57.597656 C 54.027344 57.367188 53.894531 57.125 53.664062 57.0625 C 52.253906 56.628906 51.097656 56.4375 49.996094 56.457031 C 49.433594 56.46875 48.878906 56.535156 48.316406 56.648438 C 47.210938 56.867188 46.066406 57.257812 44.652344 57.742188 C 44.417969 57.820312 44.289062 58.074219 44.367188 58.308594 C 44.445312 58.542969 44.699219 58.667969 44.933594 58.59375 Z M 44.933594 58.59375 "/><path style=" stroke:none;fill-rule:evenodd;fill:#807b78;fill-opacity:1;" d="M 44.769531 63.820312 C 46.0625 62.617188 47.578125 61.859375 49.199219 61.5 C 49.851562 61.359375 50.519531 61.277344 51.203125 61.261719 C 52.191406 61.242188 53.207031 61.351562 54.230469 61.617188 C 54.457031 61.683594 54.695312 61.550781 54.761719 61.320312 C 54.828125 61.089844 54.691406 60.851562 54.464844 60.785156 C 53.367188 60.449219 52.269531 60.273438 51.195312 60.265625 C 50.4375 60.261719 49.699219 60.339844 48.976562 60.503906 C 47.195312 60.910156 45.546875 61.808594 44.152344 63.164062 C 43.972656 63.335938 43.96875 63.617188 44.136719 63.800781 C 44.308594 63.980469 44.59375 63.988281 44.769531 63.820312 Z M 44.769531 63.820312 "/><path style=" stroke:none;fill-rule:evenodd;fill:#807b78;fill-opacity:1;" d="M 67.367188 68.011719 C 67.230469 68.53125 67.121094 69.046875 67.09375 69.558594 C 67.082031 69.792969 67.082031 70.027344 67.113281 70.257812 C 67.179688 70.769531 67.351562 71.265625 67.632812 71.746094 C 67.738281 71.960938 68 72.042969 68.214844 71.933594 C 68.425781 71.824219 68.507812 71.5625 68.398438 71.351562 C 68.269531 71.054688 68.207031 70.753906 68.160156 70.457031 C 68.128906 70.253906 68.117188 70.046875 68.109375 69.839844 C 68.089844 69.304688 68.136719 68.761719 68.242188 68.207031 C 68.296875 67.964844 68.144531 67.722656 67.902344 67.671875 C 67.664062 67.621094 67.425781 67.769531 67.367188 68.011719 Z M 67.367188 68.011719 "/><path style=" stroke:none;fill-rule:evenodd;fill:#807b78;fill-opacity:1;" d="M 56.601562 68.863281 C 55.234375 69.023438 54.070312 69.570312 53.191406 70.410156 C 52.824219 70.761719 52.503906 71.167969 52.246094 71.613281 C 51.878906 72.25 51.632812 72.972656 51.507812 73.75 C 51.460938 73.984375 51.613281 74.210938 51.847656 74.257812 C 52.082031 74.304688 52.308594 74.152344 52.355469 73.917969 C 52.503906 73.257812 52.765625 72.664062 53.101562 72.132812 C 53.332031 71.769531 53.597656 71.441406 53.898438 71.148438 C 54.632812 70.429688 55.582031 69.929688 56.722656 69.753906 C 56.972656 69.722656 57.140625 69.496094 57.109375 69.246094 C 57.070312 69 56.84375 68.828125 56.601562 68.863281 Z M 56.601562 68.863281 "/><path style=" stroke:none;fill-rule:evenodd;fill:#807b78;fill-opacity:1;" d="M 62.398438 68.859375 C 61.476562 69.484375 60.753906 70.246094 60.257812 71.082031 C 60.039062 71.449219 59.867188 71.839844 59.738281 72.230469 C 59.542969 72.84375 59.453125 73.472656 59.460938 74.089844 C 59.457031 74.328125 59.644531 74.53125 59.878906 74.535156 C 60.117188 74.542969 60.316406 74.351562 60.320312 74.113281 C 60.355469 73.589844 60.484375 73.070312 60.675781 72.558594 C 60.796875 72.234375 60.949219 71.914062 61.128906 71.601562 C 61.550781 70.867188 62.132812 70.171875 62.914062 69.59375 C 63.117188 69.453125 63.160156 69.171875 63.019531 68.96875 C 62.878906 68.765625 62.597656 68.71875 62.398438 68.859375 Z M 62.398438 68.859375 "/><path style=" stroke:none;fill-rule:evenodd;fill:#807b78;fill-opacity:1;" d="M 46.367188 69.167969 C 47.105469 68.464844 47.953125 67.855469 48.863281 67.375 C 49.40625 67.085938 49.972656 66.851562 50.554688 66.660156 C 50.945312 66.539062 51.335938 66.429688 51.734375 66.351562 C 52.210938 66.253906 52.765625 66.160156 53.300781 66.175781 C 53.628906 66.1875 53.949219 66.230469 54.230469 66.359375 C 54.445312 66.464844 54.703125 66.375 54.808594 66.160156 C 54.910156 65.941406 54.824219 65.683594 54.605469 65.582031 C 54.230469 65.386719 53.800781 65.289062 53.355469 65.253906 C 52.742188 65.203125 52.105469 65.28125 51.558594 65.367188 C 51.113281 65.445312 50.671875 65.550781 50.242188 65.6875 C 49.601562 65.894531 48.980469 66.171875 48.390625 66.496094 C 47.414062 67.039062 46.515625 67.734375 45.738281 68.527344 C 45.5625 68.703125 45.558594 68.988281 45.730469 69.164062 C 45.902344 69.34375 46.1875 69.34375 46.367188 69.167969 Z M 46.367188 69.167969 "/><path style=" stroke:none;fill-rule:evenodd;fill:#353535;fill-opacity:1;" d="M 42.453125 39.753906 C 41.6875 39.640625 40.9375 39.652344 40.210938 39.859375 C 39.921875 39.941406 39.636719 40.058594 39.367188 40.210938 C 38.992188 40.421875 38.636719 40.695312 38.292969 41.03125 C 38.09375 41.203125 38.070312 41.503906 38.246094 41.703125 C 38.417969 41.902344 38.71875 41.921875 38.914062 41.75 C 39.226562 41.507812 39.546875 41.335938 39.863281 41.183594 C 40.082031 41.082031 40.304688 41 40.53125 40.929688 C 41.117188 40.75 41.710938 40.679688 42.335938 40.730469 C 42.605469 40.761719 42.855469 40.566406 42.882812 40.300781 C 42.917969 40.03125 42.722656 39.785156 42.453125 39.753906 Z M 42.453125 39.753906 "/><path style=" stroke:none;fill-rule:evenodd;fill:#353535;fill-opacity:1;" d="M 55.261719 40.734375 C 55.882812 40.683594 56.484375 40.75 57.070312 40.933594 C 57.292969 41 57.515625 41.085938 57.738281 41.1875 C 58.050781 41.335938 58.375 41.511719 58.683594 41.75 C 58.882812 41.921875 59.183594 41.902344 59.351562 41.707031 C 59.523438 41.507812 59.503906 41.207031 59.304688 41.03125 C 58.960938 40.695312 58.605469 40.421875 58.234375 40.214844 C 57.957031 40.0625 57.675781 39.945312 57.386719 39.859375 C 56.660156 39.652344 55.910156 39.640625 55.148438 39.757812 C 54.875 39.789062 54.683594 40.03125 54.714844 40.304688 C 54.746094 40.570312 54.988281 40.765625 55.261719 40.734375 Z M 55.261719 40.734375 "/></g></svg>