<svg xmlns="http://www.w3.org/2000/svg" xmlns:xlink="http://www.w3.org/1999/xlink" width="133" zoomAndPan="magnify" viewBox="0 0 99.75 99.749996" height="133" preserveAspectRatio="xMidYMid meet" version="1.2"><defs><clipPath id="ae9b5fb4e1"><path d="M 0 0 L 99.5 0 L 99.5 99.5 L 0 99.5 Z M 0 0 "/></clipPath><clipPath id="f1a5efe1c2"><path d="M 49.75 0 C 22.273438 0 0 22.273438 0 49.75 C 0 77.226562 22.273438 99.5 49.75 99.5 C 77.226562 99.5 99.5 77.226562 99.5 49.75 C 99.5 22.273438 77.226562 0 49.75 0 Z M 49.75 0 "/></clipPath><clipPath id="95a4e7f235"><path d="M 0 0 L 99.5 0 L 99.5 99.5 L 0 99.5 Z M 0 0 "/></clipPath><clipPath id="760e09c235"><path d="M 49.75 0 C 22.273438 0 0 22.273438 0 49.75 C 0 77.226562 22.273438 99.5 49.75 99.5 C 77.226562 99.5 99.5 77.226562 99.5 49.75 C 99.5 22.273438 77.226562 0 49.75 0 Z M 49.75 0 "/></clipPath><clipPath id="127bc2c39c"><rect x="0" width="100" y="0" height="100"/></clipPath></defs><g id="cf310c5ff1"><g clip-rule="nonzero" clip-path="url(#ae9b5fb4e1)"><g clip-rule="nonzero" clip-path="url(#f1a5efe1c2)"><g transform="matrix(1,0,0,1,-0,-0.000000000000003885)"><g clip-path="url(#127bc2c39c)"><g clip-rule="nonzero" clip-path="url(#95a4e7f235)"><g clip-rule="nonzero" clip-path="url(#760e09c235)"><path style=" stroke:none;fill-rule:nonzero;fill:#6cc9ff;fill-opacity:1;" d="M 0 0 L 99.5 0 L 99.5 99.5 L 0 99.5 Z M 0 0 "/></g></g></g></g></g></g><path style=" stroke:none;fill-rule:evenodd;fill:#ffffff;fill-opacity:1;" d="M 20.558594 59.390625 C 16.25 63.714844 18.976562 70.386719 25.132812 70.542969 C 23.003906 77.039062 28.726562 80.863281 34.199219 77.78125 C 35.929688 82.953125 42.773438 85.742188 47.035156 80.277344 C 50.632812 84.679688 58.746094 84.820312 61.1875 78.222656 C 65.828125 81.378906 73.089844 79.023438 72.085938 72.96875 C 76.199219 74.460938 82.640625 67.578125 78.933594 62.472656 C 83.277344 58.566406 82.210938 52.855469 77.050781 51.738281 C 81.003906 45.328125 78.167969 41.902344 72.726562 42.75 L 49.125 35.519531 L 28.042969 39.570312 C 23.679688 40.617188 21.636719 43.203125 22.992188 49.007812 C 18.152344 48.160156 15.953125 56.320312 20.558594 59.390625 Z M 20.558594 59.390625 "/><path style=" stroke:none;fill-rule:evenodd;fill:#ffd9b6;fill-opacity:1;" d="M 33.542969 32.605469 C 26.867188 34.167969 17.769531 37.234375 20.761719 42.265625 C 23.710938 47.214844 32.917969 41.164062 35.761719 35.175781 Z M 33.542969 32.605469 "/><path style=" stroke:none;fill-rule:evenodd;fill:#ffd9b6;fill-opacity:1;" d="M 65.714844 32.605469 C 72.390625 34.167969 81.488281 37.234375 78.496094 42.265625 C 75.550781 47.214844 66.339844 41.164062 63.496094 35.175781 Z M 65.714844 32.605469 "/><path style=" stroke:none;fill-rule:evenodd;fill:#9d664b;fill-opacity:1;" d="M 33.210938 33.554688 C 29.011719 34.539062 21.5 37.417969 23.386719 40.585938 C 25.242188 43.703125 32.820312 38.941406 34.609375 35.171875 Z M 33.210938 33.554688 "/><path style=" stroke:none;fill-rule:evenodd;fill:#9d664b;fill-opacity:1;" d="M 66.046875 33.554688 C 70.25 34.539062 77.757812 37.417969 75.871094 40.585938 C 74.019531 43.703125 66.4375 38.941406 64.648438 35.171875 Z M 66.046875 33.554688 "/><path style=" stroke:none;fill-rule:evenodd;fill:#ffd9b6;fill-opacity:1;" d="M 26.132812 53.113281 C 26.015625 52.136719 25.960938 51.144531 25.960938 50.140625 C 25.960938 36.582031 36.695312 25.566406 49.921875 25.566406 C 63.144531 25.566406 73.878906 36.574219 73.878906 50.140625 C 73.878906 51.148438 73.820312 52.136719 73.707031 53.113281 C 75.472656 55.234375 76.464844 57.617188 76.464844 60.136719 C 76.464844 68.867188 64.570312 75.953125 49.921875 75.953125 C 35.269531 75.953125 23.375 68.867188 23.375 60.136719 C 23.375 57.617188 24.367188 55.234375 26.132812 53.113281 Z M 26.132812 53.113281 "/><path style=" stroke:none;fill-rule:evenodd;fill:#ffffff;fill-opacity:1;" d="M 30.894531 31.023438 C 28.332031 35.433594 32.171875 36.832031 37.179688 34.742188 C 38.964844 40.214844 48.550781 39.234375 50.875 35.230469 C 54.605469 39.613281 61.410156 37.699219 60.414062 33.566406 C 65.800781 36.96875 71.050781 36.195312 68.496094 32.097656 C 72.492188 30.324219 71.390625 23.742188 66.359375 23.785156 C 66.539062 18.898438 62.003906 16.917969 59.625 19.96875 C 57.832031 15.207031 51.957031 14.347656 49.074219 18.207031 C 46.46875 13.941406 40.59375 13.933594 40.097656 20.066406 C 35.824219 16.65625 31.265625 19.300781 33.027344 23.882812 C 27.804688 23.605469 25.921875 29.027344 30.894531 31.023438 Z M 30.894531 31.023438 "/><path style=" stroke:none;fill-rule:evenodd;fill:#ffffff;fill-opacity:1;" d="M 46.144531 46.34375 C 46.144531 44.105469 44.34375 42.289062 42.117188 42.289062 C 39.890625 42.289062 38.089844 44.109375 38.089844 46.34375 L 38.089844 48.628906 C 38.089844 50.867188 39.890625 52.683594 42.117188 52.683594 C 44.34375 52.683594 46.144531 50.863281 46.144531 48.628906 Z M 46.144531 46.34375 "/><path style=" stroke:none;fill-rule:evenodd;fill:#ffffff;fill-opacity:1;" d="M 53.027344 46.34375 C 53.027344 44.105469 54.828125 42.289062 57.054688 42.289062 C 59.28125 42.289062 61.085938 44.109375 61.085938 46.34375 L 61.085938 48.628906 C 61.085938 50.867188 59.28125 52.683594 57.054688 52.683594 C 54.828125 52.683594 53.027344 50.863281 53.027344 48.628906 Z M 53.027344 46.34375 "/><path style=" stroke:none;fill-rule:evenodd;fill:#512d1b;fill-opacity:1;" d="M 46.832031 46.46875 C 46.832031 44.46875 45.226562 42.851562 43.242188 42.851562 C 41.257812 42.851562 39.648438 44.46875 39.648438 46.46875 L 39.648438 48.5 C 39.648438 50.5 41.257812 52.117188 43.242188 52.117188 C 45.226562 52.117188 46.832031 50.5 46.832031 48.5 Z M 46.832031 46.46875 "/><path style=" stroke:none;fill-rule:evenodd;fill:#512d1b;fill-opacity:1;" d="M 52.34375 46.46875 C 52.34375 44.46875 53.953125 42.851562 55.9375 42.851562 C 57.921875 42.851562 59.527344 44.46875 59.527344 46.46875 L 59.527344 48.5 C 59.527344 50.5 57.921875 52.117188 55.9375 52.117188 C 53.953125 52.117188 52.34375 50.5 52.34375 48.5 Z M 52.34375 46.46875 "/><path style=" stroke:none;fill-rule:evenodd;fill:#512d1b;fill-opacity:1;" d="M 49.589844 55.667969 C 49.589844 55.667969 49.222656 57.132812 49.503906 58.53125 C 49.640625 59.21875 49.945312 59.882812 50.46875 60.394531 C 51.46875 61.324219 52.4375 61.519531 53.261719 61.382812 C 54.703125 61.140625 55.695312 59.839844 55.695312 59.839844 C 55.890625 59.59375 55.851562 59.230469 55.605469 59.03125 C 55.359375 58.832031 55 58.871094 54.800781 59.121094 C 54.800781 59.121094 54.070312 59.960938 53.074219 60.089844 C 52.570312 60.152344 51.996094 59.996094 51.394531 59.414062 C 50.960938 59.011719 50.78125 58.433594 50.703125 57.882812 C 50.5625 56.882812 50.753906 55.945312 50.753906 55.945312 C 50.828125 55.621094 50.628906 55.300781 50.3125 55.226562 C 49.980469 55.148438 49.660156 55.347656 49.589844 55.667969 Z M 49.589844 55.667969 "/><path style=" stroke:none;fill-rule:evenodd;fill:#512d1b;fill-opacity:1;" d="M 48.847656 55.941406 C 48.847656 55.941406 49.039062 56.882812 48.898438 57.878906 C 48.820312 58.429688 48.640625 59.007812 48.207031 59.410156 C 47.605469 59.992188 47.03125 60.148438 46.527344 60.085938 C 45.527344 59.957031 44.800781 59.117188 44.800781 59.117188 C 44.601562 58.867188 44.242188 58.832031 43.996094 59.027344 C 43.75 59.226562 43.710938 59.589844 43.90625 59.835938 C 43.90625 59.835938 44.898438 61.136719 46.339844 61.378906 C 47.164062 61.515625 48.132812 61.320312 49.132812 60.390625 C 49.652344 59.878906 49.957031 59.214844 50.097656 58.527344 C 50.378906 57.128906 50.011719 55.664062 50.011719 55.664062 C 49.9375 55.34375 49.617188 55.144531 49.296875 55.21875 C 48.96875 55.296875 48.773438 55.617188 48.847656 55.941406 Z M 48.847656 55.941406 "/><path style=" stroke:none;fill-rule:evenodd;fill:#9d664b;fill-opacity:1;" d="M 46.308594 53.65625 C 45.808594 54.277344 47.527344 57.34375 49.839844 57.421875 C 52.195312 57.5 53.789062 54.402344 53.242188 53.59375 C 52.648438 52.726562 46.789062 53.054688 46.308594 53.65625 Z M 46.308594 53.65625 "/><path style=" stroke:none;fill-rule:evenodd;fill:#512d1b;fill-opacity:1;" d="M 42.480469 38.734375 C 41.589844 38.601562 40.707031 38.613281 39.859375 38.859375 C 39.519531 38.957031 39.1875 39.09375 38.871094 39.273438 C 38.433594 39.519531 38.015625 39.839844 37.617188 40.238281 C 37.382812 40.441406 37.359375 40.792969 37.558594 41.027344 C 37.761719 41.257812 38.113281 41.28125 38.34375 41.082031 C 38.707031 40.800781 39.082031 40.59375 39.449219 40.421875 C 39.710938 40.300781 39.972656 40.203125 40.230469 40.121094 C 40.914062 39.910156 41.617188 39.828125 42.34375 39.890625 C 42.660156 39.925781 42.945312 39.699219 42.984375 39.382812 C 43.023438 39.0625 42.796875 38.773438 42.480469 38.734375 Z M 42.480469 38.734375 "/><path style=" stroke:none;fill-rule:evenodd;fill:#512d1b;fill-opacity:1;" d="M 56.34375 39.886719 C 57.074219 39.824219 57.773438 39.90625 58.457031 40.117188 C 58.71875 40.199219 58.980469 40.296875 59.238281 40.417969 C 59.605469 40.59375 59.980469 40.796875 60.34375 41.078125 C 60.574219 41.28125 60.925781 41.257812 61.128906 41.023438 C 61.332031 40.785156 61.304688 40.4375 61.070312 40.234375 C 60.671875 39.832031 60.25 39.515625 59.820312 39.269531 C 59.5 39.089844 59.164062 38.953125 58.828125 38.855469 C 57.980469 38.609375 57.101562 38.597656 56.207031 38.730469 C 55.890625 38.769531 55.664062 39.058594 55.703125 39.375 C 55.738281 39.695312 56.023438 39.921875 56.34375 39.886719 Z M 56.34375 39.886719 "/></g></svg>