<svg xmlns="http://www.w3.org/2000/svg" xmlns:xlink="http://www.w3.org/1999/xlink" width="133" zoomAndPan="magnify" viewBox="0 0 99.75 99.749996" height="133" preserveAspectRatio="xMidYMid meet" version="1.2"><defs><clipPath id="b90cf41873"><path d="M 0 0 L 99.5 0 L 99.5 99.5 L 0 99.5 Z M 0 0 "/></clipPath><clipPath id="ce8bba3533"><path d="M 49.75 0 C 22.273438 0 0 22.273438 0 49.75 C 0 77.226562 22.273438 99.5 49.75 99.5 C 77.226562 99.5 99.5 77.226562 99.5 49.75 C 99.5 22.273438 77.226562 0 49.75 0 Z M 49.75 0 "/></clipPath><clipPath id="b8918e113d"><path d="M 0 0 L 99.5 0 L 99.5 99.5 L 0 99.5 Z M 0 0 "/></clipPath><clipPath id="2d440839ea"><path d="M 49.75 0 C 22.273438 0 0 22.273438 0 49.75 C 0 77.226562 22.273438 99.5 49.75 99.5 C 77.226562 99.5 99.5 77.226562 99.5 49.75 C 99.5 22.273438 77.226562 0 49.75 0 Z M 49.75 0 "/></clipPath><clipPath id="94a2d76045"><rect x="0" width="100" y="0" height="100"/></clipPath><clipPath id="8e319125ab"><path d="M 18 24 L 82 24 L 82 83.917969 L 18 83.917969 Z M 18 24 "/></clipPath></defs><g id="668d27d98d"><g clip-rule="nonzero" clip-path="url(#b90cf41873)"><g clip-rule="nonzero" clip-path="url(#ce8bba3533)"><g transform="matrix(1,0,0,1,-0,-0.000000000000003885)"><g clip-path="url(#94a2d76045)"><g clip-rule="nonzero" clip-path="url(#b8918e113d)"><g clip-rule="nonzero" clip-path="url(#2d440839ea)"><path style=" stroke:none;fill-rule:nonzero;fill:#ffbae4;fill-opacity:1;" d="M 0 0 L 99.5 0 L 99.5 99.5 L 0 99.5 Z M 0 0 "/></g></g></g></g></g></g><g clip-rule="nonzero" clip-path="url(#8e319125ab)"><path style=" stroke:none;fill-rule:evenodd;fill:#f7993f;fill-opacity:1;" d="M 21.453125 56.808594 C 21.3125 55.652344 21.246094 54.472656 21.246094 53.28125 C 21.246094 37.1875 34.023438 24.113281 49.765625 24.113281 C 65.507812 24.113281 78.285156 37.179688 78.285156 53.28125 C 78.285156 54.476562 78.214844 55.652344 78.078125 56.808594 C 80.179688 59.324219 81.363281 62.15625 81.363281 65.148438 C 81.363281 75.507812 67.203125 83.921875 49.769531 83.921875 C 32.335938 83.921875 18.175781 75.507812 18.175781 65.148438 C 18.171875 62.15625 19.351562 59.320312 21.453125 56.808594 Z M 21.453125 56.808594 "/></g><path style=" stroke:none;fill-rule:evenodd;fill:#f7993f;fill-opacity:1;" d="M 61.585938 29.476562 C 61.585938 29.476562 76.523438 16.109375 81.09375 19.6875 C 83.394531 21.488281 74.546875 41.273438 74.546875 41.273438 Z M 61.585938 29.476562 "/><path style=" stroke:none;fill-rule:evenodd;fill:#f7993f;fill-opacity:1;" d="M 37.917969 29.207031 C 37.917969 29.207031 22.980469 15.839844 18.414062 19.414062 C 16.113281 21.214844 24.957031 41.003906 24.957031 41.003906 Z M 37.917969 29.207031 "/><path style=" stroke:none;fill-rule:evenodd;fill:#ffd9b6;fill-opacity:1;" d="M 65.675781 29.761719 C 65.675781 29.761719 73.273438 23.496094 75.96875 25.605469 C 77.324219 26.667969 73.3125 36.71875 73.3125 36.71875 C 71.4375 33.839844 68.84375 31.566406 65.675781 29.761719 Z M 65.675781 29.761719 "/><path style=" stroke:none;fill-rule:evenodd;fill:#ffd9b6;fill-opacity:1;" d="M 33.835938 29.496094 C 33.835938 29.496094 26.238281 23.230469 23.542969 25.339844 C 22.1875 26.402344 26.199219 36.453125 26.199219 36.453125 C 28.074219 33.574219 30.667969 31.296875 33.835938 29.496094 Z M 33.835938 29.496094 "/><path style=" stroke:none;fill-rule:evenodd;fill:#ffffff;fill-opacity:1;" d="M 45.277344 48.773438 C 45.277344 46.113281 43.132812 43.957031 40.484375 43.957031 C 37.832031 43.957031 35.6875 46.117188 35.6875 48.773438 L 35.6875 51.480469 C 35.6875 54.140625 37.832031 56.292969 40.484375 56.292969 C 43.132812 56.292969 45.277344 54.136719 45.277344 51.480469 Z M 45.277344 48.773438 "/><path style=" stroke:none;fill-rule:evenodd;fill:#ffffff;fill-opacity:1;" d="M 53.464844 48.773438 C 53.464844 46.113281 55.609375 43.957031 58.257812 43.957031 C 60.910156 43.957031 63.054688 46.117188 63.054688 48.773438 L 63.054688 51.480469 C 63.054688 54.140625 60.910156 56.292969 58.257812 56.292969 C 55.609375 56.292969 53.464844 54.136719 53.464844 51.480469 Z M 53.464844 48.773438 "/><path style=" stroke:none;fill-rule:evenodd;fill:#512d1b;fill-opacity:1;" d="M 46.089844 48.921875 C 46.089844 46.550781 44.175781 44.628906 41.816406 44.628906 C 39.453125 44.628906 37.539062 46.550781 37.539062 48.921875 L 37.539062 51.335938 C 37.539062 53.707031 39.453125 55.628906 41.816406 55.628906 C 44.175781 55.628906 46.089844 53.707031 46.089844 51.335938 Z M 46.089844 48.921875 "/><path style=" stroke:none;fill-rule:evenodd;fill:#512d1b;fill-opacity:1;" d="M 52.652344 48.921875 C 52.652344 46.550781 54.566406 44.628906 56.925781 44.628906 C 59.289062 44.628906 61.203125 46.550781 61.203125 48.921875 L 61.203125 51.335938 C 61.203125 53.707031 59.289062 55.628906 56.925781 55.628906 C 54.566406 55.628906 52.652344 53.707031 52.652344 51.335938 Z M 52.652344 48.921875 "/><path style=" stroke:none;fill-rule:evenodd;fill:#ffd9b6;fill-opacity:1;" d="M 49.496094 57.101562 C 55.800781 57.101562 61.183594 62.222656 61.183594 68.707031 C 61.183594 75.1875 56.070312 80.441406 49.765625 80.441406 C 43.460938 80.441406 38.078125 75.320312 38.078125 68.835938 C 38.078125 62.351562 43.191406 57.101562 49.496094 57.101562 Z M 49.496094 57.101562 "/><path style=" stroke:none;fill-rule:evenodd;fill:#ffd9b6;fill-opacity:1;" d="M 46.253906 24.3125 C 47.410156 24.179688 48.578125 24.109375 49.765625 24.109375 C 50.792969 24.109375 51.808594 24.160156 52.808594 24.257812 C 52.71875 27.410156 51.074219 36.1875 49.660156 36.515625 C 48.109375 36.882812 46.640625 27.765625 46.253906 24.3125 Z M 44.753906 24.523438 C 44.914062 27.417969 44.109375 34.984375 42.714844 35.3125 C 41.21875 35.660156 40.546875 28.785156 40.34375 25.609375 C 41.765625 25.140625 43.242188 24.773438 44.753906 24.523438 Z M 54.847656 24.539062 C 56.386719 24.796875 57.882812 25.175781 59.332031 25.65625 C 59.289062 29.023438 58.515625 35.023438 57.273438 35.3125 C 55.578125 35.707031 54.933594 26.761719 54.847656 24.539062 Z M 54.847656 24.539062 "/><path style=" stroke:none;fill-rule:evenodd;fill:#ffd9b6;fill-opacity:1;" d="M 21.394531 50.273438 C 23.742188 50.597656 26.160156 51.074219 26.425781 51.488281 C 26.699219 51.914062 23.8125 53.074219 21.25 53.796875 C 21.246094 53.625 21.246094 53.449219 21.246094 53.277344 C 21.246094 52.261719 21.296875 51.261719 21.394531 50.273438 Z M 22.386719 45.101562 C 24.96875 45.796875 28.152344 46.855469 28.386719 47.386719 C 28.632812 47.933594 24.363281 48.839844 21.542969 49.050781 C 21.734375 47.707031 22.019531 46.386719 22.386719 45.101562 Z M 22.386719 45.101562 "/><path style=" stroke:none;fill-rule:evenodd;fill:#ffd9b6;fill-opacity:1;" d="M 78.136719 50.265625 C 78.238281 51.253906 78.285156 52.257812 78.285156 53.277344 C 78.285156 53.453125 78.285156 53.632812 78.28125 53.816406 C 75.703125 53.09375 72.765625 51.917969 73.039062 51.488281 C 73.308594 51.070312 75.765625 50.585938 78.136719 50.265625 Z M 77.140625 45.089844 C 77.511719 46.378906 77.792969 47.699219 77.988281 49.058594 C 75.167969 48.855469 70.832031 47.9375 71.082031 47.386719 C 71.320312 46.855469 74.554688 45.785156 77.140625 45.089844 Z M 77.140625 45.089844 "/><path style=" stroke:none;fill-rule:evenodd;fill:#512d1b;fill-opacity:1;" d="M 44.6875 56.511719 C 43.980469 57.617188 46.414062 63.066406 49.683594 63.207031 C 53.015625 63.347656 55.277344 57.84375 54.496094 56.410156 C 53.660156 54.863281 45.363281 55.449219 44.6875 56.511719 Z M 44.6875 56.511719 "/><path style=" stroke:none;fill-rule:evenodd;fill:#512d1b;fill-opacity:1;" d="M 49.167969 61.382812 C 49.167969 61.382812 48.609375 63.542969 49.03125 65.621094 C 49.238281 66.652344 49.699219 67.652344 50.480469 68.421875 C 51.992188 69.824219 53.460938 70.109375 54.699219 69.902344 C 56.863281 69.535156 58.339844 67.585938 58.339844 67.585938 C 58.683594 67.160156 58.613281 66.542969 58.191406 66.199219 C 57.769531 65.855469 57.152344 65.925781 56.8125 66.347656 C 56.8125 66.347656 55.78125 67.511719 54.378906 67.683594 C 53.679688 67.769531 52.890625 67.542969 52.058594 66.742188 C 51.453125 66.183594 51.207031 65.382812 51.09375 64.621094 C 50.882812 63.191406 51.144531 61.851562 51.144531 61.851562 C 51.277344 61.300781 50.933594 60.75 50.386719 60.625 C 49.847656 60.488281 49.300781 60.832031 49.167969 61.382812 Z M 49.167969 61.382812 "/><path style=" stroke:none;fill-rule:evenodd;fill:#512d1b;fill-opacity:1;" d="M 48.085938 61.84375 C 48.085938 61.84375 48.351562 63.191406 48.140625 64.617188 C 48.027344 65.378906 47.777344 66.179688 47.171875 66.734375 C 46.347656 67.535156 45.558594 67.765625 44.855469 67.675781 C 43.457031 67.507812 42.421875 66.34375 42.421875 66.34375 C 42.078125 65.917969 41.464844 65.851562 41.042969 66.195312 C 40.617188 66.539062 40.550781 67.15625 40.890625 67.582031 C 40.890625 67.582031 42.367188 69.53125 44.53125 69.898438 C 45.773438 70.109375 47.242188 69.820312 48.75 68.414062 C 49.539062 67.648438 49.996094 66.648438 50.203125 65.617188 C 50.617188 63.539062 50.0625 61.378906 50.0625 61.378906 C 49.933594 60.828125 49.386719 60.488281 48.84375 60.613281 C 48.296875 60.75 47.960938 61.300781 48.085938 61.84375 Z M 48.085938 61.84375 "/><path style=" stroke:none;fill-rule:evenodd;fill:#ffffff;fill-opacity:1;" d="M 62.65625 59.488281 C 62.65625 59.488281 64.5 59.015625 66.539062 58.464844 C 67.089844 58.316406 67.65625 58.167969 68.199219 58.007812 C 70.15625 57.449219 71.863281 56.910156 71.863281 56.910156 C 72.085938 56.847656 72.21875 56.617188 72.15625 56.390625 C 72.09375 56.167969 71.863281 56.03125 71.636719 56.09375 C 71.636719 56.09375 69.898438 56.519531 67.933594 57.046875 C 67.386719 57.195312 66.824219 57.355469 66.28125 57.511719 C 64.25 58.089844 62.421875 58.640625 62.421875 58.640625 C 62.191406 58.703125 62.054688 58.945312 62.121094 59.175781 C 62.179688 59.417969 62.417969 59.550781 62.65625 59.488281 Z M 62.65625 59.488281 "/><path style=" stroke:none;fill-rule:evenodd;fill:#ffffff;fill-opacity:1;" d="M 36.1875 58.644531 C 36.1875 58.644531 34.359375 58.097656 32.332031 57.515625 C 31.78125 57.355469 31.21875 57.195312 30.675781 57.050781 C 28.714844 56.523438 26.972656 56.101562 26.972656 56.101562 C 26.753906 56.039062 26.515625 56.167969 26.453125 56.394531 C 26.390625 56.617188 26.523438 56.855469 26.746094 56.917969 C 26.746094 56.917969 28.460938 57.453125 30.414062 58.011719 C 30.957031 58.167969 31.519531 58.320312 32.070312 58.472656 C 34.109375 59.019531 35.957031 59.496094 35.957031 59.496094 C 36.1875 59.558594 36.429688 59.421875 36.492188 59.191406 C 36.558594 58.949219 36.417969 58.707031 36.1875 58.644531 Z M 36.1875 58.644531 "/><path style=" stroke:none;fill-rule:evenodd;fill:#ffffff;fill-opacity:1;" d="M 40.917969 39.738281 C 39.851562 39.582031 38.804688 39.59375 37.792969 39.882812 C 37.390625 40 36.996094 40.164062 36.617188 40.375 C 36.097656 40.671875 35.601562 41.046875 35.125 41.519531 C 34.847656 41.761719 34.816406 42.183594 35.058594 42.457031 C 35.296875 42.734375 35.71875 42.761719 35.992188 42.523438 C 36.425781 42.191406 36.871094 41.945312 37.308594 41.742188 C 37.617188 41.597656 37.929688 41.480469 38.238281 41.386719 C 39.050781 41.136719 39.886719 41.039062 40.753906 41.109375 C 41.128906 41.152344 41.46875 40.882812 41.511719 40.507812 C 41.5625 40.125 41.292969 39.789062 40.917969 39.738281 Z M 40.917969 39.738281 "/><path style=" stroke:none;fill-rule:evenodd;fill:#ffffff;fill-opacity:1;" d="M 57.414062 41.109375 C 58.28125 41.039062 59.113281 41.136719 59.925781 41.386719 C 60.238281 41.480469 60.546875 41.597656 60.855469 41.742188 C 61.292969 41.949219 61.742188 42.191406 62.171875 42.523438 C 62.449219 42.765625 62.867188 42.738281 63.105469 42.457031 C 63.347656 42.183594 63.316406 41.761719 63.039062 41.519531 C 62.5625 41.054688 62.0625 40.671875 61.546875 40.375 C 61.167969 40.164062 60.769531 40 60.371094 39.882812 C 59.359375 39.59375 58.3125 39.582031 57.25 39.738281 C 56.875 39.78125 56.605469 40.125 56.648438 40.503906 C 56.695312 40.882812 57.039062 41.152344 57.414062 41.109375 Z M 57.414062 41.109375 "/><path style=" stroke:none;fill-rule:evenodd;fill:#ffffff;fill-opacity:1;" d="M 64.820312 64.003906 C 64.820312 64.003906 66.34375 63.953125 68.03125 63.878906 C 68.488281 63.859375 68.953125 63.835938 69.40625 63.804688 C 71.03125 63.699219 72.460938 63.558594 72.460938 63.558594 C 72.691406 63.542969 72.871094 63.347656 72.859375 63.113281 C 72.84375 62.882812 72.648438 62.703125 72.417969 62.71875 C 72.417969 62.71875 70.984375 62.742188 69.359375 62.816406 C 68.90625 62.835938 68.441406 62.867188 67.984375 62.898438 C 66.296875 63.007812 64.777344 63.132812 64.777344 63.132812 C 64.535156 63.148438 64.351562 63.355469 64.363281 63.597656 C 64.371094 63.828125 64.578125 64.019531 64.820312 64.003906 Z M 64.820312 64.003906 "/><path style=" stroke:none;fill-rule:evenodd;fill:#ffffff;fill-opacity:1;" d="M 33.839844 63.128906 C 33.839844 63.128906 32.320312 63.003906 30.632812 62.894531 C 30.175781 62.863281 29.710938 62.835938 29.257812 62.8125 C 27.632812 62.738281 26.199219 62.714844 26.199219 62.714844 C 25.96875 62.699219 25.765625 62.878906 25.757812 63.109375 C 25.746094 63.34375 25.921875 63.539062 26.152344 63.554688 C 26.152344 63.554688 27.578125 63.695312 29.207031 63.800781 C 29.65625 63.828125 30.125 63.855469 30.582031 63.871094 C 32.269531 63.949219 33.792969 64 33.792969 64 C 34.035156 64.011719 34.242188 63.824219 34.253906 63.589844 C 34.265625 63.347656 34.082031 63.144531 33.839844 63.128906 Z M 33.839844 63.128906 "/><path style=" stroke:none;fill-rule:evenodd;fill:#ffffff;fill-opacity:1;" d="M 63.386719 68.199219 C 63.386719 68.199219 65.1875 68.796875 67.199219 69.433594 C 67.742188 69.609375 68.296875 69.78125 68.839844 69.945312 C 70.78125 70.523438 72.507812 71 72.507812 71 C 72.730469 71.066406 72.964844 70.941406 73.03125 70.71875 C 73.101562 70.496094 72.976562 70.261719 72.753906 70.191406 C 72.753906 70.191406 71.0625 69.613281 69.128906 68.996094 C 68.589844 68.820312 68.03125 68.65625 67.488281 68.492188 C 65.472656 67.890625 63.640625 67.363281 63.640625 67.363281 C 63.410156 67.289062 63.167969 67.421875 63.097656 67.652344 C 63.03125 67.878906 63.15625 68.125 63.386719 68.199219 Z M 63.386719 68.199219 "/><path style=" stroke:none;fill-rule:evenodd;fill:#ffffff;fill-opacity:1;" d="M 34.96875 67.363281 C 34.96875 67.363281 33.140625 67.882812 31.121094 68.492188 C 30.574219 68.65625 30.019531 68.820312 29.480469 68.996094 C 27.546875 69.609375 25.851562 70.191406 25.851562 70.191406 C 25.632812 70.261719 25.507812 70.496094 25.574219 70.71875 C 25.640625 70.941406 25.878906 71.066406 26.097656 71 C 26.097656 71 27.824219 70.523438 29.769531 69.945312 C 30.304688 69.78125 30.863281 69.609375 31.40625 69.433594 C 33.414062 68.796875 35.222656 68.199219 35.222656 68.199219 C 35.453125 68.125 35.582031 67.882812 35.511719 67.652344 C 35.4375 67.421875 35.199219 67.289062 34.96875 67.363281 Z M 34.96875 67.363281 "/></g></svg>