<svg xmlns="http://www.w3.org/2000/svg" xmlns:xlink="http://www.w3.org/1999/xlink" width="133" zoomAndPan="magnify" viewBox="0 0 99.75 99.749996" height="133" preserveAspectRatio="xMidYMid meet" version="1.2"><defs><clipPath id="5dd2fe8dec"><path d="M 0 0 L 99.5 0 L 99.5 99.5 L 0 99.5 Z M 0 0 "/></clipPath><clipPath id="3af13743ea"><path d="M 49.75 0 C 22.273438 0 0 22.273438 0 49.75 C 0 77.226562 22.273438 99.5 49.75 99.5 C 77.226562 99.5 99.5 77.226562 99.5 49.75 C 99.5 22.273438 77.226562 0 49.75 0 Z M 49.75 0 "/></clipPath><clipPath id="2497168cac"><path d="M 0 0 L 99.5 0 L 99.5 99.5 L 0 99.5 Z M 0 0 "/></clipPath><clipPath id="12acdd34de"><path d="M 49.75 0 C 22.273438 0 0 22.273438 0 49.75 C 0 77.226562 22.273438 99.5 49.75 99.5 C 77.226562 99.5 99.5 77.226562 99.5 49.75 C 99.5 22.273438 77.226562 0 49.75 0 Z M 49.75 0 "/></clipPath><clipPath id="0fe7cc81e3"><rect x="0" width="100" y="0" height="100"/></clipPath><clipPath id="ea384c5679"><path d="M 21 25 L 78 25 L 78 78.585938 L 21 78.585938 Z M 21 25 "/></clipPath></defs><g id="54c18154d2"><g clip-rule="nonzero" clip-path="url(#5dd2fe8dec)"><g clip-rule="nonzero" clip-path="url(#3af13743ea)"><g transform="matrix(1,0,0,1,-0,-0.000000000000003885)"><g clip-path="url(#0fe7cc81e3)"><g clip-rule="nonzero" clip-path="url(#2497168cac)"><g clip-rule="nonzero" clip-path="url(#12acdd34de)"><path style=" stroke:none;fill-rule:nonzero;fill:#ffa0a0;fill-opacity:1;" d="M 0 0 L 99.5 0 L 99.5 99.5 L 0 99.5 Z M 0 0 "/></g></g></g></g></g></g><g clip-rule="nonzero" clip-path="url(#ea384c5679)"><path style=" stroke:none;fill-rule:evenodd;fill:#9d664b;fill-opacity:1;" d="M 24 54.582031 C 23.875 53.554688 23.816406 52.515625 23.816406 51.460938 C 23.816406 37.234375 35.140625 25.675781 49.09375 25.675781 C 63.042969 25.675781 74.371094 37.226562 74.371094 51.460938 C 74.371094 52.515625 74.304688 53.554688 74.1875 54.582031 C 76.050781 56.804688 77.097656 59.304688 77.097656 61.949219 C 77.097656 71.109375 64.550781 78.546875 49.097656 78.546875 C 33.644531 78.546875 21.097656 71.113281 21.097656 61.949219 C 21.09375 59.304688 22.136719 56.804688 24 54.582031 Z M 24 54.582031 "/></g><path style=" stroke:none;fill-rule:evenodd;fill:#875339;fill-opacity:1;" d="M 39.9375 27.421875 C 40.710938 31.699219 37.992188 34.882812 33.902344 37.265625 C 31.71875 38.542969 29.007812 39.789062 26.210938 40.5 C 28.960938 34.539062 33.886719 29.824219 39.9375 27.421875 Z M 39.9375 27.421875 "/><path style=" stroke:none;fill-rule:evenodd;fill:#875339;fill-opacity:1;" d="M 47.074219 25.757812 C 47.738281 25.703125 48.410156 25.675781 49.09375 25.675781 C 62.785156 25.675781 73.941406 36.800781 74.355469 50.664062 C 73.519531 50.726562 72.65625 50.703125 71.769531 50.585938 C 69.859375 50.335938 67.363281 49.886719 65.992188 48.417969 C 63.101562 45.3125 65.140625 40.867188 62.332031 38.273438 C 60.769531 36.828125 58.433594 35.554688 56.347656 35.128906 C 54.363281 34.71875 51.820312 34.75 50.097656 33.515625 C 48.058594 32.050781 47.246094 28.519531 47.074219 25.757812 Z M 47.074219 25.757812 "/><path style=" stroke:none;fill-rule:evenodd;fill:#875339;fill-opacity:1;" d="M 38.59375 30.183594 C 38.59375 30.183594 30.371094 21.023438 22.964844 23.902344 C 18.753906 25.535156 16.085938 37.585938 17.6875 37.957031 C 24.3125 39.5 26.378906 31.460938 27.003906 32.714844 C 28.449219 35.605469 31.726562 35.636719 31.726562 35.636719 Z M 38.59375 30.183594 "/><path style=" stroke:none;fill-rule:evenodd;fill:#875339;fill-opacity:1;" d="M 60.910156 30.183594 C 60.910156 30.183594 69.132812 21.023438 76.539062 23.902344 C 80.75 25.535156 83.417969 37.585938 81.816406 37.957031 C 75.191406 39.5 73.125 31.460938 72.5 32.714844 C 71.054688 35.605469 67.777344 35.636719 67.777344 35.636719 Z M 60.910156 30.183594 "/><path style=" stroke:none;fill-rule:evenodd;fill:#875339;fill-opacity:1;" d="M 47.488281 52.410156 C 50.238281 49.054688 48.449219 42.902344 44.347656 42.152344 C 37.1875 40.839844 33.5 45.371094 31.34375 47.488281 C 27.609375 51.15625 29.699219 57.152344 36.082031 57.5625 C 40.601562 57.855469 45.125 55.28125 47.488281 52.410156 Z M 47.488281 52.410156 "/><path style=" stroke:none;fill-rule:evenodd;fill:#ffffff;fill-opacity:1;" d="M 45.117188 47.476562 C 45.117188 45.125 43.214844 43.21875 40.867188 43.21875 C 38.519531 43.21875 36.617188 45.128906 36.617188 47.476562 L 36.617188 49.867188 C 36.617188 52.21875 38.519531 54.125 40.867188 54.125 C 43.214844 54.125 45.117188 52.214844 45.117188 49.867188 Z M 45.117188 47.476562 "/><path style=" stroke:none;fill-rule:evenodd;fill:#ffffff;fill-opacity:1;" d="M 52.371094 47.476562 C 52.371094 45.125 54.273438 43.21875 56.621094 43.21875 C 58.96875 43.21875 60.871094 45.128906 60.871094 47.476562 L 60.871094 49.867188 C 60.871094 52.21875 58.96875 54.125 56.621094 54.125 C 54.273438 54.125 52.371094 52.214844 52.371094 49.867188 Z M 52.371094 47.476562 "/><path style=" stroke:none;fill-rule:evenodd;fill:#512d1b;fill-opacity:1;" d="M 45.835938 47.605469 C 45.835938 45.511719 44.140625 43.8125 42.046875 43.8125 C 39.953125 43.8125 38.257812 45.511719 38.257812 47.605469 L 38.257812 49.742188 C 38.257812 51.835938 39.953125 53.535156 42.046875 53.535156 C 44.140625 53.535156 45.835938 51.835938 45.835938 49.742188 Z M 45.835938 47.605469 "/><path style=" stroke:none;fill-rule:evenodd;fill:#512d1b;fill-opacity:1;" d="M 51.652344 47.605469 C 51.652344 45.511719 53.347656 43.8125 55.441406 43.8125 C 57.53125 43.8125 59.230469 45.511719 59.230469 47.605469 L 59.230469 49.742188 C 59.230469 51.835938 57.53125 53.535156 55.441406 53.535156 C 53.347656 53.535156 51.652344 51.835938 51.652344 49.742188 Z M 51.652344 47.605469 "/><path style=" stroke:none;fill-rule:evenodd;fill:#ffd9b6;fill-opacity:1;" d="M 48.855469 54.835938 C 55.097656 54.835938 59.636719 59.613281 59.636719 65.339844 C 59.636719 71.066406 55.332031 75.0625 49.09375 75.0625 C 42.851562 75.0625 38.257812 70.804688 38.257812 65.078125 C 38.257812 59.351562 42.613281 54.835938 48.855469 54.835938 Z M 48.855469 54.835938 "/><path style=" stroke:none;fill-rule:evenodd;fill:#512d1b;fill-opacity:1;" d="M 44.59375 54.316406 C 43.964844 55.292969 46.121094 60.113281 49.019531 60.234375 C 51.976562 60.359375 53.976562 55.492188 53.289062 54.226562 C 52.546875 52.859375 45.191406 53.378906 44.59375 54.316406 Z M 44.59375 54.316406 "/><path style=" stroke:none;fill-rule:evenodd;fill:#512d1b;fill-opacity:1;" d="M 48.566406 58.621094 C 48.566406 58.621094 48.070312 60.535156 48.441406 62.367188 C 48.625 63.28125 49.035156 64.164062 49.726562 64.84375 C 51.066406 66.085938 52.367188 66.335938 53.464844 66.152344 C 55.382812 65.828125 56.691406 64.105469 56.691406 64.105469 C 56.996094 63.730469 56.9375 63.183594 56.5625 62.882812 C 56.1875 62.578125 55.640625 62.636719 55.335938 63.011719 C 55.335938 63.011719 54.425781 64.042969 53.179688 64.191406 C 52.5625 64.269531 51.863281 64.066406 51.125 63.359375 C 50.589844 62.867188 50.371094 62.160156 50.269531 61.484375 C 50.082031 60.222656 50.316406 59.035156 50.316406 59.035156 C 50.433594 58.550781 50.128906 58.0625 49.644531 57.953125 C 49.164062 57.835938 48.679688 58.136719 48.566406 58.621094 Z M 48.566406 58.621094 "/><path style=" stroke:none;fill-rule:evenodd;fill:#512d1b;fill-opacity:1;" d="M 47.605469 59.035156 C 47.605469 59.035156 47.839844 60.226562 47.652344 61.484375 C 47.554688 62.160156 47.332031 62.867188 46.796875 63.359375 C 46.058594 64.066406 45.363281 64.269531 44.742188 64.191406 C 43.5 64.042969 42.585938 63.011719 42.585938 63.011719 C 42.28125 62.636719 41.738281 62.578125 41.359375 62.882812 C 40.984375 63.183594 40.925781 63.730469 41.230469 64.105469 C 41.230469 64.105469 42.539062 65.828125 44.457031 66.152344 C 45.554688 66.34375 46.855469 66.085938 48.195312 64.84375 C 48.894531 64.164062 49.296875 63.28125 49.480469 62.367188 C 49.847656 60.535156 49.359375 58.621094 49.359375 58.621094 C 49.242188 58.136719 48.757812 57.835938 48.273438 57.949219 C 47.792969 58.0625 47.496094 58.550781 47.605469 59.035156 Z M 47.605469 59.035156 "/><path style=" stroke:none;fill-rule:evenodd;fill:#512d1b;fill-opacity:1;" d="M 41.25 39.496094 C 40.308594 39.355469 39.378906 39.367188 38.484375 39.621094 C 38.125 39.726562 37.777344 39.871094 37.441406 40.058594 C 36.980469 40.316406 36.539062 40.652344 36.117188 41.070312 C 35.871094 41.28125 35.84375 41.652344 36.058594 41.898438 C 36.273438 42.140625 36.644531 42.164062 36.886719 41.957031 C 37.269531 41.664062 37.664062 41.445312 38.054688 41.265625 C 38.328125 41.136719 38.601562 41.035156 38.875 40.949219 C 39.597656 40.726562 40.335938 40.640625 41.105469 40.707031 C 41.4375 40.746094 41.742188 40.507812 41.777344 40.171875 C 41.820312 39.835938 41.582031 39.53125 41.25 39.496094 Z M 41.25 39.496094 "/><path style=" stroke:none;fill-rule:evenodd;fill:#512d1b;fill-opacity:1;" d="M 55.871094 40.703125 C 56.640625 40.636719 57.378906 40.722656 58.101562 40.945312 C 58.375 41.03125 58.648438 41.132812 58.921875 41.261719 C 59.308594 41.445312 59.707031 41.65625 60.089844 41.953125 C 60.332031 42.164062 60.703125 42.140625 60.917969 41.894531 C 61.128906 41.644531 61.105469 41.277344 60.859375 41.066406 C 60.4375 40.652344 59.996094 40.3125 59.535156 40.054688 C 59.199219 39.867188 58.847656 39.71875 58.492188 39.617188 C 57.597656 39.363281 56.671875 39.347656 55.726562 39.488281 C 55.394531 39.527344 55.15625 39.832031 55.191406 40.164062 C 55.234375 40.5 55.539062 40.742188 55.871094 40.703125 Z M 55.871094 40.703125 "/></g></svg>