<svg xmlns="http://www.w3.org/2000/svg" xmlns:xlink="http://www.w3.org/1999/xlink" width="133" zoomAndPan="magnify" viewBox="0 0 99.75 99.749996" height="133" preserveAspectRatio="xMidYMid meet" version="1.2"><defs><clipPath id="abe4986c06"><path d="M 0 0 L 99.5 0 L 99.5 99.5 L 0 99.5 Z M 0 0 "/></clipPath><clipPath id="c93132cff5"><path d="M 49.75 0 C 22.273438 0 0 22.273438 0 49.75 C 0 77.226562 22.273438 99.5 49.75 99.5 C 77.226562 99.5 99.5 77.226562 99.5 49.75 C 99.5 22.273438 77.226562 0 49.75 0 Z M 49.75 0 "/></clipPath><clipPath id="43e7fa1a84"><path d="M 0 0 L 99.5 0 L 99.5 99.5 L 0 99.5 Z M 0 0 "/></clipPath><clipPath id="bf6e513611"><path d="M 49.75 0 C 22.273438 0 0 22.273438 0 49.75 C 0 77.226562 22.273438 99.5 49.75 99.5 C 77.226562 99.5 99.5 77.226562 99.5 49.75 C 99.5 22.273438 77.226562 0 49.75 0 Z M 49.75 0 "/></clipPath><clipPath id="20dd0598a9"><rect x="0" width="100" y="0" height="100"/></clipPath><clipPath id="28d3c3bfc6"><path d="M 16.085938 29 L 40 29 L 40 41 L 16.085938 41 Z M 16.085938 29 "/></clipPath><clipPath id="79ac50b61d"><path d="M 22 30 L 79 30 L 79 82.914062 L 22 82.914062 Z M 22 30 "/></clipPath><clipPath id="460e78db9b"><path d="M 38 16.328125 L 45 16.328125 L 45 23 L 38 23 Z M 38 16.328125 "/></clipPath><clipPath id="efea2b1357"><path d="M 55 16.328125 L 62 16.328125 L 62 22 L 55 22 Z M 55 16.328125 "/></clipPath><clipPath id="dc588e6a76"><path d="M 31 60 L 69 60 L 69 82.914062 L 31 82.914062 Z M 31 60 "/></clipPath></defs><g id="ee84185bca"><g clip-rule="nonzero" clip-path="url(#abe4986c06)"><g clip-rule="nonzero" clip-path="url(#c93132cff5)"><g transform="matrix(1,0,0,1,-0,-0.000000000000003885)"><g clip-path="url(#20dd0598a9)"><g clip-rule="nonzero" clip-path="url(#43e7fa1a84)"><g clip-rule="nonzero" clip-path="url(#bf6e513611)"><path style=" stroke:none;fill-rule:nonzero;fill:#ffcb7b;fill-opacity:1;" d="M 0 0 L 99.5 0 L 99.5 99.5 L 0 99.5 Z M 0 0 "/></g></g></g></g></g></g><g clip-rule="nonzero" clip-path="url(#28d3c3bfc6)"><path style=" stroke:none;fill-rule:evenodd;fill:#f7993f;fill-opacity:1;" d="M 39.824219 34.925781 C 39.824219 34.925781 33.960938 28.71875 28.84375 29.632812 C 25.921875 30.152344 16.082031 32.492188 16.855469 33.933594 C 18.738281 37.460938 32.980469 40.332031 32.980469 40.332031 Z M 39.824219 34.925781 "/></g><path style=" stroke:none;fill-rule:evenodd;fill:#f7993f;fill-opacity:1;" d="M 59.667969 34.925781 C 59.667969 34.925781 65.53125 28.71875 70.648438 29.632812 C 73.570312 30.152344 83.410156 32.492188 82.636719 33.933594 C 80.753906 37.460938 66.511719 40.332031 66.511719 40.332031 Z M 59.667969 34.925781 "/><path style=" stroke:none;fill-rule:evenodd;fill:#e76340;fill-opacity:1;" d="M 35.222656 34.929688 C 35.222656 34.929688 31.703125 31.207031 28.632812 31.753906 C 26.882812 32.066406 20.980469 33.472656 21.441406 34.335938 C 22.570312 36.449219 31.113281 38.175781 31.113281 38.175781 Z M 35.222656 34.929688 "/><path style=" stroke:none;fill-rule:evenodd;fill:#e76340;fill-opacity:1;" d="M 64.273438 34.929688 C 64.273438 34.929688 67.792969 31.207031 70.863281 31.753906 C 72.613281 32.066406 78.515625 33.472656 78.054688 34.335938 C 76.925781 36.449219 68.382812 38.175781 68.382812 38.175781 Z M 64.273438 34.929688 "/><g clip-rule="nonzero" clip-path="url(#79ac50b61d)"><path style=" stroke:none;fill-rule:evenodd;fill:#f7993f;fill-opacity:1;" d="M 25.269531 59.132812 C 25.148438 58.117188 25.089844 57.082031 25.089844 56.035156 C 25.089844 41.914062 36.382812 30.453125 50.292969 30.453125 C 64.207031 30.453125 75.5 41.917969 75.5 56.035156 C 75.5 57.082031 75.4375 58.117188 75.316406 59.132812 C 77.175781 61.335938 78.21875 63.820312 78.21875 66.445312 C 78.21875 75.53125 65.707031 82.914062 50.296875 82.914062 C 34.886719 82.914062 22.375 75.535156 22.375 66.445312 C 22.367188 63.820312 23.414062 61.335938 25.269531 59.132812 Z M 25.269531 59.132812 "/></g><path style=" stroke:none;fill-rule:evenodd;fill:#e76340;fill-opacity:1;" d="M 71.703125 42.542969 C 72.566406 43.949219 73.300781 45.449219 73.882812 47.023438 C 73.53125 47.320312 73.046875 47.503906 72.421875 47.492188 C 69.351562 47.425781 68.875 42.859375 71.703125 42.542969 Z M 71.703125 42.542969 "/><path style=" stroke:none;fill-rule:evenodd;fill:#e76340;fill-opacity:1;" d="M 60.257812 35.015625 C 57.417969 35.320312 57.898438 39.898438 60.96875 39.960938 C 64.070312 40.027344 63.6875 35.324219 61.140625 34.824219 Z M 60.257812 35.015625 "/><path style=" stroke:none;fill-rule:evenodd;fill:#e76340;fill-opacity:1;" d="M 33.550781 40.625 C 31.230469 40.875 31.621094 44.617188 34.128906 44.667969 C 36.664062 44.714844 36.351562 40.875 34.269531 40.472656 Z M 33.550781 40.625 "/><path style=" stroke:none;fill-rule:evenodd;fill:#e76340;fill-opacity:1;" d="M 50.078125 40.625 C 47.757812 40.875 48.148438 44.617188 50.65625 44.667969 C 53.191406 44.714844 52.878906 40.875 50.796875 40.472656 Z M 50.078125 40.625 "/><path style=" stroke:none;fill-rule:evenodd;fill:#e76340;fill-opacity:1;" d="M 53.71875 36.546875 C 52.570312 36.675781 52.761719 38.523438 54.003906 38.550781 C 55.261719 38.574219 55.105469 36.675781 54.074219 36.472656 Z M 53.71875 36.546875 "/><path style=" stroke:none;fill-rule:evenodd;fill:#e76340;fill-opacity:1;" d="M 46.726562 34.953125 C 44.796875 35.164062 45.125 38.273438 47.210938 38.316406 C 49.316406 38.359375 49.054688 35.164062 47.324219 34.828125 Z M 46.726562 34.953125 "/><path style=" stroke:none;fill-rule:evenodd;fill:#e76340;fill-opacity:1;" d="M 66.769531 47.484375 C 64.253906 46.148438 62.0625 50.199219 64.5625 51.976562 C 67.089844 53.765625 69.429688 49.664062 67.605469 47.828125 Z M 66.769531 47.484375 "/><path style=" stroke:none;fill-rule:evenodd;fill:#e76340;fill-opacity:1;" d="M 75.417969 54.011719 C 75.226562 54.199219 74.945312 54.320312 74.578125 54.308594 C 72.914062 54.277344 72.652344 51.792969 74.191406 51.628906 L 74.671875 51.527344 C 74.847656 51.5625 75.003906 51.632812 75.144531 51.734375 C 75.265625 52.480469 75.359375 53.242188 75.417969 54.011719 Z M 27.113281 45.96875 L 27.519531 45.882812 C 30.300781 46.429688 30.71875 51.5625 27.335938 51.492188 C 26.628906 51.476562 26.042969 51.242188 25.601562 50.878906 C 25.941406 49.171875 26.453125 47.53125 27.113281 45.96875 Z M 47.644531 30.59375 C 48.515625 30.5 49.398438 30.453125 50.289062 30.453125 C 50.976562 30.453125 51.65625 30.484375 52.332031 30.539062 C 52.683594 31.988281 52.074219 33.648438 50.222656 33.609375 C 48.414062 33.570312 47.503906 31.964844 47.644531 30.59375 Z M 47.644531 30.59375 "/><path style=" stroke:none;fill-rule:evenodd;fill:#e76340;fill-opacity:1;" d="M 42.242188 38.601562 C 40.3125 38.8125 40.636719 41.917969 42.722656 41.964844 C 44.832031 42.007812 44.570312 38.8125 42.839844 38.472656 Z M 42.242188 38.601562 "/><path style=" stroke:none;fill-rule:evenodd;fill:#f7993f;fill-opacity:1;" d="M 42.605469 34.9375 C 42.042969 33.050781 40.101562 23.277344 40.109375 22.160156 C 40.113281 21.429688 43.003906 20.207031 43.449219 20.921875 C 44.632812 22.851562 48.28125 33.089844 47.046875 33.882812 Z M 42.605469 34.9375 "/><path style=" stroke:none;fill-rule:evenodd;fill:#f7993f;fill-opacity:1;" d="M 57.878906 34.921875 C 58.367188 33.011719 59.914062 23.167969 59.859375 22.058594 C 59.828125 21.324219 56.890625 20.214844 56.476562 20.953125 C 55.371094 22.925781 52.132812 33.300781 53.398438 34.046875 Z M 57.878906 34.921875 "/><g clip-rule="nonzero" clip-path="url(#460e78db9b)"><path style=" stroke:none;fill-rule:evenodd;fill:#e76340;fill-opacity:1;" d="M 39.835938 21.964844 C 39.074219 21.613281 37.835938 18.742188 38.574219 18.011719 C 39.082031 17.503906 39.699219 18.070312 39.699219 18.070312 C 39.699219 18.070312 39.46875 16.953125 40.09375 16.796875 C 40.800781 16.621094 41.3125 17.382812 41.3125 17.382812 C 41.3125 17.382812 41.542969 16.4375 41.925781 16.398438 C 42.636719 16.328125 42.890625 17.410156 42.890625 17.410156 C 42.890625 17.410156 43.066406 16.488281 43.617188 16.554688 C 44.585938 16.675781 44.394531 20.285156 43.957031 20.996094 C 43.515625 21.695312 40.597656 22.3125 39.835938 21.964844 Z M 39.835938 21.964844 "/></g><g clip-rule="nonzero" clip-path="url(#efea2b1357)"><path style=" stroke:none;fill-rule:evenodd;fill:#e76340;fill-opacity:1;" d="M 60.128906 21.851562 C 60.875 21.464844 61.992188 18.554688 61.230469 17.851562 C 60.703125 17.367188 60.109375 17.953125 60.109375 17.953125 C 60.109375 17.953125 60.296875 16.824219 59.667969 16.695312 C 58.953125 16.546875 58.472656 17.328125 58.472656 17.328125 C 58.472656 17.328125 58.203125 16.390625 57.820312 16.371094 C 57.105469 16.328125 56.898438 17.421875 56.898438 17.421875 C 56.898438 17.421875 56.683594 16.503906 56.136719 16.59375 C 55.171875 16.75 55.507812 20.355469 55.976562 21.039062 C 56.441406 21.726562 59.378906 22.230469 60.128906 21.851562 Z M 60.128906 21.851562 "/></g><path style=" stroke:none;fill-rule:evenodd;fill:#ffffff;fill-opacity:1;" d="M 46.324219 52.085938 C 46.324219 49.753906 44.429688 47.859375 42.085938 47.859375 C 39.746094 47.859375 37.84375 49.753906 37.84375 52.085938 L 37.84375 54.460938 C 37.84375 56.792969 39.742188 58.683594 42.085938 58.683594 C 44.425781 58.683594 46.324219 56.792969 46.324219 54.460938 Z M 46.324219 52.085938 "/><path style=" stroke:none;fill-rule:evenodd;fill:#ffffff;fill-opacity:1;" d="M 53.558594 52.085938 C 53.558594 49.753906 55.457031 47.859375 57.800781 47.859375 C 60.140625 47.859375 62.039062 49.753906 62.039062 52.085938 L 62.039062 54.460938 C 62.039062 56.792969 60.144531 58.683594 57.800781 58.683594 C 55.460938 58.683594 53.558594 56.792969 53.558594 54.460938 Z M 53.558594 52.085938 "/><path style=" stroke:none;fill-rule:evenodd;fill:#512d1b;fill-opacity:1;" d="M 47.042969 52.210938 C 47.042969 50.132812 45.351562 48.445312 43.265625 48.445312 C 41.179688 48.445312 39.488281 50.132812 39.488281 52.210938 L 39.488281 54.328125 C 39.488281 56.40625 41.179688 58.089844 43.265625 58.089844 C 45.351562 58.089844 47.042969 56.40625 47.042969 54.328125 Z M 47.042969 52.210938 "/><path style=" stroke:none;fill-rule:evenodd;fill:#512d1b;fill-opacity:1;" d="M 52.839844 52.210938 C 52.839844 50.132812 54.535156 48.445312 56.621094 48.445312 C 58.707031 48.445312 60.398438 50.132812 60.398438 52.210938 L 60.398438 54.328125 C 60.398438 56.40625 58.707031 58.089844 56.621094 58.089844 C 54.535156 58.089844 52.839844 56.40625 52.839844 54.328125 Z M 52.839844 52.210938 "/><g clip-rule="nonzero" clip-path="url(#dc588e6a76)"><path style=" stroke:none;fill-rule:evenodd;fill:#ffd9b6;fill-opacity:1;" d="M 32.476562 79.121094 C 32.046875 78.101562 31.820312 76.914062 31.820312 75.542969 C 31.820312 67.105469 39.996094 60.257812 50.058594 60.257812 C 60.125 60.257812 68.292969 67.105469 68.292969 75.542969 C 68.292969 77.019531 68.058594 78.28125 67.617188 79.355469 C 62.851562 81.582031 56.835938 82.914062 50.292969 82.914062 C 43.519531 82.910156 37.3125 81.488281 32.476562 79.121094 Z M 32.476562 79.121094 "/></g><path style=" stroke:none;fill-rule:evenodd;fill:#512d1b;fill-opacity:1;" d="M 51.445312 63.660156 C 50.542969 64.867188 51.589844 66.726562 53.722656 66.273438 C 55.894531 65.808594 56.578125 63.359375 56.105469 62.667969 C 55.554688 61.867188 53.097656 61.433594 51.445312 63.660156 Z M 51.445312 63.660156 "/><path style=" stroke:none;fill-rule:evenodd;fill:#512d1b;fill-opacity:1;" d="M 48.800781 63.660156 C 49.703125 64.867188 48.65625 66.726562 46.523438 66.273438 C 44.347656 65.808594 43.667969 63.359375 44.140625 62.667969 C 44.695312 61.867188 47.144531 61.433594 48.800781 63.660156 Z M 48.800781 63.660156 "/><path style=" stroke:none;fill-rule:evenodd;fill:#512d1b;fill-opacity:1;" d="M 42.46875 44.164062 C 41.53125 44.027344 40.605469 44.039062 39.710938 44.292969 C 39.355469 44.390625 39.003906 44.535156 38.671875 44.722656 C 38.214844 44.976562 37.773438 45.3125 37.351562 45.722656 C 37.105469 45.933594 37.078125 46.300781 37.292969 46.546875 C 37.503906 46.785156 37.871094 46.816406 38.117188 46.605469 C 38.5 46.308594 38.894531 46.097656 39.285156 45.917969 C 39.554688 45.792969 39.828125 45.691406 40.105469 45.605469 C 40.824219 45.386719 41.558594 45.300781 42.328125 45.367188 C 42.660156 45.402344 42.960938 45.167969 43 44.835938 C 43.039062 44.5 42.800781 44.203125 42.46875 44.164062 Z M 42.46875 44.164062 "/><path style=" stroke:none;fill-rule:evenodd;fill:#512d1b;fill-opacity:1;" d="M 57.050781 45.363281 C 57.816406 45.296875 58.554688 45.382812 59.273438 45.601562 C 59.546875 45.6875 59.824219 45.789062 60.09375 45.914062 C 60.484375 46.09375 60.875 46.304688 61.261719 46.601562 C 61.503906 46.8125 61.875 46.785156 62.085938 46.542969 C 62.296875 46.296875 62.273438 45.929688 62.027344 45.71875 C 61.605469 45.308594 61.167969 44.972656 60.707031 44.714844 C 60.367188 44.53125 60.023438 44.386719 59.667969 44.285156 C 58.773438 44.03125 57.851562 44.019531 56.90625 44.160156 C 56.578125 44.199219 56.335938 44.496094 56.375 44.832031 C 56.417969 45.164062 56.71875 45.402344 57.050781 45.363281 Z M 57.050781 45.363281 "/></g></svg>